%FSLAX45Y45*%
G04 Gerber Fmt 4.5, Leading zero omitted, Abs format (unit mm)*
G04 Created by KiCad (PCBNEW (6.0.6)) date 2023-06-15 01:10:45*
%MOMM*%
%LPD*%
G01*
G04 APERTURE LIST*
%TA.AperFunction,Profile*%
%ADD10C,0.100000*%
%TD*%
%ADD11C,0.200000*%
%ADD12C,0.040000*%
%ADD13C,0.090000*%
%ADD14C,0.100000*%
%ADD15C,0.109220*%
%ADD16C,0.110000*%
G04 APERTURE END LIST*
D10*
X6540500Y-4038600D02*
X9969500Y-4038600D01*
X10033000Y-4114800D02*
X10033000Y-10477500D01*
X6858000Y-10858500D02*
X9652000Y-10858500D01*
X6477000Y-4089400D02*
X6477000Y-10477500D01*
X6540500Y-4038596D02*
G75*
G03*
X6477000Y-4089400I-4290J-59724D01*
G01*
X10033000Y-4114800D02*
G75*
G03*
X9969500Y-4038600I-70990J5400D01*
G01*
X6477000Y-10477500D02*
G75*
G03*
X6858000Y-10858500I381000J0D01*
G01*
X9652000Y-10858500D02*
G75*
G03*
X10033000Y-10477500I0J381000D01*
G01*
D11*
D12*
X7168200Y-8108000D02*
X7208200Y-8148000D01*
X7208200Y-8108000D02*
X7168200Y-8148000D01*
X7168200Y-8425450D02*
X7208200Y-8465450D01*
X7208200Y-8425450D02*
X7168200Y-8465450D01*
X9040695Y-7911905D02*
X9080695Y-7951905D01*
X9080695Y-7911905D02*
X9040695Y-7951905D01*
X9187500Y-7777800D02*
X9227500Y-7817800D01*
X9227500Y-7777800D02*
X9187500Y-7817800D01*
X9433050Y-6828822D02*
X9473050Y-6868822D01*
X9473050Y-6828822D02*
X9433050Y-6868822D01*
X9767950Y-7295200D02*
X9807950Y-7335200D01*
X9807950Y-7295200D02*
X9767950Y-7335200D01*
X9847703Y-7234955D02*
X9887703Y-7274955D01*
X9887703Y-7234955D02*
X9847703Y-7274955D01*
D13*
X6673000Y-5381250D02*
G75*
G03*
X6673000Y-5381250I-45000J0D01*
G01*
D11*
X6583000Y-5361250D02*
X6583000Y-5401250D01*
X6673000Y-5361250D02*
X6673000Y-5401250D01*
X6583000Y-5401250D02*
G75*
G03*
X6673000Y-5401250I45000J0D01*
G01*
X6673000Y-5361250D02*
G75*
G03*
X6583000Y-5361250I-45000J0D01*
G01*
D13*
X7092750Y-7771000D02*
G75*
G03*
X7092750Y-7771000I-45000J0D01*
G01*
D11*
X7027750Y-7816000D02*
X7067750Y-7816000D01*
X7027750Y-7726000D02*
X7067750Y-7726000D01*
X7067750Y-7816000D02*
G75*
G03*
X7067750Y-7726000I0J45000D01*
G01*
X7027750Y-7726000D02*
G75*
G03*
X7027750Y-7816000I0J-45000D01*
G01*
D13*
X7133000Y-4571250D02*
G75*
G03*
X7133000Y-4571250I-45000J0D01*
G01*
D11*
X7043000Y-4551250D02*
X7043000Y-4591250D01*
X7133000Y-4551250D02*
X7133000Y-4591250D01*
X7043000Y-4591250D02*
G75*
G03*
X7133000Y-4591250I45000J0D01*
G01*
X7133000Y-4551250D02*
G75*
G03*
X7043000Y-4551250I-45000J0D01*
G01*
D13*
X7133000Y-4871250D02*
G75*
G03*
X7133000Y-4871250I-45000J0D01*
G01*
D11*
X7043000Y-4851250D02*
X7043000Y-4891250D01*
X7133000Y-4851250D02*
X7133000Y-4891250D01*
X7043000Y-4891250D02*
G75*
G03*
X7133000Y-4891250I45000J0D01*
G01*
X7133000Y-4851250D02*
G75*
G03*
X7043000Y-4851250I-45000J0D01*
G01*
D13*
X7133000Y-5271250D02*
G75*
G03*
X7133000Y-5271250I-45000J0D01*
G01*
D11*
X7043000Y-5251250D02*
X7043000Y-5291250D01*
X7133000Y-5251250D02*
X7133000Y-5291250D01*
X7043000Y-5291250D02*
G75*
G03*
X7133000Y-5291250I45000J0D01*
G01*
X7133000Y-5251250D02*
G75*
G03*
X7043000Y-5251250I-45000J0D01*
G01*
D13*
X7392750Y-7771000D02*
G75*
G03*
X7392750Y-7771000I-45000J0D01*
G01*
D11*
X7327750Y-7816000D02*
X7367750Y-7816000D01*
X7327750Y-7726000D02*
X7367750Y-7726000D01*
X7367750Y-7816000D02*
G75*
G03*
X7367750Y-7726000I0J45000D01*
G01*
X7327750Y-7726000D02*
G75*
G03*
X7327750Y-7816000I0J-45000D01*
G01*
D13*
X7792750Y-7771000D02*
G75*
G03*
X7792750Y-7771000I-45000J0D01*
G01*
D11*
X7727750Y-7816000D02*
X7767750Y-7816000D01*
X7727750Y-7726000D02*
X7767750Y-7726000D01*
X7767750Y-7816000D02*
G75*
G03*
X7767750Y-7726000I0J45000D01*
G01*
X7727750Y-7726000D02*
G75*
G03*
X7727750Y-7816000I0J-45000D01*
G01*
D13*
X7902750Y-8231000D02*
G75*
G03*
X7902750Y-8231000I-45000J0D01*
G01*
D11*
X7837750Y-8276000D02*
X7877750Y-8276000D01*
X7837750Y-8186000D02*
X7877750Y-8186000D01*
X7877750Y-8276000D02*
G75*
G03*
X7877750Y-8186000I0J45000D01*
G01*
X7837750Y-8186000D02*
G75*
G03*
X7837750Y-8276000I0J-45000D01*
G01*
D13*
X8697250Y-7771000D02*
G75*
G03*
X8697250Y-7771000I-45000J0D01*
G01*
D11*
X8672250Y-7726000D02*
X8632250Y-7726000D01*
X8672250Y-7816000D02*
X8632250Y-7816000D01*
X8632250Y-7726000D02*
G75*
G03*
X8632250Y-7816000I0J-45000D01*
G01*
X8672250Y-7816000D02*
G75*
G03*
X8672250Y-7726000I0J45000D01*
G01*
D13*
X8807250Y-8231000D02*
G75*
G03*
X8807250Y-8231000I-45000J0D01*
G01*
D11*
X8782250Y-8186000D02*
X8742250Y-8186000D01*
X8782250Y-8276000D02*
X8742250Y-8276000D01*
X8742250Y-8186000D02*
G75*
G03*
X8742250Y-8276000I0J-45000D01*
G01*
X8782250Y-8276000D02*
G75*
G03*
X8782250Y-8186000I0J45000D01*
G01*
D13*
X9207250Y-8231000D02*
G75*
G03*
X9207250Y-8231000I-45000J0D01*
G01*
D11*
X9182250Y-8186000D02*
X9142250Y-8186000D01*
X9182250Y-8276000D02*
X9142250Y-8276000D01*
X9142250Y-8186000D02*
G75*
G03*
X9142250Y-8276000I0J-45000D01*
G01*
X9182250Y-8276000D02*
G75*
G03*
X9182250Y-8186000I0J45000D01*
G01*
D13*
X9467000Y-5381250D02*
G75*
G03*
X9467000Y-5381250I-45000J0D01*
G01*
D11*
X9377000Y-5361250D02*
X9377000Y-5401250D01*
X9467000Y-5361250D02*
X9467000Y-5401250D01*
X9377000Y-5401250D02*
G75*
G03*
X9467000Y-5401250I45000J0D01*
G01*
X9467000Y-5361250D02*
G75*
G03*
X9377000Y-5361250I-45000J0D01*
G01*
D13*
X9507250Y-8231000D02*
G75*
G03*
X9507250Y-8231000I-45000J0D01*
G01*
D11*
X9482250Y-8186000D02*
X9442250Y-8186000D01*
X9482250Y-8276000D02*
X9442250Y-8276000D01*
X9442250Y-8186000D02*
G75*
G03*
X9442250Y-8276000I0J-45000D01*
G01*
X9482250Y-8276000D02*
G75*
G03*
X9482250Y-8186000I0J45000D01*
G01*
D13*
X9927000Y-4571250D02*
G75*
G03*
X9927000Y-4571250I-45000J0D01*
G01*
D11*
X9837000Y-4551250D02*
X9837000Y-4591250D01*
X9927000Y-4551250D02*
X9927000Y-4591250D01*
X9837000Y-4591250D02*
G75*
G03*
X9927000Y-4591250I45000J0D01*
G01*
X9927000Y-4551250D02*
G75*
G03*
X9837000Y-4551250I-45000J0D01*
G01*
D13*
X9927000Y-4871250D02*
G75*
G03*
X9927000Y-4871250I-45000J0D01*
G01*
D11*
X9837000Y-4851250D02*
X9837000Y-4891250D01*
X9927000Y-4851250D02*
X9927000Y-4891250D01*
X9837000Y-4891250D02*
G75*
G03*
X9927000Y-4891250I45000J0D01*
G01*
X9927000Y-4851250D02*
G75*
G03*
X9837000Y-4851250I-45000J0D01*
G01*
D13*
X9927000Y-5271250D02*
G75*
G03*
X9927000Y-5271250I-45000J0D01*
G01*
D11*
X9837000Y-5251250D02*
X9837000Y-5291250D01*
X9927000Y-5251250D02*
X9927000Y-5291250D01*
X9837000Y-5291250D02*
G75*
G03*
X9927000Y-5291250I45000J0D01*
G01*
X9927000Y-5251250D02*
G75*
G03*
X9837000Y-5251250I-45000J0D01*
G01*
D14*
X7367500Y-9729000D02*
X7367500Y-9829000D01*
X7317500Y-9779000D02*
X7417500Y-9779000D01*
X7495000Y-9155000D02*
X7495000Y-9255000D01*
X7445000Y-9205000D02*
X7545000Y-9205000D01*
X7620000Y-8586000D02*
X7620000Y-8686000D01*
X7570000Y-8636000D02*
X7670000Y-8636000D01*
X7621500Y-9729000D02*
X7621500Y-9829000D01*
X7571500Y-9779000D02*
X7671500Y-9779000D01*
X7749000Y-9155000D02*
X7749000Y-9255000D01*
X7699000Y-9205000D02*
X7799000Y-9205000D01*
X7874000Y-8586000D02*
X7874000Y-8686000D01*
X7824000Y-8636000D02*
X7924000Y-8636000D01*
X7875500Y-9729000D02*
X7875500Y-9829000D01*
X7825500Y-9779000D02*
X7925500Y-9779000D01*
X8003000Y-9155000D02*
X8003000Y-9255000D01*
X7953000Y-9205000D02*
X8053000Y-9205000D01*
X8128000Y-8586000D02*
X8128000Y-8686000D01*
X8078000Y-8636000D02*
X8178000Y-8636000D01*
X8129500Y-9729000D02*
X8129500Y-9829000D01*
X8079500Y-9779000D02*
X8179500Y-9779000D01*
X8257000Y-9155000D02*
X8257000Y-9255000D01*
X8207000Y-9205000D02*
X8307000Y-9205000D01*
X8382000Y-8586000D02*
X8382000Y-8686000D01*
X8332000Y-8636000D02*
X8432000Y-8636000D01*
X8383500Y-9729000D02*
X8383500Y-9829000D01*
X8333500Y-9779000D02*
X8433500Y-9779000D01*
X8511000Y-9155000D02*
X8511000Y-9255000D01*
X8461000Y-9205000D02*
X8561000Y-9205000D01*
X8636000Y-8586000D02*
X8636000Y-8686000D01*
X8586000Y-8636000D02*
X8686000Y-8636000D01*
X8637500Y-9729000D02*
X8637500Y-9829000D01*
X8587500Y-9779000D02*
X8687500Y-9779000D01*
X8765000Y-9155000D02*
X8765000Y-9255000D01*
X8715000Y-9205000D02*
X8815000Y-9205000D01*
X8890000Y-8586000D02*
X8890000Y-8686000D01*
X8840000Y-8636000D02*
X8940000Y-8636000D01*
X8891500Y-9729000D02*
X8891500Y-9829000D01*
X8841500Y-9779000D02*
X8941500Y-9779000D01*
X9019000Y-9155000D02*
X9019000Y-9255000D01*
X8969000Y-9205000D02*
X9069000Y-9205000D01*
X9145500Y-9729000D02*
X9145500Y-9829000D01*
X9095500Y-9779000D02*
X9195500Y-9779000D01*
D15*
X7531615Y-4674116D02*
X7531615Y-4596885D01*
X7454384Y-4596885D01*
X7454384Y-4674116D01*
X7531615Y-4674116D01*
X7531615Y-4928116D02*
X7531615Y-4850885D01*
X7454384Y-4850885D01*
X7454384Y-4928116D01*
X7531615Y-4928116D01*
X7531615Y-5182116D02*
X7531615Y-5104885D01*
X7454384Y-5104885D01*
X7454384Y-5182116D01*
X7531615Y-5182116D01*
X7531615Y-5436116D02*
X7531615Y-5358885D01*
X7454384Y-5358885D01*
X7454384Y-5436116D01*
X7531615Y-5436116D01*
X7531615Y-5690115D02*
X7531615Y-5612884D01*
X7454384Y-5612884D01*
X7454384Y-5690115D01*
X7531615Y-5690115D01*
X7531615Y-5944115D02*
X7531615Y-5866884D01*
X7454384Y-5866884D01*
X7454384Y-5944115D01*
X7531615Y-5944115D01*
X7531615Y-6198115D02*
X7531615Y-6120884D01*
X7454384Y-6120884D01*
X7454384Y-6198115D01*
X7531615Y-6198115D01*
X7531615Y-6452115D02*
X7531615Y-6374884D01*
X7454384Y-6374884D01*
X7454384Y-6452115D01*
X7531615Y-6452115D01*
X7531615Y-6706115D02*
X7531615Y-6628884D01*
X7454384Y-6628884D01*
X7454384Y-6706115D01*
X7531615Y-6706115D01*
X7531615Y-6960115D02*
X7531615Y-6882884D01*
X7454384Y-6882884D01*
X7454384Y-6960115D01*
X7531615Y-6960115D01*
X7531615Y-7214115D02*
X7531615Y-7136884D01*
X7454384Y-7136884D01*
X7454384Y-7214115D01*
X7531615Y-7214115D01*
X7531615Y-7468115D02*
X7531615Y-7390884D01*
X7454384Y-7390884D01*
X7454384Y-7468115D01*
X7531615Y-7468115D01*
X7785615Y-7468115D02*
X7785615Y-7390884D01*
X7708384Y-7390884D01*
X7708384Y-7468115D01*
X7785615Y-7468115D01*
X8039615Y-7468115D02*
X8039615Y-7390884D01*
X7962384Y-7390884D01*
X7962384Y-7468115D01*
X8039615Y-7468115D01*
X8293615Y-7468115D02*
X8293615Y-7390884D01*
X8216384Y-7390884D01*
X8216384Y-7468115D01*
X8293615Y-7468115D01*
X8547616Y-7468115D02*
X8547616Y-7390884D01*
X8470385Y-7390884D01*
X8470385Y-7468115D01*
X8547616Y-7468115D01*
X8801616Y-7468115D02*
X8801616Y-7390884D01*
X8724385Y-7390884D01*
X8724385Y-7468115D01*
X8801616Y-7468115D01*
X9055616Y-4674116D02*
X9055616Y-4596885D01*
X8978385Y-4596885D01*
X8978385Y-4674116D01*
X9055616Y-4674116D01*
X9055616Y-4928116D02*
X9055616Y-4850885D01*
X8978385Y-4850885D01*
X8978385Y-4928116D01*
X9055616Y-4928116D01*
X9055616Y-5182116D02*
X9055616Y-5104885D01*
X8978385Y-5104885D01*
X8978385Y-5182116D01*
X9055616Y-5182116D01*
X9055616Y-5436116D02*
X9055616Y-5358885D01*
X8978385Y-5358885D01*
X8978385Y-5436116D01*
X9055616Y-5436116D01*
X9055616Y-5690115D02*
X9055616Y-5612884D01*
X8978385Y-5612884D01*
X8978385Y-5690115D01*
X9055616Y-5690115D01*
X9055616Y-5944115D02*
X9055616Y-5866884D01*
X8978385Y-5866884D01*
X8978385Y-5944115D01*
X9055616Y-5944115D01*
X9055616Y-6198115D02*
X9055616Y-6120884D01*
X8978385Y-6120884D01*
X8978385Y-6198115D01*
X9055616Y-6198115D01*
X9055616Y-6452115D02*
X9055616Y-6374884D01*
X8978385Y-6374884D01*
X8978385Y-6452115D01*
X9055616Y-6452115D01*
X9055616Y-6706115D02*
X9055616Y-6628884D01*
X8978385Y-6628884D01*
X8978385Y-6706115D01*
X9055616Y-6706115D01*
X9055616Y-6960115D02*
X9055616Y-6882884D01*
X8978385Y-6882884D01*
X8978385Y-6960115D01*
X9055616Y-6960115D01*
X9055616Y-7214115D02*
X9055616Y-7136884D01*
X8978385Y-7136884D01*
X8978385Y-7214115D01*
X9055616Y-7214115D01*
X9055616Y-7468115D02*
X9055616Y-7390884D01*
X8978385Y-7390884D01*
X8978385Y-7468115D01*
X9055616Y-7468115D01*
D16*
X7930000Y-10244000D02*
X7985000Y-10189000D01*
X7930000Y-10134000D01*
X7875000Y-10189000D01*
X7930000Y-10244000D01*
X7930000Y-10694000D02*
X7985000Y-10639000D01*
X7930000Y-10584000D01*
X7875000Y-10639000D01*
X7930000Y-10694000D01*
X8580000Y-10244000D02*
X8635000Y-10189000D01*
X8580000Y-10134000D01*
X8525000Y-10189000D01*
X8580000Y-10244000D01*
X8580000Y-10694000D02*
X8635000Y-10639000D01*
X8580000Y-10584000D01*
X8525000Y-10639000D01*
X8580000Y-10694000D01*
D11*
X6729619Y-11173976D02*
X6729619Y-10973976D01*
X6777238Y-10973976D01*
X6805809Y-10983500D01*
X6824857Y-11002548D01*
X6834381Y-11021595D01*
X6843905Y-11059690D01*
X6843905Y-11088262D01*
X6834381Y-11126357D01*
X6824857Y-11145405D01*
X6805809Y-11164452D01*
X6777238Y-11173976D01*
X6729619Y-11173976D01*
X6929619Y-11173976D02*
X6929619Y-11040643D01*
X6929619Y-11078738D02*
X6939143Y-11059690D01*
X6948667Y-11050167D01*
X6967714Y-11040643D01*
X6986762Y-11040643D01*
X7053428Y-11173976D02*
X7053428Y-11040643D01*
X7053428Y-10973976D02*
X7043905Y-10983500D01*
X7053428Y-10993024D01*
X7062952Y-10983500D01*
X7053428Y-10973976D01*
X7053428Y-10993024D01*
X7177238Y-11173976D02*
X7158190Y-11164452D01*
X7148667Y-11145405D01*
X7148667Y-10973976D01*
X7282000Y-11173976D02*
X7262952Y-11164452D01*
X7253428Y-11145405D01*
X7253428Y-10973976D01*
X7510571Y-11173976D02*
X7510571Y-10973976D01*
X7577238Y-11116833D01*
X7643905Y-10973976D01*
X7643905Y-11173976D01*
X7824857Y-11173976D02*
X7824857Y-11069214D01*
X7815333Y-11050167D01*
X7796286Y-11040643D01*
X7758190Y-11040643D01*
X7739143Y-11050167D01*
X7824857Y-11164452D02*
X7805809Y-11173976D01*
X7758190Y-11173976D01*
X7739143Y-11164452D01*
X7729619Y-11145405D01*
X7729619Y-11126357D01*
X7739143Y-11107310D01*
X7758190Y-11097786D01*
X7805809Y-11097786D01*
X7824857Y-11088262D01*
X7920095Y-11040643D02*
X7920095Y-11240643D01*
X7920095Y-11050167D02*
X7939143Y-11040643D01*
X7977238Y-11040643D01*
X7996286Y-11050167D01*
X8005809Y-11059690D01*
X8015333Y-11078738D01*
X8015333Y-11135881D01*
X8005809Y-11154929D01*
X7996286Y-11164452D01*
X7977238Y-11173976D01*
X7939143Y-11173976D01*
X7920095Y-11164452D01*
X8101048Y-11154929D02*
X8110571Y-11164452D01*
X8101048Y-11173976D01*
X8091524Y-11164452D01*
X8101048Y-11154929D01*
X8101048Y-11173976D01*
X8101048Y-11050167D02*
X8110571Y-11059690D01*
X8101048Y-11069214D01*
X8091524Y-11059690D01*
X8101048Y-11050167D01*
X8101048Y-11069214D01*
D12*
X6432000Y-11483500D02*
X6472000Y-11523500D01*
X6472000Y-11483500D02*
X6432000Y-11523500D01*
D11*
X6767714Y-11393976D02*
X6786762Y-11393976D01*
X6805809Y-11403500D01*
X6815333Y-11413024D01*
X6824857Y-11432071D01*
X6834381Y-11470167D01*
X6834381Y-11517786D01*
X6824857Y-11555881D01*
X6815333Y-11574928D01*
X6805809Y-11584452D01*
X6786762Y-11593976D01*
X6767714Y-11593976D01*
X6748667Y-11584452D01*
X6739143Y-11574928D01*
X6729619Y-11555881D01*
X6720095Y-11517786D01*
X6720095Y-11470167D01*
X6729619Y-11432071D01*
X6739143Y-11413024D01*
X6748667Y-11403500D01*
X6767714Y-11393976D01*
X6920095Y-11574928D02*
X6929619Y-11584452D01*
X6920095Y-11593976D01*
X6910571Y-11584452D01*
X6920095Y-11574928D01*
X6920095Y-11593976D01*
X7101048Y-11460643D02*
X7101048Y-11593976D01*
X7053428Y-11384452D02*
X7005809Y-11527309D01*
X7129619Y-11527309D01*
X7243905Y-11393976D02*
X7262952Y-11393976D01*
X7282000Y-11403500D01*
X7291524Y-11413024D01*
X7301048Y-11432071D01*
X7310571Y-11470167D01*
X7310571Y-11517786D01*
X7301048Y-11555881D01*
X7291524Y-11574928D01*
X7282000Y-11584452D01*
X7262952Y-11593976D01*
X7243905Y-11593976D01*
X7224857Y-11584452D01*
X7215333Y-11574928D01*
X7205809Y-11555881D01*
X7196286Y-11517786D01*
X7196286Y-11470167D01*
X7205809Y-11432071D01*
X7215333Y-11413024D01*
X7224857Y-11403500D01*
X7243905Y-11393976D01*
X7434381Y-11393976D02*
X7453428Y-11393976D01*
X7472476Y-11403500D01*
X7482000Y-11413024D01*
X7491524Y-11432071D01*
X7501048Y-11470167D01*
X7501048Y-11517786D01*
X7491524Y-11555881D01*
X7482000Y-11574928D01*
X7472476Y-11584452D01*
X7453428Y-11593976D01*
X7434381Y-11593976D01*
X7415333Y-11584452D01*
X7405809Y-11574928D01*
X7396286Y-11555881D01*
X7386762Y-11517786D01*
X7386762Y-11470167D01*
X7396286Y-11432071D01*
X7405809Y-11413024D01*
X7415333Y-11403500D01*
X7434381Y-11393976D01*
X7586762Y-11593976D02*
X7586762Y-11460643D01*
X7586762Y-11479690D02*
X7596286Y-11470167D01*
X7615333Y-11460643D01*
X7643905Y-11460643D01*
X7662952Y-11470167D01*
X7672476Y-11489214D01*
X7672476Y-11593976D01*
X7672476Y-11489214D02*
X7682000Y-11470167D01*
X7701048Y-11460643D01*
X7729619Y-11460643D01*
X7748667Y-11470167D01*
X7758190Y-11489214D01*
X7758190Y-11593976D01*
X7853428Y-11593976D02*
X7853428Y-11460643D01*
X7853428Y-11479690D02*
X7862952Y-11470167D01*
X7882000Y-11460643D01*
X7910571Y-11460643D01*
X7929619Y-11470167D01*
X7939143Y-11489214D01*
X7939143Y-11593976D01*
X7939143Y-11489214D02*
X7948667Y-11470167D01*
X7967714Y-11460643D01*
X7996286Y-11460643D01*
X8015333Y-11470167D01*
X8024857Y-11489214D01*
X8024857Y-11593976D01*
X8415333Y-11384452D02*
X8243905Y-11641595D01*
X8672476Y-11393976D02*
X8691524Y-11393976D01*
X8710571Y-11403500D01*
X8720095Y-11413024D01*
X8729619Y-11432071D01*
X8739143Y-11470167D01*
X8739143Y-11517786D01*
X8729619Y-11555881D01*
X8720095Y-11574928D01*
X8710571Y-11584452D01*
X8691524Y-11593976D01*
X8672476Y-11593976D01*
X8653429Y-11584452D01*
X8643905Y-11574928D01*
X8634381Y-11555881D01*
X8624857Y-11517786D01*
X8624857Y-11470167D01*
X8634381Y-11432071D01*
X8643905Y-11413024D01*
X8653429Y-11403500D01*
X8672476Y-11393976D01*
X8824857Y-11574928D02*
X8834381Y-11584452D01*
X8824857Y-11593976D01*
X8815333Y-11584452D01*
X8824857Y-11574928D01*
X8824857Y-11593976D01*
X8958190Y-11393976D02*
X8977238Y-11393976D01*
X8996286Y-11403500D01*
X9005810Y-11413024D01*
X9015333Y-11432071D01*
X9024857Y-11470167D01*
X9024857Y-11517786D01*
X9015333Y-11555881D01*
X9005810Y-11574928D01*
X8996286Y-11584452D01*
X8977238Y-11593976D01*
X8958190Y-11593976D01*
X8939143Y-11584452D01*
X8929619Y-11574928D01*
X8920095Y-11555881D01*
X8910571Y-11517786D01*
X8910571Y-11470167D01*
X8920095Y-11432071D01*
X8929619Y-11413024D01*
X8939143Y-11403500D01*
X8958190Y-11393976D01*
X9215333Y-11593976D02*
X9101048Y-11593976D01*
X9158190Y-11593976D02*
X9158190Y-11393976D01*
X9139143Y-11422548D01*
X9120095Y-11441595D01*
X9101048Y-11451119D01*
X9396286Y-11393976D02*
X9301048Y-11393976D01*
X9291524Y-11489214D01*
X9301048Y-11479690D01*
X9320095Y-11470167D01*
X9367714Y-11470167D01*
X9386762Y-11479690D01*
X9396286Y-11489214D01*
X9405810Y-11508262D01*
X9405810Y-11555881D01*
X9396286Y-11574928D01*
X9386762Y-11584452D01*
X9367714Y-11593976D01*
X9320095Y-11593976D01*
X9301048Y-11584452D01*
X9291524Y-11574928D01*
X9472476Y-11393976D02*
X9605810Y-11393976D01*
X9520095Y-11593976D01*
X9672476Y-11393976D02*
X9672476Y-11432071D01*
X9748667Y-11393976D02*
X9748667Y-11432071D01*
X10043905Y-11670167D02*
X10034381Y-11660643D01*
X10015333Y-11632071D01*
X10005810Y-11613024D01*
X9996286Y-11584452D01*
X9986762Y-11536833D01*
X9986762Y-11498738D01*
X9996286Y-11451119D01*
X10005810Y-11422548D01*
X10015333Y-11403500D01*
X10034381Y-11374928D01*
X10043905Y-11365405D01*
X10101048Y-11393976D02*
X10234381Y-11393976D01*
X10148667Y-11593976D01*
X10462952Y-11593976D02*
X10462952Y-11393976D01*
X10548667Y-11593976D02*
X10548667Y-11489214D01*
X10539143Y-11470167D01*
X10520095Y-11460643D01*
X10491524Y-11460643D01*
X10472476Y-11470167D01*
X10462952Y-11479690D01*
X10672476Y-11593976D02*
X10653429Y-11584452D01*
X10643905Y-11574928D01*
X10634381Y-11555881D01*
X10634381Y-11498738D01*
X10643905Y-11479690D01*
X10653429Y-11470167D01*
X10672476Y-11460643D01*
X10701048Y-11460643D01*
X10720095Y-11470167D01*
X10729619Y-11479690D01*
X10739143Y-11498738D01*
X10739143Y-11555881D01*
X10729619Y-11574928D01*
X10720095Y-11584452D01*
X10701048Y-11593976D01*
X10672476Y-11593976D01*
X10853429Y-11593976D02*
X10834381Y-11584452D01*
X10824857Y-11565405D01*
X10824857Y-11393976D01*
X11005810Y-11584452D02*
X10986762Y-11593976D01*
X10948667Y-11593976D01*
X10929619Y-11584452D01*
X10920095Y-11565405D01*
X10920095Y-11489214D01*
X10929619Y-11470167D01*
X10948667Y-11460643D01*
X10986762Y-11460643D01*
X11005810Y-11470167D01*
X11015333Y-11489214D01*
X11015333Y-11508262D01*
X10920095Y-11527309D01*
X11091524Y-11584452D02*
X11110571Y-11593976D01*
X11148667Y-11593976D01*
X11167714Y-11584452D01*
X11177238Y-11565405D01*
X11177238Y-11555881D01*
X11167714Y-11536833D01*
X11148667Y-11527309D01*
X11120095Y-11527309D01*
X11101048Y-11517786D01*
X11091524Y-11498738D01*
X11091524Y-11489214D01*
X11101048Y-11470167D01*
X11120095Y-11460643D01*
X11148667Y-11460643D01*
X11167714Y-11470167D01*
X11243905Y-11670167D02*
X11253428Y-11660643D01*
X11272476Y-11632071D01*
X11282000Y-11613024D01*
X11291524Y-11584452D01*
X11301048Y-11536833D01*
X11301048Y-11498738D01*
X11291524Y-11451119D01*
X11282000Y-11422548D01*
X11272476Y-11403500D01*
X11253428Y-11374928D01*
X11243905Y-11365405D01*
D13*
X6472000Y-11767500D02*
G75*
G03*
X6472000Y-11767500I-45000J0D01*
G01*
D11*
X6767714Y-11657976D02*
X6786762Y-11657976D01*
X6805809Y-11667500D01*
X6815333Y-11677024D01*
X6824857Y-11696071D01*
X6834381Y-11734167D01*
X6834381Y-11781786D01*
X6824857Y-11819881D01*
X6815333Y-11838928D01*
X6805809Y-11848452D01*
X6786762Y-11857976D01*
X6767714Y-11857976D01*
X6748667Y-11848452D01*
X6739143Y-11838928D01*
X6729619Y-11819881D01*
X6720095Y-11781786D01*
X6720095Y-11734167D01*
X6729619Y-11696071D01*
X6739143Y-11677024D01*
X6748667Y-11667500D01*
X6767714Y-11657976D01*
X6920095Y-11838928D02*
X6929619Y-11848452D01*
X6920095Y-11857976D01*
X6910571Y-11848452D01*
X6920095Y-11838928D01*
X6920095Y-11857976D01*
X7024857Y-11857976D02*
X7062952Y-11857976D01*
X7082000Y-11848452D01*
X7091524Y-11838928D01*
X7110571Y-11810357D01*
X7120095Y-11772262D01*
X7120095Y-11696071D01*
X7110571Y-11677024D01*
X7101048Y-11667500D01*
X7082000Y-11657976D01*
X7043905Y-11657976D01*
X7024857Y-11667500D01*
X7015333Y-11677024D01*
X7005809Y-11696071D01*
X7005809Y-11743690D01*
X7015333Y-11762738D01*
X7024857Y-11772262D01*
X7043905Y-11781786D01*
X7082000Y-11781786D01*
X7101048Y-11772262D01*
X7110571Y-11762738D01*
X7120095Y-11743690D01*
X7243905Y-11657976D02*
X7262952Y-11657976D01*
X7282000Y-11667500D01*
X7291524Y-11677024D01*
X7301048Y-11696071D01*
X7310571Y-11734167D01*
X7310571Y-11781786D01*
X7301048Y-11819881D01*
X7291524Y-11838928D01*
X7282000Y-11848452D01*
X7262952Y-11857976D01*
X7243905Y-11857976D01*
X7224857Y-11848452D01*
X7215333Y-11838928D01*
X7205809Y-11819881D01*
X7196286Y-11781786D01*
X7196286Y-11734167D01*
X7205809Y-11696071D01*
X7215333Y-11677024D01*
X7224857Y-11667500D01*
X7243905Y-11657976D01*
X7434381Y-11657976D02*
X7453428Y-11657976D01*
X7472476Y-11667500D01*
X7482000Y-11677024D01*
X7491524Y-11696071D01*
X7501048Y-11734167D01*
X7501048Y-11781786D01*
X7491524Y-11819881D01*
X7482000Y-11838928D01*
X7472476Y-11848452D01*
X7453428Y-11857976D01*
X7434381Y-11857976D01*
X7415333Y-11848452D01*
X7405809Y-11838928D01*
X7396286Y-11819881D01*
X7386762Y-11781786D01*
X7386762Y-11734167D01*
X7396286Y-11696071D01*
X7405809Y-11677024D01*
X7415333Y-11667500D01*
X7434381Y-11657976D01*
X7586762Y-11857976D02*
X7586762Y-11724643D01*
X7586762Y-11743690D02*
X7596286Y-11734167D01*
X7615333Y-11724643D01*
X7643905Y-11724643D01*
X7662952Y-11734167D01*
X7672476Y-11753214D01*
X7672476Y-11857976D01*
X7672476Y-11753214D02*
X7682000Y-11734167D01*
X7701048Y-11724643D01*
X7729619Y-11724643D01*
X7748667Y-11734167D01*
X7758190Y-11753214D01*
X7758190Y-11857976D01*
X7853428Y-11857976D02*
X7853428Y-11724643D01*
X7853428Y-11743690D02*
X7862952Y-11734167D01*
X7882000Y-11724643D01*
X7910571Y-11724643D01*
X7929619Y-11734167D01*
X7939143Y-11753214D01*
X7939143Y-11857976D01*
X7939143Y-11753214D02*
X7948667Y-11734167D01*
X7967714Y-11724643D01*
X7996286Y-11724643D01*
X8015333Y-11734167D01*
X8024857Y-11753214D01*
X8024857Y-11857976D01*
X8415333Y-11648452D02*
X8243905Y-11905595D01*
X8672476Y-11657976D02*
X8691524Y-11657976D01*
X8710571Y-11667500D01*
X8720095Y-11677024D01*
X8729619Y-11696071D01*
X8739143Y-11734167D01*
X8739143Y-11781786D01*
X8729619Y-11819881D01*
X8720095Y-11838928D01*
X8710571Y-11848452D01*
X8691524Y-11857976D01*
X8672476Y-11857976D01*
X8653429Y-11848452D01*
X8643905Y-11838928D01*
X8634381Y-11819881D01*
X8624857Y-11781786D01*
X8624857Y-11734167D01*
X8634381Y-11696071D01*
X8643905Y-11677024D01*
X8653429Y-11667500D01*
X8672476Y-11657976D01*
X8824857Y-11838928D02*
X8834381Y-11848452D01*
X8824857Y-11857976D01*
X8815333Y-11848452D01*
X8824857Y-11838928D01*
X8824857Y-11857976D01*
X8958190Y-11657976D02*
X8977238Y-11657976D01*
X8996286Y-11667500D01*
X9005810Y-11677024D01*
X9015333Y-11696071D01*
X9024857Y-11734167D01*
X9024857Y-11781786D01*
X9015333Y-11819881D01*
X9005810Y-11838928D01*
X8996286Y-11848452D01*
X8977238Y-11857976D01*
X8958190Y-11857976D01*
X8939143Y-11848452D01*
X8929619Y-11838928D01*
X8920095Y-11819881D01*
X8910571Y-11781786D01*
X8910571Y-11734167D01*
X8920095Y-11696071D01*
X8929619Y-11677024D01*
X8939143Y-11667500D01*
X8958190Y-11657976D01*
X9091524Y-11657976D02*
X9215333Y-11657976D01*
X9148667Y-11734167D01*
X9177238Y-11734167D01*
X9196286Y-11743690D01*
X9205810Y-11753214D01*
X9215333Y-11772262D01*
X9215333Y-11819881D01*
X9205810Y-11838928D01*
X9196286Y-11848452D01*
X9177238Y-11857976D01*
X9120095Y-11857976D01*
X9101048Y-11848452D01*
X9091524Y-11838928D01*
X9396286Y-11657976D02*
X9301048Y-11657976D01*
X9291524Y-11753214D01*
X9301048Y-11743690D01*
X9320095Y-11734167D01*
X9367714Y-11734167D01*
X9386762Y-11743690D01*
X9396286Y-11753214D01*
X9405810Y-11772262D01*
X9405810Y-11819881D01*
X9396286Y-11838928D01*
X9386762Y-11848452D01*
X9367714Y-11857976D01*
X9320095Y-11857976D01*
X9301048Y-11848452D01*
X9291524Y-11838928D01*
X9577238Y-11724643D02*
X9577238Y-11857976D01*
X9529619Y-11648452D02*
X9482000Y-11791309D01*
X9605810Y-11791309D01*
X9672476Y-11657976D02*
X9672476Y-11696071D01*
X9748667Y-11657976D02*
X9748667Y-11696071D01*
X10043905Y-11934167D02*
X10034381Y-11924643D01*
X10015333Y-11896071D01*
X10005810Y-11877024D01*
X9996286Y-11848452D01*
X9986762Y-11800833D01*
X9986762Y-11762738D01*
X9996286Y-11715119D01*
X10005810Y-11686548D01*
X10015333Y-11667500D01*
X10034381Y-11638928D01*
X10043905Y-11629405D01*
X10158190Y-11657976D02*
X10177238Y-11657976D01*
X10196286Y-11667500D01*
X10205810Y-11677024D01*
X10215333Y-11696071D01*
X10224857Y-11734167D01*
X10224857Y-11781786D01*
X10215333Y-11819881D01*
X10205810Y-11838928D01*
X10196286Y-11848452D01*
X10177238Y-11857976D01*
X10158190Y-11857976D01*
X10139143Y-11848452D01*
X10129619Y-11838928D01*
X10120095Y-11819881D01*
X10110571Y-11781786D01*
X10110571Y-11734167D01*
X10120095Y-11696071D01*
X10129619Y-11677024D01*
X10139143Y-11667500D01*
X10158190Y-11657976D01*
X10462952Y-11857976D02*
X10462952Y-11657976D01*
X10548667Y-11857976D02*
X10548667Y-11753214D01*
X10539143Y-11734167D01*
X10520095Y-11724643D01*
X10491524Y-11724643D01*
X10472476Y-11734167D01*
X10462952Y-11743690D01*
X10672476Y-11857976D02*
X10653429Y-11848452D01*
X10643905Y-11838928D01*
X10634381Y-11819881D01*
X10634381Y-11762738D01*
X10643905Y-11743690D01*
X10653429Y-11734167D01*
X10672476Y-11724643D01*
X10701048Y-11724643D01*
X10720095Y-11734167D01*
X10729619Y-11743690D01*
X10739143Y-11762738D01*
X10739143Y-11819881D01*
X10729619Y-11838928D01*
X10720095Y-11848452D01*
X10701048Y-11857976D01*
X10672476Y-11857976D01*
X10853429Y-11857976D02*
X10834381Y-11848452D01*
X10824857Y-11829405D01*
X10824857Y-11657976D01*
X11005810Y-11848452D02*
X10986762Y-11857976D01*
X10948667Y-11857976D01*
X10929619Y-11848452D01*
X10920095Y-11829405D01*
X10920095Y-11753214D01*
X10929619Y-11734167D01*
X10948667Y-11724643D01*
X10986762Y-11724643D01*
X11005810Y-11734167D01*
X11015333Y-11753214D01*
X11015333Y-11772262D01*
X10920095Y-11791309D01*
X11091524Y-11848452D02*
X11110571Y-11857976D01*
X11148667Y-11857976D01*
X11167714Y-11848452D01*
X11177238Y-11829405D01*
X11177238Y-11819881D01*
X11167714Y-11800833D01*
X11148667Y-11791309D01*
X11120095Y-11791309D01*
X11101048Y-11781786D01*
X11091524Y-11762738D01*
X11091524Y-11753214D01*
X11101048Y-11734167D01*
X11120095Y-11724643D01*
X11148667Y-11724643D01*
X11167714Y-11734167D01*
X11415333Y-11781786D02*
X11567714Y-11781786D01*
X11491524Y-11857976D02*
X11491524Y-11705595D01*
X11920095Y-11857976D02*
X11805809Y-11857976D01*
X11862952Y-11857976D02*
X11862952Y-11657976D01*
X11843905Y-11686548D01*
X11824857Y-11705595D01*
X11805809Y-11715119D01*
X12091524Y-11657976D02*
X12053428Y-11657976D01*
X12034381Y-11667500D01*
X12024857Y-11677024D01*
X12005809Y-11705595D01*
X11996286Y-11743690D01*
X11996286Y-11819881D01*
X12005809Y-11838928D01*
X12015333Y-11848452D01*
X12034381Y-11857976D01*
X12072476Y-11857976D01*
X12091524Y-11848452D01*
X12101048Y-11838928D01*
X12110571Y-11819881D01*
X12110571Y-11772262D01*
X12101048Y-11753214D01*
X12091524Y-11743690D01*
X12072476Y-11734167D01*
X12034381Y-11734167D01*
X12015333Y-11743690D01*
X12005809Y-11753214D01*
X11996286Y-11772262D01*
X12339143Y-11848452D02*
X12358190Y-11857976D01*
X12396286Y-11857976D01*
X12415333Y-11848452D01*
X12424857Y-11829405D01*
X12424857Y-11819881D01*
X12415333Y-11800833D01*
X12396286Y-11791309D01*
X12367714Y-11791309D01*
X12348667Y-11781786D01*
X12339143Y-11762738D01*
X12339143Y-11753214D01*
X12348667Y-11734167D01*
X12367714Y-11724643D01*
X12396286Y-11724643D01*
X12415333Y-11734167D01*
X12539143Y-11857976D02*
X12520095Y-11848452D01*
X12510571Y-11829405D01*
X12510571Y-11657976D01*
X12643905Y-11857976D02*
X12624857Y-11848452D01*
X12615333Y-11838928D01*
X12605809Y-11819881D01*
X12605809Y-11762738D01*
X12615333Y-11743690D01*
X12624857Y-11734167D01*
X12643905Y-11724643D01*
X12672476Y-11724643D01*
X12691524Y-11734167D01*
X12701048Y-11743690D01*
X12710571Y-11762738D01*
X12710571Y-11819881D01*
X12701048Y-11838928D01*
X12691524Y-11848452D01*
X12672476Y-11857976D01*
X12643905Y-11857976D01*
X12767714Y-11724643D02*
X12843905Y-11724643D01*
X12796286Y-11657976D02*
X12796286Y-11829405D01*
X12805809Y-11848452D01*
X12824857Y-11857976D01*
X12843905Y-11857976D01*
X12901048Y-11848452D02*
X12920095Y-11857976D01*
X12958190Y-11857976D01*
X12977238Y-11848452D01*
X12986762Y-11829405D01*
X12986762Y-11819881D01*
X12977238Y-11800833D01*
X12958190Y-11791309D01*
X12929619Y-11791309D01*
X12910571Y-11781786D01*
X12901048Y-11762738D01*
X12901048Y-11753214D01*
X12910571Y-11734167D01*
X12929619Y-11724643D01*
X12958190Y-11724643D01*
X12977238Y-11734167D01*
X13053428Y-11934167D02*
X13062952Y-11924643D01*
X13082000Y-11896071D01*
X13091524Y-11877024D01*
X13101048Y-11848452D01*
X13110571Y-11800833D01*
X13110571Y-11762738D01*
X13101048Y-11715119D01*
X13091524Y-11686548D01*
X13082000Y-11667500D01*
X13062952Y-11638928D01*
X13053428Y-11629405D01*
D14*
X6422000Y-11981500D02*
X6422000Y-12081500D01*
X6372000Y-12031500D02*
X6472000Y-12031500D01*
D11*
X6834381Y-12121976D02*
X6720095Y-12121976D01*
X6777238Y-12121976D02*
X6777238Y-11921976D01*
X6758190Y-11950548D01*
X6739143Y-11969595D01*
X6720095Y-11979119D01*
X6920095Y-12102928D02*
X6929619Y-12112452D01*
X6920095Y-12121976D01*
X6910571Y-12112452D01*
X6920095Y-12102928D01*
X6920095Y-12121976D01*
X7053428Y-11921976D02*
X7072476Y-11921976D01*
X7091524Y-11931500D01*
X7101048Y-11941024D01*
X7110571Y-11960071D01*
X7120095Y-11998167D01*
X7120095Y-12045786D01*
X7110571Y-12083881D01*
X7101048Y-12102928D01*
X7091524Y-12112452D01*
X7072476Y-12121976D01*
X7053428Y-12121976D01*
X7034381Y-12112452D01*
X7024857Y-12102928D01*
X7015333Y-12083881D01*
X7005809Y-12045786D01*
X7005809Y-11998167D01*
X7015333Y-11960071D01*
X7024857Y-11941024D01*
X7034381Y-11931500D01*
X7053428Y-11921976D01*
X7243905Y-11921976D02*
X7262952Y-11921976D01*
X7282000Y-11931500D01*
X7291524Y-11941024D01*
X7301048Y-11960071D01*
X7310571Y-11998167D01*
X7310571Y-12045786D01*
X7301048Y-12083881D01*
X7291524Y-12102928D01*
X7282000Y-12112452D01*
X7262952Y-12121976D01*
X7243905Y-12121976D01*
X7224857Y-12112452D01*
X7215333Y-12102928D01*
X7205809Y-12083881D01*
X7196286Y-12045786D01*
X7196286Y-11998167D01*
X7205809Y-11960071D01*
X7215333Y-11941024D01*
X7224857Y-11931500D01*
X7243905Y-11921976D01*
X7434381Y-11921976D02*
X7453428Y-11921976D01*
X7472476Y-11931500D01*
X7482000Y-11941024D01*
X7491524Y-11960071D01*
X7501048Y-11998167D01*
X7501048Y-12045786D01*
X7491524Y-12083881D01*
X7482000Y-12102928D01*
X7472476Y-12112452D01*
X7453428Y-12121976D01*
X7434381Y-12121976D01*
X7415333Y-12112452D01*
X7405809Y-12102928D01*
X7396286Y-12083881D01*
X7386762Y-12045786D01*
X7386762Y-11998167D01*
X7396286Y-11960071D01*
X7405809Y-11941024D01*
X7415333Y-11931500D01*
X7434381Y-11921976D01*
X7586762Y-12121976D02*
X7586762Y-11988643D01*
X7586762Y-12007690D02*
X7596286Y-11998167D01*
X7615333Y-11988643D01*
X7643905Y-11988643D01*
X7662952Y-11998167D01*
X7672476Y-12017214D01*
X7672476Y-12121976D01*
X7672476Y-12017214D02*
X7682000Y-11998167D01*
X7701048Y-11988643D01*
X7729619Y-11988643D01*
X7748667Y-11998167D01*
X7758190Y-12017214D01*
X7758190Y-12121976D01*
X7853428Y-12121976D02*
X7853428Y-11988643D01*
X7853428Y-12007690D02*
X7862952Y-11998167D01*
X7882000Y-11988643D01*
X7910571Y-11988643D01*
X7929619Y-11998167D01*
X7939143Y-12017214D01*
X7939143Y-12121976D01*
X7939143Y-12017214D02*
X7948667Y-11998167D01*
X7967714Y-11988643D01*
X7996286Y-11988643D01*
X8015333Y-11998167D01*
X8024857Y-12017214D01*
X8024857Y-12121976D01*
X8415333Y-11912452D02*
X8243905Y-12169595D01*
X8672476Y-11921976D02*
X8691524Y-11921976D01*
X8710571Y-11931500D01*
X8720095Y-11941024D01*
X8729619Y-11960071D01*
X8739143Y-11998167D01*
X8739143Y-12045786D01*
X8729619Y-12083881D01*
X8720095Y-12102928D01*
X8710571Y-12112452D01*
X8691524Y-12121976D01*
X8672476Y-12121976D01*
X8653429Y-12112452D01*
X8643905Y-12102928D01*
X8634381Y-12083881D01*
X8624857Y-12045786D01*
X8624857Y-11998167D01*
X8634381Y-11960071D01*
X8643905Y-11941024D01*
X8653429Y-11931500D01*
X8672476Y-11921976D01*
X8824857Y-12102928D02*
X8834381Y-12112452D01*
X8824857Y-12121976D01*
X8815333Y-12112452D01*
X8824857Y-12102928D01*
X8824857Y-12121976D01*
X8958190Y-11921976D02*
X8977238Y-11921976D01*
X8996286Y-11931500D01*
X9005810Y-11941024D01*
X9015333Y-11960071D01*
X9024857Y-11998167D01*
X9024857Y-12045786D01*
X9015333Y-12083881D01*
X9005810Y-12102928D01*
X8996286Y-12112452D01*
X8977238Y-12121976D01*
X8958190Y-12121976D01*
X8939143Y-12112452D01*
X8929619Y-12102928D01*
X8920095Y-12083881D01*
X8910571Y-12045786D01*
X8910571Y-11998167D01*
X8920095Y-11960071D01*
X8929619Y-11941024D01*
X8939143Y-11931500D01*
X8958190Y-11921976D01*
X9091524Y-11921976D02*
X9215333Y-11921976D01*
X9148667Y-11998167D01*
X9177238Y-11998167D01*
X9196286Y-12007690D01*
X9205810Y-12017214D01*
X9215333Y-12036262D01*
X9215333Y-12083881D01*
X9205810Y-12102928D01*
X9196286Y-12112452D01*
X9177238Y-12121976D01*
X9120095Y-12121976D01*
X9101048Y-12112452D01*
X9091524Y-12102928D01*
X9310571Y-12121976D02*
X9348667Y-12121976D01*
X9367714Y-12112452D01*
X9377238Y-12102928D01*
X9396286Y-12074357D01*
X9405810Y-12036262D01*
X9405810Y-11960071D01*
X9396286Y-11941024D01*
X9386762Y-11931500D01*
X9367714Y-11921976D01*
X9329619Y-11921976D01*
X9310571Y-11931500D01*
X9301048Y-11941024D01*
X9291524Y-11960071D01*
X9291524Y-12007690D01*
X9301048Y-12026738D01*
X9310571Y-12036262D01*
X9329619Y-12045786D01*
X9367714Y-12045786D01*
X9386762Y-12036262D01*
X9396286Y-12026738D01*
X9405810Y-12007690D01*
X9577238Y-11988643D02*
X9577238Y-12121976D01*
X9529619Y-11912452D02*
X9482000Y-12055309D01*
X9605810Y-12055309D01*
X9672476Y-11921976D02*
X9672476Y-11960071D01*
X9748667Y-11921976D02*
X9748667Y-11960071D01*
X10043905Y-12198167D02*
X10034381Y-12188643D01*
X10015333Y-12160071D01*
X10005810Y-12141024D01*
X9996286Y-12112452D01*
X9986762Y-12064833D01*
X9986762Y-12026738D01*
X9996286Y-11979119D01*
X10005810Y-11950548D01*
X10015333Y-11931500D01*
X10034381Y-11902928D01*
X10043905Y-11893405D01*
X10110571Y-11941024D02*
X10120095Y-11931500D01*
X10139143Y-11921976D01*
X10186762Y-11921976D01*
X10205810Y-11931500D01*
X10215333Y-11941024D01*
X10224857Y-11960071D01*
X10224857Y-11979119D01*
X10215333Y-12007690D01*
X10101048Y-12121976D01*
X10224857Y-12121976D01*
X10415333Y-12121976D02*
X10301048Y-12121976D01*
X10358190Y-12121976D02*
X10358190Y-11921976D01*
X10339143Y-11950548D01*
X10320095Y-11969595D01*
X10301048Y-11979119D01*
X10653429Y-12121976D02*
X10653429Y-11921976D01*
X10739143Y-12121976D02*
X10739143Y-12017214D01*
X10729619Y-11998167D01*
X10710571Y-11988643D01*
X10682000Y-11988643D01*
X10662952Y-11998167D01*
X10653429Y-12007690D01*
X10862952Y-12121976D02*
X10843905Y-12112452D01*
X10834381Y-12102928D01*
X10824857Y-12083881D01*
X10824857Y-12026738D01*
X10834381Y-12007690D01*
X10843905Y-11998167D01*
X10862952Y-11988643D01*
X10891524Y-11988643D01*
X10910571Y-11998167D01*
X10920095Y-12007690D01*
X10929619Y-12026738D01*
X10929619Y-12083881D01*
X10920095Y-12102928D01*
X10910571Y-12112452D01*
X10891524Y-12121976D01*
X10862952Y-12121976D01*
X11043905Y-12121976D02*
X11024857Y-12112452D01*
X11015333Y-12093405D01*
X11015333Y-11921976D01*
X11196286Y-12112452D02*
X11177238Y-12121976D01*
X11139143Y-12121976D01*
X11120095Y-12112452D01*
X11110571Y-12093405D01*
X11110571Y-12017214D01*
X11120095Y-11998167D01*
X11139143Y-11988643D01*
X11177238Y-11988643D01*
X11196286Y-11998167D01*
X11205809Y-12017214D01*
X11205809Y-12036262D01*
X11110571Y-12055309D01*
X11282000Y-12112452D02*
X11301048Y-12121976D01*
X11339143Y-12121976D01*
X11358190Y-12112452D01*
X11367714Y-12093405D01*
X11367714Y-12083881D01*
X11358190Y-12064833D01*
X11339143Y-12055309D01*
X11310571Y-12055309D01*
X11291524Y-12045786D01*
X11282000Y-12026738D01*
X11282000Y-12017214D01*
X11291524Y-11998167D01*
X11310571Y-11988643D01*
X11339143Y-11988643D01*
X11358190Y-11998167D01*
X11434381Y-12198167D02*
X11443905Y-12188643D01*
X11462952Y-12160071D01*
X11472476Y-12141024D01*
X11482000Y-12112452D01*
X11491524Y-12064833D01*
X11491524Y-12026738D01*
X11482000Y-11979119D01*
X11472476Y-11950548D01*
X11462952Y-11931500D01*
X11443905Y-11902928D01*
X11434381Y-11893405D01*
D15*
X6456005Y-12334115D02*
X6456005Y-12256884D01*
X6378774Y-12256884D01*
X6378774Y-12334115D01*
X6456005Y-12334115D01*
D11*
X6834381Y-12385976D02*
X6720095Y-12385976D01*
X6777238Y-12385976D02*
X6777238Y-12185976D01*
X6758190Y-12214548D01*
X6739143Y-12233595D01*
X6720095Y-12243119D01*
X6920095Y-12366928D02*
X6929619Y-12376452D01*
X6920095Y-12385976D01*
X6910571Y-12376452D01*
X6920095Y-12366928D01*
X6920095Y-12385976D01*
X7053428Y-12185976D02*
X7072476Y-12185976D01*
X7091524Y-12195500D01*
X7101048Y-12205024D01*
X7110571Y-12224071D01*
X7120095Y-12262167D01*
X7120095Y-12309786D01*
X7110571Y-12347881D01*
X7101048Y-12366928D01*
X7091524Y-12376452D01*
X7072476Y-12385976D01*
X7053428Y-12385976D01*
X7034381Y-12376452D01*
X7024857Y-12366928D01*
X7015333Y-12347881D01*
X7005809Y-12309786D01*
X7005809Y-12262167D01*
X7015333Y-12224071D01*
X7024857Y-12205024D01*
X7034381Y-12195500D01*
X7053428Y-12185976D01*
X7215333Y-12385976D02*
X7253428Y-12385976D01*
X7272476Y-12376452D01*
X7282000Y-12366928D01*
X7301048Y-12338357D01*
X7310571Y-12300262D01*
X7310571Y-12224071D01*
X7301048Y-12205024D01*
X7291524Y-12195500D01*
X7272476Y-12185976D01*
X7234381Y-12185976D01*
X7215333Y-12195500D01*
X7205809Y-12205024D01*
X7196286Y-12224071D01*
X7196286Y-12271690D01*
X7205809Y-12290738D01*
X7215333Y-12300262D01*
X7234381Y-12309786D01*
X7272476Y-12309786D01*
X7291524Y-12300262D01*
X7301048Y-12290738D01*
X7310571Y-12271690D01*
X7386762Y-12205024D02*
X7396286Y-12195500D01*
X7415333Y-12185976D01*
X7462952Y-12185976D01*
X7482000Y-12195500D01*
X7491524Y-12205024D01*
X7501048Y-12224071D01*
X7501048Y-12243119D01*
X7491524Y-12271690D01*
X7377238Y-12385976D01*
X7501048Y-12385976D01*
X7586762Y-12385976D02*
X7586762Y-12252643D01*
X7586762Y-12271690D02*
X7596286Y-12262167D01*
X7615333Y-12252643D01*
X7643905Y-12252643D01*
X7662952Y-12262167D01*
X7672476Y-12281214D01*
X7672476Y-12385976D01*
X7672476Y-12281214D02*
X7682000Y-12262167D01*
X7701048Y-12252643D01*
X7729619Y-12252643D01*
X7748667Y-12262167D01*
X7758190Y-12281214D01*
X7758190Y-12385976D01*
X7853428Y-12385976D02*
X7853428Y-12252643D01*
X7853428Y-12271690D02*
X7862952Y-12262167D01*
X7882000Y-12252643D01*
X7910571Y-12252643D01*
X7929619Y-12262167D01*
X7939143Y-12281214D01*
X7939143Y-12385976D01*
X7939143Y-12281214D02*
X7948667Y-12262167D01*
X7967714Y-12252643D01*
X7996286Y-12252643D01*
X8015333Y-12262167D01*
X8024857Y-12281214D01*
X8024857Y-12385976D01*
X8415333Y-12176452D02*
X8243905Y-12433595D01*
X8672476Y-12185976D02*
X8691524Y-12185976D01*
X8710571Y-12195500D01*
X8720095Y-12205024D01*
X8729619Y-12224071D01*
X8739143Y-12262167D01*
X8739143Y-12309786D01*
X8729619Y-12347881D01*
X8720095Y-12366928D01*
X8710571Y-12376452D01*
X8691524Y-12385976D01*
X8672476Y-12385976D01*
X8653429Y-12376452D01*
X8643905Y-12366928D01*
X8634381Y-12347881D01*
X8624857Y-12309786D01*
X8624857Y-12262167D01*
X8634381Y-12224071D01*
X8643905Y-12205024D01*
X8653429Y-12195500D01*
X8672476Y-12185976D01*
X8824857Y-12366928D02*
X8834381Y-12376452D01*
X8824857Y-12385976D01*
X8815333Y-12376452D01*
X8824857Y-12366928D01*
X8824857Y-12385976D01*
X8958190Y-12185976D02*
X8977238Y-12185976D01*
X8996286Y-12195500D01*
X9005810Y-12205024D01*
X9015333Y-12224071D01*
X9024857Y-12262167D01*
X9024857Y-12309786D01*
X9015333Y-12347881D01*
X9005810Y-12366928D01*
X8996286Y-12376452D01*
X8977238Y-12385976D01*
X8958190Y-12385976D01*
X8939143Y-12376452D01*
X8929619Y-12366928D01*
X8920095Y-12347881D01*
X8910571Y-12309786D01*
X8910571Y-12262167D01*
X8920095Y-12224071D01*
X8929619Y-12205024D01*
X8939143Y-12195500D01*
X8958190Y-12185976D01*
X9196286Y-12252643D02*
X9196286Y-12385976D01*
X9148667Y-12176452D02*
X9101048Y-12319309D01*
X9224857Y-12319309D01*
X9282000Y-12185976D02*
X9405810Y-12185976D01*
X9339143Y-12262167D01*
X9367714Y-12262167D01*
X9386762Y-12271690D01*
X9396286Y-12281214D01*
X9405810Y-12300262D01*
X9405810Y-12347881D01*
X9396286Y-12366928D01*
X9386762Y-12376452D01*
X9367714Y-12385976D01*
X9310571Y-12385976D01*
X9291524Y-12376452D01*
X9282000Y-12366928D01*
X9529619Y-12185976D02*
X9548667Y-12185976D01*
X9567714Y-12195500D01*
X9577238Y-12205024D01*
X9586762Y-12224071D01*
X9596286Y-12262167D01*
X9596286Y-12309786D01*
X9586762Y-12347881D01*
X9577238Y-12366928D01*
X9567714Y-12376452D01*
X9548667Y-12385976D01*
X9529619Y-12385976D01*
X9510571Y-12376452D01*
X9501048Y-12366928D01*
X9491524Y-12347881D01*
X9482000Y-12309786D01*
X9482000Y-12262167D01*
X9491524Y-12224071D01*
X9501048Y-12205024D01*
X9510571Y-12195500D01*
X9529619Y-12185976D01*
X9672476Y-12185976D02*
X9672476Y-12224071D01*
X9748667Y-12185976D02*
X9748667Y-12224071D01*
X10043905Y-12462167D02*
X10034381Y-12452643D01*
X10015333Y-12424071D01*
X10005810Y-12405024D01*
X9996286Y-12376452D01*
X9986762Y-12328833D01*
X9986762Y-12290738D01*
X9996286Y-12243119D01*
X10005810Y-12214548D01*
X10015333Y-12195500D01*
X10034381Y-12166928D01*
X10043905Y-12157405D01*
X10110571Y-12205024D02*
X10120095Y-12195500D01*
X10139143Y-12185976D01*
X10186762Y-12185976D01*
X10205810Y-12195500D01*
X10215333Y-12205024D01*
X10224857Y-12224071D01*
X10224857Y-12243119D01*
X10215333Y-12271690D01*
X10101048Y-12385976D01*
X10224857Y-12385976D01*
X10320095Y-12385976D02*
X10358190Y-12385976D01*
X10377238Y-12376452D01*
X10386762Y-12366928D01*
X10405810Y-12338357D01*
X10415333Y-12300262D01*
X10415333Y-12224071D01*
X10405810Y-12205024D01*
X10396286Y-12195500D01*
X10377238Y-12185976D01*
X10339143Y-12185976D01*
X10320095Y-12195500D01*
X10310571Y-12205024D01*
X10301048Y-12224071D01*
X10301048Y-12271690D01*
X10310571Y-12290738D01*
X10320095Y-12300262D01*
X10339143Y-12309786D01*
X10377238Y-12309786D01*
X10396286Y-12300262D01*
X10405810Y-12290738D01*
X10415333Y-12271690D01*
X10653429Y-12385976D02*
X10653429Y-12185976D01*
X10739143Y-12385976D02*
X10739143Y-12281214D01*
X10729619Y-12262167D01*
X10710571Y-12252643D01*
X10682000Y-12252643D01*
X10662952Y-12262167D01*
X10653429Y-12271690D01*
X10862952Y-12385976D02*
X10843905Y-12376452D01*
X10834381Y-12366928D01*
X10824857Y-12347881D01*
X10824857Y-12290738D01*
X10834381Y-12271690D01*
X10843905Y-12262167D01*
X10862952Y-12252643D01*
X10891524Y-12252643D01*
X10910571Y-12262167D01*
X10920095Y-12271690D01*
X10929619Y-12290738D01*
X10929619Y-12347881D01*
X10920095Y-12366928D01*
X10910571Y-12376452D01*
X10891524Y-12385976D01*
X10862952Y-12385976D01*
X11043905Y-12385976D02*
X11024857Y-12376452D01*
X11015333Y-12357405D01*
X11015333Y-12185976D01*
X11196286Y-12376452D02*
X11177238Y-12385976D01*
X11139143Y-12385976D01*
X11120095Y-12376452D01*
X11110571Y-12357405D01*
X11110571Y-12281214D01*
X11120095Y-12262167D01*
X11139143Y-12252643D01*
X11177238Y-12252643D01*
X11196286Y-12262167D01*
X11205809Y-12281214D01*
X11205809Y-12300262D01*
X11110571Y-12319309D01*
X11282000Y-12376452D02*
X11301048Y-12385976D01*
X11339143Y-12385976D01*
X11358190Y-12376452D01*
X11367714Y-12357405D01*
X11367714Y-12347881D01*
X11358190Y-12328833D01*
X11339143Y-12319309D01*
X11310571Y-12319309D01*
X11291524Y-12309786D01*
X11282000Y-12290738D01*
X11282000Y-12281214D01*
X11291524Y-12262167D01*
X11310571Y-12252643D01*
X11339143Y-12252643D01*
X11358190Y-12262167D01*
X11434381Y-12462167D02*
X11443905Y-12452643D01*
X11462952Y-12424071D01*
X11472476Y-12405024D01*
X11482000Y-12376452D01*
X11491524Y-12328833D01*
X11491524Y-12290738D01*
X11482000Y-12243119D01*
X11472476Y-12214548D01*
X11462952Y-12195500D01*
X11443905Y-12166928D01*
X11434381Y-12157405D01*
D16*
X6417000Y-12614500D02*
X6472000Y-12559500D01*
X6417000Y-12504500D01*
X6362000Y-12559500D01*
X6417000Y-12614500D01*
D11*
X6834381Y-12649976D02*
X6720095Y-12649976D01*
X6777238Y-12649976D02*
X6777238Y-12449976D01*
X6758190Y-12478548D01*
X6739143Y-12497595D01*
X6720095Y-12507119D01*
X6920095Y-12630928D02*
X6929619Y-12640452D01*
X6920095Y-12649976D01*
X6910571Y-12640452D01*
X6920095Y-12630928D01*
X6920095Y-12649976D01*
X7120095Y-12649976D02*
X7005809Y-12649976D01*
X7062952Y-12649976D02*
X7062952Y-12449976D01*
X7043905Y-12478548D01*
X7024857Y-12497595D01*
X7005809Y-12507119D01*
X7243905Y-12449976D02*
X7262952Y-12449976D01*
X7282000Y-12459500D01*
X7291524Y-12469024D01*
X7301048Y-12488071D01*
X7310571Y-12526167D01*
X7310571Y-12573786D01*
X7301048Y-12611881D01*
X7291524Y-12630928D01*
X7282000Y-12640452D01*
X7262952Y-12649976D01*
X7243905Y-12649976D01*
X7224857Y-12640452D01*
X7215333Y-12630928D01*
X7205809Y-12611881D01*
X7196286Y-12573786D01*
X7196286Y-12526167D01*
X7205809Y-12488071D01*
X7215333Y-12469024D01*
X7224857Y-12459500D01*
X7243905Y-12449976D01*
X7434381Y-12449976D02*
X7453428Y-12449976D01*
X7472476Y-12459500D01*
X7482000Y-12469024D01*
X7491524Y-12488071D01*
X7501048Y-12526167D01*
X7501048Y-12573786D01*
X7491524Y-12611881D01*
X7482000Y-12630928D01*
X7472476Y-12640452D01*
X7453428Y-12649976D01*
X7434381Y-12649976D01*
X7415333Y-12640452D01*
X7405809Y-12630928D01*
X7396286Y-12611881D01*
X7386762Y-12573786D01*
X7386762Y-12526167D01*
X7396286Y-12488071D01*
X7405809Y-12469024D01*
X7415333Y-12459500D01*
X7434381Y-12449976D01*
X7586762Y-12649976D02*
X7586762Y-12516643D01*
X7586762Y-12535690D02*
X7596286Y-12526167D01*
X7615333Y-12516643D01*
X7643905Y-12516643D01*
X7662952Y-12526167D01*
X7672476Y-12545214D01*
X7672476Y-12649976D01*
X7672476Y-12545214D02*
X7682000Y-12526167D01*
X7701048Y-12516643D01*
X7729619Y-12516643D01*
X7748667Y-12526167D01*
X7758190Y-12545214D01*
X7758190Y-12649976D01*
X7853428Y-12649976D02*
X7853428Y-12516643D01*
X7853428Y-12535690D02*
X7862952Y-12526167D01*
X7882000Y-12516643D01*
X7910571Y-12516643D01*
X7929619Y-12526167D01*
X7939143Y-12545214D01*
X7939143Y-12649976D01*
X7939143Y-12545214D02*
X7948667Y-12526167D01*
X7967714Y-12516643D01*
X7996286Y-12516643D01*
X8015333Y-12526167D01*
X8024857Y-12545214D01*
X8024857Y-12649976D01*
X8415333Y-12440452D02*
X8243905Y-12697595D01*
X8672476Y-12449976D02*
X8691524Y-12449976D01*
X8710571Y-12459500D01*
X8720095Y-12469024D01*
X8729619Y-12488071D01*
X8739143Y-12526167D01*
X8739143Y-12573786D01*
X8729619Y-12611881D01*
X8720095Y-12630928D01*
X8710571Y-12640452D01*
X8691524Y-12649976D01*
X8672476Y-12649976D01*
X8653429Y-12640452D01*
X8643905Y-12630928D01*
X8634381Y-12611881D01*
X8624857Y-12573786D01*
X8624857Y-12526167D01*
X8634381Y-12488071D01*
X8643905Y-12469024D01*
X8653429Y-12459500D01*
X8672476Y-12449976D01*
X8824857Y-12630928D02*
X8834381Y-12640452D01*
X8824857Y-12649976D01*
X8815333Y-12640452D01*
X8824857Y-12630928D01*
X8824857Y-12649976D01*
X8958190Y-12449976D02*
X8977238Y-12449976D01*
X8996286Y-12459500D01*
X9005810Y-12469024D01*
X9015333Y-12488071D01*
X9024857Y-12526167D01*
X9024857Y-12573786D01*
X9015333Y-12611881D01*
X9005810Y-12630928D01*
X8996286Y-12640452D01*
X8977238Y-12649976D01*
X8958190Y-12649976D01*
X8939143Y-12640452D01*
X8929619Y-12630928D01*
X8920095Y-12611881D01*
X8910571Y-12573786D01*
X8910571Y-12526167D01*
X8920095Y-12488071D01*
X8929619Y-12469024D01*
X8939143Y-12459500D01*
X8958190Y-12449976D01*
X9196286Y-12516643D02*
X9196286Y-12649976D01*
X9148667Y-12440452D02*
X9101048Y-12583309D01*
X9224857Y-12583309D01*
X9282000Y-12449976D02*
X9405810Y-12449976D01*
X9339143Y-12526167D01*
X9367714Y-12526167D01*
X9386762Y-12535690D01*
X9396286Y-12545214D01*
X9405810Y-12564262D01*
X9405810Y-12611881D01*
X9396286Y-12630928D01*
X9386762Y-12640452D01*
X9367714Y-12649976D01*
X9310571Y-12649976D01*
X9291524Y-12640452D01*
X9282000Y-12630928D01*
X9472476Y-12449976D02*
X9596286Y-12449976D01*
X9529619Y-12526167D01*
X9558190Y-12526167D01*
X9577238Y-12535690D01*
X9586762Y-12545214D01*
X9596286Y-12564262D01*
X9596286Y-12611881D01*
X9586762Y-12630928D01*
X9577238Y-12640452D01*
X9558190Y-12649976D01*
X9501048Y-12649976D01*
X9482000Y-12640452D01*
X9472476Y-12630928D01*
X9672476Y-12449976D02*
X9672476Y-12488071D01*
X9748667Y-12449976D02*
X9748667Y-12488071D01*
X10043905Y-12726167D02*
X10034381Y-12716643D01*
X10015333Y-12688071D01*
X10005810Y-12669024D01*
X9996286Y-12640452D01*
X9986762Y-12592833D01*
X9986762Y-12554738D01*
X9996286Y-12507119D01*
X10005810Y-12478548D01*
X10015333Y-12459500D01*
X10034381Y-12430928D01*
X10043905Y-12421405D01*
X10205810Y-12516643D02*
X10205810Y-12649976D01*
X10158190Y-12440452D02*
X10110571Y-12583309D01*
X10234381Y-12583309D01*
X10462952Y-12649976D02*
X10462952Y-12449976D01*
X10548667Y-12649976D02*
X10548667Y-12545214D01*
X10539143Y-12526167D01*
X10520095Y-12516643D01*
X10491524Y-12516643D01*
X10472476Y-12526167D01*
X10462952Y-12535690D01*
X10672476Y-12649976D02*
X10653429Y-12640452D01*
X10643905Y-12630928D01*
X10634381Y-12611881D01*
X10634381Y-12554738D01*
X10643905Y-12535690D01*
X10653429Y-12526167D01*
X10672476Y-12516643D01*
X10701048Y-12516643D01*
X10720095Y-12526167D01*
X10729619Y-12535690D01*
X10739143Y-12554738D01*
X10739143Y-12611881D01*
X10729619Y-12630928D01*
X10720095Y-12640452D01*
X10701048Y-12649976D01*
X10672476Y-12649976D01*
X10853429Y-12649976D02*
X10834381Y-12640452D01*
X10824857Y-12621405D01*
X10824857Y-12449976D01*
X11005810Y-12640452D02*
X10986762Y-12649976D01*
X10948667Y-12649976D01*
X10929619Y-12640452D01*
X10920095Y-12621405D01*
X10920095Y-12545214D01*
X10929619Y-12526167D01*
X10948667Y-12516643D01*
X10986762Y-12516643D01*
X11005810Y-12526167D01*
X11015333Y-12545214D01*
X11015333Y-12564262D01*
X10920095Y-12583309D01*
X11091524Y-12640452D02*
X11110571Y-12649976D01*
X11148667Y-12649976D01*
X11167714Y-12640452D01*
X11177238Y-12621405D01*
X11177238Y-12611881D01*
X11167714Y-12592833D01*
X11148667Y-12583309D01*
X11120095Y-12583309D01*
X11101048Y-12573786D01*
X11091524Y-12554738D01*
X11091524Y-12545214D01*
X11101048Y-12526167D01*
X11120095Y-12516643D01*
X11148667Y-12516643D01*
X11167714Y-12526167D01*
X11243905Y-12726167D02*
X11253428Y-12716643D01*
X11272476Y-12688071D01*
X11282000Y-12669024D01*
X11291524Y-12640452D01*
X11301048Y-12592833D01*
X11301048Y-12554738D01*
X11291524Y-12507119D01*
X11282000Y-12478548D01*
X11272476Y-12459500D01*
X11253428Y-12430928D01*
X11243905Y-12421405D01*
M02*
