G04 #@! TF.GenerationSoftware,KiCad,Pcbnew,(6.0.6)*
G04 #@! TF.CreationDate,2023-06-14T22:57:07+08:00*
G04 #@! TF.ProjectId,handwire microboard,68616e64-7769-4726-9520-6d6963726f62,rev?*
G04 #@! TF.SameCoordinates,Original*
G04 #@! TF.FileFunction,Copper,L2,Bot*
G04 #@! TF.FilePolarity,Positive*
%FSLAX46Y46*%
G04 Gerber Fmt 4.6, Leading zero omitted, Abs format (unit mm)*
G04 Created by KiCad (PCBNEW (6.0.6)) date 2023-06-14 22:57:07*
%MOMM*%
%LPD*%
G01*
G04 APERTURE LIST*
G04 Aperture macros list*
%AMRoundRect*
0 Rectangle with rounded corners*
0 $1 Rounding radius*
0 $2 $3 $4 $5 $6 $7 $8 $9 X,Y pos of 4 corners*
0 Add a 4 corners polygon primitive as box body*
4,1,4,$2,$3,$4,$5,$6,$7,$8,$9,$2,$3,0*
0 Add four circle primitives for the rounded corners*
1,1,$1+$1,$2,$3*
1,1,$1+$1,$4,$5*
1,1,$1+$1,$6,$7*
1,1,$1+$1,$8,$9*
0 Add four rect primitives between the rounded corners*
20,1,$1+$1,$2,$3,$4,$5,0*
20,1,$1+$1,$4,$5,$6,$7,0*
20,1,$1+$1,$6,$7,$8,$9,0*
20,1,$1+$1,$8,$9,$2,$3,0*%
G04 Aperture macros list end*
G04 #@! TA.AperFunction,ComponentPad*
%ADD10O,2.000000X1.600000*%
G04 #@! TD*
G04 #@! TA.AperFunction,ComponentPad*
%ADD11O,1.600000X2.000000*%
G04 #@! TD*
G04 #@! TA.AperFunction,ComponentPad*
%ADD12R,1.700000X1.700000*%
G04 #@! TD*
G04 #@! TA.AperFunction,ComponentPad*
%ADD13O,1.700000X1.700000*%
G04 #@! TD*
G04 #@! TA.AperFunction,ComponentPad*
%ADD14C,2.000000*%
G04 #@! TD*
G04 #@! TA.AperFunction,ComponentPad*
%ADD15C,1.752600*%
G04 #@! TD*
G04 #@! TA.AperFunction,ComponentPad*
%ADD16RoundRect,0.438150X-0.619638X0.000000X0.000000X-0.619638X0.619638X0.000000X0.000000X0.619638X0*%
G04 #@! TD*
G04 #@! TA.AperFunction,ComponentPad*
%ADD17R,1.752600X1.752600*%
G04 #@! TD*
G04 #@! TA.AperFunction,ViaPad*
%ADD18C,0.800000*%
G04 #@! TD*
G04 #@! TA.AperFunction,Conductor*
%ADD19C,0.250000*%
G04 #@! TD*
G04 APERTURE END LIST*
D10*
X86522500Y-77710000D03*
X87622500Y-82310000D03*
X91622500Y-82310000D03*
X94622500Y-82310000D03*
D11*
X94220000Y-53812500D03*
X98820000Y-52712500D03*
X98820000Y-48712500D03*
X98820000Y-45712500D03*
X66280000Y-53812500D03*
X70880000Y-52712500D03*
X70880000Y-48712500D03*
X70880000Y-45712500D03*
D10*
X78577500Y-82310000D03*
X77477500Y-77710000D03*
X73477500Y-77710000D03*
X70477500Y-77710000D03*
D12*
X74950000Y-92050000D03*
D13*
X77490000Y-92050000D03*
X80030000Y-92050000D03*
X82570000Y-92050000D03*
X85110000Y-92050000D03*
X87650000Y-92050000D03*
X90190000Y-92050000D03*
D12*
X76200000Y-86360000D03*
D13*
X78740000Y-86360000D03*
X81280000Y-86360000D03*
X83820000Y-86360000D03*
X86360000Y-86360000D03*
X88900000Y-86360000D03*
D14*
X79300000Y-101890000D03*
X85800000Y-101890000D03*
X79300000Y-106390000D03*
X85800000Y-106390000D03*
D12*
X73675000Y-97790000D03*
D13*
X76215000Y-97790000D03*
X78755000Y-97790000D03*
X81295000Y-97790000D03*
X83835000Y-97790000D03*
X86375000Y-97790000D03*
X88915000Y-97790000D03*
X91455000Y-97790000D03*
D15*
X74930000Y-46355000D03*
X74930000Y-48895000D03*
D16*
X74930000Y-51435000D03*
X74930000Y-53975000D03*
D15*
X74930000Y-56515000D03*
X74930000Y-59055000D03*
X74930000Y-61595000D03*
X74930000Y-64135000D03*
X74930000Y-66675000D03*
X74930000Y-69215000D03*
X74930000Y-71755000D03*
X74930000Y-74295000D03*
X90170000Y-74295000D03*
X90170000Y-71755000D03*
X90170000Y-69215000D03*
X90170000Y-66675000D03*
X90170000Y-64135000D03*
X90170000Y-61595000D03*
X90170000Y-59055000D03*
X90170000Y-56515000D03*
D17*
X90170000Y-53975000D03*
D15*
X90170000Y-51435000D03*
D16*
X90170000Y-48895000D03*
D15*
X90170000Y-46355000D03*
X77470000Y-74295000D03*
X80010000Y-74295000D03*
X82550000Y-74295000D03*
X85090000Y-74295000D03*
X87630000Y-74295000D03*
D18*
X71882000Y-84454500D03*
X71882000Y-81280000D03*
X94530500Y-68488216D03*
X97879500Y-73152000D03*
X90606951Y-79319049D03*
X98677034Y-72549550D03*
X92075000Y-77978000D03*
D19*
X71882000Y-84454500D02*
X71882000Y-85217000D01*
X88655000Y-90515000D02*
X90190000Y-92050000D01*
X71882000Y-81280000D02*
X71882000Y-76332325D01*
X73919325Y-74295000D02*
X75158600Y-74295000D01*
X77180000Y-90515000D02*
X88655000Y-90515000D01*
X71882000Y-76332325D02*
X73919325Y-74295000D01*
X71882000Y-85217000D02*
X77180000Y-90515000D01*
X73675000Y-96540584D02*
X68685000Y-91550584D01*
X67945000Y-80645000D02*
X67945000Y-76200000D01*
X68685000Y-81385000D02*
X67945000Y-80645000D01*
X73025000Y-71120000D02*
X73025000Y-58420000D01*
X73675000Y-97790000D02*
X73675000Y-96540584D01*
X68685000Y-91550584D02*
X68685000Y-81385000D01*
X67945000Y-76200000D02*
X73025000Y-71120000D01*
X73025000Y-58420000D02*
X74930000Y-56515000D01*
X70650812Y-82380000D02*
X69135000Y-83895812D01*
X69135000Y-91364188D02*
X73100812Y-95330000D01*
X77470000Y-74295000D02*
X75565000Y-76200000D01*
X71925000Y-82380000D02*
X70650812Y-82380000D01*
X73100812Y-95330000D02*
X75010000Y-95330000D01*
X69135000Y-83895812D02*
X69135000Y-91364188D01*
X75010000Y-95330000D02*
X76215000Y-96535000D01*
X76215000Y-96535000D02*
X76215000Y-97790000D01*
X75565000Y-78740000D02*
X71925000Y-82380000D01*
X75565000Y-76200000D02*
X75565000Y-78740000D01*
X69585000Y-91177792D02*
X73287208Y-94880000D01*
X74648604Y-82830000D02*
X70837208Y-82830000D01*
X73287208Y-94880000D02*
X77100000Y-94880000D01*
X80010000Y-74295000D02*
X80010000Y-77468604D01*
X80010000Y-77468604D02*
X74648604Y-82830000D01*
X70837208Y-82830000D02*
X69585000Y-84082208D01*
X69585000Y-84082208D02*
X69585000Y-91177792D01*
X77100000Y-94880000D02*
X78755000Y-96535000D01*
X78755000Y-96535000D02*
X78755000Y-97790000D01*
X81295000Y-96535000D02*
X81295000Y-97790000D01*
X70035000Y-90991396D02*
X73473604Y-94430000D01*
X81913604Y-80645000D02*
X77470000Y-80645000D01*
X79190000Y-94430000D02*
X81295000Y-96535000D01*
X71023604Y-83280000D02*
X70035000Y-84268604D01*
X82550000Y-80008604D02*
X81913604Y-80645000D01*
X82550000Y-74295000D02*
X82550000Y-80008604D01*
X73473604Y-94430000D02*
X79190000Y-94430000D01*
X70035000Y-84268604D02*
X70035000Y-90991396D01*
X74835000Y-83280000D02*
X71023604Y-83280000D01*
X77470000Y-80645000D02*
X74835000Y-83280000D01*
X70485000Y-84455000D02*
X70485000Y-90805000D01*
X78740000Y-84455000D02*
X73660000Y-84455000D01*
X73660000Y-84455000D02*
X72935000Y-83730000D01*
X83835000Y-96693750D02*
X83835000Y-97790000D01*
X85090000Y-74295000D02*
X85090000Y-78105000D01*
X72935000Y-83730000D02*
X71210000Y-83730000D01*
X70485000Y-90805000D02*
X73660000Y-93980000D01*
X71210000Y-83730000D02*
X70485000Y-84455000D01*
X73660000Y-93980000D02*
X81121250Y-93980000D01*
X85090000Y-78105000D02*
X78740000Y-84455000D01*
X81121250Y-93980000D02*
X83835000Y-96693750D01*
X92710000Y-59055000D02*
X90170000Y-56515000D01*
X94530500Y-68488216D02*
X94530500Y-63620209D01*
X94530500Y-63620209D02*
X92710000Y-61799709D01*
X90805000Y-56515000D02*
X90170000Y-56515000D01*
X92710000Y-61799709D02*
X92710000Y-59055000D01*
X93806000Y-63532105D02*
X92260000Y-61986105D01*
X93806000Y-69078500D02*
X93806000Y-63532105D01*
X92260000Y-61986105D02*
X92260000Y-61145000D01*
X97879500Y-73152000D02*
X93806000Y-69078500D01*
X92260000Y-61145000D02*
X90170000Y-59055000D01*
X99060000Y-85095584D02*
X99060000Y-75814812D01*
X93356000Y-64781000D02*
X90170000Y-61595000D01*
X76200000Y-86360000D02*
X79905000Y-90065000D01*
X94090584Y-90065000D02*
X99060000Y-85095584D01*
X99060000Y-75814812D02*
X93356000Y-70110812D01*
X93356000Y-70110812D02*
X93356000Y-64781000D01*
X79905000Y-90065000D02*
X94090584Y-90065000D01*
X92906000Y-70297208D02*
X92906000Y-66871000D01*
X92906000Y-66871000D02*
X90170000Y-64135000D01*
X98505000Y-85014188D02*
X98505000Y-75896208D01*
X98505000Y-75896208D02*
X92906000Y-70297208D01*
X78740000Y-86360000D02*
X81995000Y-89615000D01*
X81995000Y-89615000D02*
X93904188Y-89615000D01*
X93904188Y-89615000D02*
X98505000Y-85014188D01*
X84085000Y-89165000D02*
X93717792Y-89165000D01*
X98055000Y-76082604D02*
X92456000Y-70483604D01*
X92456000Y-70483604D02*
X92456000Y-68961000D01*
X92456000Y-68961000D02*
X90170000Y-66675000D01*
X98055000Y-84827792D02*
X98055000Y-76082604D01*
X81280000Y-86360000D02*
X84085000Y-89165000D01*
X93717792Y-89165000D02*
X98055000Y-84827792D01*
X83820000Y-86360000D02*
X86175000Y-88715000D01*
X93531396Y-88715000D02*
X97605000Y-84641396D01*
X97605000Y-84641396D02*
X97605000Y-76269000D01*
X90551000Y-69215000D02*
X90170000Y-69215000D01*
X97605000Y-76269000D02*
X90551000Y-69215000D01*
X86175000Y-88715000D02*
X93531396Y-88715000D01*
X92454604Y-71755000D02*
X90170000Y-71755000D01*
X97155000Y-84455000D02*
X97155000Y-76455396D01*
X93345000Y-88265000D02*
X97155000Y-84455000D01*
X88265000Y-88265000D02*
X93345000Y-88265000D01*
X86360000Y-86360000D02*
X88265000Y-88265000D01*
X97155000Y-76455396D02*
X92454604Y-71755000D01*
X94615000Y-78740000D02*
X94615000Y-80010000D01*
X90355000Y-87815000D02*
X88900000Y-86360000D01*
X96705000Y-84268604D02*
X93158604Y-87815000D01*
X94615000Y-80010000D02*
X96705000Y-82100000D01*
X93158604Y-87815000D02*
X90355000Y-87815000D01*
X90170000Y-74295000D02*
X94615000Y-78740000D01*
X96705000Y-82100000D02*
X96705000Y-84268604D01*
X67495000Y-80831396D02*
X68235000Y-81571396D01*
X68235000Y-81571396D02*
X68235000Y-91736980D01*
X90606951Y-79319049D02*
X88900000Y-77612098D01*
X87630000Y-51435000D02*
X90170000Y-48895000D01*
X72575000Y-56330000D02*
X72575000Y-70933604D01*
X74930000Y-53975000D02*
X72575000Y-56330000D01*
X73950000Y-101890000D02*
X79300000Y-101890000D01*
X67495000Y-76013604D02*
X67495000Y-80831396D01*
X79300000Y-101890000D02*
X85800000Y-101890000D01*
X72575000Y-70933604D02*
X67495000Y-76013604D01*
X71755000Y-99695000D02*
X73950000Y-101890000D01*
X88900000Y-77612098D02*
X88900000Y-73025000D01*
X87630000Y-71755000D02*
X87630000Y-51435000D01*
X88900000Y-73025000D02*
X87630000Y-71755000D01*
X71755000Y-95256980D02*
X71755000Y-99695000D01*
X68235000Y-91736980D02*
X71755000Y-95256980D01*
X95250000Y-63703313D02*
X93160000Y-61613313D01*
X92075000Y-57783604D02*
X92075000Y-53340000D01*
X93160000Y-61613313D02*
X93160000Y-58868604D01*
X95255500Y-68187911D02*
X95250000Y-68182411D01*
X93160000Y-58868604D02*
X92075000Y-57783604D01*
X79300000Y-106390000D02*
X85800000Y-106390000D01*
X95250000Y-68182411D02*
X95250000Y-63703313D01*
X98677034Y-72515034D02*
X95250000Y-69088000D01*
X95250000Y-69088000D02*
X95250000Y-68794021D01*
X95250000Y-68794021D02*
X95255500Y-68788521D01*
X92075000Y-53340000D02*
X90170000Y-51435000D01*
X98677034Y-72549550D02*
X98677034Y-72515034D01*
X95255500Y-68788521D02*
X95255500Y-68187911D01*
X92075000Y-79349533D02*
X89114533Y-82310000D01*
X89114533Y-82310000D02*
X87622500Y-82310000D01*
X92075000Y-77978000D02*
X92075000Y-79349533D01*
X76835000Y-50800000D02*
X76835000Y-71548895D01*
X71756396Y-73025000D02*
X70477500Y-74303896D01*
X74930000Y-48895000D02*
X76835000Y-50800000D01*
X76835000Y-71548895D02*
X75358895Y-73025000D01*
X70477500Y-74303896D02*
X70477500Y-77710000D01*
X75358895Y-73025000D02*
X71756396Y-73025000D01*
M02*
