%FSLAX45Y45*%
G04 Gerber Fmt 4.5, Leading zero omitted, Abs format (unit mm)*
G04 Created by KiCad (PCBNEW (6.0.6)) date 2023-06-15 01:10:45*
%MOMM*%
%LPD*%
G01*
G04 APERTURE LIST*
%TA.AperFunction,Profile*%
%ADD10C,0.100000*%
%TD*%
%ADD11C,0.200000*%
%ADD12C,0.080000*%
%ADD13C,0.220000*%
G04 APERTURE END LIST*
D10*
X6540500Y-4038600D02*
X9969500Y-4038600D01*
X10033000Y-4114800D02*
X10033000Y-10477500D01*
X6858000Y-10858500D02*
X9652000Y-10858500D01*
X6477000Y-4089400D02*
X6477000Y-10477500D01*
X6540500Y-4038596D02*
G75*
G03*
X6477000Y-4089400I-4290J-59724D01*
G01*
X10033000Y-4114800D02*
G75*
G03*
X9969500Y-4038600I-70990J5400D01*
G01*
X6477000Y-10477500D02*
G75*
G03*
X6858000Y-10858500I381000J0D01*
G01*
X9652000Y-10858500D02*
G75*
G03*
X10033000Y-10477500I0J381000D01*
G01*
D11*
D12*
X6818000Y-4371250D02*
X6898000Y-4451250D01*
X6898000Y-4371250D02*
X6818000Y-4451250D01*
X6818000Y-5071250D02*
X6898000Y-5151250D01*
X6898000Y-5071250D02*
X6818000Y-5151250D01*
X6847750Y-7961000D02*
X6927750Y-8041000D01*
X6927750Y-7961000D02*
X6847750Y-8041000D01*
X7547750Y-7961000D02*
X7627750Y-8041000D01*
X7627750Y-7961000D02*
X7547750Y-8041000D01*
X8882250Y-7961000D02*
X8962250Y-8041000D01*
X8962250Y-7961000D02*
X8882250Y-8041000D01*
X9582250Y-7961000D02*
X9662250Y-8041000D01*
X9662250Y-7961000D02*
X9582250Y-8041000D01*
X9612000Y-4371250D02*
X9692000Y-4451250D01*
X9692000Y-4371250D02*
X9612000Y-4451250D01*
X9612000Y-5071250D02*
X9692000Y-5151250D01*
X9692000Y-5071250D02*
X9612000Y-5151250D01*
D13*
X6968000Y-5892800D02*
G75*
G03*
X6968000Y-5892800I-110000J0D01*
G01*
X6968000Y-10477500D02*
G75*
G03*
X6968000Y-10477500I-110000J0D01*
G01*
X9762000Y-5892800D02*
G75*
G03*
X9762000Y-5892800I-110000J0D01*
G01*
X9762000Y-10477500D02*
G75*
G03*
X9762000Y-10477500I-110000J0D01*
G01*
D11*
X6729619Y-11173976D02*
X6729619Y-10973976D01*
X6777238Y-10973976D01*
X6805809Y-10983500D01*
X6824857Y-11002548D01*
X6834381Y-11021595D01*
X6843905Y-11059690D01*
X6843905Y-11088262D01*
X6834381Y-11126357D01*
X6824857Y-11145405D01*
X6805809Y-11164452D01*
X6777238Y-11173976D01*
X6729619Y-11173976D01*
X6929619Y-11173976D02*
X6929619Y-11040643D01*
X6929619Y-11078738D02*
X6939143Y-11059690D01*
X6948667Y-11050167D01*
X6967714Y-11040643D01*
X6986762Y-11040643D01*
X7053428Y-11173976D02*
X7053428Y-11040643D01*
X7053428Y-10973976D02*
X7043905Y-10983500D01*
X7053428Y-10993024D01*
X7062952Y-10983500D01*
X7053428Y-10973976D01*
X7053428Y-10993024D01*
X7177238Y-11173976D02*
X7158190Y-11164452D01*
X7148667Y-11145405D01*
X7148667Y-10973976D01*
X7282000Y-11173976D02*
X7262952Y-11164452D01*
X7253428Y-11145405D01*
X7253428Y-10973976D01*
X7510571Y-11173976D02*
X7510571Y-10973976D01*
X7577238Y-11116833D01*
X7643905Y-10973976D01*
X7643905Y-11173976D01*
X7824857Y-11173976D02*
X7824857Y-11069214D01*
X7815333Y-11050167D01*
X7796286Y-11040643D01*
X7758190Y-11040643D01*
X7739143Y-11050167D01*
X7824857Y-11164452D02*
X7805809Y-11173976D01*
X7758190Y-11173976D01*
X7739143Y-11164452D01*
X7729619Y-11145405D01*
X7729619Y-11126357D01*
X7739143Y-11107310D01*
X7758190Y-11097786D01*
X7805809Y-11097786D01*
X7824857Y-11088262D01*
X7920095Y-11040643D02*
X7920095Y-11240643D01*
X7920095Y-11050167D02*
X7939143Y-11040643D01*
X7977238Y-11040643D01*
X7996286Y-11050167D01*
X8005809Y-11059690D01*
X8015333Y-11078738D01*
X8015333Y-11135881D01*
X8005809Y-11154929D01*
X7996286Y-11164452D01*
X7977238Y-11173976D01*
X7939143Y-11173976D01*
X7920095Y-11164452D01*
X8101048Y-11154929D02*
X8110571Y-11164452D01*
X8101048Y-11173976D01*
X8091524Y-11164452D01*
X8101048Y-11154929D01*
X8101048Y-11173976D01*
X8101048Y-11050167D02*
X8110571Y-11059690D01*
X8101048Y-11069214D01*
X8091524Y-11059690D01*
X8101048Y-11050167D01*
X8101048Y-11069214D01*
D12*
X6392000Y-11463500D02*
X6472000Y-11543500D01*
X6472000Y-11463500D02*
X6392000Y-11543500D01*
D11*
X6767714Y-11393976D02*
X6786762Y-11393976D01*
X6805809Y-11403500D01*
X6815333Y-11413024D01*
X6824857Y-11432071D01*
X6834381Y-11470167D01*
X6834381Y-11517786D01*
X6824857Y-11555881D01*
X6815333Y-11574928D01*
X6805809Y-11584452D01*
X6786762Y-11593976D01*
X6767714Y-11593976D01*
X6748667Y-11584452D01*
X6739143Y-11574928D01*
X6729619Y-11555881D01*
X6720095Y-11517786D01*
X6720095Y-11470167D01*
X6729619Y-11432071D01*
X6739143Y-11413024D01*
X6748667Y-11403500D01*
X6767714Y-11393976D01*
X6920095Y-11574928D02*
X6929619Y-11584452D01*
X6920095Y-11593976D01*
X6910571Y-11584452D01*
X6920095Y-11574928D01*
X6920095Y-11593976D01*
X7043905Y-11479690D02*
X7024857Y-11470167D01*
X7015333Y-11460643D01*
X7005809Y-11441595D01*
X7005809Y-11432071D01*
X7015333Y-11413024D01*
X7024857Y-11403500D01*
X7043905Y-11393976D01*
X7082000Y-11393976D01*
X7101048Y-11403500D01*
X7110571Y-11413024D01*
X7120095Y-11432071D01*
X7120095Y-11441595D01*
X7110571Y-11460643D01*
X7101048Y-11470167D01*
X7082000Y-11479690D01*
X7043905Y-11479690D01*
X7024857Y-11489214D01*
X7015333Y-11498738D01*
X7005809Y-11517786D01*
X7005809Y-11555881D01*
X7015333Y-11574928D01*
X7024857Y-11584452D01*
X7043905Y-11593976D01*
X7082000Y-11593976D01*
X7101048Y-11584452D01*
X7110571Y-11574928D01*
X7120095Y-11555881D01*
X7120095Y-11517786D01*
X7110571Y-11498738D01*
X7101048Y-11489214D01*
X7082000Y-11479690D01*
X7243905Y-11393976D02*
X7262952Y-11393976D01*
X7282000Y-11403500D01*
X7291524Y-11413024D01*
X7301048Y-11432071D01*
X7310571Y-11470167D01*
X7310571Y-11517786D01*
X7301048Y-11555881D01*
X7291524Y-11574928D01*
X7282000Y-11584452D01*
X7262952Y-11593976D01*
X7243905Y-11593976D01*
X7224857Y-11584452D01*
X7215333Y-11574928D01*
X7205809Y-11555881D01*
X7196286Y-11517786D01*
X7196286Y-11470167D01*
X7205809Y-11432071D01*
X7215333Y-11413024D01*
X7224857Y-11403500D01*
X7243905Y-11393976D01*
X7434381Y-11393976D02*
X7453428Y-11393976D01*
X7472476Y-11403500D01*
X7482000Y-11413024D01*
X7491524Y-11432071D01*
X7501048Y-11470167D01*
X7501048Y-11517786D01*
X7491524Y-11555881D01*
X7482000Y-11574928D01*
X7472476Y-11584452D01*
X7453428Y-11593976D01*
X7434381Y-11593976D01*
X7415333Y-11584452D01*
X7405809Y-11574928D01*
X7396286Y-11555881D01*
X7386762Y-11517786D01*
X7386762Y-11470167D01*
X7396286Y-11432071D01*
X7405809Y-11413024D01*
X7415333Y-11403500D01*
X7434381Y-11393976D01*
X7586762Y-11593976D02*
X7586762Y-11460643D01*
X7586762Y-11479690D02*
X7596286Y-11470167D01*
X7615333Y-11460643D01*
X7643905Y-11460643D01*
X7662952Y-11470167D01*
X7672476Y-11489214D01*
X7672476Y-11593976D01*
X7672476Y-11489214D02*
X7682000Y-11470167D01*
X7701048Y-11460643D01*
X7729619Y-11460643D01*
X7748667Y-11470167D01*
X7758190Y-11489214D01*
X7758190Y-11593976D01*
X7853428Y-11593976D02*
X7853428Y-11460643D01*
X7853428Y-11479690D02*
X7862952Y-11470167D01*
X7882000Y-11460643D01*
X7910571Y-11460643D01*
X7929619Y-11470167D01*
X7939143Y-11489214D01*
X7939143Y-11593976D01*
X7939143Y-11489214D02*
X7948667Y-11470167D01*
X7967714Y-11460643D01*
X7996286Y-11460643D01*
X8015333Y-11470167D01*
X8024857Y-11489214D01*
X8024857Y-11593976D01*
X8415333Y-11384452D02*
X8243905Y-11641595D01*
X8672476Y-11393976D02*
X8691524Y-11393976D01*
X8710571Y-11403500D01*
X8720095Y-11413024D01*
X8729619Y-11432071D01*
X8739143Y-11470167D01*
X8739143Y-11517786D01*
X8729619Y-11555881D01*
X8720095Y-11574928D01*
X8710571Y-11584452D01*
X8691524Y-11593976D01*
X8672476Y-11593976D01*
X8653429Y-11584452D01*
X8643905Y-11574928D01*
X8634381Y-11555881D01*
X8624857Y-11517786D01*
X8624857Y-11470167D01*
X8634381Y-11432071D01*
X8643905Y-11413024D01*
X8653429Y-11403500D01*
X8672476Y-11393976D01*
X8824857Y-11574928D02*
X8834381Y-11584452D01*
X8824857Y-11593976D01*
X8815333Y-11584452D01*
X8824857Y-11574928D01*
X8824857Y-11593976D01*
X8958190Y-11393976D02*
X8977238Y-11393976D01*
X8996286Y-11403500D01*
X9005810Y-11413024D01*
X9015333Y-11432071D01*
X9024857Y-11470167D01*
X9024857Y-11517786D01*
X9015333Y-11555881D01*
X9005810Y-11574928D01*
X8996286Y-11584452D01*
X8977238Y-11593976D01*
X8958190Y-11593976D01*
X8939143Y-11584452D01*
X8929619Y-11574928D01*
X8920095Y-11555881D01*
X8910571Y-11517786D01*
X8910571Y-11470167D01*
X8920095Y-11432071D01*
X8929619Y-11413024D01*
X8939143Y-11403500D01*
X8958190Y-11393976D01*
X9091524Y-11393976D02*
X9215333Y-11393976D01*
X9148667Y-11470167D01*
X9177238Y-11470167D01*
X9196286Y-11479690D01*
X9205810Y-11489214D01*
X9215333Y-11508262D01*
X9215333Y-11555881D01*
X9205810Y-11574928D01*
X9196286Y-11584452D01*
X9177238Y-11593976D01*
X9120095Y-11593976D01*
X9101048Y-11584452D01*
X9091524Y-11574928D01*
X9405810Y-11593976D02*
X9291524Y-11593976D01*
X9348667Y-11593976D02*
X9348667Y-11393976D01*
X9329619Y-11422548D01*
X9310571Y-11441595D01*
X9291524Y-11451119D01*
X9586762Y-11393976D02*
X9491524Y-11393976D01*
X9482000Y-11489214D01*
X9491524Y-11479690D01*
X9510571Y-11470167D01*
X9558190Y-11470167D01*
X9577238Y-11479690D01*
X9586762Y-11489214D01*
X9596286Y-11508262D01*
X9596286Y-11555881D01*
X9586762Y-11574928D01*
X9577238Y-11584452D01*
X9558190Y-11593976D01*
X9510571Y-11593976D01*
X9491524Y-11584452D01*
X9482000Y-11574928D01*
X9672476Y-11393976D02*
X9672476Y-11432071D01*
X9748667Y-11393976D02*
X9748667Y-11432071D01*
X10043905Y-11670167D02*
X10034381Y-11660643D01*
X10015333Y-11632071D01*
X10005810Y-11613024D01*
X9996286Y-11584452D01*
X9986762Y-11536833D01*
X9986762Y-11498738D01*
X9996286Y-11451119D01*
X10005810Y-11422548D01*
X10015333Y-11403500D01*
X10034381Y-11374928D01*
X10043905Y-11365405D01*
X10148667Y-11479690D02*
X10129619Y-11470167D01*
X10120095Y-11460643D01*
X10110571Y-11441595D01*
X10110571Y-11432071D01*
X10120095Y-11413024D01*
X10129619Y-11403500D01*
X10148667Y-11393976D01*
X10186762Y-11393976D01*
X10205810Y-11403500D01*
X10215333Y-11413024D01*
X10224857Y-11432071D01*
X10224857Y-11441595D01*
X10215333Y-11460643D01*
X10205810Y-11470167D01*
X10186762Y-11479690D01*
X10148667Y-11479690D01*
X10129619Y-11489214D01*
X10120095Y-11498738D01*
X10110571Y-11517786D01*
X10110571Y-11555881D01*
X10120095Y-11574928D01*
X10129619Y-11584452D01*
X10148667Y-11593976D01*
X10186762Y-11593976D01*
X10205810Y-11584452D01*
X10215333Y-11574928D01*
X10224857Y-11555881D01*
X10224857Y-11517786D01*
X10215333Y-11498738D01*
X10205810Y-11489214D01*
X10186762Y-11479690D01*
X10462952Y-11593976D02*
X10462952Y-11393976D01*
X10548667Y-11593976D02*
X10548667Y-11489214D01*
X10539143Y-11470167D01*
X10520095Y-11460643D01*
X10491524Y-11460643D01*
X10472476Y-11470167D01*
X10462952Y-11479690D01*
X10672476Y-11593976D02*
X10653429Y-11584452D01*
X10643905Y-11574928D01*
X10634381Y-11555881D01*
X10634381Y-11498738D01*
X10643905Y-11479690D01*
X10653429Y-11470167D01*
X10672476Y-11460643D01*
X10701048Y-11460643D01*
X10720095Y-11470167D01*
X10729619Y-11479690D01*
X10739143Y-11498738D01*
X10739143Y-11555881D01*
X10729619Y-11574928D01*
X10720095Y-11584452D01*
X10701048Y-11593976D01*
X10672476Y-11593976D01*
X10853429Y-11593976D02*
X10834381Y-11584452D01*
X10824857Y-11565405D01*
X10824857Y-11393976D01*
X11005810Y-11584452D02*
X10986762Y-11593976D01*
X10948667Y-11593976D01*
X10929619Y-11584452D01*
X10920095Y-11565405D01*
X10920095Y-11489214D01*
X10929619Y-11470167D01*
X10948667Y-11460643D01*
X10986762Y-11460643D01*
X11005810Y-11470167D01*
X11015333Y-11489214D01*
X11015333Y-11508262D01*
X10920095Y-11527309D01*
X11091524Y-11584452D02*
X11110571Y-11593976D01*
X11148667Y-11593976D01*
X11167714Y-11584452D01*
X11177238Y-11565405D01*
X11177238Y-11555881D01*
X11167714Y-11536833D01*
X11148667Y-11527309D01*
X11120095Y-11527309D01*
X11101048Y-11517786D01*
X11091524Y-11498738D01*
X11091524Y-11489214D01*
X11101048Y-11470167D01*
X11120095Y-11460643D01*
X11148667Y-11460643D01*
X11167714Y-11470167D01*
X11243905Y-11670167D02*
X11253428Y-11660643D01*
X11272476Y-11632071D01*
X11282000Y-11613024D01*
X11291524Y-11584452D01*
X11301048Y-11536833D01*
X11301048Y-11498738D01*
X11291524Y-11451119D01*
X11282000Y-11422548D01*
X11272476Y-11403500D01*
X11253428Y-11374928D01*
X11243905Y-11365405D01*
X11605809Y-11670167D02*
X11596286Y-11660643D01*
X11577238Y-11632071D01*
X11567714Y-11613024D01*
X11558190Y-11584452D01*
X11548667Y-11536833D01*
X11548667Y-11498738D01*
X11558190Y-11451119D01*
X11567714Y-11422548D01*
X11577238Y-11403500D01*
X11596286Y-11374928D01*
X11605809Y-11365405D01*
X11682000Y-11460643D02*
X11682000Y-11593976D01*
X11682000Y-11479690D02*
X11691524Y-11470167D01*
X11710571Y-11460643D01*
X11739143Y-11460643D01*
X11758190Y-11470167D01*
X11767714Y-11489214D01*
X11767714Y-11593976D01*
X11891524Y-11593976D02*
X11872476Y-11584452D01*
X11862952Y-11574928D01*
X11853428Y-11555881D01*
X11853428Y-11498738D01*
X11862952Y-11479690D01*
X11872476Y-11470167D01*
X11891524Y-11460643D01*
X11920095Y-11460643D01*
X11939143Y-11470167D01*
X11948667Y-11479690D01*
X11958190Y-11498738D01*
X11958190Y-11555881D01*
X11948667Y-11574928D01*
X11939143Y-11584452D01*
X11920095Y-11593976D01*
X11891524Y-11593976D01*
X12015333Y-11460643D02*
X12091524Y-11460643D01*
X12043905Y-11393976D02*
X12043905Y-11565405D01*
X12053428Y-11584452D01*
X12072476Y-11593976D01*
X12091524Y-11593976D01*
X12310571Y-11460643D02*
X12310571Y-11660643D01*
X12310571Y-11470167D02*
X12329619Y-11460643D01*
X12367714Y-11460643D01*
X12386762Y-11470167D01*
X12396286Y-11479690D01*
X12405809Y-11498738D01*
X12405809Y-11555881D01*
X12396286Y-11574928D01*
X12386762Y-11584452D01*
X12367714Y-11593976D01*
X12329619Y-11593976D01*
X12310571Y-11584452D01*
X12520095Y-11593976D02*
X12501048Y-11584452D01*
X12491524Y-11565405D01*
X12491524Y-11393976D01*
X12682000Y-11593976D02*
X12682000Y-11489214D01*
X12672476Y-11470167D01*
X12653428Y-11460643D01*
X12615333Y-11460643D01*
X12596286Y-11470167D01*
X12682000Y-11584452D02*
X12662952Y-11593976D01*
X12615333Y-11593976D01*
X12596286Y-11584452D01*
X12586762Y-11565405D01*
X12586762Y-11546357D01*
X12596286Y-11527309D01*
X12615333Y-11517786D01*
X12662952Y-11517786D01*
X12682000Y-11508262D01*
X12748667Y-11460643D02*
X12824857Y-11460643D01*
X12777238Y-11393976D02*
X12777238Y-11565405D01*
X12786762Y-11584452D01*
X12805809Y-11593976D01*
X12824857Y-11593976D01*
X12967714Y-11584452D02*
X12948667Y-11593976D01*
X12910571Y-11593976D01*
X12891524Y-11584452D01*
X12882000Y-11565405D01*
X12882000Y-11489214D01*
X12891524Y-11470167D01*
X12910571Y-11460643D01*
X12948667Y-11460643D01*
X12967714Y-11470167D01*
X12977238Y-11489214D01*
X12977238Y-11508262D01*
X12882000Y-11527309D01*
X13148667Y-11593976D02*
X13148667Y-11393976D01*
X13148667Y-11584452D02*
X13129619Y-11593976D01*
X13091524Y-11593976D01*
X13072476Y-11584452D01*
X13062952Y-11574928D01*
X13053428Y-11555881D01*
X13053428Y-11498738D01*
X13062952Y-11479690D01*
X13072476Y-11470167D01*
X13091524Y-11460643D01*
X13129619Y-11460643D01*
X13148667Y-11470167D01*
X13224857Y-11670167D02*
X13234381Y-11660643D01*
X13253428Y-11632071D01*
X13262952Y-11613024D01*
X13272476Y-11584452D01*
X13282000Y-11536833D01*
X13282000Y-11498738D01*
X13272476Y-11451119D01*
X13262952Y-11422548D01*
X13253428Y-11403500D01*
X13234381Y-11374928D01*
X13224857Y-11365405D01*
X6472000Y-11767500D02*
G75*
G03*
X6472000Y-11767500I-100000J0D01*
G01*
X6720095Y-11677024D02*
X6729619Y-11667500D01*
X6748667Y-11657976D01*
X6796286Y-11657976D01*
X6815333Y-11667500D01*
X6824857Y-11677024D01*
X6834381Y-11696071D01*
X6834381Y-11715119D01*
X6824857Y-11743690D01*
X6710571Y-11857976D01*
X6834381Y-11857976D01*
X6920095Y-11838928D02*
X6929619Y-11848452D01*
X6920095Y-11857976D01*
X6910571Y-11848452D01*
X6920095Y-11838928D01*
X6920095Y-11857976D01*
X7005809Y-11677024D02*
X7015333Y-11667500D01*
X7034381Y-11657976D01*
X7082000Y-11657976D01*
X7101048Y-11667500D01*
X7110571Y-11677024D01*
X7120095Y-11696071D01*
X7120095Y-11715119D01*
X7110571Y-11743690D01*
X6996286Y-11857976D01*
X7120095Y-11857976D01*
X7243905Y-11657976D02*
X7262952Y-11657976D01*
X7282000Y-11667500D01*
X7291524Y-11677024D01*
X7301048Y-11696071D01*
X7310571Y-11734167D01*
X7310571Y-11781786D01*
X7301048Y-11819881D01*
X7291524Y-11838928D01*
X7282000Y-11848452D01*
X7262952Y-11857976D01*
X7243905Y-11857976D01*
X7224857Y-11848452D01*
X7215333Y-11838928D01*
X7205809Y-11819881D01*
X7196286Y-11781786D01*
X7196286Y-11734167D01*
X7205809Y-11696071D01*
X7215333Y-11677024D01*
X7224857Y-11667500D01*
X7243905Y-11657976D01*
X7434381Y-11657976D02*
X7453428Y-11657976D01*
X7472476Y-11667500D01*
X7482000Y-11677024D01*
X7491524Y-11696071D01*
X7501048Y-11734167D01*
X7501048Y-11781786D01*
X7491524Y-11819881D01*
X7482000Y-11838928D01*
X7472476Y-11848452D01*
X7453428Y-11857976D01*
X7434381Y-11857976D01*
X7415333Y-11848452D01*
X7405809Y-11838928D01*
X7396286Y-11819881D01*
X7386762Y-11781786D01*
X7386762Y-11734167D01*
X7396286Y-11696071D01*
X7405809Y-11677024D01*
X7415333Y-11667500D01*
X7434381Y-11657976D01*
X7586762Y-11857976D02*
X7586762Y-11724643D01*
X7586762Y-11743690D02*
X7596286Y-11734167D01*
X7615333Y-11724643D01*
X7643905Y-11724643D01*
X7662952Y-11734167D01*
X7672476Y-11753214D01*
X7672476Y-11857976D01*
X7672476Y-11753214D02*
X7682000Y-11734167D01*
X7701048Y-11724643D01*
X7729619Y-11724643D01*
X7748667Y-11734167D01*
X7758190Y-11753214D01*
X7758190Y-11857976D01*
X7853428Y-11857976D02*
X7853428Y-11724643D01*
X7853428Y-11743690D02*
X7862952Y-11734167D01*
X7882000Y-11724643D01*
X7910571Y-11724643D01*
X7929619Y-11734167D01*
X7939143Y-11753214D01*
X7939143Y-11857976D01*
X7939143Y-11753214D02*
X7948667Y-11734167D01*
X7967714Y-11724643D01*
X7996286Y-11724643D01*
X8015333Y-11734167D01*
X8024857Y-11753214D01*
X8024857Y-11857976D01*
X8415333Y-11648452D02*
X8243905Y-11905595D01*
X8672476Y-11657976D02*
X8691524Y-11657976D01*
X8710571Y-11667500D01*
X8720095Y-11677024D01*
X8729619Y-11696071D01*
X8739143Y-11734167D01*
X8739143Y-11781786D01*
X8729619Y-11819881D01*
X8720095Y-11838928D01*
X8710571Y-11848452D01*
X8691524Y-11857976D01*
X8672476Y-11857976D01*
X8653429Y-11848452D01*
X8643905Y-11838928D01*
X8634381Y-11819881D01*
X8624857Y-11781786D01*
X8624857Y-11734167D01*
X8634381Y-11696071D01*
X8643905Y-11677024D01*
X8653429Y-11667500D01*
X8672476Y-11657976D01*
X8824857Y-11838928D02*
X8834381Y-11848452D01*
X8824857Y-11857976D01*
X8815333Y-11848452D01*
X8824857Y-11838928D01*
X8824857Y-11857976D01*
X8958190Y-11657976D02*
X8977238Y-11657976D01*
X8996286Y-11667500D01*
X9005810Y-11677024D01*
X9015333Y-11696071D01*
X9024857Y-11734167D01*
X9024857Y-11781786D01*
X9015333Y-11819881D01*
X9005810Y-11838928D01*
X8996286Y-11848452D01*
X8977238Y-11857976D01*
X8958190Y-11857976D01*
X8939143Y-11848452D01*
X8929619Y-11838928D01*
X8920095Y-11819881D01*
X8910571Y-11781786D01*
X8910571Y-11734167D01*
X8920095Y-11696071D01*
X8929619Y-11677024D01*
X8939143Y-11667500D01*
X8958190Y-11657976D01*
X9139143Y-11743690D02*
X9120095Y-11734167D01*
X9110571Y-11724643D01*
X9101048Y-11705595D01*
X9101048Y-11696071D01*
X9110571Y-11677024D01*
X9120095Y-11667500D01*
X9139143Y-11657976D01*
X9177238Y-11657976D01*
X9196286Y-11667500D01*
X9205810Y-11677024D01*
X9215333Y-11696071D01*
X9215333Y-11705595D01*
X9205810Y-11724643D01*
X9196286Y-11734167D01*
X9177238Y-11743690D01*
X9139143Y-11743690D01*
X9120095Y-11753214D01*
X9110571Y-11762738D01*
X9101048Y-11781786D01*
X9101048Y-11819881D01*
X9110571Y-11838928D01*
X9120095Y-11848452D01*
X9139143Y-11857976D01*
X9177238Y-11857976D01*
X9196286Y-11848452D01*
X9205810Y-11838928D01*
X9215333Y-11819881D01*
X9215333Y-11781786D01*
X9205810Y-11762738D01*
X9196286Y-11753214D01*
X9177238Y-11743690D01*
X9386762Y-11657976D02*
X9348667Y-11657976D01*
X9329619Y-11667500D01*
X9320095Y-11677024D01*
X9301048Y-11705595D01*
X9291524Y-11743690D01*
X9291524Y-11819881D01*
X9301048Y-11838928D01*
X9310571Y-11848452D01*
X9329619Y-11857976D01*
X9367714Y-11857976D01*
X9386762Y-11848452D01*
X9396286Y-11838928D01*
X9405810Y-11819881D01*
X9405810Y-11772262D01*
X9396286Y-11753214D01*
X9386762Y-11743690D01*
X9367714Y-11734167D01*
X9329619Y-11734167D01*
X9310571Y-11743690D01*
X9301048Y-11753214D01*
X9291524Y-11772262D01*
X9577238Y-11657976D02*
X9539143Y-11657976D01*
X9520095Y-11667500D01*
X9510571Y-11677024D01*
X9491524Y-11705595D01*
X9482000Y-11743690D01*
X9482000Y-11819881D01*
X9491524Y-11838928D01*
X9501048Y-11848452D01*
X9520095Y-11857976D01*
X9558190Y-11857976D01*
X9577238Y-11848452D01*
X9586762Y-11838928D01*
X9596286Y-11819881D01*
X9596286Y-11772262D01*
X9586762Y-11753214D01*
X9577238Y-11743690D01*
X9558190Y-11734167D01*
X9520095Y-11734167D01*
X9501048Y-11743690D01*
X9491524Y-11753214D01*
X9482000Y-11772262D01*
X9672476Y-11657976D02*
X9672476Y-11696071D01*
X9748667Y-11657976D02*
X9748667Y-11696071D01*
X10043905Y-11934167D02*
X10034381Y-11924643D01*
X10015333Y-11896071D01*
X10005810Y-11877024D01*
X9996286Y-11848452D01*
X9986762Y-11800833D01*
X9986762Y-11762738D01*
X9996286Y-11715119D01*
X10005810Y-11686548D01*
X10015333Y-11667500D01*
X10034381Y-11638928D01*
X10043905Y-11629405D01*
X10205810Y-11724643D02*
X10205810Y-11857976D01*
X10158190Y-11648452D02*
X10110571Y-11791309D01*
X10234381Y-11791309D01*
X10462952Y-11857976D02*
X10462952Y-11657976D01*
X10548667Y-11857976D02*
X10548667Y-11753214D01*
X10539143Y-11734167D01*
X10520095Y-11724643D01*
X10491524Y-11724643D01*
X10472476Y-11734167D01*
X10462952Y-11743690D01*
X10672476Y-11857976D02*
X10653429Y-11848452D01*
X10643905Y-11838928D01*
X10634381Y-11819881D01*
X10634381Y-11762738D01*
X10643905Y-11743690D01*
X10653429Y-11734167D01*
X10672476Y-11724643D01*
X10701048Y-11724643D01*
X10720095Y-11734167D01*
X10729619Y-11743690D01*
X10739143Y-11762738D01*
X10739143Y-11819881D01*
X10729619Y-11838928D01*
X10720095Y-11848452D01*
X10701048Y-11857976D01*
X10672476Y-11857976D01*
X10853429Y-11857976D02*
X10834381Y-11848452D01*
X10824857Y-11829405D01*
X10824857Y-11657976D01*
X11005810Y-11848452D02*
X10986762Y-11857976D01*
X10948667Y-11857976D01*
X10929619Y-11848452D01*
X10920095Y-11829405D01*
X10920095Y-11753214D01*
X10929619Y-11734167D01*
X10948667Y-11724643D01*
X10986762Y-11724643D01*
X11005810Y-11734167D01*
X11015333Y-11753214D01*
X11015333Y-11772262D01*
X10920095Y-11791309D01*
X11091524Y-11848452D02*
X11110571Y-11857976D01*
X11148667Y-11857976D01*
X11167714Y-11848452D01*
X11177238Y-11829405D01*
X11177238Y-11819881D01*
X11167714Y-11800833D01*
X11148667Y-11791309D01*
X11120095Y-11791309D01*
X11101048Y-11781786D01*
X11091524Y-11762738D01*
X11091524Y-11753214D01*
X11101048Y-11734167D01*
X11120095Y-11724643D01*
X11148667Y-11724643D01*
X11167714Y-11734167D01*
X11243905Y-11934167D02*
X11253428Y-11924643D01*
X11272476Y-11896071D01*
X11282000Y-11877024D01*
X11291524Y-11848452D01*
X11301048Y-11800833D01*
X11301048Y-11762738D01*
X11291524Y-11715119D01*
X11282000Y-11686548D01*
X11272476Y-11667500D01*
X11253428Y-11638928D01*
X11243905Y-11629405D01*
X11605809Y-11934167D02*
X11596286Y-11924643D01*
X11577238Y-11896071D01*
X11567714Y-11877024D01*
X11558190Y-11848452D01*
X11548667Y-11800833D01*
X11548667Y-11762738D01*
X11558190Y-11715119D01*
X11567714Y-11686548D01*
X11577238Y-11667500D01*
X11596286Y-11638928D01*
X11605809Y-11629405D01*
X11682000Y-11724643D02*
X11682000Y-11857976D01*
X11682000Y-11743690D02*
X11691524Y-11734167D01*
X11710571Y-11724643D01*
X11739143Y-11724643D01*
X11758190Y-11734167D01*
X11767714Y-11753214D01*
X11767714Y-11857976D01*
X11891524Y-11857976D02*
X11872476Y-11848452D01*
X11862952Y-11838928D01*
X11853428Y-11819881D01*
X11853428Y-11762738D01*
X11862952Y-11743690D01*
X11872476Y-11734167D01*
X11891524Y-11724643D01*
X11920095Y-11724643D01*
X11939143Y-11734167D01*
X11948667Y-11743690D01*
X11958190Y-11762738D01*
X11958190Y-11819881D01*
X11948667Y-11838928D01*
X11939143Y-11848452D01*
X11920095Y-11857976D01*
X11891524Y-11857976D01*
X12015333Y-11724643D02*
X12091524Y-11724643D01*
X12043905Y-11657976D02*
X12043905Y-11829405D01*
X12053428Y-11848452D01*
X12072476Y-11857976D01*
X12091524Y-11857976D01*
X12310571Y-11724643D02*
X12310571Y-11924643D01*
X12310571Y-11734167D02*
X12329619Y-11724643D01*
X12367714Y-11724643D01*
X12386762Y-11734167D01*
X12396286Y-11743690D01*
X12405809Y-11762738D01*
X12405809Y-11819881D01*
X12396286Y-11838928D01*
X12386762Y-11848452D01*
X12367714Y-11857976D01*
X12329619Y-11857976D01*
X12310571Y-11848452D01*
X12520095Y-11857976D02*
X12501048Y-11848452D01*
X12491524Y-11829405D01*
X12491524Y-11657976D01*
X12682000Y-11857976D02*
X12682000Y-11753214D01*
X12672476Y-11734167D01*
X12653428Y-11724643D01*
X12615333Y-11724643D01*
X12596286Y-11734167D01*
X12682000Y-11848452D02*
X12662952Y-11857976D01*
X12615333Y-11857976D01*
X12596286Y-11848452D01*
X12586762Y-11829405D01*
X12586762Y-11810357D01*
X12596286Y-11791309D01*
X12615333Y-11781786D01*
X12662952Y-11781786D01*
X12682000Y-11772262D01*
X12748667Y-11724643D02*
X12824857Y-11724643D01*
X12777238Y-11657976D02*
X12777238Y-11829405D01*
X12786762Y-11848452D01*
X12805809Y-11857976D01*
X12824857Y-11857976D01*
X12967714Y-11848452D02*
X12948667Y-11857976D01*
X12910571Y-11857976D01*
X12891524Y-11848452D01*
X12882000Y-11829405D01*
X12882000Y-11753214D01*
X12891524Y-11734167D01*
X12910571Y-11724643D01*
X12948667Y-11724643D01*
X12967714Y-11734167D01*
X12977238Y-11753214D01*
X12977238Y-11772262D01*
X12882000Y-11791309D01*
X13148667Y-11857976D02*
X13148667Y-11657976D01*
X13148667Y-11848452D02*
X13129619Y-11857976D01*
X13091524Y-11857976D01*
X13072476Y-11848452D01*
X13062952Y-11838928D01*
X13053428Y-11819881D01*
X13053428Y-11762738D01*
X13062952Y-11743690D01*
X13072476Y-11734167D01*
X13091524Y-11724643D01*
X13129619Y-11724643D01*
X13148667Y-11734167D01*
X13224857Y-11934167D02*
X13234381Y-11924643D01*
X13253428Y-11896071D01*
X13262952Y-11877024D01*
X13272476Y-11848452D01*
X13282000Y-11800833D01*
X13282000Y-11762738D01*
X13272476Y-11715119D01*
X13262952Y-11686548D01*
X13253428Y-11667500D01*
X13234381Y-11638928D01*
X13224857Y-11629405D01*
M02*
