G04 #@! TF.GenerationSoftware,KiCad,Pcbnew,7.0.5*
G04 #@! TF.CreationDate,2023-08-28T02:39:03+08:00*
G04 #@! TF.ProjectId,handwire microboard,68616e64-7769-4726-9520-6d6963726f62,rev?*
G04 #@! TF.SameCoordinates,Original*
G04 #@! TF.FileFunction,Legend,Top*
G04 #@! TF.FilePolarity,Positive*
%FSLAX46Y46*%
G04 Gerber Fmt 4.6, Leading zero omitted, Abs format (unit mm)*
G04 Created by KiCad (PCBNEW 7.0.5) date 2023-08-28 02:39:03*
%MOMM*%
%LPD*%
G01*
G04 APERTURE LIST*
G04 Aperture macros list*
%AMRoundRect*
0 Rectangle with rounded corners*
0 $1 Rounding radius*
0 $2 $3 $4 $5 $6 $7 $8 $9 X,Y pos of 4 corners*
0 Add a 4 corners polygon primitive as box body*
4,1,4,$2,$3,$4,$5,$6,$7,$8,$9,$2,$3,0*
0 Add four circle primitives for the rounded corners*
1,1,$1+$1,$2,$3*
1,1,$1+$1,$4,$5*
1,1,$1+$1,$6,$7*
1,1,$1+$1,$8,$9*
0 Add four rect primitives between the rounded corners*
20,1,$1+$1,$2,$3,$4,$5,0*
20,1,$1+$1,$4,$5,$6,$7,0*
20,1,$1+$1,$6,$7,$8,$9,0*
20,1,$1+$1,$8,$9,$2,$3,0*%
G04 Aperture macros list end*
%ADD10C,0.150000*%
%ADD11C,0.200000*%
%ADD12C,0.010000*%
%ADD13C,1.752600*%
%ADD14RoundRect,0.438150X-0.438150X0.438150X-0.438150X-0.438150X0.438150X-0.438150X0.438150X0.438150X0*%
%ADD15R,1.752600X1.752600*%
%ADD16C,3.500000*%
%ADD17C,0.800000*%
%ADD18O,1.900000X1.500000*%
%ADD19O,1.800000X1.500000*%
%ADD20C,2.000000*%
%ADD21O,1.500000X1.900000*%
%ADD22O,1.500000X1.800000*%
%ADD23O,1.700000X1.700000*%
%ADD24C,1.700000*%
G04 APERTURE END LIST*
D10*
X26055390Y-61879523D02*
X26017295Y-61955713D01*
X26017295Y-61955713D02*
X26017295Y-62069999D01*
X26017295Y-62069999D02*
X26055390Y-62184285D01*
X26055390Y-62184285D02*
X26131580Y-62260475D01*
X26131580Y-62260475D02*
X26207771Y-62298570D01*
X26207771Y-62298570D02*
X26360152Y-62336666D01*
X26360152Y-62336666D02*
X26474438Y-62336666D01*
X26474438Y-62336666D02*
X26626819Y-62298570D01*
X26626819Y-62298570D02*
X26703009Y-62260475D01*
X26703009Y-62260475D02*
X26779200Y-62184285D01*
X26779200Y-62184285D02*
X26817295Y-62069999D01*
X26817295Y-62069999D02*
X26817295Y-61993808D01*
X26817295Y-61993808D02*
X26779200Y-61879523D01*
X26779200Y-61879523D02*
X26741104Y-61841427D01*
X26741104Y-61841427D02*
X26474438Y-61841427D01*
X26474438Y-61841427D02*
X26474438Y-61993808D01*
X26817295Y-61498570D02*
X26017295Y-61498570D01*
X26017295Y-61498570D02*
X26817295Y-61041427D01*
X26817295Y-61041427D02*
X26017295Y-61041427D01*
X26817295Y-60660475D02*
X26017295Y-60660475D01*
X26017295Y-60660475D02*
X26017295Y-60469999D01*
X26017295Y-60469999D02*
X26055390Y-60355713D01*
X26055390Y-60355713D02*
X26131580Y-60279523D01*
X26131580Y-60279523D02*
X26207771Y-60241428D01*
X26207771Y-60241428D02*
X26360152Y-60203332D01*
X26360152Y-60203332D02*
X26474438Y-60203332D01*
X26474438Y-60203332D02*
X26626819Y-60241428D01*
X26626819Y-60241428D02*
X26703009Y-60279523D01*
X26703009Y-60279523D02*
X26779200Y-60355713D01*
X26779200Y-60355713D02*
X26817295Y-60469999D01*
X26817295Y-60469999D02*
X26817295Y-60660475D01*
X24967295Y-61860475D02*
X24167295Y-61860475D01*
X24167295Y-61860475D02*
X24167295Y-61669999D01*
X24167295Y-61669999D02*
X24205390Y-61555713D01*
X24205390Y-61555713D02*
X24281580Y-61479523D01*
X24281580Y-61479523D02*
X24357771Y-61441428D01*
X24357771Y-61441428D02*
X24510152Y-61403332D01*
X24510152Y-61403332D02*
X24624438Y-61403332D01*
X24624438Y-61403332D02*
X24776819Y-61441428D01*
X24776819Y-61441428D02*
X24853009Y-61479523D01*
X24853009Y-61479523D02*
X24929200Y-61555713D01*
X24929200Y-61555713D02*
X24967295Y-61669999D01*
X24967295Y-61669999D02*
X24967295Y-61860475D01*
X24243485Y-61098571D02*
X24205390Y-61060475D01*
X24205390Y-61060475D02*
X24167295Y-60984285D01*
X24167295Y-60984285D02*
X24167295Y-60793809D01*
X24167295Y-60793809D02*
X24205390Y-60717618D01*
X24205390Y-60717618D02*
X24243485Y-60679523D01*
X24243485Y-60679523D02*
X24319676Y-60641428D01*
X24319676Y-60641428D02*
X24395866Y-60641428D01*
X24395866Y-60641428D02*
X24510152Y-60679523D01*
X24510152Y-60679523D02*
X24967295Y-61136666D01*
X24967295Y-61136666D02*
X24967295Y-60641428D01*
X30017295Y-62336666D02*
X30817295Y-62069999D01*
X30817295Y-62069999D02*
X30017295Y-61803333D01*
X30741104Y-61079523D02*
X30779200Y-61117619D01*
X30779200Y-61117619D02*
X30817295Y-61231904D01*
X30817295Y-61231904D02*
X30817295Y-61308095D01*
X30817295Y-61308095D02*
X30779200Y-61422381D01*
X30779200Y-61422381D02*
X30703009Y-61498571D01*
X30703009Y-61498571D02*
X30626819Y-61536666D01*
X30626819Y-61536666D02*
X30474438Y-61574762D01*
X30474438Y-61574762D02*
X30360152Y-61574762D01*
X30360152Y-61574762D02*
X30207771Y-61536666D01*
X30207771Y-61536666D02*
X30131580Y-61498571D01*
X30131580Y-61498571D02*
X30055390Y-61422381D01*
X30055390Y-61422381D02*
X30017295Y-61308095D01*
X30017295Y-61308095D02*
X30017295Y-61231904D01*
X30017295Y-61231904D02*
X30055390Y-61117619D01*
X30055390Y-61117619D02*
X30093485Y-61079523D01*
X30741104Y-60279523D02*
X30779200Y-60317619D01*
X30779200Y-60317619D02*
X30817295Y-60431904D01*
X30817295Y-60431904D02*
X30817295Y-60508095D01*
X30817295Y-60508095D02*
X30779200Y-60622381D01*
X30779200Y-60622381D02*
X30703009Y-60698571D01*
X30703009Y-60698571D02*
X30626819Y-60736666D01*
X30626819Y-60736666D02*
X30474438Y-60774762D01*
X30474438Y-60774762D02*
X30360152Y-60774762D01*
X30360152Y-60774762D02*
X30207771Y-60736666D01*
X30207771Y-60736666D02*
X30131580Y-60698571D01*
X30131580Y-60698571D02*
X30055390Y-60622381D01*
X30055390Y-60622381D02*
X30017295Y-60508095D01*
X30017295Y-60508095D02*
X30017295Y-60431904D01*
X30017295Y-60431904D02*
X30055390Y-60317619D01*
X30055390Y-60317619D02*
X30093485Y-60279523D01*
X34337380Y-56294819D02*
X34004047Y-55818628D01*
X33765952Y-56294819D02*
X33765952Y-55294819D01*
X33765952Y-55294819D02*
X34146904Y-55294819D01*
X34146904Y-55294819D02*
X34242142Y-55342438D01*
X34242142Y-55342438D02*
X34289761Y-55390057D01*
X34289761Y-55390057D02*
X34337380Y-55485295D01*
X34337380Y-55485295D02*
X34337380Y-55628152D01*
X34337380Y-55628152D02*
X34289761Y-55723390D01*
X34289761Y-55723390D02*
X34242142Y-55771009D01*
X34242142Y-55771009D02*
X34146904Y-55818628D01*
X34146904Y-55818628D02*
X33765952Y-55818628D01*
X34718333Y-56247200D02*
X34861190Y-56294819D01*
X34861190Y-56294819D02*
X35099285Y-56294819D01*
X35099285Y-56294819D02*
X35194523Y-56247200D01*
X35194523Y-56247200D02*
X35242142Y-56199580D01*
X35242142Y-56199580D02*
X35289761Y-56104342D01*
X35289761Y-56104342D02*
X35289761Y-56009104D01*
X35289761Y-56009104D02*
X35242142Y-55913866D01*
X35242142Y-55913866D02*
X35194523Y-55866247D01*
X35194523Y-55866247D02*
X35099285Y-55818628D01*
X35099285Y-55818628D02*
X34908809Y-55771009D01*
X34908809Y-55771009D02*
X34813571Y-55723390D01*
X34813571Y-55723390D02*
X34765952Y-55675771D01*
X34765952Y-55675771D02*
X34718333Y-55580533D01*
X34718333Y-55580533D02*
X34718333Y-55485295D01*
X34718333Y-55485295D02*
X34765952Y-55390057D01*
X34765952Y-55390057D02*
X34813571Y-55342438D01*
X34813571Y-55342438D02*
X34908809Y-55294819D01*
X34908809Y-55294819D02*
X35146904Y-55294819D01*
X35146904Y-55294819D02*
X35289761Y-55342438D01*
X35575476Y-55294819D02*
X36146904Y-55294819D01*
X35861190Y-56294819D02*
X35861190Y-55294819D01*
X39736476Y-26670390D02*
X39660286Y-26632295D01*
X39660286Y-26632295D02*
X39546000Y-26632295D01*
X39546000Y-26632295D02*
X39431714Y-26670390D01*
X39431714Y-26670390D02*
X39355524Y-26746580D01*
X39355524Y-26746580D02*
X39317429Y-26822771D01*
X39317429Y-26822771D02*
X39279333Y-26975152D01*
X39279333Y-26975152D02*
X39279333Y-27089438D01*
X39279333Y-27089438D02*
X39317429Y-27241819D01*
X39317429Y-27241819D02*
X39355524Y-27318009D01*
X39355524Y-27318009D02*
X39431714Y-27394200D01*
X39431714Y-27394200D02*
X39546000Y-27432295D01*
X39546000Y-27432295D02*
X39622191Y-27432295D01*
X39622191Y-27432295D02*
X39736476Y-27394200D01*
X39736476Y-27394200D02*
X39774572Y-27356104D01*
X39774572Y-27356104D02*
X39774572Y-27089438D01*
X39774572Y-27089438D02*
X39622191Y-27089438D01*
X40117429Y-27432295D02*
X40117429Y-26632295D01*
X40117429Y-26632295D02*
X40574572Y-27432295D01*
X40574572Y-27432295D02*
X40574572Y-26632295D01*
X40955524Y-27432295D02*
X40955524Y-26632295D01*
X40955524Y-26632295D02*
X41146000Y-26632295D01*
X41146000Y-26632295D02*
X41260286Y-26670390D01*
X41260286Y-26670390D02*
X41336476Y-26746580D01*
X41336476Y-26746580D02*
X41374571Y-26822771D01*
X41374571Y-26822771D02*
X41412667Y-26975152D01*
X41412667Y-26975152D02*
X41412667Y-27089438D01*
X41412667Y-27089438D02*
X41374571Y-27241819D01*
X41374571Y-27241819D02*
X41336476Y-27318009D01*
X41336476Y-27318009D02*
X41260286Y-27394200D01*
X41260286Y-27394200D02*
X41146000Y-27432295D01*
X41146000Y-27432295D02*
X40955524Y-27432295D01*
X39786905Y-29942295D02*
X39520238Y-29561342D01*
X39329762Y-29942295D02*
X39329762Y-29142295D01*
X39329762Y-29142295D02*
X39634524Y-29142295D01*
X39634524Y-29142295D02*
X39710714Y-29180390D01*
X39710714Y-29180390D02*
X39748809Y-29218485D01*
X39748809Y-29218485D02*
X39786905Y-29294676D01*
X39786905Y-29294676D02*
X39786905Y-29408961D01*
X39786905Y-29408961D02*
X39748809Y-29485152D01*
X39748809Y-29485152D02*
X39710714Y-29523247D01*
X39710714Y-29523247D02*
X39634524Y-29561342D01*
X39634524Y-29561342D02*
X39329762Y-29561342D01*
X40091666Y-29904200D02*
X40205952Y-29942295D01*
X40205952Y-29942295D02*
X40396428Y-29942295D01*
X40396428Y-29942295D02*
X40472619Y-29904200D01*
X40472619Y-29904200D02*
X40510714Y-29866104D01*
X40510714Y-29866104D02*
X40548809Y-29789914D01*
X40548809Y-29789914D02*
X40548809Y-29713723D01*
X40548809Y-29713723D02*
X40510714Y-29637533D01*
X40510714Y-29637533D02*
X40472619Y-29599438D01*
X40472619Y-29599438D02*
X40396428Y-29561342D01*
X40396428Y-29561342D02*
X40244047Y-29523247D01*
X40244047Y-29523247D02*
X40167857Y-29485152D01*
X40167857Y-29485152D02*
X40129762Y-29447057D01*
X40129762Y-29447057D02*
X40091666Y-29370866D01*
X40091666Y-29370866D02*
X40091666Y-29294676D01*
X40091666Y-29294676D02*
X40129762Y-29218485D01*
X40129762Y-29218485D02*
X40167857Y-29180390D01*
X40167857Y-29180390D02*
X40244047Y-29142295D01*
X40244047Y-29142295D02*
X40434524Y-29142295D01*
X40434524Y-29142295D02*
X40548809Y-29180390D01*
X40777381Y-29142295D02*
X41234524Y-29142295D01*
X41005952Y-29942295D02*
X41005952Y-29142295D01*
X39279333Y-31712295D02*
X39546000Y-32512295D01*
X39546000Y-32512295D02*
X39812666Y-31712295D01*
X40536476Y-32436104D02*
X40498380Y-32474200D01*
X40498380Y-32474200D02*
X40384095Y-32512295D01*
X40384095Y-32512295D02*
X40307904Y-32512295D01*
X40307904Y-32512295D02*
X40193618Y-32474200D01*
X40193618Y-32474200D02*
X40117428Y-32398009D01*
X40117428Y-32398009D02*
X40079333Y-32321819D01*
X40079333Y-32321819D02*
X40041237Y-32169438D01*
X40041237Y-32169438D02*
X40041237Y-32055152D01*
X40041237Y-32055152D02*
X40079333Y-31902771D01*
X40079333Y-31902771D02*
X40117428Y-31826580D01*
X40117428Y-31826580D02*
X40193618Y-31750390D01*
X40193618Y-31750390D02*
X40307904Y-31712295D01*
X40307904Y-31712295D02*
X40384095Y-31712295D01*
X40384095Y-31712295D02*
X40498380Y-31750390D01*
X40498380Y-31750390D02*
X40536476Y-31788485D01*
X41336476Y-32436104D02*
X41298380Y-32474200D01*
X41298380Y-32474200D02*
X41184095Y-32512295D01*
X41184095Y-32512295D02*
X41107904Y-32512295D01*
X41107904Y-32512295D02*
X40993618Y-32474200D01*
X40993618Y-32474200D02*
X40917428Y-32398009D01*
X40917428Y-32398009D02*
X40879333Y-32321819D01*
X40879333Y-32321819D02*
X40841237Y-32169438D01*
X40841237Y-32169438D02*
X40841237Y-32055152D01*
X40841237Y-32055152D02*
X40879333Y-31902771D01*
X40879333Y-31902771D02*
X40917428Y-31826580D01*
X40917428Y-31826580D02*
X40993618Y-31750390D01*
X40993618Y-31750390D02*
X41107904Y-31712295D01*
X41107904Y-31712295D02*
X41184095Y-31712295D01*
X41184095Y-31712295D02*
X41298380Y-31750390D01*
X41298380Y-31750390D02*
X41336476Y-31788485D01*
X28814476Y-31750390D02*
X28738286Y-31712295D01*
X28738286Y-31712295D02*
X28624000Y-31712295D01*
X28624000Y-31712295D02*
X28509714Y-31750390D01*
X28509714Y-31750390D02*
X28433524Y-31826580D01*
X28433524Y-31826580D02*
X28395429Y-31902771D01*
X28395429Y-31902771D02*
X28357333Y-32055152D01*
X28357333Y-32055152D02*
X28357333Y-32169438D01*
X28357333Y-32169438D02*
X28395429Y-32321819D01*
X28395429Y-32321819D02*
X28433524Y-32398009D01*
X28433524Y-32398009D02*
X28509714Y-32474200D01*
X28509714Y-32474200D02*
X28624000Y-32512295D01*
X28624000Y-32512295D02*
X28700191Y-32512295D01*
X28700191Y-32512295D02*
X28814476Y-32474200D01*
X28814476Y-32474200D02*
X28852572Y-32436104D01*
X28852572Y-32436104D02*
X28852572Y-32169438D01*
X28852572Y-32169438D02*
X28700191Y-32169438D01*
X29195429Y-32512295D02*
X29195429Y-31712295D01*
X29195429Y-31712295D02*
X29652572Y-32512295D01*
X29652572Y-32512295D02*
X29652572Y-31712295D01*
X30033524Y-32512295D02*
X30033524Y-31712295D01*
X30033524Y-31712295D02*
X30224000Y-31712295D01*
X30224000Y-31712295D02*
X30338286Y-31750390D01*
X30338286Y-31750390D02*
X30414476Y-31826580D01*
X30414476Y-31826580D02*
X30452571Y-31902771D01*
X30452571Y-31902771D02*
X30490667Y-32055152D01*
X30490667Y-32055152D02*
X30490667Y-32169438D01*
X30490667Y-32169438D02*
X30452571Y-32321819D01*
X30452571Y-32321819D02*
X30414476Y-32398009D01*
X30414476Y-32398009D02*
X30338286Y-32474200D01*
X30338286Y-32474200D02*
X30224000Y-32512295D01*
X30224000Y-32512295D02*
X30033524Y-32512295D01*
X28814476Y-29210390D02*
X28738286Y-29172295D01*
X28738286Y-29172295D02*
X28624000Y-29172295D01*
X28624000Y-29172295D02*
X28509714Y-29210390D01*
X28509714Y-29210390D02*
X28433524Y-29286580D01*
X28433524Y-29286580D02*
X28395429Y-29362771D01*
X28395429Y-29362771D02*
X28357333Y-29515152D01*
X28357333Y-29515152D02*
X28357333Y-29629438D01*
X28357333Y-29629438D02*
X28395429Y-29781819D01*
X28395429Y-29781819D02*
X28433524Y-29858009D01*
X28433524Y-29858009D02*
X28509714Y-29934200D01*
X28509714Y-29934200D02*
X28624000Y-29972295D01*
X28624000Y-29972295D02*
X28700191Y-29972295D01*
X28700191Y-29972295D02*
X28814476Y-29934200D01*
X28814476Y-29934200D02*
X28852572Y-29896104D01*
X28852572Y-29896104D02*
X28852572Y-29629438D01*
X28852572Y-29629438D02*
X28700191Y-29629438D01*
X29195429Y-29972295D02*
X29195429Y-29172295D01*
X29195429Y-29172295D02*
X29652572Y-29972295D01*
X29652572Y-29972295D02*
X29652572Y-29172295D01*
X30033524Y-29972295D02*
X30033524Y-29172295D01*
X30033524Y-29172295D02*
X30224000Y-29172295D01*
X30224000Y-29172295D02*
X30338286Y-29210390D01*
X30338286Y-29210390D02*
X30414476Y-29286580D01*
X30414476Y-29286580D02*
X30452571Y-29362771D01*
X30452571Y-29362771D02*
X30490667Y-29515152D01*
X30490667Y-29515152D02*
X30490667Y-29629438D01*
X30490667Y-29629438D02*
X30452571Y-29781819D01*
X30452571Y-29781819D02*
X30414476Y-29858009D01*
X30414476Y-29858009D02*
X30338286Y-29934200D01*
X30338286Y-29934200D02*
X30224000Y-29972295D01*
X30224000Y-29972295D02*
X30033524Y-29972295D01*
X44822704Y-60679524D02*
X45622704Y-60679524D01*
X45622704Y-60679524D02*
X45622704Y-60870000D01*
X45622704Y-60870000D02*
X45584609Y-60984286D01*
X45584609Y-60984286D02*
X45508419Y-61060476D01*
X45508419Y-61060476D02*
X45432228Y-61098571D01*
X45432228Y-61098571D02*
X45279847Y-61136667D01*
X45279847Y-61136667D02*
X45165561Y-61136667D01*
X45165561Y-61136667D02*
X45013180Y-61098571D01*
X45013180Y-61098571D02*
X44936990Y-61060476D01*
X44936990Y-61060476D02*
X44860800Y-60984286D01*
X44860800Y-60984286D02*
X44822704Y-60870000D01*
X44822704Y-60870000D02*
X44822704Y-60679524D01*
X45546514Y-61441428D02*
X45584609Y-61479524D01*
X45584609Y-61479524D02*
X45622704Y-61555714D01*
X45622704Y-61555714D02*
X45622704Y-61746190D01*
X45622704Y-61746190D02*
X45584609Y-61822381D01*
X45584609Y-61822381D02*
X45546514Y-61860476D01*
X45546514Y-61860476D02*
X45470323Y-61898571D01*
X45470323Y-61898571D02*
X45394133Y-61898571D01*
X45394133Y-61898571D02*
X45279847Y-61860476D01*
X45279847Y-61860476D02*
X44822704Y-61403333D01*
X44822704Y-61403333D02*
X44822704Y-61898571D01*
X43734609Y-60660476D02*
X43772704Y-60584286D01*
X43772704Y-60584286D02*
X43772704Y-60470000D01*
X43772704Y-60470000D02*
X43734609Y-60355714D01*
X43734609Y-60355714D02*
X43658419Y-60279524D01*
X43658419Y-60279524D02*
X43582228Y-60241429D01*
X43582228Y-60241429D02*
X43429847Y-60203333D01*
X43429847Y-60203333D02*
X43315561Y-60203333D01*
X43315561Y-60203333D02*
X43163180Y-60241429D01*
X43163180Y-60241429D02*
X43086990Y-60279524D01*
X43086990Y-60279524D02*
X43010800Y-60355714D01*
X43010800Y-60355714D02*
X42972704Y-60470000D01*
X42972704Y-60470000D02*
X42972704Y-60546191D01*
X42972704Y-60546191D02*
X43010800Y-60660476D01*
X43010800Y-60660476D02*
X43048895Y-60698572D01*
X43048895Y-60698572D02*
X43315561Y-60698572D01*
X43315561Y-60698572D02*
X43315561Y-60546191D01*
X42972704Y-61041429D02*
X43772704Y-61041429D01*
X43772704Y-61041429D02*
X42972704Y-61498572D01*
X42972704Y-61498572D02*
X43772704Y-61498572D01*
X42972704Y-61879524D02*
X43772704Y-61879524D01*
X43772704Y-61879524D02*
X43772704Y-62070000D01*
X43772704Y-62070000D02*
X43734609Y-62184286D01*
X43734609Y-62184286D02*
X43658419Y-62260476D01*
X43658419Y-62260476D02*
X43582228Y-62298571D01*
X43582228Y-62298571D02*
X43429847Y-62336667D01*
X43429847Y-62336667D02*
X43315561Y-62336667D01*
X43315561Y-62336667D02*
X43163180Y-62298571D01*
X43163180Y-62298571D02*
X43086990Y-62260476D01*
X43086990Y-62260476D02*
X43010800Y-62184286D01*
X43010800Y-62184286D02*
X42972704Y-62070000D01*
X42972704Y-62070000D02*
X42972704Y-61879524D01*
X39772704Y-60203333D02*
X38972704Y-60470000D01*
X38972704Y-60470000D02*
X39772704Y-60736666D01*
X39048895Y-61460476D02*
X39010800Y-61422380D01*
X39010800Y-61422380D02*
X38972704Y-61308095D01*
X38972704Y-61308095D02*
X38972704Y-61231904D01*
X38972704Y-61231904D02*
X39010800Y-61117618D01*
X39010800Y-61117618D02*
X39086990Y-61041428D01*
X39086990Y-61041428D02*
X39163180Y-61003333D01*
X39163180Y-61003333D02*
X39315561Y-60965237D01*
X39315561Y-60965237D02*
X39429847Y-60965237D01*
X39429847Y-60965237D02*
X39582228Y-61003333D01*
X39582228Y-61003333D02*
X39658419Y-61041428D01*
X39658419Y-61041428D02*
X39734609Y-61117618D01*
X39734609Y-61117618D02*
X39772704Y-61231904D01*
X39772704Y-61231904D02*
X39772704Y-61308095D01*
X39772704Y-61308095D02*
X39734609Y-61422380D01*
X39734609Y-61422380D02*
X39696514Y-61460476D01*
X39048895Y-62260476D02*
X39010800Y-62222380D01*
X39010800Y-62222380D02*
X38972704Y-62108095D01*
X38972704Y-62108095D02*
X38972704Y-62031904D01*
X38972704Y-62031904D02*
X39010800Y-61917618D01*
X39010800Y-61917618D02*
X39086990Y-61841428D01*
X39086990Y-61841428D02*
X39163180Y-61803333D01*
X39163180Y-61803333D02*
X39315561Y-61765237D01*
X39315561Y-61765237D02*
X39429847Y-61765237D01*
X39429847Y-61765237D02*
X39582228Y-61803333D01*
X39582228Y-61803333D02*
X39658419Y-61841428D01*
X39658419Y-61841428D02*
X39734609Y-61917618D01*
X39734609Y-61917618D02*
X39772704Y-62031904D01*
X39772704Y-62031904D02*
X39772704Y-62108095D01*
X39772704Y-62108095D02*
X39734609Y-62222380D01*
X39734609Y-62222380D02*
X39696514Y-62260476D01*
X21264524Y-25075795D02*
X21264524Y-24275795D01*
X21264524Y-24275795D02*
X21455000Y-24275795D01*
X21455000Y-24275795D02*
X21569286Y-24313890D01*
X21569286Y-24313890D02*
X21645476Y-24390080D01*
X21645476Y-24390080D02*
X21683571Y-24466271D01*
X21683571Y-24466271D02*
X21721667Y-24618652D01*
X21721667Y-24618652D02*
X21721667Y-24732938D01*
X21721667Y-24732938D02*
X21683571Y-24885319D01*
X21683571Y-24885319D02*
X21645476Y-24961509D01*
X21645476Y-24961509D02*
X21569286Y-25037700D01*
X21569286Y-25037700D02*
X21455000Y-25075795D01*
X21455000Y-25075795D02*
X21264524Y-25075795D01*
X22026428Y-24351985D02*
X22064524Y-24313890D01*
X22064524Y-24313890D02*
X22140714Y-24275795D01*
X22140714Y-24275795D02*
X22331190Y-24275795D01*
X22331190Y-24275795D02*
X22407381Y-24313890D01*
X22407381Y-24313890D02*
X22445476Y-24351985D01*
X22445476Y-24351985D02*
X22483571Y-24428176D01*
X22483571Y-24428176D02*
X22483571Y-24504366D01*
X22483571Y-24504366D02*
X22445476Y-24618652D01*
X22445476Y-24618652D02*
X21988333Y-25075795D01*
X21988333Y-25075795D02*
X22483571Y-25075795D01*
X20788333Y-30125795D02*
X21055000Y-30925795D01*
X21055000Y-30925795D02*
X21321666Y-30125795D01*
X22045476Y-30849604D02*
X22007380Y-30887700D01*
X22007380Y-30887700D02*
X21893095Y-30925795D01*
X21893095Y-30925795D02*
X21816904Y-30925795D01*
X21816904Y-30925795D02*
X21702618Y-30887700D01*
X21702618Y-30887700D02*
X21626428Y-30811509D01*
X21626428Y-30811509D02*
X21588333Y-30735319D01*
X21588333Y-30735319D02*
X21550237Y-30582938D01*
X21550237Y-30582938D02*
X21550237Y-30468652D01*
X21550237Y-30468652D02*
X21588333Y-30316271D01*
X21588333Y-30316271D02*
X21626428Y-30240080D01*
X21626428Y-30240080D02*
X21702618Y-30163890D01*
X21702618Y-30163890D02*
X21816904Y-30125795D01*
X21816904Y-30125795D02*
X21893095Y-30125795D01*
X21893095Y-30125795D02*
X22007380Y-30163890D01*
X22007380Y-30163890D02*
X22045476Y-30201985D01*
X22845476Y-30849604D02*
X22807380Y-30887700D01*
X22807380Y-30887700D02*
X22693095Y-30925795D01*
X22693095Y-30925795D02*
X22616904Y-30925795D01*
X22616904Y-30925795D02*
X22502618Y-30887700D01*
X22502618Y-30887700D02*
X22426428Y-30811509D01*
X22426428Y-30811509D02*
X22388333Y-30735319D01*
X22388333Y-30735319D02*
X22350237Y-30582938D01*
X22350237Y-30582938D02*
X22350237Y-30468652D01*
X22350237Y-30468652D02*
X22388333Y-30316271D01*
X22388333Y-30316271D02*
X22426428Y-30240080D01*
X22426428Y-30240080D02*
X22502618Y-30163890D01*
X22502618Y-30163890D02*
X22616904Y-30125795D01*
X22616904Y-30125795D02*
X22693095Y-30125795D01*
X22693095Y-30125795D02*
X22807380Y-30163890D01*
X22807380Y-30163890D02*
X22845476Y-30201985D01*
X21245476Y-26163890D02*
X21169286Y-26125795D01*
X21169286Y-26125795D02*
X21055000Y-26125795D01*
X21055000Y-26125795D02*
X20940714Y-26163890D01*
X20940714Y-26163890D02*
X20864524Y-26240080D01*
X20864524Y-26240080D02*
X20826429Y-26316271D01*
X20826429Y-26316271D02*
X20788333Y-26468652D01*
X20788333Y-26468652D02*
X20788333Y-26582938D01*
X20788333Y-26582938D02*
X20826429Y-26735319D01*
X20826429Y-26735319D02*
X20864524Y-26811509D01*
X20864524Y-26811509D02*
X20940714Y-26887700D01*
X20940714Y-26887700D02*
X21055000Y-26925795D01*
X21055000Y-26925795D02*
X21131191Y-26925795D01*
X21131191Y-26925795D02*
X21245476Y-26887700D01*
X21245476Y-26887700D02*
X21283572Y-26849604D01*
X21283572Y-26849604D02*
X21283572Y-26582938D01*
X21283572Y-26582938D02*
X21131191Y-26582938D01*
X21626429Y-26925795D02*
X21626429Y-26125795D01*
X21626429Y-26125795D02*
X22083572Y-26925795D01*
X22083572Y-26925795D02*
X22083572Y-26125795D01*
X22464524Y-26925795D02*
X22464524Y-26125795D01*
X22464524Y-26125795D02*
X22655000Y-26125795D01*
X22655000Y-26125795D02*
X22769286Y-26163890D01*
X22769286Y-26163890D02*
X22845476Y-26240080D01*
X22845476Y-26240080D02*
X22883571Y-26316271D01*
X22883571Y-26316271D02*
X22921667Y-26468652D01*
X22921667Y-26468652D02*
X22921667Y-26582938D01*
X22921667Y-26582938D02*
X22883571Y-26735319D01*
X22883571Y-26735319D02*
X22845476Y-26811509D01*
X22845476Y-26811509D02*
X22769286Y-26887700D01*
X22769286Y-26887700D02*
X22655000Y-26925795D01*
X22655000Y-26925795D02*
X22464524Y-26925795D01*
X48425902Y-56538837D02*
X48533651Y-56484962D01*
X48533651Y-56484962D02*
X48587526Y-56484962D01*
X48587526Y-56484962D02*
X48668338Y-56511900D01*
X48668338Y-56511900D02*
X48749151Y-56592712D01*
X48749151Y-56592712D02*
X48776088Y-56673524D01*
X48776088Y-56673524D02*
X48776088Y-56727399D01*
X48776088Y-56727399D02*
X48749151Y-56808211D01*
X48749151Y-56808211D02*
X48533651Y-57023710D01*
X48533651Y-57023710D02*
X47967966Y-56458025D01*
X47967966Y-56458025D02*
X48156528Y-56269463D01*
X48156528Y-56269463D02*
X48237340Y-56242526D01*
X48237340Y-56242526D02*
X48291215Y-56242526D01*
X48291215Y-56242526D02*
X48372027Y-56269463D01*
X48372027Y-56269463D02*
X48425902Y-56323338D01*
X48425902Y-56323338D02*
X48452839Y-56404150D01*
X48452839Y-56404150D02*
X48452839Y-56458025D01*
X48452839Y-56458025D02*
X48425902Y-56538837D01*
X48425902Y-56538837D02*
X48237340Y-56727399D01*
X48803025Y-55622966D02*
X48533651Y-55892340D01*
X48533651Y-55892340D02*
X48776088Y-56188651D01*
X48776088Y-56188651D02*
X48776088Y-56134776D01*
X48776088Y-56134776D02*
X48803025Y-56053964D01*
X48803025Y-56053964D02*
X48937712Y-55919277D01*
X48937712Y-55919277D02*
X49018525Y-55892340D01*
X49018525Y-55892340D02*
X49072399Y-55892340D01*
X49072399Y-55892340D02*
X49153212Y-55919277D01*
X49153212Y-55919277D02*
X49287899Y-56053964D01*
X49287899Y-56053964D02*
X49314836Y-56134776D01*
X49314836Y-56134776D02*
X49314836Y-56188651D01*
X49314836Y-56188651D02*
X49287899Y-56269463D01*
X49287899Y-56269463D02*
X49153212Y-56404150D01*
X49153212Y-56404150D02*
X49072399Y-56431088D01*
X49072399Y-56431088D02*
X49018525Y-56431088D01*
X45973651Y-36633710D02*
X45407966Y-36068025D01*
X45407966Y-36068025D02*
X45542653Y-35933338D01*
X45542653Y-35933338D02*
X45650403Y-35879463D01*
X45650403Y-35879463D02*
X45758152Y-35879463D01*
X45758152Y-35879463D02*
X45838964Y-35906401D01*
X45838964Y-35906401D02*
X45973651Y-35987213D01*
X45973651Y-35987213D02*
X46054464Y-36068025D01*
X46054464Y-36068025D02*
X46135276Y-36202712D01*
X46135276Y-36202712D02*
X46162213Y-36283524D01*
X46162213Y-36283524D02*
X46162213Y-36391274D01*
X46162213Y-36391274D02*
X46108338Y-36499023D01*
X46108338Y-36499023D02*
X45973651Y-36633710D01*
X45919777Y-35556214D02*
X46269963Y-35206028D01*
X46269963Y-35206028D02*
X46296900Y-35610089D01*
X46296900Y-35610089D02*
X46377712Y-35529277D01*
X46377712Y-35529277D02*
X46458525Y-35502340D01*
X46458525Y-35502340D02*
X46512399Y-35502340D01*
X46512399Y-35502340D02*
X46593212Y-35529277D01*
X46593212Y-35529277D02*
X46727899Y-35663964D01*
X46727899Y-35663964D02*
X46754836Y-35744776D01*
X46754836Y-35744776D02*
X46754836Y-35798651D01*
X46754836Y-35798651D02*
X46727899Y-35879463D01*
X46727899Y-35879463D02*
X46566274Y-36041088D01*
X46566274Y-36041088D02*
X46485462Y-36068025D01*
X46485462Y-36068025D02*
X46431587Y-36068025D01*
X45906308Y-38648431D02*
X45717746Y-38836993D01*
X46014058Y-39133304D02*
X45448372Y-38567619D01*
X45448372Y-38567619D02*
X45717746Y-38298245D01*
X46364244Y-38028871D02*
X46741367Y-38405995D01*
X46014057Y-37948059D02*
X46283431Y-38486807D01*
X46283431Y-38486807D02*
X46633618Y-38136621D01*
X45865902Y-56538837D02*
X45973651Y-56484962D01*
X45973651Y-56484962D02*
X46027526Y-56484962D01*
X46027526Y-56484962D02*
X46108338Y-56511900D01*
X46108338Y-56511900D02*
X46189151Y-56592712D01*
X46189151Y-56592712D02*
X46216088Y-56673524D01*
X46216088Y-56673524D02*
X46216088Y-56727399D01*
X46216088Y-56727399D02*
X46189151Y-56808211D01*
X46189151Y-56808211D02*
X45973651Y-57023710D01*
X45973651Y-57023710D02*
X45407966Y-56458025D01*
X45407966Y-56458025D02*
X45596528Y-56269463D01*
X45596528Y-56269463D02*
X45677340Y-56242526D01*
X45677340Y-56242526D02*
X45731215Y-56242526D01*
X45731215Y-56242526D02*
X45812027Y-56269463D01*
X45812027Y-56269463D02*
X45865902Y-56323338D01*
X45865902Y-56323338D02*
X45892839Y-56404150D01*
X45892839Y-56404150D02*
X45892839Y-56458025D01*
X45892839Y-56458025D02*
X45865902Y-56538837D01*
X45865902Y-56538837D02*
X45677340Y-56727399D01*
X46216088Y-55649903D02*
X46108338Y-55757653D01*
X46108338Y-55757653D02*
X46081401Y-55838465D01*
X46081401Y-55838465D02*
X46081401Y-55892340D01*
X46081401Y-55892340D02*
X46108338Y-56027027D01*
X46108338Y-56027027D02*
X46189151Y-56161714D01*
X46189151Y-56161714D02*
X46404650Y-56377213D01*
X46404650Y-56377213D02*
X46485462Y-56404150D01*
X46485462Y-56404150D02*
X46539337Y-56404150D01*
X46539337Y-56404150D02*
X46620149Y-56377213D01*
X46620149Y-56377213D02*
X46727899Y-56269463D01*
X46727899Y-56269463D02*
X46754836Y-56188651D01*
X46754836Y-56188651D02*
X46754836Y-56134776D01*
X46754836Y-56134776D02*
X46727899Y-56053964D01*
X46727899Y-56053964D02*
X46593212Y-55919277D01*
X46593212Y-55919277D02*
X46512399Y-55892340D01*
X46512399Y-55892340D02*
X46458525Y-55892340D01*
X46458525Y-55892340D02*
X46377712Y-55919277D01*
X46377712Y-55919277D02*
X46269963Y-56027027D01*
X46269963Y-56027027D02*
X46243025Y-56107839D01*
X46243025Y-56107839D02*
X46243025Y-56161714D01*
X46243025Y-56161714D02*
X46269963Y-56242526D01*
X45865902Y-53928837D02*
X45973651Y-53874962D01*
X45973651Y-53874962D02*
X46027526Y-53874962D01*
X46027526Y-53874962D02*
X46108338Y-53901900D01*
X46108338Y-53901900D02*
X46189151Y-53982712D01*
X46189151Y-53982712D02*
X46216088Y-54063524D01*
X46216088Y-54063524D02*
X46216088Y-54117399D01*
X46216088Y-54117399D02*
X46189151Y-54198211D01*
X46189151Y-54198211D02*
X45973651Y-54413710D01*
X45973651Y-54413710D02*
X45407966Y-53848025D01*
X45407966Y-53848025D02*
X45596528Y-53659463D01*
X45596528Y-53659463D02*
X45677340Y-53632526D01*
X45677340Y-53632526D02*
X45731215Y-53632526D01*
X45731215Y-53632526D02*
X45812027Y-53659463D01*
X45812027Y-53659463D02*
X45865902Y-53713338D01*
X45865902Y-53713338D02*
X45892839Y-53794150D01*
X45892839Y-53794150D02*
X45892839Y-53848025D01*
X45892839Y-53848025D02*
X45865902Y-53928837D01*
X45865902Y-53928837D02*
X45677340Y-54117399D01*
X46000589Y-53363152D02*
X46000589Y-53309277D01*
X46000589Y-53309277D02*
X46027526Y-53228465D01*
X46027526Y-53228465D02*
X46162213Y-53093778D01*
X46162213Y-53093778D02*
X46243025Y-53066840D01*
X46243025Y-53066840D02*
X46296900Y-53066840D01*
X46296900Y-53066840D02*
X46377712Y-53093778D01*
X46377712Y-53093778D02*
X46431587Y-53147653D01*
X46431587Y-53147653D02*
X46485462Y-53255402D01*
X46485462Y-53255402D02*
X46485462Y-53901900D01*
X46485462Y-53901900D02*
X46835648Y-53551714D01*
X48533651Y-39173710D02*
X47967966Y-38608025D01*
X47967966Y-38608025D02*
X48102653Y-38473338D01*
X48102653Y-38473338D02*
X48210403Y-38419463D01*
X48210403Y-38419463D02*
X48318152Y-38419463D01*
X48318152Y-38419463D02*
X48398964Y-38446401D01*
X48398964Y-38446401D02*
X48533651Y-38527213D01*
X48533651Y-38527213D02*
X48614464Y-38608025D01*
X48614464Y-38608025D02*
X48695276Y-38742712D01*
X48695276Y-38742712D02*
X48722213Y-38823524D01*
X48722213Y-38823524D02*
X48722213Y-38931274D01*
X48722213Y-38931274D02*
X48668338Y-39039023D01*
X48668338Y-39039023D02*
X48533651Y-39173710D01*
X49395648Y-38311714D02*
X49072399Y-38634962D01*
X49234024Y-38473338D02*
X48668338Y-37907653D01*
X48668338Y-37907653D02*
X48695276Y-38042340D01*
X48695276Y-38042340D02*
X48695276Y-38150089D01*
X48695276Y-38150089D02*
X48668338Y-38230901D01*
X45906308Y-41188431D02*
X45717746Y-41376993D01*
X46014058Y-41673304D02*
X45448372Y-41107619D01*
X45448372Y-41107619D02*
X45717746Y-40838245D01*
X46202619Y-40353372D02*
X45933245Y-40622746D01*
X45933245Y-40622746D02*
X46175682Y-40919057D01*
X46175682Y-40919057D02*
X46175682Y-40865182D01*
X46175682Y-40865182D02*
X46202619Y-40784370D01*
X46202619Y-40784370D02*
X46337306Y-40649683D01*
X46337306Y-40649683D02*
X46418118Y-40622746D01*
X46418118Y-40622746D02*
X46471993Y-40622746D01*
X46471993Y-40622746D02*
X46552805Y-40649683D01*
X46552805Y-40649683D02*
X46687493Y-40784370D01*
X46687493Y-40784370D02*
X46714430Y-40865182D01*
X46714430Y-40865182D02*
X46714430Y-40919057D01*
X46714430Y-40919057D02*
X46687493Y-40999869D01*
X46687493Y-40999869D02*
X46552805Y-41134556D01*
X46552805Y-41134556D02*
X46471993Y-41161494D01*
X46471993Y-41161494D02*
X46418118Y-41161494D01*
X45906308Y-46258431D02*
X45717746Y-46446993D01*
X46014058Y-46743304D02*
X45448372Y-46177619D01*
X45448372Y-46177619D02*
X45717746Y-45908245D01*
X45879370Y-45746621D02*
X46256494Y-45369497D01*
X46256494Y-45369497D02*
X46579743Y-46177619D01*
X45865902Y-48858837D02*
X45973651Y-48804962D01*
X45973651Y-48804962D02*
X46027526Y-48804962D01*
X46027526Y-48804962D02*
X46108338Y-48831900D01*
X46108338Y-48831900D02*
X46189151Y-48912712D01*
X46189151Y-48912712D02*
X46216088Y-48993524D01*
X46216088Y-48993524D02*
X46216088Y-49047399D01*
X46216088Y-49047399D02*
X46189151Y-49128211D01*
X46189151Y-49128211D02*
X45973651Y-49343710D01*
X45973651Y-49343710D02*
X45407966Y-48778025D01*
X45407966Y-48778025D02*
X45596528Y-48589463D01*
X45596528Y-48589463D02*
X45677340Y-48562526D01*
X45677340Y-48562526D02*
X45731215Y-48562526D01*
X45731215Y-48562526D02*
X45812027Y-48589463D01*
X45812027Y-48589463D02*
X45865902Y-48643338D01*
X45865902Y-48643338D02*
X45892839Y-48724150D01*
X45892839Y-48724150D02*
X45892839Y-48778025D01*
X45892839Y-48778025D02*
X45865902Y-48858837D01*
X45865902Y-48858837D02*
X45677340Y-49047399D01*
X46835648Y-48481714D02*
X46512399Y-48804962D01*
X46674024Y-48643338D02*
X46108338Y-48077653D01*
X46108338Y-48077653D02*
X46135276Y-48212340D01*
X46135276Y-48212340D02*
X46135276Y-48320089D01*
X46135276Y-48320089D02*
X46108338Y-48400901D01*
X48425902Y-53928837D02*
X48533651Y-53874962D01*
X48533651Y-53874962D02*
X48587526Y-53874962D01*
X48587526Y-53874962D02*
X48668338Y-53901900D01*
X48668338Y-53901900D02*
X48749151Y-53982712D01*
X48749151Y-53982712D02*
X48776088Y-54063524D01*
X48776088Y-54063524D02*
X48776088Y-54117399D01*
X48776088Y-54117399D02*
X48749151Y-54198211D01*
X48749151Y-54198211D02*
X48533651Y-54413710D01*
X48533651Y-54413710D02*
X47967966Y-53848025D01*
X47967966Y-53848025D02*
X48156528Y-53659463D01*
X48156528Y-53659463D02*
X48237340Y-53632526D01*
X48237340Y-53632526D02*
X48291215Y-53632526D01*
X48291215Y-53632526D02*
X48372027Y-53659463D01*
X48372027Y-53659463D02*
X48425902Y-53713338D01*
X48425902Y-53713338D02*
X48452839Y-53794150D01*
X48452839Y-53794150D02*
X48452839Y-53848025D01*
X48452839Y-53848025D02*
X48425902Y-53928837D01*
X48425902Y-53928837D02*
X48237340Y-54117399D01*
X48964650Y-53228465D02*
X49341774Y-53605588D01*
X48614464Y-53147653D02*
X48883838Y-53686401D01*
X48883838Y-53686401D02*
X49234024Y-53336214D01*
X48533651Y-44243710D02*
X47967966Y-43678025D01*
X47967966Y-43678025D02*
X48102653Y-43543338D01*
X48102653Y-43543338D02*
X48210403Y-43489463D01*
X48210403Y-43489463D02*
X48318152Y-43489463D01*
X48318152Y-43489463D02*
X48398964Y-43516401D01*
X48398964Y-43516401D02*
X48533651Y-43597213D01*
X48533651Y-43597213D02*
X48614464Y-43678025D01*
X48614464Y-43678025D02*
X48695276Y-43812712D01*
X48695276Y-43812712D02*
X48722213Y-43893524D01*
X48722213Y-43893524D02*
X48722213Y-44001274D01*
X48722213Y-44001274D02*
X48668338Y-44109023D01*
X48668338Y-44109023D02*
X48533651Y-44243710D01*
X48964650Y-43058465D02*
X49341774Y-43435588D01*
X48614464Y-42977653D02*
X48883838Y-43516401D01*
X48883838Y-43516401D02*
X49234024Y-43166214D01*
X48533651Y-36633710D02*
X47967966Y-36068025D01*
X47967966Y-36068025D02*
X48102653Y-35933338D01*
X48102653Y-35933338D02*
X48210403Y-35879463D01*
X48210403Y-35879463D02*
X48318152Y-35879463D01*
X48318152Y-35879463D02*
X48398964Y-35906401D01*
X48398964Y-35906401D02*
X48533651Y-35987213D01*
X48533651Y-35987213D02*
X48614464Y-36068025D01*
X48614464Y-36068025D02*
X48695276Y-36202712D01*
X48695276Y-36202712D02*
X48722213Y-36283524D01*
X48722213Y-36283524D02*
X48722213Y-36391274D01*
X48722213Y-36391274D02*
X48668338Y-36499023D01*
X48668338Y-36499023D02*
X48533651Y-36633710D01*
X48560589Y-35583152D02*
X48560589Y-35529277D01*
X48560589Y-35529277D02*
X48587526Y-35448465D01*
X48587526Y-35448465D02*
X48722213Y-35313778D01*
X48722213Y-35313778D02*
X48803025Y-35286840D01*
X48803025Y-35286840D02*
X48856900Y-35286840D01*
X48856900Y-35286840D02*
X48937712Y-35313778D01*
X48937712Y-35313778D02*
X48991587Y-35367653D01*
X48991587Y-35367653D02*
X49045462Y-35475402D01*
X49045462Y-35475402D02*
X49045462Y-36121900D01*
X49045462Y-36121900D02*
X49395648Y-35771714D01*
X45906308Y-43718431D02*
X45717746Y-43906993D01*
X46014058Y-44203304D02*
X45448372Y-43637619D01*
X45448372Y-43637619D02*
X45717746Y-43368245D01*
X46175682Y-42910309D02*
X46067932Y-43018059D01*
X46067932Y-43018059D02*
X46040995Y-43098871D01*
X46040995Y-43098871D02*
X46040995Y-43152746D01*
X46040995Y-43152746D02*
X46067932Y-43287433D01*
X46067932Y-43287433D02*
X46148744Y-43422120D01*
X46148744Y-43422120D02*
X46364244Y-43637619D01*
X46364244Y-43637619D02*
X46445056Y-43664556D01*
X46445056Y-43664556D02*
X46498931Y-43664556D01*
X46498931Y-43664556D02*
X46579743Y-43637619D01*
X46579743Y-43637619D02*
X46687493Y-43529869D01*
X46687493Y-43529869D02*
X46714430Y-43449057D01*
X46714430Y-43449057D02*
X46714430Y-43395182D01*
X46714430Y-43395182D02*
X46687493Y-43314370D01*
X46687493Y-43314370D02*
X46552805Y-43179683D01*
X46552805Y-43179683D02*
X46471993Y-43152746D01*
X46471993Y-43152746D02*
X46418118Y-43152746D01*
X46418118Y-43152746D02*
X46337306Y-43179683D01*
X46337306Y-43179683D02*
X46229557Y-43287433D01*
X46229557Y-43287433D02*
X46202619Y-43368245D01*
X46202619Y-43368245D02*
X46202619Y-43422120D01*
X46202619Y-43422120D02*
X46229557Y-43502932D01*
X48533651Y-41713710D02*
X47967966Y-41148025D01*
X47967966Y-41148025D02*
X48102653Y-41013338D01*
X48102653Y-41013338D02*
X48210403Y-40959463D01*
X48210403Y-40959463D02*
X48318152Y-40959463D01*
X48318152Y-40959463D02*
X48398964Y-40986401D01*
X48398964Y-40986401D02*
X48533651Y-41067213D01*
X48533651Y-41067213D02*
X48614464Y-41148025D01*
X48614464Y-41148025D02*
X48695276Y-41282712D01*
X48695276Y-41282712D02*
X48722213Y-41363524D01*
X48722213Y-41363524D02*
X48722213Y-41471274D01*
X48722213Y-41471274D02*
X48668338Y-41579023D01*
X48668338Y-41579023D02*
X48533651Y-41713710D01*
X48641401Y-40474590D02*
X48695276Y-40420715D01*
X48695276Y-40420715D02*
X48776088Y-40393778D01*
X48776088Y-40393778D02*
X48829963Y-40393778D01*
X48829963Y-40393778D02*
X48910775Y-40420715D01*
X48910775Y-40420715D02*
X49045462Y-40501527D01*
X49045462Y-40501527D02*
X49180149Y-40636214D01*
X49180149Y-40636214D02*
X49260961Y-40770901D01*
X49260961Y-40770901D02*
X49287899Y-40851714D01*
X49287899Y-40851714D02*
X49287899Y-40905588D01*
X49287899Y-40905588D02*
X49260961Y-40986401D01*
X49260961Y-40986401D02*
X49207087Y-41040275D01*
X49207087Y-41040275D02*
X49126274Y-41067213D01*
X49126274Y-41067213D02*
X49072399Y-41067213D01*
X49072399Y-41067213D02*
X48991587Y-41040275D01*
X48991587Y-41040275D02*
X48856900Y-40959463D01*
X48856900Y-40959463D02*
X48722213Y-40824776D01*
X48722213Y-40824776D02*
X48641401Y-40690089D01*
X48641401Y-40690089D02*
X48614464Y-40609277D01*
X48614464Y-40609277D02*
X48614464Y-40555402D01*
X48614464Y-40555402D02*
X48641401Y-40474590D01*
X45865902Y-51388837D02*
X45973651Y-51334962D01*
X45973651Y-51334962D02*
X46027526Y-51334962D01*
X46027526Y-51334962D02*
X46108338Y-51361900D01*
X46108338Y-51361900D02*
X46189151Y-51442712D01*
X46189151Y-51442712D02*
X46216088Y-51523524D01*
X46216088Y-51523524D02*
X46216088Y-51577399D01*
X46216088Y-51577399D02*
X46189151Y-51658211D01*
X46189151Y-51658211D02*
X45973651Y-51873710D01*
X45973651Y-51873710D02*
X45407966Y-51308025D01*
X45407966Y-51308025D02*
X45596528Y-51119463D01*
X45596528Y-51119463D02*
X45677340Y-51092526D01*
X45677340Y-51092526D02*
X45731215Y-51092526D01*
X45731215Y-51092526D02*
X45812027Y-51119463D01*
X45812027Y-51119463D02*
X45865902Y-51173338D01*
X45865902Y-51173338D02*
X45892839Y-51254150D01*
X45892839Y-51254150D02*
X45892839Y-51308025D01*
X45892839Y-51308025D02*
X45865902Y-51388837D01*
X45865902Y-51388837D02*
X45677340Y-51577399D01*
X45919777Y-50796214D02*
X46269963Y-50446028D01*
X46269963Y-50446028D02*
X46296900Y-50850089D01*
X46296900Y-50850089D02*
X46377712Y-50769277D01*
X46377712Y-50769277D02*
X46458525Y-50742340D01*
X46458525Y-50742340D02*
X46512399Y-50742340D01*
X46512399Y-50742340D02*
X46593212Y-50769277D01*
X46593212Y-50769277D02*
X46727899Y-50903964D01*
X46727899Y-50903964D02*
X46754836Y-50984776D01*
X46754836Y-50984776D02*
X46754836Y-51038651D01*
X46754836Y-51038651D02*
X46727899Y-51119463D01*
X46727899Y-51119463D02*
X46566274Y-51281088D01*
X46566274Y-51281088D02*
X46485462Y-51308025D01*
X46485462Y-51308025D02*
X46431587Y-51308025D01*
X48533651Y-49343710D02*
X47967966Y-48778025D01*
X47967966Y-48778025D02*
X48102653Y-48643338D01*
X48102653Y-48643338D02*
X48210403Y-48589463D01*
X48210403Y-48589463D02*
X48318152Y-48589463D01*
X48318152Y-48589463D02*
X48398964Y-48616401D01*
X48398964Y-48616401D02*
X48533651Y-48697213D01*
X48533651Y-48697213D02*
X48614464Y-48778025D01*
X48614464Y-48778025D02*
X48695276Y-48912712D01*
X48695276Y-48912712D02*
X48722213Y-48993524D01*
X48722213Y-48993524D02*
X48722213Y-49101274D01*
X48722213Y-49101274D02*
X48668338Y-49209023D01*
X48668338Y-49209023D02*
X48533651Y-49343710D01*
X48479777Y-48266214D02*
X48856900Y-47889091D01*
X48856900Y-47889091D02*
X49180149Y-48697213D01*
X48264277Y-51550462D02*
X48452839Y-51361900D01*
X48829963Y-51577399D02*
X48560589Y-51846773D01*
X48560589Y-51846773D02*
X47994903Y-51281088D01*
X47994903Y-51281088D02*
X48264277Y-51011714D01*
X48749151Y-50526840D02*
X48641401Y-50634590D01*
X48641401Y-50634590D02*
X48614464Y-50715402D01*
X48614464Y-50715402D02*
X48614464Y-50769277D01*
X48614464Y-50769277D02*
X48641401Y-50903964D01*
X48641401Y-50903964D02*
X48722213Y-51038651D01*
X48722213Y-51038651D02*
X48937713Y-51254150D01*
X48937713Y-51254150D02*
X49018525Y-51281087D01*
X49018525Y-51281087D02*
X49072400Y-51281087D01*
X49072400Y-51281087D02*
X49153212Y-51254150D01*
X49153212Y-51254150D02*
X49260961Y-51146400D01*
X49260961Y-51146400D02*
X49287899Y-51065588D01*
X49287899Y-51065588D02*
X49287899Y-51011713D01*
X49287899Y-51011713D02*
X49260961Y-50930901D01*
X49260961Y-50930901D02*
X49126274Y-50796214D01*
X49126274Y-50796214D02*
X49045462Y-50769277D01*
X49045462Y-50769277D02*
X48991587Y-50769277D01*
X48991587Y-50769277D02*
X48910775Y-50796214D01*
X48910775Y-50796214D02*
X48803026Y-50903964D01*
X48803026Y-50903964D02*
X48776088Y-50984776D01*
X48776088Y-50984776D02*
X48776088Y-51038651D01*
X48776088Y-51038651D02*
X48803026Y-51119463D01*
X48803025Y-46406587D02*
X48803025Y-46460462D01*
X48803025Y-46460462D02*
X48749151Y-46568211D01*
X48749151Y-46568211D02*
X48695276Y-46622086D01*
X48695276Y-46622086D02*
X48587526Y-46675961D01*
X48587526Y-46675961D02*
X48479777Y-46675961D01*
X48479777Y-46675961D02*
X48398964Y-46649023D01*
X48398964Y-46649023D02*
X48264277Y-46568211D01*
X48264277Y-46568211D02*
X48183465Y-46487399D01*
X48183465Y-46487399D02*
X48102653Y-46352712D01*
X48102653Y-46352712D02*
X48075716Y-46271900D01*
X48075716Y-46271900D02*
X48075716Y-46164150D01*
X48075716Y-46164150D02*
X48129590Y-46056401D01*
X48129590Y-46056401D02*
X48183465Y-46002526D01*
X48183465Y-46002526D02*
X48291215Y-45948651D01*
X48291215Y-45948651D02*
X48345090Y-45948651D01*
X48776088Y-45409903D02*
X48668338Y-45517653D01*
X48668338Y-45517653D02*
X48641401Y-45598465D01*
X48641401Y-45598465D02*
X48641401Y-45652340D01*
X48641401Y-45652340D02*
X48668338Y-45787027D01*
X48668338Y-45787027D02*
X48749151Y-45921714D01*
X48749151Y-45921714D02*
X48964650Y-46137213D01*
X48964650Y-46137213D02*
X49045462Y-46164150D01*
X49045462Y-46164150D02*
X49099337Y-46164150D01*
X49099337Y-46164150D02*
X49180149Y-46137213D01*
X49180149Y-46137213D02*
X49287899Y-46029463D01*
X49287899Y-46029463D02*
X49314836Y-45948651D01*
X49314836Y-45948651D02*
X49314836Y-45894776D01*
X49314836Y-45894776D02*
X49287899Y-45813964D01*
X49287899Y-45813964D02*
X49153212Y-45679277D01*
X49153212Y-45679277D02*
X49072399Y-45652340D01*
X49072399Y-45652340D02*
X49018525Y-45652340D01*
X49018525Y-45652340D02*
X48937712Y-45679277D01*
X48937712Y-45679277D02*
X48829963Y-45787027D01*
X48829963Y-45787027D02*
X48803025Y-45867839D01*
X48803025Y-45867839D02*
X48803025Y-45921714D01*
X48803025Y-45921714D02*
X48829963Y-46002526D01*
X47344524Y-25075795D02*
X47344524Y-24275795D01*
X47344524Y-24275795D02*
X47535000Y-24275795D01*
X47535000Y-24275795D02*
X47649286Y-24313890D01*
X47649286Y-24313890D02*
X47725476Y-24390080D01*
X47725476Y-24390080D02*
X47763571Y-24466271D01*
X47763571Y-24466271D02*
X47801667Y-24618652D01*
X47801667Y-24618652D02*
X47801667Y-24732938D01*
X47801667Y-24732938D02*
X47763571Y-24885319D01*
X47763571Y-24885319D02*
X47725476Y-24961509D01*
X47725476Y-24961509D02*
X47649286Y-25037700D01*
X47649286Y-25037700D02*
X47535000Y-25075795D01*
X47535000Y-25075795D02*
X47344524Y-25075795D01*
X48106428Y-24351985D02*
X48144524Y-24313890D01*
X48144524Y-24313890D02*
X48220714Y-24275795D01*
X48220714Y-24275795D02*
X48411190Y-24275795D01*
X48411190Y-24275795D02*
X48487381Y-24313890D01*
X48487381Y-24313890D02*
X48525476Y-24351985D01*
X48525476Y-24351985D02*
X48563571Y-24428176D01*
X48563571Y-24428176D02*
X48563571Y-24504366D01*
X48563571Y-24504366D02*
X48525476Y-24618652D01*
X48525476Y-24618652D02*
X48068333Y-25075795D01*
X48068333Y-25075795D02*
X48563571Y-25075795D01*
X46868333Y-30125795D02*
X47135000Y-30925795D01*
X47135000Y-30925795D02*
X47401666Y-30125795D01*
X48125476Y-30849604D02*
X48087380Y-30887700D01*
X48087380Y-30887700D02*
X47973095Y-30925795D01*
X47973095Y-30925795D02*
X47896904Y-30925795D01*
X47896904Y-30925795D02*
X47782618Y-30887700D01*
X47782618Y-30887700D02*
X47706428Y-30811509D01*
X47706428Y-30811509D02*
X47668333Y-30735319D01*
X47668333Y-30735319D02*
X47630237Y-30582938D01*
X47630237Y-30582938D02*
X47630237Y-30468652D01*
X47630237Y-30468652D02*
X47668333Y-30316271D01*
X47668333Y-30316271D02*
X47706428Y-30240080D01*
X47706428Y-30240080D02*
X47782618Y-30163890D01*
X47782618Y-30163890D02*
X47896904Y-30125795D01*
X47896904Y-30125795D02*
X47973095Y-30125795D01*
X47973095Y-30125795D02*
X48087380Y-30163890D01*
X48087380Y-30163890D02*
X48125476Y-30201985D01*
X48925476Y-30849604D02*
X48887380Y-30887700D01*
X48887380Y-30887700D02*
X48773095Y-30925795D01*
X48773095Y-30925795D02*
X48696904Y-30925795D01*
X48696904Y-30925795D02*
X48582618Y-30887700D01*
X48582618Y-30887700D02*
X48506428Y-30811509D01*
X48506428Y-30811509D02*
X48468333Y-30735319D01*
X48468333Y-30735319D02*
X48430237Y-30582938D01*
X48430237Y-30582938D02*
X48430237Y-30468652D01*
X48430237Y-30468652D02*
X48468333Y-30316271D01*
X48468333Y-30316271D02*
X48506428Y-30240080D01*
X48506428Y-30240080D02*
X48582618Y-30163890D01*
X48582618Y-30163890D02*
X48696904Y-30125795D01*
X48696904Y-30125795D02*
X48773095Y-30125795D01*
X48773095Y-30125795D02*
X48887380Y-30163890D01*
X48887380Y-30163890D02*
X48925476Y-30201985D01*
X47325476Y-26163890D02*
X47249286Y-26125795D01*
X47249286Y-26125795D02*
X47135000Y-26125795D01*
X47135000Y-26125795D02*
X47020714Y-26163890D01*
X47020714Y-26163890D02*
X46944524Y-26240080D01*
X46944524Y-26240080D02*
X46906429Y-26316271D01*
X46906429Y-26316271D02*
X46868333Y-26468652D01*
X46868333Y-26468652D02*
X46868333Y-26582938D01*
X46868333Y-26582938D02*
X46906429Y-26735319D01*
X46906429Y-26735319D02*
X46944524Y-26811509D01*
X46944524Y-26811509D02*
X47020714Y-26887700D01*
X47020714Y-26887700D02*
X47135000Y-26925795D01*
X47135000Y-26925795D02*
X47211191Y-26925795D01*
X47211191Y-26925795D02*
X47325476Y-26887700D01*
X47325476Y-26887700D02*
X47363572Y-26849604D01*
X47363572Y-26849604D02*
X47363572Y-26582938D01*
X47363572Y-26582938D02*
X47211191Y-26582938D01*
X47706429Y-26925795D02*
X47706429Y-26125795D01*
X47706429Y-26125795D02*
X48163572Y-26925795D01*
X48163572Y-26925795D02*
X48163572Y-26125795D01*
X48544524Y-26925795D02*
X48544524Y-26125795D01*
X48544524Y-26125795D02*
X48735000Y-26125795D01*
X48735000Y-26125795D02*
X48849286Y-26163890D01*
X48849286Y-26163890D02*
X48925476Y-26240080D01*
X48925476Y-26240080D02*
X48963571Y-26316271D01*
X48963571Y-26316271D02*
X49001667Y-26468652D01*
X49001667Y-26468652D02*
X49001667Y-26582938D01*
X49001667Y-26582938D02*
X48963571Y-26735319D01*
X48963571Y-26735319D02*
X48925476Y-26811509D01*
X48925476Y-26811509D02*
X48849286Y-26887700D01*
X48849286Y-26887700D02*
X48735000Y-26925795D01*
X48735000Y-26925795D02*
X48544524Y-26925795D01*
X20764537Y-50769277D02*
X20953099Y-50957839D01*
X20737600Y-51334963D02*
X20468226Y-51065589D01*
X20468226Y-51065589D02*
X21033911Y-50499903D01*
X21033911Y-50499903D02*
X21303285Y-50769277D01*
X21788159Y-51254151D02*
X21680409Y-51146401D01*
X21680409Y-51146401D02*
X21599597Y-51119464D01*
X21599597Y-51119464D02*
X21545722Y-51119464D01*
X21545722Y-51119464D02*
X21411035Y-51146401D01*
X21411035Y-51146401D02*
X21276348Y-51227213D01*
X21276348Y-51227213D02*
X21060849Y-51442713D01*
X21060849Y-51442713D02*
X21033912Y-51523525D01*
X21033912Y-51523525D02*
X21033912Y-51577400D01*
X21033912Y-51577400D02*
X21060849Y-51658212D01*
X21060849Y-51658212D02*
X21168599Y-51765961D01*
X21168599Y-51765961D02*
X21249411Y-51792899D01*
X21249411Y-51792899D02*
X21303286Y-51792899D01*
X21303286Y-51792899D02*
X21384098Y-51765961D01*
X21384098Y-51765961D02*
X21518785Y-51631274D01*
X21518785Y-51631274D02*
X21545722Y-51550462D01*
X21545722Y-51550462D02*
X21545722Y-51496587D01*
X21545722Y-51496587D02*
X21518785Y-51415775D01*
X21518785Y-51415775D02*
X21411035Y-51308026D01*
X21411035Y-51308026D02*
X21330223Y-51281088D01*
X21330223Y-51281088D02*
X21276348Y-51281088D01*
X21276348Y-51281088D02*
X21195536Y-51308026D01*
X23526568Y-40811308D02*
X23338006Y-40622746D01*
X23041695Y-40919058D02*
X23607380Y-40353372D01*
X23607380Y-40353372D02*
X23876754Y-40622746D01*
X24361627Y-41107619D02*
X24092253Y-40838245D01*
X24092253Y-40838245D02*
X23795942Y-41080682D01*
X23795942Y-41080682D02*
X23849817Y-41080682D01*
X23849817Y-41080682D02*
X23930629Y-41107619D01*
X23930629Y-41107619D02*
X24065316Y-41242306D01*
X24065316Y-41242306D02*
X24092253Y-41323118D01*
X24092253Y-41323118D02*
X24092253Y-41376993D01*
X24092253Y-41376993D02*
X24065316Y-41457805D01*
X24065316Y-41457805D02*
X23930629Y-41592493D01*
X23930629Y-41592493D02*
X23849817Y-41619430D01*
X23849817Y-41619430D02*
X23795942Y-41619430D01*
X23795942Y-41619430D02*
X23715130Y-41592493D01*
X23715130Y-41592493D02*
X23580443Y-41457805D01*
X23580443Y-41457805D02*
X23553505Y-41376993D01*
X23553505Y-41376993D02*
X23553505Y-41323118D01*
X20441289Y-38338651D02*
X21006974Y-37772966D01*
X21006974Y-37772966D02*
X21141661Y-37907653D01*
X21141661Y-37907653D02*
X21195536Y-38015403D01*
X21195536Y-38015403D02*
X21195536Y-38123152D01*
X21195536Y-38123152D02*
X21168598Y-38203964D01*
X21168598Y-38203964D02*
X21087786Y-38338651D01*
X21087786Y-38338651D02*
X21006974Y-38419464D01*
X21006974Y-38419464D02*
X20872287Y-38500276D01*
X20872287Y-38500276D02*
X20791475Y-38527213D01*
X20791475Y-38527213D02*
X20683725Y-38527213D01*
X20683725Y-38527213D02*
X20575976Y-38473338D01*
X20575976Y-38473338D02*
X20441289Y-38338651D01*
X21303285Y-39200648D02*
X20980037Y-38877399D01*
X21141661Y-39039024D02*
X21707346Y-38473338D01*
X21707346Y-38473338D02*
X21572659Y-38500276D01*
X21572659Y-38500276D02*
X21464910Y-38500276D01*
X21464910Y-38500276D02*
X21384098Y-38473338D01*
X23526568Y-45881308D02*
X23338006Y-45692746D01*
X23041695Y-45989058D02*
X23607380Y-45423372D01*
X23607380Y-45423372D02*
X23876754Y-45692746D01*
X24038378Y-45854370D02*
X24415502Y-46231494D01*
X24415502Y-46231494D02*
X23607380Y-46554743D01*
X23486162Y-53470902D02*
X23540037Y-53578651D01*
X23540037Y-53578651D02*
X23540037Y-53632526D01*
X23540037Y-53632526D02*
X23513099Y-53713338D01*
X23513099Y-53713338D02*
X23432287Y-53794151D01*
X23432287Y-53794151D02*
X23351475Y-53821088D01*
X23351475Y-53821088D02*
X23297600Y-53821088D01*
X23297600Y-53821088D02*
X23216788Y-53794151D01*
X23216788Y-53794151D02*
X23001289Y-53578651D01*
X23001289Y-53578651D02*
X23566974Y-53012966D01*
X23566974Y-53012966D02*
X23755536Y-53201528D01*
X23755536Y-53201528D02*
X23782473Y-53282340D01*
X23782473Y-53282340D02*
X23782473Y-53336215D01*
X23782473Y-53336215D02*
X23755536Y-53417027D01*
X23755536Y-53417027D02*
X23701661Y-53470902D01*
X23701661Y-53470902D02*
X23620849Y-53497839D01*
X23620849Y-53497839D02*
X23566974Y-53497839D01*
X23566974Y-53497839D02*
X23486162Y-53470902D01*
X23486162Y-53470902D02*
X23297600Y-53282340D01*
X24051847Y-53605589D02*
X24105722Y-53605589D01*
X24105722Y-53605589D02*
X24186534Y-53632526D01*
X24186534Y-53632526D02*
X24321221Y-53767213D01*
X24321221Y-53767213D02*
X24348159Y-53848025D01*
X24348159Y-53848025D02*
X24348159Y-53901900D01*
X24348159Y-53901900D02*
X24321221Y-53982712D01*
X24321221Y-53982712D02*
X24267346Y-54036587D01*
X24267346Y-54036587D02*
X24159597Y-54090462D01*
X24159597Y-54090462D02*
X23513099Y-54090462D01*
X23513099Y-54090462D02*
X23863285Y-54440648D01*
X20818412Y-46218025D02*
X20764537Y-46218025D01*
X20764537Y-46218025D02*
X20656788Y-46164151D01*
X20656788Y-46164151D02*
X20602913Y-46110276D01*
X20602913Y-46110276D02*
X20549038Y-46002526D01*
X20549038Y-46002526D02*
X20549038Y-45894777D01*
X20549038Y-45894777D02*
X20575976Y-45813964D01*
X20575976Y-45813964D02*
X20656788Y-45679277D01*
X20656788Y-45679277D02*
X20737600Y-45598465D01*
X20737600Y-45598465D02*
X20872287Y-45517653D01*
X20872287Y-45517653D02*
X20953099Y-45490716D01*
X20953099Y-45490716D02*
X21060849Y-45490716D01*
X21060849Y-45490716D02*
X21168598Y-45544590D01*
X21168598Y-45544590D02*
X21222473Y-45598465D01*
X21222473Y-45598465D02*
X21276348Y-45706215D01*
X21276348Y-45706215D02*
X21276348Y-45760090D01*
X21815096Y-46191088D02*
X21707346Y-46083338D01*
X21707346Y-46083338D02*
X21626534Y-46056401D01*
X21626534Y-46056401D02*
X21572659Y-46056401D01*
X21572659Y-46056401D02*
X21437972Y-46083338D01*
X21437972Y-46083338D02*
X21303285Y-46164151D01*
X21303285Y-46164151D02*
X21087786Y-46379650D01*
X21087786Y-46379650D02*
X21060849Y-46460462D01*
X21060849Y-46460462D02*
X21060849Y-46514337D01*
X21060849Y-46514337D02*
X21087786Y-46595149D01*
X21087786Y-46595149D02*
X21195536Y-46702899D01*
X21195536Y-46702899D02*
X21276348Y-46729836D01*
X21276348Y-46729836D02*
X21330223Y-46729836D01*
X21330223Y-46729836D02*
X21411035Y-46702899D01*
X21411035Y-46702899D02*
X21545722Y-46568212D01*
X21545722Y-46568212D02*
X21572659Y-46487399D01*
X21572659Y-46487399D02*
X21572659Y-46433525D01*
X21572659Y-46433525D02*
X21545722Y-46352712D01*
X21545722Y-46352712D02*
X21437972Y-46244963D01*
X21437972Y-46244963D02*
X21357160Y-46218025D01*
X21357160Y-46218025D02*
X21303285Y-46218025D01*
X21303285Y-46218025D02*
X21222473Y-46244963D01*
X20441289Y-35798651D02*
X21006974Y-35232966D01*
X21006974Y-35232966D02*
X21141661Y-35367653D01*
X21141661Y-35367653D02*
X21195536Y-35475403D01*
X21195536Y-35475403D02*
X21195536Y-35583152D01*
X21195536Y-35583152D02*
X21168598Y-35663964D01*
X21168598Y-35663964D02*
X21087786Y-35798651D01*
X21087786Y-35798651D02*
X21006974Y-35879464D01*
X21006974Y-35879464D02*
X20872287Y-35960276D01*
X20872287Y-35960276D02*
X20791475Y-35987213D01*
X20791475Y-35987213D02*
X20683725Y-35987213D01*
X20683725Y-35987213D02*
X20575976Y-35933338D01*
X20575976Y-35933338D02*
X20441289Y-35798651D01*
X21491847Y-35825589D02*
X21545722Y-35825589D01*
X21545722Y-35825589D02*
X21626534Y-35852526D01*
X21626534Y-35852526D02*
X21761221Y-35987213D01*
X21761221Y-35987213D02*
X21788159Y-36068025D01*
X21788159Y-36068025D02*
X21788159Y-36121900D01*
X21788159Y-36121900D02*
X21761221Y-36202712D01*
X21761221Y-36202712D02*
X21707346Y-36256587D01*
X21707346Y-36256587D02*
X21599597Y-36310462D01*
X21599597Y-36310462D02*
X20953099Y-36310462D01*
X20953099Y-36310462D02*
X21303285Y-36660648D01*
X20441289Y-48508651D02*
X21006974Y-47942966D01*
X21006974Y-47942966D02*
X21141661Y-48077653D01*
X21141661Y-48077653D02*
X21195536Y-48185403D01*
X21195536Y-48185403D02*
X21195536Y-48293152D01*
X21195536Y-48293152D02*
X21168598Y-48373964D01*
X21168598Y-48373964D02*
X21087786Y-48508651D01*
X21087786Y-48508651D02*
X21006974Y-48589464D01*
X21006974Y-48589464D02*
X20872287Y-48670276D01*
X20872287Y-48670276D02*
X20791475Y-48697213D01*
X20791475Y-48697213D02*
X20683725Y-48697213D01*
X20683725Y-48697213D02*
X20575976Y-48643338D01*
X20575976Y-48643338D02*
X20441289Y-48508651D01*
X21518785Y-48454777D02*
X21895908Y-48831900D01*
X21895908Y-48831900D02*
X21087786Y-49155149D01*
X20926162Y-56080902D02*
X20980037Y-56188651D01*
X20980037Y-56188651D02*
X20980037Y-56242526D01*
X20980037Y-56242526D02*
X20953099Y-56323338D01*
X20953099Y-56323338D02*
X20872287Y-56404151D01*
X20872287Y-56404151D02*
X20791475Y-56431088D01*
X20791475Y-56431088D02*
X20737600Y-56431088D01*
X20737600Y-56431088D02*
X20656788Y-56404151D01*
X20656788Y-56404151D02*
X20441289Y-56188651D01*
X20441289Y-56188651D02*
X21006974Y-55622966D01*
X21006974Y-55622966D02*
X21195536Y-55811528D01*
X21195536Y-55811528D02*
X21222473Y-55892340D01*
X21222473Y-55892340D02*
X21222473Y-55946215D01*
X21222473Y-55946215D02*
X21195536Y-56027027D01*
X21195536Y-56027027D02*
X21141661Y-56080902D01*
X21141661Y-56080902D02*
X21060849Y-56107839D01*
X21060849Y-56107839D02*
X21006974Y-56107839D01*
X21006974Y-56107839D02*
X20926162Y-56080902D01*
X20926162Y-56080902D02*
X20737600Y-55892340D01*
X21842033Y-56458025D02*
X21572659Y-56188651D01*
X21572659Y-56188651D02*
X21276348Y-56431088D01*
X21276348Y-56431088D02*
X21330223Y-56431088D01*
X21330223Y-56431088D02*
X21411035Y-56458025D01*
X21411035Y-56458025D02*
X21545722Y-56592712D01*
X21545722Y-56592712D02*
X21572659Y-56673525D01*
X21572659Y-56673525D02*
X21572659Y-56727399D01*
X21572659Y-56727399D02*
X21545722Y-56808212D01*
X21545722Y-56808212D02*
X21411035Y-56942899D01*
X21411035Y-56942899D02*
X21330223Y-56969836D01*
X21330223Y-56969836D02*
X21276348Y-56969836D01*
X21276348Y-56969836D02*
X21195536Y-56942899D01*
X21195536Y-56942899D02*
X21060849Y-56808212D01*
X21060849Y-56808212D02*
X21033911Y-56727399D01*
X21033911Y-56727399D02*
X21033911Y-56673525D01*
X23526568Y-38271308D02*
X23338006Y-38082746D01*
X23041695Y-38379058D02*
X23607380Y-37813372D01*
X23607380Y-37813372D02*
X23876754Y-38082746D01*
X24146128Y-38729244D02*
X23769004Y-39106367D01*
X24226940Y-38379057D02*
X23688192Y-38648431D01*
X23688192Y-38648431D02*
X24038378Y-38998618D01*
X20441289Y-43408651D02*
X21006974Y-42842966D01*
X21006974Y-42842966D02*
X21141661Y-42977653D01*
X21141661Y-42977653D02*
X21195536Y-43085403D01*
X21195536Y-43085403D02*
X21195536Y-43193152D01*
X21195536Y-43193152D02*
X21168598Y-43273964D01*
X21168598Y-43273964D02*
X21087786Y-43408651D01*
X21087786Y-43408651D02*
X21006974Y-43489464D01*
X21006974Y-43489464D02*
X20872287Y-43570276D01*
X20872287Y-43570276D02*
X20791475Y-43597213D01*
X20791475Y-43597213D02*
X20683725Y-43597213D01*
X20683725Y-43597213D02*
X20575976Y-43543338D01*
X20575976Y-43543338D02*
X20441289Y-43408651D01*
X21626534Y-43839650D02*
X21249411Y-44216774D01*
X21707346Y-43489464D02*
X21168598Y-43758838D01*
X21168598Y-43758838D02*
X21518785Y-44109024D01*
X23486162Y-56080902D02*
X23540037Y-56188651D01*
X23540037Y-56188651D02*
X23540037Y-56242526D01*
X23540037Y-56242526D02*
X23513099Y-56323338D01*
X23513099Y-56323338D02*
X23432287Y-56404151D01*
X23432287Y-56404151D02*
X23351475Y-56431088D01*
X23351475Y-56431088D02*
X23297600Y-56431088D01*
X23297600Y-56431088D02*
X23216788Y-56404151D01*
X23216788Y-56404151D02*
X23001289Y-56188651D01*
X23001289Y-56188651D02*
X23566974Y-55622966D01*
X23566974Y-55622966D02*
X23755536Y-55811528D01*
X23755536Y-55811528D02*
X23782473Y-55892340D01*
X23782473Y-55892340D02*
X23782473Y-55946215D01*
X23782473Y-55946215D02*
X23755536Y-56027027D01*
X23755536Y-56027027D02*
X23701661Y-56080902D01*
X23701661Y-56080902D02*
X23620849Y-56107839D01*
X23620849Y-56107839D02*
X23566974Y-56107839D01*
X23566974Y-56107839D02*
X23486162Y-56080902D01*
X23486162Y-56080902D02*
X23297600Y-55892340D01*
X24375096Y-56431088D02*
X24267346Y-56323338D01*
X24267346Y-56323338D02*
X24186534Y-56296401D01*
X24186534Y-56296401D02*
X24132659Y-56296401D01*
X24132659Y-56296401D02*
X23997972Y-56323338D01*
X23997972Y-56323338D02*
X23863285Y-56404151D01*
X23863285Y-56404151D02*
X23647786Y-56619650D01*
X23647786Y-56619650D02*
X23620849Y-56700462D01*
X23620849Y-56700462D02*
X23620849Y-56754337D01*
X23620849Y-56754337D02*
X23647786Y-56835149D01*
X23647786Y-56835149D02*
X23755536Y-56942899D01*
X23755536Y-56942899D02*
X23836348Y-56969836D01*
X23836348Y-56969836D02*
X23890223Y-56969836D01*
X23890223Y-56969836D02*
X23971035Y-56942899D01*
X23971035Y-56942899D02*
X24105722Y-56808212D01*
X24105722Y-56808212D02*
X24132659Y-56727399D01*
X24132659Y-56727399D02*
X24132659Y-56673525D01*
X24132659Y-56673525D02*
X24105722Y-56592712D01*
X24105722Y-56592712D02*
X23997972Y-56484963D01*
X23997972Y-56484963D02*
X23917160Y-56458025D01*
X23917160Y-56458025D02*
X23863285Y-56458025D01*
X23863285Y-56458025D02*
X23782473Y-56484963D01*
X20926162Y-53470902D02*
X20980037Y-53578651D01*
X20980037Y-53578651D02*
X20980037Y-53632526D01*
X20980037Y-53632526D02*
X20953099Y-53713338D01*
X20953099Y-53713338D02*
X20872287Y-53794151D01*
X20872287Y-53794151D02*
X20791475Y-53821088D01*
X20791475Y-53821088D02*
X20737600Y-53821088D01*
X20737600Y-53821088D02*
X20656788Y-53794151D01*
X20656788Y-53794151D02*
X20441289Y-53578651D01*
X20441289Y-53578651D02*
X21006974Y-53012966D01*
X21006974Y-53012966D02*
X21195536Y-53201528D01*
X21195536Y-53201528D02*
X21222473Y-53282340D01*
X21222473Y-53282340D02*
X21222473Y-53336215D01*
X21222473Y-53336215D02*
X21195536Y-53417027D01*
X21195536Y-53417027D02*
X21141661Y-53470902D01*
X21141661Y-53470902D02*
X21060849Y-53497839D01*
X21060849Y-53497839D02*
X21006974Y-53497839D01*
X21006974Y-53497839D02*
X20926162Y-53470902D01*
X20926162Y-53470902D02*
X20737600Y-53282340D01*
X21626534Y-54009650D02*
X21249411Y-54386774D01*
X21707346Y-53659464D02*
X21168598Y-53928838D01*
X21168598Y-53928838D02*
X21518785Y-54279024D01*
X20441289Y-40878651D02*
X21006974Y-40312966D01*
X21006974Y-40312966D02*
X21141661Y-40447653D01*
X21141661Y-40447653D02*
X21195536Y-40555403D01*
X21195536Y-40555403D02*
X21195536Y-40663152D01*
X21195536Y-40663152D02*
X21168598Y-40743964D01*
X21168598Y-40743964D02*
X21087786Y-40878651D01*
X21087786Y-40878651D02*
X21006974Y-40959464D01*
X21006974Y-40959464D02*
X20872287Y-41040276D01*
X20872287Y-41040276D02*
X20791475Y-41067213D01*
X20791475Y-41067213D02*
X20683725Y-41067213D01*
X20683725Y-41067213D02*
X20575976Y-41013338D01*
X20575976Y-41013338D02*
X20441289Y-40878651D01*
X21680409Y-40986401D02*
X21734284Y-41040276D01*
X21734284Y-41040276D02*
X21761221Y-41121088D01*
X21761221Y-41121088D02*
X21761221Y-41174963D01*
X21761221Y-41174963D02*
X21734284Y-41255775D01*
X21734284Y-41255775D02*
X21653472Y-41390462D01*
X21653472Y-41390462D02*
X21518785Y-41525149D01*
X21518785Y-41525149D02*
X21384098Y-41605961D01*
X21384098Y-41605961D02*
X21303285Y-41632899D01*
X21303285Y-41632899D02*
X21249411Y-41632899D01*
X21249411Y-41632899D02*
X21168598Y-41605961D01*
X21168598Y-41605961D02*
X21114724Y-41552087D01*
X21114724Y-41552087D02*
X21087786Y-41471274D01*
X21087786Y-41471274D02*
X21087786Y-41417399D01*
X21087786Y-41417399D02*
X21114724Y-41336587D01*
X21114724Y-41336587D02*
X21195536Y-41201900D01*
X21195536Y-41201900D02*
X21330223Y-41067213D01*
X21330223Y-41067213D02*
X21464910Y-40986401D01*
X21464910Y-40986401D02*
X21545722Y-40959464D01*
X21545722Y-40959464D02*
X21599597Y-40959464D01*
X21599597Y-40959464D02*
X21680409Y-40986401D01*
X23486162Y-48400902D02*
X23540037Y-48508651D01*
X23540037Y-48508651D02*
X23540037Y-48562526D01*
X23540037Y-48562526D02*
X23513099Y-48643338D01*
X23513099Y-48643338D02*
X23432287Y-48724151D01*
X23432287Y-48724151D02*
X23351475Y-48751088D01*
X23351475Y-48751088D02*
X23297600Y-48751088D01*
X23297600Y-48751088D02*
X23216788Y-48724151D01*
X23216788Y-48724151D02*
X23001289Y-48508651D01*
X23001289Y-48508651D02*
X23566974Y-47942966D01*
X23566974Y-47942966D02*
X23755536Y-48131528D01*
X23755536Y-48131528D02*
X23782473Y-48212340D01*
X23782473Y-48212340D02*
X23782473Y-48266215D01*
X23782473Y-48266215D02*
X23755536Y-48347027D01*
X23755536Y-48347027D02*
X23701661Y-48400902D01*
X23701661Y-48400902D02*
X23620849Y-48427839D01*
X23620849Y-48427839D02*
X23566974Y-48427839D01*
X23566974Y-48427839D02*
X23486162Y-48400902D01*
X23486162Y-48400902D02*
X23297600Y-48212340D01*
X23863285Y-49370648D02*
X23540037Y-49047399D01*
X23701661Y-49209024D02*
X24267346Y-48643338D01*
X24267346Y-48643338D02*
X24132659Y-48670276D01*
X24132659Y-48670276D02*
X24024910Y-48670276D01*
X24024910Y-48670276D02*
X23944098Y-48643338D01*
X23526568Y-43341308D02*
X23338006Y-43152746D01*
X23041695Y-43449058D02*
X23607380Y-42883372D01*
X23607380Y-42883372D02*
X23876754Y-43152746D01*
X24334690Y-43610682D02*
X24226940Y-43502932D01*
X24226940Y-43502932D02*
X24146128Y-43475995D01*
X24146128Y-43475995D02*
X24092253Y-43475995D01*
X24092253Y-43475995D02*
X23957566Y-43502932D01*
X23957566Y-43502932D02*
X23822879Y-43583744D01*
X23822879Y-43583744D02*
X23607380Y-43799244D01*
X23607380Y-43799244D02*
X23580443Y-43880056D01*
X23580443Y-43880056D02*
X23580443Y-43933931D01*
X23580443Y-43933931D02*
X23607380Y-44014743D01*
X23607380Y-44014743D02*
X23715130Y-44122493D01*
X23715130Y-44122493D02*
X23795942Y-44149430D01*
X23795942Y-44149430D02*
X23849817Y-44149430D01*
X23849817Y-44149430D02*
X23930629Y-44122493D01*
X23930629Y-44122493D02*
X24065316Y-43987805D01*
X24065316Y-43987805D02*
X24092253Y-43906993D01*
X24092253Y-43906993D02*
X24092253Y-43853118D01*
X24092253Y-43853118D02*
X24065316Y-43772306D01*
X24065316Y-43772306D02*
X23957566Y-43664557D01*
X23957566Y-43664557D02*
X23876754Y-43637619D01*
X23876754Y-43637619D02*
X23822879Y-43637619D01*
X23822879Y-43637619D02*
X23742067Y-43664557D01*
X23486162Y-50930902D02*
X23540037Y-51038651D01*
X23540037Y-51038651D02*
X23540037Y-51092526D01*
X23540037Y-51092526D02*
X23513099Y-51173338D01*
X23513099Y-51173338D02*
X23432287Y-51254151D01*
X23432287Y-51254151D02*
X23351475Y-51281088D01*
X23351475Y-51281088D02*
X23297600Y-51281088D01*
X23297600Y-51281088D02*
X23216788Y-51254151D01*
X23216788Y-51254151D02*
X23001289Y-51038651D01*
X23001289Y-51038651D02*
X23566974Y-50472966D01*
X23566974Y-50472966D02*
X23755536Y-50661528D01*
X23755536Y-50661528D02*
X23782473Y-50742340D01*
X23782473Y-50742340D02*
X23782473Y-50796215D01*
X23782473Y-50796215D02*
X23755536Y-50877027D01*
X23755536Y-50877027D02*
X23701661Y-50930902D01*
X23701661Y-50930902D02*
X23620849Y-50957839D01*
X23620849Y-50957839D02*
X23566974Y-50957839D01*
X23566974Y-50957839D02*
X23486162Y-50930902D01*
X23486162Y-50930902D02*
X23297600Y-50742340D01*
X24078785Y-50984777D02*
X24428971Y-51334963D01*
X24428971Y-51334963D02*
X24024910Y-51361900D01*
X24024910Y-51361900D02*
X24105722Y-51442712D01*
X24105722Y-51442712D02*
X24132659Y-51523525D01*
X24132659Y-51523525D02*
X24132659Y-51577399D01*
X24132659Y-51577399D02*
X24105722Y-51658212D01*
X24105722Y-51658212D02*
X23971035Y-51792899D01*
X23971035Y-51792899D02*
X23890223Y-51819836D01*
X23890223Y-51819836D02*
X23836348Y-51819836D01*
X23836348Y-51819836D02*
X23755536Y-51792899D01*
X23755536Y-51792899D02*
X23593911Y-51631274D01*
X23593911Y-51631274D02*
X23566974Y-51550462D01*
X23566974Y-51550462D02*
X23566974Y-51496587D01*
X23001289Y-35798651D02*
X23566974Y-35232966D01*
X23566974Y-35232966D02*
X23701661Y-35367653D01*
X23701661Y-35367653D02*
X23755536Y-35475403D01*
X23755536Y-35475403D02*
X23755536Y-35583152D01*
X23755536Y-35583152D02*
X23728598Y-35663964D01*
X23728598Y-35663964D02*
X23647786Y-35798651D01*
X23647786Y-35798651D02*
X23566974Y-35879464D01*
X23566974Y-35879464D02*
X23432287Y-35960276D01*
X23432287Y-35960276D02*
X23351475Y-35987213D01*
X23351475Y-35987213D02*
X23243725Y-35987213D01*
X23243725Y-35987213D02*
X23135976Y-35933338D01*
X23135976Y-35933338D02*
X23001289Y-35798651D01*
X24078785Y-35744777D02*
X24428971Y-36094963D01*
X24428971Y-36094963D02*
X24024910Y-36121900D01*
X24024910Y-36121900D02*
X24105722Y-36202712D01*
X24105722Y-36202712D02*
X24132659Y-36283525D01*
X24132659Y-36283525D02*
X24132659Y-36337399D01*
X24132659Y-36337399D02*
X24105722Y-36418212D01*
X24105722Y-36418212D02*
X23971035Y-36552899D01*
X23971035Y-36552899D02*
X23890223Y-36579836D01*
X23890223Y-36579836D02*
X23836348Y-36579836D01*
X23836348Y-36579836D02*
X23755536Y-36552899D01*
X23755536Y-36552899D02*
X23593911Y-36391274D01*
X23593911Y-36391274D02*
X23566974Y-36310462D01*
X23566974Y-36310462D02*
X23566974Y-36256587D01*
X20255000Y-64648200D02*
X32828000Y-64648200D01*
X20255000Y-64648200D02*
X20255000Y-64070000D01*
X20255000Y-64070000D02*
X18255000Y-64070000D01*
X18255000Y-58470000D02*
X18255000Y-64070000D01*
X20255000Y-58470000D02*
X18255000Y-58470000D01*
X20255000Y-58470000D02*
X20255000Y-57891800D01*
X20255000Y-57891800D02*
X32828000Y-57891800D01*
X32828000Y-57891800D02*
X32828000Y-64648200D01*
X32035000Y-54240000D02*
X32035000Y-54490000D01*
X32035000Y-54240000D02*
X37735000Y-54240000D01*
X32035000Y-57440000D02*
X32035000Y-57190000D01*
X32035000Y-57440000D02*
X37735000Y-57440000D01*
X37735000Y-54240000D02*
X37735000Y-54490000D01*
X37735000Y-57440000D02*
X37735000Y-57190000D01*
D11*
X43775000Y-20720000D02*
X25995000Y-20720000D01*
X25995000Y-20720000D02*
X25995000Y-23260000D01*
X43775000Y-23260000D02*
X43775000Y-20720000D01*
X25995000Y-23260000D02*
X25995000Y-53740000D01*
X43775000Y-53740000D02*
X43775000Y-23260000D01*
X25995000Y-53740000D02*
X43775000Y-53740000D01*
D12*
X35440814Y-35968931D02*
X35524635Y-36413555D01*
X35833920Y-36541053D01*
X36143206Y-36668551D01*
X36514246Y-36416246D01*
X36618157Y-36345996D01*
X36712087Y-36283272D01*
X36791652Y-36230938D01*
X36852470Y-36191857D01*
X36890157Y-36168893D01*
X36900421Y-36163942D01*
X36918910Y-36176676D01*
X36958420Y-36211882D01*
X37014522Y-36265062D01*
X37082787Y-36331718D01*
X37158786Y-36407354D01*
X37238092Y-36487472D01*
X37316275Y-36567574D01*
X37388907Y-36643164D01*
X37451559Y-36709745D01*
X37499803Y-36762818D01*
X37529210Y-36797887D01*
X37536241Y-36809623D01*
X37526123Y-36831260D01*
X37497759Y-36878662D01*
X37454129Y-36947193D01*
X37398218Y-37032215D01*
X37333006Y-37129093D01*
X37295219Y-37184350D01*
X37226343Y-37285248D01*
X37165140Y-37376299D01*
X37114578Y-37452970D01*
X37077628Y-37510728D01*
X37057258Y-37545043D01*
X37054197Y-37552254D01*
X37061136Y-37572748D01*
X37080051Y-37620513D01*
X37108087Y-37688832D01*
X37142391Y-37770989D01*
X37180109Y-37860270D01*
X37218387Y-37949958D01*
X37254370Y-38033338D01*
X37285206Y-38103694D01*
X37308039Y-38154310D01*
X37320017Y-38178471D01*
X37320724Y-38179422D01*
X37339531Y-38184036D01*
X37389618Y-38194328D01*
X37465793Y-38209287D01*
X37562865Y-38227901D01*
X37675643Y-38249159D01*
X37741442Y-38261418D01*
X37861950Y-38284362D01*
X37970797Y-38306195D01*
X38062476Y-38325722D01*
X38131481Y-38341748D01*
X38172304Y-38353079D01*
X38180511Y-38356674D01*
X38188548Y-38381006D01*
X38195033Y-38435959D01*
X38199970Y-38515108D01*
X38203364Y-38612026D01*
X38205218Y-38720287D01*
X38205538Y-38833465D01*
X38204327Y-38945135D01*
X38201590Y-39048868D01*
X38197331Y-39138241D01*
X38191555Y-39206826D01*
X38184267Y-39248197D01*
X38179895Y-39256810D01*
X38153764Y-39267133D01*
X38098393Y-39281892D01*
X38021107Y-39299352D01*
X37929230Y-39317780D01*
X37897158Y-39323741D01*
X37742524Y-39352066D01*
X37620375Y-39374876D01*
X37526673Y-39393080D01*
X37457384Y-39407583D01*
X37408471Y-39419292D01*
X37375897Y-39429115D01*
X37355628Y-39437956D01*
X37343626Y-39446724D01*
X37341947Y-39448457D01*
X37325184Y-39476371D01*
X37299614Y-39530695D01*
X37267788Y-39604777D01*
X37232260Y-39691965D01*
X37195583Y-39785608D01*
X37160311Y-39879052D01*
X37128996Y-39965647D01*
X37104193Y-40038740D01*
X37088454Y-40091678D01*
X37084332Y-40117811D01*
X37084676Y-40118726D01*
X37098641Y-40140086D01*
X37130322Y-40187084D01*
X37176391Y-40254827D01*
X37233518Y-40338423D01*
X37298373Y-40432982D01*
X37316843Y-40459854D01*
X37382699Y-40557275D01*
X37440650Y-40646163D01*
X37487538Y-40721412D01*
X37520207Y-40777920D01*
X37535500Y-40810581D01*
X37536241Y-40814593D01*
X37523392Y-40835684D01*
X37487888Y-40877464D01*
X37434293Y-40935445D01*
X37367171Y-41005135D01*
X37291087Y-41082045D01*
X37210604Y-41161683D01*
X37130287Y-41239561D01*
X37054699Y-41311186D01*
X36988405Y-41372070D01*
X36935969Y-41417721D01*
X36901955Y-41443650D01*
X36892545Y-41447883D01*
X36870643Y-41437912D01*
X36825800Y-41411020D01*
X36765321Y-41371736D01*
X36718789Y-41340117D01*
X36634475Y-41282098D01*
X36534626Y-41213784D01*
X36434473Y-41145579D01*
X36380627Y-41109075D01*
X36198371Y-40985800D01*
X36045381Y-41068520D01*
X35975682Y-41104759D01*
X35916414Y-41132926D01*
X35876311Y-41148991D01*
X35866103Y-41151226D01*
X35853829Y-41134722D01*
X35829613Y-41088082D01*
X35795263Y-41015609D01*
X35752588Y-40921606D01*
X35703394Y-40810374D01*
X35649490Y-40686215D01*
X35592684Y-40553432D01*
X35534782Y-40416327D01*
X35477593Y-40279202D01*
X35422924Y-40146358D01*
X35372584Y-40022098D01*
X35328380Y-39910725D01*
X35292119Y-39816539D01*
X35265609Y-39743844D01*
X35250658Y-39696941D01*
X35248254Y-39680833D01*
X35267311Y-39660286D01*
X35309036Y-39626933D01*
X35364706Y-39587702D01*
X35369378Y-39584599D01*
X35513264Y-39469423D01*
X35629283Y-39335053D01*
X35716430Y-39185784D01*
X35773699Y-39025913D01*
X35800086Y-38859737D01*
X35794585Y-38691552D01*
X35756190Y-38525655D01*
X35683895Y-38366342D01*
X35662626Y-38331487D01*
X35551996Y-38190737D01*
X35421302Y-38077714D01*
X35275064Y-37993003D01*
X35117808Y-37937194D01*
X34954057Y-37910874D01*
X34788333Y-37914630D01*
X34625162Y-37949050D01*
X34469065Y-38014723D01*
X34324567Y-38112235D01*
X34279869Y-38151813D01*
X34166112Y-38275703D01*
X34083218Y-38406124D01*
X34026356Y-38552315D01*
X33994687Y-38697088D01*
X33986869Y-38859860D01*
X34012938Y-39023440D01*
X34070245Y-39182298D01*
X34156144Y-39330906D01*
X34267986Y-39463735D01*
X34403123Y-39575256D01*
X34420883Y-39587011D01*
X34477150Y-39625508D01*
X34519923Y-39658863D01*
X34540372Y-39680160D01*
X34540669Y-39680833D01*
X34536279Y-39703871D01*
X34518876Y-39756157D01*
X34490268Y-39833390D01*
X34452265Y-39931268D01*
X34406674Y-40045491D01*
X34355303Y-40171758D01*
X34299962Y-40305767D01*
X34242458Y-40443218D01*
X34184601Y-40579808D01*
X34128198Y-40711237D01*
X34075058Y-40833205D01*
X34026990Y-40941409D01*
X33985801Y-41031549D01*
X33953301Y-41099323D01*
X33931297Y-41140430D01*
X33922436Y-41151226D01*
X33895360Y-41142819D01*
X33844697Y-41120272D01*
X33779183Y-41087613D01*
X33743159Y-41068520D01*
X33590168Y-40985800D01*
X33407912Y-41109075D01*
X33314875Y-41172228D01*
X33213015Y-41241727D01*
X33117562Y-41307165D01*
X33069750Y-41340117D01*
X33002505Y-41385273D01*
X32945564Y-41421057D01*
X32906354Y-41442938D01*
X32893619Y-41447563D01*
X32875083Y-41435085D01*
X32834059Y-41400252D01*
X32774525Y-41346678D01*
X32700458Y-41277983D01*
X32615835Y-41197781D01*
X32562315Y-41146286D01*
X32468681Y-41054286D01*
X32387759Y-40971999D01*
X32322823Y-40902945D01*
X32277142Y-40850644D01*
X32253989Y-40818616D01*
X32251768Y-40812116D01*
X32262076Y-40787394D01*
X32290561Y-40737405D01*
X32334063Y-40667212D01*
X32389423Y-40581875D01*
X32453480Y-40486456D01*
X32471697Y-40459854D01*
X32538073Y-40363167D01*
X32597622Y-40276117D01*
X32647016Y-40203595D01*
X32682925Y-40150493D01*
X32702019Y-40121703D01*
X32703864Y-40118726D01*
X32701105Y-40095782D01*
X32686462Y-40045336D01*
X32662487Y-39974041D01*
X32631734Y-39888547D01*
X32596756Y-39795507D01*
X32560107Y-39701574D01*
X32524339Y-39613399D01*
X32492006Y-39537634D01*
X32465662Y-39480931D01*
X32447858Y-39449943D01*
X32446593Y-39448457D01*
X32435706Y-39439601D01*
X32417318Y-39430843D01*
X32387394Y-39421277D01*
X32341897Y-39409996D01*
X32276791Y-39396093D01*
X32188039Y-39378663D01*
X32071607Y-39356798D01*
X31923458Y-39329591D01*
X31891382Y-39323741D01*
X31796314Y-39305374D01*
X31713435Y-39287405D01*
X31650070Y-39271569D01*
X31613542Y-39259600D01*
X31608644Y-39256810D01*
X31600573Y-39232072D01*
X31594013Y-39176790D01*
X31588967Y-39097389D01*
X31585441Y-39000296D01*
X31583439Y-38891938D01*
X31582964Y-38778740D01*
X31584023Y-38667128D01*
X31586618Y-38563529D01*
X31590754Y-38474368D01*
X31596437Y-38406072D01*
X31603669Y-38365066D01*
X31608029Y-38356674D01*
X31632302Y-38348208D01*
X31687574Y-38334435D01*
X31768338Y-38316550D01*
X31869088Y-38295748D01*
X31984317Y-38273223D01*
X32047098Y-38261418D01*
X32166213Y-38239151D01*
X32272435Y-38218979D01*
X32360573Y-38201915D01*
X32425434Y-38188969D01*
X32461826Y-38181155D01*
X32467816Y-38179422D01*
X32477939Y-38159890D01*
X32499338Y-38112843D01*
X32529161Y-38045003D01*
X32564555Y-37963091D01*
X32602668Y-37873828D01*
X32640647Y-37783935D01*
X32675640Y-37700135D01*
X32704794Y-37629147D01*
X32725257Y-37577694D01*
X32734177Y-37552497D01*
X32734343Y-37551396D01*
X32724231Y-37531519D01*
X32695883Y-37485777D01*
X32652277Y-37418717D01*
X32596394Y-37334884D01*
X32531213Y-37238826D01*
X32493321Y-37183650D01*
X32424275Y-37082481D01*
X32362950Y-36990630D01*
X32312337Y-36912744D01*
X32275429Y-36853469D01*
X32255218Y-36817451D01*
X32252299Y-36809377D01*
X32264847Y-36790584D01*
X32299537Y-36750457D01*
X32351937Y-36693493D01*
X32417616Y-36624185D01*
X32492144Y-36547031D01*
X32571087Y-36466525D01*
X32650017Y-36387163D01*
X32724500Y-36313440D01*
X32790106Y-36249852D01*
X32842404Y-36200894D01*
X32876961Y-36171061D01*
X32888522Y-36163942D01*
X32907346Y-36173953D01*
X32952369Y-36202078D01*
X33019213Y-36245454D01*
X33103501Y-36301218D01*
X33200856Y-36366506D01*
X33274293Y-36416246D01*
X33645333Y-36668551D01*
X34263905Y-36413555D01*
X34347725Y-35968931D01*
X34431546Y-35524307D01*
X35356994Y-35524307D01*
X35440814Y-35968931D01*
G36*
X35440814Y-35968931D02*
G01*
X35524635Y-36413555D01*
X35833920Y-36541053D01*
X36143206Y-36668551D01*
X36514246Y-36416246D01*
X36618157Y-36345996D01*
X36712087Y-36283272D01*
X36791652Y-36230938D01*
X36852470Y-36191857D01*
X36890157Y-36168893D01*
X36900421Y-36163942D01*
X36918910Y-36176676D01*
X36958420Y-36211882D01*
X37014522Y-36265062D01*
X37082787Y-36331718D01*
X37158786Y-36407354D01*
X37238092Y-36487472D01*
X37316275Y-36567574D01*
X37388907Y-36643164D01*
X37451559Y-36709745D01*
X37499803Y-36762818D01*
X37529210Y-36797887D01*
X37536241Y-36809623D01*
X37526123Y-36831260D01*
X37497759Y-36878662D01*
X37454129Y-36947193D01*
X37398218Y-37032215D01*
X37333006Y-37129093D01*
X37295219Y-37184350D01*
X37226343Y-37285248D01*
X37165140Y-37376299D01*
X37114578Y-37452970D01*
X37077628Y-37510728D01*
X37057258Y-37545043D01*
X37054197Y-37552254D01*
X37061136Y-37572748D01*
X37080051Y-37620513D01*
X37108087Y-37688832D01*
X37142391Y-37770989D01*
X37180109Y-37860270D01*
X37218387Y-37949958D01*
X37254370Y-38033338D01*
X37285206Y-38103694D01*
X37308039Y-38154310D01*
X37320017Y-38178471D01*
X37320724Y-38179422D01*
X37339531Y-38184036D01*
X37389618Y-38194328D01*
X37465793Y-38209287D01*
X37562865Y-38227901D01*
X37675643Y-38249159D01*
X37741442Y-38261418D01*
X37861950Y-38284362D01*
X37970797Y-38306195D01*
X38062476Y-38325722D01*
X38131481Y-38341748D01*
X38172304Y-38353079D01*
X38180511Y-38356674D01*
X38188548Y-38381006D01*
X38195033Y-38435959D01*
X38199970Y-38515108D01*
X38203364Y-38612026D01*
X38205218Y-38720287D01*
X38205538Y-38833465D01*
X38204327Y-38945135D01*
X38201590Y-39048868D01*
X38197331Y-39138241D01*
X38191555Y-39206826D01*
X38184267Y-39248197D01*
X38179895Y-39256810D01*
X38153764Y-39267133D01*
X38098393Y-39281892D01*
X38021107Y-39299352D01*
X37929230Y-39317780D01*
X37897158Y-39323741D01*
X37742524Y-39352066D01*
X37620375Y-39374876D01*
X37526673Y-39393080D01*
X37457384Y-39407583D01*
X37408471Y-39419292D01*
X37375897Y-39429115D01*
X37355628Y-39437956D01*
X37343626Y-39446724D01*
X37341947Y-39448457D01*
X37325184Y-39476371D01*
X37299614Y-39530695D01*
X37267788Y-39604777D01*
X37232260Y-39691965D01*
X37195583Y-39785608D01*
X37160311Y-39879052D01*
X37128996Y-39965647D01*
X37104193Y-40038740D01*
X37088454Y-40091678D01*
X37084332Y-40117811D01*
X37084676Y-40118726D01*
X37098641Y-40140086D01*
X37130322Y-40187084D01*
X37176391Y-40254827D01*
X37233518Y-40338423D01*
X37298373Y-40432982D01*
X37316843Y-40459854D01*
X37382699Y-40557275D01*
X37440650Y-40646163D01*
X37487538Y-40721412D01*
X37520207Y-40777920D01*
X37535500Y-40810581D01*
X37536241Y-40814593D01*
X37523392Y-40835684D01*
X37487888Y-40877464D01*
X37434293Y-40935445D01*
X37367171Y-41005135D01*
X37291087Y-41082045D01*
X37210604Y-41161683D01*
X37130287Y-41239561D01*
X37054699Y-41311186D01*
X36988405Y-41372070D01*
X36935969Y-41417721D01*
X36901955Y-41443650D01*
X36892545Y-41447883D01*
X36870643Y-41437912D01*
X36825800Y-41411020D01*
X36765321Y-41371736D01*
X36718789Y-41340117D01*
X36634475Y-41282098D01*
X36534626Y-41213784D01*
X36434473Y-41145579D01*
X36380627Y-41109075D01*
X36198371Y-40985800D01*
X36045381Y-41068520D01*
X35975682Y-41104759D01*
X35916414Y-41132926D01*
X35876311Y-41148991D01*
X35866103Y-41151226D01*
X35853829Y-41134722D01*
X35829613Y-41088082D01*
X35795263Y-41015609D01*
X35752588Y-40921606D01*
X35703394Y-40810374D01*
X35649490Y-40686215D01*
X35592684Y-40553432D01*
X35534782Y-40416327D01*
X35477593Y-40279202D01*
X35422924Y-40146358D01*
X35372584Y-40022098D01*
X35328380Y-39910725D01*
X35292119Y-39816539D01*
X35265609Y-39743844D01*
X35250658Y-39696941D01*
X35248254Y-39680833D01*
X35267311Y-39660286D01*
X35309036Y-39626933D01*
X35364706Y-39587702D01*
X35369378Y-39584599D01*
X35513264Y-39469423D01*
X35629283Y-39335053D01*
X35716430Y-39185784D01*
X35773699Y-39025913D01*
X35800086Y-38859737D01*
X35794585Y-38691552D01*
X35756190Y-38525655D01*
X35683895Y-38366342D01*
X35662626Y-38331487D01*
X35551996Y-38190737D01*
X35421302Y-38077714D01*
X35275064Y-37993003D01*
X35117808Y-37937194D01*
X34954057Y-37910874D01*
X34788333Y-37914630D01*
X34625162Y-37949050D01*
X34469065Y-38014723D01*
X34324567Y-38112235D01*
X34279869Y-38151813D01*
X34166112Y-38275703D01*
X34083218Y-38406124D01*
X34026356Y-38552315D01*
X33994687Y-38697088D01*
X33986869Y-38859860D01*
X34012938Y-39023440D01*
X34070245Y-39182298D01*
X34156144Y-39330906D01*
X34267986Y-39463735D01*
X34403123Y-39575256D01*
X34420883Y-39587011D01*
X34477150Y-39625508D01*
X34519923Y-39658863D01*
X34540372Y-39680160D01*
X34540669Y-39680833D01*
X34536279Y-39703871D01*
X34518876Y-39756157D01*
X34490268Y-39833390D01*
X34452265Y-39931268D01*
X34406674Y-40045491D01*
X34355303Y-40171758D01*
X34299962Y-40305767D01*
X34242458Y-40443218D01*
X34184601Y-40579808D01*
X34128198Y-40711237D01*
X34075058Y-40833205D01*
X34026990Y-40941409D01*
X33985801Y-41031549D01*
X33953301Y-41099323D01*
X33931297Y-41140430D01*
X33922436Y-41151226D01*
X33895360Y-41142819D01*
X33844697Y-41120272D01*
X33779183Y-41087613D01*
X33743159Y-41068520D01*
X33590168Y-40985800D01*
X33407912Y-41109075D01*
X33314875Y-41172228D01*
X33213015Y-41241727D01*
X33117562Y-41307165D01*
X33069750Y-41340117D01*
X33002505Y-41385273D01*
X32945564Y-41421057D01*
X32906354Y-41442938D01*
X32893619Y-41447563D01*
X32875083Y-41435085D01*
X32834059Y-41400252D01*
X32774525Y-41346678D01*
X32700458Y-41277983D01*
X32615835Y-41197781D01*
X32562315Y-41146286D01*
X32468681Y-41054286D01*
X32387759Y-40971999D01*
X32322823Y-40902945D01*
X32277142Y-40850644D01*
X32253989Y-40818616D01*
X32251768Y-40812116D01*
X32262076Y-40787394D01*
X32290561Y-40737405D01*
X32334063Y-40667212D01*
X32389423Y-40581875D01*
X32453480Y-40486456D01*
X32471697Y-40459854D01*
X32538073Y-40363167D01*
X32597622Y-40276117D01*
X32647016Y-40203595D01*
X32682925Y-40150493D01*
X32702019Y-40121703D01*
X32703864Y-40118726D01*
X32701105Y-40095782D01*
X32686462Y-40045336D01*
X32662487Y-39974041D01*
X32631734Y-39888547D01*
X32596756Y-39795507D01*
X32560107Y-39701574D01*
X32524339Y-39613399D01*
X32492006Y-39537634D01*
X32465662Y-39480931D01*
X32447858Y-39449943D01*
X32446593Y-39448457D01*
X32435706Y-39439601D01*
X32417318Y-39430843D01*
X32387394Y-39421277D01*
X32341897Y-39409996D01*
X32276791Y-39396093D01*
X32188039Y-39378663D01*
X32071607Y-39356798D01*
X31923458Y-39329591D01*
X31891382Y-39323741D01*
X31796314Y-39305374D01*
X31713435Y-39287405D01*
X31650070Y-39271569D01*
X31613542Y-39259600D01*
X31608644Y-39256810D01*
X31600573Y-39232072D01*
X31594013Y-39176790D01*
X31588967Y-39097389D01*
X31585441Y-39000296D01*
X31583439Y-38891938D01*
X31582964Y-38778740D01*
X31584023Y-38667128D01*
X31586618Y-38563529D01*
X31590754Y-38474368D01*
X31596437Y-38406072D01*
X31603669Y-38365066D01*
X31608029Y-38356674D01*
X31632302Y-38348208D01*
X31687574Y-38334435D01*
X31768338Y-38316550D01*
X31869088Y-38295748D01*
X31984317Y-38273223D01*
X32047098Y-38261418D01*
X32166213Y-38239151D01*
X32272435Y-38218979D01*
X32360573Y-38201915D01*
X32425434Y-38188969D01*
X32461826Y-38181155D01*
X32467816Y-38179422D01*
X32477939Y-38159890D01*
X32499338Y-38112843D01*
X32529161Y-38045003D01*
X32564555Y-37963091D01*
X32602668Y-37873828D01*
X32640647Y-37783935D01*
X32675640Y-37700135D01*
X32704794Y-37629147D01*
X32725257Y-37577694D01*
X32734177Y-37552497D01*
X32734343Y-37551396D01*
X32724231Y-37531519D01*
X32695883Y-37485777D01*
X32652277Y-37418717D01*
X32596394Y-37334884D01*
X32531213Y-37238826D01*
X32493321Y-37183650D01*
X32424275Y-37082481D01*
X32362950Y-36990630D01*
X32312337Y-36912744D01*
X32275429Y-36853469D01*
X32255218Y-36817451D01*
X32252299Y-36809377D01*
X32264847Y-36790584D01*
X32299537Y-36750457D01*
X32351937Y-36693493D01*
X32417616Y-36624185D01*
X32492144Y-36547031D01*
X32571087Y-36466525D01*
X32650017Y-36387163D01*
X32724500Y-36313440D01*
X32790106Y-36249852D01*
X32842404Y-36200894D01*
X32876961Y-36171061D01*
X32888522Y-36163942D01*
X32907346Y-36173953D01*
X32952369Y-36202078D01*
X33019213Y-36245454D01*
X33103501Y-36301218D01*
X33200856Y-36366506D01*
X33274293Y-36416246D01*
X33645333Y-36668551D01*
X34263905Y-36413555D01*
X34347725Y-35968931D01*
X34431546Y-35524307D01*
X35356994Y-35524307D01*
X35440814Y-35968931D01*
G37*
D10*
X49535000Y-57891800D02*
X36962000Y-57891800D01*
X49535000Y-57891800D02*
X49535000Y-58470000D01*
X49535000Y-58470000D02*
X51535000Y-58470000D01*
X51535000Y-64070000D02*
X51535000Y-58470000D01*
X49535000Y-64070000D02*
X51535000Y-64070000D01*
X49535000Y-64070000D02*
X49535000Y-64648200D01*
X49535000Y-64648200D02*
X36962000Y-64648200D01*
X36962000Y-64648200D02*
X36962000Y-57891800D01*
X18476800Y-20363500D02*
X18476800Y-32936500D01*
X18476800Y-20363500D02*
X19055000Y-20363500D01*
X19055000Y-20363500D02*
X19055000Y-18363500D01*
X24655000Y-18363500D02*
X19055000Y-18363500D01*
X24655000Y-20363500D02*
X24655000Y-18363500D01*
X24655000Y-20363500D02*
X25233200Y-20363500D01*
X25233200Y-20363500D02*
X25233200Y-32936500D01*
X25233200Y-32936500D02*
X18476800Y-32936500D01*
X44556800Y-20363500D02*
X44556800Y-32936500D01*
X44556800Y-20363500D02*
X45135000Y-20363500D01*
X45135000Y-20363500D02*
X45135000Y-18363500D01*
X50735000Y-18363500D02*
X45135000Y-18363500D01*
X50735000Y-20363500D02*
X50735000Y-18363500D01*
X50735000Y-20363500D02*
X51313200Y-20363500D01*
X51313200Y-20363500D02*
X51313200Y-32936500D01*
X51313200Y-32936500D02*
X44556800Y-32936500D01*
D13*
X27265000Y-24530000D03*
X27265000Y-27070000D03*
D14*
X27265000Y-29610000D03*
X27265000Y-32150000D03*
D13*
X27265000Y-34690000D03*
X27265000Y-37230000D03*
X27265000Y-39770000D03*
X27265000Y-42310000D03*
X27265000Y-44850000D03*
X27265000Y-47390000D03*
X27265000Y-49930000D03*
X27265000Y-52470000D03*
X42505000Y-52470000D03*
X42505000Y-49930000D03*
X42505000Y-47390000D03*
X42505000Y-44850000D03*
X42505000Y-42310000D03*
X42505000Y-39770000D03*
X42505000Y-37230000D03*
X42505000Y-34690000D03*
D15*
X42505000Y-32150000D03*
D13*
X42505000Y-29610000D03*
D14*
X42505000Y-27070000D03*
D13*
X42505000Y-24530000D03*
%LPC*%
D16*
X21855000Y-61270000D03*
D17*
X28855000Y-61270000D03*
D18*
X31555000Y-63570000D03*
D19*
X24155000Y-58970000D03*
D18*
X26455000Y-58970000D03*
X30455000Y-58970000D03*
D20*
X38135000Y-55840000D03*
X31635000Y-55840000D03*
D13*
X27265000Y-24530000D03*
X27265000Y-27070000D03*
D14*
X27265000Y-29610000D03*
X27265000Y-32150000D03*
D13*
X27265000Y-34690000D03*
X27265000Y-37230000D03*
X27265000Y-39770000D03*
X27265000Y-42310000D03*
X27265000Y-44850000D03*
X27265000Y-47390000D03*
X27265000Y-49930000D03*
X27265000Y-52470000D03*
X42505000Y-52470000D03*
X42505000Y-49930000D03*
X42505000Y-47390000D03*
X42505000Y-44850000D03*
X42505000Y-42310000D03*
X42505000Y-39770000D03*
X42505000Y-37230000D03*
X42505000Y-34690000D03*
D15*
X42505000Y-32150000D03*
D13*
X42505000Y-29610000D03*
D14*
X42505000Y-27070000D03*
D13*
X42505000Y-24530000D03*
D16*
X47935000Y-61270000D03*
D17*
X40935000Y-61270000D03*
D18*
X38235000Y-58970000D03*
D19*
X45635000Y-63570000D03*
D18*
X43335000Y-63570000D03*
X39335000Y-63570000D03*
D16*
X21855000Y-21963500D03*
D17*
X21855000Y-28963500D03*
D21*
X19555000Y-31663500D03*
D22*
X24155000Y-24263500D03*
D21*
X24155000Y-26563500D03*
X24155000Y-30563500D03*
D23*
X50015000Y-34690000D03*
X50015000Y-37230000D03*
X50015000Y-39770000D03*
X50015000Y-42310000D03*
X50015000Y-44850000D03*
X50015000Y-47390000D03*
X50015000Y-49930000D03*
X50015000Y-52470000D03*
X50015000Y-55010000D03*
D24*
X47475000Y-34690000D03*
D23*
X47475000Y-37230000D03*
X47475000Y-39770000D03*
X47475000Y-42310000D03*
X47475000Y-44850000D03*
X47475000Y-47390000D03*
X47475000Y-49930000D03*
X47475000Y-52470000D03*
X47475000Y-55010000D03*
D16*
X47935000Y-21963500D03*
D17*
X47935000Y-28963500D03*
D21*
X45635000Y-31663500D03*
D22*
X50235000Y-24263500D03*
D21*
X50235000Y-26563500D03*
X50235000Y-30563500D03*
D23*
X19795000Y-34690000D03*
X19795000Y-37230000D03*
X19795000Y-39770000D03*
X19795000Y-42310000D03*
X19795000Y-44850000D03*
X19795000Y-47390000D03*
X19795000Y-49930000D03*
X19795000Y-52470000D03*
X19795000Y-55010000D03*
D24*
X22335000Y-34690000D03*
D23*
X22335000Y-37230000D03*
X22335000Y-39770000D03*
X22335000Y-42310000D03*
X22335000Y-44850000D03*
X22335000Y-47390000D03*
X22335000Y-49930000D03*
X22335000Y-52470000D03*
X22335000Y-55010000D03*
%LPD*%
M02*
