G04 #@! TF.GenerationSoftware,KiCad,Pcbnew,7.0.5*
G04 #@! TF.CreationDate,2023-06-22T01:51:59+08:00*
G04 #@! TF.ProjectId,handwire microboard,68616e64-7769-4726-9520-6d6963726f62,rev?*
G04 #@! TF.SameCoordinates,Original*
G04 #@! TF.FileFunction,Legend,Top*
G04 #@! TF.FilePolarity,Positive*
%FSLAX46Y46*%
G04 Gerber Fmt 4.6, Leading zero omitted, Abs format (unit mm)*
G04 Created by KiCad (PCBNEW 7.0.5) date 2023-06-22 01:51:59*
%MOMM*%
%LPD*%
G01*
G04 APERTURE LIST*
G04 Aperture macros list*
%AMRoundRect*
0 Rectangle with rounded corners*
0 $1 Rounding radius*
0 $2 $3 $4 $5 $6 $7 $8 $9 X,Y pos of 4 corners*
0 Add a 4 corners polygon primitive as box body*
4,1,4,$2,$3,$4,$5,$6,$7,$8,$9,$2,$3,0*
0 Add four circle primitives for the rounded corners*
1,1,$1+$1,$2,$3*
1,1,$1+$1,$4,$5*
1,1,$1+$1,$6,$7*
1,1,$1+$1,$8,$9*
0 Add four rect primitives between the rounded corners*
20,1,$1+$1,$2,$3,$4,$5,0*
20,1,$1+$1,$4,$5,$6,$7,0*
20,1,$1+$1,$6,$7,$8,$9,0*
20,1,$1+$1,$8,$9,$2,$3,0*%
%AMOutline4P*
0 Free polygon, 4 corners , with rotation*
0 The origin of the aperture is its center*
0 number of corners: always 4*
0 $1 to $8 corner X, Y*
0 $9 Rotation angle, in degrees counterclockwise*
0 create outline with 4 corners*
4,1,4,$1,$2,$3,$4,$5,$6,$7,$8,$1,$2,$9*%
G04 Aperture macros list end*
%ADD10C,0.150000*%
%ADD11C,0.120000*%
%ADD12C,0.010000*%
%ADD13C,1.752600*%
%ADD14Outline4P,-0.876300X-0.876300X0.876300X-0.876300X0.876300X0.876300X-0.876300X0.876300X270.000000*%
%ADD15R,1.752600X1.752600*%
%ADD16RoundRect,0.438150X-0.438150X0.438150X-0.438150X-0.438150X0.438150X-0.438150X0.438150X0.438150X0*%
%ADD17C,1.700000*%
%ADD18O,1.700000X1.700000*%
%ADD19Outline4P,-0.850000X-0.850000X0.850000X-0.850000X0.850000X0.850000X-0.850000X0.850000X90.000000*%
%ADD20C,0.800000*%
%ADD21O,1.576000X3.029000*%
%ADD22O,1.600000X2.000000*%
%ADD23C,2.000000*%
%ADD24C,2.200000*%
%ADD25O,3.029000X1.576000*%
%ADD26O,2.000000X1.600000*%
G04 APERTURE END LIST*
D10*
X85970333Y-120839033D02*
X85970333Y-120139033D01*
X85970333Y-120139033D02*
X86137000Y-120139033D01*
X86137000Y-120139033D02*
X86237000Y-120172366D01*
X86237000Y-120172366D02*
X86303667Y-120239033D01*
X86303667Y-120239033D02*
X86337000Y-120305700D01*
X86337000Y-120305700D02*
X86370333Y-120439033D01*
X86370333Y-120439033D02*
X86370333Y-120539033D01*
X86370333Y-120539033D02*
X86337000Y-120672366D01*
X86337000Y-120672366D02*
X86303667Y-120739033D01*
X86303667Y-120739033D02*
X86237000Y-120805700D01*
X86237000Y-120805700D02*
X86137000Y-120839033D01*
X86137000Y-120839033D02*
X85970333Y-120839033D01*
X86637000Y-120205700D02*
X86670333Y-120172366D01*
X86670333Y-120172366D02*
X86737000Y-120139033D01*
X86737000Y-120139033D02*
X86903667Y-120139033D01*
X86903667Y-120139033D02*
X86970333Y-120172366D01*
X86970333Y-120172366D02*
X87003667Y-120205700D01*
X87003667Y-120205700D02*
X87037000Y-120272366D01*
X87037000Y-120272366D02*
X87037000Y-120339033D01*
X87037000Y-120339033D02*
X87003667Y-120439033D01*
X87003667Y-120439033D02*
X86603667Y-120839033D01*
X86603667Y-120839033D02*
X87037000Y-120839033D01*
X88510333Y-120839033D02*
X88510333Y-120139033D01*
X88510333Y-120139033D02*
X88677000Y-120139033D01*
X88677000Y-120139033D02*
X88777000Y-120172366D01*
X88777000Y-120172366D02*
X88843667Y-120239033D01*
X88843667Y-120239033D02*
X88877000Y-120305700D01*
X88877000Y-120305700D02*
X88910333Y-120439033D01*
X88910333Y-120439033D02*
X88910333Y-120539033D01*
X88910333Y-120539033D02*
X88877000Y-120672366D01*
X88877000Y-120672366D02*
X88843667Y-120739033D01*
X88843667Y-120739033D02*
X88777000Y-120805700D01*
X88777000Y-120805700D02*
X88677000Y-120839033D01*
X88677000Y-120839033D02*
X88510333Y-120839033D01*
X89143667Y-120139033D02*
X89577000Y-120139033D01*
X89577000Y-120139033D02*
X89343667Y-120405700D01*
X89343667Y-120405700D02*
X89443667Y-120405700D01*
X89443667Y-120405700D02*
X89510333Y-120439033D01*
X89510333Y-120439033D02*
X89543667Y-120472366D01*
X89543667Y-120472366D02*
X89577000Y-120539033D01*
X89577000Y-120539033D02*
X89577000Y-120705700D01*
X89577000Y-120705700D02*
X89543667Y-120772366D01*
X89543667Y-120772366D02*
X89510333Y-120805700D01*
X89510333Y-120805700D02*
X89443667Y-120839033D01*
X89443667Y-120839033D02*
X89243667Y-120839033D01*
X89243667Y-120839033D02*
X89177000Y-120805700D01*
X89177000Y-120805700D02*
X89143667Y-120772366D01*
X91050333Y-120839033D02*
X91050333Y-120139033D01*
X91050333Y-120139033D02*
X91217000Y-120139033D01*
X91217000Y-120139033D02*
X91317000Y-120172366D01*
X91317000Y-120172366D02*
X91383667Y-120239033D01*
X91383667Y-120239033D02*
X91417000Y-120305700D01*
X91417000Y-120305700D02*
X91450333Y-120439033D01*
X91450333Y-120439033D02*
X91450333Y-120539033D01*
X91450333Y-120539033D02*
X91417000Y-120672366D01*
X91417000Y-120672366D02*
X91383667Y-120739033D01*
X91383667Y-120739033D02*
X91317000Y-120805700D01*
X91317000Y-120805700D02*
X91217000Y-120839033D01*
X91217000Y-120839033D02*
X91050333Y-120839033D01*
X92117000Y-120839033D02*
X91717000Y-120839033D01*
X91917000Y-120839033D02*
X91917000Y-120139033D01*
X91917000Y-120139033D02*
X91850333Y-120239033D01*
X91850333Y-120239033D02*
X91783667Y-120305700D01*
X91783667Y-120305700D02*
X91717000Y-120339033D01*
X93823667Y-120472366D02*
X93923667Y-120505700D01*
X93923667Y-120505700D02*
X93957000Y-120539033D01*
X93957000Y-120539033D02*
X93990333Y-120605700D01*
X93990333Y-120605700D02*
X93990333Y-120705700D01*
X93990333Y-120705700D02*
X93957000Y-120772366D01*
X93957000Y-120772366D02*
X93923667Y-120805700D01*
X93923667Y-120805700D02*
X93857000Y-120839033D01*
X93857000Y-120839033D02*
X93590333Y-120839033D01*
X93590333Y-120839033D02*
X93590333Y-120139033D01*
X93590333Y-120139033D02*
X93823667Y-120139033D01*
X93823667Y-120139033D02*
X93890333Y-120172366D01*
X93890333Y-120172366D02*
X93923667Y-120205700D01*
X93923667Y-120205700D02*
X93957000Y-120272366D01*
X93957000Y-120272366D02*
X93957000Y-120339033D01*
X93957000Y-120339033D02*
X93923667Y-120405700D01*
X93923667Y-120405700D02*
X93890333Y-120439033D01*
X93890333Y-120439033D02*
X93823667Y-120472366D01*
X93823667Y-120472366D02*
X93590333Y-120472366D01*
X94223667Y-120139033D02*
X94690333Y-120139033D01*
X94690333Y-120139033D02*
X94390333Y-120839033D01*
X96130333Y-120839033D02*
X96130333Y-120139033D01*
X96130333Y-120139033D02*
X96297000Y-120139033D01*
X96297000Y-120139033D02*
X96397000Y-120172366D01*
X96397000Y-120172366D02*
X96463667Y-120239033D01*
X96463667Y-120239033D02*
X96497000Y-120305700D01*
X96497000Y-120305700D02*
X96530333Y-120439033D01*
X96530333Y-120439033D02*
X96530333Y-120539033D01*
X96530333Y-120539033D02*
X96497000Y-120672366D01*
X96497000Y-120672366D02*
X96463667Y-120739033D01*
X96463667Y-120739033D02*
X96397000Y-120805700D01*
X96397000Y-120805700D02*
X96297000Y-120839033D01*
X96297000Y-120839033D02*
X96130333Y-120839033D01*
X97163667Y-120139033D02*
X96830333Y-120139033D01*
X96830333Y-120139033D02*
X96797000Y-120472366D01*
X96797000Y-120472366D02*
X96830333Y-120439033D01*
X96830333Y-120439033D02*
X96897000Y-120405700D01*
X96897000Y-120405700D02*
X97063667Y-120405700D01*
X97063667Y-120405700D02*
X97130333Y-120439033D01*
X97130333Y-120439033D02*
X97163667Y-120472366D01*
X97163667Y-120472366D02*
X97197000Y-120539033D01*
X97197000Y-120539033D02*
X97197000Y-120705700D01*
X97197000Y-120705700D02*
X97163667Y-120772366D01*
X97163667Y-120772366D02*
X97130333Y-120805700D01*
X97130333Y-120805700D02*
X97063667Y-120839033D01*
X97063667Y-120839033D02*
X96897000Y-120839033D01*
X96897000Y-120839033D02*
X96830333Y-120805700D01*
X96830333Y-120805700D02*
X96797000Y-120772366D01*
X99070333Y-120772366D02*
X99037000Y-120805700D01*
X99037000Y-120805700D02*
X98937000Y-120839033D01*
X98937000Y-120839033D02*
X98870333Y-120839033D01*
X98870333Y-120839033D02*
X98770333Y-120805700D01*
X98770333Y-120805700D02*
X98703667Y-120739033D01*
X98703667Y-120739033D02*
X98670333Y-120672366D01*
X98670333Y-120672366D02*
X98637000Y-120539033D01*
X98637000Y-120539033D02*
X98637000Y-120439033D01*
X98637000Y-120439033D02*
X98670333Y-120305700D01*
X98670333Y-120305700D02*
X98703667Y-120239033D01*
X98703667Y-120239033D02*
X98770333Y-120172366D01*
X98770333Y-120172366D02*
X98870333Y-120139033D01*
X98870333Y-120139033D02*
X98937000Y-120139033D01*
X98937000Y-120139033D02*
X99037000Y-120172366D01*
X99037000Y-120172366D02*
X99070333Y-120205700D01*
X99303667Y-120139033D02*
X99770333Y-120139033D01*
X99770333Y-120139033D02*
X99470333Y-120839033D01*
X101493667Y-120472366D02*
X101260333Y-120472366D01*
X101260333Y-120839033D02*
X101260333Y-120139033D01*
X101260333Y-120139033D02*
X101593667Y-120139033D01*
X102227000Y-120839033D02*
X101827000Y-120839033D01*
X102027000Y-120839033D02*
X102027000Y-120139033D01*
X102027000Y-120139033D02*
X101960333Y-120239033D01*
X101960333Y-120239033D02*
X101893667Y-120305700D01*
X101893667Y-120305700D02*
X101827000Y-120339033D01*
X104033667Y-120472366D02*
X103800333Y-120472366D01*
X103800333Y-120839033D02*
X103800333Y-120139033D01*
X103800333Y-120139033D02*
X104133667Y-120139033D01*
X104533667Y-120139033D02*
X104600333Y-120139033D01*
X104600333Y-120139033D02*
X104667000Y-120172366D01*
X104667000Y-120172366D02*
X104700333Y-120205700D01*
X104700333Y-120205700D02*
X104733667Y-120272366D01*
X104733667Y-120272366D02*
X104767000Y-120405700D01*
X104767000Y-120405700D02*
X104767000Y-120572366D01*
X104767000Y-120572366D02*
X104733667Y-120705700D01*
X104733667Y-120705700D02*
X104700333Y-120772366D01*
X104700333Y-120772366D02*
X104667000Y-120805700D01*
X104667000Y-120805700D02*
X104600333Y-120839033D01*
X104600333Y-120839033D02*
X104533667Y-120839033D01*
X104533667Y-120839033D02*
X104467000Y-120805700D01*
X104467000Y-120805700D02*
X104433667Y-120772366D01*
X104433667Y-120772366D02*
X104400333Y-120705700D01*
X104400333Y-120705700D02*
X104367000Y-120572366D01*
X104367000Y-120572366D02*
X104367000Y-120405700D01*
X104367000Y-120405700D02*
X104400333Y-120272366D01*
X104400333Y-120272366D02*
X104433667Y-120205700D01*
X104433667Y-120205700D02*
X104467000Y-120172366D01*
X104467000Y-120172366D02*
X104533667Y-120139033D01*
X106573667Y-120472366D02*
X106340333Y-120472366D01*
X106340333Y-120839033D02*
X106340333Y-120139033D01*
X106340333Y-120139033D02*
X106673667Y-120139033D01*
X107240333Y-120372366D02*
X107240333Y-120839033D01*
X107073667Y-120105700D02*
X106907000Y-120605700D01*
X106907000Y-120605700D02*
X107340333Y-120605700D01*
X109113667Y-120472366D02*
X108880333Y-120472366D01*
X108880333Y-120839033D02*
X108880333Y-120139033D01*
X108880333Y-120139033D02*
X109213667Y-120139033D01*
X109813667Y-120139033D02*
X109480333Y-120139033D01*
X109480333Y-120139033D02*
X109447000Y-120472366D01*
X109447000Y-120472366D02*
X109480333Y-120439033D01*
X109480333Y-120439033D02*
X109547000Y-120405700D01*
X109547000Y-120405700D02*
X109713667Y-120405700D01*
X109713667Y-120405700D02*
X109780333Y-120439033D01*
X109780333Y-120439033D02*
X109813667Y-120472366D01*
X109813667Y-120472366D02*
X109847000Y-120539033D01*
X109847000Y-120539033D02*
X109847000Y-120705700D01*
X109847000Y-120705700D02*
X109813667Y-120772366D01*
X109813667Y-120772366D02*
X109780333Y-120805700D01*
X109780333Y-120805700D02*
X109713667Y-120839033D01*
X109713667Y-120839033D02*
X109547000Y-120839033D01*
X109547000Y-120839033D02*
X109480333Y-120805700D01*
X109480333Y-120805700D02*
X109447000Y-120772366D01*
X111353667Y-120172366D02*
X111287000Y-120139033D01*
X111287000Y-120139033D02*
X111187000Y-120139033D01*
X111187000Y-120139033D02*
X111087000Y-120172366D01*
X111087000Y-120172366D02*
X111020334Y-120239033D01*
X111020334Y-120239033D02*
X110987000Y-120305700D01*
X110987000Y-120305700D02*
X110953667Y-120439033D01*
X110953667Y-120439033D02*
X110953667Y-120539033D01*
X110953667Y-120539033D02*
X110987000Y-120672366D01*
X110987000Y-120672366D02*
X111020334Y-120739033D01*
X111020334Y-120739033D02*
X111087000Y-120805700D01*
X111087000Y-120805700D02*
X111187000Y-120839033D01*
X111187000Y-120839033D02*
X111253667Y-120839033D01*
X111253667Y-120839033D02*
X111353667Y-120805700D01*
X111353667Y-120805700D02*
X111387000Y-120772366D01*
X111387000Y-120772366D02*
X111387000Y-120539033D01*
X111387000Y-120539033D02*
X111253667Y-120539033D01*
X111687000Y-120839033D02*
X111687000Y-120139033D01*
X111687000Y-120139033D02*
X112087000Y-120839033D01*
X112087000Y-120839033D02*
X112087000Y-120139033D01*
X112420333Y-120839033D02*
X112420333Y-120139033D01*
X112420333Y-120139033D02*
X112587000Y-120139033D01*
X112587000Y-120139033D02*
X112687000Y-120172366D01*
X112687000Y-120172366D02*
X112753667Y-120239033D01*
X112753667Y-120239033D02*
X112787000Y-120305700D01*
X112787000Y-120305700D02*
X112820333Y-120439033D01*
X112820333Y-120439033D02*
X112820333Y-120539033D01*
X112820333Y-120539033D02*
X112787000Y-120672366D01*
X112787000Y-120672366D02*
X112753667Y-120739033D01*
X112753667Y-120739033D02*
X112687000Y-120805700D01*
X112687000Y-120805700D02*
X112587000Y-120839033D01*
X112587000Y-120839033D02*
X112420333Y-120839033D01*
X112753800Y-88827100D02*
X112853800Y-88860433D01*
X112853800Y-88860433D02*
X113020467Y-88860433D01*
X113020467Y-88860433D02*
X113087133Y-88827100D01*
X113087133Y-88827100D02*
X113120467Y-88793766D01*
X113120467Y-88793766D02*
X113153800Y-88727100D01*
X113153800Y-88727100D02*
X113153800Y-88660433D01*
X113153800Y-88660433D02*
X113120467Y-88593766D01*
X113120467Y-88593766D02*
X113087133Y-88560433D01*
X113087133Y-88560433D02*
X113020467Y-88527100D01*
X113020467Y-88527100D02*
X112887133Y-88493766D01*
X112887133Y-88493766D02*
X112820467Y-88460433D01*
X112820467Y-88460433D02*
X112787133Y-88427100D01*
X112787133Y-88427100D02*
X112753800Y-88360433D01*
X112753800Y-88360433D02*
X112753800Y-88293766D01*
X112753800Y-88293766D02*
X112787133Y-88227100D01*
X112787133Y-88227100D02*
X112820467Y-88193766D01*
X112820467Y-88193766D02*
X112887133Y-88160433D01*
X112887133Y-88160433D02*
X113053800Y-88160433D01*
X113053800Y-88160433D02*
X113153800Y-88193766D01*
X111861667Y-91267166D02*
X111795000Y-91233833D01*
X111795000Y-91233833D02*
X111695000Y-91233833D01*
X111695000Y-91233833D02*
X111595000Y-91267166D01*
X111595000Y-91267166D02*
X111528334Y-91333833D01*
X111528334Y-91333833D02*
X111495000Y-91400500D01*
X111495000Y-91400500D02*
X111461667Y-91533833D01*
X111461667Y-91533833D02*
X111461667Y-91633833D01*
X111461667Y-91633833D02*
X111495000Y-91767166D01*
X111495000Y-91767166D02*
X111528334Y-91833833D01*
X111528334Y-91833833D02*
X111595000Y-91900500D01*
X111595000Y-91900500D02*
X111695000Y-91933833D01*
X111695000Y-91933833D02*
X111761667Y-91933833D01*
X111761667Y-91933833D02*
X111861667Y-91900500D01*
X111861667Y-91900500D02*
X111895000Y-91867166D01*
X111895000Y-91867166D02*
X111895000Y-91633833D01*
X111895000Y-91633833D02*
X111761667Y-91633833D01*
X112195000Y-91933833D02*
X112195000Y-91233833D01*
X112195000Y-91233833D02*
X112595000Y-91933833D01*
X112595000Y-91933833D02*
X112595000Y-91233833D01*
X112928333Y-91933833D02*
X112928333Y-91233833D01*
X112928333Y-91233833D02*
X113095000Y-91233833D01*
X113095000Y-91233833D02*
X113195000Y-91267166D01*
X113195000Y-91267166D02*
X113261667Y-91333833D01*
X113261667Y-91333833D02*
X113295000Y-91400500D01*
X113295000Y-91400500D02*
X113328333Y-91533833D01*
X113328333Y-91533833D02*
X113328333Y-91633833D01*
X113328333Y-91633833D02*
X113295000Y-91767166D01*
X113295000Y-91767166D02*
X113261667Y-91833833D01*
X113261667Y-91833833D02*
X113195000Y-91900500D01*
X113195000Y-91900500D02*
X113095000Y-91933833D01*
X113095000Y-91933833D02*
X112928333Y-91933833D01*
X112388667Y-95678833D02*
X112055333Y-95678833D01*
X112055333Y-95678833D02*
X112022000Y-96012166D01*
X112022000Y-96012166D02*
X112055333Y-95978833D01*
X112055333Y-95978833D02*
X112122000Y-95945500D01*
X112122000Y-95945500D02*
X112288667Y-95945500D01*
X112288667Y-95945500D02*
X112355333Y-95978833D01*
X112355333Y-95978833D02*
X112388667Y-96012166D01*
X112388667Y-96012166D02*
X112422000Y-96078833D01*
X112422000Y-96078833D02*
X112422000Y-96245500D01*
X112422000Y-96245500D02*
X112388667Y-96312166D01*
X112388667Y-96312166D02*
X112355333Y-96345500D01*
X112355333Y-96345500D02*
X112288667Y-96378833D01*
X112288667Y-96378833D02*
X112122000Y-96378833D01*
X112122000Y-96378833D02*
X112055333Y-96345500D01*
X112055333Y-96345500D02*
X112022000Y-96312166D01*
X112622000Y-95678833D02*
X112855334Y-96378833D01*
X112855334Y-96378833D02*
X113088667Y-95678833D01*
X108707267Y-102387566D02*
X108473933Y-102387566D01*
X108473933Y-102754233D02*
X108473933Y-102054233D01*
X108473933Y-102054233D02*
X108807267Y-102054233D01*
X109373933Y-102054233D02*
X109240600Y-102054233D01*
X109240600Y-102054233D02*
X109173933Y-102087566D01*
X109173933Y-102087566D02*
X109140600Y-102120900D01*
X109140600Y-102120900D02*
X109073933Y-102220900D01*
X109073933Y-102220900D02*
X109040600Y-102354233D01*
X109040600Y-102354233D02*
X109040600Y-102620900D01*
X109040600Y-102620900D02*
X109073933Y-102687566D01*
X109073933Y-102687566D02*
X109107267Y-102720900D01*
X109107267Y-102720900D02*
X109173933Y-102754233D01*
X109173933Y-102754233D02*
X109307267Y-102754233D01*
X109307267Y-102754233D02*
X109373933Y-102720900D01*
X109373933Y-102720900D02*
X109407267Y-102687566D01*
X109407267Y-102687566D02*
X109440600Y-102620900D01*
X109440600Y-102620900D02*
X109440600Y-102454233D01*
X109440600Y-102454233D02*
X109407267Y-102387566D01*
X109407267Y-102387566D02*
X109373933Y-102354233D01*
X109373933Y-102354233D02*
X109307267Y-102320900D01*
X109307267Y-102320900D02*
X109173933Y-102320900D01*
X109173933Y-102320900D02*
X109107267Y-102354233D01*
X109107267Y-102354233D02*
X109073933Y-102387566D01*
X109073933Y-102387566D02*
X109040600Y-102454233D01*
X108681867Y-104902166D02*
X108448533Y-104902166D01*
X108448533Y-105268833D02*
X108448533Y-104568833D01*
X108448533Y-104568833D02*
X108781867Y-104568833D01*
X108981867Y-104568833D02*
X109448533Y-104568833D01*
X109448533Y-104568833D02*
X109148533Y-105268833D01*
X108657267Y-115036766D02*
X108757267Y-115070100D01*
X108757267Y-115070100D02*
X108790600Y-115103433D01*
X108790600Y-115103433D02*
X108823933Y-115170100D01*
X108823933Y-115170100D02*
X108823933Y-115270100D01*
X108823933Y-115270100D02*
X108790600Y-115336766D01*
X108790600Y-115336766D02*
X108757267Y-115370100D01*
X108757267Y-115370100D02*
X108690600Y-115403433D01*
X108690600Y-115403433D02*
X108423933Y-115403433D01*
X108423933Y-115403433D02*
X108423933Y-114703433D01*
X108423933Y-114703433D02*
X108657267Y-114703433D01*
X108657267Y-114703433D02*
X108723933Y-114736766D01*
X108723933Y-114736766D02*
X108757267Y-114770100D01*
X108757267Y-114770100D02*
X108790600Y-114836766D01*
X108790600Y-114836766D02*
X108790600Y-114903433D01*
X108790600Y-114903433D02*
X108757267Y-114970100D01*
X108757267Y-114970100D02*
X108723933Y-115003433D01*
X108723933Y-115003433D02*
X108657267Y-115036766D01*
X108657267Y-115036766D02*
X108423933Y-115036766D01*
X109423933Y-114703433D02*
X109290600Y-114703433D01*
X109290600Y-114703433D02*
X109223933Y-114736766D01*
X109223933Y-114736766D02*
X109190600Y-114770100D01*
X109190600Y-114770100D02*
X109123933Y-114870100D01*
X109123933Y-114870100D02*
X109090600Y-115003433D01*
X109090600Y-115003433D02*
X109090600Y-115270100D01*
X109090600Y-115270100D02*
X109123933Y-115336766D01*
X109123933Y-115336766D02*
X109157267Y-115370100D01*
X109157267Y-115370100D02*
X109223933Y-115403433D01*
X109223933Y-115403433D02*
X109357267Y-115403433D01*
X109357267Y-115403433D02*
X109423933Y-115370100D01*
X109423933Y-115370100D02*
X109457267Y-115336766D01*
X109457267Y-115336766D02*
X109490600Y-115270100D01*
X109490600Y-115270100D02*
X109490600Y-115103433D01*
X109490600Y-115103433D02*
X109457267Y-115036766D01*
X109457267Y-115036766D02*
X109423933Y-115003433D01*
X109423933Y-115003433D02*
X109357267Y-114970100D01*
X109357267Y-114970100D02*
X109223933Y-114970100D01*
X109223933Y-114970100D02*
X109157267Y-115003433D01*
X109157267Y-115003433D02*
X109123933Y-115036766D01*
X109123933Y-115036766D02*
X109090600Y-115103433D01*
X108657267Y-112496766D02*
X108757267Y-112530100D01*
X108757267Y-112530100D02*
X108790600Y-112563433D01*
X108790600Y-112563433D02*
X108823933Y-112630100D01*
X108823933Y-112630100D02*
X108823933Y-112730100D01*
X108823933Y-112730100D02*
X108790600Y-112796766D01*
X108790600Y-112796766D02*
X108757267Y-112830100D01*
X108757267Y-112830100D02*
X108690600Y-112863433D01*
X108690600Y-112863433D02*
X108423933Y-112863433D01*
X108423933Y-112863433D02*
X108423933Y-112163433D01*
X108423933Y-112163433D02*
X108657267Y-112163433D01*
X108657267Y-112163433D02*
X108723933Y-112196766D01*
X108723933Y-112196766D02*
X108757267Y-112230100D01*
X108757267Y-112230100D02*
X108790600Y-112296766D01*
X108790600Y-112296766D02*
X108790600Y-112363433D01*
X108790600Y-112363433D02*
X108757267Y-112430100D01*
X108757267Y-112430100D02*
X108723933Y-112463433D01*
X108723933Y-112463433D02*
X108657267Y-112496766D01*
X108657267Y-112496766D02*
X108423933Y-112496766D01*
X109090600Y-112230100D02*
X109123933Y-112196766D01*
X109123933Y-112196766D02*
X109190600Y-112163433D01*
X109190600Y-112163433D02*
X109357267Y-112163433D01*
X109357267Y-112163433D02*
X109423933Y-112196766D01*
X109423933Y-112196766D02*
X109457267Y-112230100D01*
X109457267Y-112230100D02*
X109490600Y-112296766D01*
X109490600Y-112296766D02*
X109490600Y-112363433D01*
X109490600Y-112363433D02*
X109457267Y-112463433D01*
X109457267Y-112463433D02*
X109057267Y-112863433D01*
X109057267Y-112863433D02*
X109490600Y-112863433D01*
X108657267Y-110007566D02*
X108757267Y-110040900D01*
X108757267Y-110040900D02*
X108790600Y-110074233D01*
X108790600Y-110074233D02*
X108823933Y-110140900D01*
X108823933Y-110140900D02*
X108823933Y-110240900D01*
X108823933Y-110240900D02*
X108790600Y-110307566D01*
X108790600Y-110307566D02*
X108757267Y-110340900D01*
X108757267Y-110340900D02*
X108690600Y-110374233D01*
X108690600Y-110374233D02*
X108423933Y-110374233D01*
X108423933Y-110374233D02*
X108423933Y-109674233D01*
X108423933Y-109674233D02*
X108657267Y-109674233D01*
X108657267Y-109674233D02*
X108723933Y-109707566D01*
X108723933Y-109707566D02*
X108757267Y-109740900D01*
X108757267Y-109740900D02*
X108790600Y-109807566D01*
X108790600Y-109807566D02*
X108790600Y-109874233D01*
X108790600Y-109874233D02*
X108757267Y-109940900D01*
X108757267Y-109940900D02*
X108723933Y-109974233D01*
X108723933Y-109974233D02*
X108657267Y-110007566D01*
X108657267Y-110007566D02*
X108423933Y-110007566D01*
X109057267Y-109674233D02*
X109490600Y-109674233D01*
X109490600Y-109674233D02*
X109257267Y-109940900D01*
X109257267Y-109940900D02*
X109357267Y-109940900D01*
X109357267Y-109940900D02*
X109423933Y-109974233D01*
X109423933Y-109974233D02*
X109457267Y-110007566D01*
X109457267Y-110007566D02*
X109490600Y-110074233D01*
X109490600Y-110074233D02*
X109490600Y-110240900D01*
X109490600Y-110240900D02*
X109457267Y-110307566D01*
X109457267Y-110307566D02*
X109423933Y-110340900D01*
X109423933Y-110340900D02*
X109357267Y-110374233D01*
X109357267Y-110374233D02*
X109157267Y-110374233D01*
X109157267Y-110374233D02*
X109090600Y-110340900D01*
X109090600Y-110340900D02*
X109057267Y-110307566D01*
X108657267Y-107416766D02*
X108757267Y-107450100D01*
X108757267Y-107450100D02*
X108790600Y-107483433D01*
X108790600Y-107483433D02*
X108823933Y-107550100D01*
X108823933Y-107550100D02*
X108823933Y-107650100D01*
X108823933Y-107650100D02*
X108790600Y-107716766D01*
X108790600Y-107716766D02*
X108757267Y-107750100D01*
X108757267Y-107750100D02*
X108690600Y-107783433D01*
X108690600Y-107783433D02*
X108423933Y-107783433D01*
X108423933Y-107783433D02*
X108423933Y-107083433D01*
X108423933Y-107083433D02*
X108657267Y-107083433D01*
X108657267Y-107083433D02*
X108723933Y-107116766D01*
X108723933Y-107116766D02*
X108757267Y-107150100D01*
X108757267Y-107150100D02*
X108790600Y-107216766D01*
X108790600Y-107216766D02*
X108790600Y-107283433D01*
X108790600Y-107283433D02*
X108757267Y-107350100D01*
X108757267Y-107350100D02*
X108723933Y-107383433D01*
X108723933Y-107383433D02*
X108657267Y-107416766D01*
X108657267Y-107416766D02*
X108423933Y-107416766D01*
X109490600Y-107783433D02*
X109090600Y-107783433D01*
X109290600Y-107783433D02*
X109290600Y-107083433D01*
X109290600Y-107083433D02*
X109223933Y-107183433D01*
X109223933Y-107183433D02*
X109157267Y-107250100D01*
X109157267Y-107250100D02*
X109090600Y-107283433D01*
X103248666Y-123201233D02*
X103015333Y-122867900D01*
X102848666Y-123201233D02*
X102848666Y-122501233D01*
X102848666Y-122501233D02*
X103115333Y-122501233D01*
X103115333Y-122501233D02*
X103182000Y-122534566D01*
X103182000Y-122534566D02*
X103215333Y-122567900D01*
X103215333Y-122567900D02*
X103248666Y-122634566D01*
X103248666Y-122634566D02*
X103248666Y-122734566D01*
X103248666Y-122734566D02*
X103215333Y-122801233D01*
X103215333Y-122801233D02*
X103182000Y-122834566D01*
X103182000Y-122834566D02*
X103115333Y-122867900D01*
X103115333Y-122867900D02*
X102848666Y-122867900D01*
X103515333Y-123167900D02*
X103615333Y-123201233D01*
X103615333Y-123201233D02*
X103782000Y-123201233D01*
X103782000Y-123201233D02*
X103848666Y-123167900D01*
X103848666Y-123167900D02*
X103882000Y-123134566D01*
X103882000Y-123134566D02*
X103915333Y-123067900D01*
X103915333Y-123067900D02*
X103915333Y-123001233D01*
X103915333Y-123001233D02*
X103882000Y-122934566D01*
X103882000Y-122934566D02*
X103848666Y-122901233D01*
X103848666Y-122901233D02*
X103782000Y-122867900D01*
X103782000Y-122867900D02*
X103648666Y-122834566D01*
X103648666Y-122834566D02*
X103582000Y-122801233D01*
X103582000Y-122801233D02*
X103548666Y-122767900D01*
X103548666Y-122767900D02*
X103515333Y-122701233D01*
X103515333Y-122701233D02*
X103515333Y-122634566D01*
X103515333Y-122634566D02*
X103548666Y-122567900D01*
X103548666Y-122567900D02*
X103582000Y-122534566D01*
X103582000Y-122534566D02*
X103648666Y-122501233D01*
X103648666Y-122501233D02*
X103815333Y-122501233D01*
X103815333Y-122501233D02*
X103915333Y-122534566D01*
X104115333Y-122501233D02*
X104515333Y-122501233D01*
X104315333Y-123201233D02*
X104315333Y-122501233D01*
X103098667Y-126217566D02*
X103032000Y-126184233D01*
X103032000Y-126184233D02*
X102932000Y-126184233D01*
X102932000Y-126184233D02*
X102832000Y-126217566D01*
X102832000Y-126217566D02*
X102765334Y-126284233D01*
X102765334Y-126284233D02*
X102732000Y-126350900D01*
X102732000Y-126350900D02*
X102698667Y-126484233D01*
X102698667Y-126484233D02*
X102698667Y-126584233D01*
X102698667Y-126584233D02*
X102732000Y-126717566D01*
X102732000Y-126717566D02*
X102765334Y-126784233D01*
X102765334Y-126784233D02*
X102832000Y-126850900D01*
X102832000Y-126850900D02*
X102932000Y-126884233D01*
X102932000Y-126884233D02*
X102998667Y-126884233D01*
X102998667Y-126884233D02*
X103098667Y-126850900D01*
X103098667Y-126850900D02*
X103132000Y-126817566D01*
X103132000Y-126817566D02*
X103132000Y-126584233D01*
X103132000Y-126584233D02*
X102998667Y-126584233D01*
X103432000Y-126884233D02*
X103432000Y-126184233D01*
X103432000Y-126184233D02*
X103832000Y-126884233D01*
X103832000Y-126884233D02*
X103832000Y-126184233D01*
X104165333Y-126884233D02*
X104165333Y-126184233D01*
X104165333Y-126184233D02*
X104332000Y-126184233D01*
X104332000Y-126184233D02*
X104432000Y-126217566D01*
X104432000Y-126217566D02*
X104498667Y-126284233D01*
X104498667Y-126284233D02*
X104532000Y-126350900D01*
X104532000Y-126350900D02*
X104565333Y-126484233D01*
X104565333Y-126484233D02*
X104565333Y-126584233D01*
X104565333Y-126584233D02*
X104532000Y-126717566D01*
X104532000Y-126717566D02*
X104498667Y-126784233D01*
X104498667Y-126784233D02*
X104432000Y-126850900D01*
X104432000Y-126850900D02*
X104332000Y-126884233D01*
X104332000Y-126884233D02*
X104165333Y-126884233D01*
X93116476Y-94373340D02*
X93040286Y-94335245D01*
X93040286Y-94335245D02*
X92926000Y-94335245D01*
X92926000Y-94335245D02*
X92811714Y-94373340D01*
X92811714Y-94373340D02*
X92735524Y-94449530D01*
X92735524Y-94449530D02*
X92697429Y-94525721D01*
X92697429Y-94525721D02*
X92659333Y-94678102D01*
X92659333Y-94678102D02*
X92659333Y-94792388D01*
X92659333Y-94792388D02*
X92697429Y-94944769D01*
X92697429Y-94944769D02*
X92735524Y-95020959D01*
X92735524Y-95020959D02*
X92811714Y-95097150D01*
X92811714Y-95097150D02*
X92926000Y-95135245D01*
X92926000Y-95135245D02*
X93002191Y-95135245D01*
X93002191Y-95135245D02*
X93116476Y-95097150D01*
X93116476Y-95097150D02*
X93154572Y-95059054D01*
X93154572Y-95059054D02*
X93154572Y-94792388D01*
X93154572Y-94792388D02*
X93002191Y-94792388D01*
X93497429Y-95135245D02*
X93497429Y-94335245D01*
X93497429Y-94335245D02*
X93954572Y-95135245D01*
X93954572Y-95135245D02*
X93954572Y-94335245D01*
X94335524Y-95135245D02*
X94335524Y-94335245D01*
X94335524Y-94335245D02*
X94526000Y-94335245D01*
X94526000Y-94335245D02*
X94640286Y-94373340D01*
X94640286Y-94373340D02*
X94716476Y-94449530D01*
X94716476Y-94449530D02*
X94754571Y-94525721D01*
X94754571Y-94525721D02*
X94792667Y-94678102D01*
X94792667Y-94678102D02*
X94792667Y-94792388D01*
X94792667Y-94792388D02*
X94754571Y-94944769D01*
X94754571Y-94944769D02*
X94716476Y-95020959D01*
X94716476Y-95020959D02*
X94640286Y-95097150D01*
X94640286Y-95097150D02*
X94526000Y-95135245D01*
X94526000Y-95135245D02*
X94335524Y-95135245D01*
X103581333Y-94335245D02*
X103848000Y-95135245D01*
X103848000Y-95135245D02*
X104114666Y-94335245D01*
X104838476Y-95059054D02*
X104800380Y-95097150D01*
X104800380Y-95097150D02*
X104686095Y-95135245D01*
X104686095Y-95135245D02*
X104609904Y-95135245D01*
X104609904Y-95135245D02*
X104495618Y-95097150D01*
X104495618Y-95097150D02*
X104419428Y-95020959D01*
X104419428Y-95020959D02*
X104381333Y-94944769D01*
X104381333Y-94944769D02*
X104343237Y-94792388D01*
X104343237Y-94792388D02*
X104343237Y-94678102D01*
X104343237Y-94678102D02*
X104381333Y-94525721D01*
X104381333Y-94525721D02*
X104419428Y-94449530D01*
X104419428Y-94449530D02*
X104495618Y-94373340D01*
X104495618Y-94373340D02*
X104609904Y-94335245D01*
X104609904Y-94335245D02*
X104686095Y-94335245D01*
X104686095Y-94335245D02*
X104800380Y-94373340D01*
X104800380Y-94373340D02*
X104838476Y-94411435D01*
X105638476Y-95059054D02*
X105600380Y-95097150D01*
X105600380Y-95097150D02*
X105486095Y-95135245D01*
X105486095Y-95135245D02*
X105409904Y-95135245D01*
X105409904Y-95135245D02*
X105295618Y-95097150D01*
X105295618Y-95097150D02*
X105219428Y-95020959D01*
X105219428Y-95020959D02*
X105181333Y-94944769D01*
X105181333Y-94944769D02*
X105143237Y-94792388D01*
X105143237Y-94792388D02*
X105143237Y-94678102D01*
X105143237Y-94678102D02*
X105181333Y-94525721D01*
X105181333Y-94525721D02*
X105219428Y-94449530D01*
X105219428Y-94449530D02*
X105295618Y-94373340D01*
X105295618Y-94373340D02*
X105409904Y-94335245D01*
X105409904Y-94335245D02*
X105486095Y-94335245D01*
X105486095Y-94335245D02*
X105600380Y-94373340D01*
X105600380Y-94373340D02*
X105638476Y-94411435D01*
X93116476Y-91833340D02*
X93040286Y-91795245D01*
X93040286Y-91795245D02*
X92926000Y-91795245D01*
X92926000Y-91795245D02*
X92811714Y-91833340D01*
X92811714Y-91833340D02*
X92735524Y-91909530D01*
X92735524Y-91909530D02*
X92697429Y-91985721D01*
X92697429Y-91985721D02*
X92659333Y-92138102D01*
X92659333Y-92138102D02*
X92659333Y-92252388D01*
X92659333Y-92252388D02*
X92697429Y-92404769D01*
X92697429Y-92404769D02*
X92735524Y-92480959D01*
X92735524Y-92480959D02*
X92811714Y-92557150D01*
X92811714Y-92557150D02*
X92926000Y-92595245D01*
X92926000Y-92595245D02*
X93002191Y-92595245D01*
X93002191Y-92595245D02*
X93116476Y-92557150D01*
X93116476Y-92557150D02*
X93154572Y-92519054D01*
X93154572Y-92519054D02*
X93154572Y-92252388D01*
X93154572Y-92252388D02*
X93002191Y-92252388D01*
X93497429Y-92595245D02*
X93497429Y-91795245D01*
X93497429Y-91795245D02*
X93954572Y-92595245D01*
X93954572Y-92595245D02*
X93954572Y-91795245D01*
X94335524Y-92595245D02*
X94335524Y-91795245D01*
X94335524Y-91795245D02*
X94526000Y-91795245D01*
X94526000Y-91795245D02*
X94640286Y-91833340D01*
X94640286Y-91833340D02*
X94716476Y-91909530D01*
X94716476Y-91909530D02*
X94754571Y-91985721D01*
X94754571Y-91985721D02*
X94792667Y-92138102D01*
X94792667Y-92138102D02*
X94792667Y-92252388D01*
X94792667Y-92252388D02*
X94754571Y-92404769D01*
X94754571Y-92404769D02*
X94716476Y-92480959D01*
X94716476Y-92480959D02*
X94640286Y-92557150D01*
X94640286Y-92557150D02*
X94526000Y-92595245D01*
X94526000Y-92595245D02*
X94335524Y-92595245D01*
X104038476Y-89293340D02*
X103962286Y-89255245D01*
X103962286Y-89255245D02*
X103848000Y-89255245D01*
X103848000Y-89255245D02*
X103733714Y-89293340D01*
X103733714Y-89293340D02*
X103657524Y-89369530D01*
X103657524Y-89369530D02*
X103619429Y-89445721D01*
X103619429Y-89445721D02*
X103581333Y-89598102D01*
X103581333Y-89598102D02*
X103581333Y-89712388D01*
X103581333Y-89712388D02*
X103619429Y-89864769D01*
X103619429Y-89864769D02*
X103657524Y-89940959D01*
X103657524Y-89940959D02*
X103733714Y-90017150D01*
X103733714Y-90017150D02*
X103848000Y-90055245D01*
X103848000Y-90055245D02*
X103924191Y-90055245D01*
X103924191Y-90055245D02*
X104038476Y-90017150D01*
X104038476Y-90017150D02*
X104076572Y-89979054D01*
X104076572Y-89979054D02*
X104076572Y-89712388D01*
X104076572Y-89712388D02*
X103924191Y-89712388D01*
X104419429Y-90055245D02*
X104419429Y-89255245D01*
X104419429Y-89255245D02*
X104876572Y-90055245D01*
X104876572Y-90055245D02*
X104876572Y-89255245D01*
X105257524Y-90055245D02*
X105257524Y-89255245D01*
X105257524Y-89255245D02*
X105448000Y-89255245D01*
X105448000Y-89255245D02*
X105562286Y-89293340D01*
X105562286Y-89293340D02*
X105638476Y-89369530D01*
X105638476Y-89369530D02*
X105676571Y-89445721D01*
X105676571Y-89445721D02*
X105714667Y-89598102D01*
X105714667Y-89598102D02*
X105714667Y-89712388D01*
X105714667Y-89712388D02*
X105676571Y-89864769D01*
X105676571Y-89864769D02*
X105638476Y-89940959D01*
X105638476Y-89940959D02*
X105562286Y-90017150D01*
X105562286Y-90017150D02*
X105448000Y-90055245D01*
X105448000Y-90055245D02*
X105257524Y-90055245D01*
X104209905Y-92665895D02*
X103943238Y-92284942D01*
X103752762Y-92665895D02*
X103752762Y-91865895D01*
X103752762Y-91865895D02*
X104057524Y-91865895D01*
X104057524Y-91865895D02*
X104133714Y-91903990D01*
X104133714Y-91903990D02*
X104171809Y-91942085D01*
X104171809Y-91942085D02*
X104209905Y-92018276D01*
X104209905Y-92018276D02*
X104209905Y-92132561D01*
X104209905Y-92132561D02*
X104171809Y-92208752D01*
X104171809Y-92208752D02*
X104133714Y-92246847D01*
X104133714Y-92246847D02*
X104057524Y-92284942D01*
X104057524Y-92284942D02*
X103752762Y-92284942D01*
X104514666Y-92627800D02*
X104628952Y-92665895D01*
X104628952Y-92665895D02*
X104819428Y-92665895D01*
X104819428Y-92665895D02*
X104895619Y-92627800D01*
X104895619Y-92627800D02*
X104933714Y-92589704D01*
X104933714Y-92589704D02*
X104971809Y-92513514D01*
X104971809Y-92513514D02*
X104971809Y-92437323D01*
X104971809Y-92437323D02*
X104933714Y-92361133D01*
X104933714Y-92361133D02*
X104895619Y-92323038D01*
X104895619Y-92323038D02*
X104819428Y-92284942D01*
X104819428Y-92284942D02*
X104667047Y-92246847D01*
X104667047Y-92246847D02*
X104590857Y-92208752D01*
X104590857Y-92208752D02*
X104552762Y-92170657D01*
X104552762Y-92170657D02*
X104514666Y-92094466D01*
X104514666Y-92094466D02*
X104514666Y-92018276D01*
X104514666Y-92018276D02*
X104552762Y-91942085D01*
X104552762Y-91942085D02*
X104590857Y-91903990D01*
X104590857Y-91903990D02*
X104667047Y-91865895D01*
X104667047Y-91865895D02*
X104857524Y-91865895D01*
X104857524Y-91865895D02*
X104971809Y-91903990D01*
X105200381Y-91865895D02*
X105657524Y-91865895D01*
X105428952Y-92665895D02*
X105428952Y-91865895D01*
X85485867Y-112524766D02*
X85585867Y-112558100D01*
X85585867Y-112558100D02*
X85619200Y-112591433D01*
X85619200Y-112591433D02*
X85652533Y-112658100D01*
X85652533Y-112658100D02*
X85652533Y-112758100D01*
X85652533Y-112758100D02*
X85619200Y-112824766D01*
X85619200Y-112824766D02*
X85585867Y-112858100D01*
X85585867Y-112858100D02*
X85519200Y-112891433D01*
X85519200Y-112891433D02*
X85252533Y-112891433D01*
X85252533Y-112891433D02*
X85252533Y-112191433D01*
X85252533Y-112191433D02*
X85485867Y-112191433D01*
X85485867Y-112191433D02*
X85552533Y-112224766D01*
X85552533Y-112224766D02*
X85585867Y-112258100D01*
X85585867Y-112258100D02*
X85619200Y-112324766D01*
X85619200Y-112324766D02*
X85619200Y-112391433D01*
X85619200Y-112391433D02*
X85585867Y-112458100D01*
X85585867Y-112458100D02*
X85552533Y-112491433D01*
X85552533Y-112491433D02*
X85485867Y-112524766D01*
X85485867Y-112524766D02*
X85252533Y-112524766D01*
X86252533Y-112424766D02*
X86252533Y-112891433D01*
X86085867Y-112158100D02*
X85919200Y-112658100D01*
X85919200Y-112658100D02*
X86352533Y-112658100D01*
X85252533Y-102782233D02*
X85252533Y-102082233D01*
X85252533Y-102082233D02*
X85419200Y-102082233D01*
X85419200Y-102082233D02*
X85519200Y-102115566D01*
X85519200Y-102115566D02*
X85585867Y-102182233D01*
X85585867Y-102182233D02*
X85619200Y-102248900D01*
X85619200Y-102248900D02*
X85652533Y-102382233D01*
X85652533Y-102382233D02*
X85652533Y-102482233D01*
X85652533Y-102482233D02*
X85619200Y-102615566D01*
X85619200Y-102615566D02*
X85585867Y-102682233D01*
X85585867Y-102682233D02*
X85519200Y-102748900D01*
X85519200Y-102748900D02*
X85419200Y-102782233D01*
X85419200Y-102782233D02*
X85252533Y-102782233D01*
X86252533Y-102315566D02*
X86252533Y-102782233D01*
X86085867Y-102048900D02*
X85919200Y-102548900D01*
X85919200Y-102548900D02*
X86352533Y-102548900D01*
X85485867Y-115090166D02*
X85585867Y-115123500D01*
X85585867Y-115123500D02*
X85619200Y-115156833D01*
X85619200Y-115156833D02*
X85652533Y-115223500D01*
X85652533Y-115223500D02*
X85652533Y-115323500D01*
X85652533Y-115323500D02*
X85619200Y-115390166D01*
X85619200Y-115390166D02*
X85585867Y-115423500D01*
X85585867Y-115423500D02*
X85519200Y-115456833D01*
X85519200Y-115456833D02*
X85252533Y-115456833D01*
X85252533Y-115456833D02*
X85252533Y-114756833D01*
X85252533Y-114756833D02*
X85485867Y-114756833D01*
X85485867Y-114756833D02*
X85552533Y-114790166D01*
X85552533Y-114790166D02*
X85585867Y-114823500D01*
X85585867Y-114823500D02*
X85619200Y-114890166D01*
X85619200Y-114890166D02*
X85619200Y-114956833D01*
X85619200Y-114956833D02*
X85585867Y-115023500D01*
X85585867Y-115023500D02*
X85552533Y-115056833D01*
X85552533Y-115056833D02*
X85485867Y-115090166D01*
X85485867Y-115090166D02*
X85252533Y-115090166D01*
X86285867Y-114756833D02*
X85952533Y-114756833D01*
X85952533Y-114756833D02*
X85919200Y-115090166D01*
X85919200Y-115090166D02*
X85952533Y-115056833D01*
X85952533Y-115056833D02*
X86019200Y-115023500D01*
X86019200Y-115023500D02*
X86185867Y-115023500D01*
X86185867Y-115023500D02*
X86252533Y-115056833D01*
X86252533Y-115056833D02*
X86285867Y-115090166D01*
X86285867Y-115090166D02*
X86319200Y-115156833D01*
X86319200Y-115156833D02*
X86319200Y-115323500D01*
X86319200Y-115323500D02*
X86285867Y-115390166D01*
X86285867Y-115390166D02*
X86252533Y-115423500D01*
X86252533Y-115423500D02*
X86185867Y-115456833D01*
X86185867Y-115456833D02*
X86019200Y-115456833D01*
X86019200Y-115456833D02*
X85952533Y-115423500D01*
X85952533Y-115423500D02*
X85919200Y-115390166D01*
X85252533Y-107836833D02*
X85252533Y-107136833D01*
X85252533Y-107136833D02*
X85419200Y-107136833D01*
X85419200Y-107136833D02*
X85519200Y-107170166D01*
X85519200Y-107170166D02*
X85585867Y-107236833D01*
X85585867Y-107236833D02*
X85619200Y-107303500D01*
X85619200Y-107303500D02*
X85652533Y-107436833D01*
X85652533Y-107436833D02*
X85652533Y-107536833D01*
X85652533Y-107536833D02*
X85619200Y-107670166D01*
X85619200Y-107670166D02*
X85585867Y-107736833D01*
X85585867Y-107736833D02*
X85519200Y-107803500D01*
X85519200Y-107803500D02*
X85419200Y-107836833D01*
X85419200Y-107836833D02*
X85252533Y-107836833D01*
X85885867Y-107136833D02*
X86352533Y-107136833D01*
X86352533Y-107136833D02*
X86052533Y-107836833D01*
X85252533Y-100191433D02*
X85252533Y-99491433D01*
X85252533Y-99491433D02*
X85419200Y-99491433D01*
X85419200Y-99491433D02*
X85519200Y-99524766D01*
X85519200Y-99524766D02*
X85585867Y-99591433D01*
X85585867Y-99591433D02*
X85619200Y-99658100D01*
X85619200Y-99658100D02*
X85652533Y-99791433D01*
X85652533Y-99791433D02*
X85652533Y-99891433D01*
X85652533Y-99891433D02*
X85619200Y-100024766D01*
X85619200Y-100024766D02*
X85585867Y-100091433D01*
X85585867Y-100091433D02*
X85519200Y-100158100D01*
X85519200Y-100158100D02*
X85419200Y-100191433D01*
X85419200Y-100191433D02*
X85252533Y-100191433D01*
X86085867Y-99491433D02*
X86152533Y-99491433D01*
X86152533Y-99491433D02*
X86219200Y-99524766D01*
X86219200Y-99524766D02*
X86252533Y-99558100D01*
X86252533Y-99558100D02*
X86285867Y-99624766D01*
X86285867Y-99624766D02*
X86319200Y-99758100D01*
X86319200Y-99758100D02*
X86319200Y-99924766D01*
X86319200Y-99924766D02*
X86285867Y-100058100D01*
X86285867Y-100058100D02*
X86252533Y-100124766D01*
X86252533Y-100124766D02*
X86219200Y-100158100D01*
X86219200Y-100158100D02*
X86152533Y-100191433D01*
X86152533Y-100191433D02*
X86085867Y-100191433D01*
X86085867Y-100191433D02*
X86019200Y-100158100D01*
X86019200Y-100158100D02*
X85985867Y-100124766D01*
X85985867Y-100124766D02*
X85952533Y-100058100D01*
X85952533Y-100058100D02*
X85919200Y-99924766D01*
X85919200Y-99924766D02*
X85919200Y-99758100D01*
X85919200Y-99758100D02*
X85952533Y-99624766D01*
X85952533Y-99624766D02*
X85985867Y-99558100D01*
X85985867Y-99558100D02*
X86019200Y-99524766D01*
X86019200Y-99524766D02*
X86085867Y-99491433D01*
X85677933Y-105230166D02*
X85644600Y-105263500D01*
X85644600Y-105263500D02*
X85544600Y-105296833D01*
X85544600Y-105296833D02*
X85477933Y-105296833D01*
X85477933Y-105296833D02*
X85377933Y-105263500D01*
X85377933Y-105263500D02*
X85311267Y-105196833D01*
X85311267Y-105196833D02*
X85277933Y-105130166D01*
X85277933Y-105130166D02*
X85244600Y-104996833D01*
X85244600Y-104996833D02*
X85244600Y-104896833D01*
X85244600Y-104896833D02*
X85277933Y-104763500D01*
X85277933Y-104763500D02*
X85311267Y-104696833D01*
X85311267Y-104696833D02*
X85377933Y-104630166D01*
X85377933Y-104630166D02*
X85477933Y-104596833D01*
X85477933Y-104596833D02*
X85544600Y-104596833D01*
X85544600Y-104596833D02*
X85644600Y-104630166D01*
X85644600Y-104630166D02*
X85677933Y-104663500D01*
X86277933Y-104596833D02*
X86144600Y-104596833D01*
X86144600Y-104596833D02*
X86077933Y-104630166D01*
X86077933Y-104630166D02*
X86044600Y-104663500D01*
X86044600Y-104663500D02*
X85977933Y-104763500D01*
X85977933Y-104763500D02*
X85944600Y-104896833D01*
X85944600Y-104896833D02*
X85944600Y-105163500D01*
X85944600Y-105163500D02*
X85977933Y-105230166D01*
X85977933Y-105230166D02*
X86011267Y-105263500D01*
X86011267Y-105263500D02*
X86077933Y-105296833D01*
X86077933Y-105296833D02*
X86211267Y-105296833D01*
X86211267Y-105296833D02*
X86277933Y-105263500D01*
X86277933Y-105263500D02*
X86311267Y-105230166D01*
X86311267Y-105230166D02*
X86344600Y-105163500D01*
X86344600Y-105163500D02*
X86344600Y-104996833D01*
X86344600Y-104996833D02*
X86311267Y-104930166D01*
X86311267Y-104930166D02*
X86277933Y-104896833D01*
X86277933Y-104896833D02*
X86211267Y-104863500D01*
X86211267Y-104863500D02*
X86077933Y-104863500D01*
X86077933Y-104863500D02*
X86011267Y-104896833D01*
X86011267Y-104896833D02*
X85977933Y-104930166D01*
X85977933Y-104930166D02*
X85944600Y-104996833D01*
X85260466Y-109984766D02*
X85493800Y-109984766D01*
X85593800Y-110351433D02*
X85260466Y-110351433D01*
X85260466Y-110351433D02*
X85260466Y-109651433D01*
X85260466Y-109651433D02*
X85593800Y-109651433D01*
X86193799Y-109651433D02*
X86060466Y-109651433D01*
X86060466Y-109651433D02*
X85993799Y-109684766D01*
X85993799Y-109684766D02*
X85960466Y-109718100D01*
X85960466Y-109718100D02*
X85893799Y-109818100D01*
X85893799Y-109818100D02*
X85860466Y-109951433D01*
X85860466Y-109951433D02*
X85860466Y-110218100D01*
X85860466Y-110218100D02*
X85893799Y-110284766D01*
X85893799Y-110284766D02*
X85927133Y-110318100D01*
X85927133Y-110318100D02*
X85993799Y-110351433D01*
X85993799Y-110351433D02*
X86127133Y-110351433D01*
X86127133Y-110351433D02*
X86193799Y-110318100D01*
X86193799Y-110318100D02*
X86227133Y-110284766D01*
X86227133Y-110284766D02*
X86260466Y-110218100D01*
X86260466Y-110218100D02*
X86260466Y-110051433D01*
X86260466Y-110051433D02*
X86227133Y-109984766D01*
X86227133Y-109984766D02*
X86193799Y-109951433D01*
X86193799Y-109951433D02*
X86127133Y-109918100D01*
X86127133Y-109918100D02*
X85993799Y-109918100D01*
X85993799Y-109918100D02*
X85927133Y-109951433D01*
X85927133Y-109951433D02*
X85893799Y-109984766D01*
X85893799Y-109984766D02*
X85860466Y-110051433D01*
X112213267Y-112570166D02*
X112313267Y-112603500D01*
X112313267Y-112603500D02*
X112346600Y-112636833D01*
X112346600Y-112636833D02*
X112379933Y-112703500D01*
X112379933Y-112703500D02*
X112379933Y-112803500D01*
X112379933Y-112803500D02*
X112346600Y-112870166D01*
X112346600Y-112870166D02*
X112313267Y-112903500D01*
X112313267Y-112903500D02*
X112246600Y-112936833D01*
X112246600Y-112936833D02*
X111979933Y-112936833D01*
X111979933Y-112936833D02*
X111979933Y-112236833D01*
X111979933Y-112236833D02*
X112213267Y-112236833D01*
X112213267Y-112236833D02*
X112279933Y-112270166D01*
X112279933Y-112270166D02*
X112313267Y-112303500D01*
X112313267Y-112303500D02*
X112346600Y-112370166D01*
X112346600Y-112370166D02*
X112346600Y-112436833D01*
X112346600Y-112436833D02*
X112313267Y-112503500D01*
X112313267Y-112503500D02*
X112279933Y-112536833D01*
X112279933Y-112536833D02*
X112213267Y-112570166D01*
X112213267Y-112570166D02*
X111979933Y-112570166D01*
X112979933Y-112470166D02*
X112979933Y-112936833D01*
X112813267Y-112203500D02*
X112646600Y-112703500D01*
X112646600Y-112703500D02*
X113079933Y-112703500D01*
X111979933Y-102776833D02*
X111979933Y-102076833D01*
X111979933Y-102076833D02*
X112146600Y-102076833D01*
X112146600Y-102076833D02*
X112246600Y-102110166D01*
X112246600Y-102110166D02*
X112313267Y-102176833D01*
X112313267Y-102176833D02*
X112346600Y-102243500D01*
X112346600Y-102243500D02*
X112379933Y-102376833D01*
X112379933Y-102376833D02*
X112379933Y-102476833D01*
X112379933Y-102476833D02*
X112346600Y-102610166D01*
X112346600Y-102610166D02*
X112313267Y-102676833D01*
X112313267Y-102676833D02*
X112246600Y-102743500D01*
X112246600Y-102743500D02*
X112146600Y-102776833D01*
X112146600Y-102776833D02*
X111979933Y-102776833D01*
X112979933Y-102310166D02*
X112979933Y-102776833D01*
X112813267Y-102043500D02*
X112646600Y-102543500D01*
X112646600Y-102543500D02*
X113079933Y-102543500D01*
X112213267Y-115110166D02*
X112313267Y-115143500D01*
X112313267Y-115143500D02*
X112346600Y-115176833D01*
X112346600Y-115176833D02*
X112379933Y-115243500D01*
X112379933Y-115243500D02*
X112379933Y-115343500D01*
X112379933Y-115343500D02*
X112346600Y-115410166D01*
X112346600Y-115410166D02*
X112313267Y-115443500D01*
X112313267Y-115443500D02*
X112246600Y-115476833D01*
X112246600Y-115476833D02*
X111979933Y-115476833D01*
X111979933Y-115476833D02*
X111979933Y-114776833D01*
X111979933Y-114776833D02*
X112213267Y-114776833D01*
X112213267Y-114776833D02*
X112279933Y-114810166D01*
X112279933Y-114810166D02*
X112313267Y-114843500D01*
X112313267Y-114843500D02*
X112346600Y-114910166D01*
X112346600Y-114910166D02*
X112346600Y-114976833D01*
X112346600Y-114976833D02*
X112313267Y-115043500D01*
X112313267Y-115043500D02*
X112279933Y-115076833D01*
X112279933Y-115076833D02*
X112213267Y-115110166D01*
X112213267Y-115110166D02*
X111979933Y-115110166D01*
X113013267Y-114776833D02*
X112679933Y-114776833D01*
X112679933Y-114776833D02*
X112646600Y-115110166D01*
X112646600Y-115110166D02*
X112679933Y-115076833D01*
X112679933Y-115076833D02*
X112746600Y-115043500D01*
X112746600Y-115043500D02*
X112913267Y-115043500D01*
X112913267Y-115043500D02*
X112979933Y-115076833D01*
X112979933Y-115076833D02*
X113013267Y-115110166D01*
X113013267Y-115110166D02*
X113046600Y-115176833D01*
X113046600Y-115176833D02*
X113046600Y-115343500D01*
X113046600Y-115343500D02*
X113013267Y-115410166D01*
X113013267Y-115410166D02*
X112979933Y-115443500D01*
X112979933Y-115443500D02*
X112913267Y-115476833D01*
X112913267Y-115476833D02*
X112746600Y-115476833D01*
X112746600Y-115476833D02*
X112679933Y-115443500D01*
X112679933Y-115443500D02*
X112646600Y-115410166D01*
X112405333Y-105250166D02*
X112372000Y-105283500D01*
X112372000Y-105283500D02*
X112272000Y-105316833D01*
X112272000Y-105316833D02*
X112205333Y-105316833D01*
X112205333Y-105316833D02*
X112105333Y-105283500D01*
X112105333Y-105283500D02*
X112038667Y-105216833D01*
X112038667Y-105216833D02*
X112005333Y-105150166D01*
X112005333Y-105150166D02*
X111972000Y-105016833D01*
X111972000Y-105016833D02*
X111972000Y-104916833D01*
X111972000Y-104916833D02*
X112005333Y-104783500D01*
X112005333Y-104783500D02*
X112038667Y-104716833D01*
X112038667Y-104716833D02*
X112105333Y-104650166D01*
X112105333Y-104650166D02*
X112205333Y-104616833D01*
X112205333Y-104616833D02*
X112272000Y-104616833D01*
X112272000Y-104616833D02*
X112372000Y-104650166D01*
X112372000Y-104650166D02*
X112405333Y-104683500D01*
X113005333Y-104616833D02*
X112872000Y-104616833D01*
X112872000Y-104616833D02*
X112805333Y-104650166D01*
X112805333Y-104650166D02*
X112772000Y-104683500D01*
X112772000Y-104683500D02*
X112705333Y-104783500D01*
X112705333Y-104783500D02*
X112672000Y-104916833D01*
X112672000Y-104916833D02*
X112672000Y-105183500D01*
X112672000Y-105183500D02*
X112705333Y-105250166D01*
X112705333Y-105250166D02*
X112738667Y-105283500D01*
X112738667Y-105283500D02*
X112805333Y-105316833D01*
X112805333Y-105316833D02*
X112938667Y-105316833D01*
X112938667Y-105316833D02*
X113005333Y-105283500D01*
X113005333Y-105283500D02*
X113038667Y-105250166D01*
X113038667Y-105250166D02*
X113072000Y-105183500D01*
X113072000Y-105183500D02*
X113072000Y-105016833D01*
X113072000Y-105016833D02*
X113038667Y-104950166D01*
X113038667Y-104950166D02*
X113005333Y-104916833D01*
X113005333Y-104916833D02*
X112938667Y-104883500D01*
X112938667Y-104883500D02*
X112805333Y-104883500D01*
X112805333Y-104883500D02*
X112738667Y-104916833D01*
X112738667Y-104916833D02*
X112705333Y-104950166D01*
X112705333Y-104950166D02*
X112672000Y-105016833D01*
X111929133Y-100236833D02*
X111929133Y-99536833D01*
X111929133Y-99536833D02*
X112095800Y-99536833D01*
X112095800Y-99536833D02*
X112195800Y-99570166D01*
X112195800Y-99570166D02*
X112262467Y-99636833D01*
X112262467Y-99636833D02*
X112295800Y-99703500D01*
X112295800Y-99703500D02*
X112329133Y-99836833D01*
X112329133Y-99836833D02*
X112329133Y-99936833D01*
X112329133Y-99936833D02*
X112295800Y-100070166D01*
X112295800Y-100070166D02*
X112262467Y-100136833D01*
X112262467Y-100136833D02*
X112195800Y-100203500D01*
X112195800Y-100203500D02*
X112095800Y-100236833D01*
X112095800Y-100236833D02*
X111929133Y-100236833D01*
X112762467Y-99536833D02*
X112829133Y-99536833D01*
X112829133Y-99536833D02*
X112895800Y-99570166D01*
X112895800Y-99570166D02*
X112929133Y-99603500D01*
X112929133Y-99603500D02*
X112962467Y-99670166D01*
X112962467Y-99670166D02*
X112995800Y-99803500D01*
X112995800Y-99803500D02*
X112995800Y-99970166D01*
X112995800Y-99970166D02*
X112962467Y-100103500D01*
X112962467Y-100103500D02*
X112929133Y-100170166D01*
X112929133Y-100170166D02*
X112895800Y-100203500D01*
X112895800Y-100203500D02*
X112829133Y-100236833D01*
X112829133Y-100236833D02*
X112762467Y-100236833D01*
X112762467Y-100236833D02*
X112695800Y-100203500D01*
X112695800Y-100203500D02*
X112662467Y-100170166D01*
X112662467Y-100170166D02*
X112629133Y-100103500D01*
X112629133Y-100103500D02*
X112595800Y-99970166D01*
X112595800Y-99970166D02*
X112595800Y-99803500D01*
X112595800Y-99803500D02*
X112629133Y-99670166D01*
X112629133Y-99670166D02*
X112662467Y-99603500D01*
X112662467Y-99603500D02*
X112695800Y-99570166D01*
X112695800Y-99570166D02*
X112762467Y-99536833D01*
X111979933Y-107831433D02*
X111979933Y-107131433D01*
X111979933Y-107131433D02*
X112146600Y-107131433D01*
X112146600Y-107131433D02*
X112246600Y-107164766D01*
X112246600Y-107164766D02*
X112313267Y-107231433D01*
X112313267Y-107231433D02*
X112346600Y-107298100D01*
X112346600Y-107298100D02*
X112379933Y-107431433D01*
X112379933Y-107431433D02*
X112379933Y-107531433D01*
X112379933Y-107531433D02*
X112346600Y-107664766D01*
X112346600Y-107664766D02*
X112313267Y-107731433D01*
X112313267Y-107731433D02*
X112246600Y-107798100D01*
X112246600Y-107798100D02*
X112146600Y-107831433D01*
X112146600Y-107831433D02*
X111979933Y-107831433D01*
X112613267Y-107131433D02*
X113079933Y-107131433D01*
X113079933Y-107131433D02*
X112779933Y-107831433D01*
X111987866Y-110055566D02*
X112221200Y-110055566D01*
X112321200Y-110422233D02*
X111987866Y-110422233D01*
X111987866Y-110422233D02*
X111987866Y-109722233D01*
X111987866Y-109722233D02*
X112321200Y-109722233D01*
X112921199Y-109722233D02*
X112787866Y-109722233D01*
X112787866Y-109722233D02*
X112721199Y-109755566D01*
X112721199Y-109755566D02*
X112687866Y-109788900D01*
X112687866Y-109788900D02*
X112621199Y-109888900D01*
X112621199Y-109888900D02*
X112587866Y-110022233D01*
X112587866Y-110022233D02*
X112587866Y-110288900D01*
X112587866Y-110288900D02*
X112621199Y-110355566D01*
X112621199Y-110355566D02*
X112654533Y-110388900D01*
X112654533Y-110388900D02*
X112721199Y-110422233D01*
X112721199Y-110422233D02*
X112854533Y-110422233D01*
X112854533Y-110422233D02*
X112921199Y-110388900D01*
X112921199Y-110388900D02*
X112954533Y-110355566D01*
X112954533Y-110355566D02*
X112987866Y-110288900D01*
X112987866Y-110288900D02*
X112987866Y-110122233D01*
X112987866Y-110122233D02*
X112954533Y-110055566D01*
X112954533Y-110055566D02*
X112921199Y-110022233D01*
X112921199Y-110022233D02*
X112854533Y-109988900D01*
X112854533Y-109988900D02*
X112721199Y-109988900D01*
X112721199Y-109988900D02*
X112654533Y-110022233D01*
X112654533Y-110022233D02*
X112621199Y-110055566D01*
X112621199Y-110055566D02*
X112587866Y-110122233D01*
X95370667Y-123568033D02*
X95037333Y-123568033D01*
X95037333Y-123568033D02*
X95004000Y-123901366D01*
X95004000Y-123901366D02*
X95037333Y-123868033D01*
X95037333Y-123868033D02*
X95104000Y-123834700D01*
X95104000Y-123834700D02*
X95270667Y-123834700D01*
X95270667Y-123834700D02*
X95337333Y-123868033D01*
X95337333Y-123868033D02*
X95370667Y-123901366D01*
X95370667Y-123901366D02*
X95404000Y-123968033D01*
X95404000Y-123968033D02*
X95404000Y-124134700D01*
X95404000Y-124134700D02*
X95370667Y-124201366D01*
X95370667Y-124201366D02*
X95337333Y-124234700D01*
X95337333Y-124234700D02*
X95270667Y-124268033D01*
X95270667Y-124268033D02*
X95104000Y-124268033D01*
X95104000Y-124268033D02*
X95037333Y-124234700D01*
X95037333Y-124234700D02*
X95004000Y-124201366D01*
X95604000Y-123568033D02*
X95837334Y-124268033D01*
X95837334Y-124268033D02*
X96070667Y-123568033D01*
X90373267Y-123601366D02*
X90306600Y-123568033D01*
X90306600Y-123568033D02*
X90206600Y-123568033D01*
X90206600Y-123568033D02*
X90106600Y-123601366D01*
X90106600Y-123601366D02*
X90039934Y-123668033D01*
X90039934Y-123668033D02*
X90006600Y-123734700D01*
X90006600Y-123734700D02*
X89973267Y-123868033D01*
X89973267Y-123868033D02*
X89973267Y-123968033D01*
X89973267Y-123968033D02*
X90006600Y-124101366D01*
X90006600Y-124101366D02*
X90039934Y-124168033D01*
X90039934Y-124168033D02*
X90106600Y-124234700D01*
X90106600Y-124234700D02*
X90206600Y-124268033D01*
X90206600Y-124268033D02*
X90273267Y-124268033D01*
X90273267Y-124268033D02*
X90373267Y-124234700D01*
X90373267Y-124234700D02*
X90406600Y-124201366D01*
X90406600Y-124201366D02*
X90406600Y-123968033D01*
X90406600Y-123968033D02*
X90273267Y-123968033D01*
X90706600Y-124268033D02*
X90706600Y-123568033D01*
X90706600Y-123568033D02*
X91106600Y-124268033D01*
X91106600Y-124268033D02*
X91106600Y-123568033D01*
X91439933Y-124268033D02*
X91439933Y-123568033D01*
X91439933Y-123568033D02*
X91606600Y-123568033D01*
X91606600Y-123568033D02*
X91706600Y-123601366D01*
X91706600Y-123601366D02*
X91773267Y-123668033D01*
X91773267Y-123668033D02*
X91806600Y-123734700D01*
X91806600Y-123734700D02*
X91839933Y-123868033D01*
X91839933Y-123868033D02*
X91839933Y-123968033D01*
X91839933Y-123968033D02*
X91806600Y-124101366D01*
X91806600Y-124101366D02*
X91773267Y-124168033D01*
X91773267Y-124168033D02*
X91706600Y-124234700D01*
X91706600Y-124234700D02*
X91606600Y-124268033D01*
X91606600Y-124268033D02*
X91439933Y-124268033D01*
X88395200Y-124183900D02*
X88495200Y-124217233D01*
X88495200Y-124217233D02*
X88661867Y-124217233D01*
X88661867Y-124217233D02*
X88728533Y-124183900D01*
X88728533Y-124183900D02*
X88761867Y-124150566D01*
X88761867Y-124150566D02*
X88795200Y-124083900D01*
X88795200Y-124083900D02*
X88795200Y-124017233D01*
X88795200Y-124017233D02*
X88761867Y-123950566D01*
X88761867Y-123950566D02*
X88728533Y-123917233D01*
X88728533Y-123917233D02*
X88661867Y-123883900D01*
X88661867Y-123883900D02*
X88528533Y-123850566D01*
X88528533Y-123850566D02*
X88461867Y-123817233D01*
X88461867Y-123817233D02*
X88428533Y-123783900D01*
X88428533Y-123783900D02*
X88395200Y-123717233D01*
X88395200Y-123717233D02*
X88395200Y-123650566D01*
X88395200Y-123650566D02*
X88428533Y-123583900D01*
X88428533Y-123583900D02*
X88461867Y-123550566D01*
X88461867Y-123550566D02*
X88528533Y-123517233D01*
X88528533Y-123517233D02*
X88695200Y-123517233D01*
X88695200Y-123517233D02*
X88795200Y-123550566D01*
X89174667Y-102336766D02*
X88941333Y-102336766D01*
X88941333Y-102703433D02*
X88941333Y-102003433D01*
X88941333Y-102003433D02*
X89274667Y-102003433D01*
X89841333Y-102003433D02*
X89708000Y-102003433D01*
X89708000Y-102003433D02*
X89641333Y-102036766D01*
X89641333Y-102036766D02*
X89608000Y-102070100D01*
X89608000Y-102070100D02*
X89541333Y-102170100D01*
X89541333Y-102170100D02*
X89508000Y-102303433D01*
X89508000Y-102303433D02*
X89508000Y-102570100D01*
X89508000Y-102570100D02*
X89541333Y-102636766D01*
X89541333Y-102636766D02*
X89574667Y-102670100D01*
X89574667Y-102670100D02*
X89641333Y-102703433D01*
X89641333Y-102703433D02*
X89774667Y-102703433D01*
X89774667Y-102703433D02*
X89841333Y-102670100D01*
X89841333Y-102670100D02*
X89874667Y-102636766D01*
X89874667Y-102636766D02*
X89908000Y-102570100D01*
X89908000Y-102570100D02*
X89908000Y-102403433D01*
X89908000Y-102403433D02*
X89874667Y-102336766D01*
X89874667Y-102336766D02*
X89841333Y-102303433D01*
X89841333Y-102303433D02*
X89774667Y-102270100D01*
X89774667Y-102270100D02*
X89641333Y-102270100D01*
X89641333Y-102270100D02*
X89574667Y-102303433D01*
X89574667Y-102303433D02*
X89541333Y-102336766D01*
X89541333Y-102336766D02*
X89508000Y-102403433D01*
X89175467Y-112547566D02*
X89275467Y-112580900D01*
X89275467Y-112580900D02*
X89308800Y-112614233D01*
X89308800Y-112614233D02*
X89342133Y-112680900D01*
X89342133Y-112680900D02*
X89342133Y-112780900D01*
X89342133Y-112780900D02*
X89308800Y-112847566D01*
X89308800Y-112847566D02*
X89275467Y-112880900D01*
X89275467Y-112880900D02*
X89208800Y-112914233D01*
X89208800Y-112914233D02*
X88942133Y-112914233D01*
X88942133Y-112914233D02*
X88942133Y-112214233D01*
X88942133Y-112214233D02*
X89175467Y-112214233D01*
X89175467Y-112214233D02*
X89242133Y-112247566D01*
X89242133Y-112247566D02*
X89275467Y-112280900D01*
X89275467Y-112280900D02*
X89308800Y-112347566D01*
X89308800Y-112347566D02*
X89308800Y-112414233D01*
X89308800Y-112414233D02*
X89275467Y-112480900D01*
X89275467Y-112480900D02*
X89242133Y-112514233D01*
X89242133Y-112514233D02*
X89175467Y-112547566D01*
X89175467Y-112547566D02*
X88942133Y-112547566D01*
X89608800Y-112280900D02*
X89642133Y-112247566D01*
X89642133Y-112247566D02*
X89708800Y-112214233D01*
X89708800Y-112214233D02*
X89875467Y-112214233D01*
X89875467Y-112214233D02*
X89942133Y-112247566D01*
X89942133Y-112247566D02*
X89975467Y-112280900D01*
X89975467Y-112280900D02*
X90008800Y-112347566D01*
X90008800Y-112347566D02*
X90008800Y-112414233D01*
X90008800Y-112414233D02*
X89975467Y-112514233D01*
X89975467Y-112514233D02*
X89575467Y-112914233D01*
X89575467Y-112914233D02*
X90008800Y-112914233D01*
X89174667Y-104952966D02*
X88941333Y-104952966D01*
X88941333Y-105319633D02*
X88941333Y-104619633D01*
X88941333Y-104619633D02*
X89274667Y-104619633D01*
X89474667Y-104619633D02*
X89941333Y-104619633D01*
X89941333Y-104619633D02*
X89641333Y-105319633D01*
X89175467Y-109982166D02*
X89275467Y-110015500D01*
X89275467Y-110015500D02*
X89308800Y-110048833D01*
X89308800Y-110048833D02*
X89342133Y-110115500D01*
X89342133Y-110115500D02*
X89342133Y-110215500D01*
X89342133Y-110215500D02*
X89308800Y-110282166D01*
X89308800Y-110282166D02*
X89275467Y-110315500D01*
X89275467Y-110315500D02*
X89208800Y-110348833D01*
X89208800Y-110348833D02*
X88942133Y-110348833D01*
X88942133Y-110348833D02*
X88942133Y-109648833D01*
X88942133Y-109648833D02*
X89175467Y-109648833D01*
X89175467Y-109648833D02*
X89242133Y-109682166D01*
X89242133Y-109682166D02*
X89275467Y-109715500D01*
X89275467Y-109715500D02*
X89308800Y-109782166D01*
X89308800Y-109782166D02*
X89308800Y-109848833D01*
X89308800Y-109848833D02*
X89275467Y-109915500D01*
X89275467Y-109915500D02*
X89242133Y-109948833D01*
X89242133Y-109948833D02*
X89175467Y-109982166D01*
X89175467Y-109982166D02*
X88942133Y-109982166D01*
X89575467Y-109648833D02*
X90008800Y-109648833D01*
X90008800Y-109648833D02*
X89775467Y-109915500D01*
X89775467Y-109915500D02*
X89875467Y-109915500D01*
X89875467Y-109915500D02*
X89942133Y-109948833D01*
X89942133Y-109948833D02*
X89975467Y-109982166D01*
X89975467Y-109982166D02*
X90008800Y-110048833D01*
X90008800Y-110048833D02*
X90008800Y-110215500D01*
X90008800Y-110215500D02*
X89975467Y-110282166D01*
X89975467Y-110282166D02*
X89942133Y-110315500D01*
X89942133Y-110315500D02*
X89875467Y-110348833D01*
X89875467Y-110348833D02*
X89675467Y-110348833D01*
X89675467Y-110348833D02*
X89608800Y-110315500D01*
X89608800Y-110315500D02*
X89575467Y-110282166D01*
X89175467Y-107391366D02*
X89275467Y-107424700D01*
X89275467Y-107424700D02*
X89308800Y-107458033D01*
X89308800Y-107458033D02*
X89342133Y-107524700D01*
X89342133Y-107524700D02*
X89342133Y-107624700D01*
X89342133Y-107624700D02*
X89308800Y-107691366D01*
X89308800Y-107691366D02*
X89275467Y-107724700D01*
X89275467Y-107724700D02*
X89208800Y-107758033D01*
X89208800Y-107758033D02*
X88942133Y-107758033D01*
X88942133Y-107758033D02*
X88942133Y-107058033D01*
X88942133Y-107058033D02*
X89175467Y-107058033D01*
X89175467Y-107058033D02*
X89242133Y-107091366D01*
X89242133Y-107091366D02*
X89275467Y-107124700D01*
X89275467Y-107124700D02*
X89308800Y-107191366D01*
X89308800Y-107191366D02*
X89308800Y-107258033D01*
X89308800Y-107258033D02*
X89275467Y-107324700D01*
X89275467Y-107324700D02*
X89242133Y-107358033D01*
X89242133Y-107358033D02*
X89175467Y-107391366D01*
X89175467Y-107391366D02*
X88942133Y-107391366D01*
X90008800Y-107758033D02*
X89608800Y-107758033D01*
X89808800Y-107758033D02*
X89808800Y-107058033D01*
X89808800Y-107058033D02*
X89742133Y-107158033D01*
X89742133Y-107158033D02*
X89675467Y-107224700D01*
X89675467Y-107224700D02*
X89608800Y-107258033D01*
X89175467Y-115087566D02*
X89275467Y-115120900D01*
X89275467Y-115120900D02*
X89308800Y-115154233D01*
X89308800Y-115154233D02*
X89342133Y-115220900D01*
X89342133Y-115220900D02*
X89342133Y-115320900D01*
X89342133Y-115320900D02*
X89308800Y-115387566D01*
X89308800Y-115387566D02*
X89275467Y-115420900D01*
X89275467Y-115420900D02*
X89208800Y-115454233D01*
X89208800Y-115454233D02*
X88942133Y-115454233D01*
X88942133Y-115454233D02*
X88942133Y-114754233D01*
X88942133Y-114754233D02*
X89175467Y-114754233D01*
X89175467Y-114754233D02*
X89242133Y-114787566D01*
X89242133Y-114787566D02*
X89275467Y-114820900D01*
X89275467Y-114820900D02*
X89308800Y-114887566D01*
X89308800Y-114887566D02*
X89308800Y-114954233D01*
X89308800Y-114954233D02*
X89275467Y-115020900D01*
X89275467Y-115020900D02*
X89242133Y-115054233D01*
X89242133Y-115054233D02*
X89175467Y-115087566D01*
X89175467Y-115087566D02*
X88942133Y-115087566D01*
X89942133Y-114754233D02*
X89808800Y-114754233D01*
X89808800Y-114754233D02*
X89742133Y-114787566D01*
X89742133Y-114787566D02*
X89708800Y-114820900D01*
X89708800Y-114820900D02*
X89642133Y-114920900D01*
X89642133Y-114920900D02*
X89608800Y-115054233D01*
X89608800Y-115054233D02*
X89608800Y-115320900D01*
X89608800Y-115320900D02*
X89642133Y-115387566D01*
X89642133Y-115387566D02*
X89675467Y-115420900D01*
X89675467Y-115420900D02*
X89742133Y-115454233D01*
X89742133Y-115454233D02*
X89875467Y-115454233D01*
X89875467Y-115454233D02*
X89942133Y-115420900D01*
X89942133Y-115420900D02*
X89975467Y-115387566D01*
X89975467Y-115387566D02*
X90008800Y-115320900D01*
X90008800Y-115320900D02*
X90008800Y-115154233D01*
X90008800Y-115154233D02*
X89975467Y-115087566D01*
X89975467Y-115087566D02*
X89942133Y-115054233D01*
X89942133Y-115054233D02*
X89875467Y-115020900D01*
X89875467Y-115020900D02*
X89742133Y-115020900D01*
X89742133Y-115020900D02*
X89675467Y-115054233D01*
X89675467Y-115054233D02*
X89642133Y-115087566D01*
X89642133Y-115087566D02*
X89608800Y-115154233D01*
D11*
X90274600Y-118893800D02*
X90274600Y-117563800D01*
X90274600Y-117563800D02*
X88944600Y-117563800D01*
X105560800Y-117589200D02*
X105560800Y-118919200D01*
X106890800Y-117589200D02*
X105560800Y-117589200D01*
D12*
X99742814Y-100034131D02*
X99826635Y-100478755D01*
X100135920Y-100606253D01*
X100445206Y-100733751D01*
X100816246Y-100481446D01*
X100920157Y-100411196D01*
X101014087Y-100348472D01*
X101093652Y-100296138D01*
X101154470Y-100257057D01*
X101192157Y-100234093D01*
X101202421Y-100229142D01*
X101220910Y-100241876D01*
X101260420Y-100277082D01*
X101316522Y-100330262D01*
X101384787Y-100396918D01*
X101460786Y-100472554D01*
X101540092Y-100552672D01*
X101618275Y-100632774D01*
X101690907Y-100708364D01*
X101753559Y-100774945D01*
X101801803Y-100828018D01*
X101831210Y-100863087D01*
X101838241Y-100874823D01*
X101828123Y-100896460D01*
X101799759Y-100943862D01*
X101756129Y-101012393D01*
X101700218Y-101097415D01*
X101635006Y-101194293D01*
X101597219Y-101249550D01*
X101528343Y-101350448D01*
X101467140Y-101441499D01*
X101416578Y-101518170D01*
X101379628Y-101575928D01*
X101359258Y-101610243D01*
X101356197Y-101617454D01*
X101363136Y-101637948D01*
X101382051Y-101685713D01*
X101410087Y-101754032D01*
X101444391Y-101836189D01*
X101482109Y-101925470D01*
X101520387Y-102015158D01*
X101556370Y-102098538D01*
X101587206Y-102168894D01*
X101610039Y-102219510D01*
X101622017Y-102243671D01*
X101622724Y-102244622D01*
X101641531Y-102249236D01*
X101691618Y-102259528D01*
X101767793Y-102274487D01*
X101864865Y-102293101D01*
X101977643Y-102314359D01*
X102043442Y-102326618D01*
X102163950Y-102349562D01*
X102272797Y-102371395D01*
X102364476Y-102390922D01*
X102433481Y-102406948D01*
X102474304Y-102418279D01*
X102482511Y-102421874D01*
X102490548Y-102446206D01*
X102497033Y-102501159D01*
X102501970Y-102580308D01*
X102505364Y-102677226D01*
X102507218Y-102785487D01*
X102507538Y-102898665D01*
X102506327Y-103010335D01*
X102503590Y-103114068D01*
X102499331Y-103203441D01*
X102493555Y-103272026D01*
X102486267Y-103313397D01*
X102481895Y-103322010D01*
X102455764Y-103332333D01*
X102400393Y-103347092D01*
X102323107Y-103364552D01*
X102231230Y-103382980D01*
X102199158Y-103388941D01*
X102044524Y-103417266D01*
X101922375Y-103440076D01*
X101828673Y-103458280D01*
X101759384Y-103472783D01*
X101710471Y-103484492D01*
X101677897Y-103494315D01*
X101657628Y-103503156D01*
X101645626Y-103511924D01*
X101643947Y-103513657D01*
X101627184Y-103541571D01*
X101601614Y-103595895D01*
X101569788Y-103669977D01*
X101534260Y-103757165D01*
X101497583Y-103850808D01*
X101462311Y-103944252D01*
X101430996Y-104030847D01*
X101406193Y-104103940D01*
X101390454Y-104156878D01*
X101386332Y-104183011D01*
X101386676Y-104183926D01*
X101400641Y-104205286D01*
X101432322Y-104252284D01*
X101478391Y-104320027D01*
X101535518Y-104403623D01*
X101600373Y-104498182D01*
X101618843Y-104525054D01*
X101684699Y-104622475D01*
X101742650Y-104711363D01*
X101789538Y-104786612D01*
X101822207Y-104843120D01*
X101837500Y-104875781D01*
X101838241Y-104879793D01*
X101825392Y-104900884D01*
X101789888Y-104942664D01*
X101736293Y-105000645D01*
X101669171Y-105070335D01*
X101593087Y-105147245D01*
X101512604Y-105226883D01*
X101432287Y-105304761D01*
X101356699Y-105376386D01*
X101290405Y-105437270D01*
X101237969Y-105482921D01*
X101203955Y-105508850D01*
X101194545Y-105513083D01*
X101172643Y-105503112D01*
X101127800Y-105476220D01*
X101067321Y-105436936D01*
X101020789Y-105405317D01*
X100936475Y-105347298D01*
X100836626Y-105278984D01*
X100736473Y-105210779D01*
X100682627Y-105174275D01*
X100500371Y-105051000D01*
X100347381Y-105133720D01*
X100277682Y-105169959D01*
X100218414Y-105198126D01*
X100178311Y-105214191D01*
X100168103Y-105216426D01*
X100155829Y-105199922D01*
X100131613Y-105153282D01*
X100097263Y-105080809D01*
X100054588Y-104986806D01*
X100005394Y-104875574D01*
X99951490Y-104751415D01*
X99894684Y-104618632D01*
X99836782Y-104481527D01*
X99779593Y-104344402D01*
X99724924Y-104211558D01*
X99674584Y-104087298D01*
X99630380Y-103975925D01*
X99594119Y-103881739D01*
X99567609Y-103809044D01*
X99552658Y-103762141D01*
X99550254Y-103746033D01*
X99569311Y-103725486D01*
X99611036Y-103692133D01*
X99666706Y-103652902D01*
X99671378Y-103649799D01*
X99815264Y-103534623D01*
X99931283Y-103400253D01*
X100018430Y-103250984D01*
X100075699Y-103091113D01*
X100102086Y-102924937D01*
X100096585Y-102756752D01*
X100058190Y-102590855D01*
X99985895Y-102431542D01*
X99964626Y-102396687D01*
X99853996Y-102255937D01*
X99723302Y-102142914D01*
X99577064Y-102058203D01*
X99419808Y-102002394D01*
X99256057Y-101976074D01*
X99090333Y-101979830D01*
X98927162Y-102014250D01*
X98771065Y-102079923D01*
X98626567Y-102177435D01*
X98581869Y-102217013D01*
X98468112Y-102340903D01*
X98385218Y-102471324D01*
X98328356Y-102617515D01*
X98296687Y-102762288D01*
X98288869Y-102925060D01*
X98314938Y-103088640D01*
X98372245Y-103247498D01*
X98458144Y-103396106D01*
X98569986Y-103528935D01*
X98705123Y-103640456D01*
X98722883Y-103652211D01*
X98779150Y-103690708D01*
X98821923Y-103724063D01*
X98842372Y-103745360D01*
X98842669Y-103746033D01*
X98838279Y-103769071D01*
X98820876Y-103821357D01*
X98792268Y-103898590D01*
X98754265Y-103996468D01*
X98708674Y-104110691D01*
X98657303Y-104236958D01*
X98601962Y-104370967D01*
X98544458Y-104508418D01*
X98486601Y-104645008D01*
X98430198Y-104776437D01*
X98377058Y-104898405D01*
X98328990Y-105006609D01*
X98287801Y-105096749D01*
X98255301Y-105164523D01*
X98233297Y-105205630D01*
X98224436Y-105216426D01*
X98197360Y-105208019D01*
X98146697Y-105185472D01*
X98081183Y-105152813D01*
X98045159Y-105133720D01*
X97892168Y-105051000D01*
X97709912Y-105174275D01*
X97616875Y-105237428D01*
X97515015Y-105306927D01*
X97419562Y-105372365D01*
X97371750Y-105405317D01*
X97304505Y-105450473D01*
X97247564Y-105486257D01*
X97208354Y-105508138D01*
X97195619Y-105512763D01*
X97177083Y-105500285D01*
X97136059Y-105465452D01*
X97076525Y-105411878D01*
X97002458Y-105343183D01*
X96917835Y-105262981D01*
X96864315Y-105211486D01*
X96770681Y-105119486D01*
X96689759Y-105037199D01*
X96624823Y-104968145D01*
X96579142Y-104915844D01*
X96555989Y-104883816D01*
X96553768Y-104877316D01*
X96564076Y-104852594D01*
X96592561Y-104802605D01*
X96636063Y-104732412D01*
X96691423Y-104647075D01*
X96755480Y-104551656D01*
X96773697Y-104525054D01*
X96840073Y-104428367D01*
X96899622Y-104341317D01*
X96949016Y-104268795D01*
X96984925Y-104215693D01*
X97004019Y-104186903D01*
X97005864Y-104183926D01*
X97003105Y-104160982D01*
X96988462Y-104110536D01*
X96964487Y-104039241D01*
X96933734Y-103953747D01*
X96898756Y-103860707D01*
X96862107Y-103766774D01*
X96826339Y-103678599D01*
X96794006Y-103602834D01*
X96767662Y-103546131D01*
X96749858Y-103515143D01*
X96748593Y-103513657D01*
X96737706Y-103504801D01*
X96719318Y-103496043D01*
X96689394Y-103486477D01*
X96643897Y-103475196D01*
X96578791Y-103461293D01*
X96490039Y-103443863D01*
X96373607Y-103421998D01*
X96225458Y-103394791D01*
X96193382Y-103388941D01*
X96098314Y-103370574D01*
X96015435Y-103352605D01*
X95952070Y-103336769D01*
X95915542Y-103324800D01*
X95910644Y-103322010D01*
X95902573Y-103297272D01*
X95896013Y-103241990D01*
X95890967Y-103162589D01*
X95887441Y-103065496D01*
X95885439Y-102957138D01*
X95884964Y-102843940D01*
X95886023Y-102732328D01*
X95888618Y-102628729D01*
X95892754Y-102539568D01*
X95898437Y-102471272D01*
X95905669Y-102430266D01*
X95910029Y-102421874D01*
X95934302Y-102413408D01*
X95989574Y-102399635D01*
X96070338Y-102381750D01*
X96171088Y-102360948D01*
X96286317Y-102338423D01*
X96349098Y-102326618D01*
X96468213Y-102304351D01*
X96574435Y-102284179D01*
X96662573Y-102267115D01*
X96727434Y-102254169D01*
X96763826Y-102246355D01*
X96769816Y-102244622D01*
X96779939Y-102225090D01*
X96801338Y-102178043D01*
X96831161Y-102110203D01*
X96866555Y-102028291D01*
X96904668Y-101939028D01*
X96942647Y-101849135D01*
X96977640Y-101765335D01*
X97006794Y-101694347D01*
X97027257Y-101642894D01*
X97036177Y-101617697D01*
X97036343Y-101616596D01*
X97026231Y-101596719D01*
X96997883Y-101550977D01*
X96954277Y-101483917D01*
X96898394Y-101400084D01*
X96833213Y-101304026D01*
X96795321Y-101248850D01*
X96726275Y-101147681D01*
X96664950Y-101055830D01*
X96614337Y-100977944D01*
X96577429Y-100918669D01*
X96557218Y-100882651D01*
X96554299Y-100874577D01*
X96566847Y-100855784D01*
X96601537Y-100815657D01*
X96653937Y-100758693D01*
X96719616Y-100689385D01*
X96794144Y-100612231D01*
X96873087Y-100531725D01*
X96952017Y-100452363D01*
X97026500Y-100378640D01*
X97092106Y-100315052D01*
X97144404Y-100266094D01*
X97178961Y-100236261D01*
X97190522Y-100229142D01*
X97209346Y-100239153D01*
X97254369Y-100267278D01*
X97321213Y-100310654D01*
X97405501Y-100366418D01*
X97502856Y-100431706D01*
X97576293Y-100481446D01*
X97947333Y-100733751D01*
X98565905Y-100478755D01*
X98649725Y-100034131D01*
X98733546Y-99589507D01*
X99658994Y-99589507D01*
X99742814Y-100034131D01*
G36*
X99742814Y-100034131D02*
G01*
X99826635Y-100478755D01*
X100135920Y-100606253D01*
X100445206Y-100733751D01*
X100816246Y-100481446D01*
X100920157Y-100411196D01*
X101014087Y-100348472D01*
X101093652Y-100296138D01*
X101154470Y-100257057D01*
X101192157Y-100234093D01*
X101202421Y-100229142D01*
X101220910Y-100241876D01*
X101260420Y-100277082D01*
X101316522Y-100330262D01*
X101384787Y-100396918D01*
X101460786Y-100472554D01*
X101540092Y-100552672D01*
X101618275Y-100632774D01*
X101690907Y-100708364D01*
X101753559Y-100774945D01*
X101801803Y-100828018D01*
X101831210Y-100863087D01*
X101838241Y-100874823D01*
X101828123Y-100896460D01*
X101799759Y-100943862D01*
X101756129Y-101012393D01*
X101700218Y-101097415D01*
X101635006Y-101194293D01*
X101597219Y-101249550D01*
X101528343Y-101350448D01*
X101467140Y-101441499D01*
X101416578Y-101518170D01*
X101379628Y-101575928D01*
X101359258Y-101610243D01*
X101356197Y-101617454D01*
X101363136Y-101637948D01*
X101382051Y-101685713D01*
X101410087Y-101754032D01*
X101444391Y-101836189D01*
X101482109Y-101925470D01*
X101520387Y-102015158D01*
X101556370Y-102098538D01*
X101587206Y-102168894D01*
X101610039Y-102219510D01*
X101622017Y-102243671D01*
X101622724Y-102244622D01*
X101641531Y-102249236D01*
X101691618Y-102259528D01*
X101767793Y-102274487D01*
X101864865Y-102293101D01*
X101977643Y-102314359D01*
X102043442Y-102326618D01*
X102163950Y-102349562D01*
X102272797Y-102371395D01*
X102364476Y-102390922D01*
X102433481Y-102406948D01*
X102474304Y-102418279D01*
X102482511Y-102421874D01*
X102490548Y-102446206D01*
X102497033Y-102501159D01*
X102501970Y-102580308D01*
X102505364Y-102677226D01*
X102507218Y-102785487D01*
X102507538Y-102898665D01*
X102506327Y-103010335D01*
X102503590Y-103114068D01*
X102499331Y-103203441D01*
X102493555Y-103272026D01*
X102486267Y-103313397D01*
X102481895Y-103322010D01*
X102455764Y-103332333D01*
X102400393Y-103347092D01*
X102323107Y-103364552D01*
X102231230Y-103382980D01*
X102199158Y-103388941D01*
X102044524Y-103417266D01*
X101922375Y-103440076D01*
X101828673Y-103458280D01*
X101759384Y-103472783D01*
X101710471Y-103484492D01*
X101677897Y-103494315D01*
X101657628Y-103503156D01*
X101645626Y-103511924D01*
X101643947Y-103513657D01*
X101627184Y-103541571D01*
X101601614Y-103595895D01*
X101569788Y-103669977D01*
X101534260Y-103757165D01*
X101497583Y-103850808D01*
X101462311Y-103944252D01*
X101430996Y-104030847D01*
X101406193Y-104103940D01*
X101390454Y-104156878D01*
X101386332Y-104183011D01*
X101386676Y-104183926D01*
X101400641Y-104205286D01*
X101432322Y-104252284D01*
X101478391Y-104320027D01*
X101535518Y-104403623D01*
X101600373Y-104498182D01*
X101618843Y-104525054D01*
X101684699Y-104622475D01*
X101742650Y-104711363D01*
X101789538Y-104786612D01*
X101822207Y-104843120D01*
X101837500Y-104875781D01*
X101838241Y-104879793D01*
X101825392Y-104900884D01*
X101789888Y-104942664D01*
X101736293Y-105000645D01*
X101669171Y-105070335D01*
X101593087Y-105147245D01*
X101512604Y-105226883D01*
X101432287Y-105304761D01*
X101356699Y-105376386D01*
X101290405Y-105437270D01*
X101237969Y-105482921D01*
X101203955Y-105508850D01*
X101194545Y-105513083D01*
X101172643Y-105503112D01*
X101127800Y-105476220D01*
X101067321Y-105436936D01*
X101020789Y-105405317D01*
X100936475Y-105347298D01*
X100836626Y-105278984D01*
X100736473Y-105210779D01*
X100682627Y-105174275D01*
X100500371Y-105051000D01*
X100347381Y-105133720D01*
X100277682Y-105169959D01*
X100218414Y-105198126D01*
X100178311Y-105214191D01*
X100168103Y-105216426D01*
X100155829Y-105199922D01*
X100131613Y-105153282D01*
X100097263Y-105080809D01*
X100054588Y-104986806D01*
X100005394Y-104875574D01*
X99951490Y-104751415D01*
X99894684Y-104618632D01*
X99836782Y-104481527D01*
X99779593Y-104344402D01*
X99724924Y-104211558D01*
X99674584Y-104087298D01*
X99630380Y-103975925D01*
X99594119Y-103881739D01*
X99567609Y-103809044D01*
X99552658Y-103762141D01*
X99550254Y-103746033D01*
X99569311Y-103725486D01*
X99611036Y-103692133D01*
X99666706Y-103652902D01*
X99671378Y-103649799D01*
X99815264Y-103534623D01*
X99931283Y-103400253D01*
X100018430Y-103250984D01*
X100075699Y-103091113D01*
X100102086Y-102924937D01*
X100096585Y-102756752D01*
X100058190Y-102590855D01*
X99985895Y-102431542D01*
X99964626Y-102396687D01*
X99853996Y-102255937D01*
X99723302Y-102142914D01*
X99577064Y-102058203D01*
X99419808Y-102002394D01*
X99256057Y-101976074D01*
X99090333Y-101979830D01*
X98927162Y-102014250D01*
X98771065Y-102079923D01*
X98626567Y-102177435D01*
X98581869Y-102217013D01*
X98468112Y-102340903D01*
X98385218Y-102471324D01*
X98328356Y-102617515D01*
X98296687Y-102762288D01*
X98288869Y-102925060D01*
X98314938Y-103088640D01*
X98372245Y-103247498D01*
X98458144Y-103396106D01*
X98569986Y-103528935D01*
X98705123Y-103640456D01*
X98722883Y-103652211D01*
X98779150Y-103690708D01*
X98821923Y-103724063D01*
X98842372Y-103745360D01*
X98842669Y-103746033D01*
X98838279Y-103769071D01*
X98820876Y-103821357D01*
X98792268Y-103898590D01*
X98754265Y-103996468D01*
X98708674Y-104110691D01*
X98657303Y-104236958D01*
X98601962Y-104370967D01*
X98544458Y-104508418D01*
X98486601Y-104645008D01*
X98430198Y-104776437D01*
X98377058Y-104898405D01*
X98328990Y-105006609D01*
X98287801Y-105096749D01*
X98255301Y-105164523D01*
X98233297Y-105205630D01*
X98224436Y-105216426D01*
X98197360Y-105208019D01*
X98146697Y-105185472D01*
X98081183Y-105152813D01*
X98045159Y-105133720D01*
X97892168Y-105051000D01*
X97709912Y-105174275D01*
X97616875Y-105237428D01*
X97515015Y-105306927D01*
X97419562Y-105372365D01*
X97371750Y-105405317D01*
X97304505Y-105450473D01*
X97247564Y-105486257D01*
X97208354Y-105508138D01*
X97195619Y-105512763D01*
X97177083Y-105500285D01*
X97136059Y-105465452D01*
X97076525Y-105411878D01*
X97002458Y-105343183D01*
X96917835Y-105262981D01*
X96864315Y-105211486D01*
X96770681Y-105119486D01*
X96689759Y-105037199D01*
X96624823Y-104968145D01*
X96579142Y-104915844D01*
X96555989Y-104883816D01*
X96553768Y-104877316D01*
X96564076Y-104852594D01*
X96592561Y-104802605D01*
X96636063Y-104732412D01*
X96691423Y-104647075D01*
X96755480Y-104551656D01*
X96773697Y-104525054D01*
X96840073Y-104428367D01*
X96899622Y-104341317D01*
X96949016Y-104268795D01*
X96984925Y-104215693D01*
X97004019Y-104186903D01*
X97005864Y-104183926D01*
X97003105Y-104160982D01*
X96988462Y-104110536D01*
X96964487Y-104039241D01*
X96933734Y-103953747D01*
X96898756Y-103860707D01*
X96862107Y-103766774D01*
X96826339Y-103678599D01*
X96794006Y-103602834D01*
X96767662Y-103546131D01*
X96749858Y-103515143D01*
X96748593Y-103513657D01*
X96737706Y-103504801D01*
X96719318Y-103496043D01*
X96689394Y-103486477D01*
X96643897Y-103475196D01*
X96578791Y-103461293D01*
X96490039Y-103443863D01*
X96373607Y-103421998D01*
X96225458Y-103394791D01*
X96193382Y-103388941D01*
X96098314Y-103370574D01*
X96015435Y-103352605D01*
X95952070Y-103336769D01*
X95915542Y-103324800D01*
X95910644Y-103322010D01*
X95902573Y-103297272D01*
X95896013Y-103241990D01*
X95890967Y-103162589D01*
X95887441Y-103065496D01*
X95885439Y-102957138D01*
X95884964Y-102843940D01*
X95886023Y-102732328D01*
X95888618Y-102628729D01*
X95892754Y-102539568D01*
X95898437Y-102471272D01*
X95905669Y-102430266D01*
X95910029Y-102421874D01*
X95934302Y-102413408D01*
X95989574Y-102399635D01*
X96070338Y-102381750D01*
X96171088Y-102360948D01*
X96286317Y-102338423D01*
X96349098Y-102326618D01*
X96468213Y-102304351D01*
X96574435Y-102284179D01*
X96662573Y-102267115D01*
X96727434Y-102254169D01*
X96763826Y-102246355D01*
X96769816Y-102244622D01*
X96779939Y-102225090D01*
X96801338Y-102178043D01*
X96831161Y-102110203D01*
X96866555Y-102028291D01*
X96904668Y-101939028D01*
X96942647Y-101849135D01*
X96977640Y-101765335D01*
X97006794Y-101694347D01*
X97027257Y-101642894D01*
X97036177Y-101617697D01*
X97036343Y-101616596D01*
X97026231Y-101596719D01*
X96997883Y-101550977D01*
X96954277Y-101483917D01*
X96898394Y-101400084D01*
X96833213Y-101304026D01*
X96795321Y-101248850D01*
X96726275Y-101147681D01*
X96664950Y-101055830D01*
X96614337Y-100977944D01*
X96577429Y-100918669D01*
X96557218Y-100882651D01*
X96554299Y-100874577D01*
X96566847Y-100855784D01*
X96601537Y-100815657D01*
X96653937Y-100758693D01*
X96719616Y-100689385D01*
X96794144Y-100612231D01*
X96873087Y-100531725D01*
X96952017Y-100452363D01*
X97026500Y-100378640D01*
X97092106Y-100315052D01*
X97144404Y-100266094D01*
X97178961Y-100236261D01*
X97190522Y-100229142D01*
X97209346Y-100239153D01*
X97254369Y-100267278D01*
X97321213Y-100310654D01*
X97405501Y-100366418D01*
X97502856Y-100431706D01*
X97576293Y-100481446D01*
X97947333Y-100733751D01*
X98565905Y-100478755D01*
X98649725Y-100034131D01*
X98733546Y-99589507D01*
X99658994Y-99589507D01*
X99742814Y-100034131D01*
G37*
D10*
X108585000Y-84262850D02*
X108585000Y-96835850D01*
X109163200Y-84262850D02*
X109163200Y-82262850D01*
X114763200Y-82262850D02*
X109163200Y-82262850D01*
X114763200Y-84262850D02*
X114763200Y-82262850D01*
X115341400Y-84262850D02*
X108585000Y-84262850D01*
X115341400Y-84262850D02*
X115341400Y-96835850D01*
X115341400Y-96835850D02*
X108585000Y-96835850D01*
D11*
X100080000Y-123913200D02*
X100080000Y-125413200D01*
X101330000Y-127913200D02*
X105830000Y-127913200D01*
X105830000Y-121413200D02*
X101330000Y-121413200D01*
X107080000Y-125413200D02*
X107080000Y-123913200D01*
D10*
X108077000Y-83342950D02*
X90297000Y-83342950D01*
X90297000Y-83342950D02*
X90297000Y-85882950D01*
X108077000Y-85882950D02*
X108077000Y-83342950D01*
X90297000Y-85882950D02*
X90297000Y-116362950D01*
X108077000Y-116362950D02*
X108077000Y-85882950D01*
X90297000Y-116362950D02*
X108077000Y-116362950D01*
X84677250Y-128168400D02*
X97250250Y-128168400D01*
X84677250Y-127590200D02*
X82677250Y-127590200D01*
X82677250Y-121990200D02*
X82677250Y-127590200D01*
X84677250Y-121990200D02*
X82677250Y-121990200D01*
X84677250Y-121412000D02*
X84677250Y-128168400D01*
X84677250Y-121412000D02*
X97250250Y-121412000D01*
X97250250Y-121412000D02*
X97250250Y-128168400D01*
D13*
X91567000Y-87152950D03*
X91567000Y-89692950D03*
D14*
X91567000Y-92232950D03*
D15*
X91567000Y-94772950D03*
D13*
X91567000Y-97312950D03*
X91567000Y-99852950D03*
X91567000Y-102392950D03*
X91567000Y-104932950D03*
X91567000Y-107472950D03*
X91567000Y-110012950D03*
X91567000Y-112552950D03*
X91567000Y-115092950D03*
X106807000Y-115092950D03*
X106807000Y-112552950D03*
X106807000Y-110012950D03*
X106807000Y-107472950D03*
X106807000Y-104932950D03*
X106807000Y-102392950D03*
X106807000Y-99852950D03*
X106807000Y-97312950D03*
D16*
X106807000Y-94772950D03*
D13*
X106807000Y-92232950D03*
D14*
X106807000Y-89692950D03*
D13*
X106807000Y-87152950D03*
X94107000Y-115092950D03*
X96647000Y-115092950D03*
X99187000Y-115092950D03*
X101727000Y-115092950D03*
X104267000Y-115092950D03*
%LPC*%
D17*
X86490000Y-118910000D03*
D18*
X89030000Y-118910000D03*
X91570000Y-118910000D03*
X94110000Y-118910000D03*
X96650000Y-118910000D03*
X99190000Y-118910000D03*
X101730000Y-118910000D03*
X104270000Y-118910000D03*
X106810000Y-118910000D03*
X109350000Y-118910000D03*
D19*
X111890000Y-118910000D03*
D20*
X111963200Y-92862850D03*
D21*
X109663200Y-95057850D03*
X114263200Y-95062850D03*
D22*
X109677200Y-90485850D03*
X114263200Y-90462850D03*
X109677200Y-87437850D03*
X114263200Y-87462850D03*
D17*
X110634400Y-102387400D03*
D18*
X110634400Y-104927400D03*
X110634400Y-107467400D03*
X110634400Y-110007400D03*
X110634400Y-112547400D03*
X110634400Y-115087400D03*
D23*
X100330000Y-122413200D03*
X106830000Y-122413200D03*
X100330000Y-126913200D03*
X106830000Y-126913200D03*
D13*
X91567000Y-87152950D03*
X91567000Y-89692950D03*
D14*
X91567000Y-92232950D03*
D15*
X91567000Y-94772950D03*
D13*
X91567000Y-97312950D03*
X91567000Y-99852950D03*
X91567000Y-102392950D03*
X91567000Y-104932950D03*
X91567000Y-107472950D03*
X91567000Y-110012950D03*
X91567000Y-112552950D03*
X91567000Y-115092950D03*
X106807000Y-115092950D03*
X106807000Y-112552950D03*
X106807000Y-110012950D03*
X106807000Y-107472950D03*
X106807000Y-104932950D03*
X106807000Y-102392950D03*
X106807000Y-99852950D03*
X106807000Y-97312950D03*
D16*
X106807000Y-94772950D03*
D13*
X106807000Y-92232950D03*
D14*
X106807000Y-89692950D03*
D13*
X106807000Y-87152950D03*
X94107000Y-115092950D03*
X96647000Y-115092950D03*
X99187000Y-115092950D03*
X101727000Y-115092950D03*
X104267000Y-115092950D03*
D17*
X84050000Y-115090000D03*
D18*
X84050000Y-112550000D03*
X84050000Y-110010000D03*
X84050000Y-107470000D03*
X84050000Y-104930000D03*
X84050000Y-102390000D03*
X84050000Y-99850000D03*
X114266600Y-99870000D03*
X114266600Y-102410000D03*
X114266600Y-104950000D03*
X114266600Y-107490000D03*
X114266600Y-110030000D03*
X114266600Y-112570000D03*
D17*
X114266600Y-115110000D03*
D24*
X86266400Y-124790200D03*
X86266400Y-85844850D03*
X111963200Y-124790200D03*
D20*
X93277250Y-124790200D03*
D25*
X95472250Y-127090200D03*
X95477250Y-122490200D03*
D26*
X90900250Y-127076200D03*
X90877250Y-122490200D03*
X87852250Y-127076200D03*
X87877250Y-122490200D03*
D17*
X87739600Y-102362000D03*
D18*
X87739600Y-104902000D03*
X87739600Y-107442000D03*
X87739600Y-109982000D03*
X87739600Y-112522000D03*
X87739600Y-115062000D03*
D24*
X111963200Y-85844850D03*
%LPD*%
M02*
