G04 #@! TF.GenerationSoftware,KiCad,Pcbnew,(6.0.6)*
G04 #@! TF.CreationDate,2023-06-15T04:27:02+08:00*
G04 #@! TF.ProjectId,handwire microboard,68616e64-7769-4726-9520-6d6963726f62,rev?*
G04 #@! TF.SameCoordinates,Original*
G04 #@! TF.FileFunction,Copper,L1,Top*
G04 #@! TF.FilePolarity,Positive*
%FSLAX46Y46*%
G04 Gerber Fmt 4.6, Leading zero omitted, Abs format (unit mm)*
G04 Created by KiCad (PCBNEW (6.0.6)) date 2023-06-15 04:27:02*
%MOMM*%
%LPD*%
G01*
G04 APERTURE LIST*
G04 Aperture macros list*
%AMOutline4P*
0 Free polygon, 4 corners , with rotation*
0 The origin of the aperture is its center*
0 number of corners: always 4*
0 $1 to $8 corner X, Y*
0 $9 Rotation angle, in degrees counterclockwise*
0 create outline with 4 corners*
4,1,4,$1,$2,$3,$4,$5,$6,$7,$8,$1,$2,$9*%
G04 Aperture macros list end*
G04 #@! TA.AperFunction,ComponentPad*
%ADD10O,1.700000X1.700000*%
G04 #@! TD*
G04 #@! TA.AperFunction,ComponentPad*
%ADD11R,1.700000X1.700000*%
G04 #@! TD*
G04 #@! TA.AperFunction,ComponentPad*
%ADD12O,2.000000X1.600000*%
G04 #@! TD*
G04 #@! TA.AperFunction,ComponentPad*
%ADD13C,1.752600*%
G04 #@! TD*
G04 #@! TA.AperFunction,ComponentPad*
%ADD14Outline4P,-0.876300X-0.876300X0.876300X-0.876300X0.876300X0.876300X-0.876300X0.876300X270.000000*%
G04 #@! TD*
G04 #@! TA.AperFunction,ComponentPad*
%ADD15R,1.752600X1.752600*%
G04 #@! TD*
G04 #@! TA.AperFunction,ComponentPad*
%ADD16O,1.600000X2.000000*%
G04 #@! TD*
G04 #@! TA.AperFunction,ComponentPad*
%ADD17C,2.000000*%
G04 #@! TD*
G04 #@! TA.AperFunction,ViaPad*
%ADD18C,0.800000*%
G04 #@! TD*
G04 #@! TA.AperFunction,Conductor*
%ADD19C,0.250000*%
G04 #@! TD*
G04 APERTURE END LIST*
D10*
X162862948Y-110266500D03*
X160322948Y-110266500D03*
X157782948Y-110266500D03*
X155242948Y-110266500D03*
X152702948Y-110266500D03*
X150162948Y-110266500D03*
X147622948Y-110266500D03*
D11*
X145082948Y-110266500D03*
D12*
X140916948Y-113301500D03*
X143916948Y-113301500D03*
X147916948Y-113301500D03*
X149016948Y-117901500D03*
D11*
X168196948Y-93629500D03*
D10*
X168196948Y-96169500D03*
X168196948Y-98709500D03*
X168196948Y-101249500D03*
X168196948Y-103789500D03*
X168196948Y-106329500D03*
D11*
X137208948Y-93629500D03*
D10*
X137208948Y-96169500D03*
X137208948Y-98709500D03*
X137208948Y-101249500D03*
X137208948Y-103789500D03*
X137208948Y-106329500D03*
X141424948Y-106349500D03*
X141424948Y-103809500D03*
X141424948Y-101269500D03*
X141424948Y-98729500D03*
X141424948Y-96189500D03*
X141424948Y-93649500D03*
D11*
X141424948Y-91109500D03*
D13*
X145082948Y-78897500D03*
X145082948Y-81437500D03*
D14*
X145082948Y-83977500D03*
X145082948Y-86517500D03*
D13*
X145082948Y-89057500D03*
X145082948Y-91597500D03*
X145082948Y-94137500D03*
X145082948Y-96677500D03*
X145082948Y-99217500D03*
X145082948Y-101757500D03*
X145082948Y-104297500D03*
X145082948Y-106837500D03*
X160322948Y-106837500D03*
X160322948Y-104297500D03*
X160322948Y-101757500D03*
X160322948Y-99217500D03*
X160322948Y-96677500D03*
X160322948Y-94137500D03*
X160322948Y-91597500D03*
X160322948Y-89057500D03*
D15*
X160322948Y-86517500D03*
D13*
X160322948Y-83977500D03*
D14*
X160322948Y-81437500D03*
D13*
X160322948Y-78897500D03*
X147622948Y-106837500D03*
X150162948Y-106837500D03*
X152702948Y-106837500D03*
X155242948Y-106837500D03*
X157782948Y-106837500D03*
D16*
X141540948Y-78779500D03*
X141540948Y-81779500D03*
X141540948Y-85779500D03*
X136940948Y-86879500D03*
X168464948Y-78779500D03*
X168464948Y-81779500D03*
X168464948Y-85779500D03*
X163864948Y-86879500D03*
D11*
X164157948Y-91109500D03*
D10*
X164157948Y-93649500D03*
X164157948Y-96189500D03*
X164157948Y-98729500D03*
X164157948Y-101269500D03*
X164157948Y-103809500D03*
X164157948Y-106349500D03*
D12*
X164488948Y-117900500D03*
X161488948Y-117900500D03*
X157488948Y-117900500D03*
X156388948Y-113300500D03*
D17*
X149452948Y-120970500D03*
X155952948Y-120970500D03*
X149452948Y-125470500D03*
X155952948Y-125470500D03*
D18*
X151765000Y-116489500D03*
X158294549Y-104420899D03*
X158290948Y-102265500D03*
X158290948Y-99695000D03*
X158290948Y-97155000D03*
X158290948Y-94683000D03*
X158290948Y-92075000D03*
D19*
X138478948Y-105059500D02*
X137208948Y-106329500D01*
X143304948Y-105567500D02*
X142796948Y-105059500D01*
X145764104Y-105567500D02*
X143304948Y-105567500D01*
X158294549Y-104420899D02*
X146910705Y-104420899D01*
X146910705Y-104420899D02*
X145764104Y-105567500D01*
X142796948Y-105059500D02*
X138478948Y-105059500D01*
X145130500Y-106837500D02*
X145082948Y-106837500D01*
X146468500Y-105499500D02*
X145130500Y-106837500D01*
X161379500Y-105499500D02*
X146468500Y-105499500D01*
X161925000Y-106045000D02*
X161379500Y-105499500D01*
X164157948Y-106349500D02*
X163853448Y-106045000D01*
X163853448Y-106045000D02*
X161925000Y-106045000D01*
X145384500Y-104297500D02*
X145082948Y-104297500D01*
X161925000Y-103505000D02*
X161447500Y-103027500D01*
X146654500Y-103027500D02*
X145384500Y-104297500D01*
X163853448Y-103505000D02*
X161925000Y-103505000D01*
X161447500Y-103027500D02*
X146654500Y-103027500D01*
X164157948Y-103809500D02*
X163853448Y-103505000D01*
X146468500Y-100419500D02*
X145130500Y-101757500D01*
X161379500Y-100419500D02*
X146468500Y-100419500D01*
X162229500Y-101269500D02*
X161379500Y-100419500D01*
X145130500Y-101757500D02*
X145082948Y-101757500D01*
X164157948Y-101269500D02*
X162229500Y-101269500D01*
X146722500Y-97879500D02*
X145384500Y-99217500D01*
X161379500Y-97879500D02*
X146722500Y-97879500D01*
X145384500Y-99217500D02*
X145082948Y-99217500D01*
X161925000Y-98425000D02*
X161379500Y-97879500D01*
X163853448Y-98425000D02*
X161925000Y-98425000D01*
X164157948Y-98729500D02*
X163853448Y-98425000D01*
X145360724Y-96677500D02*
X145082948Y-96677500D01*
X161447500Y-95407500D02*
X146630724Y-95407500D01*
X146630724Y-95407500D02*
X145360724Y-96677500D01*
X162229500Y-96189500D02*
X161447500Y-95407500D01*
X164157948Y-96189500D02*
X162229500Y-96189500D01*
X145384500Y-94137500D02*
X145082948Y-94137500D01*
X163307948Y-92799500D02*
X146722500Y-92799500D01*
X164157948Y-93649500D02*
X163307948Y-92799500D01*
X146722500Y-92799500D02*
X145384500Y-94137500D01*
X162199500Y-105049500D02*
X166936948Y-105049500D01*
X166936948Y-105049500D02*
X168196948Y-103789500D01*
X161447500Y-104297500D02*
X162199500Y-105049500D01*
X160322948Y-104297500D02*
X161447500Y-104297500D01*
X162209500Y-102519500D02*
X166926948Y-102519500D01*
X161447500Y-101757500D02*
X162209500Y-102519500D01*
X160322948Y-101757500D02*
X161447500Y-101757500D01*
X166926948Y-102519500D02*
X168196948Y-101249500D01*
X166936948Y-99969500D02*
X168196948Y-98709500D01*
X162199500Y-99969500D02*
X166936948Y-99969500D01*
X161447500Y-99217500D02*
X162199500Y-99969500D01*
X160322948Y-99217500D02*
X161447500Y-99217500D01*
X166926948Y-97439500D02*
X168196948Y-96169500D01*
X162209500Y-97439500D02*
X166926948Y-97439500D01*
X161447500Y-96677500D02*
X162209500Y-97439500D01*
X160322948Y-96677500D02*
X161447500Y-96677500D01*
X166868948Y-94957500D02*
X168196948Y-93629500D01*
X162082500Y-94137500D02*
X162902500Y-94957500D01*
X160322948Y-94137500D02*
X162082500Y-94137500D01*
X162902500Y-94957500D02*
X166868948Y-94957500D01*
X162229500Y-91109500D02*
X164157948Y-91109500D01*
X158925948Y-90327500D02*
X161447500Y-90327500D01*
X161447500Y-90327500D02*
X162229500Y-91109500D01*
X157813448Y-91440000D02*
X158925948Y-90327500D01*
X145240448Y-91440000D02*
X157813448Y-91440000D01*
X145082948Y-91597500D02*
X145240448Y-91440000D01*
X151765000Y-116489500D02*
X163077948Y-116489500D01*
X144104948Y-116489500D02*
X140916948Y-113301500D01*
X151765000Y-116489500D02*
X144104948Y-116489500D01*
X163077948Y-116489500D02*
X164488948Y-117900500D01*
X156387948Y-113301500D02*
X156388948Y-113300500D01*
X147916948Y-113301500D02*
X156387948Y-113301500D01*
X166812648Y-107713800D02*
X168196948Y-106329500D01*
X160322948Y-106837500D02*
X161199248Y-107713800D01*
X161199248Y-107713800D02*
X166812648Y-107713800D01*
X158418948Y-120970500D02*
X155952948Y-120970500D01*
X161488948Y-117900500D02*
X158418948Y-120970500D01*
X149452948Y-125470500D02*
X155952948Y-125470500D01*
X149452948Y-120970500D02*
X155952948Y-120970500D01*
X142004248Y-85316200D02*
X141540948Y-85779500D01*
X159121648Y-85316200D02*
X142004248Y-85316200D01*
X160322948Y-86517500D02*
X159121648Y-85316200D01*
X166907948Y-81329500D02*
X168464948Y-79772500D01*
X162881948Y-81329500D02*
X166907948Y-81329500D01*
X161719948Y-80167500D02*
X162881948Y-81329500D01*
X146352948Y-80167500D02*
X161719948Y-80167500D01*
X145082948Y-81437500D02*
X146352948Y-80167500D01*
X168464948Y-79772500D02*
X168464948Y-78779500D01*
X142424948Y-78779500D02*
X141540948Y-78779500D01*
X145082948Y-81437500D02*
X142424948Y-78779500D01*
X147622948Y-81437500D02*
X145082948Y-83977500D01*
X160322948Y-81437500D02*
X147622948Y-81437500D01*
X136940948Y-86879500D02*
X140440948Y-86879500D01*
X140440948Y-86879500D02*
X141540948Y-85779500D01*
X160684948Y-86879500D02*
X160322948Y-86517500D01*
X163864948Y-86879500D02*
X160684948Y-86879500D01*
X164964948Y-85779500D02*
X163864948Y-86879500D01*
X168464948Y-85779500D02*
X164964948Y-85779500D01*
X143431948Y-95407500D02*
X145716552Y-95407500D01*
X146441052Y-94683000D02*
X158290948Y-94683000D01*
X138478948Y-94899500D02*
X142923948Y-94899500D01*
X145716552Y-95407500D02*
X146441052Y-94683000D01*
X137208948Y-96169500D02*
X138478948Y-94899500D01*
X142923948Y-94899500D02*
X143431948Y-95407500D01*
X142923948Y-97439500D02*
X138478948Y-97439500D01*
X138478948Y-97439500D02*
X137208948Y-98709500D01*
X145716552Y-97947500D02*
X143431948Y-97947500D01*
X158290948Y-97155000D02*
X146509052Y-97155000D01*
X146509052Y-97155000D02*
X145716552Y-97947500D01*
X143431948Y-97947500D02*
X142923948Y-97439500D01*
X146509052Y-99695000D02*
X158290948Y-99695000D01*
X145716552Y-100487500D02*
X146509052Y-99695000D01*
X143558948Y-100487500D02*
X145716552Y-100487500D01*
X143050948Y-99979500D02*
X143558948Y-100487500D01*
X137208948Y-101249500D02*
X138478948Y-99979500D01*
X138478948Y-99979500D02*
X143050948Y-99979500D01*
X146478552Y-102265500D02*
X158290948Y-102265500D01*
X145716552Y-103027500D02*
X146478552Y-102265500D01*
X142923948Y-102519500D02*
X143431948Y-103027500D01*
X138478948Y-102519500D02*
X142923948Y-102519500D01*
X143431948Y-103027500D02*
X145716552Y-103027500D01*
X137208948Y-103789500D02*
X138478948Y-102519500D01*
X145717250Y-92866802D02*
X146509052Y-92075000D01*
X146509052Y-92075000D02*
X158290948Y-92075000D01*
X144534149Y-92866802D02*
X145717250Y-92866802D01*
X144026847Y-92359500D02*
X144534149Y-92866802D01*
X137208948Y-93629500D02*
X138478948Y-92359500D01*
X138478948Y-92359500D02*
X144026847Y-92359500D01*
X143738948Y-83977500D02*
X141540948Y-81779500D01*
X145082948Y-83977500D02*
X143738948Y-83977500D01*
X168464948Y-81779500D02*
X160664948Y-81779500D01*
X160664948Y-81779500D02*
X160322948Y-81437500D01*
X141912948Y-91597500D02*
X141424948Y-91109500D01*
X145082948Y-91597500D02*
X141912948Y-91597500D01*
X141912948Y-94137500D02*
X141424948Y-93649500D01*
X145082948Y-94137500D02*
X141912948Y-94137500D01*
X141912948Y-96677500D02*
X141424948Y-96189500D01*
X145082948Y-96677500D02*
X141912948Y-96677500D01*
X145082948Y-99217500D02*
X141912948Y-99217500D01*
X141912948Y-99217500D02*
X141424948Y-98729500D01*
X141912948Y-101757500D02*
X141424948Y-101269500D01*
X145082948Y-101757500D02*
X141912948Y-101757500D01*
X141912948Y-104297500D02*
X141424948Y-103809500D01*
X145082948Y-104297500D02*
X141912948Y-104297500D01*
X145082948Y-106837500D02*
X141912948Y-106837500D01*
X141912948Y-106837500D02*
X141424948Y-106349500D01*
M02*
