M48
; DRILL file {KiCad 7.0.5} date Sun Jul 23 10:45:43 2023
; FORMAT={-:-/ absolute / metric / decimal}
; #@! TF.CreationDate,2023-07-23T10:45:43+08:00
; #@! TF.GenerationSoftware,Kicad,Pcbnew,7.0.5
; #@! TF.FileFunction,Plated,1,2,PTH
FMAT,2
METRIC
; #@! TA.AperFunction,Plated,PTH,ViaDrill
T1C0.400
; #@! TA.AperFunction,Plated,PTH,ComponentDrill
T2C0.900
; #@! TA.AperFunction,Plated,PTH,ComponentDrill
T3C1.000
; #@! TA.AperFunction,Plated,PTH,ComponentDrill
T4C1.092
; #@! TA.AperFunction,Plated,PTH,ComponentDrill
T5C1.100
%
G90
G05
T1
X40.66Y-66.02
X41.411Y-67.755
X41.43Y-42.18
X41.43Y-45.235
X50.15Y-68.65
X54.82Y-42.64
T3
X36.25Y-44.69
X36.25Y-47.23
X36.25Y-49.77
X36.25Y-52.31
X36.25Y-54.85
X36.25Y-57.39
X36.25Y-59.93
X36.25Y-62.47
X36.25Y-65.01
X38.79Y-44.69
X38.79Y-47.23
X38.79Y-49.77
X38.79Y-52.31
X38.79Y-54.85
X38.79Y-57.39
X38.79Y-59.93
X38.79Y-62.47
X38.79Y-65.01
X43.705Y-65.82
X46.245Y-65.82
X48.785Y-65.82
X51.325Y-65.82
X53.865Y-65.82
X56.405Y-65.82
X58.945Y-65.82
X63.93Y-44.69
X63.93Y-47.23
X63.93Y-49.77
X63.93Y-52.31
X63.93Y-54.85
X63.93Y-57.39
X63.93Y-59.93
X63.93Y-62.47
X63.93Y-65.01
X66.47Y-44.69
X66.47Y-47.23
X66.47Y-49.77
X66.47Y-52.31
X66.47Y-54.85
X66.47Y-57.39
X66.47Y-59.93
X66.47Y-62.47
X66.47Y-65.01
T4
X43.72Y-34.53
X43.72Y-37.07
X43.72Y-39.61
X43.72Y-42.15
X43.72Y-44.69
X43.72Y-47.23
X43.72Y-49.77
X43.72Y-52.31
X43.72Y-54.85
X43.72Y-57.39
X43.72Y-59.93
X43.72Y-62.47
X46.26Y-62.47
X48.8Y-62.47
X51.34Y-62.47
X53.88Y-62.47
X56.42Y-62.47
X58.96Y-34.53
X58.96Y-37.07
X58.96Y-39.61
X58.96Y-42.15
X58.96Y-44.69
X58.96Y-47.23
X58.96Y-49.77
X58.96Y-52.31
X58.96Y-54.85
X58.96Y-57.39
X58.96Y-59.93
X58.96Y-62.47
T5
X52.32Y-69.18
X52.32Y-73.68
X58.82Y-69.18
X58.82Y-73.68
T2
X39.685Y-73.576G85X40.085Y-73.576
G05
X39.71Y-68.97G85X40.11Y-68.97
G05
X42.71Y-68.97G85X43.11Y-68.97
G05
X42.733Y-73.576G85X43.133Y-73.576
G05
X46.805Y-73.576G85X48.205Y-73.576
G05
X46.81Y-68.97G85X48.21Y-68.97
G05
X62.084Y-33.338G85X62.084Y-33.739
G05
X62.084Y-36.386G85X62.084Y-36.786
G05
X62.084Y-40.459G85X62.084Y-41.858
G05
X66.69Y-33.364G85X66.69Y-33.764
G05
X66.69Y-36.363G85X66.69Y-36.764
G05
X66.69Y-40.463G85X66.69Y-41.863
G05
T0
M30
