G04 #@! TF.GenerationSoftware,KiCad,Pcbnew,7.0.5*
G04 #@! TF.CreationDate,2023-08-14T09:49:52+08:00*
G04 #@! TF.ProjectId,handwire microboard,68616e64-7769-4726-9520-6d6963726f62,rev?*
G04 #@! TF.SameCoordinates,Original*
G04 #@! TF.FileFunction,Soldermask,Bot*
G04 #@! TF.FilePolarity,Negative*
%FSLAX46Y46*%
G04 Gerber Fmt 4.6, Leading zero omitted, Abs format (unit mm)*
G04 Created by KiCad (PCBNEW 7.0.5) date 2023-08-14 09:49:52*
%MOMM*%
%LPD*%
G01*
G04 APERTURE LIST*
G04 Aperture macros list*
%AMRoundRect*
0 Rectangle with rounded corners*
0 $1 Rounding radius*
0 $2 $3 $4 $5 $6 $7 $8 $9 X,Y pos of 4 corners*
0 Add a 4 corners polygon primitive as box body*
4,1,4,$2,$3,$4,$5,$6,$7,$8,$9,$2,$3,0*
0 Add four circle primitives for the rounded corners*
1,1,$1+$1,$2,$3*
1,1,$1+$1,$4,$5*
1,1,$1+$1,$6,$7*
1,1,$1+$1,$8,$9*
0 Add four rect primitives between the rounded corners*
20,1,$1+$1,$2,$3,$4,$5,0*
20,1,$1+$1,$4,$5,$6,$7,0*
20,1,$1+$1,$6,$7,$8,$9,0*
20,1,$1+$1,$8,$9,$2,$3,0*%
%AMOutline4P*
0 Free polygon, 4 corners , with rotation*
0 The origin of the aperture is its center*
0 number of corners: always 4*
0 $1 to $8 corner X, Y*
0 $9 Rotation angle, in degrees counterclockwise*
0 create outline with 4 corners*
4,1,4,$1,$2,$3,$4,$5,$6,$7,$8,$1,$2,$9*%
G04 Aperture macros list end*
%ADD10C,3.400000*%
%ADD11C,0.800000*%
%ADD12O,3.029000X1.576000*%
%ADD13O,1.800000X1.500000*%
%ADD14C,2.000000*%
%ADD15C,1.752600*%
%ADD16RoundRect,0.438150X-0.438150X0.438150X-0.438150X-0.438150X0.438150X-0.438150X0.438150X0.438150X0*%
%ADD17Outline4P,-0.876300X-0.876300X0.876300X-0.876300X0.876300X0.876300X-0.876300X0.876300X270.000000*%
%ADD18C,1.700000*%
%ADD19O,1.700000X1.700000*%
%ADD20O,1.576000X3.029000*%
%ADD21O,1.500000X1.800000*%
%ADD22RoundRect,0.425000X0.425000X-0.425000X0.425000X0.425000X-0.425000X0.425000X-0.425000X-0.425000X0*%
G04 APERTURE END LIST*
D10*
X64390000Y-71270000D03*
X38310000Y-71270000D03*
D11*
X45310000Y-71270000D03*
D12*
X47505000Y-73576000D03*
X47510000Y-68970000D03*
D13*
X42933000Y-73576000D03*
X42910000Y-68970000D03*
X39885000Y-73576000D03*
X39910000Y-68970000D03*
D14*
X52320000Y-69180000D03*
X58820000Y-69180000D03*
X52320000Y-73680000D03*
X58820000Y-73680000D03*
D15*
X43720000Y-34530000D03*
X43720000Y-37070000D03*
D16*
X43720000Y-39610000D03*
X43720000Y-42150000D03*
D15*
X43720000Y-44690000D03*
X43720000Y-47230000D03*
X43720000Y-49770000D03*
X43720000Y-52310000D03*
X43720000Y-54850000D03*
X43720000Y-57390000D03*
X43720000Y-59930000D03*
X43720000Y-62470000D03*
X58960000Y-62470000D03*
X58960000Y-59930000D03*
X58960000Y-57390000D03*
X58960000Y-54850000D03*
X58960000Y-52310000D03*
X58960000Y-49770000D03*
X58960000Y-47230000D03*
X58960000Y-44690000D03*
D17*
X58960000Y-42150000D03*
D15*
X58960000Y-39610000D03*
D16*
X58960000Y-37070000D03*
D15*
X58960000Y-34530000D03*
X46260000Y-62470000D03*
X48800000Y-62470000D03*
X51340000Y-62470000D03*
X53880000Y-62470000D03*
X56420000Y-62470000D03*
D18*
X36250000Y-44690000D03*
D19*
X36250000Y-47230000D03*
X36250000Y-49770000D03*
X36250000Y-52310000D03*
X36250000Y-54850000D03*
X36250000Y-57390000D03*
X36250000Y-59930000D03*
X36250000Y-62470000D03*
X36250000Y-65010000D03*
X38790000Y-44690000D03*
X38790000Y-47230000D03*
X38790000Y-49770000D03*
X38790000Y-52310000D03*
X38790000Y-54850000D03*
X38790000Y-57390000D03*
X38790000Y-59930000D03*
X38790000Y-62470000D03*
X38790000Y-65010000D03*
D10*
X38310000Y-31963500D03*
D19*
X66470000Y-44690000D03*
X66470000Y-47230000D03*
X66470000Y-49770000D03*
X66470000Y-52310000D03*
X66470000Y-54850000D03*
X66470000Y-57390000D03*
X66470000Y-59930000D03*
X66470000Y-62470000D03*
X66470000Y-65010000D03*
D18*
X63930000Y-44690000D03*
D19*
X63930000Y-47230000D03*
X63930000Y-49770000D03*
X63930000Y-52310000D03*
X63930000Y-54850000D03*
X63930000Y-57390000D03*
X63930000Y-59930000D03*
X63930000Y-62470000D03*
X63930000Y-65010000D03*
D10*
X64390000Y-31963500D03*
D11*
X64390000Y-38963500D03*
D20*
X62084000Y-41158500D03*
X66690000Y-41163500D03*
D21*
X62084000Y-36586500D03*
X66690000Y-36563500D03*
X62084000Y-33538500D03*
X66690000Y-33563500D03*
D22*
X43705000Y-65820000D03*
D19*
X46245000Y-65820000D03*
X48785000Y-65820000D03*
X51325000Y-65820000D03*
X53865000Y-65820000D03*
X56405000Y-65820000D03*
D22*
X58945000Y-65820000D03*
M02*
