G04 #@! TF.GenerationSoftware,KiCad,Pcbnew,7.0.5*
G04 #@! TF.CreationDate,2023-08-29T01:15:51+08:00*
G04 #@! TF.ProjectId,handwire microboard,68616e64-7769-4726-9520-6d6963726f62,rev?*
G04 #@! TF.SameCoordinates,Original*
G04 #@! TF.FileFunction,Copper,L1,Top*
G04 #@! TF.FilePolarity,Positive*
%FSLAX46Y46*%
G04 Gerber Fmt 4.6, Leading zero omitted, Abs format (unit mm)*
G04 Created by KiCad (PCBNEW 7.0.5) date 2023-08-29 01:15:51*
%MOMM*%
%LPD*%
G01*
G04 APERTURE LIST*
G04 Aperture macros list*
%AMRoundRect*
0 Rectangle with rounded corners*
0 $1 Rounding radius*
0 $2 $3 $4 $5 $6 $7 $8 $9 X,Y pos of 4 corners*
0 Add a 4 corners polygon primitive as box body*
4,1,4,$2,$3,$4,$5,$6,$7,$8,$9,$2,$3,0*
0 Add four circle primitives for the rounded corners*
1,1,$1+$1,$2,$3*
1,1,$1+$1,$4,$5*
1,1,$1+$1,$6,$7*
1,1,$1+$1,$8,$9*
0 Add four rect primitives between the rounded corners*
20,1,$1+$1,$2,$3,$4,$5,0*
20,1,$1+$1,$4,$5,$6,$7,0*
20,1,$1+$1,$6,$7,$8,$9,0*
20,1,$1+$1,$8,$9,$2,$3,0*%
G04 Aperture macros list end*
G04 #@! TA.AperFunction,SMDPad,CuDef*
%ADD10R,1.000000X0.700000*%
G04 #@! TD*
G04 #@! TA.AperFunction,ComponentPad*
%ADD11O,3.029000X1.576000*%
G04 #@! TD*
G04 #@! TA.AperFunction,ComponentPad*
%ADD12O,1.800000X1.500000*%
G04 #@! TD*
G04 #@! TA.AperFunction,ComponentPad*
%ADD13C,1.800000*%
G04 #@! TD*
G04 #@! TA.AperFunction,ComponentPad*
%ADD14C,1.752600*%
G04 #@! TD*
G04 #@! TA.AperFunction,ComponentPad*
%ADD15RoundRect,0.438150X-0.438150X0.438150X-0.438150X-0.438150X0.438150X-0.438150X0.438150X0.438150X0*%
G04 #@! TD*
G04 #@! TA.AperFunction,ComponentPad*
%ADD16R,1.752600X1.752600*%
G04 #@! TD*
G04 #@! TA.AperFunction,ComponentPad*
%ADD17O,1.576000X3.029000*%
G04 #@! TD*
G04 #@! TA.AperFunction,ComponentPad*
%ADD18O,1.500000X1.800000*%
G04 #@! TD*
G04 #@! TA.AperFunction,ComponentPad*
%ADD19O,1.700000X1.700000*%
G04 #@! TD*
G04 #@! TA.AperFunction,ComponentPad*
%ADD20C,1.700000*%
G04 #@! TD*
G04 #@! TA.AperFunction,ViaPad*
%ADD21C,0.800000*%
G04 #@! TD*
G04 #@! TA.AperFunction,Conductor*
%ADD22C,0.200000*%
G04 #@! TD*
G04 #@! TA.AperFunction,Conductor*
%ADD23C,0.350000*%
G04 #@! TD*
G04 APERTURE END LIST*
D10*
X38340000Y-31150000D03*
X38340000Y-32150000D03*
X38340000Y-33150000D03*
D11*
X31055000Y-58964000D03*
D12*
X23430000Y-63576000D03*
X23455000Y-58964000D03*
X26478000Y-63576000D03*
X26455000Y-58964000D03*
D11*
X31050000Y-63576000D03*
D13*
X34900000Y-63590000D03*
X34900000Y-57090000D03*
D14*
X27265000Y-24530000D03*
X27265000Y-27070000D03*
D15*
X27265000Y-29610000D03*
X27265000Y-32150000D03*
D14*
X27265000Y-34690000D03*
X27265000Y-37230000D03*
X27265000Y-39770000D03*
X27265000Y-42310000D03*
X27265000Y-44850000D03*
X27265000Y-47390000D03*
X27265000Y-49930000D03*
X27265000Y-52470000D03*
X42505000Y-52470000D03*
X42505000Y-49930000D03*
X42505000Y-47390000D03*
X42505000Y-44850000D03*
X42505000Y-42310000D03*
X42505000Y-39770000D03*
X42505000Y-37230000D03*
X42505000Y-34690000D03*
D16*
X42505000Y-32150000D03*
D14*
X42505000Y-29610000D03*
D15*
X42505000Y-27070000D03*
D14*
X42505000Y-24530000D03*
D11*
X38735000Y-63576000D03*
D12*
X46360000Y-58964000D03*
X46335000Y-63576000D03*
X43312000Y-58964000D03*
X43335000Y-63576000D03*
D11*
X38740000Y-58964000D03*
D17*
X24161000Y-31163500D03*
D18*
X19549000Y-23538500D03*
X24161000Y-23563500D03*
X19549000Y-26586500D03*
X24161000Y-26563500D03*
D17*
X19549000Y-31158500D03*
D19*
X50015000Y-34690000D03*
X50015000Y-37230000D03*
X50015000Y-39770000D03*
X50015000Y-42310000D03*
X50015000Y-44850000D03*
X50015000Y-47390000D03*
X50015000Y-49930000D03*
X50015000Y-52470000D03*
X50015000Y-55010000D03*
D20*
X47475000Y-34690000D03*
D19*
X47475000Y-37230000D03*
X47475000Y-39770000D03*
X47475000Y-42310000D03*
X47475000Y-44850000D03*
X47475000Y-47390000D03*
X47475000Y-49930000D03*
X47475000Y-52470000D03*
X47475000Y-55010000D03*
D17*
X50241000Y-31163500D03*
D18*
X45629000Y-23538500D03*
X50241000Y-23563500D03*
X45629000Y-26586500D03*
X50241000Y-26563500D03*
D17*
X45629000Y-31158500D03*
D19*
X19795000Y-34690000D03*
X19795000Y-37230000D03*
X19795000Y-39770000D03*
X19795000Y-42310000D03*
X19795000Y-44850000D03*
X19795000Y-47390000D03*
X19795000Y-49930000D03*
X19795000Y-52470000D03*
X19795000Y-55010000D03*
D20*
X22335000Y-34690000D03*
D19*
X22335000Y-37230000D03*
X22335000Y-39770000D03*
X22335000Y-42310000D03*
X22335000Y-44850000D03*
X22335000Y-47390000D03*
X22335000Y-49930000D03*
X22335000Y-52470000D03*
X22335000Y-55010000D03*
D21*
X36560000Y-28340000D03*
X31020000Y-29124500D03*
X38323785Y-53169054D03*
X39970000Y-23320000D03*
X40910000Y-54290500D03*
X32845000Y-61165000D03*
X39790446Y-52340000D03*
X34885000Y-33150000D03*
X34885000Y-31150000D03*
X31055050Y-54130550D03*
D22*
X36560000Y-28340000D02*
X45820000Y-28340000D01*
X45820000Y-28340000D02*
X48685000Y-31205000D01*
X28550000Y-38500000D02*
X26145000Y-38500000D01*
X31020000Y-36030000D02*
X28550000Y-38500000D01*
X48685000Y-33480000D02*
X47475000Y-34690000D01*
X31020000Y-29124500D02*
X31020000Y-36030000D01*
X48685000Y-31205000D02*
X48685000Y-33480000D01*
X32750000Y-24530000D02*
X27265000Y-24530000D01*
X26145000Y-38500000D02*
X22335000Y-34690000D01*
X36560000Y-28340000D02*
X32750000Y-24530000D01*
X25885000Y-54600198D02*
X26239802Y-54955000D01*
X45045000Y-37230000D02*
X42505000Y-34690000D01*
X47475000Y-37230000D02*
X45045000Y-37230000D01*
X25885000Y-40780000D02*
X25885000Y-54600198D01*
X39295000Y-37900000D02*
X42505000Y-34690000D01*
X22335000Y-37230000D02*
X25885000Y-40780000D01*
X39295000Y-46879844D02*
X39295000Y-37900000D01*
X26239802Y-54955000D02*
X31219844Y-54955000D01*
X31219844Y-54955000D02*
X39295000Y-46879844D01*
X31395884Y-55380000D02*
X39720000Y-47055884D01*
X22335000Y-39770000D02*
X25485000Y-42920000D01*
X25485000Y-42920000D02*
X25485000Y-54765884D01*
X45045000Y-39770000D02*
X42505000Y-37230000D01*
X39720000Y-40015000D02*
X42505000Y-37230000D01*
X26099116Y-55380000D02*
X31395884Y-55380000D01*
X39720000Y-47055884D02*
X39720000Y-40015000D01*
X25485000Y-54765884D02*
X26099116Y-55380000D01*
X47475000Y-39770000D02*
X45045000Y-39770000D01*
X45045000Y-55010000D02*
X47475000Y-55010000D01*
X32390000Y-57780000D02*
X25105000Y-57780000D01*
X42505000Y-52470000D02*
X45045000Y-55010000D01*
X42505000Y-52470000D02*
X41245000Y-51210000D01*
X25105000Y-57780000D02*
X22335000Y-55010000D01*
X41245000Y-51210000D02*
X38960000Y-51210000D01*
X38960000Y-51210000D02*
X32390000Y-57780000D01*
X42505000Y-49930000D02*
X39674314Y-49930000D01*
X39674314Y-49930000D02*
X32224314Y-57380000D01*
X25270686Y-57380000D02*
X23485000Y-55594314D01*
X23485000Y-55594314D02*
X23485000Y-53620000D01*
X45045000Y-52470000D02*
X42505000Y-49930000D01*
X47475000Y-52470000D02*
X45045000Y-52470000D01*
X23485000Y-53620000D02*
X22335000Y-52470000D01*
X32224314Y-57380000D02*
X25270686Y-57380000D01*
X23885000Y-55428628D02*
X25436372Y-56980000D01*
X25436372Y-56980000D02*
X32058628Y-56980000D01*
X22335000Y-49930000D02*
X23885000Y-51480000D01*
X47475000Y-49930000D02*
X45045000Y-49930000D01*
X45045000Y-49930000D02*
X42505000Y-47390000D01*
X32058628Y-56980000D02*
X40463628Y-48575000D01*
X40463628Y-48575000D02*
X41320000Y-48575000D01*
X41320000Y-48575000D02*
X42505000Y-47390000D01*
X23885000Y-51480000D02*
X23885000Y-55428628D01*
X24285000Y-49340000D02*
X24285000Y-55262942D01*
X45045000Y-47390000D02*
X42505000Y-44850000D01*
X47475000Y-47390000D02*
X45045000Y-47390000D01*
X31892942Y-56580000D02*
X40920000Y-47552940D01*
X40920000Y-46435000D02*
X42505000Y-44850000D01*
X24285000Y-55262942D02*
X25602058Y-56580000D01*
X22335000Y-47390000D02*
X24285000Y-49340000D01*
X25602058Y-56580000D02*
X31892942Y-56580000D01*
X40920000Y-47552940D02*
X40920000Y-46435000D01*
X24685000Y-55097256D02*
X25767744Y-56180000D01*
X22335000Y-44850000D02*
X24685000Y-47200000D01*
X31727256Y-56180000D02*
X40520000Y-47387255D01*
X40520000Y-44295000D02*
X42505000Y-42310000D01*
X47475000Y-44850000D02*
X45045000Y-44850000D01*
X40520000Y-47387255D02*
X40520000Y-44295000D01*
X24685000Y-47200000D02*
X24685000Y-55097256D01*
X25767744Y-56180000D02*
X31727256Y-56180000D01*
X45045000Y-44850000D02*
X42505000Y-42310000D01*
X25085000Y-45060000D02*
X25085000Y-54931570D01*
X31561570Y-55780000D02*
X40120000Y-47221570D01*
X40120000Y-42155000D02*
X42505000Y-39770000D01*
X25085000Y-54931570D02*
X25933430Y-55780000D01*
X25933430Y-55780000D02*
X31561570Y-55780000D01*
X22335000Y-42310000D02*
X25085000Y-45060000D01*
X47475000Y-42310000D02*
X45045000Y-42310000D01*
X40120000Y-47221570D02*
X40120000Y-42155000D01*
X45045000Y-42310000D02*
X42505000Y-39770000D01*
X38323785Y-53169054D02*
X37566632Y-53169054D01*
X37566632Y-53169054D02*
X34900000Y-55835686D01*
X34900000Y-55835686D02*
X34900000Y-57090000D01*
X49150000Y-33825000D02*
X49150000Y-24654500D01*
X20705000Y-24694500D02*
X20705000Y-33780000D01*
X50015000Y-34690000D02*
X49150000Y-33825000D01*
X20705000Y-33780000D02*
X19795000Y-34690000D01*
X40910000Y-54290500D02*
X41686500Y-54290500D01*
X39970000Y-23320000D02*
X45410500Y-23320000D01*
X46360000Y-58964000D02*
X45590000Y-59734000D01*
X45410500Y-23320000D02*
X45629000Y-23538500D01*
X31630000Y-62380000D02*
X24626000Y-62380000D01*
X32845000Y-61165000D02*
X31630000Y-62380000D01*
X45590000Y-59734000D02*
X45590000Y-62831000D01*
X45590000Y-62831000D02*
X46335000Y-63576000D01*
X24626000Y-62380000D02*
X23430000Y-63576000D01*
X19549000Y-23538500D02*
X20705000Y-24694500D01*
X49150000Y-24654500D02*
X50241000Y-23563500D01*
X41686500Y-54290500D02*
X46360000Y-58964000D01*
D23*
X42505000Y-32150000D02*
X38340000Y-32150000D01*
X45629000Y-31885000D02*
X45629000Y-31158500D01*
X38610000Y-33420000D02*
X44094000Y-33420000D01*
X38340000Y-33150000D02*
X38610000Y-33420000D01*
X38740000Y-56006516D02*
X38740000Y-58964000D01*
X39790446Y-54956070D02*
X38740000Y-56006516D01*
X39790446Y-52340000D02*
X39790446Y-54956070D01*
X38340000Y-33150000D02*
X34885000Y-33150000D01*
X44094000Y-33420000D02*
X45629000Y-31885000D01*
X38735000Y-61775000D02*
X38735000Y-63576000D01*
X31055000Y-58964000D02*
X35924000Y-58964000D01*
X26248000Y-28350000D02*
X24161000Y-30437000D01*
X34110000Y-31925000D02*
X34885000Y-31150000D01*
X24161000Y-30437000D02*
X24161000Y-31163500D01*
X32085000Y-28350000D02*
X26248000Y-28350000D01*
X35924000Y-58964000D02*
X38735000Y-61775000D01*
X31055050Y-54130550D02*
X34110000Y-51075600D01*
X34885000Y-31150000D02*
X32085000Y-28350000D01*
X38340000Y-31150000D02*
X34885000Y-31150000D01*
X34110000Y-51075600D02*
X34110000Y-31925000D01*
G04 #@! TA.AperFunction,Conductor*
G36*
X30109799Y-28995185D02*
G01*
X30155554Y-29047989D01*
X30166079Y-29112464D01*
X30164815Y-29124500D01*
X30175344Y-29224672D01*
X30183503Y-29302305D01*
X30183504Y-29302307D01*
X30238747Y-29472329D01*
X30238750Y-29472335D01*
X30328138Y-29627161D01*
X30328139Y-29627163D01*
X30328141Y-29627165D01*
X30437649Y-29748785D01*
X30467879Y-29811776D01*
X30469499Y-29831757D01*
X30469499Y-35750612D01*
X30449814Y-35817651D01*
X30433180Y-35838293D01*
X28795142Y-37476331D01*
X28733819Y-37509816D01*
X28664127Y-37504832D01*
X28608194Y-37462960D01*
X28583777Y-37397496D01*
X28583932Y-37377848D01*
X28596868Y-37230000D01*
X28576634Y-36998724D01*
X28531011Y-36828457D01*
X28516549Y-36774481D01*
X28516548Y-36774480D01*
X28516547Y-36774474D01*
X28418432Y-36564066D01*
X28285270Y-36373892D01*
X28121108Y-36209730D01*
X27930934Y-36076568D01*
X27921956Y-36072381D01*
X27869518Y-36026211D01*
X27850365Y-35959018D01*
X27870580Y-35892136D01*
X27921956Y-35847618D01*
X27930934Y-35843432D01*
X28121108Y-35710270D01*
X28285270Y-35546108D01*
X28418432Y-35355934D01*
X28516547Y-35145526D01*
X28576634Y-34921276D01*
X28596868Y-34690000D01*
X28576634Y-34458724D01*
X28531011Y-34288457D01*
X28516549Y-34234481D01*
X28516548Y-34234480D01*
X28516547Y-34234474D01*
X28418432Y-34024066D01*
X28285270Y-33833892D01*
X28121108Y-33669730D01*
X28090417Y-33648239D01*
X28046793Y-33593663D01*
X28039601Y-33524165D01*
X28071123Y-33461810D01*
X28105248Y-33436181D01*
X28216917Y-33379283D01*
X28216918Y-33379283D01*
X28370176Y-33255178D01*
X28370178Y-33255176D01*
X28494283Y-33101918D01*
X28494283Y-33101917D01*
X28583813Y-32926203D01*
X28634854Y-32735715D01*
X28634854Y-32735714D01*
X28641299Y-32653819D01*
X28641300Y-32653806D01*
X28641300Y-32400000D01*
X27755713Y-32400000D01*
X27804704Y-32262152D01*
X27814949Y-32112382D01*
X27784406Y-31965403D01*
X27750517Y-31900000D01*
X28641300Y-31900000D01*
X28641300Y-31646193D01*
X28641299Y-31646180D01*
X28634854Y-31564285D01*
X28634854Y-31564284D01*
X28583813Y-31373796D01*
X28494283Y-31198082D01*
X28494283Y-31198081D01*
X28370180Y-31044825D01*
X28285640Y-30976367D01*
X28245928Y-30918880D01*
X28243600Y-30849049D01*
X28279395Y-30789045D01*
X28285640Y-30783633D01*
X28370180Y-30715174D01*
X28494283Y-30561918D01*
X28494283Y-30561917D01*
X28583813Y-30386203D01*
X28634854Y-30195715D01*
X28634854Y-30195714D01*
X28641299Y-30113819D01*
X28641300Y-30113806D01*
X28641300Y-29860000D01*
X27755713Y-29860000D01*
X27804704Y-29722152D01*
X27814949Y-29572382D01*
X27784406Y-29425403D01*
X27750517Y-29360000D01*
X28641300Y-29360000D01*
X28641300Y-29106175D01*
X28641229Y-29104368D01*
X28641299Y-29104085D01*
X28641300Y-29103751D01*
X28641384Y-29103751D01*
X28658266Y-29036607D01*
X28709234Y-28988815D01*
X28765133Y-28975500D01*
X30042760Y-28975500D01*
X30109799Y-28995185D01*
G37*
G04 #@! TD.AperFunction*
G04 #@! TA.AperFunction,Conductor*
G36*
X27514999Y-31662881D02*
G01*
X27484612Y-31644402D01*
X27340060Y-31603900D01*
X27227647Y-31603900D01*
X27116279Y-31619207D01*
X27015000Y-31663198D01*
X27015000Y-30097118D01*
X27045388Y-30115598D01*
X27189940Y-30156100D01*
X27302353Y-30156100D01*
X27413721Y-30140793D01*
X27515000Y-30096801D01*
X27514999Y-31662881D01*
G37*
G04 #@! TD.AperFunction*
G04 #@! TA.AperFunction,Conductor*
G36*
X48992260Y-23691120D02*
G01*
X49034131Y-23747053D01*
X49041421Y-23778947D01*
X49053486Y-23909155D01*
X49040071Y-23977725D01*
X49017696Y-24008277D01*
X48768146Y-24257827D01*
X48766625Y-24259297D01*
X48718958Y-24303817D01*
X48695956Y-24341639D01*
X48692384Y-24346888D01*
X48665639Y-24382158D01*
X48665636Y-24382163D01*
X48659055Y-24398852D01*
X48649653Y-24417783D01*
X48640327Y-24433119D01*
X48628385Y-24475737D01*
X48626362Y-24481755D01*
X48610122Y-24522940D01*
X48608288Y-24540784D01*
X48604342Y-24561548D01*
X48599501Y-24578828D01*
X48599500Y-24578837D01*
X48599500Y-24623094D01*
X48599175Y-24629439D01*
X48594648Y-24673470D01*
X48594648Y-24673475D01*
X48597697Y-24691156D01*
X48599500Y-24712224D01*
X48599500Y-28408603D01*
X48579815Y-28475642D01*
X48527011Y-28521397D01*
X48457853Y-28531341D01*
X48394297Y-28502316D01*
X48390616Y-28498995D01*
X48320396Y-28433054D01*
X48320388Y-28433048D01*
X48176371Y-28353874D01*
X48176361Y-28353871D01*
X48017180Y-28313000D01*
X48017177Y-28313000D01*
X47894075Y-28313000D01*
X47894065Y-28313000D01*
X47771942Y-28328429D01*
X47771939Y-28328429D01*
X47619130Y-28388931D01*
X47619121Y-28388936D01*
X47486164Y-28485534D01*
X47486162Y-28485537D01*
X47381400Y-28612173D01*
X47311420Y-28760887D01*
X47311420Y-28760889D01*
X47308523Y-28776074D01*
X47276622Y-28838236D01*
X47216178Y-28873283D01*
X47146381Y-28870088D01*
X47099039Y-28840514D01*
X46257577Y-27999052D01*
X46224092Y-27937729D01*
X46229076Y-27868037D01*
X46270948Y-27812104D01*
X46286500Y-27802176D01*
X46320405Y-27783931D01*
X46496320Y-27643645D01*
X46644352Y-27474207D01*
X46644359Y-27474199D01*
X46759759Y-27281053D01*
X46759761Y-27281048D01*
X46838824Y-27070389D01*
X46838824Y-27070388D01*
X46879000Y-26849005D01*
X46879000Y-26836500D01*
X46079000Y-26836500D01*
X46079000Y-26352776D01*
X46076547Y-26336500D01*
X46875052Y-26336500D01*
X46875052Y-26336499D01*
X46863883Y-26212404D01*
X46863882Y-26212397D01*
X46804026Y-25995515D01*
X46804021Y-25995502D01*
X46706401Y-25792791D01*
X46706397Y-25792783D01*
X46574148Y-25610758D01*
X46574142Y-25610750D01*
X46411513Y-25455262D01*
X46223733Y-25331308D01*
X46016830Y-25242875D01*
X46016823Y-25242873D01*
X45879000Y-25211415D01*
X45879000Y-26011222D01*
X45795260Y-25962875D01*
X45663008Y-25932690D01*
X45527735Y-25942827D01*
X45401459Y-25992387D01*
X45379000Y-26010297D01*
X45379000Y-25208949D01*
X45378999Y-25208949D01*
X45349721Y-25212915D01*
X45135731Y-25282445D01*
X44937598Y-25389065D01*
X44937595Y-25389067D01*
X44761679Y-25529354D01*
X44613647Y-25698792D01*
X44613640Y-25698800D01*
X44498240Y-25891946D01*
X44498238Y-25891951D01*
X44419175Y-26102610D01*
X44419175Y-26102611D01*
X44379000Y-26323994D01*
X44379000Y-26336500D01*
X45179000Y-26336500D01*
X45179000Y-26820224D01*
X45181453Y-26836500D01*
X44382948Y-26836500D01*
X44394116Y-26960595D01*
X44394117Y-26960602D01*
X44453973Y-27177484D01*
X44453978Y-27177497D01*
X44551598Y-27380208D01*
X44551602Y-27380216D01*
X44683851Y-27562241D01*
X44683853Y-27562243D01*
X44698109Y-27575874D01*
X44732961Y-27636431D01*
X44729540Y-27706217D01*
X44688934Y-27763076D01*
X44624034Y-27788955D01*
X44612416Y-27789500D01*
X43998468Y-27789500D01*
X43931429Y-27769815D01*
X43885674Y-27717011D01*
X43874850Y-27655771D01*
X43881299Y-27573819D01*
X43881300Y-27573806D01*
X43881300Y-27320000D01*
X42995713Y-27320000D01*
X43044704Y-27182152D01*
X43054949Y-27032382D01*
X43024406Y-26885403D01*
X42990517Y-26820000D01*
X43881300Y-26820000D01*
X43881300Y-26566193D01*
X43881299Y-26566180D01*
X43874854Y-26484285D01*
X43874854Y-26484284D01*
X43823813Y-26293796D01*
X43734283Y-26118082D01*
X43734283Y-26118081D01*
X43610178Y-25964823D01*
X43610176Y-25964821D01*
X43456919Y-25840717D01*
X43345247Y-25783818D01*
X43294451Y-25735844D01*
X43277656Y-25668023D01*
X43300193Y-25601888D01*
X43330416Y-25571760D01*
X43361108Y-25550270D01*
X43525270Y-25386108D01*
X43658432Y-25195934D01*
X43756547Y-24985526D01*
X43816634Y-24761276D01*
X43836868Y-24530000D01*
X43816634Y-24298724D01*
X43771011Y-24128457D01*
X43756549Y-24074481D01*
X43756546Y-24074472D01*
X43743691Y-24046905D01*
X43733199Y-23977828D01*
X43761718Y-23914044D01*
X43820195Y-23875804D01*
X43856073Y-23870500D01*
X44338996Y-23870500D01*
X44406035Y-23890185D01*
X44451790Y-23942989D01*
X44458262Y-23960566D01*
X44504769Y-24124023D01*
X44504775Y-24124038D01*
X44603938Y-24323183D01*
X44603943Y-24323191D01*
X44738020Y-24500738D01*
X44902437Y-24650623D01*
X44902439Y-24650625D01*
X45091595Y-24767745D01*
X45091596Y-24767745D01*
X45091599Y-24767747D01*
X45299060Y-24848118D01*
X45517757Y-24889000D01*
X45517759Y-24889000D01*
X45740241Y-24889000D01*
X45740243Y-24889000D01*
X45958940Y-24848118D01*
X46166401Y-24767747D01*
X46355562Y-24650624D01*
X46519981Y-24500736D01*
X46654058Y-24323189D01*
X46753229Y-24124028D01*
X46814115Y-23910036D01*
X46826373Y-23777741D01*
X46852159Y-23712806D01*
X46908959Y-23672118D01*
X46978740Y-23668598D01*
X47009271Y-23680352D01*
X47122657Y-23742266D01*
X47122661Y-23742268D01*
X47122663Y-23742269D01*
X47384077Y-23839771D01*
X47495759Y-23864066D01*
X47656700Y-23899077D01*
X47656702Y-23899077D01*
X47656706Y-23899078D01*
X47865343Y-23914000D01*
X48004657Y-23914000D01*
X48213294Y-23899078D01*
X48485923Y-23839771D01*
X48747337Y-23742269D01*
X48858525Y-23681555D01*
X48926795Y-23666704D01*
X48992260Y-23691120D01*
G37*
G04 #@! TD.AperFunction*
G04 #@! TA.AperFunction,Conductor*
G36*
X26038281Y-17980072D02*
G01*
X29045409Y-19681163D01*
X30171970Y-20318444D01*
X30585173Y-20552187D01*
X30591719Y-20557135D01*
X30596168Y-20558964D01*
X30598993Y-20560338D01*
X30599808Y-20560643D01*
X30600000Y-20560693D01*
X30600550Y-20560776D01*
X30603806Y-20560979D01*
X30608912Y-20561617D01*
X30617115Y-20560500D01*
X39172862Y-20560500D01*
X39181047Y-20561616D01*
X39186219Y-20560974D01*
X39189702Y-20560758D01*
X39190623Y-20560513D01*
X39191105Y-20560329D01*
X39194101Y-20558863D01*
X39198760Y-20556959D01*
X39205480Y-20551817D01*
X39854402Y-20184731D01*
X43751720Y-17980071D01*
X43812773Y-17964000D01*
X51171952Y-17964000D01*
X51178031Y-17964299D01*
X51185641Y-17965048D01*
X51210293Y-17967476D01*
X51320730Y-17979919D01*
X51342829Y-17984477D01*
X51394823Y-18000249D01*
X51397282Y-18001053D01*
X51475132Y-18028294D01*
X51492607Y-18035967D01*
X51545933Y-18064470D01*
X51549641Y-18066623D01*
X51611057Y-18105212D01*
X51619257Y-18110365D01*
X51625609Y-18114939D01*
X51677264Y-18157331D01*
X51681765Y-18161410D01*
X51739087Y-18218732D01*
X51743167Y-18223234D01*
X51785559Y-18274889D01*
X51790133Y-18281241D01*
X51833862Y-18350834D01*
X51836039Y-18354585D01*
X51841244Y-18364321D01*
X51864528Y-18407884D01*
X51872211Y-18425382D01*
X51899444Y-18503213D01*
X51900254Y-18505691D01*
X51916020Y-18557664D01*
X51920580Y-18579777D01*
X51933022Y-18690203D01*
X51936201Y-18722468D01*
X51936500Y-18728550D01*
X51936500Y-64516780D01*
X51936167Y-64523197D01*
X51932814Y-64555444D01*
X51919915Y-64664699D01*
X51915234Y-64686796D01*
X51899150Y-64738806D01*
X51898327Y-64741282D01*
X51871014Y-64818003D01*
X51863237Y-64835459D01*
X51834477Y-64888571D01*
X51832274Y-64892320D01*
X51788628Y-64960954D01*
X51784019Y-64967282D01*
X51741407Y-65018636D01*
X51737294Y-65023124D01*
X51680261Y-65079545D01*
X51675727Y-65083609D01*
X51623901Y-65125674D01*
X51617524Y-65130214D01*
X51548450Y-65173098D01*
X51544676Y-65175262D01*
X51491235Y-65203455D01*
X51473695Y-65211044D01*
X51396702Y-65237518D01*
X51394219Y-65238313D01*
X51342011Y-65253843D01*
X51319874Y-65258284D01*
X51211332Y-65269919D01*
X51177906Y-65273029D01*
X51171787Y-65273295D01*
X51126120Y-65273022D01*
X51123355Y-65273315D01*
X18619860Y-65273315D01*
X18613779Y-65273016D01*
X18612167Y-65272857D01*
X18581759Y-65269862D01*
X18470630Y-65257333D01*
X18448529Y-65252775D01*
X18396853Y-65237100D01*
X18394373Y-65236291D01*
X18315860Y-65208819D01*
X18298363Y-65201136D01*
X18245209Y-65172726D01*
X18241448Y-65170543D01*
X18171389Y-65126523D01*
X18165036Y-65121948D01*
X18113470Y-65079630D01*
X18108960Y-65075542D01*
X18051266Y-65017850D01*
X18047177Y-65013339D01*
X18004857Y-64961773D01*
X18000291Y-64955432D01*
X17956250Y-64885342D01*
X17954076Y-64881596D01*
X17951341Y-64876479D01*
X17925669Y-64828451D01*
X17917988Y-64810956D01*
X17890505Y-64732416D01*
X17889704Y-64729964D01*
X17874028Y-64678289D01*
X17869472Y-64656194D01*
X17856851Y-64544183D01*
X17853797Y-64513180D01*
X17853500Y-64507112D01*
X17853500Y-26336500D01*
X18299000Y-26336500D01*
X19099000Y-26336500D01*
X19099000Y-26820224D01*
X19101453Y-26836500D01*
X18302948Y-26836500D01*
X18314116Y-26960595D01*
X18314117Y-26960602D01*
X18373973Y-27177484D01*
X18373978Y-27177497D01*
X18471598Y-27380208D01*
X18471602Y-27380216D01*
X18603851Y-27562241D01*
X18603857Y-27562249D01*
X18766486Y-27717737D01*
X18954266Y-27841691D01*
X19161169Y-27930124D01*
X19161178Y-27930127D01*
X19298999Y-27961584D01*
X19299000Y-27961584D01*
X19298999Y-27161777D01*
X19382740Y-27210125D01*
X19514992Y-27240310D01*
X19650265Y-27230173D01*
X19776541Y-27180613D01*
X19799000Y-27162702D01*
X19799000Y-27964049D01*
X19828267Y-27960086D01*
X19828273Y-27960085D01*
X19992182Y-27906828D01*
X20062023Y-27904833D01*
X20121856Y-27940913D01*
X20152684Y-28003614D01*
X20154500Y-28024759D01*
X20154500Y-29156064D01*
X20134815Y-29223103D01*
X20082011Y-29268858D01*
X20012853Y-29278802D01*
X19981767Y-29270086D01*
X19933271Y-29249359D01*
X19933264Y-29249356D01*
X19933257Y-29249354D01*
X19933256Y-29249354D01*
X19819939Y-29223490D01*
X19715920Y-29199748D01*
X19671378Y-29197747D01*
X19493214Y-29189746D01*
X19493213Y-29189746D01*
X19493210Y-29189746D01*
X19272294Y-29219671D01*
X19272291Y-29219671D01*
X19272290Y-29219672D01*
X19060271Y-29288561D01*
X18863954Y-29394204D01*
X18689659Y-29533199D01*
X18542983Y-29701085D01*
X18542982Y-29701087D01*
X18428643Y-29892456D01*
X18428640Y-29892461D01*
X18428640Y-29892463D01*
X18415345Y-29927886D01*
X18350305Y-30101182D01*
X18350305Y-30101183D01*
X18310500Y-30320529D01*
X18310500Y-31940616D01*
X18325477Y-32107033D01*
X18384785Y-32321935D01*
X18481511Y-32522788D01*
X18481512Y-32522790D01*
X18481514Y-32522793D01*
X18612551Y-32703151D01*
X18773687Y-32857212D01*
X18959741Y-32980026D01*
X19164736Y-33067644D01*
X19382080Y-33117252D01*
X19604790Y-33127254D01*
X19825706Y-33097329D01*
X19992182Y-33043236D01*
X20062023Y-33041242D01*
X20121856Y-33077322D01*
X20152684Y-33140023D01*
X20154500Y-33161168D01*
X20154500Y-33280662D01*
X20134815Y-33347701D01*
X20082011Y-33393456D01*
X20019693Y-33404190D01*
X19795002Y-33384532D01*
X19794998Y-33384532D01*
X19568313Y-33404364D01*
X19568302Y-33404366D01*
X19348511Y-33463258D01*
X19348502Y-33463261D01*
X19142267Y-33559431D01*
X19142265Y-33559432D01*
X18955858Y-33689954D01*
X18794954Y-33850858D01*
X18664432Y-34037265D01*
X18664431Y-34037267D01*
X18568261Y-34243502D01*
X18568258Y-34243511D01*
X18509366Y-34463302D01*
X18509364Y-34463313D01*
X18489532Y-34689998D01*
X18489532Y-34690001D01*
X18509364Y-34916686D01*
X18509366Y-34916697D01*
X18568258Y-35136488D01*
X18568261Y-35136497D01*
X18664431Y-35342732D01*
X18664432Y-35342734D01*
X18794954Y-35529141D01*
X18955858Y-35690045D01*
X18955861Y-35690047D01*
X19142266Y-35820568D01*
X19200275Y-35847618D01*
X19252714Y-35893791D01*
X19271866Y-35960984D01*
X19251650Y-36027865D01*
X19200275Y-36072381D01*
X19191304Y-36076565D01*
X19142267Y-36099431D01*
X19142265Y-36099432D01*
X18955858Y-36229954D01*
X18794954Y-36390858D01*
X18664432Y-36577265D01*
X18664431Y-36577267D01*
X18568261Y-36783502D01*
X18568258Y-36783511D01*
X18509366Y-37003302D01*
X18509364Y-37003313D01*
X18489532Y-37229998D01*
X18489532Y-37230001D01*
X18509364Y-37456686D01*
X18509366Y-37456697D01*
X18568258Y-37676488D01*
X18568261Y-37676497D01*
X18664431Y-37882732D01*
X18664432Y-37882734D01*
X18794954Y-38069141D01*
X18955858Y-38230045D01*
X18955861Y-38230047D01*
X19142266Y-38360568D01*
X19200275Y-38387618D01*
X19252714Y-38433791D01*
X19271866Y-38500984D01*
X19251650Y-38567865D01*
X19200275Y-38612382D01*
X19142267Y-38639431D01*
X19142265Y-38639432D01*
X18955858Y-38769954D01*
X18794954Y-38930858D01*
X18664432Y-39117265D01*
X18664431Y-39117267D01*
X18568261Y-39323502D01*
X18568258Y-39323511D01*
X18509366Y-39543302D01*
X18509364Y-39543313D01*
X18489532Y-39769998D01*
X18489532Y-39770001D01*
X18509364Y-39996686D01*
X18509366Y-39996697D01*
X18568258Y-40216488D01*
X18568261Y-40216497D01*
X18664431Y-40422732D01*
X18664432Y-40422734D01*
X18794954Y-40609141D01*
X18955858Y-40770045D01*
X18955861Y-40770047D01*
X19142266Y-40900568D01*
X19200275Y-40927618D01*
X19252714Y-40973791D01*
X19271866Y-41040984D01*
X19251650Y-41107865D01*
X19200275Y-41152381D01*
X19191298Y-41156568D01*
X19142267Y-41179431D01*
X19142265Y-41179432D01*
X18955858Y-41309954D01*
X18794954Y-41470858D01*
X18664432Y-41657265D01*
X18664431Y-41657267D01*
X18568261Y-41863502D01*
X18568258Y-41863511D01*
X18509366Y-42083302D01*
X18509364Y-42083313D01*
X18489532Y-42309998D01*
X18489532Y-42310001D01*
X18509364Y-42536686D01*
X18509366Y-42536697D01*
X18568258Y-42756488D01*
X18568261Y-42756497D01*
X18664431Y-42962732D01*
X18664432Y-42962734D01*
X18794954Y-43149141D01*
X18955858Y-43310045D01*
X18955861Y-43310047D01*
X19142266Y-43440568D01*
X19200278Y-43467619D01*
X19252713Y-43513788D01*
X19271866Y-43580982D01*
X19251651Y-43647863D01*
X19200277Y-43692380D01*
X19142268Y-43719430D01*
X19142265Y-43719432D01*
X18955858Y-43849954D01*
X18794954Y-44010858D01*
X18664432Y-44197265D01*
X18664431Y-44197267D01*
X18568261Y-44403502D01*
X18568258Y-44403511D01*
X18509366Y-44623302D01*
X18509364Y-44623313D01*
X18489532Y-44849998D01*
X18489532Y-44850001D01*
X18509364Y-45076686D01*
X18509366Y-45076697D01*
X18568258Y-45296488D01*
X18568261Y-45296497D01*
X18664431Y-45502732D01*
X18664432Y-45502734D01*
X18794954Y-45689141D01*
X18955858Y-45850045D01*
X18955861Y-45850047D01*
X19142266Y-45980568D01*
X19200275Y-46007618D01*
X19252714Y-46053791D01*
X19271866Y-46120984D01*
X19251650Y-46187865D01*
X19200275Y-46232381D01*
X19191298Y-46236568D01*
X19142267Y-46259431D01*
X19142265Y-46259432D01*
X18955858Y-46389954D01*
X18794954Y-46550858D01*
X18664432Y-46737265D01*
X18664431Y-46737267D01*
X18568261Y-46943502D01*
X18568258Y-46943511D01*
X18509366Y-47163302D01*
X18509364Y-47163313D01*
X18489532Y-47389998D01*
X18489532Y-47390001D01*
X18509364Y-47616686D01*
X18509366Y-47616697D01*
X18568258Y-47836488D01*
X18568261Y-47836497D01*
X18664431Y-48042732D01*
X18664432Y-48042734D01*
X18794954Y-48229141D01*
X18955858Y-48390045D01*
X18955861Y-48390047D01*
X19142266Y-48520568D01*
X19200275Y-48547618D01*
X19252714Y-48593791D01*
X19271866Y-48660984D01*
X19251650Y-48727865D01*
X19200275Y-48772381D01*
X19191298Y-48776568D01*
X19142267Y-48799431D01*
X19142265Y-48799432D01*
X18955858Y-48929954D01*
X18794954Y-49090858D01*
X18664432Y-49277265D01*
X18664431Y-49277267D01*
X18568261Y-49483502D01*
X18568258Y-49483511D01*
X18509366Y-49703302D01*
X18509364Y-49703313D01*
X18489532Y-49929998D01*
X18489532Y-49930001D01*
X18509364Y-50156686D01*
X18509366Y-50156697D01*
X18568258Y-50376488D01*
X18568261Y-50376497D01*
X18664431Y-50582732D01*
X18664432Y-50582734D01*
X18794954Y-50769141D01*
X18955858Y-50930045D01*
X18955861Y-50930047D01*
X19142266Y-51060568D01*
X19200275Y-51087618D01*
X19252714Y-51133791D01*
X19271866Y-51200984D01*
X19251650Y-51267865D01*
X19200275Y-51312381D01*
X19191298Y-51316568D01*
X19142267Y-51339431D01*
X19142265Y-51339432D01*
X18955858Y-51469954D01*
X18794954Y-51630858D01*
X18664432Y-51817265D01*
X18664431Y-51817267D01*
X18568261Y-52023502D01*
X18568258Y-52023511D01*
X18509366Y-52243302D01*
X18509364Y-52243313D01*
X18489532Y-52469998D01*
X18489532Y-52470001D01*
X18509364Y-52696686D01*
X18509366Y-52696697D01*
X18568258Y-52916488D01*
X18568261Y-52916497D01*
X18664431Y-53122732D01*
X18664432Y-53122734D01*
X18794954Y-53309141D01*
X18955858Y-53470045D01*
X18955861Y-53470047D01*
X19142266Y-53600568D01*
X19191298Y-53623432D01*
X19200275Y-53627618D01*
X19252714Y-53673791D01*
X19271866Y-53740984D01*
X19251650Y-53807865D01*
X19200275Y-53852382D01*
X19142267Y-53879431D01*
X19142265Y-53879432D01*
X18955858Y-54009954D01*
X18794954Y-54170858D01*
X18664432Y-54357265D01*
X18664431Y-54357267D01*
X18568261Y-54563502D01*
X18568258Y-54563511D01*
X18509366Y-54783302D01*
X18509364Y-54783313D01*
X18489532Y-55009998D01*
X18489532Y-55010001D01*
X18509364Y-55236686D01*
X18509366Y-55236697D01*
X18568258Y-55456488D01*
X18568261Y-55456497D01*
X18664431Y-55662732D01*
X18664432Y-55662734D01*
X18794954Y-55849141D01*
X18955858Y-56010045D01*
X18955861Y-56010047D01*
X19142266Y-56140568D01*
X19348504Y-56236739D01*
X19568308Y-56295635D01*
X19730230Y-56309801D01*
X19794998Y-56315468D01*
X19795000Y-56315468D01*
X19795002Y-56315468D01*
X19851672Y-56310509D01*
X20021692Y-56295635D01*
X20241496Y-56236739D01*
X20447734Y-56140568D01*
X20634139Y-56010047D01*
X20795047Y-55849139D01*
X20925568Y-55662734D01*
X20952618Y-55604724D01*
X20998790Y-55552285D01*
X21065983Y-55533133D01*
X21132865Y-55553348D01*
X21177382Y-55604725D01*
X21204429Y-55662728D01*
X21204432Y-55662734D01*
X21334954Y-55849141D01*
X21495858Y-56010045D01*
X21495861Y-56010047D01*
X21682266Y-56140568D01*
X21888504Y-56236739D01*
X22108308Y-56295635D01*
X22270230Y-56309801D01*
X22334998Y-56315468D01*
X22335000Y-56315468D01*
X22335002Y-56315468D01*
X22391673Y-56310509D01*
X22561692Y-56295635D01*
X22713702Y-56254904D01*
X22783548Y-56256567D01*
X22833473Y-56286998D01*
X24191614Y-57645139D01*
X24225099Y-57706462D01*
X24220115Y-57776154D01*
X24178243Y-57832087D01*
X24112779Y-57856504D01*
X24048663Y-57843821D01*
X24040539Y-57839776D01*
X24040523Y-57839769D01*
X23826537Y-57778885D01*
X23826535Y-57778884D01*
X23707221Y-57767829D01*
X23660503Y-57763500D01*
X23249497Y-57763500D01*
X23204601Y-57767660D01*
X23083464Y-57778884D01*
X23083462Y-57778885D01*
X22869476Y-57839769D01*
X22869461Y-57839775D01*
X22670316Y-57938938D01*
X22670308Y-57938943D01*
X22492761Y-58073020D01*
X22342876Y-58237437D01*
X22342874Y-58237439D01*
X22225754Y-58426595D01*
X22225752Y-58426601D01*
X22206897Y-58475271D01*
X22145382Y-58634060D01*
X22104500Y-58852757D01*
X22104500Y-59075243D01*
X22114908Y-59130920D01*
X22123693Y-59177915D01*
X22116662Y-59247430D01*
X22073164Y-59302109D01*
X22007010Y-59324591D01*
X21992960Y-59324384D01*
X21924664Y-59319500D01*
X21924657Y-59319500D01*
X21785343Y-59319500D01*
X21785340Y-59319500D01*
X21576700Y-59334422D01*
X21304083Y-59393727D01*
X21304078Y-59393728D01*
X21304077Y-59393729D01*
X21290307Y-59398865D01*
X21042661Y-59491231D01*
X21042657Y-59491233D01*
X20797792Y-59624940D01*
X20797784Y-59624945D01*
X20574439Y-59792138D01*
X20574421Y-59792154D01*
X20377154Y-59989421D01*
X20377138Y-59989439D01*
X20209945Y-60212784D01*
X20209940Y-60212792D01*
X20076233Y-60457657D01*
X20076231Y-60457661D01*
X20049446Y-60529476D01*
X19987549Y-60695431D01*
X19978727Y-60719083D01*
X19919422Y-60991700D01*
X19899518Y-61269998D01*
X19899518Y-61270001D01*
X19919422Y-61548299D01*
X19978727Y-61820916D01*
X19978729Y-61820923D01*
X20018830Y-61928438D01*
X20076231Y-62082338D01*
X20076233Y-62082342D01*
X20209940Y-62327207D01*
X20209945Y-62327215D01*
X20377138Y-62550560D01*
X20377154Y-62550578D01*
X20574421Y-62747845D01*
X20574439Y-62747861D01*
X20797784Y-62915054D01*
X20797792Y-62915059D01*
X21042657Y-63048766D01*
X21042661Y-63048768D01*
X21042663Y-63048769D01*
X21304077Y-63146271D01*
X21376727Y-63162075D01*
X21576700Y-63205577D01*
X21576702Y-63205577D01*
X21576706Y-63205578D01*
X21785343Y-63220500D01*
X21924656Y-63220500D01*
X21924657Y-63220500D01*
X21967619Y-63217427D01*
X22035891Y-63232278D01*
X22085297Y-63281683D01*
X22100149Y-63349956D01*
X22098354Y-63363895D01*
X22085367Y-63433369D01*
X22079500Y-63464757D01*
X22079500Y-63687243D01*
X22120382Y-63905940D01*
X22183656Y-64069268D01*
X22200752Y-64113398D01*
X22200754Y-64113404D01*
X22317874Y-64302560D01*
X22317876Y-64302562D01*
X22467761Y-64466979D01*
X22645308Y-64601056D01*
X22645316Y-64601061D01*
X22844461Y-64700224D01*
X22844465Y-64700225D01*
X22844472Y-64700229D01*
X23058464Y-64761115D01*
X23224497Y-64776500D01*
X23224501Y-64776500D01*
X23635499Y-64776500D01*
X23635503Y-64776500D01*
X23801536Y-64761115D01*
X24015528Y-64700229D01*
X24214689Y-64601058D01*
X24392236Y-64466981D01*
X24542124Y-64302562D01*
X24659247Y-64113401D01*
X24739618Y-63905940D01*
X24780500Y-63687243D01*
X24780500Y-63464757D01*
X24739618Y-63246060D01*
X24712637Y-63176414D01*
X24706775Y-63106791D01*
X24739486Y-63045051D01*
X24740436Y-63044087D01*
X24817707Y-62966816D01*
X24879029Y-62933334D01*
X24905386Y-62930500D01*
X25056655Y-62930500D01*
X25123694Y-62950185D01*
X25169449Y-63002989D01*
X25179393Y-63072147D01*
X25170677Y-63103234D01*
X25134376Y-63188165D01*
X25134372Y-63188178D01*
X25102915Y-63325999D01*
X25102916Y-63326000D01*
X25902722Y-63326000D01*
X25854375Y-63409740D01*
X25824190Y-63541992D01*
X25834327Y-63677265D01*
X25883887Y-63803541D01*
X25901797Y-63826000D01*
X25100449Y-63826000D01*
X25104415Y-63855278D01*
X25173945Y-64069268D01*
X25280565Y-64267401D01*
X25280567Y-64267404D01*
X25420854Y-64443320D01*
X25590292Y-64591352D01*
X25590300Y-64591359D01*
X25783446Y-64706759D01*
X25783451Y-64706761D01*
X25994110Y-64785824D01*
X26215494Y-64826000D01*
X26228000Y-64826000D01*
X26228000Y-64026000D01*
X26711724Y-64026000D01*
X26728000Y-64023546D01*
X26728000Y-64822051D01*
X26852094Y-64810883D01*
X26852102Y-64810882D01*
X27068984Y-64751026D01*
X27068997Y-64751021D01*
X27271708Y-64653401D01*
X27271716Y-64653397D01*
X27453741Y-64521148D01*
X27453749Y-64521142D01*
X27609237Y-64358513D01*
X27733191Y-64170733D01*
X27821624Y-63963830D01*
X27821627Y-63963821D01*
X27853084Y-63826000D01*
X27053278Y-63826000D01*
X27101625Y-63742260D01*
X27131810Y-63610008D01*
X27121673Y-63474735D01*
X27072113Y-63348459D01*
X27054203Y-63326000D01*
X27855550Y-63326000D01*
X27855550Y-63325999D01*
X27851584Y-63296721D01*
X27785332Y-63092818D01*
X27783337Y-63022977D01*
X27819417Y-62963144D01*
X27882118Y-62932316D01*
X27903263Y-62930500D01*
X29064661Y-62930500D01*
X29131700Y-62950185D01*
X29177455Y-63002989D01*
X29187399Y-63072147D01*
X29178683Y-63103234D01*
X29140857Y-63191733D01*
X29140854Y-63191743D01*
X29091248Y-63409078D01*
X29091248Y-63409082D01*
X29083123Y-63590005D01*
X29081246Y-63631790D01*
X29111171Y-63852706D01*
X29111172Y-63852709D01*
X29180061Y-64064728D01*
X29206252Y-64113398D01*
X29285703Y-64261044D01*
X29424700Y-64435341D01*
X29592586Y-64582017D01*
X29712062Y-64653401D01*
X29767955Y-64686796D01*
X29783963Y-64696360D01*
X29992681Y-64774693D01*
X29992682Y-64774694D01*
X30212029Y-64814500D01*
X30212033Y-64814500D01*
X31832114Y-64814500D01*
X31832120Y-64814500D01*
X31998537Y-64799522D01*
X32213437Y-64740214D01*
X32414293Y-64643486D01*
X32594651Y-64512449D01*
X32748712Y-64351313D01*
X32871526Y-64165259D01*
X32959144Y-63960264D01*
X33008752Y-63742920D01*
X33015619Y-63590005D01*
X33495202Y-63590005D01*
X33514361Y-63821218D01*
X33571317Y-64046135D01*
X33664516Y-64258609D01*
X33748811Y-64387633D01*
X34337226Y-63799218D01*
X34375901Y-63892588D01*
X34472075Y-64017925D01*
X34597412Y-64114099D01*
X34690779Y-64152772D01*
X34101199Y-64742351D01*
X34131650Y-64766050D01*
X34335697Y-64876476D01*
X34335706Y-64876479D01*
X34555139Y-64951811D01*
X34783993Y-64990000D01*
X35016007Y-64990000D01*
X35244860Y-64951811D01*
X35464293Y-64876479D01*
X35464302Y-64876476D01*
X35668350Y-64766050D01*
X35698798Y-64742351D01*
X35109220Y-64152773D01*
X35202588Y-64114099D01*
X35327925Y-64017925D01*
X35424099Y-63892589D01*
X35462772Y-63799220D01*
X36051186Y-64387634D01*
X36135484Y-64258606D01*
X36228682Y-64046135D01*
X36285638Y-63821218D01*
X36304798Y-63590005D01*
X36304798Y-63589994D01*
X36285638Y-63358781D01*
X36228682Y-63133864D01*
X36135483Y-62921390D01*
X36051186Y-62792364D01*
X35462772Y-63380778D01*
X35424099Y-63287412D01*
X35327925Y-63162075D01*
X35202588Y-63065901D01*
X35109219Y-63027226D01*
X35698799Y-62437647D01*
X35668349Y-62413949D01*
X35464302Y-62303523D01*
X35464293Y-62303520D01*
X35244860Y-62228188D01*
X35016007Y-62190000D01*
X34783993Y-62190000D01*
X34555139Y-62228188D01*
X34335706Y-62303520D01*
X34335698Y-62303523D01*
X34131644Y-62413952D01*
X34101200Y-62437646D01*
X34101200Y-62437647D01*
X34690778Y-63027227D01*
X34597412Y-63065901D01*
X34472075Y-63162075D01*
X34375901Y-63287411D01*
X34337226Y-63380779D01*
X33748812Y-62792365D01*
X33664516Y-62921391D01*
X33664514Y-62921395D01*
X33571317Y-63133864D01*
X33514361Y-63358781D01*
X33495202Y-63589994D01*
X33495202Y-63590005D01*
X33015619Y-63590005D01*
X33018754Y-63520210D01*
X32988829Y-63299294D01*
X32919938Y-63087271D01*
X32814297Y-62890956D01*
X32675300Y-62716659D01*
X32507414Y-62569983D01*
X32463178Y-62543553D01*
X32415725Y-62492269D01*
X32403531Y-62423472D01*
X32430467Y-62359003D01*
X32439088Y-62349435D01*
X32736705Y-62051819D01*
X32798028Y-62018334D01*
X32824386Y-62015500D01*
X32934389Y-62015500D01*
X32934391Y-62015500D01*
X33109267Y-61978329D01*
X33272593Y-61905612D01*
X33417230Y-61800526D01*
X33417301Y-61800448D01*
X33449035Y-61765203D01*
X33536859Y-61667665D01*
X33626250Y-61512835D01*
X33681497Y-61342803D01*
X33700185Y-61165000D01*
X33681497Y-60987197D01*
X33626250Y-60817165D01*
X33536859Y-60662335D01*
X33490003Y-60610296D01*
X33417235Y-60529478D01*
X33417232Y-60529476D01*
X33417231Y-60529475D01*
X33417230Y-60529474D01*
X33272593Y-60424388D01*
X33109267Y-60351671D01*
X33109265Y-60351670D01*
X32981594Y-60324533D01*
X32934391Y-60314500D01*
X32755609Y-60314500D01*
X32724954Y-60321015D01*
X32580733Y-60351670D01*
X32580728Y-60351672D01*
X32417408Y-60424387D01*
X32272768Y-60529475D01*
X32153140Y-60662336D01*
X32063750Y-60817164D01*
X32063747Y-60817170D01*
X32008504Y-60987192D01*
X32008503Y-60987194D01*
X31989815Y-61165002D01*
X31989815Y-61165007D01*
X31990923Y-61175555D01*
X31978351Y-61244284D01*
X31955283Y-61276191D01*
X31438294Y-61793181D01*
X31376971Y-61826666D01*
X31350613Y-61829500D01*
X29499897Y-61829500D01*
X29432858Y-61809815D01*
X29387103Y-61757011D01*
X29377159Y-61687853D01*
X29404354Y-61626459D01*
X29405516Y-61625052D01*
X29408600Y-61621326D01*
X29478579Y-61472613D01*
X29509376Y-61311170D01*
X29499056Y-61147140D01*
X29448268Y-60990829D01*
X29360202Y-60852060D01*
X29323043Y-60817165D01*
X29240396Y-60739554D01*
X29240388Y-60739548D01*
X29096371Y-60660374D01*
X29096361Y-60660371D01*
X28937180Y-60619500D01*
X28937177Y-60619500D01*
X28814075Y-60619500D01*
X28814065Y-60619500D01*
X28691942Y-60634929D01*
X28691939Y-60634929D01*
X28539130Y-60695431D01*
X28539121Y-60695436D01*
X28406164Y-60792034D01*
X28406162Y-60792037D01*
X28301400Y-60918673D01*
X28231420Y-61067387D01*
X28216207Y-61147139D01*
X28200624Y-61228830D01*
X28200624Y-61228832D01*
X28200624Y-61228833D01*
X28210944Y-61392860D01*
X28261732Y-61549171D01*
X28261734Y-61549176D01*
X28318775Y-61639057D01*
X28338077Y-61706208D01*
X28318010Y-61773134D01*
X28264946Y-61818587D01*
X28214079Y-61829500D01*
X24636464Y-61829500D01*
X24634348Y-61829464D01*
X24593775Y-61828078D01*
X24569174Y-61827238D01*
X24569173Y-61827238D01*
X24569171Y-61827238D01*
X24526170Y-61837717D01*
X24519930Y-61838902D01*
X24476079Y-61844930D01*
X24459616Y-61852081D01*
X24439575Y-61858820D01*
X24422150Y-61863066D01*
X24422145Y-61863068D01*
X24383567Y-61884758D01*
X24377881Y-61887582D01*
X24337279Y-61905220D01*
X24323357Y-61916546D01*
X24305883Y-61928438D01*
X24290246Y-61937230D01*
X24290239Y-61937235D01*
X24258939Y-61968535D01*
X24254225Y-61972789D01*
X24219891Y-62000722D01*
X24209541Y-62015385D01*
X24195920Y-62031554D01*
X23874777Y-62352696D01*
X23813454Y-62386181D01*
X23775655Y-62388486D01*
X23669243Y-62378626D01*
X23604306Y-62352840D01*
X23563618Y-62296040D01*
X23560098Y-62226259D01*
X23571849Y-62195733D01*
X23633769Y-62082337D01*
X23731271Y-61820923D01*
X23790578Y-61548294D01*
X23810482Y-61270000D01*
X23790578Y-60991706D01*
X23790387Y-60990829D01*
X23752609Y-60817164D01*
X23731271Y-60719077D01*
X23633769Y-60457663D01*
X23615599Y-60424388D01*
X23573056Y-60346476D01*
X23558204Y-60278204D01*
X23582620Y-60212739D01*
X23638554Y-60170867D01*
X23670442Y-60163578D01*
X23826536Y-60149115D01*
X24040528Y-60088229D01*
X24239689Y-59989058D01*
X24417236Y-59854981D01*
X24567124Y-59690562D01*
X24684247Y-59501401D01*
X24764618Y-59293940D01*
X24805500Y-59075243D01*
X24805500Y-58852757D01*
X24764618Y-58634060D01*
X24685581Y-58430044D01*
X24679720Y-58360424D01*
X24712430Y-58298683D01*
X24773326Y-58264428D01*
X24843075Y-58268534D01*
X24846691Y-58269895D01*
X24849344Y-58270941D01*
X24868290Y-58280351D01*
X24883618Y-58289672D01*
X24926247Y-58301616D01*
X24932263Y-58303639D01*
X24973436Y-58319876D01*
X24991287Y-58321711D01*
X25012052Y-58325657D01*
X25029335Y-58330500D01*
X25029342Y-58330500D01*
X25037739Y-58331655D01*
X25037534Y-58333145D01*
X25095565Y-58350185D01*
X25141320Y-58402989D01*
X25151264Y-58472147D01*
X25142548Y-58503234D01*
X25111376Y-58576165D01*
X25111372Y-58576178D01*
X25079915Y-58713999D01*
X25079916Y-58714000D01*
X25879722Y-58714000D01*
X25831375Y-58797740D01*
X25801190Y-58929992D01*
X25811327Y-59065265D01*
X25860887Y-59191541D01*
X25878797Y-59214000D01*
X25077449Y-59214000D01*
X25081415Y-59243278D01*
X25150945Y-59457268D01*
X25257565Y-59655401D01*
X25257567Y-59655404D01*
X25397854Y-59831320D01*
X25567292Y-59979352D01*
X25567300Y-59979359D01*
X25760446Y-60094759D01*
X25760451Y-60094761D01*
X25971110Y-60173824D01*
X26192494Y-60214000D01*
X26205000Y-60214000D01*
X26205000Y-59414000D01*
X26688724Y-59414000D01*
X26705000Y-59411546D01*
X26705000Y-60210051D01*
X26829094Y-60198883D01*
X26829102Y-60198882D01*
X27045984Y-60139026D01*
X27045997Y-60139021D01*
X27248708Y-60041401D01*
X27248716Y-60041397D01*
X27430741Y-59909148D01*
X27430749Y-59909142D01*
X27586237Y-59746513D01*
X27710191Y-59558733D01*
X27798624Y-59351830D01*
X27798627Y-59351821D01*
X27830084Y-59214000D01*
X27030278Y-59214000D01*
X27078625Y-59130260D01*
X27108810Y-58998008D01*
X27098673Y-58862735D01*
X27049113Y-58736459D01*
X27031203Y-58714000D01*
X27832550Y-58714000D01*
X27832550Y-58713999D01*
X27828584Y-58684721D01*
X27766231Y-58492818D01*
X27764236Y-58422977D01*
X27800316Y-58363144D01*
X27863017Y-58332316D01*
X27884162Y-58330500D01*
X29064532Y-58330500D01*
X29131571Y-58350185D01*
X29177326Y-58402989D01*
X29187270Y-58472147D01*
X29178554Y-58503234D01*
X29145857Y-58579733D01*
X29145854Y-58579743D01*
X29106318Y-58752963D01*
X29096248Y-58797080D01*
X29086246Y-59019790D01*
X29116171Y-59240706D01*
X29116172Y-59240709D01*
X29185061Y-59452728D01*
X29211252Y-59501398D01*
X29290703Y-59649044D01*
X29429700Y-59823341D01*
X29597586Y-59970017D01*
X29788963Y-60084360D01*
X29997682Y-60162694D01*
X30217029Y-60202500D01*
X30217033Y-60202500D01*
X31837114Y-60202500D01*
X31837120Y-60202500D01*
X32003537Y-60187522D01*
X32218437Y-60128214D01*
X32419293Y-60031486D01*
X32599651Y-59900449D01*
X32753712Y-59739313D01*
X32815842Y-59645189D01*
X32869203Y-59600084D01*
X32919330Y-59589500D01*
X35613548Y-59589500D01*
X35680587Y-59609185D01*
X35701229Y-59625819D01*
X38073181Y-61997771D01*
X38106666Y-62059094D01*
X38109500Y-62085452D01*
X38109500Y-62213500D01*
X38089815Y-62280539D01*
X38037011Y-62326294D01*
X37985500Y-62337500D01*
X37952880Y-62337500D01*
X37907949Y-62341543D01*
X37786466Y-62352477D01*
X37571564Y-62411785D01*
X37571563Y-62411786D01*
X37517865Y-62437646D01*
X37370711Y-62508511D01*
X37202324Y-62630851D01*
X37190349Y-62639551D01*
X37036288Y-62800687D01*
X37022482Y-62821602D01*
X36913473Y-62986742D01*
X36825857Y-63191733D01*
X36825854Y-63191743D01*
X36776248Y-63409078D01*
X36776248Y-63409082D01*
X36768123Y-63590005D01*
X36766246Y-63631790D01*
X36796171Y-63852706D01*
X36796172Y-63852709D01*
X36865061Y-64064728D01*
X36891252Y-64113398D01*
X36970703Y-64261044D01*
X37109700Y-64435341D01*
X37277586Y-64582017D01*
X37397062Y-64653401D01*
X37452955Y-64686796D01*
X37468963Y-64696360D01*
X37677681Y-64774693D01*
X37677682Y-64774694D01*
X37897029Y-64814500D01*
X37897033Y-64814500D01*
X39517114Y-64814500D01*
X39517120Y-64814500D01*
X39683537Y-64799522D01*
X39898437Y-64740214D01*
X40099293Y-64643486D01*
X40279651Y-64512449D01*
X40433712Y-64351313D01*
X40556526Y-64165259D01*
X40644144Y-63960264D01*
X40674789Y-63826000D01*
X41957449Y-63826000D01*
X41961415Y-63855278D01*
X42030945Y-64069268D01*
X42137565Y-64267401D01*
X42137567Y-64267404D01*
X42277854Y-64443320D01*
X42447292Y-64591352D01*
X42447300Y-64591359D01*
X42640446Y-64706759D01*
X42640451Y-64706761D01*
X42851110Y-64785824D01*
X43072494Y-64826000D01*
X43085000Y-64826000D01*
X43085000Y-64026000D01*
X43568724Y-64026000D01*
X43585000Y-64023546D01*
X43585000Y-64822051D01*
X43709094Y-64810883D01*
X43709102Y-64810882D01*
X43925984Y-64751026D01*
X43925997Y-64751021D01*
X44128708Y-64653401D01*
X44128716Y-64653397D01*
X44310741Y-64521148D01*
X44310749Y-64521142D01*
X44466237Y-64358513D01*
X44590191Y-64170733D01*
X44678624Y-63963830D01*
X44678627Y-63963821D01*
X44710084Y-63826000D01*
X43910278Y-63826000D01*
X43958625Y-63742260D01*
X43988810Y-63610008D01*
X43978673Y-63474735D01*
X43929113Y-63348459D01*
X43911203Y-63326000D01*
X44712550Y-63326000D01*
X44712550Y-63325999D01*
X44708584Y-63296721D01*
X44639054Y-63082731D01*
X44532434Y-62884598D01*
X44532432Y-62884595D01*
X44392145Y-62708679D01*
X44222707Y-62560647D01*
X44222699Y-62560640D01*
X44029553Y-62445240D01*
X44029548Y-62445238D01*
X43818889Y-62366175D01*
X43597506Y-62326000D01*
X43585000Y-62326000D01*
X43585000Y-63126000D01*
X43101276Y-63126000D01*
X43085000Y-63128453D01*
X43085000Y-62329948D01*
X43084999Y-62329947D01*
X42960904Y-62341116D01*
X42960897Y-62341117D01*
X42744015Y-62400973D01*
X42744002Y-62400978D01*
X42541291Y-62498598D01*
X42541283Y-62498602D01*
X42359258Y-62630851D01*
X42359250Y-62630857D01*
X42203762Y-62793486D01*
X42079808Y-62981266D01*
X41991375Y-63188169D01*
X41991372Y-63188178D01*
X41959915Y-63325999D01*
X41959916Y-63326000D01*
X42759722Y-63326000D01*
X42711375Y-63409740D01*
X42681190Y-63541992D01*
X42691327Y-63677265D01*
X42740887Y-63803541D01*
X42758797Y-63826000D01*
X41957449Y-63826000D01*
X40674789Y-63826000D01*
X40693752Y-63742920D01*
X40703754Y-63520210D01*
X40673829Y-63299294D01*
X40604938Y-63087271D01*
X40499297Y-62890956D01*
X40360300Y-62716659D01*
X40192414Y-62569983D01*
X40072943Y-62498602D01*
X40001043Y-62455643D01*
X40001040Y-62455641D01*
X40001037Y-62455640D01*
X39884189Y-62411786D01*
X39792317Y-62377305D01*
X39572971Y-62337500D01*
X39572967Y-62337500D01*
X39484500Y-62337500D01*
X39417461Y-62317815D01*
X39371706Y-62265011D01*
X39360500Y-62213500D01*
X39360500Y-61857737D01*
X39362224Y-61842123D01*
X39361938Y-61842096D01*
X39362672Y-61834333D01*
X39360531Y-61766171D01*
X39360500Y-61764224D01*
X39360500Y-61735651D01*
X39360500Y-61735650D01*
X39359629Y-61728759D01*
X39359172Y-61722945D01*
X39358072Y-61687940D01*
X39357709Y-61676373D01*
X39352121Y-61657139D01*
X39348174Y-61638081D01*
X39346706Y-61626459D01*
X39345664Y-61618208D01*
X39328507Y-61574875D01*
X39326614Y-61569346D01*
X39313618Y-61524614D01*
X39313617Y-61524610D01*
X39303420Y-61507368D01*
X39294863Y-61489902D01*
X39287486Y-61471268D01*
X39260083Y-61433550D01*
X39256900Y-61428705D01*
X39233170Y-61388579D01*
X39233165Y-61388573D01*
X39219005Y-61374413D01*
X39206370Y-61359620D01*
X39194593Y-61343412D01*
X39158693Y-61313713D01*
X39154381Y-61309790D01*
X39073424Y-61228833D01*
X40280624Y-61228833D01*
X40290944Y-61392860D01*
X40341732Y-61549171D01*
X40341734Y-61549175D01*
X40429798Y-61687940D01*
X40549603Y-61800445D01*
X40549611Y-61800451D01*
X40693628Y-61879625D01*
X40693632Y-61879627D01*
X40852823Y-61920500D01*
X40852827Y-61920500D01*
X40975923Y-61920500D01*
X40975925Y-61920500D01*
X40975930Y-61920499D01*
X40975934Y-61920499D01*
X40989174Y-61918826D01*
X41098058Y-61905071D01*
X41250871Y-61844568D01*
X41254236Y-61842123D01*
X41383835Y-61747965D01*
X41383835Y-61747963D01*
X41383837Y-61747963D01*
X41488600Y-61621326D01*
X41558579Y-61472613D01*
X41589376Y-61311170D01*
X41579056Y-61147140D01*
X41528268Y-60990829D01*
X41440202Y-60852060D01*
X41403043Y-60817165D01*
X41320396Y-60739554D01*
X41320388Y-60739548D01*
X41176371Y-60660374D01*
X41176361Y-60660371D01*
X41017180Y-60619500D01*
X41017177Y-60619500D01*
X40894075Y-60619500D01*
X40894065Y-60619500D01*
X40771942Y-60634929D01*
X40771939Y-60634929D01*
X40619130Y-60695431D01*
X40619121Y-60695436D01*
X40486164Y-60792034D01*
X40486162Y-60792037D01*
X40381400Y-60918673D01*
X40311420Y-61067387D01*
X40296207Y-61147139D01*
X40280624Y-61228830D01*
X40280624Y-61228832D01*
X40280624Y-61228833D01*
X39073424Y-61228833D01*
X38258772Y-60414181D01*
X38225287Y-60352858D01*
X38230271Y-60283166D01*
X38272143Y-60227233D01*
X38337607Y-60202816D01*
X38346453Y-60202500D01*
X39522114Y-60202500D01*
X39522120Y-60202500D01*
X39688537Y-60187522D01*
X39903437Y-60128214D01*
X40104293Y-60031486D01*
X40284651Y-59900449D01*
X40438712Y-59739313D01*
X40561526Y-59553259D01*
X40649144Y-59348264D01*
X40679789Y-59214000D01*
X41934449Y-59214000D01*
X41938415Y-59243278D01*
X42007945Y-59457268D01*
X42114565Y-59655401D01*
X42114567Y-59655404D01*
X42254854Y-59831320D01*
X42424292Y-59979352D01*
X42424300Y-59979359D01*
X42617446Y-60094759D01*
X42617451Y-60094761D01*
X42828110Y-60173824D01*
X43049494Y-60214000D01*
X43062000Y-60214000D01*
X43062000Y-59414000D01*
X43545724Y-59414000D01*
X43562000Y-59411546D01*
X43562000Y-60210051D01*
X43686094Y-60198883D01*
X43686102Y-60198882D01*
X43902984Y-60139026D01*
X43902997Y-60139021D01*
X44105708Y-60041401D01*
X44105716Y-60041397D01*
X44287741Y-59909148D01*
X44287749Y-59909142D01*
X44443237Y-59746513D01*
X44567191Y-59558733D01*
X44655624Y-59351830D01*
X44655627Y-59351821D01*
X44687084Y-59214000D01*
X43887278Y-59214000D01*
X43935625Y-59130260D01*
X43965810Y-58998008D01*
X43955673Y-58862735D01*
X43906113Y-58736459D01*
X43888203Y-58714000D01*
X44689550Y-58714000D01*
X44689550Y-58713999D01*
X44685584Y-58684721D01*
X44616054Y-58470731D01*
X44509434Y-58272598D01*
X44509432Y-58272595D01*
X44387305Y-58119452D01*
X44371261Y-58080154D01*
X44349212Y-58075358D01*
X44327055Y-58059907D01*
X44199707Y-57948647D01*
X44199699Y-57948640D01*
X44006553Y-57833240D01*
X44006548Y-57833238D01*
X43795889Y-57754175D01*
X43574506Y-57714000D01*
X43562000Y-57714000D01*
X43562000Y-58514000D01*
X43078276Y-58514000D01*
X43062000Y-58516453D01*
X43062000Y-57717948D01*
X43061999Y-57717947D01*
X42937904Y-57729116D01*
X42937897Y-57729117D01*
X42721015Y-57788973D01*
X42721002Y-57788978D01*
X42518291Y-57886598D01*
X42518283Y-57886602D01*
X42336258Y-58018851D01*
X42336250Y-58018857D01*
X42180762Y-58181486D01*
X42056808Y-58369266D01*
X41968375Y-58576169D01*
X41968372Y-58576178D01*
X41936915Y-58713999D01*
X41936916Y-58714000D01*
X42736722Y-58714000D01*
X42688375Y-58797740D01*
X42658190Y-58929992D01*
X42668327Y-59065265D01*
X42717887Y-59191541D01*
X42735797Y-59214000D01*
X41934449Y-59214000D01*
X40679789Y-59214000D01*
X40698752Y-59130920D01*
X40708754Y-58908210D01*
X40678829Y-58687294D01*
X40609938Y-58475271D01*
X40504297Y-58278956D01*
X40365300Y-58104659D01*
X40197414Y-57957983D01*
X40077943Y-57886602D01*
X40006043Y-57843643D01*
X40006040Y-57843641D01*
X40006037Y-57843640D01*
X39889189Y-57799786D01*
X39797317Y-57765305D01*
X39577971Y-57725500D01*
X39577967Y-57725500D01*
X39489500Y-57725500D01*
X39422461Y-57705815D01*
X39376706Y-57653011D01*
X39365500Y-57601500D01*
X39365500Y-56316967D01*
X39385185Y-56249928D01*
X39401814Y-56229291D01*
X40174234Y-55456871D01*
X40186488Y-55447056D01*
X40186305Y-55446834D01*
X40192314Y-55441861D01*
X40192323Y-55441856D01*
X40239053Y-55392092D01*
X40240292Y-55390813D01*
X40260566Y-55370541D01*
X40264825Y-55365048D01*
X40268598Y-55360631D01*
X40300508Y-55326652D01*
X40310161Y-55309090D01*
X40320835Y-55292840D01*
X40333119Y-55277006D01*
X40351626Y-55234237D01*
X40354195Y-55228994D01*
X40376642Y-55188163D01*
X40376643Y-55188162D01*
X40381623Y-55168761D01*
X40387926Y-55150353D01*
X40391974Y-55141000D01*
X40395884Y-55131966D01*
X40395884Y-55131963D01*
X40396691Y-55130100D01*
X40441383Y-55076393D01*
X40508016Y-55055375D01*
X40560922Y-55066069D01*
X40645733Y-55103829D01*
X40645736Y-55103829D01*
X40645737Y-55103830D01*
X40718023Y-55119194D01*
X40820609Y-55141000D01*
X40820610Y-55141000D01*
X40999389Y-55141000D01*
X40999391Y-55141000D01*
X41174267Y-55103829D01*
X41337593Y-55031112D01*
X41432037Y-54962493D01*
X41497844Y-54939012D01*
X41565898Y-54954837D01*
X41592605Y-54975129D01*
X44496320Y-57878845D01*
X44524300Y-57930086D01*
X44555491Y-57940645D01*
X44571933Y-57954458D01*
X45049417Y-58431942D01*
X45082901Y-58493263D01*
X45077917Y-58562954D01*
X45077362Y-58564414D01*
X45050383Y-58634055D01*
X45050382Y-58634059D01*
X45050382Y-58634060D01*
X45009500Y-58852757D01*
X45009500Y-59075243D01*
X45050382Y-59293938D01*
X45050383Y-59293944D01*
X45091703Y-59400605D01*
X45097565Y-59470228D01*
X45082034Y-59509810D01*
X45080330Y-59512612D01*
X45080327Y-59512617D01*
X45068385Y-59555237D01*
X45066362Y-59561255D01*
X45050122Y-59602440D01*
X45048288Y-59620284D01*
X45044342Y-59641048D01*
X45039501Y-59658328D01*
X45039500Y-59658337D01*
X45039500Y-59702594D01*
X45039175Y-59708939D01*
X45034648Y-59752970D01*
X45034648Y-59752975D01*
X45037697Y-59770656D01*
X45039500Y-59791724D01*
X45039500Y-62820535D01*
X45039464Y-62822651D01*
X45037238Y-62887829D01*
X45047715Y-62930819D01*
X45048901Y-62937061D01*
X45054929Y-62980920D01*
X45062079Y-62997379D01*
X45068819Y-63017420D01*
X45075075Y-63043090D01*
X45073415Y-63043494D01*
X45078785Y-63103026D01*
X45072778Y-63123712D01*
X45025383Y-63246054D01*
X45025381Y-63246060D01*
X45025382Y-63246060D01*
X44984500Y-63464757D01*
X44984500Y-63687243D01*
X45025382Y-63905940D01*
X45088656Y-64069268D01*
X45105752Y-64113398D01*
X45105754Y-64113404D01*
X45222874Y-64302560D01*
X45222876Y-64302562D01*
X45372761Y-64466979D01*
X45550308Y-64601056D01*
X45550316Y-64601061D01*
X45749461Y-64700224D01*
X45749465Y-64700225D01*
X45749472Y-64700229D01*
X45963464Y-64761115D01*
X46129497Y-64776500D01*
X46129501Y-64776500D01*
X46540499Y-64776500D01*
X46540503Y-64776500D01*
X46706536Y-64761115D01*
X46920528Y-64700229D01*
X47119689Y-64601058D01*
X47297236Y-64466981D01*
X47447124Y-64302562D01*
X47564247Y-64113401D01*
X47644618Y-63905940D01*
X47685500Y-63687243D01*
X47685500Y-63464757D01*
X47666306Y-63362081D01*
X47673337Y-63292570D01*
X47716834Y-63237891D01*
X47782988Y-63215408D01*
X47797041Y-63215615D01*
X47801226Y-63215914D01*
X47865343Y-63220500D01*
X48004657Y-63220500D01*
X48213294Y-63205578D01*
X48216324Y-63204919D01*
X48293280Y-63188178D01*
X48485923Y-63146271D01*
X48747337Y-63048769D01*
X48992213Y-62915056D01*
X49215568Y-62747855D01*
X49412855Y-62550568D01*
X49580056Y-62327213D01*
X49713769Y-62082337D01*
X49811271Y-61820923D01*
X49870578Y-61548294D01*
X49890482Y-61270000D01*
X49870578Y-60991706D01*
X49870387Y-60990829D01*
X49832609Y-60817164D01*
X49811271Y-60719077D01*
X49713769Y-60457663D01*
X49695599Y-60424388D01*
X49580059Y-60212792D01*
X49580054Y-60212784D01*
X49412861Y-59989439D01*
X49412845Y-59989421D01*
X49215578Y-59792154D01*
X49215560Y-59792138D01*
X48992215Y-59624945D01*
X48992207Y-59624940D01*
X48747342Y-59491233D01*
X48747338Y-59491231D01*
X48644106Y-59452728D01*
X48485923Y-59393729D01*
X48485919Y-59393728D01*
X48485916Y-59393727D01*
X48213299Y-59334422D01*
X48004659Y-59319500D01*
X48004657Y-59319500D01*
X47865343Y-59319500D01*
X47865335Y-59319500D01*
X47822378Y-59322572D01*
X47754105Y-59307719D01*
X47704701Y-59258313D01*
X47689850Y-59190040D01*
X47691642Y-59176118D01*
X47710500Y-59075243D01*
X47710500Y-58852757D01*
X47669618Y-58634060D01*
X47589247Y-58426599D01*
X47587004Y-58422977D01*
X47472125Y-58237439D01*
X47472123Y-58237437D01*
X47322238Y-58073020D01*
X47144691Y-57938943D01*
X47144683Y-57938938D01*
X46945538Y-57839775D01*
X46945523Y-57839769D01*
X46731537Y-57778885D01*
X46731535Y-57778884D01*
X46612221Y-57767829D01*
X46565503Y-57763500D01*
X46154497Y-57763500D01*
X46014343Y-57776487D01*
X45945773Y-57763072D01*
X45915221Y-57740697D01*
X42166265Y-53991740D01*
X42132780Y-53930417D01*
X42137764Y-53860725D01*
X42179636Y-53804792D01*
X42245100Y-53780375D01*
X42268294Y-53781572D01*
X42268330Y-53781162D01*
X42273723Y-53781633D01*
X42273724Y-53781634D01*
X42292321Y-53783261D01*
X42504998Y-53801868D01*
X42505000Y-53801868D01*
X42505002Y-53801868D01*
X42562819Y-53796809D01*
X42736276Y-53781634D01*
X42905175Y-53736378D01*
X42975023Y-53738041D01*
X43024948Y-53768472D01*
X44648355Y-55391879D01*
X44649798Y-55393373D01*
X44694320Y-55441044D01*
X44720356Y-55456876D01*
X44732140Y-55464042D01*
X44737379Y-55467607D01*
X44772658Y-55494361D01*
X44789353Y-55500944D01*
X44808290Y-55510351D01*
X44823618Y-55519672D01*
X44849618Y-55526956D01*
X44866237Y-55531613D01*
X44872254Y-55533636D01*
X44913435Y-55549876D01*
X44931284Y-55551710D01*
X44952056Y-55555658D01*
X44961414Y-55558280D01*
X44969334Y-55560500D01*
X44969335Y-55560500D01*
X45013601Y-55560500D01*
X45019942Y-55560824D01*
X45063971Y-55565351D01*
X45081650Y-55562302D01*
X45102718Y-55560500D01*
X46217763Y-55560500D01*
X46284802Y-55580185D01*
X46330144Y-55632093D01*
X46344109Y-55662041D01*
X46344432Y-55662734D01*
X46474954Y-55849141D01*
X46635858Y-56010045D01*
X46635861Y-56010047D01*
X46822266Y-56140568D01*
X47028504Y-56236739D01*
X47248308Y-56295635D01*
X47410230Y-56309801D01*
X47474998Y-56315468D01*
X47475000Y-56315468D01*
X47475002Y-56315468D01*
X47531672Y-56310509D01*
X47701692Y-56295635D01*
X47921496Y-56236739D01*
X48127734Y-56140568D01*
X48314139Y-56010047D01*
X48475047Y-55849139D01*
X48605568Y-55662734D01*
X48632618Y-55604724D01*
X48678790Y-55552285D01*
X48745983Y-55533133D01*
X48812865Y-55553348D01*
X48857382Y-55604725D01*
X48884429Y-55662728D01*
X48884432Y-55662734D01*
X49014954Y-55849141D01*
X49175858Y-56010045D01*
X49175861Y-56010047D01*
X49362266Y-56140568D01*
X49568504Y-56236739D01*
X49788308Y-56295635D01*
X49950230Y-56309801D01*
X50014998Y-56315468D01*
X50015000Y-56315468D01*
X50015002Y-56315468D01*
X50071673Y-56310509D01*
X50241692Y-56295635D01*
X50461496Y-56236739D01*
X50667734Y-56140568D01*
X50854139Y-56010047D01*
X51015047Y-55849139D01*
X51145568Y-55662734D01*
X51241739Y-55456496D01*
X51300635Y-55236692D01*
X51320468Y-55010000D01*
X51320056Y-55005296D01*
X51300635Y-54783313D01*
X51300635Y-54783308D01*
X51241739Y-54563504D01*
X51145568Y-54357266D01*
X51015047Y-54170861D01*
X51015045Y-54170858D01*
X50854141Y-54009954D01*
X50667734Y-53879432D01*
X50667728Y-53879429D01*
X50627617Y-53860725D01*
X50609724Y-53852381D01*
X50557285Y-53806210D01*
X50538133Y-53739017D01*
X50558348Y-53672135D01*
X50609725Y-53627618D01*
X50618702Y-53623432D01*
X50667734Y-53600568D01*
X50854139Y-53470047D01*
X51015047Y-53309139D01*
X51145568Y-53122734D01*
X51241739Y-52916496D01*
X51300635Y-52696692D01*
X51320468Y-52470000D01*
X51300635Y-52243308D01*
X51241739Y-52023504D01*
X51145568Y-51817266D01*
X51015047Y-51630861D01*
X51015045Y-51630858D01*
X50854141Y-51469954D01*
X50667734Y-51339432D01*
X50667728Y-51339429D01*
X50618702Y-51316568D01*
X50609724Y-51312381D01*
X50557285Y-51266210D01*
X50538133Y-51199017D01*
X50558348Y-51132135D01*
X50609725Y-51087618D01*
X50667734Y-51060568D01*
X50854139Y-50930047D01*
X51015047Y-50769139D01*
X51145568Y-50582734D01*
X51241739Y-50376496D01*
X51300635Y-50156692D01*
X51320468Y-49930000D01*
X51300635Y-49703308D01*
X51241739Y-49483504D01*
X51145568Y-49277266D01*
X51039301Y-49125500D01*
X51015045Y-49090858D01*
X50854141Y-48929954D01*
X50667734Y-48799432D01*
X50667728Y-48799429D01*
X50618702Y-48776568D01*
X50609724Y-48772381D01*
X50557285Y-48726210D01*
X50538133Y-48659017D01*
X50558348Y-48592135D01*
X50609725Y-48547618D01*
X50667734Y-48520568D01*
X50854139Y-48390047D01*
X51015047Y-48229139D01*
X51145568Y-48042734D01*
X51241739Y-47836496D01*
X51300635Y-47616692D01*
X51320468Y-47390000D01*
X51300635Y-47163308D01*
X51241739Y-46943504D01*
X51145568Y-46737266D01*
X51015047Y-46550861D01*
X51015045Y-46550858D01*
X50854141Y-46389954D01*
X50667734Y-46259432D01*
X50667728Y-46259429D01*
X50618702Y-46236568D01*
X50609724Y-46232381D01*
X50557285Y-46186210D01*
X50538133Y-46119017D01*
X50558348Y-46052135D01*
X50609725Y-46007618D01*
X50667734Y-45980568D01*
X50854139Y-45850047D01*
X51015047Y-45689139D01*
X51145568Y-45502734D01*
X51241739Y-45296496D01*
X51300635Y-45076692D01*
X51320468Y-44850000D01*
X51300635Y-44623308D01*
X51241739Y-44403504D01*
X51145568Y-44197266D01*
X51015047Y-44010861D01*
X51015045Y-44010858D01*
X50854141Y-43849954D01*
X50667734Y-43719432D01*
X50667728Y-43719429D01*
X50609725Y-43692382D01*
X50557285Y-43646210D01*
X50538133Y-43579017D01*
X50558348Y-43512135D01*
X50609725Y-43467618D01*
X50667734Y-43440568D01*
X50854139Y-43310047D01*
X51015047Y-43149139D01*
X51145568Y-42962734D01*
X51241739Y-42756496D01*
X51300635Y-42536692D01*
X51320468Y-42310000D01*
X51300635Y-42083308D01*
X51241739Y-41863504D01*
X51145568Y-41657266D01*
X51015047Y-41470861D01*
X51015045Y-41470858D01*
X50854141Y-41309954D01*
X50667734Y-41179432D01*
X50667728Y-41179429D01*
X50618702Y-41156568D01*
X50609724Y-41152381D01*
X50557285Y-41106210D01*
X50538133Y-41039017D01*
X50558348Y-40972135D01*
X50609725Y-40927618D01*
X50667734Y-40900568D01*
X50854139Y-40770047D01*
X51015047Y-40609139D01*
X51145568Y-40422734D01*
X51241739Y-40216496D01*
X51300635Y-39996692D01*
X51320468Y-39770000D01*
X51300635Y-39543308D01*
X51241739Y-39323504D01*
X51145568Y-39117266D01*
X51023383Y-38942766D01*
X51015045Y-38930858D01*
X50854141Y-38769954D01*
X50667734Y-38639432D01*
X50667728Y-38639429D01*
X50609725Y-38612382D01*
X50557285Y-38566210D01*
X50538133Y-38499017D01*
X50558348Y-38432135D01*
X50609725Y-38387618D01*
X50667734Y-38360568D01*
X50854139Y-38230047D01*
X51015047Y-38069139D01*
X51145568Y-37882734D01*
X51241739Y-37676496D01*
X51300635Y-37456692D01*
X51320468Y-37230000D01*
X51300635Y-37003308D01*
X51241739Y-36783504D01*
X51145568Y-36577266D01*
X51015047Y-36390861D01*
X51015045Y-36390858D01*
X50854141Y-36229954D01*
X50667734Y-36099432D01*
X50667728Y-36099429D01*
X50618696Y-36076565D01*
X50609724Y-36072381D01*
X50557285Y-36026210D01*
X50538133Y-35959017D01*
X50558348Y-35892135D01*
X50609725Y-35847618D01*
X50667734Y-35820568D01*
X50854139Y-35690047D01*
X51015047Y-35529139D01*
X51145568Y-35342734D01*
X51241739Y-35136496D01*
X51300635Y-34916692D01*
X51320468Y-34690000D01*
X51300635Y-34463308D01*
X51241739Y-34243504D01*
X51145568Y-34037266D01*
X51015047Y-33850861D01*
X51015045Y-33850858D01*
X50854141Y-33689954D01*
X50667734Y-33559432D01*
X50667732Y-33559431D01*
X50461497Y-33463261D01*
X50461488Y-33463258D01*
X50241697Y-33404366D01*
X50241693Y-33404365D01*
X50241692Y-33404365D01*
X50241691Y-33404364D01*
X50241686Y-33404364D01*
X50015002Y-33384532D01*
X50014998Y-33384532D01*
X49835307Y-33400253D01*
X49766807Y-33386486D01*
X49716624Y-33337871D01*
X49700500Y-33276725D01*
X49700500Y-33192475D01*
X49720185Y-33125436D01*
X49772989Y-33079681D01*
X49842147Y-33069737D01*
X49852093Y-33071584D01*
X49856734Y-33072643D01*
X49856736Y-33072644D01*
X50074080Y-33122252D01*
X50296790Y-33132254D01*
X50517706Y-33102329D01*
X50729729Y-33033438D01*
X50926044Y-32927797D01*
X51100341Y-32788800D01*
X51247017Y-32620914D01*
X51361360Y-32429537D01*
X51439694Y-32220818D01*
X51473085Y-32036819D01*
X51479500Y-32001470D01*
X51479500Y-30381385D01*
X51479500Y-30381380D01*
X51464522Y-30214963D01*
X51405214Y-30000063D01*
X51308486Y-29799207D01*
X51177449Y-29618849D01*
X51016313Y-29464788D01*
X50830259Y-29341974D01*
X50625264Y-29254356D01*
X50625258Y-29254354D01*
X50625256Y-29254354D01*
X50510642Y-29228194D01*
X50407920Y-29204748D01*
X50363377Y-29202747D01*
X50185214Y-29194746D01*
X50185213Y-29194746D01*
X50185210Y-29194746D01*
X49964294Y-29224671D01*
X49964292Y-29224671D01*
X49964289Y-29224672D01*
X49862818Y-29257642D01*
X49792977Y-29259637D01*
X49733144Y-29223556D01*
X49702316Y-29160855D01*
X49700500Y-29139711D01*
X49700500Y-28027770D01*
X49720185Y-27960731D01*
X49772989Y-27914976D01*
X49842147Y-27905032D01*
X49852093Y-27906879D01*
X49991000Y-27938583D01*
X49991000Y-27138777D01*
X50074740Y-27187125D01*
X50206992Y-27217310D01*
X50342265Y-27207173D01*
X50468541Y-27157613D01*
X50491000Y-27139702D01*
X50491000Y-27941049D01*
X50520267Y-27937086D01*
X50520273Y-27937085D01*
X50734268Y-27867554D01*
X50932401Y-27760934D01*
X50932404Y-27760932D01*
X51108320Y-27620645D01*
X51256352Y-27451207D01*
X51256359Y-27451199D01*
X51371759Y-27258053D01*
X51371761Y-27258048D01*
X51450824Y-27047389D01*
X51450824Y-27047388D01*
X51491000Y-26826005D01*
X51491000Y-26813500D01*
X50691000Y-26813500D01*
X50691000Y-26329776D01*
X50688547Y-26313500D01*
X51487052Y-26313500D01*
X51487052Y-26313499D01*
X51475883Y-26189404D01*
X51475882Y-26189397D01*
X51416026Y-25972515D01*
X51416021Y-25972502D01*
X51318401Y-25769791D01*
X51318397Y-25769783D01*
X51186148Y-25587758D01*
X51186142Y-25587750D01*
X51023513Y-25432262D01*
X50835733Y-25308308D01*
X50628830Y-25219875D01*
X50628824Y-25219873D01*
X50490999Y-25188415D01*
X50490999Y-25988221D01*
X50407260Y-25939875D01*
X50275008Y-25909690D01*
X50139735Y-25919827D01*
X50013459Y-25969387D01*
X49991000Y-25987297D01*
X49991000Y-25185949D01*
X49990999Y-25185949D01*
X49961719Y-25189916D01*
X49862817Y-25222051D01*
X49792976Y-25224046D01*
X49733144Y-25187965D01*
X49702316Y-25125264D01*
X49700500Y-25104120D01*
X49700500Y-24972564D01*
X49720185Y-24905525D01*
X49772989Y-24859770D01*
X49842147Y-24849826D01*
X49869290Y-24856936D01*
X49911060Y-24873118D01*
X50129757Y-24914000D01*
X50129759Y-24914000D01*
X50352241Y-24914000D01*
X50352243Y-24914000D01*
X50570940Y-24873118D01*
X50778401Y-24792747D01*
X50967562Y-24675624D01*
X51131981Y-24525736D01*
X51266058Y-24348189D01*
X51365229Y-24149028D01*
X51426115Y-23935036D01*
X51441500Y-23769003D01*
X51441500Y-23357997D01*
X51426115Y-23191964D01*
X51365229Y-22977972D01*
X51362340Y-22972170D01*
X51266061Y-22778816D01*
X51266056Y-22778808D01*
X51131979Y-22601261D01*
X50967562Y-22451376D01*
X50967560Y-22451374D01*
X50778404Y-22334254D01*
X50778398Y-22334252D01*
X50570940Y-22253882D01*
X50352243Y-22213000D01*
X50129757Y-22213000D01*
X50064697Y-22225162D01*
X50027084Y-22232193D01*
X49957569Y-22225162D01*
X49902890Y-22181664D01*
X49880408Y-22115510D01*
X49880615Y-22101458D01*
X49890482Y-21963501D01*
X49890482Y-21963498D01*
X49886493Y-21907736D01*
X49870578Y-21685206D01*
X49811271Y-21412577D01*
X49713769Y-21151163D01*
X49580056Y-20906287D01*
X49580054Y-20906284D01*
X49412861Y-20682939D01*
X49412845Y-20682921D01*
X49215578Y-20485654D01*
X49215560Y-20485638D01*
X48992215Y-20318445D01*
X48992207Y-20318440D01*
X48747342Y-20184733D01*
X48747338Y-20184731D01*
X48648230Y-20147766D01*
X48485923Y-20087229D01*
X48485919Y-20087228D01*
X48485916Y-20087227D01*
X48213299Y-20027922D01*
X48004659Y-20013000D01*
X48004657Y-20013000D01*
X47865343Y-20013000D01*
X47865340Y-20013000D01*
X47656700Y-20027922D01*
X47384083Y-20087227D01*
X47384078Y-20087228D01*
X47384077Y-20087229D01*
X47320875Y-20110801D01*
X47122661Y-20184731D01*
X47122657Y-20184733D01*
X46877792Y-20318440D01*
X46877784Y-20318445D01*
X46654439Y-20485638D01*
X46654421Y-20485654D01*
X46457154Y-20682921D01*
X46457138Y-20682939D01*
X46289945Y-20906284D01*
X46289940Y-20906292D01*
X46156233Y-21151157D01*
X46156231Y-21151161D01*
X46058727Y-21412583D01*
X45999422Y-21685200D01*
X45979518Y-21963498D01*
X45979518Y-21963502D01*
X45987572Y-22076120D01*
X45972720Y-22144392D01*
X45923314Y-22193797D01*
X45855041Y-22208649D01*
X45841103Y-22206854D01*
X45805153Y-22200134D01*
X45740243Y-22188000D01*
X45517757Y-22188000D01*
X45299060Y-22228882D01*
X45234528Y-22253882D01*
X45091601Y-22309252D01*
X45091595Y-22309254D01*
X44902439Y-22426374D01*
X44902437Y-22426376D01*
X44738019Y-22576262D01*
X44738017Y-22576265D01*
X44629304Y-22720226D01*
X44573196Y-22761863D01*
X44530350Y-22769500D01*
X40673997Y-22769500D01*
X40606958Y-22749815D01*
X40581847Y-22728472D01*
X40542235Y-22684478D01*
X40542232Y-22684476D01*
X40542231Y-22684475D01*
X40542230Y-22684474D01*
X40397593Y-22579388D01*
X40234267Y-22506671D01*
X40234265Y-22506670D01*
X40106594Y-22479533D01*
X40059391Y-22469500D01*
X39880609Y-22469500D01*
X39849954Y-22476015D01*
X39705733Y-22506670D01*
X39705728Y-22506672D01*
X39542408Y-22579387D01*
X39397768Y-22684475D01*
X39278140Y-22817336D01*
X39188750Y-22972164D01*
X39188747Y-22972170D01*
X39133504Y-23142192D01*
X39133503Y-23142194D01*
X39114815Y-23319999D01*
X39133503Y-23497805D01*
X39133504Y-23497807D01*
X39188747Y-23667829D01*
X39188750Y-23667835D01*
X39278141Y-23822665D01*
X39315419Y-23864066D01*
X39397764Y-23955521D01*
X39397767Y-23955523D01*
X39397770Y-23955526D01*
X39542407Y-24060612D01*
X39705733Y-24133329D01*
X39880609Y-24170500D01*
X39880610Y-24170500D01*
X40059389Y-24170500D01*
X40059391Y-24170500D01*
X40234267Y-24133329D01*
X40397593Y-24060612D01*
X40542230Y-23955526D01*
X40542235Y-23955521D01*
X40581847Y-23911528D01*
X40641334Y-23874879D01*
X40673997Y-23870500D01*
X41153927Y-23870500D01*
X41220966Y-23890185D01*
X41266721Y-23942989D01*
X41276665Y-24012147D01*
X41266309Y-24046905D01*
X41253453Y-24074472D01*
X41253450Y-24074481D01*
X41193367Y-24298718D01*
X41193365Y-24298729D01*
X41173132Y-24529998D01*
X41173132Y-24530001D01*
X41193365Y-24761270D01*
X41193367Y-24761281D01*
X41253450Y-24985518D01*
X41253452Y-24985522D01*
X41253453Y-24985526D01*
X41297740Y-25080500D01*
X41351567Y-25195933D01*
X41446358Y-25331308D01*
X41484730Y-25386108D01*
X41648892Y-25550270D01*
X41679578Y-25571757D01*
X41679580Y-25571758D01*
X41723205Y-25626335D01*
X41730399Y-25695833D01*
X41698876Y-25758188D01*
X41664752Y-25783818D01*
X41553080Y-25840717D01*
X41399823Y-25964821D01*
X41399821Y-25964823D01*
X41275716Y-26118081D01*
X41275716Y-26118082D01*
X41186186Y-26293796D01*
X41135145Y-26484284D01*
X41135145Y-26484285D01*
X41128700Y-26566180D01*
X41128700Y-26820000D01*
X42014287Y-26820000D01*
X41965296Y-26957848D01*
X41955051Y-27107618D01*
X41985594Y-27254597D01*
X42019483Y-27320000D01*
X41128700Y-27320000D01*
X41128700Y-27573819D01*
X41135150Y-27655771D01*
X41120786Y-27724149D01*
X41071734Y-27773905D01*
X41011532Y-27789500D01*
X37263997Y-27789500D01*
X37196958Y-27769815D01*
X37171847Y-27748472D01*
X37132235Y-27704478D01*
X37132232Y-27704476D01*
X37132231Y-27704475D01*
X37132230Y-27704474D01*
X36987593Y-27599388D01*
X36824267Y-27526671D01*
X36824265Y-27526670D01*
X36687489Y-27497598D01*
X36649391Y-27489500D01*
X36649390Y-27489500D01*
X36539387Y-27489500D01*
X36472348Y-27469815D01*
X36451706Y-27453181D01*
X34799502Y-25800977D01*
X33146627Y-24148102D01*
X33145212Y-24146638D01*
X33100680Y-24098956D01*
X33088264Y-24091405D01*
X33062861Y-24075957D01*
X33057610Y-24072383D01*
X33022341Y-24045638D01*
X33022342Y-24045638D01*
X33005642Y-24039052D01*
X32986716Y-24029652D01*
X32971380Y-24020327D01*
X32928758Y-24008384D01*
X32922740Y-24006360D01*
X32881565Y-23990124D01*
X32881556Y-23990122D01*
X32863716Y-23988288D01*
X32842951Y-23984342D01*
X32825669Y-23979500D01*
X32825665Y-23979500D01*
X32781406Y-23979500D01*
X32775064Y-23979175D01*
X32747427Y-23976333D01*
X32731029Y-23974648D01*
X32731024Y-23974648D01*
X32713344Y-23977697D01*
X32692276Y-23979500D01*
X28551257Y-23979500D01*
X28484218Y-23959815D01*
X28438875Y-23907905D01*
X28418433Y-23864068D01*
X28389442Y-23822665D01*
X28285270Y-23673892D01*
X28121108Y-23509730D01*
X27930934Y-23376568D01*
X27930935Y-23376568D01*
X27930933Y-23376567D01*
X27809624Y-23320000D01*
X27720526Y-23278453D01*
X27720522Y-23278452D01*
X27720518Y-23278450D01*
X27496281Y-23218367D01*
X27496277Y-23218366D01*
X27496276Y-23218366D01*
X27496275Y-23218365D01*
X27496270Y-23218365D01*
X27265002Y-23198132D01*
X27264998Y-23198132D01*
X27033729Y-23218365D01*
X27033718Y-23218367D01*
X26809481Y-23278450D01*
X26809472Y-23278454D01*
X26599066Y-23376567D01*
X26408891Y-23509730D01*
X26244730Y-23673891D01*
X26111567Y-23864066D01*
X26013454Y-24074472D01*
X26013450Y-24074481D01*
X25953367Y-24298718D01*
X25953365Y-24298729D01*
X25933132Y-24529998D01*
X25933132Y-24530001D01*
X25953365Y-24761270D01*
X25953367Y-24761281D01*
X26013450Y-24985518D01*
X26013452Y-24985522D01*
X26013453Y-24985526D01*
X26057740Y-25080500D01*
X26111567Y-25195933D01*
X26206358Y-25331308D01*
X26244730Y-25386108D01*
X26408892Y-25550270D01*
X26599066Y-25683432D01*
X26608039Y-25687616D01*
X26660479Y-25733785D01*
X26679634Y-25800977D01*
X26659421Y-25867859D01*
X26608051Y-25912377D01*
X26599072Y-25916564D01*
X26599067Y-25916567D01*
X26408891Y-26049730D01*
X26244730Y-26213891D01*
X26111567Y-26404066D01*
X26013454Y-26614472D01*
X26013450Y-26614481D01*
X25953367Y-26838718D01*
X25953365Y-26838729D01*
X25933132Y-27069998D01*
X25933132Y-27070001D01*
X25953365Y-27301270D01*
X25953367Y-27301281D01*
X26013450Y-27525518D01*
X26013455Y-27525532D01*
X26052373Y-27608992D01*
X26062865Y-27678069D01*
X26034345Y-27741853D01*
X26003109Y-27768130D01*
X25980368Y-27781578D01*
X25962905Y-27790133D01*
X25944274Y-27797510D01*
X25944262Y-27797517D01*
X25906570Y-27824902D01*
X25901687Y-27828109D01*
X25861580Y-27851829D01*
X25847414Y-27865995D01*
X25832624Y-27878627D01*
X25816414Y-27890404D01*
X25816411Y-27890407D01*
X25786710Y-27926309D01*
X25782777Y-27930631D01*
X24523532Y-29189875D01*
X24462209Y-29223360D01*
X24408258Y-29223085D01*
X24327920Y-29204748D01*
X24283377Y-29202747D01*
X24105214Y-29194746D01*
X24105213Y-29194746D01*
X24105210Y-29194746D01*
X23884294Y-29224671D01*
X23884291Y-29224671D01*
X23884290Y-29224672D01*
X23672271Y-29293561D01*
X23475954Y-29399204D01*
X23301659Y-29538199D01*
X23154983Y-29706085D01*
X23154982Y-29706087D01*
X23040643Y-29897456D01*
X23040641Y-29897461D01*
X22962305Y-30106182D01*
X22962305Y-30106183D01*
X22922500Y-30325529D01*
X22922500Y-31945616D01*
X22937477Y-32112033D01*
X22996785Y-32326935D01*
X23093511Y-32527788D01*
X23093512Y-32527790D01*
X23093514Y-32527793D01*
X23224551Y-32708151D01*
X23385687Y-32862212D01*
X23571741Y-32985026D01*
X23776736Y-33072644D01*
X23994080Y-33122252D01*
X24216790Y-33132254D01*
X24437706Y-33102329D01*
X24649729Y-33033438D01*
X24846044Y-32927797D01*
X25020341Y-32788800D01*
X25167017Y-32620914D01*
X25281360Y-32429537D01*
X25359694Y-32220818D01*
X25393085Y-32036819D01*
X25399500Y-32001470D01*
X25399500Y-30381385D01*
X25399500Y-30381380D01*
X25384522Y-30214963D01*
X25384521Y-30214961D01*
X25384521Y-30214957D01*
X25378450Y-30192962D01*
X25379588Y-30123101D01*
X25410297Y-30072291D01*
X25677019Y-29805569D01*
X25738342Y-29772085D01*
X25808034Y-29777069D01*
X25863967Y-29818941D01*
X25888384Y-29884405D01*
X25888700Y-29893251D01*
X25888700Y-30113819D01*
X25895145Y-30195714D01*
X25895145Y-30195715D01*
X25946186Y-30386203D01*
X26035716Y-30561917D01*
X26035716Y-30561918D01*
X26159820Y-30715175D01*
X26244360Y-30783634D01*
X26284071Y-30841121D01*
X26286399Y-30910952D01*
X26250604Y-30970956D01*
X26244360Y-30976366D01*
X26159820Y-31044824D01*
X26035716Y-31198081D01*
X26035716Y-31198082D01*
X25946186Y-31373796D01*
X25895145Y-31564284D01*
X25895145Y-31564285D01*
X25888700Y-31646180D01*
X25888700Y-31900000D01*
X26774287Y-31900000D01*
X26725296Y-32037848D01*
X26715051Y-32187618D01*
X26745594Y-32334597D01*
X26779483Y-32400000D01*
X25888700Y-32400000D01*
X25888700Y-32653819D01*
X25895145Y-32735714D01*
X25895145Y-32735715D01*
X25946186Y-32926203D01*
X26035716Y-33101917D01*
X26035716Y-33101918D01*
X26159821Y-33255176D01*
X26159823Y-33255178D01*
X26313081Y-33379283D01*
X26424751Y-33436181D01*
X26475547Y-33484155D01*
X26492343Y-33551976D01*
X26469806Y-33618111D01*
X26439582Y-33648240D01*
X26408894Y-33669728D01*
X26408888Y-33669733D01*
X26244730Y-33833891D01*
X26111567Y-34024066D01*
X26013454Y-34234472D01*
X26013450Y-34234481D01*
X25953367Y-34458718D01*
X25953365Y-34458729D01*
X25933132Y-34689998D01*
X25933132Y-34690001D01*
X25953365Y-34921270D01*
X25953367Y-34921281D01*
X26013450Y-35145518D01*
X26013452Y-35145522D01*
X26013453Y-35145526D01*
X26054405Y-35233348D01*
X26111567Y-35355933D01*
X26244730Y-35546108D01*
X26408892Y-35710270D01*
X26599066Y-35843432D01*
X26602719Y-35845135D01*
X26608044Y-35847619D01*
X26660483Y-35893792D01*
X26679634Y-35960986D01*
X26659417Y-36027866D01*
X26608044Y-36072381D01*
X26599071Y-36076565D01*
X26599067Y-36076567D01*
X26408891Y-36209730D01*
X26244730Y-36373891D01*
X26111567Y-36564066D01*
X26013454Y-36774472D01*
X26013450Y-36774481D01*
X25953367Y-36998718D01*
X25953365Y-36998728D01*
X25933813Y-37222206D01*
X25908360Y-37287274D01*
X25851769Y-37328253D01*
X25782007Y-37332131D01*
X25722604Y-37299079D01*
X23611998Y-35188473D01*
X23578513Y-35127150D01*
X23579903Y-35068703D01*
X23620635Y-34916692D01*
X23640468Y-34690000D01*
X23620635Y-34463308D01*
X23561739Y-34243504D01*
X23465568Y-34037266D01*
X23335047Y-33850861D01*
X23335045Y-33850858D01*
X23174141Y-33689954D01*
X22987734Y-33559432D01*
X22987732Y-33559431D01*
X22781497Y-33463261D01*
X22781488Y-33463258D01*
X22561697Y-33404366D01*
X22561693Y-33404365D01*
X22561692Y-33404365D01*
X22561691Y-33404364D01*
X22561686Y-33404364D01*
X22335002Y-33384532D01*
X22334998Y-33384532D01*
X22108313Y-33404364D01*
X22108302Y-33404366D01*
X21888511Y-33463258D01*
X21888502Y-33463261D01*
X21682267Y-33559431D01*
X21682265Y-33559432D01*
X21495861Y-33689952D01*
X21467180Y-33718633D01*
X21405856Y-33752117D01*
X21336165Y-33747131D01*
X21280232Y-33705259D01*
X21255816Y-33639794D01*
X21255500Y-33630950D01*
X21255500Y-29579435D01*
X21275185Y-29512396D01*
X21327989Y-29466641D01*
X21397147Y-29456697D01*
X21460703Y-29485722D01*
X21464387Y-29489046D01*
X21469604Y-29493946D01*
X21469611Y-29493951D01*
X21613628Y-29573125D01*
X21613632Y-29573127D01*
X21772823Y-29614000D01*
X21772827Y-29614000D01*
X21895923Y-29614000D01*
X21895925Y-29614000D01*
X21895930Y-29613999D01*
X21895934Y-29613999D01*
X21909174Y-29612326D01*
X22018058Y-29598571D01*
X22170871Y-29538068D01*
X22216796Y-29504702D01*
X22303835Y-29441465D01*
X22303835Y-29441463D01*
X22303837Y-29441463D01*
X22408600Y-29314826D01*
X22478579Y-29166113D01*
X22509376Y-29004670D01*
X22499056Y-28840640D01*
X22448268Y-28684329D01*
X22360202Y-28545560D01*
X22314152Y-28502316D01*
X22240396Y-28433054D01*
X22240388Y-28433048D01*
X22096371Y-28353874D01*
X22096361Y-28353871D01*
X21937180Y-28313000D01*
X21937177Y-28313000D01*
X21814075Y-28313000D01*
X21814065Y-28313000D01*
X21691942Y-28328429D01*
X21691939Y-28328429D01*
X21539130Y-28388931D01*
X21539121Y-28388936D01*
X21452385Y-28451954D01*
X21386579Y-28475434D01*
X21318525Y-28459608D01*
X21269830Y-28409502D01*
X21255500Y-28351636D01*
X21255500Y-26313500D01*
X22911000Y-26313500D01*
X23711000Y-26313500D01*
X23711000Y-26797224D01*
X23713453Y-26813500D01*
X22914948Y-26813500D01*
X22926116Y-26937595D01*
X22926117Y-26937602D01*
X22985973Y-27154484D01*
X22985978Y-27154497D01*
X23083598Y-27357208D01*
X23083602Y-27357216D01*
X23215851Y-27539241D01*
X23215857Y-27539249D01*
X23378486Y-27694737D01*
X23566266Y-27818691D01*
X23773169Y-27907124D01*
X23773178Y-27907127D01*
X23910999Y-27938584D01*
X23911000Y-27938584D01*
X23910999Y-27138777D01*
X23994740Y-27187125D01*
X24126992Y-27217310D01*
X24262265Y-27207173D01*
X24388541Y-27157613D01*
X24411000Y-27139702D01*
X24411000Y-27941050D01*
X24440267Y-27937086D01*
X24440273Y-27937085D01*
X24654268Y-27867554D01*
X24852401Y-27760934D01*
X24852404Y-27760932D01*
X25028320Y-27620645D01*
X25176352Y-27451207D01*
X25176359Y-27451199D01*
X25291759Y-27258053D01*
X25291761Y-27258048D01*
X25370824Y-27047389D01*
X25370824Y-27047388D01*
X25411000Y-26826005D01*
X25411000Y-26813500D01*
X24611000Y-26813500D01*
X24611000Y-26329776D01*
X24608547Y-26313500D01*
X25407052Y-26313500D01*
X25407052Y-26313499D01*
X25395883Y-26189404D01*
X25395882Y-26189397D01*
X25336026Y-25972515D01*
X25336021Y-25972502D01*
X25238401Y-25769791D01*
X25238397Y-25769783D01*
X25106148Y-25587758D01*
X25106142Y-25587750D01*
X24943513Y-25432262D01*
X24755733Y-25308308D01*
X24548830Y-25219875D01*
X24548823Y-25219873D01*
X24411000Y-25188415D01*
X24411000Y-25988222D01*
X24327260Y-25939875D01*
X24195008Y-25909690D01*
X24059735Y-25919827D01*
X23933459Y-25969387D01*
X23911000Y-25987297D01*
X23911000Y-25185949D01*
X23910999Y-25185949D01*
X23881721Y-25189915D01*
X23667731Y-25259445D01*
X23469598Y-25366065D01*
X23469595Y-25366067D01*
X23293679Y-25506354D01*
X23145647Y-25675792D01*
X23145640Y-25675800D01*
X23030240Y-25868946D01*
X23030238Y-25868951D01*
X22951175Y-26079610D01*
X22951175Y-26079611D01*
X22911000Y-26300994D01*
X22911000Y-26313500D01*
X21255500Y-26313500D01*
X21255500Y-24704963D01*
X21255536Y-24702846D01*
X21255935Y-24691156D01*
X21257762Y-24637674D01*
X21247283Y-24594674D01*
X21246096Y-24588431D01*
X21244777Y-24578835D01*
X21240070Y-24544580D01*
X21232921Y-24528122D01*
X21226180Y-24508078D01*
X21221933Y-24490648D01*
X21200238Y-24452064D01*
X21197414Y-24446378D01*
X21191654Y-24433118D01*
X21179780Y-24405780D01*
X21179780Y-24405779D01*
X21168458Y-24391863D01*
X21156557Y-24374376D01*
X21147768Y-24358744D01*
X21147767Y-24358743D01*
X21147766Y-24358741D01*
X21116456Y-24327431D01*
X21112210Y-24322725D01*
X21104812Y-24313632D01*
X21084278Y-24288392D01*
X21069612Y-24278039D01*
X21053445Y-24264420D01*
X20772303Y-23983278D01*
X20738818Y-23921955D01*
X20736513Y-23884156D01*
X20737778Y-23870500D01*
X20746373Y-23777741D01*
X20772159Y-23712806D01*
X20828959Y-23672118D01*
X20898740Y-23668598D01*
X20929271Y-23680352D01*
X21042657Y-23742266D01*
X21042661Y-23742268D01*
X21042663Y-23742269D01*
X21304077Y-23839771D01*
X21415759Y-23864066D01*
X21576700Y-23899077D01*
X21576702Y-23899077D01*
X21576706Y-23899078D01*
X21785343Y-23914000D01*
X21924657Y-23914000D01*
X22133294Y-23899078D01*
X22405923Y-23839771D01*
X22667337Y-23742269D01*
X22778525Y-23681555D01*
X22846795Y-23666704D01*
X22912260Y-23691120D01*
X22954131Y-23747053D01*
X22961421Y-23778947D01*
X22975884Y-23935035D01*
X22975885Y-23935037D01*
X23036769Y-24149023D01*
X23036775Y-24149038D01*
X23135938Y-24348183D01*
X23135943Y-24348191D01*
X23270020Y-24525738D01*
X23434437Y-24675623D01*
X23434439Y-24675625D01*
X23623595Y-24792745D01*
X23623596Y-24792745D01*
X23623599Y-24792747D01*
X23831060Y-24873118D01*
X24049757Y-24914000D01*
X24049759Y-24914000D01*
X24272241Y-24914000D01*
X24272243Y-24914000D01*
X24490940Y-24873118D01*
X24698401Y-24792747D01*
X24887562Y-24675624D01*
X25051981Y-24525736D01*
X25186058Y-24348189D01*
X25285229Y-24149028D01*
X25346115Y-23935036D01*
X25361500Y-23769003D01*
X25361500Y-23357997D01*
X25346115Y-23191964D01*
X25285229Y-22977972D01*
X25282340Y-22972170D01*
X25186061Y-22778816D01*
X25186056Y-22778808D01*
X25051979Y-22601261D01*
X24887562Y-22451376D01*
X24887560Y-22451374D01*
X24698404Y-22334254D01*
X24698398Y-22334252D01*
X24490940Y-22253882D01*
X24272243Y-22213000D01*
X24049757Y-22213000D01*
X23984697Y-22225162D01*
X23947084Y-22232193D01*
X23877569Y-22225162D01*
X23822890Y-22181664D01*
X23800408Y-22115510D01*
X23800615Y-22101458D01*
X23810482Y-21963501D01*
X23810482Y-21963498D01*
X23806493Y-21907736D01*
X23790578Y-21685206D01*
X23731271Y-21412577D01*
X23633769Y-21151163D01*
X23500056Y-20906287D01*
X23500054Y-20906284D01*
X23332861Y-20682939D01*
X23332845Y-20682921D01*
X23135578Y-20485654D01*
X23135560Y-20485638D01*
X22912215Y-20318445D01*
X22912207Y-20318440D01*
X22667342Y-20184733D01*
X22667338Y-20184731D01*
X22568230Y-20147766D01*
X22405923Y-20087229D01*
X22405919Y-20087228D01*
X22405916Y-20087227D01*
X22133299Y-20027922D01*
X21924659Y-20013000D01*
X21924657Y-20013000D01*
X21785343Y-20013000D01*
X21785340Y-20013000D01*
X21576700Y-20027922D01*
X21304083Y-20087227D01*
X21304078Y-20087228D01*
X21304077Y-20087229D01*
X21240875Y-20110801D01*
X21042661Y-20184731D01*
X21042657Y-20184733D01*
X20797792Y-20318440D01*
X20797784Y-20318445D01*
X20574439Y-20485638D01*
X20574421Y-20485654D01*
X20377154Y-20682921D01*
X20377138Y-20682939D01*
X20209945Y-20906284D01*
X20209940Y-20906292D01*
X20076233Y-21151157D01*
X20076231Y-21151161D01*
X19978727Y-21412583D01*
X19919422Y-21685200D01*
X19899518Y-21963498D01*
X19899518Y-21963502D01*
X19907572Y-22076120D01*
X19892720Y-22144392D01*
X19843314Y-22193797D01*
X19775041Y-22208649D01*
X19761103Y-22206854D01*
X19725153Y-22200134D01*
X19660243Y-22188000D01*
X19437757Y-22188000D01*
X19219060Y-22228882D01*
X19154528Y-22253882D01*
X19011601Y-22309252D01*
X19011595Y-22309254D01*
X18822439Y-22426374D01*
X18822437Y-22426376D01*
X18658020Y-22576261D01*
X18523943Y-22753808D01*
X18523938Y-22753816D01*
X18424775Y-22952961D01*
X18424769Y-22952976D01*
X18363885Y-23166962D01*
X18363884Y-23166964D01*
X18353554Y-23278450D01*
X18348500Y-23332997D01*
X18348500Y-23744003D01*
X18351738Y-23778947D01*
X18363884Y-23910035D01*
X18363885Y-23910037D01*
X18424769Y-24124023D01*
X18424775Y-24124038D01*
X18523938Y-24323183D01*
X18523943Y-24323191D01*
X18658020Y-24500738D01*
X18822437Y-24650623D01*
X18822439Y-24650625D01*
X19011595Y-24767745D01*
X19011596Y-24767745D01*
X19011599Y-24767747D01*
X19219060Y-24848118D01*
X19437757Y-24889000D01*
X19437759Y-24889000D01*
X19660241Y-24889000D01*
X19660243Y-24889000D01*
X19878940Y-24848118D01*
X19948582Y-24821137D01*
X20018206Y-24815275D01*
X20079946Y-24847984D01*
X20081057Y-24849082D01*
X20118181Y-24886206D01*
X20151666Y-24947526D01*
X20154500Y-24973886D01*
X20154500Y-25148058D01*
X20134815Y-25215097D01*
X20082011Y-25260852D01*
X20012853Y-25270796D01*
X19981767Y-25262080D01*
X19936839Y-25242878D01*
X19936823Y-25242873D01*
X19799000Y-25211415D01*
X19799000Y-26011222D01*
X19715260Y-25962875D01*
X19583008Y-25932690D01*
X19447735Y-25942827D01*
X19321459Y-25992387D01*
X19299000Y-26010297D01*
X19299000Y-25208949D01*
X19298999Y-25208949D01*
X19269721Y-25212915D01*
X19055731Y-25282445D01*
X18857598Y-25389065D01*
X18857595Y-25389067D01*
X18681679Y-25529354D01*
X18533647Y-25698792D01*
X18533640Y-25698800D01*
X18418240Y-25891946D01*
X18418238Y-25891951D01*
X18339175Y-26102610D01*
X18339175Y-26102611D01*
X18299000Y-26323994D01*
X18299000Y-26336500D01*
X17853500Y-26336500D01*
X17853500Y-18728544D01*
X17853797Y-18722479D01*
X17856978Y-18690182D01*
X17869420Y-18579765D01*
X17873978Y-18557666D01*
X17873979Y-18557664D01*
X17889753Y-18505661D01*
X17890543Y-18503245D01*
X17917797Y-18425357D01*
X17925462Y-18407901D01*
X17953983Y-18354541D01*
X17956107Y-18350882D01*
X17999873Y-18281228D01*
X18004426Y-18274906D01*
X18046849Y-18223213D01*
X18050890Y-18218754D01*
X18108253Y-18161391D01*
X18112713Y-18157349D01*
X18164406Y-18114926D01*
X18170728Y-18110373D01*
X18240382Y-18066607D01*
X18244041Y-18064483D01*
X18297401Y-18035962D01*
X18314857Y-18028297D01*
X18392745Y-18001043D01*
X18395147Y-18000258D01*
X18447174Y-17984475D01*
X18469265Y-17979920D01*
X18579702Y-17967476D01*
X18611979Y-17964297D01*
X18618047Y-17964000D01*
X25977228Y-17964000D01*
X26038281Y-17980072D01*
G37*
G04 #@! TD.AperFunction*
M02*
