G04 #@! TF.GenerationSoftware,KiCad,Pcbnew,7.0.5*
G04 #@! TF.CreationDate,2023-08-28T16:21:15+08:00*
G04 #@! TF.ProjectId,handwire microboard,68616e64-7769-4726-9520-6d6963726f62,rev?*
G04 #@! TF.SameCoordinates,Original*
G04 #@! TF.FileFunction,Copper,L1,Top*
G04 #@! TF.FilePolarity,Positive*
%FSLAX46Y46*%
G04 Gerber Fmt 4.6, Leading zero omitted, Abs format (unit mm)*
G04 Created by KiCad (PCBNEW 7.0.5) date 2023-08-28 16:21:15*
%MOMM*%
%LPD*%
G01*
G04 APERTURE LIST*
G04 Aperture macros list*
%AMRoundRect*
0 Rectangle with rounded corners*
0 $1 Rounding radius*
0 $2 $3 $4 $5 $6 $7 $8 $9 X,Y pos of 4 corners*
0 Add a 4 corners polygon primitive as box body*
4,1,4,$2,$3,$4,$5,$6,$7,$8,$9,$2,$3,0*
0 Add four circle primitives for the rounded corners*
1,1,$1+$1,$2,$3*
1,1,$1+$1,$4,$5*
1,1,$1+$1,$6,$7*
1,1,$1+$1,$8,$9*
0 Add four rect primitives between the rounded corners*
20,1,$1+$1,$2,$3,$4,$5,0*
20,1,$1+$1,$4,$5,$6,$7,0*
20,1,$1+$1,$6,$7,$8,$9,0*
20,1,$1+$1,$8,$9,$2,$3,0*%
G04 Aperture macros list end*
G04 #@! TA.AperFunction,ComponentPad*
%ADD10O,1.900000X1.500000*%
G04 #@! TD*
G04 #@! TA.AperFunction,ComponentPad*
%ADD11O,1.800000X1.500000*%
G04 #@! TD*
G04 #@! TA.AperFunction,ComponentPad*
%ADD12C,1.800000*%
G04 #@! TD*
G04 #@! TA.AperFunction,ComponentPad*
%ADD13C,1.752600*%
G04 #@! TD*
G04 #@! TA.AperFunction,ComponentPad*
%ADD14RoundRect,0.438150X-0.438150X0.438150X-0.438150X-0.438150X0.438150X-0.438150X0.438150X0.438150X0*%
G04 #@! TD*
G04 #@! TA.AperFunction,ComponentPad*
%ADD15R,1.752600X1.752600*%
G04 #@! TD*
G04 #@! TA.AperFunction,ComponentPad*
%ADD16O,1.500000X1.900000*%
G04 #@! TD*
G04 #@! TA.AperFunction,ComponentPad*
%ADD17O,1.500000X1.800000*%
G04 #@! TD*
G04 #@! TA.AperFunction,ComponentPad*
%ADD18O,1.700000X1.700000*%
G04 #@! TD*
G04 #@! TA.AperFunction,ComponentPad*
%ADD19C,1.700000*%
G04 #@! TD*
G04 #@! TA.AperFunction,ViaPad*
%ADD20C,0.800000*%
G04 #@! TD*
G04 #@! TA.AperFunction,Conductor*
%ADD21C,0.250000*%
G04 #@! TD*
G04 #@! TA.AperFunction,Conductor*
%ADD22C,0.350000*%
G04 #@! TD*
G04 APERTURE END LIST*
D10*
X30455000Y-58970000D03*
D11*
X24155000Y-58970000D03*
D10*
X26455000Y-58970000D03*
X31555000Y-63570000D03*
D12*
X34900000Y-63590000D03*
X34900000Y-57090000D03*
D13*
X27265000Y-24530000D03*
X27265000Y-27070000D03*
D14*
X27265000Y-29610000D03*
X27265000Y-32150000D03*
D13*
X27265000Y-34690000D03*
X27265000Y-37230000D03*
X27265000Y-39770000D03*
X27265000Y-42310000D03*
X27265000Y-44850000D03*
X27265000Y-47390000D03*
X27265000Y-49930000D03*
X27265000Y-52470000D03*
X42505000Y-52470000D03*
X42505000Y-49930000D03*
X42505000Y-47390000D03*
X42505000Y-44850000D03*
X42505000Y-42310000D03*
X42505000Y-39770000D03*
X42505000Y-37230000D03*
X42505000Y-34690000D03*
D15*
X42505000Y-32150000D03*
D13*
X42505000Y-29610000D03*
D14*
X42505000Y-27070000D03*
D13*
X42505000Y-24530000D03*
D10*
X39335000Y-63570000D03*
D11*
X45635000Y-63570000D03*
D10*
X43335000Y-63570000D03*
X38235000Y-58970000D03*
D16*
X24155000Y-30563500D03*
D17*
X24155000Y-24263500D03*
D16*
X24155000Y-26563500D03*
X19555000Y-31663500D03*
D18*
X50015000Y-34690000D03*
X50015000Y-37230000D03*
X50015000Y-39770000D03*
X50015000Y-42310000D03*
X50015000Y-44850000D03*
X50015000Y-47390000D03*
X50015000Y-49930000D03*
X50015000Y-52470000D03*
X50015000Y-55010000D03*
D19*
X47475000Y-34690000D03*
D18*
X47475000Y-37230000D03*
X47475000Y-39770000D03*
X47475000Y-42310000D03*
X47475000Y-44850000D03*
X47475000Y-47390000D03*
X47475000Y-49930000D03*
X47475000Y-52470000D03*
X47475000Y-55010000D03*
D16*
X50235000Y-30563500D03*
D17*
X50235000Y-24263500D03*
D16*
X50235000Y-26563500D03*
X45635000Y-31663500D03*
D18*
X19795000Y-34690000D03*
X19795000Y-37230000D03*
X19795000Y-39770000D03*
X19795000Y-42310000D03*
X19795000Y-44850000D03*
X19795000Y-47390000D03*
X19795000Y-49930000D03*
X19795000Y-52470000D03*
X19795000Y-55010000D03*
D19*
X22335000Y-34690000D03*
D18*
X22335000Y-37230000D03*
X22335000Y-39770000D03*
X22335000Y-42310000D03*
X22335000Y-44850000D03*
X22335000Y-47390000D03*
X22335000Y-49930000D03*
X22335000Y-52470000D03*
X22335000Y-55010000D03*
D20*
X21070000Y-28090000D03*
X24700000Y-55184500D03*
X23941000Y-34060000D03*
X20345500Y-29083434D03*
X38365000Y-32640000D03*
X25520000Y-55970000D03*
X24715500Y-35180000D03*
D21*
X25995000Y-53740000D02*
X27265000Y-52470000D01*
X19795000Y-55010000D02*
X21065000Y-53740000D01*
X21065000Y-53740000D02*
X25995000Y-53740000D01*
X19795000Y-52470000D02*
X21065000Y-51200000D01*
X21065000Y-51200000D02*
X25995000Y-51200000D01*
X25995000Y-51200000D02*
X27265000Y-49930000D01*
X19795000Y-49930000D02*
X21055000Y-48670000D01*
X21055000Y-48670000D02*
X25985000Y-48670000D01*
X25985000Y-48670000D02*
X27265000Y-47390000D01*
X19795000Y-47390000D02*
X21075000Y-46110000D01*
X26005000Y-46110000D02*
X27265000Y-44850000D01*
X21075000Y-46110000D02*
X26005000Y-46110000D01*
X21075000Y-43570000D02*
X26005000Y-43570000D01*
X19795000Y-44850000D02*
X21075000Y-43570000D01*
X26005000Y-43570000D02*
X27265000Y-42310000D01*
X19795000Y-42310000D02*
X21065000Y-41040000D01*
X21065000Y-41040000D02*
X25995000Y-41040000D01*
X25995000Y-41040000D02*
X27265000Y-39770000D01*
X19795000Y-39770000D02*
X21065000Y-38500000D01*
X25995000Y-38500000D02*
X27265000Y-37230000D01*
X21065000Y-38500000D02*
X25995000Y-38500000D01*
X26050000Y-25745000D02*
X27265000Y-24530000D01*
X22980000Y-28800000D02*
X24898604Y-28800000D01*
X26050000Y-27648604D02*
X26050000Y-25745000D01*
X21070000Y-28090000D02*
X22270000Y-28090000D01*
X24898604Y-28800000D02*
X26050000Y-27648604D01*
X22270000Y-28090000D02*
X22980000Y-28800000D01*
X21065000Y-35960000D02*
X25995000Y-35960000D01*
X25995000Y-35960000D02*
X27265000Y-34690000D01*
X19795000Y-37230000D02*
X21065000Y-35960000D01*
X45045000Y-37230000D02*
X42505000Y-34690000D01*
X25566105Y-37230000D02*
X26846105Y-35950000D01*
X47475000Y-37230000D02*
X45045000Y-37230000D01*
X22335000Y-37230000D02*
X25566105Y-37230000D01*
X41245000Y-35950000D02*
X42505000Y-34690000D01*
X26846105Y-35950000D02*
X41245000Y-35950000D01*
X26641396Y-38490000D02*
X25361396Y-39770000D01*
X41245000Y-38490000D02*
X26641396Y-38490000D01*
X25361396Y-39770000D02*
X22335000Y-39770000D01*
X45045000Y-39770000D02*
X42505000Y-37230000D01*
X42505000Y-37230000D02*
X41245000Y-38490000D01*
X47475000Y-39770000D02*
X45045000Y-39770000D01*
X22885000Y-54460000D02*
X40515000Y-54460000D01*
X22335000Y-55010000D02*
X22885000Y-54460000D01*
X45045000Y-55010000D02*
X42505000Y-52470000D01*
X40515000Y-54460000D02*
X42505000Y-52470000D01*
X47475000Y-55010000D02*
X45045000Y-55010000D01*
X25566105Y-52470000D02*
X26826105Y-51210000D01*
X41225000Y-51210000D02*
X42505000Y-49930000D01*
X45045000Y-52470000D02*
X47475000Y-52470000D01*
X22335000Y-52470000D02*
X25566105Y-52470000D01*
X26826105Y-51210000D02*
X41225000Y-51210000D01*
X42505000Y-49930000D02*
X45045000Y-52470000D01*
X45045000Y-49930000D02*
X42505000Y-47390000D01*
X25375000Y-49930000D02*
X22335000Y-49930000D01*
X47475000Y-49930000D02*
X45045000Y-49930000D01*
X26655000Y-48650000D02*
X25375000Y-49930000D01*
X42505000Y-47390000D02*
X41245000Y-48650000D01*
X41245000Y-48650000D02*
X26655000Y-48650000D01*
X47475000Y-47390000D02*
X45045000Y-47390000D01*
X25566105Y-47390000D02*
X26846105Y-46110000D01*
X22335000Y-47390000D02*
X25566105Y-47390000D01*
X45045000Y-47390000D02*
X42505000Y-44850000D01*
X26846105Y-46110000D02*
X41245000Y-46110000D01*
X41245000Y-46110000D02*
X42505000Y-44850000D01*
X45045000Y-44850000D02*
X42505000Y-42310000D01*
X26641396Y-43570000D02*
X25361396Y-44850000D01*
X47475000Y-44850000D02*
X45045000Y-44850000D01*
X42505000Y-42310000D02*
X41245000Y-43570000D01*
X25361396Y-44850000D02*
X22335000Y-44850000D01*
X41245000Y-43570000D02*
X26641396Y-43570000D01*
X22335000Y-42310000D02*
X25566105Y-42310000D01*
X47475000Y-42310000D02*
X45045000Y-42310000D01*
X25566105Y-42310000D02*
X26856105Y-41020000D01*
X45045000Y-42310000D02*
X42505000Y-39770000D01*
X41255000Y-41020000D02*
X42505000Y-39770000D01*
X26856105Y-41020000D02*
X41255000Y-41020000D01*
X26510000Y-30880000D02*
X41235000Y-30880000D01*
X25990000Y-33150000D02*
X25990000Y-31400000D01*
X41235000Y-30880000D02*
X42505000Y-29610000D01*
X24700000Y-55184500D02*
X32994500Y-55184500D01*
X25990000Y-31400000D02*
X26510000Y-30880000D01*
X23941000Y-34060000D02*
X25080000Y-34060000D01*
X32994500Y-55184500D02*
X34900000Y-57090000D01*
X25080000Y-34060000D02*
X25990000Y-33150000D01*
X20345500Y-29083434D02*
X21152066Y-29890000D01*
X22900000Y-29250000D02*
X25085000Y-29250000D01*
X38365000Y-32640000D02*
X39145000Y-33420000D01*
X22260000Y-29890000D02*
X22900000Y-29250000D01*
X25425000Y-60240000D02*
X44070000Y-60240000D01*
X24155000Y-58970000D02*
X25425000Y-60240000D01*
X48745000Y-33420000D02*
X50015000Y-34690000D01*
X39145000Y-33420000D02*
X48745000Y-33420000D01*
X45635000Y-61805000D02*
X45635000Y-63570000D01*
X44070000Y-60240000D02*
X45635000Y-61805000D01*
X21152066Y-29890000D02*
X22260000Y-29890000D01*
X25085000Y-29250000D02*
X27265000Y-27070000D01*
D22*
X28051268Y-33390000D02*
X28039968Y-33401300D01*
X42270000Y-31915000D02*
X42220000Y-31865000D01*
X42505000Y-32150000D02*
X44565000Y-30090000D01*
X46630000Y-30090000D02*
X47103500Y-30563500D01*
X25520000Y-55970000D02*
X27455000Y-55970000D01*
X47103500Y-30563500D02*
X50235000Y-30563500D01*
X28039968Y-33401300D02*
X26494200Y-33401300D01*
D21*
X42270000Y-31915000D02*
X42505000Y-32150000D01*
D22*
X27455000Y-55970000D02*
X30455000Y-58970000D01*
X42220000Y-31865000D02*
X38043984Y-31865000D01*
X38043984Y-31865000D02*
X36518984Y-33390000D01*
X36518984Y-33390000D02*
X28051268Y-33390000D01*
X26494200Y-33401300D02*
X24715500Y-35180000D01*
X44565000Y-30090000D02*
X46630000Y-30090000D01*
G04 #@! TA.AperFunction,Conductor*
G36*
X37457280Y-31425185D02*
G01*
X37503035Y-31477989D01*
X37512979Y-31547147D01*
X37483954Y-31610703D01*
X37477922Y-31617181D01*
X36316923Y-32778181D01*
X36255600Y-32811666D01*
X36229242Y-32814500D01*
X28762796Y-32814500D01*
X28695757Y-32794815D01*
X28650002Y-32742011D01*
X28639178Y-32680770D01*
X28641299Y-32653816D01*
X28641300Y-32653806D01*
X28641300Y-32400000D01*
X27755713Y-32400000D01*
X27804704Y-32262152D01*
X27814949Y-32112382D01*
X27784406Y-31965403D01*
X27750517Y-31900000D01*
X28641300Y-31900000D01*
X28641300Y-31646193D01*
X28641299Y-31646180D01*
X28634854Y-31564285D01*
X28634853Y-31564281D01*
X28634133Y-31561592D01*
X28634164Y-31560271D01*
X28633892Y-31558687D01*
X28634203Y-31558633D01*
X28635796Y-31491742D01*
X28674959Y-31433880D01*
X28739188Y-31406377D01*
X28753908Y-31405500D01*
X37390241Y-31405500D01*
X37457280Y-31425185D01*
G37*
G04 #@! TD.AperFunction*
G04 #@! TA.AperFunction,Conductor*
G36*
X27458039Y-31425185D02*
G01*
X27503794Y-31477989D01*
X27515000Y-31529500D01*
X27515000Y-31662881D01*
X27484612Y-31644402D01*
X27340060Y-31603900D01*
X27227647Y-31603900D01*
X27116279Y-31619207D01*
X27015000Y-31663198D01*
X27015000Y-31529500D01*
X27034685Y-31462461D01*
X27087489Y-31416706D01*
X27139000Y-31405500D01*
X27391000Y-31405500D01*
X27458039Y-31425185D01*
G37*
G04 #@! TD.AperFunction*
G04 #@! TA.AperFunction,Conductor*
G36*
X27515000Y-30230500D02*
G01*
X27495315Y-30297539D01*
X27442511Y-30343294D01*
X27391000Y-30354500D01*
X27139000Y-30354500D01*
X27071961Y-30334815D01*
X27026206Y-30282011D01*
X27015000Y-30230500D01*
X27014999Y-30097118D01*
X27045388Y-30115598D01*
X27189940Y-30156100D01*
X27302353Y-30156100D01*
X27413721Y-30140793D01*
X27515000Y-30096801D01*
X27515000Y-30230500D01*
G37*
G04 #@! TD.AperFunction*
G04 #@! TA.AperFunction,Conductor*
G36*
X51178031Y-17964299D02*
G01*
X51185641Y-17965048D01*
X51210293Y-17967476D01*
X51320730Y-17979919D01*
X51342829Y-17984477D01*
X51394823Y-18000249D01*
X51397282Y-18001053D01*
X51475132Y-18028294D01*
X51492607Y-18035967D01*
X51545933Y-18064470D01*
X51549641Y-18066623D01*
X51611057Y-18105212D01*
X51619257Y-18110365D01*
X51625609Y-18114939D01*
X51677264Y-18157331D01*
X51681765Y-18161410D01*
X51739087Y-18218732D01*
X51743167Y-18223234D01*
X51785559Y-18274889D01*
X51790133Y-18281241D01*
X51833862Y-18350834D01*
X51836039Y-18354585D01*
X51841244Y-18364321D01*
X51864528Y-18407884D01*
X51872211Y-18425382D01*
X51899444Y-18503213D01*
X51900254Y-18505691D01*
X51916020Y-18557664D01*
X51920580Y-18579777D01*
X51933022Y-18690203D01*
X51936201Y-18722468D01*
X51936500Y-18728550D01*
X51936500Y-64516780D01*
X51936167Y-64523198D01*
X51932829Y-64555290D01*
X51919895Y-64664768D01*
X51915215Y-64686857D01*
X51899249Y-64738481D01*
X51898426Y-64740955D01*
X51870967Y-64818092D01*
X51863188Y-64835552D01*
X51834586Y-64888371D01*
X51832383Y-64892118D01*
X51788554Y-64961042D01*
X51783945Y-64967371D01*
X51741495Y-65018529D01*
X51737382Y-65023017D01*
X51680143Y-65079639D01*
X51675611Y-65083703D01*
X51623996Y-65125597D01*
X51617619Y-65130137D01*
X51548246Y-65173206D01*
X51544474Y-65175368D01*
X51491334Y-65203404D01*
X51473792Y-65210994D01*
X51396322Y-65237632D01*
X51393838Y-65238428D01*
X51342079Y-65253823D01*
X51319954Y-65258262D01*
X51211151Y-65269936D01*
X51177907Y-65273029D01*
X51171788Y-65273295D01*
X51126120Y-65273022D01*
X51123355Y-65273315D01*
X18619861Y-65273315D01*
X18613779Y-65273016D01*
X18581606Y-65269847D01*
X18470699Y-65257353D01*
X18448586Y-65252793D01*
X18396536Y-65237004D01*
X18394056Y-65236195D01*
X18315943Y-65208863D01*
X18298447Y-65201182D01*
X18245027Y-65172629D01*
X18241273Y-65170450D01*
X18171477Y-65126595D01*
X18165125Y-65122020D01*
X18113352Y-65079533D01*
X18108841Y-65075444D01*
X18051362Y-65017967D01*
X18047273Y-65013456D01*
X18004787Y-64961687D01*
X18000212Y-64955334D01*
X17956361Y-64885545D01*
X17954178Y-64881785D01*
X17925624Y-64828366D01*
X17917941Y-64810867D01*
X17890606Y-64732749D01*
X17889797Y-64730270D01*
X17886833Y-64720500D01*
X17874008Y-64678223D01*
X17869451Y-64656123D01*
X17856871Y-64544389D01*
X17854469Y-64519996D01*
X17853799Y-64513190D01*
X17853500Y-64507111D01*
X17853500Y-63676610D01*
X30204500Y-63676610D01*
X30243679Y-63886198D01*
X30320702Y-64085019D01*
X30432948Y-64266302D01*
X30576591Y-64423870D01*
X30576593Y-64423872D01*
X30746746Y-64552367D01*
X30937606Y-64647403D01*
X30937608Y-64647403D01*
X30937611Y-64647405D01*
X31142690Y-64705756D01*
X31301806Y-64720500D01*
X31301810Y-64720500D01*
X31808190Y-64720500D01*
X31808194Y-64720500D01*
X31967310Y-64705756D01*
X32172389Y-64647405D01*
X32172393Y-64647403D01*
X32172394Y-64647403D01*
X32363253Y-64552367D01*
X32363253Y-64552366D01*
X32363255Y-64552366D01*
X32533407Y-64423872D01*
X32677052Y-64266302D01*
X32789298Y-64085019D01*
X32866321Y-63886198D01*
X32905500Y-63676610D01*
X32905500Y-63590005D01*
X33495202Y-63590005D01*
X33514361Y-63821218D01*
X33571317Y-64046135D01*
X33664516Y-64258609D01*
X33748811Y-64387633D01*
X34337226Y-63799218D01*
X34375901Y-63892588D01*
X34472075Y-64017925D01*
X34597412Y-64114099D01*
X34690779Y-64152772D01*
X34101199Y-64742351D01*
X34131650Y-64766050D01*
X34335697Y-64876476D01*
X34335706Y-64876479D01*
X34555139Y-64951811D01*
X34783993Y-64990000D01*
X35016007Y-64990000D01*
X35244860Y-64951811D01*
X35464293Y-64876479D01*
X35464302Y-64876476D01*
X35668350Y-64766050D01*
X35698798Y-64742351D01*
X35109220Y-64152773D01*
X35202588Y-64114099D01*
X35327925Y-64017925D01*
X35424099Y-63892589D01*
X35462772Y-63799220D01*
X36051186Y-64387634D01*
X36135484Y-64258606D01*
X36228682Y-64046135D01*
X36285638Y-63821218D01*
X36297621Y-63676610D01*
X37984500Y-63676610D01*
X38023679Y-63886198D01*
X38100702Y-64085019D01*
X38212948Y-64266302D01*
X38356591Y-64423870D01*
X38356593Y-64423872D01*
X38526746Y-64552367D01*
X38717606Y-64647403D01*
X38717608Y-64647403D01*
X38717611Y-64647405D01*
X38922690Y-64705756D01*
X39081806Y-64720500D01*
X39081810Y-64720500D01*
X39588190Y-64720500D01*
X39588194Y-64720500D01*
X39747310Y-64705756D01*
X39952389Y-64647405D01*
X39952393Y-64647403D01*
X39952394Y-64647403D01*
X40143253Y-64552367D01*
X40143253Y-64552366D01*
X40143255Y-64552366D01*
X40313407Y-64423872D01*
X40457052Y-64266302D01*
X40569298Y-64085019D01*
X40646321Y-63886198D01*
X40685500Y-63676610D01*
X40685500Y-63463390D01*
X40646321Y-63253802D01*
X40569298Y-63054981D01*
X40457052Y-62873698D01*
X40313407Y-62716128D01*
X40313406Y-62716127D01*
X40143253Y-62587632D01*
X39952393Y-62492596D01*
X39747310Y-62434244D01*
X39747309Y-62434244D01*
X39588194Y-62419500D01*
X39081806Y-62419500D01*
X38954513Y-62431295D01*
X38922689Y-62434244D01*
X38717607Y-62492596D01*
X38717605Y-62492596D01*
X38526746Y-62587632D01*
X38356593Y-62716127D01*
X38212947Y-62873699D01*
X38100702Y-63054980D01*
X38100701Y-63054982D01*
X38023680Y-63253799D01*
X38023679Y-63253802D01*
X37984500Y-63463390D01*
X37984500Y-63676610D01*
X36297621Y-63676610D01*
X36304798Y-63590005D01*
X36304798Y-63589994D01*
X36285638Y-63358781D01*
X36228682Y-63133864D01*
X36135483Y-62921390D01*
X36051186Y-62792364D01*
X35462772Y-63380778D01*
X35424099Y-63287412D01*
X35327925Y-63162075D01*
X35202588Y-63065901D01*
X35109219Y-63027226D01*
X35698799Y-62437647D01*
X35668349Y-62413949D01*
X35464302Y-62303523D01*
X35464293Y-62303520D01*
X35244860Y-62228188D01*
X35016007Y-62190000D01*
X34783993Y-62190000D01*
X34555139Y-62228188D01*
X34335706Y-62303520D01*
X34335698Y-62303523D01*
X34131644Y-62413952D01*
X34101200Y-62437646D01*
X34101200Y-62437647D01*
X34690778Y-63027227D01*
X34597412Y-63065901D01*
X34472075Y-63162075D01*
X34375901Y-63287411D01*
X34337226Y-63380779D01*
X33748812Y-62792365D01*
X33664516Y-62921391D01*
X33664514Y-62921395D01*
X33571317Y-63133864D01*
X33514361Y-63358781D01*
X33495202Y-63589994D01*
X33495202Y-63590005D01*
X32905500Y-63590005D01*
X32905500Y-63463390D01*
X32866321Y-63253802D01*
X32789298Y-63054981D01*
X32677052Y-62873698D01*
X32533407Y-62716128D01*
X32533406Y-62716127D01*
X32363253Y-62587632D01*
X32172393Y-62492596D01*
X31967310Y-62434244D01*
X31967309Y-62434244D01*
X31808194Y-62419500D01*
X31301806Y-62419500D01*
X31174513Y-62431295D01*
X31142689Y-62434244D01*
X30937607Y-62492596D01*
X30937605Y-62492596D01*
X30746746Y-62587632D01*
X30576593Y-62716127D01*
X30432947Y-62873699D01*
X30320702Y-63054980D01*
X30320701Y-63054982D01*
X30243680Y-63253799D01*
X30243679Y-63253802D01*
X30204500Y-63463390D01*
X30204500Y-63676610D01*
X17853500Y-63676610D01*
X17853500Y-55010002D01*
X18539723Y-55010002D01*
X18558793Y-55227975D01*
X18558793Y-55227979D01*
X18615422Y-55439322D01*
X18615424Y-55439326D01*
X18615425Y-55439330D01*
X18630828Y-55472362D01*
X18707897Y-55637638D01*
X18707898Y-55637639D01*
X18833402Y-55816877D01*
X18988123Y-55971598D01*
X19167361Y-56097102D01*
X19365670Y-56189575D01*
X19577023Y-56246207D01*
X19759926Y-56262208D01*
X19794998Y-56265277D01*
X19795000Y-56265277D01*
X19795002Y-56265277D01*
X19823254Y-56262805D01*
X20012977Y-56246207D01*
X20224330Y-56189575D01*
X20422639Y-56097102D01*
X20601877Y-55971598D01*
X20756598Y-55816877D01*
X20882102Y-55637639D01*
X20952618Y-55486414D01*
X20998790Y-55433977D01*
X21065984Y-55414825D01*
X21132865Y-55435041D01*
X21177381Y-55486414D01*
X21247898Y-55637639D01*
X21373402Y-55816877D01*
X21528123Y-55971598D01*
X21707361Y-56097102D01*
X21905670Y-56189575D01*
X22117023Y-56246207D01*
X22299926Y-56262208D01*
X22334998Y-56265277D01*
X22335000Y-56265277D01*
X22335002Y-56265277D01*
X22363254Y-56262805D01*
X22552977Y-56246207D01*
X22764330Y-56189575D01*
X22962639Y-56097102D01*
X23141877Y-55971598D01*
X23296598Y-55816877D01*
X23422102Y-55637639D01*
X23514575Y-55439330D01*
X23571207Y-55227977D01*
X23579857Y-55129098D01*
X23582518Y-55098692D01*
X23607971Y-55033624D01*
X23664561Y-54992645D01*
X23706046Y-54985500D01*
X23778101Y-54985500D01*
X23845140Y-55005185D01*
X23890895Y-55057989D01*
X23901321Y-55123384D01*
X23894435Y-55184497D01*
X23894435Y-55184503D01*
X23914630Y-55363749D01*
X23914631Y-55363754D01*
X23974211Y-55534023D01*
X24020127Y-55607097D01*
X24070184Y-55686762D01*
X24197738Y-55814316D01*
X24288080Y-55871081D01*
X24294395Y-55875050D01*
X24350478Y-55910289D01*
X24490918Y-55959431D01*
X24520745Y-55969868D01*
X24520750Y-55969869D01*
X24618644Y-55980899D01*
X24683058Y-56007965D01*
X24722613Y-56065560D01*
X24727981Y-56090235D01*
X24734630Y-56149249D01*
X24794210Y-56319521D01*
X24868195Y-56437267D01*
X24890184Y-56472262D01*
X25017738Y-56599816D01*
X25087264Y-56643502D01*
X25150786Y-56683416D01*
X25170478Y-56695789D01*
X25340744Y-56755367D01*
X25340745Y-56755368D01*
X25340750Y-56755369D01*
X25519996Y-56775565D01*
X25520000Y-56775565D01*
X25520004Y-56775565D01*
X25699249Y-56755369D01*
X25699252Y-56755368D01*
X25699255Y-56755368D01*
X25869522Y-56695789D01*
X26022262Y-56599816D01*
X26040259Y-56581819D01*
X26101582Y-56548334D01*
X26127940Y-56545500D01*
X27165258Y-56545500D01*
X27232297Y-56565185D01*
X27252939Y-56581819D01*
X29137153Y-58466033D01*
X29170638Y-58527356D01*
X29165654Y-58597048D01*
X29165099Y-58598506D01*
X29143682Y-58653792D01*
X29143679Y-58653800D01*
X29131304Y-58720000D01*
X29104500Y-58863390D01*
X29104500Y-59076610D01*
X29143679Y-59286198D01*
X29143680Y-59286200D01*
X29220701Y-59485017D01*
X29220705Y-59485024D01*
X29245595Y-59525223D01*
X29264150Y-59592583D01*
X29243342Y-59659283D01*
X29189777Y-59704144D01*
X29140168Y-59714500D01*
X27884030Y-59714500D01*
X27816991Y-59694815D01*
X27771236Y-59642011D01*
X27761292Y-59572853D01*
X27770008Y-59541765D01*
X27848624Y-59357830D01*
X27848627Y-59357821D01*
X27880084Y-59220000D01*
X27030278Y-59220000D01*
X27078625Y-59136260D01*
X27108810Y-59004008D01*
X27098673Y-58868735D01*
X27049113Y-58742459D01*
X27031203Y-58720000D01*
X27882550Y-58720000D01*
X27882550Y-58719999D01*
X27878584Y-58690721D01*
X27809054Y-58476731D01*
X27702434Y-58278598D01*
X27702432Y-58278595D01*
X27562145Y-58102679D01*
X27392707Y-57954647D01*
X27392699Y-57954640D01*
X27199553Y-57839240D01*
X27199548Y-57839238D01*
X26988889Y-57760175D01*
X26767506Y-57720000D01*
X26705000Y-57720000D01*
X26705000Y-58520000D01*
X26221276Y-58520000D01*
X26205000Y-58522453D01*
X26205000Y-57720000D01*
X26198870Y-57720000D01*
X26030903Y-57735116D01*
X26030897Y-57735117D01*
X25814015Y-57794973D01*
X25814002Y-57794978D01*
X25611291Y-57892598D01*
X25611283Y-57892602D01*
X25429258Y-58024851D01*
X25429250Y-58024858D01*
X25301403Y-58158575D01*
X25240847Y-58193427D01*
X25171061Y-58190008D01*
X25120140Y-58156422D01*
X25083406Y-58116127D01*
X24913253Y-57987632D01*
X24722393Y-57892596D01*
X24517310Y-57834244D01*
X24517309Y-57834244D01*
X24358194Y-57819500D01*
X23951806Y-57819500D01*
X23824513Y-57831295D01*
X23792689Y-57834244D01*
X23587607Y-57892596D01*
X23587605Y-57892596D01*
X23396746Y-57987632D01*
X23226593Y-58116127D01*
X23082947Y-58273699D01*
X22970702Y-58454980D01*
X22970701Y-58454982D01*
X22900420Y-58636401D01*
X22893679Y-58653802D01*
X22854500Y-58863390D01*
X22854500Y-59076610D01*
X22893679Y-59286198D01*
X22893680Y-59286200D01*
X22904706Y-59314662D01*
X22910568Y-59384286D01*
X22877858Y-59446026D01*
X22816961Y-59480281D01*
X22747213Y-59476174D01*
X22729653Y-59468288D01*
X22688173Y-59445638D01*
X22688167Y-59445635D01*
X22578858Y-59404865D01*
X22420046Y-59345631D01*
X22420043Y-59345630D01*
X22420037Y-59345628D01*
X22140433Y-59284804D01*
X21926450Y-59269500D01*
X21926448Y-59269500D01*
X21783552Y-59269500D01*
X21783549Y-59269500D01*
X21569566Y-59284804D01*
X21289962Y-59345628D01*
X21021833Y-59445635D01*
X20770690Y-59582770D01*
X20770682Y-59582775D01*
X20541612Y-59754254D01*
X20541594Y-59754270D01*
X20339270Y-59956594D01*
X20339254Y-59956612D01*
X20167775Y-60185682D01*
X20167770Y-60185690D01*
X20030635Y-60436833D01*
X19930628Y-60704962D01*
X19869804Y-60984566D01*
X19849390Y-61269998D01*
X19849390Y-61270001D01*
X19869804Y-61555433D01*
X19930628Y-61835037D01*
X19930630Y-61835043D01*
X19930631Y-61835046D01*
X19962504Y-61920500D01*
X20030635Y-62103166D01*
X20167770Y-62354309D01*
X20167775Y-62354317D01*
X20339254Y-62583387D01*
X20339270Y-62583405D01*
X20541594Y-62785729D01*
X20541612Y-62785745D01*
X20770682Y-62957224D01*
X20770690Y-62957229D01*
X21021833Y-63094364D01*
X21021832Y-63094364D01*
X21021836Y-63094365D01*
X21021839Y-63094367D01*
X21289954Y-63194369D01*
X21289960Y-63194370D01*
X21289962Y-63194371D01*
X21569566Y-63255195D01*
X21569568Y-63255195D01*
X21569572Y-63255196D01*
X21783552Y-63270500D01*
X21926448Y-63270500D01*
X22140428Y-63255196D01*
X22146837Y-63253802D01*
X22420037Y-63194371D01*
X22420037Y-63194370D01*
X22420046Y-63194369D01*
X22688161Y-63094367D01*
X22939315Y-62957226D01*
X23168395Y-62785739D01*
X23370739Y-62583395D01*
X23542226Y-62354315D01*
X23679367Y-62103161D01*
X23779369Y-61835046D01*
X23840196Y-61555428D01*
X23860610Y-61270000D01*
X23857665Y-61228830D01*
X23846119Y-61067387D01*
X23840196Y-60984572D01*
X23830999Y-60942296D01*
X23779371Y-60704962D01*
X23779370Y-60704960D01*
X23779369Y-60704954D01*
X23679367Y-60436839D01*
X23586265Y-60266336D01*
X23571413Y-60198063D01*
X23595830Y-60132599D01*
X23651763Y-60090727D01*
X23721455Y-60085743D01*
X23729011Y-60087637D01*
X23792690Y-60105756D01*
X23951806Y-60120500D01*
X23951810Y-60120500D01*
X24358190Y-60120500D01*
X24358194Y-60120500D01*
X24487058Y-60108559D01*
X24555628Y-60121974D01*
X24586180Y-60144349D01*
X25046320Y-60604489D01*
X25047763Y-60605982D01*
X25090243Y-60651468D01*
X25090245Y-60651469D01*
X25126222Y-60673346D01*
X25131466Y-60676915D01*
X25165025Y-60702364D01*
X25180510Y-60708470D01*
X25199447Y-60717876D01*
X25213669Y-60726525D01*
X25213671Y-60726525D01*
X25213672Y-60726526D01*
X25254216Y-60737885D01*
X25260220Y-60739903D01*
X25299411Y-60755359D01*
X25305067Y-60755940D01*
X25315968Y-60757061D01*
X25336746Y-60761009D01*
X25352772Y-60765500D01*
X25394880Y-60765500D01*
X25401221Y-60765824D01*
X25443110Y-60770131D01*
X25459514Y-60767302D01*
X25480580Y-60765500D01*
X28178085Y-60765500D01*
X28245124Y-60785185D01*
X28290879Y-60837989D01*
X28300823Y-60907147D01*
X28290284Y-60942296D01*
X28231420Y-61067387D01*
X28216596Y-61145100D01*
X28200624Y-61228830D01*
X28200624Y-61228832D01*
X28200624Y-61228833D01*
X28210944Y-61392860D01*
X28261732Y-61549171D01*
X28261734Y-61549175D01*
X28349798Y-61687940D01*
X28469603Y-61800445D01*
X28469611Y-61800451D01*
X28549860Y-61844568D01*
X28613632Y-61879627D01*
X28772823Y-61920500D01*
X28772827Y-61920500D01*
X28895923Y-61920500D01*
X28895925Y-61920500D01*
X28895930Y-61920499D01*
X28895934Y-61920499D01*
X28909174Y-61918826D01*
X29018058Y-61905071D01*
X29170871Y-61844568D01*
X29183977Y-61835046D01*
X29303835Y-61747965D01*
X29303835Y-61747963D01*
X29303837Y-61747963D01*
X29408600Y-61621326D01*
X29478579Y-61472613D01*
X29509376Y-61311170D01*
X29499056Y-61147140D01*
X29448268Y-60990829D01*
X29444297Y-60984572D01*
X29426129Y-60955943D01*
X29406827Y-60888793D01*
X29426894Y-60821867D01*
X29479958Y-60776414D01*
X29530825Y-60765500D01*
X40258085Y-60765500D01*
X40325124Y-60785185D01*
X40370879Y-60837989D01*
X40380823Y-60907147D01*
X40370284Y-60942296D01*
X40311420Y-61067387D01*
X40296596Y-61145100D01*
X40280624Y-61228830D01*
X40280624Y-61228832D01*
X40280624Y-61228833D01*
X40290944Y-61392860D01*
X40341732Y-61549171D01*
X40341734Y-61549175D01*
X40429798Y-61687940D01*
X40549603Y-61800445D01*
X40549611Y-61800451D01*
X40629860Y-61844568D01*
X40693632Y-61879627D01*
X40852823Y-61920500D01*
X40852827Y-61920500D01*
X40975923Y-61920500D01*
X40975925Y-61920500D01*
X40975930Y-61920499D01*
X40975934Y-61920499D01*
X40989174Y-61918826D01*
X41098058Y-61905071D01*
X41250871Y-61844568D01*
X41263977Y-61835046D01*
X41383835Y-61747965D01*
X41383835Y-61747963D01*
X41383837Y-61747963D01*
X41488600Y-61621326D01*
X41558579Y-61472613D01*
X41589376Y-61311170D01*
X41579056Y-61147140D01*
X41528268Y-60990829D01*
X41524297Y-60984572D01*
X41506129Y-60955943D01*
X41486827Y-60888793D01*
X41506894Y-60821867D01*
X41559958Y-60776414D01*
X41610825Y-60765500D01*
X43800968Y-60765500D01*
X43868007Y-60785185D01*
X43888649Y-60801819D01*
X45073181Y-61986350D01*
X45106666Y-62047673D01*
X45109500Y-62074031D01*
X45109500Y-62394958D01*
X45089815Y-62461997D01*
X45040772Y-62505958D01*
X44876744Y-62587634D01*
X44706596Y-62716125D01*
X44706595Y-62716126D01*
X44669197Y-62757148D01*
X44609484Y-62793428D01*
X44539637Y-62791665D01*
X44481830Y-62752420D01*
X44480615Y-62750919D01*
X44442147Y-62702682D01*
X44272707Y-62554647D01*
X44272699Y-62554640D01*
X44079553Y-62439240D01*
X44079548Y-62439238D01*
X43868889Y-62360175D01*
X43647506Y-62320000D01*
X43585000Y-62320000D01*
X43585000Y-63120000D01*
X43101276Y-63120000D01*
X43085000Y-63122453D01*
X43085000Y-62320000D01*
X43078870Y-62320000D01*
X42910903Y-62335116D01*
X42910897Y-62335117D01*
X42694015Y-62394973D01*
X42694002Y-62394978D01*
X42491291Y-62492598D01*
X42491283Y-62492602D01*
X42309258Y-62624851D01*
X42309250Y-62624857D01*
X42153762Y-62787486D01*
X42029808Y-62975266D01*
X41941375Y-63182169D01*
X41941372Y-63182178D01*
X41909915Y-63319999D01*
X41909916Y-63320000D01*
X42759722Y-63320000D01*
X42711375Y-63403740D01*
X42681190Y-63535992D01*
X42691327Y-63671265D01*
X42740887Y-63797541D01*
X42758797Y-63820000D01*
X41907449Y-63820000D01*
X41911415Y-63849278D01*
X41980945Y-64063268D01*
X42087565Y-64261401D01*
X42087567Y-64261404D01*
X42227854Y-64437320D01*
X42397292Y-64585352D01*
X42397300Y-64585359D01*
X42590446Y-64700759D01*
X42590451Y-64700761D01*
X42801110Y-64779824D01*
X43022494Y-64820000D01*
X43085000Y-64820000D01*
X43085000Y-64020000D01*
X43568724Y-64020000D01*
X43585000Y-64017546D01*
X43585000Y-64820000D01*
X43591126Y-64820000D01*
X43591129Y-64819999D01*
X43759096Y-64804883D01*
X43759102Y-64804882D01*
X43975984Y-64745026D01*
X43975997Y-64745021D01*
X44178708Y-64647401D01*
X44178716Y-64647397D01*
X44360741Y-64515148D01*
X44360742Y-64515147D01*
X44488595Y-64381424D01*
X44549151Y-64346572D01*
X44618937Y-64349991D01*
X44669858Y-64383577D01*
X44706590Y-64423870D01*
X44876746Y-64552367D01*
X45067606Y-64647403D01*
X45067608Y-64647403D01*
X45067611Y-64647405D01*
X45272690Y-64705756D01*
X45431806Y-64720500D01*
X45431810Y-64720500D01*
X45838190Y-64720500D01*
X45838194Y-64720500D01*
X45997310Y-64705756D01*
X46202389Y-64647405D01*
X46202393Y-64647403D01*
X46202394Y-64647403D01*
X46393253Y-64552367D01*
X46393253Y-64552366D01*
X46393255Y-64552366D01*
X46563407Y-64423872D01*
X46707052Y-64266302D01*
X46819298Y-64085019D01*
X46896321Y-63886198D01*
X46935500Y-63676610D01*
X46935500Y-63463390D01*
X46896321Y-63253802D01*
X46885293Y-63225337D01*
X46879431Y-63155715D01*
X46912140Y-63093975D01*
X46973036Y-63059719D01*
X47042785Y-63063824D01*
X47060347Y-63071711D01*
X47101833Y-63094364D01*
X47101832Y-63094364D01*
X47101836Y-63094365D01*
X47101839Y-63094367D01*
X47369954Y-63194369D01*
X47369960Y-63194370D01*
X47369962Y-63194371D01*
X47649566Y-63255195D01*
X47649568Y-63255195D01*
X47649572Y-63255196D01*
X47863552Y-63270500D01*
X48006448Y-63270500D01*
X48220428Y-63255196D01*
X48226837Y-63253802D01*
X48500037Y-63194371D01*
X48500037Y-63194370D01*
X48500046Y-63194369D01*
X48768161Y-63094367D01*
X49019315Y-62957226D01*
X49248395Y-62785739D01*
X49450739Y-62583395D01*
X49622226Y-62354315D01*
X49759367Y-62103161D01*
X49859369Y-61835046D01*
X49920196Y-61555428D01*
X49940610Y-61270000D01*
X49937665Y-61228830D01*
X49926119Y-61067387D01*
X49920196Y-60984572D01*
X49910999Y-60942296D01*
X49859371Y-60704962D01*
X49859370Y-60704960D01*
X49859369Y-60704954D01*
X49759367Y-60436839D01*
X49622226Y-60185685D01*
X49622224Y-60185682D01*
X49450745Y-59956612D01*
X49450729Y-59956594D01*
X49248405Y-59754270D01*
X49248387Y-59754254D01*
X49019317Y-59582775D01*
X49019309Y-59582770D01*
X48768166Y-59445635D01*
X48768167Y-59445635D01*
X48658858Y-59404865D01*
X48500046Y-59345631D01*
X48500043Y-59345630D01*
X48500037Y-59345628D01*
X48220433Y-59284804D01*
X48006450Y-59269500D01*
X48006448Y-59269500D01*
X47863552Y-59269500D01*
X47863549Y-59269500D01*
X47649566Y-59284804D01*
X47369962Y-59345628D01*
X47101833Y-59445635D01*
X46850690Y-59582770D01*
X46850682Y-59582775D01*
X46621612Y-59754254D01*
X46621594Y-59754270D01*
X46419270Y-59956594D01*
X46419254Y-59956612D01*
X46247775Y-60185682D01*
X46247770Y-60185690D01*
X46110635Y-60436833D01*
X46010628Y-60704962D01*
X45949804Y-60984566D01*
X45943004Y-61079636D01*
X45918586Y-61145100D01*
X45862652Y-61186971D01*
X45792961Y-61191955D01*
X45731639Y-61158470D01*
X45177629Y-60604460D01*
X44448662Y-59875493D01*
X44447220Y-59874000D01*
X44404753Y-59828529D01*
X44404752Y-59828528D01*
X44368775Y-59806651D01*
X44363529Y-59803081D01*
X44348462Y-59791655D01*
X44329976Y-59777636D01*
X44321406Y-59774256D01*
X44314485Y-59771527D01*
X44295553Y-59762124D01*
X44281329Y-59753474D01*
X44240785Y-59742113D01*
X44234766Y-59740089D01*
X44201025Y-59726784D01*
X44195589Y-59724641D01*
X44195585Y-59724640D01*
X44195583Y-59724640D01*
X44179022Y-59722937D01*
X44158255Y-59718990D01*
X44142231Y-59714500D01*
X44142228Y-59714500D01*
X44100120Y-59714500D01*
X44093778Y-59714175D01*
X44075853Y-59712332D01*
X44051892Y-59709869D01*
X44051888Y-59709869D01*
X44042576Y-59711474D01*
X44035485Y-59712697D01*
X44014420Y-59714500D01*
X39549832Y-59714500D01*
X39482793Y-59694815D01*
X39437038Y-59642011D01*
X39427094Y-59572853D01*
X39444405Y-59525223D01*
X39451112Y-59514389D01*
X39469298Y-59485019D01*
X39546321Y-59286198D01*
X39585500Y-59076610D01*
X39585500Y-58863390D01*
X39546321Y-58653802D01*
X39469298Y-58454981D01*
X39357052Y-58273698D01*
X39213407Y-58116128D01*
X39195598Y-58102679D01*
X39043253Y-57987632D01*
X38852393Y-57892596D01*
X38647310Y-57834244D01*
X38647309Y-57834244D01*
X38488194Y-57819500D01*
X37981806Y-57819500D01*
X37854513Y-57831295D01*
X37822689Y-57834244D01*
X37617607Y-57892596D01*
X37617605Y-57892596D01*
X37426746Y-57987632D01*
X37256593Y-58116127D01*
X37112947Y-58273699D01*
X37000702Y-58454980D01*
X37000701Y-58454982D01*
X36930420Y-58636401D01*
X36923679Y-58653802D01*
X36884500Y-58863390D01*
X36884500Y-59076610D01*
X36923679Y-59286198D01*
X36923680Y-59286200D01*
X37000701Y-59485017D01*
X37000705Y-59485024D01*
X37025595Y-59525223D01*
X37044150Y-59592583D01*
X37023342Y-59659283D01*
X36969777Y-59704144D01*
X36920168Y-59714500D01*
X31769832Y-59714500D01*
X31702793Y-59694815D01*
X31657038Y-59642011D01*
X31647094Y-59572853D01*
X31664405Y-59525223D01*
X31671112Y-59514389D01*
X31689298Y-59485019D01*
X31766321Y-59286198D01*
X31805500Y-59076610D01*
X31805500Y-58863390D01*
X31766321Y-58653802D01*
X31689298Y-58454981D01*
X31577052Y-58273698D01*
X31433407Y-58116128D01*
X31415598Y-58102679D01*
X31263253Y-57987632D01*
X31072393Y-57892596D01*
X30867310Y-57834244D01*
X30867309Y-57834244D01*
X30708194Y-57819500D01*
X30201806Y-57819500D01*
X30193329Y-57820285D01*
X30183413Y-57821204D01*
X30114844Y-57807788D01*
X30084294Y-57785414D01*
X28220561Y-55921681D01*
X28187076Y-55860358D01*
X28192060Y-55790666D01*
X28233932Y-55734733D01*
X28299396Y-55710316D01*
X28308242Y-55710000D01*
X32725468Y-55710000D01*
X32792507Y-55729685D01*
X32813149Y-55746319D01*
X33630472Y-56563642D01*
X33663957Y-56624965D01*
X33662566Y-56683416D01*
X33614366Y-56863302D01*
X33614364Y-56863313D01*
X33594532Y-57089998D01*
X33594532Y-57090001D01*
X33614364Y-57316686D01*
X33614366Y-57316697D01*
X33673258Y-57536488D01*
X33673261Y-57536497D01*
X33769431Y-57742732D01*
X33769432Y-57742734D01*
X33899954Y-57929141D01*
X34060858Y-58090045D01*
X34098107Y-58116127D01*
X34247266Y-58220568D01*
X34453504Y-58316739D01*
X34673308Y-58375635D01*
X34835230Y-58389801D01*
X34899998Y-58395468D01*
X34900000Y-58395468D01*
X34900002Y-58395468D01*
X34956673Y-58390509D01*
X35126692Y-58375635D01*
X35346496Y-58316739D01*
X35552734Y-58220568D01*
X35739139Y-58090047D01*
X35900047Y-57929139D01*
X36030568Y-57742734D01*
X36126739Y-57536496D01*
X36185635Y-57316692D01*
X36205468Y-57090000D01*
X36185635Y-56863308D01*
X36126739Y-56643504D01*
X36030568Y-56437266D01*
X35900047Y-56250861D01*
X35900045Y-56250858D01*
X35739141Y-56089954D01*
X35552734Y-55959432D01*
X35552732Y-55959431D01*
X35346497Y-55863261D01*
X35346488Y-55863258D01*
X35126697Y-55804366D01*
X35126693Y-55804365D01*
X35126692Y-55804365D01*
X35126691Y-55804364D01*
X35126686Y-55804364D01*
X34900002Y-55784532D01*
X34899998Y-55784532D01*
X34673313Y-55804364D01*
X34673302Y-55804366D01*
X34493416Y-55852566D01*
X34423566Y-55850903D01*
X34373642Y-55820472D01*
X34063082Y-55509912D01*
X33750349Y-55197180D01*
X33716865Y-55135858D01*
X33721849Y-55066167D01*
X33763720Y-55010233D01*
X33829185Y-54985816D01*
X33838031Y-54985500D01*
X40504948Y-54985500D01*
X40507065Y-54985536D01*
X40515266Y-54985816D01*
X40569245Y-54987660D01*
X40610169Y-54977686D01*
X40616368Y-54976507D01*
X40658111Y-54970771D01*
X40673386Y-54964135D01*
X40693421Y-54957397D01*
X40709594Y-54953457D01*
X40746316Y-54932808D01*
X40751955Y-54930007D01*
X40790609Y-54913219D01*
X40803528Y-54902707D01*
X40820997Y-54890818D01*
X40835512Y-54882658D01*
X40865298Y-54852870D01*
X40869999Y-54848628D01*
X40902665Y-54822054D01*
X40912264Y-54808453D01*
X40925881Y-54792287D01*
X41997995Y-53720173D01*
X42059316Y-53686690D01*
X42117766Y-53688080D01*
X42282439Y-53732205D01*
X42460487Y-53747782D01*
X42504999Y-53751677D01*
X42505000Y-53751677D01*
X42505001Y-53751677D01*
X42542093Y-53748431D01*
X42727561Y-53732205D01*
X42892233Y-53688081D01*
X42962080Y-53689744D01*
X43012005Y-53720175D01*
X44666321Y-55374490D01*
X44667764Y-55375983D01*
X44710243Y-55421468D01*
X44710245Y-55421469D01*
X44746222Y-55443346D01*
X44751466Y-55446915D01*
X44785025Y-55472364D01*
X44800512Y-55478471D01*
X44819452Y-55487878D01*
X44833669Y-55496524D01*
X44833672Y-55496526D01*
X44858930Y-55503603D01*
X44874218Y-55507887D01*
X44880235Y-55509910D01*
X44919410Y-55525359D01*
X44935977Y-55527061D01*
X44956741Y-55531008D01*
X44972772Y-55535500D01*
X45014879Y-55535500D01*
X45021220Y-55535824D01*
X45063109Y-55540131D01*
X45079513Y-55537302D01*
X45100579Y-55535500D01*
X46261274Y-55535500D01*
X46328313Y-55555185D01*
X46373655Y-55607094D01*
X46387898Y-55637639D01*
X46513402Y-55816877D01*
X46668123Y-55971598D01*
X46847361Y-56097102D01*
X47045670Y-56189575D01*
X47257023Y-56246207D01*
X47439926Y-56262208D01*
X47474998Y-56265277D01*
X47475000Y-56265277D01*
X47475002Y-56265277D01*
X47503254Y-56262805D01*
X47692977Y-56246207D01*
X47904330Y-56189575D01*
X48102639Y-56097102D01*
X48281877Y-55971598D01*
X48436598Y-55816877D01*
X48562102Y-55637639D01*
X48632618Y-55486414D01*
X48678790Y-55433977D01*
X48745984Y-55414825D01*
X48812865Y-55435041D01*
X48857381Y-55486414D01*
X48927898Y-55637639D01*
X49053402Y-55816877D01*
X49208123Y-55971598D01*
X49387361Y-56097102D01*
X49585670Y-56189575D01*
X49797023Y-56246207D01*
X49979926Y-56262208D01*
X50014998Y-56265277D01*
X50015000Y-56265277D01*
X50015002Y-56265277D01*
X50043254Y-56262805D01*
X50232977Y-56246207D01*
X50444330Y-56189575D01*
X50642639Y-56097102D01*
X50821877Y-55971598D01*
X50976598Y-55816877D01*
X51102102Y-55637639D01*
X51194575Y-55439330D01*
X51251207Y-55227977D01*
X51270277Y-55010000D01*
X51268322Y-54987659D01*
X51263525Y-54932822D01*
X51251207Y-54792023D01*
X51194575Y-54580670D01*
X51102102Y-54382362D01*
X51102100Y-54382359D01*
X51102099Y-54382357D01*
X50976599Y-54203124D01*
X50976596Y-54203121D01*
X50821877Y-54048402D01*
X50642639Y-53922898D01*
X50491414Y-53852381D01*
X50438977Y-53806210D01*
X50419825Y-53739016D01*
X50440041Y-53672135D01*
X50491414Y-53627618D01*
X50642639Y-53557102D01*
X50821877Y-53431598D01*
X50976598Y-53276877D01*
X51102102Y-53097639D01*
X51194575Y-52899330D01*
X51251207Y-52687977D01*
X51270277Y-52470000D01*
X51251207Y-52252023D01*
X51194575Y-52040670D01*
X51102102Y-51842362D01*
X51102100Y-51842359D01*
X51102099Y-51842357D01*
X50976599Y-51663124D01*
X50957485Y-51644010D01*
X50821877Y-51508402D01*
X50642639Y-51382898D01*
X50491414Y-51312381D01*
X50438977Y-51266210D01*
X50419825Y-51199016D01*
X50440041Y-51132135D01*
X50491414Y-51087618D01*
X50642639Y-51017102D01*
X50821877Y-50891598D01*
X50976598Y-50736877D01*
X51102102Y-50557639D01*
X51194575Y-50359330D01*
X51251207Y-50147977D01*
X51270277Y-49930000D01*
X51251207Y-49712023D01*
X51194575Y-49500670D01*
X51102102Y-49302362D01*
X51102100Y-49302359D01*
X51102099Y-49302357D01*
X50976599Y-49123124D01*
X50937485Y-49084010D01*
X50821877Y-48968402D01*
X50642639Y-48842898D01*
X50491414Y-48772381D01*
X50438977Y-48726210D01*
X50419825Y-48659016D01*
X50440041Y-48592135D01*
X50491414Y-48547618D01*
X50642639Y-48477102D01*
X50821877Y-48351598D01*
X50976598Y-48196877D01*
X51102102Y-48017639D01*
X51194575Y-47819330D01*
X51251207Y-47607977D01*
X51270277Y-47390000D01*
X51251207Y-47172023D01*
X51194575Y-46960670D01*
X51102102Y-46762362D01*
X51102100Y-46762359D01*
X51102099Y-46762357D01*
X50976599Y-46583124D01*
X50937485Y-46544010D01*
X50821877Y-46428402D01*
X50642639Y-46302898D01*
X50491414Y-46232381D01*
X50438977Y-46186210D01*
X50419825Y-46119016D01*
X50440041Y-46052135D01*
X50491414Y-46007618D01*
X50642639Y-45937102D01*
X50821877Y-45811598D01*
X50976598Y-45656877D01*
X51102102Y-45477639D01*
X51194575Y-45279330D01*
X51251207Y-45067977D01*
X51270277Y-44850000D01*
X51251207Y-44632023D01*
X51194575Y-44420670D01*
X51102102Y-44222362D01*
X51102100Y-44222359D01*
X51102099Y-44222357D01*
X50976599Y-44043124D01*
X50937485Y-44004010D01*
X50821877Y-43888402D01*
X50642639Y-43762898D01*
X50491414Y-43692381D01*
X50438977Y-43646210D01*
X50419825Y-43579016D01*
X50440041Y-43512135D01*
X50491414Y-43467618D01*
X50642639Y-43397102D01*
X50821877Y-43271598D01*
X50976598Y-43116877D01*
X51102102Y-42937639D01*
X51194575Y-42739330D01*
X51251207Y-42527977D01*
X51270277Y-42310000D01*
X51251207Y-42092023D01*
X51194575Y-41880670D01*
X51102102Y-41682362D01*
X51102100Y-41682359D01*
X51102099Y-41682357D01*
X50976599Y-41503124D01*
X50927485Y-41454010D01*
X50821877Y-41348402D01*
X50642639Y-41222898D01*
X50491414Y-41152381D01*
X50438977Y-41106210D01*
X50419825Y-41039016D01*
X50440041Y-40972135D01*
X50491414Y-40927618D01*
X50642639Y-40857102D01*
X50821877Y-40731598D01*
X50976598Y-40576877D01*
X51102102Y-40397639D01*
X51194575Y-40199330D01*
X51251207Y-39987977D01*
X51270277Y-39770000D01*
X51251207Y-39552023D01*
X51194575Y-39340670D01*
X51102102Y-39142362D01*
X51102100Y-39142359D01*
X51102099Y-39142357D01*
X50976599Y-38963124D01*
X50937485Y-38924010D01*
X50821877Y-38808402D01*
X50642639Y-38682898D01*
X50491414Y-38612381D01*
X50438977Y-38566210D01*
X50419825Y-38499016D01*
X50440041Y-38432135D01*
X50491414Y-38387618D01*
X50642639Y-38317102D01*
X50821877Y-38191598D01*
X50976598Y-38036877D01*
X51102102Y-37857639D01*
X51194575Y-37659330D01*
X51251207Y-37447977D01*
X51270277Y-37230000D01*
X51251207Y-37012023D01*
X51194575Y-36800670D01*
X51102102Y-36602362D01*
X51102100Y-36602359D01*
X51102099Y-36602357D01*
X50976599Y-36423124D01*
X50937485Y-36384010D01*
X50821877Y-36268402D01*
X50642639Y-36142898D01*
X50491414Y-36072381D01*
X50438977Y-36026210D01*
X50419825Y-35959016D01*
X50440041Y-35892135D01*
X50491414Y-35847618D01*
X50642639Y-35777102D01*
X50821877Y-35651598D01*
X50976598Y-35496877D01*
X51102102Y-35317639D01*
X51194575Y-35119330D01*
X51251207Y-34907977D01*
X51270277Y-34690000D01*
X51251207Y-34472023D01*
X51194575Y-34260670D01*
X51102102Y-34062362D01*
X51102100Y-34062359D01*
X51102099Y-34062357D01*
X50976599Y-33883124D01*
X50910869Y-33817394D01*
X50821877Y-33728402D01*
X50642639Y-33602898D01*
X50642640Y-33602898D01*
X50642638Y-33602897D01*
X50543484Y-33556661D01*
X50444330Y-33510425D01*
X50444326Y-33510424D01*
X50444322Y-33510422D01*
X50232977Y-33453793D01*
X50015002Y-33434723D01*
X50014998Y-33434723D01*
X49891072Y-33445565D01*
X49797023Y-33453793D01*
X49797020Y-33453793D01*
X49649240Y-33493391D01*
X49579390Y-33491728D01*
X49529466Y-33461297D01*
X49337984Y-33269815D01*
X49123662Y-33055493D01*
X49122220Y-33054000D01*
X49079753Y-33008529D01*
X49079752Y-33008528D01*
X49043775Y-32986651D01*
X49038529Y-32983081D01*
X49019498Y-32968649D01*
X49004976Y-32957636D01*
X48996406Y-32954256D01*
X48989485Y-32951527D01*
X48970553Y-32942124D01*
X48956329Y-32933474D01*
X48915785Y-32922113D01*
X48909766Y-32920089D01*
X48876025Y-32906784D01*
X48870589Y-32904641D01*
X48870585Y-32904640D01*
X48870583Y-32904640D01*
X48854022Y-32902937D01*
X48833255Y-32898990D01*
X48817231Y-32894500D01*
X48817228Y-32894500D01*
X48775120Y-32894500D01*
X48768778Y-32894175D01*
X48750853Y-32892332D01*
X48726892Y-32889869D01*
X48726888Y-32889869D01*
X48717576Y-32891474D01*
X48710485Y-32892697D01*
X48689420Y-32894500D01*
X46531872Y-32894500D01*
X46464833Y-32874815D01*
X46419078Y-32822011D01*
X46409134Y-32752853D01*
X46438159Y-32689297D01*
X46448334Y-32678863D01*
X46488870Y-32641909D01*
X46488872Y-32641907D01*
X46617366Y-32471755D01*
X46623127Y-32460185D01*
X46712403Y-32280894D01*
X46712403Y-32280893D01*
X46712405Y-32280889D01*
X46770756Y-32075810D01*
X46785500Y-31916694D01*
X46785500Y-31410306D01*
X46770756Y-31251190D01*
X46770755Y-31251189D01*
X46770227Y-31245481D01*
X46772897Y-31245233D01*
X46778752Y-31187037D01*
X46822219Y-31132335D01*
X46888361Y-31109816D01*
X46941085Y-31119142D01*
X46953264Y-31124187D01*
X47065780Y-31139000D01*
X47065781Y-31139000D01*
X47067794Y-31139265D01*
X47067813Y-31139266D01*
X47103500Y-31143965D01*
X47103501Y-31143965D01*
X47116765Y-31142218D01*
X47137182Y-31139530D01*
X47145281Y-31139000D01*
X49059959Y-31139000D01*
X49126998Y-31158685D01*
X49170959Y-31207729D01*
X49252632Y-31371753D01*
X49381127Y-31541906D01*
X49381128Y-31541907D01*
X49538698Y-31685552D01*
X49719981Y-31797798D01*
X49918802Y-31874821D01*
X50128390Y-31914000D01*
X50128392Y-31914000D01*
X50341608Y-31914000D01*
X50341610Y-31914000D01*
X50551198Y-31874821D01*
X50750019Y-31797798D01*
X50931302Y-31685552D01*
X51088872Y-31541907D01*
X51217366Y-31371755D01*
X51312405Y-31180889D01*
X51370756Y-30975810D01*
X51385500Y-30816694D01*
X51385500Y-30310306D01*
X51370756Y-30151190D01*
X51312405Y-29946111D01*
X51312403Y-29946106D01*
X51312403Y-29946105D01*
X51217367Y-29755246D01*
X51088872Y-29585093D01*
X51037283Y-29538063D01*
X50931302Y-29441448D01*
X50750019Y-29329202D01*
X50750017Y-29329201D01*
X50624332Y-29280511D01*
X50551198Y-29252179D01*
X50341610Y-29213000D01*
X50128390Y-29213000D01*
X49918802Y-29252179D01*
X49918799Y-29252179D01*
X49918799Y-29252180D01*
X49719982Y-29329201D01*
X49719980Y-29329202D01*
X49538699Y-29441447D01*
X49381127Y-29585093D01*
X49252632Y-29755246D01*
X49170959Y-29919271D01*
X49123457Y-29970508D01*
X49059959Y-29988000D01*
X47393242Y-29988000D01*
X47326203Y-29968315D01*
X47305561Y-29951681D01*
X47066489Y-29712609D01*
X47061136Y-29706506D01*
X47045413Y-29686016D01*
X47040451Y-29679549D01*
X47040449Y-29679547D01*
X47040448Y-29679546D01*
X47012731Y-29658278D01*
X47012705Y-29658258D01*
X46920234Y-29587302D01*
X46912510Y-29584103D01*
X46912510Y-29584102D01*
X46801360Y-29538063D01*
X46780236Y-29529313D01*
X46713756Y-29520560D01*
X46663695Y-29513970D01*
X46663695Y-29513969D01*
X46634092Y-29510073D01*
X46630000Y-29509535D01*
X46629999Y-29509535D01*
X46629998Y-29509535D01*
X46610965Y-29512040D01*
X46596317Y-29513969D01*
X46588219Y-29514500D01*
X44606781Y-29514500D01*
X44598682Y-29513969D01*
X44578265Y-29511281D01*
X44565001Y-29509535D01*
X44565000Y-29509535D01*
X44557450Y-29510528D01*
X44531316Y-29513969D01*
X44531315Y-29513968D01*
X44414761Y-29529313D01*
X44393626Y-29538068D01*
X44274768Y-29587299D01*
X44274766Y-29587301D01*
X44186366Y-29655132D01*
X44186367Y-29655133D01*
X44154548Y-29679550D01*
X44133861Y-29706507D01*
X44128510Y-29712608D01*
X43984966Y-29856152D01*
X43923643Y-29889637D01*
X43853951Y-29884653D01*
X43798018Y-29842781D01*
X43773601Y-29777317D01*
X43773756Y-29757673D01*
X43786677Y-29610000D01*
X43767205Y-29387439D01*
X43720464Y-29213000D01*
X43709384Y-29171648D01*
X43709379Y-29171634D01*
X43640669Y-29024284D01*
X43614965Y-28969162D01*
X43582175Y-28922333D01*
X47280624Y-28922333D01*
X47290944Y-29086360D01*
X47341732Y-29242671D01*
X47341734Y-29242675D01*
X47429798Y-29381440D01*
X47549603Y-29493945D01*
X47549611Y-29493951D01*
X47693628Y-29573125D01*
X47693632Y-29573127D01*
X47852823Y-29614000D01*
X47852827Y-29614000D01*
X47975923Y-29614000D01*
X47975925Y-29614000D01*
X47975930Y-29613999D01*
X47975934Y-29613999D01*
X47991337Y-29612053D01*
X48098058Y-29598571D01*
X48250871Y-29538068D01*
X48284042Y-29513968D01*
X48383835Y-29441465D01*
X48383835Y-29441463D01*
X48383837Y-29441463D01*
X48488600Y-29314826D01*
X48558579Y-29166113D01*
X48589376Y-29004670D01*
X48579056Y-28840640D01*
X48528268Y-28684329D01*
X48440202Y-28545560D01*
X48433611Y-28539371D01*
X48320396Y-28433054D01*
X48320388Y-28433048D01*
X48176371Y-28353874D01*
X48176361Y-28353871D01*
X48017180Y-28313000D01*
X48017177Y-28313000D01*
X47894075Y-28313000D01*
X47894065Y-28313000D01*
X47771942Y-28328429D01*
X47771939Y-28328429D01*
X47619130Y-28388931D01*
X47619121Y-28388936D01*
X47486164Y-28485534D01*
X47486162Y-28485537D01*
X47381400Y-28612173D01*
X47311420Y-28760887D01*
X47297513Y-28833796D01*
X47280624Y-28922330D01*
X47280624Y-28922332D01*
X47280624Y-28922333D01*
X43582175Y-28922333D01*
X43486822Y-28786154D01*
X43328846Y-28628178D01*
X43279961Y-28593948D01*
X43236337Y-28539371D01*
X43229145Y-28469873D01*
X43260667Y-28407518D01*
X43294792Y-28381889D01*
X43456917Y-28299283D01*
X43456918Y-28299283D01*
X43610176Y-28175178D01*
X43610178Y-28175176D01*
X43734283Y-28021918D01*
X43734283Y-28021917D01*
X43823813Y-27846203D01*
X43874854Y-27655715D01*
X43874854Y-27655714D01*
X43881299Y-27573819D01*
X43881300Y-27573806D01*
X43881300Y-27320000D01*
X42995713Y-27320000D01*
X43044704Y-27182152D01*
X43054949Y-27032382D01*
X43024406Y-26885403D01*
X42990517Y-26820000D01*
X43881300Y-26820000D01*
X43881300Y-26566193D01*
X43881299Y-26566180D01*
X43874854Y-26484285D01*
X43874854Y-26484284D01*
X43823813Y-26293796D01*
X43734283Y-26118082D01*
X43734283Y-26118081D01*
X43610178Y-25964823D01*
X43610176Y-25964821D01*
X43456918Y-25840716D01*
X43294792Y-25758110D01*
X43243995Y-25710136D01*
X43227200Y-25642315D01*
X43249737Y-25576180D01*
X43279963Y-25546050D01*
X43328846Y-25511822D01*
X43486822Y-25353846D01*
X43614965Y-25170839D01*
X43709382Y-24968359D01*
X43767205Y-24752561D01*
X43786677Y-24530000D01*
X43767205Y-24307439D01*
X43709382Y-24091641D01*
X43694770Y-24060306D01*
X43642726Y-23948696D01*
X43614965Y-23889162D01*
X43486822Y-23706154D01*
X43328846Y-23548178D01*
X43328842Y-23548175D01*
X43328841Y-23548174D01*
X43145843Y-23420037D01*
X43145835Y-23420033D01*
X42943365Y-23325620D01*
X42943351Y-23325615D01*
X42727566Y-23267796D01*
X42727556Y-23267794D01*
X42505001Y-23248323D01*
X42504999Y-23248323D01*
X42282443Y-23267794D01*
X42282433Y-23267796D01*
X42066648Y-23325615D01*
X42066634Y-23325620D01*
X41864167Y-23420032D01*
X41864161Y-23420035D01*
X41681151Y-23548179D01*
X41523179Y-23706151D01*
X41395035Y-23889161D01*
X41395032Y-23889167D01*
X41300620Y-24091634D01*
X41300615Y-24091648D01*
X41242796Y-24307433D01*
X41242794Y-24307443D01*
X41223323Y-24529999D01*
X41223323Y-24530000D01*
X41242794Y-24752556D01*
X41242796Y-24752566D01*
X41300615Y-24968351D01*
X41300620Y-24968365D01*
X41395033Y-25170835D01*
X41395037Y-25170843D01*
X41471163Y-25279561D01*
X41523178Y-25353846D01*
X41681154Y-25511822D01*
X41730037Y-25546050D01*
X41773661Y-25600627D01*
X41780854Y-25670126D01*
X41749332Y-25732480D01*
X41715208Y-25758110D01*
X41553080Y-25840717D01*
X41399823Y-25964821D01*
X41399821Y-25964823D01*
X41275716Y-26118081D01*
X41275716Y-26118082D01*
X41186186Y-26293796D01*
X41135145Y-26484284D01*
X41135145Y-26484285D01*
X41128700Y-26566180D01*
X41128700Y-26820000D01*
X42014287Y-26820000D01*
X41965296Y-26957848D01*
X41955051Y-27107618D01*
X41985594Y-27254597D01*
X42019483Y-27320000D01*
X41128700Y-27320000D01*
X41128700Y-27573819D01*
X41135145Y-27655714D01*
X41135145Y-27655715D01*
X41186186Y-27846203D01*
X41275716Y-28021917D01*
X41275716Y-28021918D01*
X41399821Y-28175176D01*
X41399823Y-28175178D01*
X41553081Y-28299283D01*
X41715207Y-28381889D01*
X41766003Y-28429863D01*
X41782799Y-28497684D01*
X41760262Y-28563819D01*
X41730038Y-28593948D01*
X41681151Y-28628179D01*
X41523179Y-28786151D01*
X41395035Y-28969161D01*
X41395032Y-28969167D01*
X41300620Y-29171634D01*
X41300615Y-29171648D01*
X41242796Y-29387433D01*
X41242794Y-29387443D01*
X41223323Y-29609999D01*
X41223323Y-29610000D01*
X41242794Y-29832556D01*
X41242796Y-29832566D01*
X41286918Y-29997231D01*
X41285255Y-30067081D01*
X41254824Y-30117005D01*
X41053648Y-30318182D01*
X40992328Y-30351666D01*
X40965969Y-30354500D01*
X28753908Y-30354500D01*
X28686869Y-30334815D01*
X28641114Y-30282011D01*
X28631170Y-30212853D01*
X28634133Y-30198408D01*
X28634853Y-30195718D01*
X28634854Y-30195714D01*
X28641299Y-30113819D01*
X28641300Y-30113806D01*
X28641300Y-29860000D01*
X27755713Y-29860000D01*
X27804704Y-29722152D01*
X27814949Y-29572382D01*
X27784406Y-29425403D01*
X27750517Y-29360000D01*
X28641300Y-29360000D01*
X28641300Y-29106193D01*
X28641299Y-29106180D01*
X28634854Y-29024285D01*
X28634854Y-29024284D01*
X28583813Y-28833796D01*
X28494283Y-28658082D01*
X28494283Y-28658081D01*
X28370178Y-28504823D01*
X28370176Y-28504821D01*
X28216918Y-28380716D01*
X28054792Y-28298110D01*
X28003995Y-28250136D01*
X27987200Y-28182315D01*
X28009737Y-28116180D01*
X28039963Y-28086050D01*
X28088846Y-28051822D01*
X28246822Y-27893846D01*
X28374965Y-27710839D01*
X28469382Y-27508359D01*
X28527205Y-27292561D01*
X28546677Y-27070000D01*
X28527205Y-26847439D01*
X28483300Y-26683584D01*
X28469384Y-26631648D01*
X28469379Y-26631634D01*
X28374967Y-26429167D01*
X28374964Y-26429161D01*
X28246823Y-26246155D01*
X28230030Y-26229362D01*
X28088846Y-26088178D01*
X28088842Y-26088175D01*
X28088841Y-26088174D01*
X27905843Y-25960037D01*
X27905839Y-25960035D01*
X27803645Y-25912381D01*
X27751206Y-25866208D01*
X27732054Y-25799015D01*
X27752270Y-25732134D01*
X27803643Y-25687619D01*
X27905839Y-25639965D01*
X28088846Y-25511822D01*
X28246822Y-25353846D01*
X28374965Y-25170839D01*
X28469382Y-24968359D01*
X28527205Y-24752561D01*
X28546677Y-24530000D01*
X28527205Y-24307439D01*
X28469382Y-24091641D01*
X28454770Y-24060306D01*
X28402726Y-23948696D01*
X28374965Y-23889162D01*
X28246822Y-23706154D01*
X28088846Y-23548178D01*
X28088842Y-23548175D01*
X28088841Y-23548174D01*
X27905843Y-23420037D01*
X27905835Y-23420033D01*
X27703365Y-23325620D01*
X27703351Y-23325615D01*
X27487566Y-23267796D01*
X27487556Y-23267794D01*
X27265001Y-23248323D01*
X27264999Y-23248323D01*
X27042443Y-23267794D01*
X27042433Y-23267796D01*
X26826648Y-23325615D01*
X26826634Y-23325620D01*
X26624167Y-23420032D01*
X26624161Y-23420035D01*
X26441151Y-23548179D01*
X26283179Y-23706151D01*
X26155035Y-23889161D01*
X26155032Y-23889167D01*
X26060620Y-24091634D01*
X26060615Y-24091648D01*
X26002796Y-24307433D01*
X26002794Y-24307443D01*
X25983323Y-24529999D01*
X25983323Y-24530000D01*
X26002794Y-24752556D01*
X26002796Y-24752566D01*
X26046918Y-24917231D01*
X26045255Y-24987081D01*
X26014824Y-25037005D01*
X25685522Y-25366307D01*
X25684000Y-25367778D01*
X25638532Y-25410243D01*
X25616653Y-25446221D01*
X25613080Y-25451470D01*
X25587638Y-25485020D01*
X25587633Y-25485029D01*
X25581525Y-25500517D01*
X25572125Y-25519442D01*
X25563477Y-25533664D01*
X25563474Y-25533670D01*
X25552114Y-25574211D01*
X25550091Y-25580228D01*
X25534641Y-25619409D01*
X25534640Y-25619411D01*
X25532937Y-25635976D01*
X25528991Y-25656739D01*
X25524500Y-25672767D01*
X25524500Y-25714879D01*
X25524175Y-25721223D01*
X25519869Y-25763109D01*
X25520099Y-25769843D01*
X25502713Y-25837515D01*
X25451500Y-25885045D01*
X25382721Y-25897341D01*
X25318212Y-25870501D01*
X25284451Y-25827874D01*
X25232401Y-25719791D01*
X25232397Y-25719783D01*
X25100148Y-25537758D01*
X25100142Y-25537750D01*
X24966424Y-25409903D01*
X24931572Y-25349347D01*
X24934991Y-25279561D01*
X24968578Y-25228640D01*
X25008872Y-25191907D01*
X25137366Y-25021755D01*
X25137367Y-25021753D01*
X25232403Y-24830894D01*
X25232403Y-24830893D01*
X25232405Y-24830889D01*
X25290756Y-24625810D01*
X25305500Y-24466694D01*
X25305500Y-24060306D01*
X25290756Y-23901190D01*
X25232405Y-23696111D01*
X25232403Y-23696106D01*
X25232403Y-23696105D01*
X25137367Y-23505246D01*
X25008872Y-23335093D01*
X24913690Y-23248323D01*
X24851302Y-23191448D01*
X24670019Y-23079202D01*
X24670017Y-23079201D01*
X24499662Y-23013206D01*
X24471198Y-23002179D01*
X24261610Y-22963000D01*
X24048390Y-22963000D01*
X23923442Y-22986357D01*
X23838796Y-23002180D01*
X23810336Y-23013206D01*
X23740712Y-23019067D01*
X23678972Y-22986357D01*
X23644718Y-22925460D01*
X23648825Y-22855711D01*
X23656712Y-22838151D01*
X23679362Y-22796671D01*
X23679364Y-22796667D01*
X23679364Y-22796665D01*
X23679367Y-22796661D01*
X23779369Y-22528546D01*
X23840196Y-22248928D01*
X23860610Y-21963501D01*
X45929390Y-21963501D01*
X45949804Y-22248933D01*
X46010628Y-22528537D01*
X46110635Y-22796666D01*
X46247770Y-23047809D01*
X46247775Y-23047817D01*
X46419254Y-23276887D01*
X46419270Y-23276905D01*
X46621594Y-23479229D01*
X46621612Y-23479245D01*
X46850682Y-23650724D01*
X46850690Y-23650729D01*
X47101833Y-23787864D01*
X47101832Y-23787864D01*
X47101836Y-23787865D01*
X47101839Y-23787867D01*
X47369954Y-23887869D01*
X47369960Y-23887870D01*
X47369962Y-23887871D01*
X47649566Y-23948695D01*
X47649568Y-23948695D01*
X47649572Y-23948696D01*
X47863552Y-23964000D01*
X48006448Y-23964000D01*
X48220428Y-23948696D01*
X48500046Y-23887869D01*
X48768161Y-23787867D01*
X48938665Y-23694764D01*
X49006935Y-23679913D01*
X49072400Y-23704329D01*
X49114271Y-23760263D01*
X49119256Y-23829954D01*
X49117356Y-23837531D01*
X49099244Y-23901187D01*
X49084500Y-24060309D01*
X49084500Y-24466690D01*
X49099244Y-24625810D01*
X49157596Y-24830892D01*
X49157596Y-24830894D01*
X49252632Y-25021753D01*
X49381127Y-25191906D01*
X49422146Y-25229300D01*
X49458427Y-25289012D01*
X49456666Y-25358859D01*
X49417422Y-25416667D01*
X49415921Y-25417883D01*
X49367680Y-25456353D01*
X49219647Y-25625792D01*
X49219640Y-25625800D01*
X49104240Y-25818946D01*
X49104238Y-25818951D01*
X49025175Y-26029610D01*
X49025175Y-26029611D01*
X48985000Y-26250994D01*
X48985000Y-26313500D01*
X49785000Y-26313500D01*
X49785000Y-26797224D01*
X49787453Y-26813500D01*
X48985000Y-26813500D01*
X48985000Y-26819629D01*
X49000116Y-26987596D01*
X49000117Y-26987602D01*
X49059973Y-27204484D01*
X49059978Y-27204497D01*
X49157598Y-27407208D01*
X49157602Y-27407216D01*
X49289851Y-27589241D01*
X49289857Y-27589249D01*
X49452486Y-27744737D01*
X49640266Y-27868691D01*
X49847169Y-27957124D01*
X49847175Y-27957126D01*
X49984998Y-27988584D01*
X49984999Y-27988583D01*
X49984999Y-27138777D01*
X50068740Y-27187125D01*
X50200992Y-27217310D01*
X50336265Y-27207173D01*
X50462541Y-27157613D01*
X50485000Y-27139702D01*
X50485000Y-27991049D01*
X50514267Y-27987086D01*
X50514273Y-27987085D01*
X50728268Y-27917554D01*
X50926401Y-27810934D01*
X50926404Y-27810932D01*
X51102320Y-27670645D01*
X51250352Y-27501207D01*
X51250359Y-27501199D01*
X51365759Y-27308053D01*
X51365761Y-27308048D01*
X51444824Y-27097389D01*
X51444824Y-27097388D01*
X51485000Y-26876005D01*
X51485000Y-26813500D01*
X50685000Y-26813500D01*
X50685000Y-26329776D01*
X50682547Y-26313500D01*
X51485000Y-26313500D01*
X51485000Y-26307374D01*
X51484999Y-26307370D01*
X51469883Y-26139403D01*
X51469882Y-26139397D01*
X51410026Y-25922515D01*
X51410021Y-25922502D01*
X51312401Y-25719791D01*
X51312397Y-25719783D01*
X51180148Y-25537758D01*
X51180142Y-25537750D01*
X51046424Y-25409903D01*
X51011572Y-25349347D01*
X51014991Y-25279561D01*
X51048578Y-25228640D01*
X51088872Y-25191907D01*
X51217366Y-25021755D01*
X51217367Y-25021753D01*
X51312403Y-24830894D01*
X51312403Y-24830893D01*
X51312405Y-24830889D01*
X51370756Y-24625810D01*
X51385500Y-24466694D01*
X51385500Y-24060306D01*
X51370756Y-23901190D01*
X51312405Y-23696111D01*
X51312403Y-23696106D01*
X51312403Y-23696105D01*
X51217367Y-23505246D01*
X51088872Y-23335093D01*
X50993690Y-23248323D01*
X50931302Y-23191448D01*
X50750019Y-23079202D01*
X50750017Y-23079201D01*
X50579662Y-23013206D01*
X50551198Y-23002179D01*
X50341610Y-22963000D01*
X50128390Y-22963000D01*
X50003442Y-22986357D01*
X49918796Y-23002180D01*
X49890336Y-23013206D01*
X49820712Y-23019067D01*
X49758972Y-22986357D01*
X49724718Y-22925460D01*
X49728825Y-22855711D01*
X49736712Y-22838151D01*
X49759362Y-22796671D01*
X49759364Y-22796667D01*
X49759364Y-22796665D01*
X49759367Y-22796661D01*
X49859369Y-22528546D01*
X49920196Y-22248928D01*
X49940610Y-21963500D01*
X49920196Y-21678072D01*
X49859369Y-21398454D01*
X49759367Y-21130339D01*
X49622226Y-20879185D01*
X49622224Y-20879182D01*
X49450745Y-20650112D01*
X49450729Y-20650094D01*
X49248405Y-20447770D01*
X49248387Y-20447754D01*
X49019317Y-20276275D01*
X49019309Y-20276270D01*
X48768166Y-20139135D01*
X48768167Y-20139135D01*
X48660914Y-20099132D01*
X48500046Y-20039131D01*
X48500043Y-20039130D01*
X48500037Y-20039128D01*
X48220433Y-19978304D01*
X48006450Y-19963000D01*
X48006448Y-19963000D01*
X47863552Y-19963000D01*
X47863549Y-19963000D01*
X47649566Y-19978304D01*
X47369962Y-20039128D01*
X47101833Y-20139135D01*
X46850690Y-20276270D01*
X46850682Y-20276275D01*
X46621612Y-20447754D01*
X46621594Y-20447770D01*
X46419270Y-20650094D01*
X46419254Y-20650112D01*
X46247775Y-20879182D01*
X46247770Y-20879190D01*
X46110635Y-21130333D01*
X46010628Y-21398462D01*
X45949804Y-21678066D01*
X45929390Y-21963498D01*
X45929390Y-21963501D01*
X23860610Y-21963501D01*
X23860610Y-21963500D01*
X23840196Y-21678072D01*
X23779369Y-21398454D01*
X23679367Y-21130339D01*
X23542226Y-20879185D01*
X23542224Y-20879182D01*
X23370745Y-20650112D01*
X23370729Y-20650094D01*
X23168405Y-20447770D01*
X23168387Y-20447754D01*
X22939317Y-20276275D01*
X22939309Y-20276270D01*
X22688166Y-20139135D01*
X22688167Y-20139135D01*
X22580915Y-20099132D01*
X22420046Y-20039131D01*
X22420043Y-20039130D01*
X22420037Y-20039128D01*
X22140433Y-19978304D01*
X21926450Y-19963000D01*
X21926448Y-19963000D01*
X21783552Y-19963000D01*
X21783549Y-19963000D01*
X21569566Y-19978304D01*
X21289962Y-20039128D01*
X21021833Y-20139135D01*
X20770690Y-20276270D01*
X20770682Y-20276275D01*
X20541612Y-20447754D01*
X20541594Y-20447770D01*
X20339270Y-20650094D01*
X20339254Y-20650112D01*
X20167775Y-20879182D01*
X20167770Y-20879190D01*
X20030635Y-21130333D01*
X19930628Y-21398462D01*
X19869804Y-21678066D01*
X19849390Y-21963498D01*
X19849390Y-21963501D01*
X19869804Y-22248933D01*
X19930628Y-22528537D01*
X20030635Y-22796666D01*
X20167770Y-23047809D01*
X20167775Y-23047817D01*
X20339254Y-23276887D01*
X20339270Y-23276905D01*
X20541594Y-23479229D01*
X20541612Y-23479245D01*
X20770682Y-23650724D01*
X20770690Y-23650729D01*
X21021833Y-23787864D01*
X21021832Y-23787864D01*
X21021836Y-23787865D01*
X21021839Y-23787867D01*
X21289954Y-23887869D01*
X21289960Y-23887870D01*
X21289962Y-23887871D01*
X21569566Y-23948695D01*
X21569568Y-23948695D01*
X21569572Y-23948696D01*
X21783552Y-23964000D01*
X21926448Y-23964000D01*
X22140428Y-23948696D01*
X22420046Y-23887869D01*
X22688161Y-23787867D01*
X22858665Y-23694764D01*
X22926935Y-23679913D01*
X22992400Y-23704329D01*
X23034271Y-23760263D01*
X23039256Y-23829954D01*
X23037356Y-23837531D01*
X23019244Y-23901187D01*
X23004500Y-24060309D01*
X23004500Y-24466690D01*
X23019244Y-24625810D01*
X23077596Y-24830892D01*
X23077596Y-24830894D01*
X23172632Y-25021753D01*
X23301127Y-25191906D01*
X23342146Y-25229300D01*
X23378427Y-25289012D01*
X23376666Y-25358859D01*
X23337422Y-25416667D01*
X23335921Y-25417883D01*
X23287680Y-25456353D01*
X23139647Y-25625792D01*
X23139640Y-25625800D01*
X23024240Y-25818946D01*
X23024238Y-25818951D01*
X22945175Y-26029610D01*
X22945175Y-26029611D01*
X22905000Y-26250994D01*
X22905000Y-26313500D01*
X23705000Y-26313500D01*
X23705000Y-26797224D01*
X23707453Y-26813500D01*
X22905000Y-26813500D01*
X22905000Y-26819629D01*
X22920116Y-26987596D01*
X22920117Y-26987602D01*
X22979973Y-27204484D01*
X22979978Y-27204497D01*
X23077598Y-27407208D01*
X23077602Y-27407216D01*
X23209851Y-27589241D01*
X23209857Y-27589249D01*
X23372486Y-27744737D01*
X23560266Y-27868691D01*
X23767169Y-27957124D01*
X23767178Y-27957127D01*
X23904999Y-27988584D01*
X23905000Y-27988584D01*
X23905000Y-27138777D01*
X23988740Y-27187125D01*
X24120992Y-27217310D01*
X24256265Y-27207173D01*
X24382541Y-27157613D01*
X24405000Y-27139702D01*
X24405000Y-27991049D01*
X24434267Y-27987086D01*
X24434273Y-27987085D01*
X24648268Y-27917554D01*
X24748503Y-27863615D01*
X24816865Y-27849181D01*
X24882179Y-27873998D01*
X24923708Y-27930187D01*
X24928266Y-27999907D01*
X24894944Y-28060490D01*
X24717254Y-28238181D01*
X24655931Y-28271666D01*
X24629573Y-28274500D01*
X23249031Y-28274500D01*
X23181992Y-28254815D01*
X23161350Y-28238181D01*
X22910254Y-27987085D01*
X22648662Y-27725493D01*
X22647220Y-27724000D01*
X22604753Y-27678529D01*
X22604752Y-27678528D01*
X22568775Y-27656651D01*
X22563529Y-27653081D01*
X22548462Y-27641655D01*
X22529976Y-27627636D01*
X22521406Y-27624256D01*
X22514485Y-27621527D01*
X22495553Y-27612124D01*
X22481329Y-27603474D01*
X22440785Y-27592113D01*
X22434766Y-27590089D01*
X22398016Y-27575598D01*
X22395589Y-27574641D01*
X22395585Y-27574640D01*
X22395583Y-27574640D01*
X22379022Y-27572937D01*
X22358255Y-27568990D01*
X22342231Y-27564500D01*
X22342228Y-27564500D01*
X22300120Y-27564500D01*
X22293778Y-27564175D01*
X22275853Y-27562332D01*
X22251892Y-27559869D01*
X22251888Y-27559869D01*
X22242576Y-27561474D01*
X22235485Y-27562697D01*
X22214420Y-27564500D01*
X21727940Y-27564500D01*
X21660901Y-27544815D01*
X21640259Y-27528181D01*
X21572262Y-27460184D01*
X21419523Y-27364211D01*
X21249254Y-27304631D01*
X21249249Y-27304630D01*
X21070004Y-27284435D01*
X21069996Y-27284435D01*
X20890750Y-27304630D01*
X20890745Y-27304631D01*
X20720476Y-27364211D01*
X20567737Y-27460184D01*
X20440184Y-27587737D01*
X20344211Y-27740476D01*
X20284631Y-27910745D01*
X20284630Y-27910750D01*
X20264435Y-28089996D01*
X20264435Y-28090004D01*
X20272469Y-28161312D01*
X20260414Y-28230134D01*
X20213065Y-28281513D01*
X20172734Y-28295170D01*
X20173041Y-28296514D01*
X20166253Y-28298063D01*
X19995978Y-28357644D01*
X19843237Y-28453618D01*
X19715684Y-28581171D01*
X19619711Y-28733910D01*
X19560131Y-28904179D01*
X19560130Y-28904184D01*
X19539935Y-29083430D01*
X19539935Y-29083437D01*
X19560130Y-29262683D01*
X19560131Y-29262688D01*
X19619711Y-29432957D01*
X19680256Y-29529313D01*
X19715684Y-29585696D01*
X19843238Y-29713250D01*
X19995978Y-29809223D01*
X20141090Y-29860000D01*
X20166245Y-29868802D01*
X20166250Y-29868803D01*
X20345497Y-29888999D01*
X20352465Y-29888999D01*
X20352465Y-29891158D01*
X20411057Y-29901420D01*
X20443802Y-29924906D01*
X20773372Y-30254476D01*
X20774843Y-30255998D01*
X20817310Y-30301468D01*
X20817311Y-30301469D01*
X20831843Y-30310306D01*
X20853279Y-30323342D01*
X20858529Y-30326914D01*
X20892091Y-30352365D01*
X20907591Y-30358477D01*
X20926519Y-30367879D01*
X20940738Y-30376526D01*
X20981279Y-30387885D01*
X20987290Y-30389907D01*
X20998022Y-30394139D01*
X21026477Y-30405360D01*
X21031380Y-30405864D01*
X21043041Y-30407063D01*
X21063815Y-30411011D01*
X21075019Y-30414150D01*
X21079838Y-30415500D01*
X21121936Y-30415500D01*
X21128277Y-30415824D01*
X21170176Y-30420132D01*
X21180134Y-30418415D01*
X21186585Y-30417303D01*
X21207653Y-30415500D01*
X22249948Y-30415500D01*
X22252065Y-30415536D01*
X22260850Y-30415835D01*
X22314245Y-30417660D01*
X22355169Y-30407686D01*
X22361368Y-30406507D01*
X22403111Y-30400771D01*
X22418386Y-30394135D01*
X22438421Y-30387397D01*
X22454594Y-30383457D01*
X22491316Y-30362808D01*
X22496955Y-30360007D01*
X22535609Y-30343219D01*
X22548528Y-30332707D01*
X22565997Y-30320818D01*
X22580512Y-30312658D01*
X22610298Y-30282870D01*
X22614999Y-30278628D01*
X22647665Y-30252054D01*
X22657264Y-30238453D01*
X22670876Y-30222292D01*
X22804723Y-30088445D01*
X22866044Y-30054963D01*
X22935736Y-30059947D01*
X22991669Y-30101819D01*
X23016086Y-30167283D01*
X23015873Y-30187569D01*
X23004500Y-30310306D01*
X23004500Y-30816694D01*
X23009644Y-30872205D01*
X23019244Y-30975810D01*
X23077596Y-31180893D01*
X23172632Y-31371753D01*
X23301127Y-31541906D01*
X23301128Y-31541907D01*
X23458698Y-31685552D01*
X23639981Y-31797798D01*
X23838802Y-31874821D01*
X24048390Y-31914000D01*
X24048392Y-31914000D01*
X24261608Y-31914000D01*
X24261610Y-31914000D01*
X24471198Y-31874821D01*
X24670019Y-31797798D01*
X24851302Y-31685552D01*
X25008872Y-31541907D01*
X25137366Y-31371755D01*
X25232405Y-31180889D01*
X25290756Y-30975810D01*
X25305500Y-30816694D01*
X25305500Y-30310306D01*
X25290756Y-30151190D01*
X25232405Y-29946111D01*
X25232404Y-29946107D01*
X25216068Y-29913301D01*
X25203807Y-29844515D01*
X25230680Y-29780021D01*
X25272970Y-29748992D01*
X25272197Y-29747617D01*
X25285155Y-29740329D01*
X25316316Y-29722808D01*
X25321955Y-29720007D01*
X25360609Y-29703219D01*
X25373528Y-29692707D01*
X25390997Y-29680818D01*
X25405512Y-29672658D01*
X25435298Y-29642870D01*
X25439999Y-29638628D01*
X25472665Y-29612054D01*
X25482264Y-29598453D01*
X25495881Y-29582287D01*
X25715755Y-29362413D01*
X25777076Y-29328930D01*
X25846768Y-29333914D01*
X25887357Y-29360000D01*
X26774287Y-29360000D01*
X26725296Y-29497848D01*
X26715051Y-29647618D01*
X26745594Y-29794597D01*
X26779483Y-29860000D01*
X25888700Y-29860000D01*
X25888700Y-30113819D01*
X25895145Y-30195714D01*
X25895145Y-30195715D01*
X25946185Y-30386201D01*
X26011422Y-30514234D01*
X26024318Y-30582903D01*
X25998042Y-30647644D01*
X25988618Y-30658210D01*
X25625522Y-31021307D01*
X25624000Y-31022778D01*
X25578532Y-31065243D01*
X25556653Y-31101221D01*
X25553080Y-31106470D01*
X25527638Y-31140020D01*
X25527633Y-31140029D01*
X25521525Y-31155517D01*
X25512125Y-31174442D01*
X25503477Y-31188664D01*
X25503474Y-31188670D01*
X25492114Y-31229211D01*
X25490091Y-31235228D01*
X25474641Y-31274409D01*
X25474640Y-31274411D01*
X25472937Y-31290976D01*
X25468991Y-31311739D01*
X25464500Y-31327767D01*
X25464500Y-31369879D01*
X25464175Y-31376223D01*
X25459869Y-31418107D01*
X25459869Y-31418111D01*
X25462697Y-31434511D01*
X25464500Y-31455580D01*
X25464499Y-32880968D01*
X25444814Y-32948008D01*
X25428180Y-32968649D01*
X24898650Y-33498181D01*
X24837327Y-33531666D01*
X24810969Y-33534500D01*
X24598940Y-33534500D01*
X24531901Y-33514815D01*
X24511259Y-33498181D01*
X24443262Y-33430184D01*
X24290523Y-33334211D01*
X24120254Y-33274631D01*
X24120249Y-33274630D01*
X23941004Y-33254435D01*
X23940996Y-33254435D01*
X23761750Y-33274630D01*
X23761745Y-33274631D01*
X23591476Y-33334211D01*
X23438737Y-33430184D01*
X23311184Y-33557737D01*
X23254330Y-33648221D01*
X23201995Y-33694512D01*
X23132942Y-33705160D01*
X23078214Y-33683824D01*
X22962639Y-33602898D01*
X22962640Y-33602898D01*
X22962638Y-33602897D01*
X22863484Y-33556661D01*
X22764330Y-33510425D01*
X22764326Y-33510424D01*
X22764322Y-33510422D01*
X22552977Y-33453793D01*
X22335002Y-33434723D01*
X22334998Y-33434723D01*
X22211072Y-33445565D01*
X22117023Y-33453793D01*
X22117020Y-33453793D01*
X21905677Y-33510422D01*
X21905668Y-33510426D01*
X21707361Y-33602898D01*
X21707357Y-33602900D01*
X21528121Y-33728402D01*
X21373402Y-33883121D01*
X21247900Y-34062357D01*
X21247898Y-34062361D01*
X21177382Y-34213583D01*
X21131209Y-34266022D01*
X21064016Y-34285174D01*
X20997135Y-34264958D01*
X20952618Y-34213583D01*
X20893659Y-34087147D01*
X20882102Y-34062362D01*
X20882100Y-34062359D01*
X20882099Y-34062357D01*
X20756599Y-33883124D01*
X20690869Y-33817394D01*
X20601877Y-33728402D01*
X20422639Y-33602898D01*
X20422640Y-33602898D01*
X20422638Y-33602897D01*
X20323484Y-33556661D01*
X20224330Y-33510425D01*
X20224326Y-33510424D01*
X20224322Y-33510422D01*
X20012977Y-33453793D01*
X19795002Y-33434723D01*
X19794998Y-33434723D01*
X19671072Y-33445565D01*
X19577023Y-33453793D01*
X19577020Y-33453793D01*
X19365677Y-33510422D01*
X19365668Y-33510426D01*
X19167361Y-33602898D01*
X19167357Y-33602900D01*
X18988121Y-33728402D01*
X18833402Y-33883121D01*
X18707900Y-34062357D01*
X18707898Y-34062361D01*
X18615426Y-34260668D01*
X18615422Y-34260677D01*
X18558793Y-34472020D01*
X18558793Y-34472023D01*
X18539723Y-34690000D01*
X18558268Y-34901980D01*
X18558793Y-34907975D01*
X18558793Y-34907979D01*
X18615422Y-35119322D01*
X18615424Y-35119326D01*
X18615425Y-35119330D01*
X18651646Y-35197006D01*
X18707897Y-35317638D01*
X18707898Y-35317639D01*
X18833402Y-35496877D01*
X18988123Y-35651598D01*
X19167360Y-35777101D01*
X19167361Y-35777102D01*
X19318583Y-35847618D01*
X19371022Y-35893790D01*
X19390174Y-35960984D01*
X19369958Y-36027865D01*
X19318583Y-36072382D01*
X19167361Y-36142898D01*
X19167357Y-36142900D01*
X18988121Y-36268402D01*
X18833402Y-36423121D01*
X18707900Y-36602357D01*
X18707898Y-36602361D01*
X18615426Y-36800668D01*
X18615422Y-36800677D01*
X18558793Y-37012020D01*
X18558793Y-37012024D01*
X18539723Y-37229997D01*
X18539723Y-37230002D01*
X18558793Y-37447975D01*
X18558793Y-37447979D01*
X18615422Y-37659322D01*
X18615424Y-37659326D01*
X18615425Y-37659330D01*
X18651646Y-37737006D01*
X18707897Y-37857638D01*
X18707898Y-37857639D01*
X18833402Y-38036877D01*
X18988123Y-38191598D01*
X19167360Y-38317101D01*
X19167361Y-38317102D01*
X19318583Y-38387618D01*
X19371022Y-38433790D01*
X19390174Y-38500984D01*
X19369958Y-38567865D01*
X19318583Y-38612382D01*
X19167361Y-38682898D01*
X19167357Y-38682900D01*
X18988121Y-38808402D01*
X18833402Y-38963121D01*
X18707900Y-39142357D01*
X18707898Y-39142361D01*
X18615426Y-39340668D01*
X18615422Y-39340677D01*
X18558793Y-39552020D01*
X18558793Y-39552024D01*
X18539723Y-39769997D01*
X18539723Y-39770002D01*
X18558793Y-39987975D01*
X18558793Y-39987979D01*
X18615422Y-40199322D01*
X18615424Y-40199326D01*
X18615425Y-40199330D01*
X18651646Y-40277006D01*
X18707897Y-40397638D01*
X18707898Y-40397639D01*
X18833402Y-40576877D01*
X18988123Y-40731598D01*
X19167360Y-40857101D01*
X19167361Y-40857102D01*
X19318583Y-40927618D01*
X19371022Y-40973790D01*
X19390174Y-41040984D01*
X19369958Y-41107865D01*
X19318583Y-41152382D01*
X19167361Y-41222898D01*
X19167357Y-41222900D01*
X18988121Y-41348402D01*
X18833402Y-41503121D01*
X18707900Y-41682357D01*
X18707898Y-41682361D01*
X18615426Y-41880668D01*
X18615422Y-41880677D01*
X18558793Y-42092020D01*
X18558793Y-42092024D01*
X18539723Y-42309997D01*
X18539723Y-42310002D01*
X18558793Y-42527975D01*
X18558793Y-42527979D01*
X18615422Y-42739322D01*
X18615424Y-42739326D01*
X18615425Y-42739330D01*
X18651646Y-42817006D01*
X18707897Y-42937638D01*
X18707898Y-42937639D01*
X18833402Y-43116877D01*
X18988123Y-43271598D01*
X19167360Y-43397101D01*
X19167361Y-43397102D01*
X19318583Y-43467618D01*
X19371022Y-43513790D01*
X19390174Y-43580984D01*
X19369958Y-43647865D01*
X19318583Y-43692382D01*
X19167361Y-43762898D01*
X19167357Y-43762900D01*
X18988121Y-43888402D01*
X18833402Y-44043121D01*
X18707900Y-44222357D01*
X18707898Y-44222361D01*
X18615426Y-44420668D01*
X18615422Y-44420677D01*
X18558793Y-44632020D01*
X18558793Y-44632024D01*
X18539723Y-44849997D01*
X18539723Y-44850002D01*
X18558793Y-45067975D01*
X18558793Y-45067979D01*
X18615422Y-45279322D01*
X18615424Y-45279326D01*
X18615425Y-45279330D01*
X18651646Y-45357006D01*
X18707897Y-45477638D01*
X18707898Y-45477639D01*
X18833402Y-45656877D01*
X18988123Y-45811598D01*
X19167360Y-45937101D01*
X19167361Y-45937102D01*
X19318583Y-46007618D01*
X19371022Y-46053790D01*
X19390174Y-46120984D01*
X19369958Y-46187865D01*
X19318583Y-46232382D01*
X19167361Y-46302898D01*
X19167357Y-46302900D01*
X18988121Y-46428402D01*
X18833402Y-46583121D01*
X18707900Y-46762357D01*
X18707898Y-46762361D01*
X18615426Y-46960668D01*
X18615422Y-46960677D01*
X18558793Y-47172020D01*
X18558793Y-47172024D01*
X18539723Y-47389997D01*
X18539723Y-47390002D01*
X18558793Y-47607975D01*
X18558793Y-47607979D01*
X18615422Y-47819322D01*
X18615424Y-47819326D01*
X18615425Y-47819330D01*
X18651646Y-47897006D01*
X18707897Y-48017638D01*
X18707898Y-48017639D01*
X18833402Y-48196877D01*
X18988123Y-48351598D01*
X19167360Y-48477101D01*
X19167361Y-48477102D01*
X19318583Y-48547618D01*
X19371022Y-48593790D01*
X19390174Y-48660984D01*
X19369958Y-48727865D01*
X19318583Y-48772382D01*
X19167361Y-48842898D01*
X19167357Y-48842900D01*
X18988121Y-48968402D01*
X18833402Y-49123121D01*
X18707900Y-49302357D01*
X18707898Y-49302361D01*
X18615426Y-49500668D01*
X18615422Y-49500677D01*
X18558793Y-49712020D01*
X18558793Y-49712024D01*
X18539723Y-49929997D01*
X18539723Y-49930002D01*
X18558793Y-50147975D01*
X18558793Y-50147979D01*
X18615422Y-50359322D01*
X18615424Y-50359326D01*
X18615425Y-50359330D01*
X18651646Y-50437006D01*
X18707897Y-50557638D01*
X18707898Y-50557639D01*
X18833402Y-50736877D01*
X18988123Y-50891598D01*
X19167360Y-51017101D01*
X19167361Y-51017102D01*
X19318583Y-51087618D01*
X19371022Y-51133790D01*
X19390174Y-51200984D01*
X19369958Y-51267865D01*
X19318583Y-51312382D01*
X19167361Y-51382898D01*
X19167357Y-51382900D01*
X18988121Y-51508402D01*
X18833402Y-51663121D01*
X18707900Y-51842357D01*
X18707898Y-51842361D01*
X18615426Y-52040668D01*
X18615422Y-52040677D01*
X18558793Y-52252020D01*
X18558793Y-52252024D01*
X18539723Y-52469997D01*
X18539723Y-52470002D01*
X18558793Y-52687975D01*
X18558793Y-52687979D01*
X18615422Y-52899322D01*
X18615424Y-52899326D01*
X18615425Y-52899330D01*
X18628365Y-52927079D01*
X18707897Y-53097638D01*
X18732998Y-53133486D01*
X18833402Y-53276877D01*
X18988123Y-53431598D01*
X19167360Y-53557101D01*
X19167361Y-53557102D01*
X19318583Y-53627618D01*
X19371022Y-53673790D01*
X19390174Y-53740984D01*
X19369958Y-53807865D01*
X19318583Y-53852382D01*
X19167361Y-53922898D01*
X19167357Y-53922900D01*
X18988121Y-54048402D01*
X18833402Y-54203121D01*
X18707900Y-54382357D01*
X18707898Y-54382361D01*
X18615426Y-54580668D01*
X18615422Y-54580677D01*
X18558793Y-54792020D01*
X18558793Y-54792023D01*
X18558114Y-54799787D01*
X18539723Y-55009997D01*
X18539723Y-55010002D01*
X17853500Y-55010002D01*
X17853500Y-31916694D01*
X18404500Y-31916694D01*
X18415726Y-32037848D01*
X18419244Y-32075810D01*
X18477596Y-32280892D01*
X18477596Y-32280894D01*
X18572632Y-32471753D01*
X18699688Y-32640000D01*
X18701128Y-32641907D01*
X18858698Y-32785552D01*
X19039981Y-32897798D01*
X19238802Y-32974821D01*
X19448390Y-33014000D01*
X19448392Y-33014000D01*
X19661608Y-33014000D01*
X19661610Y-33014000D01*
X19871198Y-32974821D01*
X20070019Y-32897798D01*
X20251302Y-32785552D01*
X20408872Y-32641907D01*
X20537366Y-32471755D01*
X20543127Y-32460185D01*
X20632403Y-32280894D01*
X20632403Y-32280893D01*
X20632405Y-32280889D01*
X20690756Y-32075810D01*
X20705500Y-31916694D01*
X20705500Y-31410306D01*
X20690756Y-31251190D01*
X20632405Y-31046111D01*
X20632403Y-31046106D01*
X20632403Y-31046105D01*
X20537367Y-30855246D01*
X20408872Y-30685093D01*
X20379383Y-30658210D01*
X20251302Y-30541448D01*
X20070019Y-30429202D01*
X20070017Y-30429201D01*
X19959020Y-30386201D01*
X19871198Y-30352179D01*
X19661610Y-30313000D01*
X19448390Y-30313000D01*
X19238802Y-30352179D01*
X19238799Y-30352179D01*
X19238799Y-30352180D01*
X19039982Y-30429201D01*
X19039980Y-30429202D01*
X18858699Y-30541447D01*
X18701127Y-30685093D01*
X18572632Y-30855246D01*
X18477596Y-31046105D01*
X18477596Y-31046107D01*
X18423786Y-31235228D01*
X18419244Y-31251190D01*
X18404500Y-31410306D01*
X18404500Y-31916694D01*
X17853500Y-31916694D01*
X17853500Y-18728544D01*
X17853797Y-18722479D01*
X17856978Y-18690182D01*
X17869420Y-18579765D01*
X17873978Y-18557666D01*
X17873979Y-18557664D01*
X17889753Y-18505661D01*
X17890543Y-18503245D01*
X17917797Y-18425357D01*
X17925462Y-18407901D01*
X17953983Y-18354541D01*
X17956107Y-18350882D01*
X17999873Y-18281228D01*
X18004426Y-18274906D01*
X18046849Y-18223213D01*
X18050890Y-18218754D01*
X18108253Y-18161391D01*
X18112713Y-18157349D01*
X18164406Y-18114926D01*
X18170728Y-18110373D01*
X18240382Y-18066607D01*
X18244041Y-18064483D01*
X18297401Y-18035962D01*
X18314857Y-18028297D01*
X18392745Y-18001043D01*
X18395147Y-18000258D01*
X18447174Y-17984475D01*
X18469265Y-17979920D01*
X18579702Y-17967476D01*
X18611979Y-17964297D01*
X18618047Y-17964000D01*
X51171952Y-17964000D01*
X51178031Y-17964299D01*
G37*
G04 #@! TD.AperFunction*
G04 #@! TA.AperFunction,NonConductor*
G36*
X37701226Y-33124150D02*
G01*
X37745573Y-33152650D01*
X37862738Y-33269816D01*
X38015478Y-33365789D01*
X38185745Y-33425367D01*
X38185745Y-33425368D01*
X38185750Y-33425369D01*
X38364997Y-33445565D01*
X38371965Y-33445565D01*
X38371965Y-33447724D01*
X38430557Y-33457986D01*
X38463302Y-33481472D01*
X38766306Y-33784476D01*
X38767777Y-33785998D01*
X38797108Y-33817403D01*
X38810245Y-33831469D01*
X38826898Y-33841596D01*
X38846213Y-33853342D01*
X38851463Y-33856914D01*
X38885025Y-33882365D01*
X38900525Y-33888477D01*
X38919453Y-33897879D01*
X38933672Y-33906526D01*
X38974213Y-33917885D01*
X38980224Y-33919907D01*
X38991226Y-33924245D01*
X39019411Y-33935360D01*
X39024314Y-33935864D01*
X39035975Y-33937063D01*
X39056749Y-33941011D01*
X39067953Y-33944150D01*
X39072772Y-33945500D01*
X39114870Y-33945500D01*
X39121211Y-33945824D01*
X39163110Y-33950132D01*
X39173068Y-33948415D01*
X39179519Y-33947303D01*
X39200587Y-33945500D01*
X41248733Y-33945500D01*
X41315772Y-33965185D01*
X41361527Y-34017989D01*
X41371471Y-34087147D01*
X41361115Y-34121902D01*
X41318365Y-34213583D01*
X41300619Y-34251639D01*
X41300615Y-34251648D01*
X41242796Y-34467433D01*
X41242794Y-34467443D01*
X41223323Y-34689999D01*
X41223323Y-34690000D01*
X41242794Y-34912556D01*
X41242796Y-34912566D01*
X41286918Y-35077231D01*
X41285255Y-35147081D01*
X41254824Y-35197005D01*
X41063648Y-35388182D01*
X41002328Y-35421666D01*
X40975969Y-35424500D01*
X28525931Y-35424500D01*
X28458892Y-35404815D01*
X28413137Y-35352011D01*
X28403193Y-35282853D01*
X28413548Y-35248096D01*
X28469382Y-35128359D01*
X28527205Y-34912561D01*
X28546677Y-34690000D01*
X28527205Y-34467439D01*
X28469382Y-34251641D01*
X28418210Y-34141903D01*
X28407719Y-34072827D01*
X28436239Y-34009043D01*
X28494715Y-33970804D01*
X28530593Y-33965500D01*
X36477203Y-33965500D01*
X36485301Y-33966030D01*
X36505718Y-33968718D01*
X36518983Y-33970465D01*
X36518984Y-33970465D01*
X36554769Y-33965754D01*
X36554793Y-33965751D01*
X36556699Y-33965500D01*
X36556704Y-33965500D01*
X36669220Y-33950687D01*
X36809217Y-33892698D01*
X36822683Y-33882365D01*
X36899252Y-33823612D01*
X36899251Y-33823612D01*
X36907344Y-33817403D01*
X36907348Y-33817398D01*
X36929435Y-33800451D01*
X36950122Y-33773489D01*
X36955464Y-33767398D01*
X37570213Y-33152649D01*
X37631534Y-33119166D01*
X37701226Y-33124150D01*
G37*
G04 #@! TD.AperFunction*
G04 #@! TA.AperFunction,NonConductor*
G36*
X46314790Y-33965185D02*
G01*
X46360545Y-34017989D01*
X46370489Y-34087147D01*
X46360133Y-34121902D01*
X46337688Y-34170036D01*
X46295425Y-34260668D01*
X46295422Y-34260677D01*
X46238793Y-34472020D01*
X46238793Y-34472023D01*
X46219723Y-34690000D01*
X46238268Y-34901980D01*
X46238793Y-34907975D01*
X46238793Y-34907979D01*
X46295422Y-35119322D01*
X46295424Y-35119326D01*
X46295425Y-35119330D01*
X46331646Y-35197006D01*
X46387897Y-35317638D01*
X46387898Y-35317639D01*
X46513402Y-35496877D01*
X46668123Y-35651598D01*
X46847361Y-35777101D01*
X46847361Y-35777102D01*
X46998583Y-35847618D01*
X47051022Y-35893790D01*
X47070174Y-35960984D01*
X47049958Y-36027865D01*
X46998583Y-36072382D01*
X46847361Y-36142898D01*
X46847357Y-36142900D01*
X46668121Y-36268402D01*
X46513402Y-36423121D01*
X46387899Y-36602359D01*
X46373655Y-36632906D01*
X46327482Y-36685345D01*
X46261273Y-36704500D01*
X45314031Y-36704500D01*
X45246992Y-36684815D01*
X45226350Y-36668181D01*
X43755175Y-35197006D01*
X43721690Y-35135683D01*
X43723080Y-35077233D01*
X43767205Y-34912561D01*
X43786677Y-34690000D01*
X43767205Y-34467439D01*
X43709382Y-34251641D01*
X43648884Y-34121903D01*
X43638393Y-34052827D01*
X43666913Y-33989043D01*
X43725389Y-33950804D01*
X43761267Y-33945500D01*
X46247751Y-33945500D01*
X46314790Y-33965185D01*
G37*
G04 #@! TD.AperFunction*
G04 #@! TA.AperFunction,NonConductor*
G36*
X41237061Y-36475536D02*
G01*
X41243099Y-36475741D01*
X41257320Y-36476227D01*
X41323647Y-36498186D01*
X41367575Y-36552519D01*
X41375155Y-36621976D01*
X41365472Y-36652559D01*
X41300620Y-36791634D01*
X41300615Y-36791648D01*
X41242796Y-37007433D01*
X41242794Y-37007443D01*
X41223323Y-37229999D01*
X41223323Y-37230000D01*
X41242794Y-37452556D01*
X41242796Y-37452566D01*
X41286918Y-37617231D01*
X41285255Y-37687081D01*
X41254824Y-37737005D01*
X41063648Y-37928182D01*
X41002328Y-37961666D01*
X40975969Y-37964500D01*
X28525931Y-37964500D01*
X28458892Y-37944815D01*
X28413137Y-37892011D01*
X28403193Y-37822853D01*
X28413548Y-37788096D01*
X28469382Y-37668359D01*
X28527205Y-37452561D01*
X28546677Y-37230000D01*
X28527205Y-37007439D01*
X28469382Y-36791641D01*
X28404221Y-36651903D01*
X28393730Y-36582827D01*
X28422250Y-36519043D01*
X28480726Y-36480804D01*
X28516604Y-36475500D01*
X41234947Y-36475500D01*
X41237061Y-36475536D01*
G37*
G04 #@! TD.AperFunction*
G04 #@! TA.AperFunction,NonConductor*
G36*
X43963230Y-36893603D02*
G01*
X43978186Y-36906356D01*
X44666321Y-37594490D01*
X44667764Y-37595983D01*
X44710243Y-37641468D01*
X44710245Y-37641469D01*
X44746222Y-37663346D01*
X44751466Y-37666915D01*
X44785025Y-37692364D01*
X44800512Y-37698471D01*
X44819452Y-37707878D01*
X44833669Y-37716524D01*
X44833672Y-37716526D01*
X44858409Y-37723457D01*
X44874218Y-37727887D01*
X44880235Y-37729910D01*
X44919410Y-37745359D01*
X44935977Y-37747061D01*
X44956741Y-37751008D01*
X44972772Y-37755500D01*
X45014879Y-37755500D01*
X45021220Y-37755824D01*
X45063109Y-37760131D01*
X45079513Y-37757302D01*
X45100579Y-37755500D01*
X46261274Y-37755500D01*
X46328313Y-37775185D01*
X46373655Y-37827094D01*
X46387898Y-37857639D01*
X46513402Y-38036877D01*
X46668123Y-38191598D01*
X46847361Y-38317101D01*
X46847361Y-38317102D01*
X46998583Y-38387618D01*
X47051022Y-38433790D01*
X47070174Y-38500984D01*
X47049958Y-38567865D01*
X46998583Y-38612382D01*
X46847361Y-38682898D01*
X46847357Y-38682900D01*
X46668121Y-38808402D01*
X46513402Y-38963121D01*
X46387899Y-39142359D01*
X46373655Y-39172906D01*
X46327482Y-39225345D01*
X46261273Y-39244500D01*
X45314031Y-39244500D01*
X45246992Y-39224815D01*
X45226350Y-39208181D01*
X43755175Y-37737006D01*
X43721690Y-37675683D01*
X43723080Y-37617233D01*
X43767205Y-37452561D01*
X43786677Y-37230000D01*
X43767205Y-37007439D01*
X43767203Y-37007433D01*
X43766977Y-37004845D01*
X43780743Y-36936345D01*
X43829358Y-36886162D01*
X43897387Y-36870228D01*
X43963230Y-36893603D01*
G37*
G04 #@! TD.AperFunction*
G04 #@! TA.AperFunction,NonConductor*
G36*
X41237061Y-39015536D02*
G01*
X41243099Y-39015741D01*
X41257320Y-39016227D01*
X41323647Y-39038186D01*
X41367575Y-39092519D01*
X41375155Y-39161976D01*
X41365472Y-39192559D01*
X41300620Y-39331634D01*
X41300615Y-39331648D01*
X41242796Y-39547433D01*
X41242794Y-39547443D01*
X41223323Y-39769999D01*
X41223323Y-39770000D01*
X41242794Y-39992556D01*
X41242795Y-39992563D01*
X41286918Y-40157229D01*
X41285255Y-40227079D01*
X41254825Y-40277004D01*
X41178977Y-40352853D01*
X41109820Y-40422011D01*
X41073650Y-40458181D01*
X41012327Y-40491666D01*
X40985968Y-40494500D01*
X28530594Y-40494500D01*
X28463555Y-40474815D01*
X28417800Y-40422011D01*
X28407856Y-40352853D01*
X28418211Y-40318096D01*
X28469382Y-40208359D01*
X28527205Y-39992561D01*
X28546677Y-39770000D01*
X28527205Y-39547439D01*
X28469382Y-39331641D01*
X28404221Y-39191903D01*
X28393730Y-39122827D01*
X28422250Y-39059043D01*
X28480726Y-39020804D01*
X28516604Y-39015500D01*
X41234947Y-39015500D01*
X41237061Y-39015536D01*
G37*
G04 #@! TD.AperFunction*
G04 #@! TA.AperFunction,NonConductor*
G36*
X43963230Y-39433603D02*
G01*
X43978186Y-39446356D01*
X44666321Y-40134490D01*
X44667764Y-40135983D01*
X44710243Y-40181468D01*
X44710245Y-40181469D01*
X44746222Y-40203346D01*
X44751466Y-40206915D01*
X44785025Y-40232364D01*
X44800512Y-40238471D01*
X44819452Y-40247878D01*
X44833669Y-40256524D01*
X44833672Y-40256526D01*
X44858409Y-40263457D01*
X44874218Y-40267887D01*
X44880235Y-40269910D01*
X44919410Y-40285359D01*
X44935977Y-40287061D01*
X44956741Y-40291008D01*
X44972772Y-40295500D01*
X45014879Y-40295500D01*
X45021220Y-40295824D01*
X45063109Y-40300131D01*
X45079513Y-40297302D01*
X45100579Y-40295500D01*
X46261274Y-40295500D01*
X46328313Y-40315185D01*
X46373655Y-40367094D01*
X46387898Y-40397639D01*
X46513402Y-40576877D01*
X46668123Y-40731598D01*
X46847361Y-40857101D01*
X46847361Y-40857102D01*
X46998583Y-40927618D01*
X47051022Y-40973790D01*
X47070174Y-41040984D01*
X47049958Y-41107865D01*
X46998583Y-41152382D01*
X46847361Y-41222898D01*
X46847357Y-41222900D01*
X46668121Y-41348402D01*
X46513402Y-41503121D01*
X46387899Y-41682359D01*
X46373655Y-41712906D01*
X46327482Y-41765345D01*
X46261273Y-41784500D01*
X45314031Y-41784500D01*
X45246992Y-41764815D01*
X45226350Y-41748181D01*
X43755175Y-40277006D01*
X43721690Y-40215683D01*
X43723080Y-40157233D01*
X43767205Y-39992561D01*
X43786677Y-39770000D01*
X43767205Y-39547439D01*
X43767203Y-39547433D01*
X43766977Y-39544845D01*
X43780743Y-39476345D01*
X43829358Y-39426162D01*
X43897387Y-39410228D01*
X43963230Y-39433603D01*
G37*
G04 #@! TD.AperFunction*
G04 #@! TA.AperFunction,NonConductor*
G36*
X41247063Y-41545536D02*
G01*
X41253710Y-41545762D01*
X41262066Y-41546048D01*
X41328395Y-41568008D01*
X41372322Y-41622342D01*
X41379900Y-41691800D01*
X41370219Y-41722380D01*
X41300617Y-41871643D01*
X41300615Y-41871648D01*
X41242796Y-42087433D01*
X41242794Y-42087443D01*
X41223323Y-42309999D01*
X41223323Y-42310000D01*
X41242794Y-42532556D01*
X41242796Y-42532566D01*
X41286918Y-42697231D01*
X41285255Y-42767081D01*
X41254824Y-42817005D01*
X41063648Y-43008182D01*
X41002328Y-43041666D01*
X40975969Y-43044500D01*
X28525931Y-43044500D01*
X28458892Y-43024815D01*
X28413137Y-42972011D01*
X28403193Y-42902853D01*
X28413548Y-42868096D01*
X28469382Y-42748359D01*
X28527205Y-42532561D01*
X28546677Y-42310000D01*
X28527205Y-42087439D01*
X28469382Y-41871641D01*
X28399558Y-41721903D01*
X28389067Y-41652827D01*
X28417587Y-41589043D01*
X28476064Y-41550804D01*
X28511941Y-41545500D01*
X41244948Y-41545500D01*
X41247063Y-41545536D01*
G37*
G04 #@! TD.AperFunction*
G04 #@! TA.AperFunction,NonConductor*
G36*
X43963230Y-41973603D02*
G01*
X43978186Y-41986356D01*
X44666321Y-42674490D01*
X44667764Y-42675983D01*
X44710243Y-42721468D01*
X44710245Y-42721469D01*
X44746222Y-42743346D01*
X44751466Y-42746915D01*
X44785025Y-42772364D01*
X44800512Y-42778471D01*
X44819452Y-42787878D01*
X44833669Y-42796524D01*
X44833672Y-42796526D01*
X44858409Y-42803457D01*
X44874218Y-42807887D01*
X44880235Y-42809910D01*
X44919410Y-42825359D01*
X44935977Y-42827061D01*
X44956741Y-42831008D01*
X44972772Y-42835500D01*
X45014879Y-42835500D01*
X45021220Y-42835824D01*
X45063109Y-42840131D01*
X45079513Y-42837302D01*
X45100579Y-42835500D01*
X46261274Y-42835500D01*
X46328313Y-42855185D01*
X46373655Y-42907094D01*
X46387898Y-42937639D01*
X46513402Y-43116877D01*
X46668123Y-43271598D01*
X46847361Y-43397101D01*
X46847361Y-43397102D01*
X46998583Y-43467618D01*
X47051022Y-43513790D01*
X47070174Y-43580984D01*
X47049958Y-43647865D01*
X46998583Y-43692382D01*
X46847361Y-43762898D01*
X46847357Y-43762900D01*
X46668121Y-43888402D01*
X46513402Y-44043121D01*
X46387899Y-44222359D01*
X46373655Y-44252906D01*
X46327482Y-44305345D01*
X46261273Y-44324500D01*
X45314031Y-44324500D01*
X45246992Y-44304815D01*
X45226350Y-44288181D01*
X43755175Y-42817006D01*
X43721690Y-42755683D01*
X43723080Y-42697233D01*
X43767205Y-42532561D01*
X43786677Y-42310000D01*
X43767205Y-42087439D01*
X43767203Y-42087433D01*
X43766977Y-42084845D01*
X43780743Y-42016345D01*
X43829358Y-41966162D01*
X43897387Y-41950228D01*
X43963230Y-41973603D01*
G37*
G04 #@! TD.AperFunction*
G04 #@! TA.AperFunction,NonConductor*
G36*
X41237061Y-44095536D02*
G01*
X41243099Y-44095741D01*
X41257320Y-44096227D01*
X41323647Y-44118186D01*
X41367575Y-44172519D01*
X41375155Y-44241976D01*
X41365472Y-44272559D01*
X41300620Y-44411634D01*
X41300615Y-44411648D01*
X41242796Y-44627433D01*
X41242794Y-44627443D01*
X41223323Y-44849999D01*
X41223323Y-44850000D01*
X41242794Y-45072556D01*
X41242796Y-45072566D01*
X41286918Y-45237231D01*
X41285255Y-45307081D01*
X41254824Y-45357005D01*
X41063648Y-45548182D01*
X41002328Y-45581666D01*
X40975969Y-45584500D01*
X28525931Y-45584500D01*
X28458892Y-45564815D01*
X28413137Y-45512011D01*
X28403193Y-45442853D01*
X28413548Y-45408096D01*
X28469382Y-45288359D01*
X28527205Y-45072561D01*
X28546677Y-44850000D01*
X28527205Y-44627439D01*
X28469382Y-44411641D01*
X28404221Y-44271903D01*
X28393730Y-44202827D01*
X28422250Y-44139043D01*
X28480726Y-44100804D01*
X28516604Y-44095500D01*
X41234947Y-44095500D01*
X41237061Y-44095536D01*
G37*
G04 #@! TD.AperFunction*
G04 #@! TA.AperFunction,NonConductor*
G36*
X43963230Y-44513603D02*
G01*
X43978186Y-44526356D01*
X44666321Y-45214490D01*
X44667764Y-45215983D01*
X44710243Y-45261468D01*
X44710245Y-45261469D01*
X44746222Y-45283346D01*
X44751466Y-45286915D01*
X44785025Y-45312364D01*
X44800512Y-45318471D01*
X44819452Y-45327878D01*
X44833669Y-45336524D01*
X44833672Y-45336526D01*
X44858402Y-45343455D01*
X44874218Y-45347887D01*
X44880235Y-45349910D01*
X44919410Y-45365359D01*
X44935977Y-45367061D01*
X44956741Y-45371008D01*
X44972772Y-45375500D01*
X45014879Y-45375500D01*
X45021220Y-45375824D01*
X45063109Y-45380131D01*
X45079513Y-45377302D01*
X45100579Y-45375500D01*
X46261274Y-45375500D01*
X46328313Y-45395185D01*
X46373655Y-45447094D01*
X46387898Y-45477639D01*
X46513402Y-45656877D01*
X46668123Y-45811598D01*
X46847360Y-45937101D01*
X46847361Y-45937102D01*
X46998583Y-46007618D01*
X47051022Y-46053790D01*
X47070174Y-46120984D01*
X47049958Y-46187865D01*
X46998583Y-46232382D01*
X46847361Y-46302898D01*
X46847357Y-46302900D01*
X46668121Y-46428402D01*
X46513402Y-46583121D01*
X46387899Y-46762359D01*
X46373655Y-46792906D01*
X46327482Y-46845345D01*
X46261273Y-46864500D01*
X45314031Y-46864500D01*
X45246992Y-46844815D01*
X45226350Y-46828181D01*
X43755175Y-45357006D01*
X43721690Y-45295683D01*
X43723080Y-45237233D01*
X43767205Y-45072561D01*
X43786677Y-44850000D01*
X43767205Y-44627439D01*
X43767203Y-44627433D01*
X43766977Y-44624845D01*
X43780743Y-44556345D01*
X43829358Y-44506162D01*
X43897387Y-44490228D01*
X43963230Y-44513603D01*
G37*
G04 #@! TD.AperFunction*
G04 #@! TA.AperFunction,NonConductor*
G36*
X41237061Y-46635536D02*
G01*
X41243099Y-46635741D01*
X41257320Y-46636227D01*
X41323647Y-46658186D01*
X41367575Y-46712519D01*
X41375155Y-46781976D01*
X41365472Y-46812559D01*
X41300620Y-46951634D01*
X41300615Y-46951648D01*
X41242796Y-47167433D01*
X41242794Y-47167443D01*
X41223323Y-47389999D01*
X41223323Y-47390000D01*
X41242794Y-47612556D01*
X41242796Y-47612566D01*
X41286918Y-47777231D01*
X41285255Y-47847081D01*
X41254824Y-47897005D01*
X41063648Y-48088182D01*
X41002328Y-48121666D01*
X40975969Y-48124500D01*
X28525931Y-48124500D01*
X28458892Y-48104815D01*
X28413137Y-48052011D01*
X28403193Y-47982853D01*
X28413548Y-47948096D01*
X28469382Y-47828359D01*
X28527205Y-47612561D01*
X28546677Y-47390000D01*
X28527205Y-47167439D01*
X28469382Y-46951641D01*
X28404221Y-46811903D01*
X28393730Y-46742827D01*
X28422250Y-46679043D01*
X28480726Y-46640804D01*
X28516604Y-46635500D01*
X41234947Y-46635500D01*
X41237061Y-46635536D01*
G37*
G04 #@! TD.AperFunction*
G04 #@! TA.AperFunction,NonConductor*
G36*
X43963230Y-47053603D02*
G01*
X43978186Y-47066356D01*
X44666321Y-47754490D01*
X44667764Y-47755983D01*
X44710243Y-47801468D01*
X44710245Y-47801469D01*
X44746222Y-47823346D01*
X44751466Y-47826915D01*
X44785025Y-47852364D01*
X44800512Y-47858471D01*
X44819452Y-47867878D01*
X44833669Y-47876524D01*
X44833672Y-47876526D01*
X44858409Y-47883457D01*
X44874218Y-47887887D01*
X44880235Y-47889910D01*
X44919410Y-47905359D01*
X44935977Y-47907061D01*
X44956741Y-47911008D01*
X44972772Y-47915500D01*
X45014879Y-47915500D01*
X45021220Y-47915824D01*
X45063109Y-47920131D01*
X45079513Y-47917302D01*
X45100579Y-47915500D01*
X46261274Y-47915500D01*
X46328313Y-47935185D01*
X46373655Y-47987094D01*
X46387898Y-48017639D01*
X46513402Y-48196877D01*
X46668123Y-48351598D01*
X46847360Y-48477101D01*
X46847361Y-48477102D01*
X46998583Y-48547618D01*
X47051022Y-48593790D01*
X47070174Y-48660984D01*
X47049958Y-48727865D01*
X46998583Y-48772382D01*
X46847361Y-48842898D01*
X46847357Y-48842900D01*
X46668121Y-48968402D01*
X46513402Y-49123121D01*
X46387899Y-49302359D01*
X46373655Y-49332906D01*
X46327482Y-49385345D01*
X46261273Y-49404500D01*
X45314031Y-49404500D01*
X45246992Y-49384815D01*
X45226350Y-49368181D01*
X43755175Y-47897006D01*
X43721690Y-47835683D01*
X43723080Y-47777233D01*
X43767205Y-47612561D01*
X43786677Y-47390000D01*
X43767205Y-47167439D01*
X43767203Y-47167433D01*
X43766977Y-47164845D01*
X43780743Y-47096345D01*
X43829358Y-47046162D01*
X43897387Y-47030228D01*
X43963230Y-47053603D01*
G37*
G04 #@! TD.AperFunction*
G04 #@! TA.AperFunction,NonConductor*
G36*
X41237061Y-49175536D02*
G01*
X41243099Y-49175741D01*
X41257320Y-49176227D01*
X41323647Y-49198186D01*
X41367575Y-49252519D01*
X41375155Y-49321976D01*
X41365472Y-49352559D01*
X41300620Y-49491634D01*
X41300615Y-49491648D01*
X41242796Y-49707433D01*
X41242794Y-49707443D01*
X41223323Y-49929999D01*
X41223323Y-49930000D01*
X41242794Y-50152556D01*
X41242796Y-50152566D01*
X41286918Y-50317231D01*
X41285255Y-50387081D01*
X41254824Y-50437005D01*
X41043648Y-50648182D01*
X40982328Y-50681666D01*
X40955969Y-50684500D01*
X28516604Y-50684500D01*
X28449565Y-50664815D01*
X28403810Y-50612011D01*
X28393866Y-50542853D01*
X28404220Y-50508099D01*
X28469382Y-50368359D01*
X28527205Y-50152561D01*
X28546677Y-49930000D01*
X28527205Y-49707439D01*
X28469382Y-49491641D01*
X28404221Y-49351903D01*
X28393730Y-49282827D01*
X28422250Y-49219043D01*
X28480726Y-49180804D01*
X28516604Y-49175500D01*
X41234947Y-49175500D01*
X41237061Y-49175536D01*
G37*
G04 #@! TD.AperFunction*
G04 #@! TA.AperFunction,NonConductor*
G36*
X43963230Y-49593603D02*
G01*
X43978186Y-49606356D01*
X44666321Y-50294490D01*
X44667764Y-50295983D01*
X44710243Y-50341468D01*
X44710245Y-50341469D01*
X44746222Y-50363346D01*
X44751466Y-50366915D01*
X44785025Y-50392364D01*
X44800512Y-50398471D01*
X44819452Y-50407878D01*
X44833669Y-50416524D01*
X44833672Y-50416526D01*
X44858409Y-50423457D01*
X44874218Y-50427887D01*
X44880235Y-50429910D01*
X44919410Y-50445359D01*
X44935977Y-50447061D01*
X44956741Y-50451008D01*
X44972772Y-50455500D01*
X45014879Y-50455500D01*
X45021220Y-50455824D01*
X45063109Y-50460131D01*
X45079513Y-50457302D01*
X45100579Y-50455500D01*
X46261274Y-50455500D01*
X46328313Y-50475185D01*
X46373655Y-50527094D01*
X46387898Y-50557639D01*
X46513402Y-50736877D01*
X46668123Y-50891598D01*
X46847360Y-51017101D01*
X46847361Y-51017102D01*
X46998583Y-51087618D01*
X47051022Y-51133790D01*
X47070174Y-51200984D01*
X47049958Y-51267865D01*
X46998583Y-51312382D01*
X46847361Y-51382898D01*
X46847357Y-51382900D01*
X46668121Y-51508402D01*
X46513402Y-51663121D01*
X46387899Y-51842359D01*
X46373655Y-51872906D01*
X46327482Y-51925345D01*
X46261273Y-51944500D01*
X45314031Y-51944500D01*
X45246992Y-51924815D01*
X45226350Y-51908181D01*
X43755175Y-50437006D01*
X43721690Y-50375683D01*
X43723080Y-50317233D01*
X43767205Y-50152561D01*
X43786677Y-49930000D01*
X43767205Y-49707439D01*
X43767203Y-49707433D01*
X43766977Y-49704845D01*
X43780743Y-49636345D01*
X43829358Y-49586162D01*
X43897387Y-49570228D01*
X43963230Y-49593603D01*
G37*
G04 #@! TD.AperFunction*
G04 #@! TA.AperFunction,NonConductor*
G36*
X41217063Y-51735536D02*
G01*
X41224922Y-51735804D01*
X41247828Y-51736586D01*
X41314155Y-51758546D01*
X41358082Y-51812880D01*
X41365660Y-51882338D01*
X41355979Y-51912918D01*
X41300617Y-52031643D01*
X41300615Y-52031648D01*
X41242796Y-52247433D01*
X41242794Y-52247443D01*
X41223323Y-52469999D01*
X41223323Y-52470000D01*
X41242794Y-52692556D01*
X41242795Y-52692563D01*
X41286918Y-52857229D01*
X41285255Y-52927079D01*
X41254824Y-52977004D01*
X40333650Y-53898181D01*
X40272327Y-53931666D01*
X40245969Y-53934500D01*
X27674460Y-53934500D01*
X27607421Y-53914815D01*
X27561666Y-53862011D01*
X27551722Y-53792853D01*
X27580747Y-53729297D01*
X27639525Y-53691523D01*
X27642367Y-53690725D01*
X27678899Y-53680935D01*
X27703359Y-53674382D01*
X27905839Y-53579965D01*
X28088846Y-53451822D01*
X28246822Y-53293846D01*
X28374965Y-53110839D01*
X28469382Y-52908359D01*
X28527205Y-52692561D01*
X28546677Y-52470000D01*
X28527205Y-52247439D01*
X28469382Y-52031641D01*
X28413547Y-51911903D01*
X28403056Y-51842827D01*
X28431576Y-51779043D01*
X28490052Y-51740804D01*
X28525930Y-51735500D01*
X41214948Y-51735500D01*
X41217063Y-51735536D01*
G37*
G04 #@! TD.AperFunction*
G04 #@! TA.AperFunction,NonConductor*
G36*
X43963230Y-52133603D02*
G01*
X43978186Y-52146356D01*
X44666321Y-52834490D01*
X44667764Y-52835983D01*
X44710243Y-52881468D01*
X44710245Y-52881469D01*
X44746222Y-52903346D01*
X44751466Y-52906915D01*
X44785025Y-52932364D01*
X44800512Y-52938471D01*
X44819452Y-52947878D01*
X44833669Y-52956524D01*
X44833672Y-52956526D01*
X44858409Y-52963457D01*
X44874218Y-52967887D01*
X44880235Y-52969910D01*
X44919410Y-52985359D01*
X44935977Y-52987061D01*
X44956741Y-52991008D01*
X44972772Y-52995500D01*
X45014879Y-52995500D01*
X45021220Y-52995824D01*
X45063109Y-53000131D01*
X45079513Y-52997302D01*
X45100579Y-52995500D01*
X46261274Y-52995500D01*
X46328313Y-53015185D01*
X46373655Y-53067094D01*
X46387898Y-53097639D01*
X46513402Y-53276877D01*
X46668123Y-53431598D01*
X46847360Y-53557101D01*
X46847361Y-53557102D01*
X46998583Y-53627618D01*
X47051022Y-53673790D01*
X47070174Y-53740984D01*
X47049958Y-53807865D01*
X46998583Y-53852382D01*
X46847361Y-53922898D01*
X46847357Y-53922900D01*
X46668121Y-54048402D01*
X46513402Y-54203121D01*
X46387899Y-54382359D01*
X46373655Y-54412906D01*
X46327482Y-54465345D01*
X46261273Y-54484500D01*
X45314031Y-54484500D01*
X45246992Y-54464815D01*
X45226350Y-54448181D01*
X43755175Y-52977006D01*
X43721690Y-52915683D01*
X43723080Y-52857233D01*
X43767205Y-52692561D01*
X43786677Y-52470000D01*
X43767205Y-52247439D01*
X43767203Y-52247433D01*
X43766977Y-52244845D01*
X43780743Y-52176345D01*
X43829358Y-52126162D01*
X43897387Y-52110228D01*
X43963230Y-52133603D01*
G37*
G04 #@! TD.AperFunction*
M02*
