M48
; DRILL file {KiCad 7.0.5} date Tue Aug 29 01:15:49 2023
; FORMAT={-:-/ absolute / metric / decimal}
; #@! TF.CreationDate,2023-08-29T01:15:49+08:00
; #@! TF.GenerationSoftware,Kicad,Pcbnew,7.0.5
; #@! TF.FileFunction,Plated,1,2,PTH
FMAT,2
METRIC
; #@! TA.AperFunction,Plated,PTH,ViaDrill
T1C0.400
; #@! TA.AperFunction,Plated,PTH,ComponentDrill
T2C0.900
; #@! TA.AperFunction,Plated,PTH,ComponentDrill
T3C1.000
; #@! TA.AperFunction,Plated,PTH,ComponentDrill
T4C1.092
; #@! TA.AperFunction,Plated,PTH,ComponentDrill
T5C1.200
%
G90
G05
T1
X31.02Y-29.124
X31.055Y-54.131
X32.845Y-61.165
X34.885Y-31.15
X34.885Y-33.15
X36.56Y-28.34
X38.324Y-53.169
X39.79Y-52.34
X39.97Y-23.32
X40.91Y-54.29
T3
X19.795Y-34.69
X19.795Y-37.23
X19.795Y-39.77
X19.795Y-42.31
X19.795Y-44.85
X19.795Y-47.39
X19.795Y-49.93
X19.795Y-52.47
X19.795Y-55.01
X22.335Y-34.69
X22.335Y-37.23
X22.335Y-39.77
X22.335Y-42.31
X22.335Y-44.85
X22.335Y-47.39
X22.335Y-49.93
X22.335Y-52.47
X22.335Y-55.01
X47.475Y-34.69
X47.475Y-37.23
X47.475Y-39.77
X47.475Y-42.31
X47.475Y-44.85
X47.475Y-47.39
X47.475Y-49.93
X47.475Y-52.47
X47.475Y-55.01
X50.015Y-34.69
X50.015Y-37.23
X50.015Y-39.77
X50.015Y-42.31
X50.015Y-44.85
X50.015Y-47.39
X50.015Y-49.93
X50.015Y-52.47
X50.015Y-55.01
T4
X27.265Y-24.53
X27.265Y-27.07
X27.265Y-29.61
X27.265Y-32.15
X27.265Y-34.69
X27.265Y-37.23
X27.265Y-39.77
X27.265Y-42.31
X27.265Y-44.85
X27.265Y-47.39
X27.265Y-49.93
X27.265Y-52.47
X42.505Y-24.53
X42.505Y-27.07
X42.505Y-29.61
X42.505Y-32.15
X42.505Y-34.69
X42.505Y-37.23
X42.505Y-39.77
X42.505Y-42.31
X42.505Y-44.85
X42.505Y-47.39
X42.505Y-49.93
X42.505Y-52.47
T5
X34.9Y-57.09
X34.9Y-63.59
T2
X19.549Y-23.338G85X19.549Y-23.738
G05
X19.549Y-26.386G85X19.549Y-26.787
G05
X19.549Y-30.458G85X19.549Y-31.858
G05
X23.23Y-63.576G85X23.63Y-63.576
G05
X23.255Y-58.964G85X23.655Y-58.964
G05
X24.161Y-23.363G85X24.161Y-23.764
G05
X24.161Y-26.363G85X24.161Y-26.764
G05
X24.161Y-30.463G85X24.161Y-31.863
G05
X26.255Y-58.964G85X26.655Y-58.964
G05
X26.278Y-63.576G85X26.678Y-63.576
G05
X30.35Y-63.576G85X31.75Y-63.576
G05
X30.355Y-58.964G85X31.755Y-58.964
G05
X39.435Y-63.576G85X38.035Y-63.576
G05
X39.44Y-58.964G85X38.04Y-58.964
G05
X43.512Y-58.964G85X43.112Y-58.964
G05
X43.535Y-63.576G85X43.135Y-63.576
G05
X45.629Y-23.338G85X45.629Y-23.738
G05
X45.629Y-26.386G85X45.629Y-26.787
G05
X45.629Y-30.458G85X45.629Y-31.858
G05
X46.535Y-63.576G85X46.135Y-63.576
G05
X46.56Y-58.964G85X46.16Y-58.964
G05
X50.241Y-23.363G85X50.241Y-23.764
G05
X50.241Y-26.363G85X50.241Y-26.764
G05
X50.241Y-30.463G85X50.241Y-31.863
G05
T0
M30
