G04 #@! TF.GenerationSoftware,KiCad,Pcbnew,7.0.5*
G04 #@! TF.CreationDate,2023-06-20T10:51:48+08:00*
G04 #@! TF.ProjectId,handwire microboard,68616e64-7769-4726-9520-6d6963726f62,rev?*
G04 #@! TF.SameCoordinates,Original*
G04 #@! TF.FileFunction,Copper,L2,Bot*
G04 #@! TF.FilePolarity,Positive*
%FSLAX46Y46*%
G04 Gerber Fmt 4.6, Leading zero omitted, Abs format (unit mm)*
G04 Created by KiCad (PCBNEW 7.0.5) date 2023-06-20 10:51:48*
%MOMM*%
%LPD*%
G01*
G04 APERTURE LIST*
G04 Aperture macros list*
%AMRoundRect*
0 Rectangle with rounded corners*
0 $1 Rounding radius*
0 $2 $3 $4 $5 $6 $7 $8 $9 X,Y pos of 4 corners*
0 Add a 4 corners polygon primitive as box body*
4,1,4,$2,$3,$4,$5,$6,$7,$8,$9,$2,$3,0*
0 Add four circle primitives for the rounded corners*
1,1,$1+$1,$2,$3*
1,1,$1+$1,$4,$5*
1,1,$1+$1,$6,$7*
1,1,$1+$1,$8,$9*
0 Add four rect primitives between the rounded corners*
20,1,$1+$1,$2,$3,$4,$5,0*
20,1,$1+$1,$4,$5,$6,$7,0*
20,1,$1+$1,$6,$7,$8,$9,0*
20,1,$1+$1,$8,$9,$2,$3,0*%
%AMOutline4P*
0 Free polygon, 4 corners , with rotation*
0 The origin of the aperture is its center*
0 number of corners: always 4*
0 $1 to $8 corner X, Y*
0 $9 Rotation angle, in degrees counterclockwise*
0 create outline with 4 corners*
4,1,4,$1,$2,$3,$4,$5,$6,$7,$8,$1,$2,$9*%
G04 Aperture macros list end*
G04 #@! TA.AperFunction,ComponentPad*
%ADD10O,1.576000X3.029000*%
G04 #@! TD*
G04 #@! TA.AperFunction,ComponentPad*
%ADD11O,1.600000X2.000000*%
G04 #@! TD*
G04 #@! TA.AperFunction,ComponentPad*
%ADD12C,1.700000*%
G04 #@! TD*
G04 #@! TA.AperFunction,ComponentPad*
%ADD13O,1.700000X1.700000*%
G04 #@! TD*
G04 #@! TA.AperFunction,ComponentPad*
%ADD14Outline4P,-0.850000X-0.850000X0.850000X-0.850000X0.850000X0.850000X-0.850000X0.850000X90.000000*%
G04 #@! TD*
G04 #@! TA.AperFunction,ComponentPad*
%ADD15C,2.000000*%
G04 #@! TD*
G04 #@! TA.AperFunction,ComponentPad*
%ADD16C,1.752600*%
G04 #@! TD*
G04 #@! TA.AperFunction,ComponentPad*
%ADD17Outline4P,-0.876300X-0.876300X0.876300X-0.876300X0.876300X0.876300X-0.876300X0.876300X270.000000*%
G04 #@! TD*
G04 #@! TA.AperFunction,ComponentPad*
%ADD18R,1.752600X1.752600*%
G04 #@! TD*
G04 #@! TA.AperFunction,ComponentPad*
%ADD19RoundRect,0.438150X-0.438150X0.438150X-0.438150X-0.438150X0.438150X-0.438150X0.438150X0.438150X0*%
G04 #@! TD*
G04 #@! TA.AperFunction,ComponentPad*
%ADD20O,3.029000X1.576000*%
G04 #@! TD*
G04 #@! TA.AperFunction,ComponentPad*
%ADD21O,2.000000X1.600000*%
G04 #@! TD*
G04 #@! TA.AperFunction,Conductor*
%ADD22C,0.250000*%
G04 #@! TD*
G04 APERTURE END LIST*
D10*
X109663200Y-95057850D03*
X114263200Y-95062850D03*
D11*
X109677200Y-90485850D03*
X114263200Y-90462850D03*
X109677200Y-87437850D03*
X114263200Y-87462850D03*
D12*
X87833200Y-118795800D03*
D13*
X90373200Y-118795800D03*
X92913200Y-118795800D03*
X95453200Y-118795800D03*
X97993200Y-118795800D03*
X100533200Y-118795800D03*
X103073200Y-118795800D03*
X105613200Y-118795800D03*
X108153200Y-118795800D03*
D14*
X110693200Y-118795800D03*
D12*
X110634400Y-102387400D03*
D13*
X110634400Y-104927400D03*
X110634400Y-107467400D03*
X110634400Y-110007400D03*
X110634400Y-112547400D03*
X110634400Y-115087400D03*
D15*
X106830000Y-126913200D03*
X100330000Y-126913200D03*
X106830000Y-122413200D03*
X100330000Y-122413200D03*
D16*
X91567000Y-87152950D03*
X91567000Y-89692950D03*
D17*
X91567000Y-92232950D03*
D18*
X91567000Y-94772950D03*
D16*
X91567000Y-97312950D03*
X91567000Y-99852950D03*
X91567000Y-102392950D03*
X91567000Y-104932950D03*
X91567000Y-107472950D03*
X91567000Y-110012950D03*
X91567000Y-112552950D03*
X91567000Y-115092950D03*
X106807000Y-115092950D03*
X106807000Y-112552950D03*
X106807000Y-110012950D03*
X106807000Y-107472950D03*
X106807000Y-104932950D03*
X106807000Y-102392950D03*
X106807000Y-99852950D03*
X106807000Y-97312950D03*
D19*
X106807000Y-94772950D03*
D16*
X106807000Y-92232950D03*
D17*
X106807000Y-89692950D03*
D16*
X106807000Y-87152950D03*
X94107000Y-115092950D03*
X96647000Y-115092950D03*
X99187000Y-115092950D03*
X101727000Y-115092950D03*
X104267000Y-115092950D03*
D12*
X84056600Y-115138200D03*
D13*
X84056600Y-112598200D03*
X84056600Y-110058200D03*
X84056600Y-107518200D03*
X84056600Y-104978200D03*
X84056600Y-102438200D03*
X84056600Y-99898200D03*
D12*
X114266600Y-115138200D03*
D13*
X114266600Y-112598200D03*
X114266600Y-110058200D03*
X114266600Y-107518200D03*
X114266600Y-104978200D03*
X114266600Y-102438200D03*
X114266600Y-99898200D03*
D20*
X95472250Y-127090200D03*
X95477250Y-122490200D03*
D21*
X90900250Y-127076200D03*
X90877250Y-122490200D03*
X87852250Y-127076200D03*
X87877250Y-122490200D03*
D12*
X87739600Y-102362000D03*
D13*
X87739600Y-104902000D03*
X87739600Y-107442000D03*
X87739600Y-109982000D03*
X87739600Y-112522000D03*
X87739600Y-115062000D03*
D22*
X89001600Y-89718350D02*
X89001600Y-117627400D01*
X91567000Y-87152950D02*
X89001600Y-89718350D01*
X89001600Y-117627400D02*
X87833200Y-118795800D01*
X89901600Y-116774800D02*
X90373200Y-117246400D01*
X90373200Y-117246400D02*
X90373200Y-118795800D01*
X89901600Y-98978350D02*
X89901600Y-116774800D01*
X91567000Y-97312950D02*
X89901600Y-98978350D01*
X94107000Y-115092950D02*
X92913200Y-116286750D01*
X92913200Y-116286750D02*
X92913200Y-118795800D01*
X95453200Y-116286750D02*
X95453200Y-118795800D01*
X96647000Y-115092950D02*
X95453200Y-116286750D01*
X97993200Y-116286750D02*
X97993200Y-118795800D01*
X99187000Y-115092950D02*
X97993200Y-116286750D01*
X101727000Y-115092950D02*
X100533200Y-116286750D01*
X100533200Y-116286750D02*
X100533200Y-118795800D01*
X103073200Y-116286750D02*
X103073200Y-118795800D01*
X104267000Y-115092950D02*
X103073200Y-116286750D01*
X106807000Y-97312950D02*
X105511600Y-98608350D01*
X105511600Y-98608350D02*
X105511600Y-118694200D01*
X105511600Y-118694200D02*
X105613200Y-118795800D01*
X106807000Y-99852950D02*
X108153200Y-101199150D01*
X108153200Y-101199150D02*
X108153200Y-118795800D01*
X106830000Y-126913200D02*
X108305600Y-125437600D01*
X90877250Y-122490200D02*
X90877250Y-127053200D01*
X112014000Y-117475000D02*
X110693200Y-118795800D01*
X91567000Y-92232950D02*
X91567000Y-94772950D01*
X112014000Y-94945200D02*
X112014000Y-117475000D01*
X108305600Y-125437600D02*
X108305600Y-121183400D01*
X109677200Y-90485850D02*
X109677200Y-92608400D01*
X91643200Y-116920354D02*
X91643200Y-121724250D01*
X92837000Y-115726554D02*
X91643200Y-116920354D01*
X109677200Y-92608400D02*
X112014000Y-94945200D01*
X92837000Y-96042950D02*
X92837000Y-115726554D01*
X91643200Y-121724250D02*
X90877250Y-122490200D01*
X108305600Y-121183400D02*
X110693200Y-118795800D01*
X91567000Y-94772950D02*
X92837000Y-96042950D01*
X108423200Y-100832754D02*
X109423200Y-101832754D01*
X109423200Y-101832754D02*
X109423200Y-119429404D01*
X106807000Y-92232950D02*
X108423200Y-93849150D01*
X108423200Y-93849150D02*
X108423200Y-100832754D01*
X106830000Y-122022604D02*
X106830000Y-122413200D01*
X109423200Y-119429404D02*
X106830000Y-122022604D01*
X89128600Y-118211600D02*
X89128600Y-121238850D01*
X89128600Y-121238850D02*
X87877250Y-122490200D01*
X89408000Y-126187200D02*
X89408000Y-123520200D01*
X89451600Y-117888600D02*
X89128600Y-118211600D01*
X88378000Y-122490200D02*
X87877250Y-122490200D01*
X89408000Y-123520200D02*
X88378000Y-122490200D01*
X89451600Y-91808350D02*
X89451600Y-117888600D01*
X88519000Y-127076200D02*
X89408000Y-126187200D01*
X91567000Y-89692950D02*
X89451600Y-91808350D01*
X87852250Y-127076200D02*
X88519000Y-127076200D01*
X95477250Y-122490200D02*
X95477250Y-127085200D01*
X97917000Y-103662950D02*
X97917000Y-115697000D01*
X96723200Y-121244250D02*
X95477250Y-122490200D01*
X97917000Y-115697000D02*
X96723200Y-116890800D01*
X96723200Y-116890800D02*
X96723200Y-121244250D01*
X106807000Y-94772950D02*
X97917000Y-103662950D01*
M02*
