M48
; DRILL file {KiCad 7.0.5} date Mon Aug 28 02:05:57 2023
; FORMAT={-:-/ absolute / metric / decimal}
; #@! TF.CreationDate,2023-08-28T02:05:57+08:00
; #@! TF.GenerationSoftware,Kicad,Pcbnew,7.0.5
; #@! TF.FileFunction,Plated,1,2,PTH
FMAT,2
METRIC
; #@! TA.AperFunction,Plated,PTH,ViaDrill
T1C0.400
; #@! TA.AperFunction,Plated,PTH,ComponentDrill
T2C0.900
; #@! TA.AperFunction,Plated,PTH,ComponentDrill
T3C1.000
; #@! TA.AperFunction,Plated,PTH,ComponentDrill
T4C1.092
; #@! TA.AperFunction,Plated,PTH,ComponentDrill
T5C1.300
%
G90
G05
T1
X23.941Y-34.06
X24.66Y-55.82
X24.715Y-35.18
X25.044Y-28.654
X25.52Y-56.65
X38.365Y-32.64
T3
X19.795Y-34.69
X19.795Y-37.23
X19.795Y-39.77
X19.795Y-42.31
X19.795Y-44.85
X19.795Y-47.39
X19.795Y-49.93
X19.795Y-52.47
X19.795Y-55.01
X22.335Y-34.69
X22.335Y-37.23
X22.335Y-39.77
X22.335Y-42.31
X22.335Y-44.85
X22.335Y-47.39
X22.335Y-49.93
X22.335Y-52.47
X22.335Y-55.01
X47.475Y-34.69
X47.475Y-37.23
X47.475Y-39.77
X47.475Y-42.31
X47.475Y-44.85
X47.475Y-47.39
X47.475Y-49.93
X47.475Y-52.47
X47.475Y-55.01
X50.015Y-34.69
X50.015Y-37.23
X50.015Y-39.77
X50.015Y-42.31
X50.015Y-44.85
X50.015Y-47.39
X50.015Y-49.93
X50.015Y-52.47
X50.015Y-55.01
T4
X27.265Y-24.53
X27.265Y-27.07
X27.265Y-29.61
X27.265Y-32.15
X27.265Y-34.69
X27.265Y-37.23
X27.265Y-39.77
X27.265Y-42.31
X27.265Y-44.85
X27.265Y-47.39
X27.265Y-49.93
X27.265Y-52.47
X42.505Y-24.53
X42.505Y-27.07
X42.505Y-29.61
X42.505Y-32.15
X42.505Y-34.69
X42.505Y-37.23
X42.505Y-39.77
X42.505Y-42.31
X42.505Y-44.85
X42.505Y-47.39
X42.505Y-49.93
X42.505Y-52.47
T5
X31.635Y-55.84
X38.135Y-55.84
T2
X19.555Y-31.463G85X19.555Y-31.863
G05
X24.155Y-24.063G85X24.155Y-24.463
G05
X24.155Y-26.363G85X24.155Y-26.764
G05
X24.155Y-30.363G85X24.155Y-30.763
G05
X23.955Y-58.97G85X24.355Y-58.97
G05
X26.255Y-58.97G85X26.655Y-58.97
G05
X30.255Y-58.97G85X30.655Y-58.97
G05
X31.355Y-63.57G85X31.755Y-63.57
G05
X38.435Y-58.97G85X38.035Y-58.97
G05
X39.535Y-63.57G85X39.135Y-63.57
G05
X43.535Y-63.57G85X43.135Y-63.57
G05
X45.635Y-31.463G85X45.635Y-31.863
G05
X45.835Y-63.57G85X45.435Y-63.57
G05
X50.235Y-24.063G85X50.235Y-24.463
G05
X50.235Y-26.363G85X50.235Y-26.764
G05
X50.235Y-30.363G85X50.235Y-30.763
G05
T0
M30
