G04 #@! TF.GenerationSoftware,KiCad,Pcbnew,7.0.5*
G04 #@! TF.CreationDate,2023-08-28T03:05:05+08:00*
G04 #@! TF.ProjectId,handwire microboard,68616e64-7769-4726-9520-6d6963726f62,rev?*
G04 #@! TF.SameCoordinates,Original*
G04 #@! TF.FileFunction,Legend,Bot*
G04 #@! TF.FilePolarity,Positive*
%FSLAX46Y46*%
G04 Gerber Fmt 4.6, Leading zero omitted, Abs format (unit mm)*
G04 Created by KiCad (PCBNEW 7.0.5) date 2023-08-28 03:05:05*
%MOMM*%
%LPD*%
G01*
G04 APERTURE LIST*
G04 Aperture macros list*
%AMRoundRect*
0 Rectangle with rounded corners*
0 $1 Rounding radius*
0 $2 $3 $4 $5 $6 $7 $8 $9 X,Y pos of 4 corners*
0 Add a 4 corners polygon primitive as box body*
4,1,4,$2,$3,$4,$5,$6,$7,$8,$9,$2,$3,0*
0 Add four circle primitives for the rounded corners*
1,1,$1+$1,$2,$3*
1,1,$1+$1,$4,$5*
1,1,$1+$1,$6,$7*
1,1,$1+$1,$8,$9*
0 Add four rect primitives between the rounded corners*
20,1,$1+$1,$2,$3,$4,$5,0*
20,1,$1+$1,$4,$5,$6,$7,0*
20,1,$1+$1,$6,$7,$8,$9,0*
20,1,$1+$1,$8,$9,$2,$3,0*%
G04 Aperture macros list end*
%ADD10C,0.150000*%
%ADD11C,0.200000*%
%ADD12C,0.010000*%
%ADD13C,1.752600*%
%ADD14RoundRect,0.438150X-0.438150X0.438150X-0.438150X-0.438150X0.438150X-0.438150X0.438150X0.438150X0*%
%ADD15R,1.752600X1.752600*%
%ADD16C,2.000000*%
%ADD17C,3.500000*%
%ADD18C,0.800000*%
%ADD19O,1.900000X1.500000*%
%ADD20O,1.800000X1.500000*%
%ADD21O,1.500000X1.900000*%
%ADD22O,1.500000X1.800000*%
%ADD23O,1.700000X1.700000*%
%ADD24C,1.700000*%
G04 APERTURE END LIST*
D10*
X40803094Y-29952295D02*
X41069761Y-29571342D01*
X41260237Y-29952295D02*
X41260237Y-29152295D01*
X41260237Y-29152295D02*
X40955475Y-29152295D01*
X40955475Y-29152295D02*
X40879285Y-29190390D01*
X40879285Y-29190390D02*
X40841190Y-29228485D01*
X40841190Y-29228485D02*
X40803094Y-29304676D01*
X40803094Y-29304676D02*
X40803094Y-29418961D01*
X40803094Y-29418961D02*
X40841190Y-29495152D01*
X40841190Y-29495152D02*
X40879285Y-29533247D01*
X40879285Y-29533247D02*
X40955475Y-29571342D01*
X40955475Y-29571342D02*
X41260237Y-29571342D01*
X40498333Y-29914200D02*
X40384047Y-29952295D01*
X40384047Y-29952295D02*
X40193571Y-29952295D01*
X40193571Y-29952295D02*
X40117380Y-29914200D01*
X40117380Y-29914200D02*
X40079285Y-29876104D01*
X40079285Y-29876104D02*
X40041190Y-29799914D01*
X40041190Y-29799914D02*
X40041190Y-29723723D01*
X40041190Y-29723723D02*
X40079285Y-29647533D01*
X40079285Y-29647533D02*
X40117380Y-29609438D01*
X40117380Y-29609438D02*
X40193571Y-29571342D01*
X40193571Y-29571342D02*
X40345952Y-29533247D01*
X40345952Y-29533247D02*
X40422142Y-29495152D01*
X40422142Y-29495152D02*
X40460237Y-29457057D01*
X40460237Y-29457057D02*
X40498333Y-29380866D01*
X40498333Y-29380866D02*
X40498333Y-29304676D01*
X40498333Y-29304676D02*
X40460237Y-29228485D01*
X40460237Y-29228485D02*
X40422142Y-29190390D01*
X40422142Y-29190390D02*
X40345952Y-29152295D01*
X40345952Y-29152295D02*
X40155475Y-29152295D01*
X40155475Y-29152295D02*
X40041190Y-29190390D01*
X39812618Y-29152295D02*
X39355475Y-29152295D01*
X39584047Y-29952295D02*
X39584047Y-29152295D01*
X41412666Y-31712295D02*
X41145999Y-32512295D01*
X41145999Y-32512295D02*
X40879333Y-31712295D01*
X40155523Y-32436104D02*
X40193619Y-32474200D01*
X40193619Y-32474200D02*
X40307904Y-32512295D01*
X40307904Y-32512295D02*
X40384095Y-32512295D01*
X40384095Y-32512295D02*
X40498381Y-32474200D01*
X40498381Y-32474200D02*
X40574571Y-32398009D01*
X40574571Y-32398009D02*
X40612666Y-32321819D01*
X40612666Y-32321819D02*
X40650762Y-32169438D01*
X40650762Y-32169438D02*
X40650762Y-32055152D01*
X40650762Y-32055152D02*
X40612666Y-31902771D01*
X40612666Y-31902771D02*
X40574571Y-31826580D01*
X40574571Y-31826580D02*
X40498381Y-31750390D01*
X40498381Y-31750390D02*
X40384095Y-31712295D01*
X40384095Y-31712295D02*
X40307904Y-31712295D01*
X40307904Y-31712295D02*
X40193619Y-31750390D01*
X40193619Y-31750390D02*
X40155523Y-31788485D01*
X39355523Y-32436104D02*
X39393619Y-32474200D01*
X39393619Y-32474200D02*
X39507904Y-32512295D01*
X39507904Y-32512295D02*
X39584095Y-32512295D01*
X39584095Y-32512295D02*
X39698381Y-32474200D01*
X39698381Y-32474200D02*
X39774571Y-32398009D01*
X39774571Y-32398009D02*
X39812666Y-32321819D01*
X39812666Y-32321819D02*
X39850762Y-32169438D01*
X39850762Y-32169438D02*
X39850762Y-32055152D01*
X39850762Y-32055152D02*
X39812666Y-31902771D01*
X39812666Y-31902771D02*
X39774571Y-31826580D01*
X39774571Y-31826580D02*
X39698381Y-31750390D01*
X39698381Y-31750390D02*
X39584095Y-31712295D01*
X39584095Y-31712295D02*
X39507904Y-31712295D01*
X39507904Y-31712295D02*
X39393619Y-31750390D01*
X39393619Y-31750390D02*
X39355523Y-31788485D01*
X40955523Y-26670390D02*
X41031713Y-26632295D01*
X41031713Y-26632295D02*
X41145999Y-26632295D01*
X41145999Y-26632295D02*
X41260285Y-26670390D01*
X41260285Y-26670390D02*
X41336475Y-26746580D01*
X41336475Y-26746580D02*
X41374570Y-26822771D01*
X41374570Y-26822771D02*
X41412666Y-26975152D01*
X41412666Y-26975152D02*
X41412666Y-27089438D01*
X41412666Y-27089438D02*
X41374570Y-27241819D01*
X41374570Y-27241819D02*
X41336475Y-27318009D01*
X41336475Y-27318009D02*
X41260285Y-27394200D01*
X41260285Y-27394200D02*
X41145999Y-27432295D01*
X41145999Y-27432295D02*
X41069808Y-27432295D01*
X41069808Y-27432295D02*
X40955523Y-27394200D01*
X40955523Y-27394200D02*
X40917427Y-27356104D01*
X40917427Y-27356104D02*
X40917427Y-27089438D01*
X40917427Y-27089438D02*
X41069808Y-27089438D01*
X40574570Y-27432295D02*
X40574570Y-26632295D01*
X40574570Y-26632295D02*
X40117427Y-27432295D01*
X40117427Y-27432295D02*
X40117427Y-26632295D01*
X39736475Y-27432295D02*
X39736475Y-26632295D01*
X39736475Y-26632295D02*
X39545999Y-26632295D01*
X39545999Y-26632295D02*
X39431713Y-26670390D01*
X39431713Y-26670390D02*
X39355523Y-26746580D01*
X39355523Y-26746580D02*
X39317428Y-26822771D01*
X39317428Y-26822771D02*
X39279332Y-26975152D01*
X39279332Y-26975152D02*
X39279332Y-27089438D01*
X39279332Y-27089438D02*
X39317428Y-27241819D01*
X39317428Y-27241819D02*
X39355523Y-27318009D01*
X39355523Y-27318009D02*
X39431713Y-27394200D01*
X39431713Y-27394200D02*
X39545999Y-27432295D01*
X39545999Y-27432295D02*
X39736475Y-27432295D01*
X30033523Y-29210390D02*
X30109713Y-29172295D01*
X30109713Y-29172295D02*
X30223999Y-29172295D01*
X30223999Y-29172295D02*
X30338285Y-29210390D01*
X30338285Y-29210390D02*
X30414475Y-29286580D01*
X30414475Y-29286580D02*
X30452570Y-29362771D01*
X30452570Y-29362771D02*
X30490666Y-29515152D01*
X30490666Y-29515152D02*
X30490666Y-29629438D01*
X30490666Y-29629438D02*
X30452570Y-29781819D01*
X30452570Y-29781819D02*
X30414475Y-29858009D01*
X30414475Y-29858009D02*
X30338285Y-29934200D01*
X30338285Y-29934200D02*
X30223999Y-29972295D01*
X30223999Y-29972295D02*
X30147808Y-29972295D01*
X30147808Y-29972295D02*
X30033523Y-29934200D01*
X30033523Y-29934200D02*
X29995427Y-29896104D01*
X29995427Y-29896104D02*
X29995427Y-29629438D01*
X29995427Y-29629438D02*
X30147808Y-29629438D01*
X29652570Y-29972295D02*
X29652570Y-29172295D01*
X29652570Y-29172295D02*
X29195427Y-29972295D01*
X29195427Y-29972295D02*
X29195427Y-29172295D01*
X28814475Y-29972295D02*
X28814475Y-29172295D01*
X28814475Y-29172295D02*
X28623999Y-29172295D01*
X28623999Y-29172295D02*
X28509713Y-29210390D01*
X28509713Y-29210390D02*
X28433523Y-29286580D01*
X28433523Y-29286580D02*
X28395428Y-29362771D01*
X28395428Y-29362771D02*
X28357332Y-29515152D01*
X28357332Y-29515152D02*
X28357332Y-29629438D01*
X28357332Y-29629438D02*
X28395428Y-29781819D01*
X28395428Y-29781819D02*
X28433523Y-29858009D01*
X28433523Y-29858009D02*
X28509713Y-29934200D01*
X28509713Y-29934200D02*
X28623999Y-29972295D01*
X28623999Y-29972295D02*
X28814475Y-29972295D01*
X30033523Y-31750390D02*
X30109713Y-31712295D01*
X30109713Y-31712295D02*
X30223999Y-31712295D01*
X30223999Y-31712295D02*
X30338285Y-31750390D01*
X30338285Y-31750390D02*
X30414475Y-31826580D01*
X30414475Y-31826580D02*
X30452570Y-31902771D01*
X30452570Y-31902771D02*
X30490666Y-32055152D01*
X30490666Y-32055152D02*
X30490666Y-32169438D01*
X30490666Y-32169438D02*
X30452570Y-32321819D01*
X30452570Y-32321819D02*
X30414475Y-32398009D01*
X30414475Y-32398009D02*
X30338285Y-32474200D01*
X30338285Y-32474200D02*
X30223999Y-32512295D01*
X30223999Y-32512295D02*
X30147808Y-32512295D01*
X30147808Y-32512295D02*
X30033523Y-32474200D01*
X30033523Y-32474200D02*
X29995427Y-32436104D01*
X29995427Y-32436104D02*
X29995427Y-32169438D01*
X29995427Y-32169438D02*
X30147808Y-32169438D01*
X29652570Y-32512295D02*
X29652570Y-31712295D01*
X29652570Y-31712295D02*
X29195427Y-32512295D01*
X29195427Y-32512295D02*
X29195427Y-31712295D01*
X28814475Y-32512295D02*
X28814475Y-31712295D01*
X28814475Y-31712295D02*
X28623999Y-31712295D01*
X28623999Y-31712295D02*
X28509713Y-31750390D01*
X28509713Y-31750390D02*
X28433523Y-31826580D01*
X28433523Y-31826580D02*
X28395428Y-31902771D01*
X28395428Y-31902771D02*
X28357332Y-32055152D01*
X28357332Y-32055152D02*
X28357332Y-32169438D01*
X28357332Y-32169438D02*
X28395428Y-32321819D01*
X28395428Y-32321819D02*
X28433523Y-32398009D01*
X28433523Y-32398009D02*
X28509713Y-32474200D01*
X28509713Y-32474200D02*
X28623999Y-32512295D01*
X28623999Y-32512295D02*
X28814475Y-32512295D01*
X35432619Y-56299819D02*
X35765952Y-55823628D01*
X36004047Y-56299819D02*
X36004047Y-55299819D01*
X36004047Y-55299819D02*
X35623095Y-55299819D01*
X35623095Y-55299819D02*
X35527857Y-55347438D01*
X35527857Y-55347438D02*
X35480238Y-55395057D01*
X35480238Y-55395057D02*
X35432619Y-55490295D01*
X35432619Y-55490295D02*
X35432619Y-55633152D01*
X35432619Y-55633152D02*
X35480238Y-55728390D01*
X35480238Y-55728390D02*
X35527857Y-55776009D01*
X35527857Y-55776009D02*
X35623095Y-55823628D01*
X35623095Y-55823628D02*
X36004047Y-55823628D01*
X35051666Y-56252200D02*
X34908809Y-56299819D01*
X34908809Y-56299819D02*
X34670714Y-56299819D01*
X34670714Y-56299819D02*
X34575476Y-56252200D01*
X34575476Y-56252200D02*
X34527857Y-56204580D01*
X34527857Y-56204580D02*
X34480238Y-56109342D01*
X34480238Y-56109342D02*
X34480238Y-56014104D01*
X34480238Y-56014104D02*
X34527857Y-55918866D01*
X34527857Y-55918866D02*
X34575476Y-55871247D01*
X34575476Y-55871247D02*
X34670714Y-55823628D01*
X34670714Y-55823628D02*
X34861190Y-55776009D01*
X34861190Y-55776009D02*
X34956428Y-55728390D01*
X34956428Y-55728390D02*
X35004047Y-55680771D01*
X35004047Y-55680771D02*
X35051666Y-55585533D01*
X35051666Y-55585533D02*
X35051666Y-55490295D01*
X35051666Y-55490295D02*
X35004047Y-55395057D01*
X35004047Y-55395057D02*
X34956428Y-55347438D01*
X34956428Y-55347438D02*
X34861190Y-55299819D01*
X34861190Y-55299819D02*
X34623095Y-55299819D01*
X34623095Y-55299819D02*
X34480238Y-55347438D01*
X34194523Y-55299819D02*
X33623095Y-55299819D01*
X33908809Y-56299819D02*
X33908809Y-55299819D01*
X46283431Y-40811308D02*
X46471993Y-40622746D01*
X46768304Y-40919058D02*
X46202619Y-40353372D01*
X46202619Y-40353372D02*
X45933245Y-40622746D01*
X45448372Y-41107619D02*
X45717746Y-40838245D01*
X45717746Y-40838245D02*
X46014057Y-41080682D01*
X46014057Y-41080682D02*
X45960182Y-41080682D01*
X45960182Y-41080682D02*
X45879370Y-41107619D01*
X45879370Y-41107619D02*
X45744683Y-41242306D01*
X45744683Y-41242306D02*
X45717746Y-41323118D01*
X45717746Y-41323118D02*
X45717746Y-41376993D01*
X45717746Y-41376993D02*
X45744683Y-41457805D01*
X45744683Y-41457805D02*
X45879370Y-41592493D01*
X45879370Y-41592493D02*
X45960182Y-41619430D01*
X45960182Y-41619430D02*
X46014057Y-41619430D01*
X46014057Y-41619430D02*
X46094869Y-41592493D01*
X46094869Y-41592493D02*
X46229556Y-41457805D01*
X46229556Y-41457805D02*
X46256494Y-41376993D01*
X46256494Y-41376993D02*
X46256494Y-41323118D01*
X49368710Y-43408651D02*
X48803025Y-42842966D01*
X48803025Y-42842966D02*
X48668338Y-42977653D01*
X48668338Y-42977653D02*
X48614463Y-43085403D01*
X48614463Y-43085403D02*
X48614463Y-43193152D01*
X48614463Y-43193152D02*
X48641401Y-43273964D01*
X48641401Y-43273964D02*
X48722213Y-43408651D01*
X48722213Y-43408651D02*
X48803025Y-43489464D01*
X48803025Y-43489464D02*
X48937712Y-43570276D01*
X48937712Y-43570276D02*
X49018524Y-43597213D01*
X49018524Y-43597213D02*
X49126274Y-43597213D01*
X49126274Y-43597213D02*
X49234023Y-43543338D01*
X49234023Y-43543338D02*
X49368710Y-43408651D01*
X48183465Y-43839650D02*
X48560588Y-44216774D01*
X48102653Y-43489464D02*
X48641401Y-43758838D01*
X48641401Y-43758838D02*
X48291214Y-44109024D01*
X46283431Y-38271308D02*
X46471993Y-38082746D01*
X46768304Y-38379058D02*
X46202619Y-37813372D01*
X46202619Y-37813372D02*
X45933245Y-38082746D01*
X45663871Y-38729244D02*
X46040995Y-39106367D01*
X45583059Y-38379057D02*
X46121807Y-38648431D01*
X46121807Y-38648431D02*
X45771621Y-38998618D01*
X48883837Y-56080902D02*
X48829962Y-56188651D01*
X48829962Y-56188651D02*
X48829962Y-56242526D01*
X48829962Y-56242526D02*
X48856900Y-56323338D01*
X48856900Y-56323338D02*
X48937712Y-56404151D01*
X48937712Y-56404151D02*
X49018524Y-56431088D01*
X49018524Y-56431088D02*
X49072399Y-56431088D01*
X49072399Y-56431088D02*
X49153211Y-56404151D01*
X49153211Y-56404151D02*
X49368710Y-56188651D01*
X49368710Y-56188651D02*
X48803025Y-55622966D01*
X48803025Y-55622966D02*
X48614463Y-55811528D01*
X48614463Y-55811528D02*
X48587526Y-55892340D01*
X48587526Y-55892340D02*
X48587526Y-55946215D01*
X48587526Y-55946215D02*
X48614463Y-56027027D01*
X48614463Y-56027027D02*
X48668338Y-56080902D01*
X48668338Y-56080902D02*
X48749150Y-56107839D01*
X48749150Y-56107839D02*
X48803025Y-56107839D01*
X48803025Y-56107839D02*
X48883837Y-56080902D01*
X48883837Y-56080902D02*
X49072399Y-55892340D01*
X47967966Y-56458025D02*
X48237340Y-56188651D01*
X48237340Y-56188651D02*
X48533651Y-56431088D01*
X48533651Y-56431088D02*
X48479776Y-56431088D01*
X48479776Y-56431088D02*
X48398964Y-56458025D01*
X48398964Y-56458025D02*
X48264277Y-56592712D01*
X48264277Y-56592712D02*
X48237340Y-56673525D01*
X48237340Y-56673525D02*
X48237340Y-56727399D01*
X48237340Y-56727399D02*
X48264277Y-56808212D01*
X48264277Y-56808212D02*
X48398964Y-56942899D01*
X48398964Y-56942899D02*
X48479776Y-56969836D01*
X48479776Y-56969836D02*
X48533651Y-56969836D01*
X48533651Y-56969836D02*
X48614463Y-56942899D01*
X48614463Y-56942899D02*
X48749150Y-56808212D01*
X48749150Y-56808212D02*
X48776088Y-56727399D01*
X48776088Y-56727399D02*
X48776088Y-56673525D01*
X49368710Y-35798651D02*
X48803025Y-35232966D01*
X48803025Y-35232966D02*
X48668338Y-35367653D01*
X48668338Y-35367653D02*
X48614463Y-35475403D01*
X48614463Y-35475403D02*
X48614463Y-35583152D01*
X48614463Y-35583152D02*
X48641401Y-35663964D01*
X48641401Y-35663964D02*
X48722213Y-35798651D01*
X48722213Y-35798651D02*
X48803025Y-35879464D01*
X48803025Y-35879464D02*
X48937712Y-35960276D01*
X48937712Y-35960276D02*
X49018524Y-35987213D01*
X49018524Y-35987213D02*
X49126274Y-35987213D01*
X49126274Y-35987213D02*
X49234023Y-35933338D01*
X49234023Y-35933338D02*
X49368710Y-35798651D01*
X48318152Y-35825589D02*
X48264277Y-35825589D01*
X48264277Y-35825589D02*
X48183465Y-35852526D01*
X48183465Y-35852526D02*
X48048778Y-35987213D01*
X48048778Y-35987213D02*
X48021840Y-36068025D01*
X48021840Y-36068025D02*
X48021840Y-36121900D01*
X48021840Y-36121900D02*
X48048778Y-36202712D01*
X48048778Y-36202712D02*
X48102653Y-36256587D01*
X48102653Y-36256587D02*
X48210402Y-36310462D01*
X48210402Y-36310462D02*
X48856900Y-36310462D01*
X48856900Y-36310462D02*
X48506714Y-36660648D01*
X49368710Y-40878651D02*
X48803025Y-40312966D01*
X48803025Y-40312966D02*
X48668338Y-40447653D01*
X48668338Y-40447653D02*
X48614463Y-40555403D01*
X48614463Y-40555403D02*
X48614463Y-40663152D01*
X48614463Y-40663152D02*
X48641401Y-40743964D01*
X48641401Y-40743964D02*
X48722213Y-40878651D01*
X48722213Y-40878651D02*
X48803025Y-40959464D01*
X48803025Y-40959464D02*
X48937712Y-41040276D01*
X48937712Y-41040276D02*
X49018524Y-41067213D01*
X49018524Y-41067213D02*
X49126274Y-41067213D01*
X49126274Y-41067213D02*
X49234023Y-41013338D01*
X49234023Y-41013338D02*
X49368710Y-40878651D01*
X48129590Y-40986401D02*
X48075715Y-41040276D01*
X48075715Y-41040276D02*
X48048778Y-41121088D01*
X48048778Y-41121088D02*
X48048778Y-41174963D01*
X48048778Y-41174963D02*
X48075715Y-41255775D01*
X48075715Y-41255775D02*
X48156527Y-41390462D01*
X48156527Y-41390462D02*
X48291214Y-41525149D01*
X48291214Y-41525149D02*
X48425901Y-41605961D01*
X48425901Y-41605961D02*
X48506714Y-41632899D01*
X48506714Y-41632899D02*
X48560588Y-41632899D01*
X48560588Y-41632899D02*
X48641401Y-41605961D01*
X48641401Y-41605961D02*
X48695275Y-41552087D01*
X48695275Y-41552087D02*
X48722213Y-41471274D01*
X48722213Y-41471274D02*
X48722213Y-41417399D01*
X48722213Y-41417399D02*
X48695275Y-41336587D01*
X48695275Y-41336587D02*
X48614463Y-41201900D01*
X48614463Y-41201900D02*
X48479776Y-41067213D01*
X48479776Y-41067213D02*
X48345089Y-40986401D01*
X48345089Y-40986401D02*
X48264277Y-40959464D01*
X48264277Y-40959464D02*
X48210402Y-40959464D01*
X48210402Y-40959464D02*
X48129590Y-40986401D01*
X49368710Y-48508651D02*
X48803025Y-47942966D01*
X48803025Y-47942966D02*
X48668338Y-48077653D01*
X48668338Y-48077653D02*
X48614463Y-48185403D01*
X48614463Y-48185403D02*
X48614463Y-48293152D01*
X48614463Y-48293152D02*
X48641401Y-48373964D01*
X48641401Y-48373964D02*
X48722213Y-48508651D01*
X48722213Y-48508651D02*
X48803025Y-48589464D01*
X48803025Y-48589464D02*
X48937712Y-48670276D01*
X48937712Y-48670276D02*
X49018524Y-48697213D01*
X49018524Y-48697213D02*
X49126274Y-48697213D01*
X49126274Y-48697213D02*
X49234023Y-48643338D01*
X49234023Y-48643338D02*
X49368710Y-48508651D01*
X48291214Y-48454777D02*
X47914091Y-48831900D01*
X47914091Y-48831900D02*
X48722213Y-49155149D01*
X46808710Y-35798651D02*
X46243025Y-35232966D01*
X46243025Y-35232966D02*
X46108338Y-35367653D01*
X46108338Y-35367653D02*
X46054463Y-35475403D01*
X46054463Y-35475403D02*
X46054463Y-35583152D01*
X46054463Y-35583152D02*
X46081401Y-35663964D01*
X46081401Y-35663964D02*
X46162213Y-35798651D01*
X46162213Y-35798651D02*
X46243025Y-35879464D01*
X46243025Y-35879464D02*
X46377712Y-35960276D01*
X46377712Y-35960276D02*
X46458524Y-35987213D01*
X46458524Y-35987213D02*
X46566274Y-35987213D01*
X46566274Y-35987213D02*
X46674023Y-35933338D01*
X46674023Y-35933338D02*
X46808710Y-35798651D01*
X45731214Y-35744777D02*
X45381028Y-36094963D01*
X45381028Y-36094963D02*
X45785089Y-36121900D01*
X45785089Y-36121900D02*
X45704277Y-36202712D01*
X45704277Y-36202712D02*
X45677340Y-36283525D01*
X45677340Y-36283525D02*
X45677340Y-36337399D01*
X45677340Y-36337399D02*
X45704277Y-36418212D01*
X45704277Y-36418212D02*
X45838964Y-36552899D01*
X45838964Y-36552899D02*
X45919776Y-36579836D01*
X45919776Y-36579836D02*
X45973651Y-36579836D01*
X45973651Y-36579836D02*
X46054463Y-36552899D01*
X46054463Y-36552899D02*
X46216088Y-36391274D01*
X46216088Y-36391274D02*
X46243025Y-36310462D01*
X46243025Y-36310462D02*
X46243025Y-36256587D01*
X46323837Y-56080902D02*
X46269962Y-56188651D01*
X46269962Y-56188651D02*
X46269962Y-56242526D01*
X46269962Y-56242526D02*
X46296900Y-56323338D01*
X46296900Y-56323338D02*
X46377712Y-56404151D01*
X46377712Y-56404151D02*
X46458524Y-56431088D01*
X46458524Y-56431088D02*
X46512399Y-56431088D01*
X46512399Y-56431088D02*
X46593211Y-56404151D01*
X46593211Y-56404151D02*
X46808710Y-56188651D01*
X46808710Y-56188651D02*
X46243025Y-55622966D01*
X46243025Y-55622966D02*
X46054463Y-55811528D01*
X46054463Y-55811528D02*
X46027526Y-55892340D01*
X46027526Y-55892340D02*
X46027526Y-55946215D01*
X46027526Y-55946215D02*
X46054463Y-56027027D01*
X46054463Y-56027027D02*
X46108338Y-56080902D01*
X46108338Y-56080902D02*
X46189150Y-56107839D01*
X46189150Y-56107839D02*
X46243025Y-56107839D01*
X46243025Y-56107839D02*
X46323837Y-56080902D01*
X46323837Y-56080902D02*
X46512399Y-55892340D01*
X45434903Y-56431088D02*
X45542653Y-56323338D01*
X45542653Y-56323338D02*
X45623465Y-56296401D01*
X45623465Y-56296401D02*
X45677340Y-56296401D01*
X45677340Y-56296401D02*
X45812027Y-56323338D01*
X45812027Y-56323338D02*
X45946714Y-56404151D01*
X45946714Y-56404151D02*
X46162213Y-56619650D01*
X46162213Y-56619650D02*
X46189150Y-56700462D01*
X46189150Y-56700462D02*
X46189150Y-56754337D01*
X46189150Y-56754337D02*
X46162213Y-56835149D01*
X46162213Y-56835149D02*
X46054463Y-56942899D01*
X46054463Y-56942899D02*
X45973651Y-56969836D01*
X45973651Y-56969836D02*
X45919776Y-56969836D01*
X45919776Y-56969836D02*
X45838964Y-56942899D01*
X45838964Y-56942899D02*
X45704277Y-56808212D01*
X45704277Y-56808212D02*
X45677340Y-56727399D01*
X45677340Y-56727399D02*
X45677340Y-56673525D01*
X45677340Y-56673525D02*
X45704277Y-56592712D01*
X45704277Y-56592712D02*
X45812027Y-56484963D01*
X45812027Y-56484963D02*
X45892839Y-56458025D01*
X45892839Y-56458025D02*
X45946714Y-56458025D01*
X45946714Y-56458025D02*
X46027526Y-56484963D01*
X46323837Y-53470902D02*
X46269962Y-53578651D01*
X46269962Y-53578651D02*
X46269962Y-53632526D01*
X46269962Y-53632526D02*
X46296900Y-53713338D01*
X46296900Y-53713338D02*
X46377712Y-53794151D01*
X46377712Y-53794151D02*
X46458524Y-53821088D01*
X46458524Y-53821088D02*
X46512399Y-53821088D01*
X46512399Y-53821088D02*
X46593211Y-53794151D01*
X46593211Y-53794151D02*
X46808710Y-53578651D01*
X46808710Y-53578651D02*
X46243025Y-53012966D01*
X46243025Y-53012966D02*
X46054463Y-53201528D01*
X46054463Y-53201528D02*
X46027526Y-53282340D01*
X46027526Y-53282340D02*
X46027526Y-53336215D01*
X46027526Y-53336215D02*
X46054463Y-53417027D01*
X46054463Y-53417027D02*
X46108338Y-53470902D01*
X46108338Y-53470902D02*
X46189150Y-53497839D01*
X46189150Y-53497839D02*
X46243025Y-53497839D01*
X46243025Y-53497839D02*
X46323837Y-53470902D01*
X46323837Y-53470902D02*
X46512399Y-53282340D01*
X45758152Y-53605589D02*
X45704277Y-53605589D01*
X45704277Y-53605589D02*
X45623465Y-53632526D01*
X45623465Y-53632526D02*
X45488778Y-53767213D01*
X45488778Y-53767213D02*
X45461840Y-53848025D01*
X45461840Y-53848025D02*
X45461840Y-53901900D01*
X45461840Y-53901900D02*
X45488778Y-53982712D01*
X45488778Y-53982712D02*
X45542653Y-54036587D01*
X45542653Y-54036587D02*
X45650402Y-54090462D01*
X45650402Y-54090462D02*
X46296900Y-54090462D01*
X46296900Y-54090462D02*
X45946714Y-54440648D01*
X48883837Y-53470902D02*
X48829962Y-53578651D01*
X48829962Y-53578651D02*
X48829962Y-53632526D01*
X48829962Y-53632526D02*
X48856900Y-53713338D01*
X48856900Y-53713338D02*
X48937712Y-53794151D01*
X48937712Y-53794151D02*
X49018524Y-53821088D01*
X49018524Y-53821088D02*
X49072399Y-53821088D01*
X49072399Y-53821088D02*
X49153211Y-53794151D01*
X49153211Y-53794151D02*
X49368710Y-53578651D01*
X49368710Y-53578651D02*
X48803025Y-53012966D01*
X48803025Y-53012966D02*
X48614463Y-53201528D01*
X48614463Y-53201528D02*
X48587526Y-53282340D01*
X48587526Y-53282340D02*
X48587526Y-53336215D01*
X48587526Y-53336215D02*
X48614463Y-53417027D01*
X48614463Y-53417027D02*
X48668338Y-53470902D01*
X48668338Y-53470902D02*
X48749150Y-53497839D01*
X48749150Y-53497839D02*
X48803025Y-53497839D01*
X48803025Y-53497839D02*
X48883837Y-53470902D01*
X48883837Y-53470902D02*
X49072399Y-53282340D01*
X48183465Y-54009650D02*
X48560588Y-54386774D01*
X48102653Y-53659464D02*
X48641401Y-53928838D01*
X48641401Y-53928838D02*
X48291214Y-54279024D01*
X46283431Y-45881308D02*
X46471993Y-45692746D01*
X46768304Y-45989058D02*
X46202619Y-45423372D01*
X46202619Y-45423372D02*
X45933245Y-45692746D01*
X45771621Y-45854370D02*
X45394497Y-46231494D01*
X45394497Y-46231494D02*
X46202619Y-46554743D01*
X46323837Y-48400902D02*
X46269962Y-48508651D01*
X46269962Y-48508651D02*
X46269962Y-48562526D01*
X46269962Y-48562526D02*
X46296900Y-48643338D01*
X46296900Y-48643338D02*
X46377712Y-48724151D01*
X46377712Y-48724151D02*
X46458524Y-48751088D01*
X46458524Y-48751088D02*
X46512399Y-48751088D01*
X46512399Y-48751088D02*
X46593211Y-48724151D01*
X46593211Y-48724151D02*
X46808710Y-48508651D01*
X46808710Y-48508651D02*
X46243025Y-47942966D01*
X46243025Y-47942966D02*
X46054463Y-48131528D01*
X46054463Y-48131528D02*
X46027526Y-48212340D01*
X46027526Y-48212340D02*
X46027526Y-48266215D01*
X46027526Y-48266215D02*
X46054463Y-48347027D01*
X46054463Y-48347027D02*
X46108338Y-48400902D01*
X46108338Y-48400902D02*
X46189150Y-48427839D01*
X46189150Y-48427839D02*
X46243025Y-48427839D01*
X46243025Y-48427839D02*
X46323837Y-48400902D01*
X46323837Y-48400902D02*
X46512399Y-48212340D01*
X45946714Y-49370648D02*
X46269962Y-49047399D01*
X46108338Y-49209024D02*
X45542653Y-48643338D01*
X45542653Y-48643338D02*
X45677340Y-48670276D01*
X45677340Y-48670276D02*
X45785089Y-48670276D01*
X45785089Y-48670276D02*
X45865901Y-48643338D01*
X49045462Y-50769277D02*
X48856900Y-50957839D01*
X49072399Y-51334963D02*
X49341773Y-51065589D01*
X49341773Y-51065589D02*
X48776088Y-50499903D01*
X48776088Y-50499903D02*
X48506714Y-50769277D01*
X48021840Y-51254151D02*
X48129590Y-51146401D01*
X48129590Y-51146401D02*
X48210402Y-51119464D01*
X48210402Y-51119464D02*
X48264277Y-51119464D01*
X48264277Y-51119464D02*
X48398964Y-51146401D01*
X48398964Y-51146401D02*
X48533651Y-51227213D01*
X48533651Y-51227213D02*
X48749150Y-51442713D01*
X48749150Y-51442713D02*
X48776087Y-51523525D01*
X48776087Y-51523525D02*
X48776087Y-51577400D01*
X48776087Y-51577400D02*
X48749150Y-51658212D01*
X48749150Y-51658212D02*
X48641400Y-51765961D01*
X48641400Y-51765961D02*
X48560588Y-51792899D01*
X48560588Y-51792899D02*
X48506713Y-51792899D01*
X48506713Y-51792899D02*
X48425901Y-51765961D01*
X48425901Y-51765961D02*
X48291214Y-51631274D01*
X48291214Y-51631274D02*
X48264277Y-51550462D01*
X48264277Y-51550462D02*
X48264277Y-51496587D01*
X48264277Y-51496587D02*
X48291214Y-51415775D01*
X48291214Y-51415775D02*
X48398964Y-51308026D01*
X48398964Y-51308026D02*
X48479776Y-51281088D01*
X48479776Y-51281088D02*
X48533651Y-51281088D01*
X48533651Y-51281088D02*
X48614463Y-51308026D01*
X46323837Y-50930902D02*
X46269962Y-51038651D01*
X46269962Y-51038651D02*
X46269962Y-51092526D01*
X46269962Y-51092526D02*
X46296900Y-51173338D01*
X46296900Y-51173338D02*
X46377712Y-51254151D01*
X46377712Y-51254151D02*
X46458524Y-51281088D01*
X46458524Y-51281088D02*
X46512399Y-51281088D01*
X46512399Y-51281088D02*
X46593211Y-51254151D01*
X46593211Y-51254151D02*
X46808710Y-51038651D01*
X46808710Y-51038651D02*
X46243025Y-50472966D01*
X46243025Y-50472966D02*
X46054463Y-50661528D01*
X46054463Y-50661528D02*
X46027526Y-50742340D01*
X46027526Y-50742340D02*
X46027526Y-50796215D01*
X46027526Y-50796215D02*
X46054463Y-50877027D01*
X46054463Y-50877027D02*
X46108338Y-50930902D01*
X46108338Y-50930902D02*
X46189150Y-50957839D01*
X46189150Y-50957839D02*
X46243025Y-50957839D01*
X46243025Y-50957839D02*
X46323837Y-50930902D01*
X46323837Y-50930902D02*
X46512399Y-50742340D01*
X45731214Y-50984777D02*
X45381028Y-51334963D01*
X45381028Y-51334963D02*
X45785089Y-51361900D01*
X45785089Y-51361900D02*
X45704277Y-51442712D01*
X45704277Y-51442712D02*
X45677340Y-51523525D01*
X45677340Y-51523525D02*
X45677340Y-51577399D01*
X45677340Y-51577399D02*
X45704277Y-51658212D01*
X45704277Y-51658212D02*
X45838964Y-51792899D01*
X45838964Y-51792899D02*
X45919776Y-51819836D01*
X45919776Y-51819836D02*
X45973651Y-51819836D01*
X45973651Y-51819836D02*
X46054463Y-51792899D01*
X46054463Y-51792899D02*
X46216088Y-51631274D01*
X46216088Y-51631274D02*
X46243025Y-51550462D01*
X46243025Y-51550462D02*
X46243025Y-51496587D01*
X49368710Y-38338651D02*
X48803025Y-37772966D01*
X48803025Y-37772966D02*
X48668338Y-37907653D01*
X48668338Y-37907653D02*
X48614463Y-38015403D01*
X48614463Y-38015403D02*
X48614463Y-38123152D01*
X48614463Y-38123152D02*
X48641401Y-38203964D01*
X48641401Y-38203964D02*
X48722213Y-38338651D01*
X48722213Y-38338651D02*
X48803025Y-38419464D01*
X48803025Y-38419464D02*
X48937712Y-38500276D01*
X48937712Y-38500276D02*
X49018524Y-38527213D01*
X49018524Y-38527213D02*
X49126274Y-38527213D01*
X49126274Y-38527213D02*
X49234023Y-38473338D01*
X49234023Y-38473338D02*
X49368710Y-38338651D01*
X48506714Y-39200648D02*
X48829962Y-38877399D01*
X48668338Y-39039024D02*
X48102653Y-38473338D01*
X48102653Y-38473338D02*
X48237340Y-38500276D01*
X48237340Y-38500276D02*
X48345089Y-38500276D01*
X48345089Y-38500276D02*
X48425901Y-38473338D01*
X48991587Y-46218025D02*
X49045462Y-46218025D01*
X49045462Y-46218025D02*
X49153211Y-46164151D01*
X49153211Y-46164151D02*
X49207086Y-46110276D01*
X49207086Y-46110276D02*
X49260961Y-46002526D01*
X49260961Y-46002526D02*
X49260961Y-45894777D01*
X49260961Y-45894777D02*
X49234023Y-45813964D01*
X49234023Y-45813964D02*
X49153211Y-45679277D01*
X49153211Y-45679277D02*
X49072399Y-45598465D01*
X49072399Y-45598465D02*
X48937712Y-45517653D01*
X48937712Y-45517653D02*
X48856900Y-45490716D01*
X48856900Y-45490716D02*
X48749150Y-45490716D01*
X48749150Y-45490716D02*
X48641401Y-45544590D01*
X48641401Y-45544590D02*
X48587526Y-45598465D01*
X48587526Y-45598465D02*
X48533651Y-45706215D01*
X48533651Y-45706215D02*
X48533651Y-45760090D01*
X47994903Y-46191088D02*
X48102653Y-46083338D01*
X48102653Y-46083338D02*
X48183465Y-46056401D01*
X48183465Y-46056401D02*
X48237340Y-46056401D01*
X48237340Y-46056401D02*
X48372027Y-46083338D01*
X48372027Y-46083338D02*
X48506714Y-46164151D01*
X48506714Y-46164151D02*
X48722213Y-46379650D01*
X48722213Y-46379650D02*
X48749150Y-46460462D01*
X48749150Y-46460462D02*
X48749150Y-46514337D01*
X48749150Y-46514337D02*
X48722213Y-46595149D01*
X48722213Y-46595149D02*
X48614463Y-46702899D01*
X48614463Y-46702899D02*
X48533651Y-46729836D01*
X48533651Y-46729836D02*
X48479776Y-46729836D01*
X48479776Y-46729836D02*
X48398964Y-46702899D01*
X48398964Y-46702899D02*
X48264277Y-46568212D01*
X48264277Y-46568212D02*
X48237340Y-46487399D01*
X48237340Y-46487399D02*
X48237340Y-46433525D01*
X48237340Y-46433525D02*
X48264277Y-46352712D01*
X48264277Y-46352712D02*
X48372027Y-46244963D01*
X48372027Y-46244963D02*
X48452839Y-46218025D01*
X48452839Y-46218025D02*
X48506714Y-46218025D01*
X48506714Y-46218025D02*
X48587526Y-46244963D01*
X46283431Y-43341308D02*
X46471993Y-43152746D01*
X46768304Y-43449058D02*
X46202619Y-42883372D01*
X46202619Y-42883372D02*
X45933245Y-43152746D01*
X45475309Y-43610682D02*
X45583059Y-43502932D01*
X45583059Y-43502932D02*
X45663871Y-43475995D01*
X45663871Y-43475995D02*
X45717746Y-43475995D01*
X45717746Y-43475995D02*
X45852433Y-43502932D01*
X45852433Y-43502932D02*
X45987120Y-43583744D01*
X45987120Y-43583744D02*
X46202619Y-43799244D01*
X46202619Y-43799244D02*
X46229556Y-43880056D01*
X46229556Y-43880056D02*
X46229556Y-43933931D01*
X46229556Y-43933931D02*
X46202619Y-44014743D01*
X46202619Y-44014743D02*
X46094869Y-44122493D01*
X46094869Y-44122493D02*
X46014057Y-44149430D01*
X46014057Y-44149430D02*
X45960182Y-44149430D01*
X45960182Y-44149430D02*
X45879370Y-44122493D01*
X45879370Y-44122493D02*
X45744683Y-43987805D01*
X45744683Y-43987805D02*
X45717746Y-43906993D01*
X45717746Y-43906993D02*
X45717746Y-43853118D01*
X45717746Y-43853118D02*
X45744683Y-43772306D01*
X45744683Y-43772306D02*
X45852433Y-43664557D01*
X45852433Y-43664557D02*
X45933245Y-43637619D01*
X45933245Y-43637619D02*
X45987120Y-43637619D01*
X45987120Y-43637619D02*
X46067932Y-43664557D01*
X23836348Y-36633710D02*
X24402033Y-36068025D01*
X24402033Y-36068025D02*
X24267346Y-35933338D01*
X24267346Y-35933338D02*
X24159596Y-35879463D01*
X24159596Y-35879463D02*
X24051847Y-35879463D01*
X24051847Y-35879463D02*
X23971035Y-35906401D01*
X23971035Y-35906401D02*
X23836348Y-35987213D01*
X23836348Y-35987213D02*
X23755535Y-36068025D01*
X23755535Y-36068025D02*
X23674723Y-36202712D01*
X23674723Y-36202712D02*
X23647786Y-36283524D01*
X23647786Y-36283524D02*
X23647786Y-36391274D01*
X23647786Y-36391274D02*
X23701661Y-36499023D01*
X23701661Y-36499023D02*
X23836348Y-36633710D01*
X23890222Y-35556214D02*
X23540036Y-35206028D01*
X23540036Y-35206028D02*
X23513099Y-35610089D01*
X23513099Y-35610089D02*
X23432287Y-35529277D01*
X23432287Y-35529277D02*
X23351474Y-35502340D01*
X23351474Y-35502340D02*
X23297600Y-35502340D01*
X23297600Y-35502340D02*
X23216787Y-35529277D01*
X23216787Y-35529277D02*
X23082100Y-35663964D01*
X23082100Y-35663964D02*
X23055163Y-35744776D01*
X23055163Y-35744776D02*
X23055163Y-35798651D01*
X23055163Y-35798651D02*
X23082100Y-35879463D01*
X23082100Y-35879463D02*
X23243725Y-36041088D01*
X23243725Y-36041088D02*
X23324537Y-36068025D01*
X23324537Y-36068025D02*
X23378412Y-36068025D01*
X23903691Y-46258431D02*
X24092253Y-46446993D01*
X23795941Y-46743304D02*
X24361627Y-46177619D01*
X24361627Y-46177619D02*
X24092253Y-45908245D01*
X23930629Y-45746621D02*
X23553505Y-45369497D01*
X23553505Y-45369497D02*
X23230256Y-46177619D01*
X21276348Y-41713710D02*
X21842033Y-41148025D01*
X21842033Y-41148025D02*
X21707346Y-41013338D01*
X21707346Y-41013338D02*
X21599596Y-40959463D01*
X21599596Y-40959463D02*
X21491847Y-40959463D01*
X21491847Y-40959463D02*
X21411035Y-40986401D01*
X21411035Y-40986401D02*
X21276348Y-41067213D01*
X21276348Y-41067213D02*
X21195535Y-41148025D01*
X21195535Y-41148025D02*
X21114723Y-41282712D01*
X21114723Y-41282712D02*
X21087786Y-41363524D01*
X21087786Y-41363524D02*
X21087786Y-41471274D01*
X21087786Y-41471274D02*
X21141661Y-41579023D01*
X21141661Y-41579023D02*
X21276348Y-41713710D01*
X21168598Y-40474590D02*
X21114723Y-40420715D01*
X21114723Y-40420715D02*
X21033911Y-40393778D01*
X21033911Y-40393778D02*
X20980036Y-40393778D01*
X20980036Y-40393778D02*
X20899224Y-40420715D01*
X20899224Y-40420715D02*
X20764537Y-40501527D01*
X20764537Y-40501527D02*
X20629850Y-40636214D01*
X20629850Y-40636214D02*
X20549038Y-40770901D01*
X20549038Y-40770901D02*
X20522100Y-40851714D01*
X20522100Y-40851714D02*
X20522100Y-40905588D01*
X20522100Y-40905588D02*
X20549038Y-40986401D01*
X20549038Y-40986401D02*
X20602912Y-41040275D01*
X20602912Y-41040275D02*
X20683725Y-41067213D01*
X20683725Y-41067213D02*
X20737600Y-41067213D01*
X20737600Y-41067213D02*
X20818412Y-41040275D01*
X20818412Y-41040275D02*
X20953099Y-40959463D01*
X20953099Y-40959463D02*
X21087786Y-40824776D01*
X21087786Y-40824776D02*
X21168598Y-40690089D01*
X21168598Y-40690089D02*
X21195535Y-40609277D01*
X21195535Y-40609277D02*
X21195535Y-40555402D01*
X21195535Y-40555402D02*
X21168598Y-40474590D01*
X21006974Y-46406587D02*
X21006974Y-46460462D01*
X21006974Y-46460462D02*
X21060848Y-46568211D01*
X21060848Y-46568211D02*
X21114723Y-46622086D01*
X21114723Y-46622086D02*
X21222473Y-46675961D01*
X21222473Y-46675961D02*
X21330222Y-46675961D01*
X21330222Y-46675961D02*
X21411035Y-46649023D01*
X21411035Y-46649023D02*
X21545722Y-46568211D01*
X21545722Y-46568211D02*
X21626534Y-46487399D01*
X21626534Y-46487399D02*
X21707346Y-46352712D01*
X21707346Y-46352712D02*
X21734283Y-46271900D01*
X21734283Y-46271900D02*
X21734283Y-46164150D01*
X21734283Y-46164150D02*
X21680409Y-46056401D01*
X21680409Y-46056401D02*
X21626534Y-46002526D01*
X21626534Y-46002526D02*
X21518784Y-45948651D01*
X21518784Y-45948651D02*
X21464909Y-45948651D01*
X21033911Y-45409903D02*
X21141661Y-45517653D01*
X21141661Y-45517653D02*
X21168598Y-45598465D01*
X21168598Y-45598465D02*
X21168598Y-45652340D01*
X21168598Y-45652340D02*
X21141661Y-45787027D01*
X21141661Y-45787027D02*
X21060848Y-45921714D01*
X21060848Y-45921714D02*
X20845349Y-46137213D01*
X20845349Y-46137213D02*
X20764537Y-46164150D01*
X20764537Y-46164150D02*
X20710662Y-46164150D01*
X20710662Y-46164150D02*
X20629850Y-46137213D01*
X20629850Y-46137213D02*
X20522100Y-46029463D01*
X20522100Y-46029463D02*
X20495163Y-45948651D01*
X20495163Y-45948651D02*
X20495163Y-45894776D01*
X20495163Y-45894776D02*
X20522100Y-45813964D01*
X20522100Y-45813964D02*
X20656787Y-45679277D01*
X20656787Y-45679277D02*
X20737600Y-45652340D01*
X20737600Y-45652340D02*
X20791474Y-45652340D01*
X20791474Y-45652340D02*
X20872287Y-45679277D01*
X20872287Y-45679277D02*
X20980036Y-45787027D01*
X20980036Y-45787027D02*
X21006974Y-45867839D01*
X21006974Y-45867839D02*
X21006974Y-45921714D01*
X21006974Y-45921714D02*
X20980036Y-46002526D01*
X21384097Y-53928837D02*
X21276348Y-53874962D01*
X21276348Y-53874962D02*
X21222473Y-53874962D01*
X21222473Y-53874962D02*
X21141661Y-53901900D01*
X21141661Y-53901900D02*
X21060848Y-53982712D01*
X21060848Y-53982712D02*
X21033911Y-54063524D01*
X21033911Y-54063524D02*
X21033911Y-54117399D01*
X21033911Y-54117399D02*
X21060848Y-54198211D01*
X21060848Y-54198211D02*
X21276348Y-54413710D01*
X21276348Y-54413710D02*
X21842033Y-53848025D01*
X21842033Y-53848025D02*
X21653471Y-53659463D01*
X21653471Y-53659463D02*
X21572659Y-53632526D01*
X21572659Y-53632526D02*
X21518784Y-53632526D01*
X21518784Y-53632526D02*
X21437972Y-53659463D01*
X21437972Y-53659463D02*
X21384097Y-53713338D01*
X21384097Y-53713338D02*
X21357160Y-53794150D01*
X21357160Y-53794150D02*
X21357160Y-53848025D01*
X21357160Y-53848025D02*
X21384097Y-53928837D01*
X21384097Y-53928837D02*
X21572659Y-54117399D01*
X20845349Y-53228465D02*
X20468225Y-53605588D01*
X21195535Y-53147653D02*
X20926161Y-53686401D01*
X20926161Y-53686401D02*
X20575975Y-53336214D01*
X23944097Y-51388837D02*
X23836348Y-51334962D01*
X23836348Y-51334962D02*
X23782473Y-51334962D01*
X23782473Y-51334962D02*
X23701661Y-51361900D01*
X23701661Y-51361900D02*
X23620848Y-51442712D01*
X23620848Y-51442712D02*
X23593911Y-51523524D01*
X23593911Y-51523524D02*
X23593911Y-51577399D01*
X23593911Y-51577399D02*
X23620848Y-51658211D01*
X23620848Y-51658211D02*
X23836348Y-51873710D01*
X23836348Y-51873710D02*
X24402033Y-51308025D01*
X24402033Y-51308025D02*
X24213471Y-51119463D01*
X24213471Y-51119463D02*
X24132659Y-51092526D01*
X24132659Y-51092526D02*
X24078784Y-51092526D01*
X24078784Y-51092526D02*
X23997972Y-51119463D01*
X23997972Y-51119463D02*
X23944097Y-51173338D01*
X23944097Y-51173338D02*
X23917160Y-51254150D01*
X23917160Y-51254150D02*
X23917160Y-51308025D01*
X23917160Y-51308025D02*
X23944097Y-51388837D01*
X23944097Y-51388837D02*
X24132659Y-51577399D01*
X23890222Y-50796214D02*
X23540036Y-50446028D01*
X23540036Y-50446028D02*
X23513099Y-50850089D01*
X23513099Y-50850089D02*
X23432287Y-50769277D01*
X23432287Y-50769277D02*
X23351474Y-50742340D01*
X23351474Y-50742340D02*
X23297600Y-50742340D01*
X23297600Y-50742340D02*
X23216787Y-50769277D01*
X23216787Y-50769277D02*
X23082100Y-50903964D01*
X23082100Y-50903964D02*
X23055163Y-50984776D01*
X23055163Y-50984776D02*
X23055163Y-51038651D01*
X23055163Y-51038651D02*
X23082100Y-51119463D01*
X23082100Y-51119463D02*
X23243725Y-51281088D01*
X23243725Y-51281088D02*
X23324537Y-51308025D01*
X23324537Y-51308025D02*
X23378412Y-51308025D01*
X23903691Y-43718431D02*
X24092253Y-43906993D01*
X23795941Y-44203304D02*
X24361627Y-43637619D01*
X24361627Y-43637619D02*
X24092253Y-43368245D01*
X23634317Y-42910309D02*
X23742067Y-43018059D01*
X23742067Y-43018059D02*
X23769004Y-43098871D01*
X23769004Y-43098871D02*
X23769004Y-43152746D01*
X23769004Y-43152746D02*
X23742067Y-43287433D01*
X23742067Y-43287433D02*
X23661255Y-43422120D01*
X23661255Y-43422120D02*
X23445755Y-43637619D01*
X23445755Y-43637619D02*
X23364943Y-43664556D01*
X23364943Y-43664556D02*
X23311068Y-43664556D01*
X23311068Y-43664556D02*
X23230256Y-43637619D01*
X23230256Y-43637619D02*
X23122506Y-43529869D01*
X23122506Y-43529869D02*
X23095569Y-43449057D01*
X23095569Y-43449057D02*
X23095569Y-43395182D01*
X23095569Y-43395182D02*
X23122506Y-43314370D01*
X23122506Y-43314370D02*
X23257194Y-43179683D01*
X23257194Y-43179683D02*
X23338006Y-43152746D01*
X23338006Y-43152746D02*
X23391881Y-43152746D01*
X23391881Y-43152746D02*
X23472693Y-43179683D01*
X23472693Y-43179683D02*
X23580442Y-43287433D01*
X23580442Y-43287433D02*
X23607380Y-43368245D01*
X23607380Y-43368245D02*
X23607380Y-43422120D01*
X23607380Y-43422120D02*
X23580442Y-43502932D01*
X21276348Y-44243710D02*
X21842033Y-43678025D01*
X21842033Y-43678025D02*
X21707346Y-43543338D01*
X21707346Y-43543338D02*
X21599596Y-43489463D01*
X21599596Y-43489463D02*
X21491847Y-43489463D01*
X21491847Y-43489463D02*
X21411035Y-43516401D01*
X21411035Y-43516401D02*
X21276348Y-43597213D01*
X21276348Y-43597213D02*
X21195535Y-43678025D01*
X21195535Y-43678025D02*
X21114723Y-43812712D01*
X21114723Y-43812712D02*
X21087786Y-43893524D01*
X21087786Y-43893524D02*
X21087786Y-44001274D01*
X21087786Y-44001274D02*
X21141661Y-44109023D01*
X21141661Y-44109023D02*
X21276348Y-44243710D01*
X20845349Y-43058465D02*
X20468225Y-43435588D01*
X21195535Y-42977653D02*
X20926161Y-43516401D01*
X20926161Y-43516401D02*
X20575975Y-43166214D01*
X21545722Y-51550462D02*
X21357160Y-51361900D01*
X20980036Y-51577399D02*
X21249410Y-51846773D01*
X21249410Y-51846773D02*
X21815096Y-51281088D01*
X21815096Y-51281088D02*
X21545722Y-51011714D01*
X21060848Y-50526840D02*
X21168598Y-50634590D01*
X21168598Y-50634590D02*
X21195535Y-50715402D01*
X21195535Y-50715402D02*
X21195535Y-50769277D01*
X21195535Y-50769277D02*
X21168598Y-50903964D01*
X21168598Y-50903964D02*
X21087786Y-51038651D01*
X21087786Y-51038651D02*
X20872286Y-51254150D01*
X20872286Y-51254150D02*
X20791474Y-51281087D01*
X20791474Y-51281087D02*
X20737599Y-51281087D01*
X20737599Y-51281087D02*
X20656787Y-51254150D01*
X20656787Y-51254150D02*
X20549038Y-51146400D01*
X20549038Y-51146400D02*
X20522100Y-51065588D01*
X20522100Y-51065588D02*
X20522100Y-51011713D01*
X20522100Y-51011713D02*
X20549038Y-50930901D01*
X20549038Y-50930901D02*
X20683725Y-50796214D01*
X20683725Y-50796214D02*
X20764537Y-50769277D01*
X20764537Y-50769277D02*
X20818412Y-50769277D01*
X20818412Y-50769277D02*
X20899224Y-50796214D01*
X20899224Y-50796214D02*
X21006973Y-50903964D01*
X21006973Y-50903964D02*
X21033911Y-50984776D01*
X21033911Y-50984776D02*
X21033911Y-51038651D01*
X21033911Y-51038651D02*
X21006973Y-51119463D01*
X21276348Y-36633710D02*
X21842033Y-36068025D01*
X21842033Y-36068025D02*
X21707346Y-35933338D01*
X21707346Y-35933338D02*
X21599596Y-35879463D01*
X21599596Y-35879463D02*
X21491847Y-35879463D01*
X21491847Y-35879463D02*
X21411035Y-35906401D01*
X21411035Y-35906401D02*
X21276348Y-35987213D01*
X21276348Y-35987213D02*
X21195535Y-36068025D01*
X21195535Y-36068025D02*
X21114723Y-36202712D01*
X21114723Y-36202712D02*
X21087786Y-36283524D01*
X21087786Y-36283524D02*
X21087786Y-36391274D01*
X21087786Y-36391274D02*
X21141661Y-36499023D01*
X21141661Y-36499023D02*
X21276348Y-36633710D01*
X21249410Y-35583152D02*
X21249410Y-35529277D01*
X21249410Y-35529277D02*
X21222473Y-35448465D01*
X21222473Y-35448465D02*
X21087786Y-35313778D01*
X21087786Y-35313778D02*
X21006974Y-35286840D01*
X21006974Y-35286840D02*
X20953099Y-35286840D01*
X20953099Y-35286840D02*
X20872287Y-35313778D01*
X20872287Y-35313778D02*
X20818412Y-35367653D01*
X20818412Y-35367653D02*
X20764537Y-35475402D01*
X20764537Y-35475402D02*
X20764537Y-36121900D01*
X20764537Y-36121900D02*
X20414351Y-35771714D01*
X23944097Y-56538837D02*
X23836348Y-56484962D01*
X23836348Y-56484962D02*
X23782473Y-56484962D01*
X23782473Y-56484962D02*
X23701661Y-56511900D01*
X23701661Y-56511900D02*
X23620848Y-56592712D01*
X23620848Y-56592712D02*
X23593911Y-56673524D01*
X23593911Y-56673524D02*
X23593911Y-56727399D01*
X23593911Y-56727399D02*
X23620848Y-56808211D01*
X23620848Y-56808211D02*
X23836348Y-57023710D01*
X23836348Y-57023710D02*
X24402033Y-56458025D01*
X24402033Y-56458025D02*
X24213471Y-56269463D01*
X24213471Y-56269463D02*
X24132659Y-56242526D01*
X24132659Y-56242526D02*
X24078784Y-56242526D01*
X24078784Y-56242526D02*
X23997972Y-56269463D01*
X23997972Y-56269463D02*
X23944097Y-56323338D01*
X23944097Y-56323338D02*
X23917160Y-56404150D01*
X23917160Y-56404150D02*
X23917160Y-56458025D01*
X23917160Y-56458025D02*
X23944097Y-56538837D01*
X23944097Y-56538837D02*
X24132659Y-56727399D01*
X23593911Y-55649903D02*
X23701661Y-55757653D01*
X23701661Y-55757653D02*
X23728598Y-55838465D01*
X23728598Y-55838465D02*
X23728598Y-55892340D01*
X23728598Y-55892340D02*
X23701661Y-56027027D01*
X23701661Y-56027027D02*
X23620848Y-56161714D01*
X23620848Y-56161714D02*
X23405349Y-56377213D01*
X23405349Y-56377213D02*
X23324537Y-56404150D01*
X23324537Y-56404150D02*
X23270662Y-56404150D01*
X23270662Y-56404150D02*
X23189850Y-56377213D01*
X23189850Y-56377213D02*
X23082100Y-56269463D01*
X23082100Y-56269463D02*
X23055163Y-56188651D01*
X23055163Y-56188651D02*
X23055163Y-56134776D01*
X23055163Y-56134776D02*
X23082100Y-56053964D01*
X23082100Y-56053964D02*
X23216787Y-55919277D01*
X23216787Y-55919277D02*
X23297600Y-55892340D01*
X23297600Y-55892340D02*
X23351474Y-55892340D01*
X23351474Y-55892340D02*
X23432287Y-55919277D01*
X23432287Y-55919277D02*
X23540036Y-56027027D01*
X23540036Y-56027027D02*
X23566974Y-56107839D01*
X23566974Y-56107839D02*
X23566974Y-56161714D01*
X23566974Y-56161714D02*
X23540036Y-56242526D01*
X23944097Y-53928837D02*
X23836348Y-53874962D01*
X23836348Y-53874962D02*
X23782473Y-53874962D01*
X23782473Y-53874962D02*
X23701661Y-53901900D01*
X23701661Y-53901900D02*
X23620848Y-53982712D01*
X23620848Y-53982712D02*
X23593911Y-54063524D01*
X23593911Y-54063524D02*
X23593911Y-54117399D01*
X23593911Y-54117399D02*
X23620848Y-54198211D01*
X23620848Y-54198211D02*
X23836348Y-54413710D01*
X23836348Y-54413710D02*
X24402033Y-53848025D01*
X24402033Y-53848025D02*
X24213471Y-53659463D01*
X24213471Y-53659463D02*
X24132659Y-53632526D01*
X24132659Y-53632526D02*
X24078784Y-53632526D01*
X24078784Y-53632526D02*
X23997972Y-53659463D01*
X23997972Y-53659463D02*
X23944097Y-53713338D01*
X23944097Y-53713338D02*
X23917160Y-53794150D01*
X23917160Y-53794150D02*
X23917160Y-53848025D01*
X23917160Y-53848025D02*
X23944097Y-53928837D01*
X23944097Y-53928837D02*
X24132659Y-54117399D01*
X23809410Y-53363152D02*
X23809410Y-53309277D01*
X23809410Y-53309277D02*
X23782473Y-53228465D01*
X23782473Y-53228465D02*
X23647786Y-53093778D01*
X23647786Y-53093778D02*
X23566974Y-53066840D01*
X23566974Y-53066840D02*
X23513099Y-53066840D01*
X23513099Y-53066840D02*
X23432287Y-53093778D01*
X23432287Y-53093778D02*
X23378412Y-53147653D01*
X23378412Y-53147653D02*
X23324537Y-53255402D01*
X23324537Y-53255402D02*
X23324537Y-53901900D01*
X23324537Y-53901900D02*
X22974351Y-53551714D01*
X21276348Y-39173710D02*
X21842033Y-38608025D01*
X21842033Y-38608025D02*
X21707346Y-38473338D01*
X21707346Y-38473338D02*
X21599596Y-38419463D01*
X21599596Y-38419463D02*
X21491847Y-38419463D01*
X21491847Y-38419463D02*
X21411035Y-38446401D01*
X21411035Y-38446401D02*
X21276348Y-38527213D01*
X21276348Y-38527213D02*
X21195535Y-38608025D01*
X21195535Y-38608025D02*
X21114723Y-38742712D01*
X21114723Y-38742712D02*
X21087786Y-38823524D01*
X21087786Y-38823524D02*
X21087786Y-38931274D01*
X21087786Y-38931274D02*
X21141661Y-39039023D01*
X21141661Y-39039023D02*
X21276348Y-39173710D01*
X20414351Y-38311714D02*
X20737600Y-38634962D01*
X20575975Y-38473338D02*
X21141661Y-37907653D01*
X21141661Y-37907653D02*
X21114723Y-38042340D01*
X21114723Y-38042340D02*
X21114723Y-38150089D01*
X21114723Y-38150089D02*
X21141661Y-38230901D01*
X23903691Y-38648431D02*
X24092253Y-38836993D01*
X23795941Y-39133304D02*
X24361627Y-38567619D01*
X24361627Y-38567619D02*
X24092253Y-38298245D01*
X23445755Y-38028871D02*
X23068632Y-38405995D01*
X23795942Y-37948059D02*
X23526568Y-38486807D01*
X23526568Y-38486807D02*
X23176381Y-38136621D01*
X23903691Y-41188431D02*
X24092253Y-41376993D01*
X23795941Y-41673304D02*
X24361627Y-41107619D01*
X24361627Y-41107619D02*
X24092253Y-40838245D01*
X23607380Y-40353372D02*
X23876754Y-40622746D01*
X23876754Y-40622746D02*
X23634317Y-40919057D01*
X23634317Y-40919057D02*
X23634317Y-40865182D01*
X23634317Y-40865182D02*
X23607380Y-40784370D01*
X23607380Y-40784370D02*
X23472693Y-40649683D01*
X23472693Y-40649683D02*
X23391881Y-40622746D01*
X23391881Y-40622746D02*
X23338006Y-40622746D01*
X23338006Y-40622746D02*
X23257194Y-40649683D01*
X23257194Y-40649683D02*
X23122506Y-40784370D01*
X23122506Y-40784370D02*
X23095569Y-40865182D01*
X23095569Y-40865182D02*
X23095569Y-40919057D01*
X23095569Y-40919057D02*
X23122506Y-40999869D01*
X23122506Y-40999869D02*
X23257194Y-41134556D01*
X23257194Y-41134556D02*
X23338006Y-41161494D01*
X23338006Y-41161494D02*
X23391881Y-41161494D01*
X23944097Y-48858837D02*
X23836348Y-48804962D01*
X23836348Y-48804962D02*
X23782473Y-48804962D01*
X23782473Y-48804962D02*
X23701661Y-48831900D01*
X23701661Y-48831900D02*
X23620848Y-48912712D01*
X23620848Y-48912712D02*
X23593911Y-48993524D01*
X23593911Y-48993524D02*
X23593911Y-49047399D01*
X23593911Y-49047399D02*
X23620848Y-49128211D01*
X23620848Y-49128211D02*
X23836348Y-49343710D01*
X23836348Y-49343710D02*
X24402033Y-48778025D01*
X24402033Y-48778025D02*
X24213471Y-48589463D01*
X24213471Y-48589463D02*
X24132659Y-48562526D01*
X24132659Y-48562526D02*
X24078784Y-48562526D01*
X24078784Y-48562526D02*
X23997972Y-48589463D01*
X23997972Y-48589463D02*
X23944097Y-48643338D01*
X23944097Y-48643338D02*
X23917160Y-48724150D01*
X23917160Y-48724150D02*
X23917160Y-48778025D01*
X23917160Y-48778025D02*
X23944097Y-48858837D01*
X23944097Y-48858837D02*
X24132659Y-49047399D01*
X22974351Y-48481714D02*
X23297600Y-48804962D01*
X23135975Y-48643338D02*
X23701661Y-48077653D01*
X23701661Y-48077653D02*
X23674723Y-48212340D01*
X23674723Y-48212340D02*
X23674723Y-48320089D01*
X23674723Y-48320089D02*
X23701661Y-48400901D01*
X21384097Y-56538837D02*
X21276348Y-56484962D01*
X21276348Y-56484962D02*
X21222473Y-56484962D01*
X21222473Y-56484962D02*
X21141661Y-56511900D01*
X21141661Y-56511900D02*
X21060848Y-56592712D01*
X21060848Y-56592712D02*
X21033911Y-56673524D01*
X21033911Y-56673524D02*
X21033911Y-56727399D01*
X21033911Y-56727399D02*
X21060848Y-56808211D01*
X21060848Y-56808211D02*
X21276348Y-57023710D01*
X21276348Y-57023710D02*
X21842033Y-56458025D01*
X21842033Y-56458025D02*
X21653471Y-56269463D01*
X21653471Y-56269463D02*
X21572659Y-56242526D01*
X21572659Y-56242526D02*
X21518784Y-56242526D01*
X21518784Y-56242526D02*
X21437972Y-56269463D01*
X21437972Y-56269463D02*
X21384097Y-56323338D01*
X21384097Y-56323338D02*
X21357160Y-56404150D01*
X21357160Y-56404150D02*
X21357160Y-56458025D01*
X21357160Y-56458025D02*
X21384097Y-56538837D01*
X21384097Y-56538837D02*
X21572659Y-56727399D01*
X21006974Y-55622966D02*
X21276348Y-55892340D01*
X21276348Y-55892340D02*
X21033911Y-56188651D01*
X21033911Y-56188651D02*
X21033911Y-56134776D01*
X21033911Y-56134776D02*
X21006974Y-56053964D01*
X21006974Y-56053964D02*
X20872287Y-55919277D01*
X20872287Y-55919277D02*
X20791474Y-55892340D01*
X20791474Y-55892340D02*
X20737600Y-55892340D01*
X20737600Y-55892340D02*
X20656787Y-55919277D01*
X20656787Y-55919277D02*
X20522100Y-56053964D01*
X20522100Y-56053964D02*
X20495163Y-56134776D01*
X20495163Y-56134776D02*
X20495163Y-56188651D01*
X20495163Y-56188651D02*
X20522100Y-56269463D01*
X20522100Y-56269463D02*
X20656787Y-56404150D01*
X20656787Y-56404150D02*
X20737600Y-56431088D01*
X20737600Y-56431088D02*
X20791474Y-56431088D01*
X21276348Y-49343710D02*
X21842033Y-48778025D01*
X21842033Y-48778025D02*
X21707346Y-48643338D01*
X21707346Y-48643338D02*
X21599596Y-48589463D01*
X21599596Y-48589463D02*
X21491847Y-48589463D01*
X21491847Y-48589463D02*
X21411035Y-48616401D01*
X21411035Y-48616401D02*
X21276348Y-48697213D01*
X21276348Y-48697213D02*
X21195535Y-48778025D01*
X21195535Y-48778025D02*
X21114723Y-48912712D01*
X21114723Y-48912712D02*
X21087786Y-48993524D01*
X21087786Y-48993524D02*
X21087786Y-49101274D01*
X21087786Y-49101274D02*
X21141661Y-49209023D01*
X21141661Y-49209023D02*
X21276348Y-49343710D01*
X21330222Y-48266214D02*
X20953099Y-47889091D01*
X20953099Y-47889091D02*
X20629850Y-48697213D01*
D11*
X43775000Y-20720000D02*
X25995000Y-20720000D01*
X25995000Y-20720000D02*
X25995000Y-53740000D01*
X43775000Y-53740000D02*
X43775000Y-20720000D01*
X25995000Y-53740000D02*
X43775000Y-53740000D01*
D10*
X32035000Y-54245000D02*
X32035000Y-54495000D01*
X32035000Y-57445000D02*
X32035000Y-57195000D01*
X37735000Y-54245000D02*
X32035000Y-54245000D01*
X37735000Y-54245000D02*
X37735000Y-54495000D01*
X37735000Y-57445000D02*
X32035000Y-57445000D01*
X37735000Y-57445000D02*
X37735000Y-57195000D01*
D12*
X35422275Y-35968931D02*
X35506095Y-36413555D01*
X36124667Y-36668551D01*
X36495707Y-36416246D01*
X36569144Y-36366506D01*
X36666499Y-36301218D01*
X36750787Y-36245454D01*
X36817631Y-36202078D01*
X36862654Y-36173953D01*
X36881478Y-36163942D01*
X36893039Y-36171061D01*
X36927596Y-36200894D01*
X36979894Y-36249852D01*
X37045500Y-36313440D01*
X37119983Y-36387163D01*
X37198913Y-36466525D01*
X37277856Y-36547031D01*
X37352384Y-36624185D01*
X37418063Y-36693493D01*
X37470463Y-36750457D01*
X37505153Y-36790584D01*
X37517701Y-36809377D01*
X37514782Y-36817451D01*
X37494571Y-36853469D01*
X37457663Y-36912744D01*
X37407050Y-36990630D01*
X37345725Y-37082481D01*
X37276679Y-37183650D01*
X37238787Y-37238826D01*
X37173606Y-37334884D01*
X37117723Y-37418717D01*
X37074117Y-37485777D01*
X37045769Y-37531519D01*
X37035657Y-37551396D01*
X37035823Y-37552497D01*
X37044743Y-37577694D01*
X37065206Y-37629147D01*
X37094360Y-37700135D01*
X37129353Y-37783935D01*
X37167332Y-37873828D01*
X37205445Y-37963091D01*
X37240839Y-38045003D01*
X37270662Y-38112843D01*
X37292061Y-38159890D01*
X37302184Y-38179422D01*
X37308174Y-38181155D01*
X37344566Y-38188969D01*
X37409427Y-38201915D01*
X37497565Y-38218979D01*
X37603787Y-38239151D01*
X37722902Y-38261418D01*
X37785683Y-38273223D01*
X37900912Y-38295748D01*
X38001662Y-38316550D01*
X38082426Y-38334435D01*
X38137698Y-38348208D01*
X38161971Y-38356674D01*
X38166331Y-38365066D01*
X38173563Y-38406072D01*
X38179246Y-38474368D01*
X38183382Y-38563529D01*
X38185977Y-38667128D01*
X38187036Y-38778740D01*
X38186561Y-38891938D01*
X38184559Y-39000296D01*
X38181033Y-39097389D01*
X38175987Y-39176790D01*
X38169427Y-39232072D01*
X38161356Y-39256810D01*
X38156458Y-39259600D01*
X38119930Y-39271569D01*
X38056565Y-39287405D01*
X37973686Y-39305374D01*
X37878618Y-39323741D01*
X37846542Y-39329591D01*
X37698393Y-39356798D01*
X37581961Y-39378663D01*
X37493209Y-39396093D01*
X37428103Y-39409996D01*
X37382606Y-39421277D01*
X37352682Y-39430843D01*
X37334294Y-39439601D01*
X37323407Y-39448457D01*
X37322142Y-39449943D01*
X37304338Y-39480931D01*
X37277994Y-39537634D01*
X37245661Y-39613399D01*
X37209893Y-39701574D01*
X37173244Y-39795507D01*
X37138266Y-39888547D01*
X37107513Y-39974041D01*
X37083538Y-40045336D01*
X37068895Y-40095782D01*
X37066136Y-40118726D01*
X37067981Y-40121703D01*
X37087075Y-40150493D01*
X37122984Y-40203595D01*
X37172378Y-40276117D01*
X37231927Y-40363167D01*
X37298303Y-40459854D01*
X37316520Y-40486456D01*
X37380577Y-40581875D01*
X37435937Y-40667212D01*
X37479439Y-40737405D01*
X37507924Y-40787394D01*
X37518232Y-40812116D01*
X37516011Y-40818616D01*
X37492858Y-40850644D01*
X37447177Y-40902945D01*
X37382241Y-40971999D01*
X37301319Y-41054286D01*
X37207685Y-41146286D01*
X37154165Y-41197781D01*
X37069542Y-41277983D01*
X36995475Y-41346678D01*
X36935941Y-41400252D01*
X36894917Y-41435085D01*
X36876381Y-41447563D01*
X36863646Y-41442938D01*
X36824436Y-41421057D01*
X36767495Y-41385273D01*
X36700250Y-41340117D01*
X36652438Y-41307165D01*
X36556985Y-41241727D01*
X36455125Y-41172228D01*
X36362088Y-41109075D01*
X36179832Y-40985800D01*
X36026841Y-41068520D01*
X35990817Y-41087613D01*
X35925303Y-41120272D01*
X35874640Y-41142819D01*
X35847564Y-41151226D01*
X35838703Y-41140430D01*
X35816699Y-41099323D01*
X35784199Y-41031549D01*
X35743010Y-40941409D01*
X35694942Y-40833205D01*
X35641802Y-40711237D01*
X35585399Y-40579808D01*
X35527542Y-40443218D01*
X35470038Y-40305767D01*
X35414697Y-40171758D01*
X35363326Y-40045491D01*
X35317735Y-39931268D01*
X35279732Y-39833390D01*
X35251124Y-39756157D01*
X35233721Y-39703871D01*
X35229331Y-39680833D01*
X35229628Y-39680160D01*
X35250077Y-39658863D01*
X35292850Y-39625508D01*
X35349117Y-39587011D01*
X35366877Y-39575256D01*
X35502014Y-39463735D01*
X35613856Y-39330906D01*
X35699755Y-39182298D01*
X35757062Y-39023440D01*
X35783131Y-38859860D01*
X35775313Y-38697088D01*
X35743644Y-38552315D01*
X35686782Y-38406124D01*
X35603888Y-38275703D01*
X35490131Y-38151813D01*
X35445433Y-38112235D01*
X35300935Y-38014723D01*
X35144838Y-37949050D01*
X34981667Y-37914630D01*
X34815943Y-37910874D01*
X34652192Y-37937194D01*
X34494936Y-37993003D01*
X34348698Y-38077714D01*
X34218004Y-38190737D01*
X34107374Y-38331487D01*
X34086105Y-38366342D01*
X34013810Y-38525655D01*
X33975415Y-38691552D01*
X33969914Y-38859737D01*
X33996301Y-39025913D01*
X34053570Y-39185784D01*
X34140717Y-39335053D01*
X34256736Y-39469423D01*
X34400622Y-39584599D01*
X34405294Y-39587702D01*
X34460964Y-39626933D01*
X34502689Y-39660286D01*
X34521746Y-39680833D01*
X34519342Y-39696941D01*
X34504391Y-39743844D01*
X34477881Y-39816539D01*
X34441620Y-39910725D01*
X34397416Y-40022098D01*
X34347076Y-40146358D01*
X34292407Y-40279202D01*
X34235218Y-40416327D01*
X34177316Y-40553432D01*
X34120510Y-40686215D01*
X34066606Y-40810374D01*
X34017412Y-40921606D01*
X33974737Y-41015609D01*
X33940387Y-41088082D01*
X33916171Y-41134722D01*
X33903897Y-41151226D01*
X33893689Y-41148991D01*
X33853586Y-41132926D01*
X33794318Y-41104759D01*
X33724619Y-41068520D01*
X33571629Y-40985800D01*
X33389373Y-41109075D01*
X33335527Y-41145579D01*
X33235374Y-41213784D01*
X33135525Y-41282098D01*
X33051211Y-41340117D01*
X33004679Y-41371736D01*
X32944200Y-41411020D01*
X32899357Y-41437912D01*
X32877455Y-41447883D01*
X32868045Y-41443650D01*
X32834031Y-41417721D01*
X32781595Y-41372070D01*
X32715301Y-41311186D01*
X32639713Y-41239561D01*
X32559396Y-41161683D01*
X32478913Y-41082045D01*
X32402829Y-41005135D01*
X32335707Y-40935445D01*
X32282112Y-40877464D01*
X32246608Y-40835684D01*
X32233759Y-40814593D01*
X32234500Y-40810581D01*
X32249793Y-40777920D01*
X32282462Y-40721412D01*
X32329350Y-40646163D01*
X32387301Y-40557275D01*
X32453157Y-40459854D01*
X32471627Y-40432982D01*
X32536482Y-40338423D01*
X32593609Y-40254827D01*
X32639678Y-40187084D01*
X32671359Y-40140086D01*
X32685324Y-40118726D01*
X32685668Y-40117811D01*
X32681546Y-40091678D01*
X32665807Y-40038740D01*
X32641004Y-39965647D01*
X32609689Y-39879052D01*
X32574417Y-39785608D01*
X32537740Y-39691965D01*
X32502212Y-39604777D01*
X32470386Y-39530695D01*
X32444816Y-39476371D01*
X32428053Y-39448457D01*
X32426374Y-39446724D01*
X32414372Y-39437956D01*
X32394103Y-39429115D01*
X32361529Y-39419292D01*
X32312616Y-39407583D01*
X32243327Y-39393080D01*
X32149625Y-39374876D01*
X32027476Y-39352066D01*
X31872842Y-39323741D01*
X31840770Y-39317780D01*
X31748893Y-39299352D01*
X31671607Y-39281892D01*
X31616236Y-39267133D01*
X31590105Y-39256810D01*
X31585733Y-39248197D01*
X31578445Y-39206826D01*
X31572669Y-39138241D01*
X31568410Y-39048868D01*
X31565673Y-38945135D01*
X31564462Y-38833465D01*
X31564782Y-38720287D01*
X31566636Y-38612026D01*
X31570030Y-38515108D01*
X31574967Y-38435959D01*
X31581452Y-38381006D01*
X31589489Y-38356674D01*
X31597696Y-38353079D01*
X31638519Y-38341748D01*
X31707524Y-38325722D01*
X31799203Y-38306195D01*
X31908050Y-38284362D01*
X32028558Y-38261418D01*
X32094357Y-38249159D01*
X32207135Y-38227901D01*
X32304207Y-38209287D01*
X32380382Y-38194328D01*
X32430469Y-38184036D01*
X32449276Y-38179422D01*
X32449983Y-38178471D01*
X32461961Y-38154310D01*
X32484794Y-38103694D01*
X32515630Y-38033338D01*
X32551613Y-37949958D01*
X32589891Y-37860270D01*
X32627609Y-37770989D01*
X32661913Y-37688832D01*
X32689949Y-37620513D01*
X32708864Y-37572748D01*
X32715803Y-37552254D01*
X32712742Y-37545043D01*
X32692372Y-37510728D01*
X32655422Y-37452970D01*
X32604860Y-37376299D01*
X32543657Y-37285248D01*
X32474781Y-37184350D01*
X32436994Y-37129093D01*
X32371782Y-37032215D01*
X32315871Y-36947193D01*
X32272241Y-36878662D01*
X32243877Y-36831260D01*
X32233759Y-36809623D01*
X32240790Y-36797887D01*
X32270197Y-36762818D01*
X32318441Y-36709745D01*
X32381093Y-36643164D01*
X32453725Y-36567574D01*
X32531908Y-36487472D01*
X32611214Y-36407354D01*
X32687213Y-36331718D01*
X32755478Y-36265062D01*
X32811580Y-36211882D01*
X32851090Y-36176676D01*
X32869579Y-36163942D01*
X32879843Y-36168893D01*
X32917530Y-36191857D01*
X32978348Y-36230938D01*
X33057913Y-36283272D01*
X33151843Y-36345996D01*
X33255754Y-36416246D01*
X33626794Y-36668551D01*
X33936080Y-36541053D01*
X34245365Y-36413555D01*
X34329186Y-35968931D01*
X34413006Y-35524307D01*
X35338454Y-35524307D01*
X35422275Y-35968931D01*
G36*
X35422275Y-35968931D02*
G01*
X35506095Y-36413555D01*
X36124667Y-36668551D01*
X36495707Y-36416246D01*
X36569144Y-36366506D01*
X36666499Y-36301218D01*
X36750787Y-36245454D01*
X36817631Y-36202078D01*
X36862654Y-36173953D01*
X36881478Y-36163942D01*
X36893039Y-36171061D01*
X36927596Y-36200894D01*
X36979894Y-36249852D01*
X37045500Y-36313440D01*
X37119983Y-36387163D01*
X37198913Y-36466525D01*
X37277856Y-36547031D01*
X37352384Y-36624185D01*
X37418063Y-36693493D01*
X37470463Y-36750457D01*
X37505153Y-36790584D01*
X37517701Y-36809377D01*
X37514782Y-36817451D01*
X37494571Y-36853469D01*
X37457663Y-36912744D01*
X37407050Y-36990630D01*
X37345725Y-37082481D01*
X37276679Y-37183650D01*
X37238787Y-37238826D01*
X37173606Y-37334884D01*
X37117723Y-37418717D01*
X37074117Y-37485777D01*
X37045769Y-37531519D01*
X37035657Y-37551396D01*
X37035823Y-37552497D01*
X37044743Y-37577694D01*
X37065206Y-37629147D01*
X37094360Y-37700135D01*
X37129353Y-37783935D01*
X37167332Y-37873828D01*
X37205445Y-37963091D01*
X37240839Y-38045003D01*
X37270662Y-38112843D01*
X37292061Y-38159890D01*
X37302184Y-38179422D01*
X37308174Y-38181155D01*
X37344566Y-38188969D01*
X37409427Y-38201915D01*
X37497565Y-38218979D01*
X37603787Y-38239151D01*
X37722902Y-38261418D01*
X37785683Y-38273223D01*
X37900912Y-38295748D01*
X38001662Y-38316550D01*
X38082426Y-38334435D01*
X38137698Y-38348208D01*
X38161971Y-38356674D01*
X38166331Y-38365066D01*
X38173563Y-38406072D01*
X38179246Y-38474368D01*
X38183382Y-38563529D01*
X38185977Y-38667128D01*
X38187036Y-38778740D01*
X38186561Y-38891938D01*
X38184559Y-39000296D01*
X38181033Y-39097389D01*
X38175987Y-39176790D01*
X38169427Y-39232072D01*
X38161356Y-39256810D01*
X38156458Y-39259600D01*
X38119930Y-39271569D01*
X38056565Y-39287405D01*
X37973686Y-39305374D01*
X37878618Y-39323741D01*
X37846542Y-39329591D01*
X37698393Y-39356798D01*
X37581961Y-39378663D01*
X37493209Y-39396093D01*
X37428103Y-39409996D01*
X37382606Y-39421277D01*
X37352682Y-39430843D01*
X37334294Y-39439601D01*
X37323407Y-39448457D01*
X37322142Y-39449943D01*
X37304338Y-39480931D01*
X37277994Y-39537634D01*
X37245661Y-39613399D01*
X37209893Y-39701574D01*
X37173244Y-39795507D01*
X37138266Y-39888547D01*
X37107513Y-39974041D01*
X37083538Y-40045336D01*
X37068895Y-40095782D01*
X37066136Y-40118726D01*
X37067981Y-40121703D01*
X37087075Y-40150493D01*
X37122984Y-40203595D01*
X37172378Y-40276117D01*
X37231927Y-40363167D01*
X37298303Y-40459854D01*
X37316520Y-40486456D01*
X37380577Y-40581875D01*
X37435937Y-40667212D01*
X37479439Y-40737405D01*
X37507924Y-40787394D01*
X37518232Y-40812116D01*
X37516011Y-40818616D01*
X37492858Y-40850644D01*
X37447177Y-40902945D01*
X37382241Y-40971999D01*
X37301319Y-41054286D01*
X37207685Y-41146286D01*
X37154165Y-41197781D01*
X37069542Y-41277983D01*
X36995475Y-41346678D01*
X36935941Y-41400252D01*
X36894917Y-41435085D01*
X36876381Y-41447563D01*
X36863646Y-41442938D01*
X36824436Y-41421057D01*
X36767495Y-41385273D01*
X36700250Y-41340117D01*
X36652438Y-41307165D01*
X36556985Y-41241727D01*
X36455125Y-41172228D01*
X36362088Y-41109075D01*
X36179832Y-40985800D01*
X36026841Y-41068520D01*
X35990817Y-41087613D01*
X35925303Y-41120272D01*
X35874640Y-41142819D01*
X35847564Y-41151226D01*
X35838703Y-41140430D01*
X35816699Y-41099323D01*
X35784199Y-41031549D01*
X35743010Y-40941409D01*
X35694942Y-40833205D01*
X35641802Y-40711237D01*
X35585399Y-40579808D01*
X35527542Y-40443218D01*
X35470038Y-40305767D01*
X35414697Y-40171758D01*
X35363326Y-40045491D01*
X35317735Y-39931268D01*
X35279732Y-39833390D01*
X35251124Y-39756157D01*
X35233721Y-39703871D01*
X35229331Y-39680833D01*
X35229628Y-39680160D01*
X35250077Y-39658863D01*
X35292850Y-39625508D01*
X35349117Y-39587011D01*
X35366877Y-39575256D01*
X35502014Y-39463735D01*
X35613856Y-39330906D01*
X35699755Y-39182298D01*
X35757062Y-39023440D01*
X35783131Y-38859860D01*
X35775313Y-38697088D01*
X35743644Y-38552315D01*
X35686782Y-38406124D01*
X35603888Y-38275703D01*
X35490131Y-38151813D01*
X35445433Y-38112235D01*
X35300935Y-38014723D01*
X35144838Y-37949050D01*
X34981667Y-37914630D01*
X34815943Y-37910874D01*
X34652192Y-37937194D01*
X34494936Y-37993003D01*
X34348698Y-38077714D01*
X34218004Y-38190737D01*
X34107374Y-38331487D01*
X34086105Y-38366342D01*
X34013810Y-38525655D01*
X33975415Y-38691552D01*
X33969914Y-38859737D01*
X33996301Y-39025913D01*
X34053570Y-39185784D01*
X34140717Y-39335053D01*
X34256736Y-39469423D01*
X34400622Y-39584599D01*
X34405294Y-39587702D01*
X34460964Y-39626933D01*
X34502689Y-39660286D01*
X34521746Y-39680833D01*
X34519342Y-39696941D01*
X34504391Y-39743844D01*
X34477881Y-39816539D01*
X34441620Y-39910725D01*
X34397416Y-40022098D01*
X34347076Y-40146358D01*
X34292407Y-40279202D01*
X34235218Y-40416327D01*
X34177316Y-40553432D01*
X34120510Y-40686215D01*
X34066606Y-40810374D01*
X34017412Y-40921606D01*
X33974737Y-41015609D01*
X33940387Y-41088082D01*
X33916171Y-41134722D01*
X33903897Y-41151226D01*
X33893689Y-41148991D01*
X33853586Y-41132926D01*
X33794318Y-41104759D01*
X33724619Y-41068520D01*
X33571629Y-40985800D01*
X33389373Y-41109075D01*
X33335527Y-41145579D01*
X33235374Y-41213784D01*
X33135525Y-41282098D01*
X33051211Y-41340117D01*
X33004679Y-41371736D01*
X32944200Y-41411020D01*
X32899357Y-41437912D01*
X32877455Y-41447883D01*
X32868045Y-41443650D01*
X32834031Y-41417721D01*
X32781595Y-41372070D01*
X32715301Y-41311186D01*
X32639713Y-41239561D01*
X32559396Y-41161683D01*
X32478913Y-41082045D01*
X32402829Y-41005135D01*
X32335707Y-40935445D01*
X32282112Y-40877464D01*
X32246608Y-40835684D01*
X32233759Y-40814593D01*
X32234500Y-40810581D01*
X32249793Y-40777920D01*
X32282462Y-40721412D01*
X32329350Y-40646163D01*
X32387301Y-40557275D01*
X32453157Y-40459854D01*
X32471627Y-40432982D01*
X32536482Y-40338423D01*
X32593609Y-40254827D01*
X32639678Y-40187084D01*
X32671359Y-40140086D01*
X32685324Y-40118726D01*
X32685668Y-40117811D01*
X32681546Y-40091678D01*
X32665807Y-40038740D01*
X32641004Y-39965647D01*
X32609689Y-39879052D01*
X32574417Y-39785608D01*
X32537740Y-39691965D01*
X32502212Y-39604777D01*
X32470386Y-39530695D01*
X32444816Y-39476371D01*
X32428053Y-39448457D01*
X32426374Y-39446724D01*
X32414372Y-39437956D01*
X32394103Y-39429115D01*
X32361529Y-39419292D01*
X32312616Y-39407583D01*
X32243327Y-39393080D01*
X32149625Y-39374876D01*
X32027476Y-39352066D01*
X31872842Y-39323741D01*
X31840770Y-39317780D01*
X31748893Y-39299352D01*
X31671607Y-39281892D01*
X31616236Y-39267133D01*
X31590105Y-39256810D01*
X31585733Y-39248197D01*
X31578445Y-39206826D01*
X31572669Y-39138241D01*
X31568410Y-39048868D01*
X31565673Y-38945135D01*
X31564462Y-38833465D01*
X31564782Y-38720287D01*
X31566636Y-38612026D01*
X31570030Y-38515108D01*
X31574967Y-38435959D01*
X31581452Y-38381006D01*
X31589489Y-38356674D01*
X31597696Y-38353079D01*
X31638519Y-38341748D01*
X31707524Y-38325722D01*
X31799203Y-38306195D01*
X31908050Y-38284362D01*
X32028558Y-38261418D01*
X32094357Y-38249159D01*
X32207135Y-38227901D01*
X32304207Y-38209287D01*
X32380382Y-38194328D01*
X32430469Y-38184036D01*
X32449276Y-38179422D01*
X32449983Y-38178471D01*
X32461961Y-38154310D01*
X32484794Y-38103694D01*
X32515630Y-38033338D01*
X32551613Y-37949958D01*
X32589891Y-37860270D01*
X32627609Y-37770989D01*
X32661913Y-37688832D01*
X32689949Y-37620513D01*
X32708864Y-37572748D01*
X32715803Y-37552254D01*
X32712742Y-37545043D01*
X32692372Y-37510728D01*
X32655422Y-37452970D01*
X32604860Y-37376299D01*
X32543657Y-37285248D01*
X32474781Y-37184350D01*
X32436994Y-37129093D01*
X32371782Y-37032215D01*
X32315871Y-36947193D01*
X32272241Y-36878662D01*
X32243877Y-36831260D01*
X32233759Y-36809623D01*
X32240790Y-36797887D01*
X32270197Y-36762818D01*
X32318441Y-36709745D01*
X32381093Y-36643164D01*
X32453725Y-36567574D01*
X32531908Y-36487472D01*
X32611214Y-36407354D01*
X32687213Y-36331718D01*
X32755478Y-36265062D01*
X32811580Y-36211882D01*
X32851090Y-36176676D01*
X32869579Y-36163942D01*
X32879843Y-36168893D01*
X32917530Y-36191857D01*
X32978348Y-36230938D01*
X33057913Y-36283272D01*
X33151843Y-36345996D01*
X33255754Y-36416246D01*
X33626794Y-36668551D01*
X33936080Y-36541053D01*
X34245365Y-36413555D01*
X34329186Y-35968931D01*
X34413006Y-35524307D01*
X35338454Y-35524307D01*
X35422275Y-35968931D01*
G37*
D13*
X27265000Y-24530000D03*
X27265000Y-27070000D03*
D14*
X27265000Y-29610000D03*
X27265000Y-32150000D03*
D13*
X27265000Y-34690000D03*
X27265000Y-37230000D03*
X27265000Y-39770000D03*
X27265000Y-42310000D03*
X27265000Y-44850000D03*
X27265000Y-47390000D03*
X27265000Y-49930000D03*
X27265000Y-52470000D03*
X42505000Y-52470000D03*
X42505000Y-49930000D03*
X42505000Y-47390000D03*
X42505000Y-44850000D03*
X42505000Y-42310000D03*
X42505000Y-39770000D03*
X42505000Y-37230000D03*
X42505000Y-34690000D03*
D15*
X42505000Y-32150000D03*
D13*
X42505000Y-29610000D03*
D14*
X42505000Y-27070000D03*
D13*
X42505000Y-24530000D03*
%LPC*%
X27265000Y-24530000D03*
X27265000Y-27070000D03*
D14*
X27265000Y-29610000D03*
X27265000Y-32150000D03*
D13*
X27265000Y-34690000D03*
X27265000Y-37230000D03*
X27265000Y-39770000D03*
X27265000Y-42310000D03*
X27265000Y-44850000D03*
X27265000Y-47390000D03*
X27265000Y-49930000D03*
X27265000Y-52470000D03*
X42505000Y-52470000D03*
X42505000Y-49930000D03*
X42505000Y-47390000D03*
X42505000Y-44850000D03*
X42505000Y-42310000D03*
X42505000Y-39770000D03*
X42505000Y-37230000D03*
X42505000Y-34690000D03*
D15*
X42505000Y-32150000D03*
D13*
X42505000Y-29610000D03*
D14*
X42505000Y-27070000D03*
D13*
X42505000Y-24530000D03*
D16*
X38135000Y-55840000D03*
X31635000Y-55840000D03*
D17*
X21855000Y-61270000D03*
D18*
X28855000Y-61270000D03*
D19*
X31555000Y-63570000D03*
D20*
X24155000Y-58970000D03*
D19*
X26455000Y-58970000D03*
X30455000Y-58970000D03*
D17*
X47935000Y-61270000D03*
D18*
X40935000Y-61270000D03*
D19*
X38235000Y-58970000D03*
D20*
X45635000Y-63570000D03*
D19*
X43335000Y-63570000D03*
X39335000Y-63570000D03*
D17*
X21855000Y-21963500D03*
D18*
X21855000Y-28963500D03*
D21*
X19555000Y-31663500D03*
D22*
X24155000Y-24263500D03*
D21*
X24155000Y-26563500D03*
X24155000Y-30563500D03*
D23*
X50015000Y-34690000D03*
X50015000Y-37230000D03*
X50015000Y-39770000D03*
X50015000Y-42310000D03*
X50015000Y-44850000D03*
X50015000Y-47390000D03*
X50015000Y-49930000D03*
X50015000Y-52470000D03*
X50015000Y-55010000D03*
D24*
X47475000Y-34690000D03*
D23*
X47475000Y-37230000D03*
X47475000Y-39770000D03*
X47475000Y-42310000D03*
X47475000Y-44850000D03*
X47475000Y-47390000D03*
X47475000Y-49930000D03*
X47475000Y-52470000D03*
X47475000Y-55010000D03*
D17*
X47935000Y-21963500D03*
D18*
X47935000Y-28963500D03*
D21*
X45635000Y-31663500D03*
D22*
X50235000Y-24263500D03*
D21*
X50235000Y-26563500D03*
X50235000Y-30563500D03*
D23*
X19795000Y-34690000D03*
X19795000Y-37230000D03*
X19795000Y-39770000D03*
X19795000Y-42310000D03*
X19795000Y-44850000D03*
X19795000Y-47390000D03*
X19795000Y-49930000D03*
X19795000Y-52470000D03*
X19795000Y-55010000D03*
D24*
X22335000Y-34690000D03*
D23*
X22335000Y-37230000D03*
X22335000Y-39770000D03*
X22335000Y-42310000D03*
X22335000Y-44850000D03*
X22335000Y-47390000D03*
X22335000Y-49930000D03*
X22335000Y-52470000D03*
X22335000Y-55010000D03*
%LPD*%
M02*
