G04 #@! TF.GenerationSoftware,KiCad,Pcbnew,(6.0.6)*
G04 #@! TF.CreationDate,2023-06-14T22:57:07+08:00*
G04 #@! TF.ProjectId,handwire microboard,68616e64-7769-4726-9520-6d6963726f62,rev?*
G04 #@! TF.SameCoordinates,Original*
G04 #@! TF.FileFunction,Copper,L1,Top*
G04 #@! TF.FilePolarity,Positive*
%FSLAX46Y46*%
G04 Gerber Fmt 4.6, Leading zero omitted, Abs format (unit mm)*
G04 Created by KiCad (PCBNEW (6.0.6)) date 2023-06-14 22:57:07*
%MOMM*%
%LPD*%
G01*
G04 APERTURE LIST*
G04 Aperture macros list*
%AMRoundRect*
0 Rectangle with rounded corners*
0 $1 Rounding radius*
0 $2 $3 $4 $5 $6 $7 $8 $9 X,Y pos of 4 corners*
0 Add a 4 corners polygon primitive as box body*
4,1,4,$2,$3,$4,$5,$6,$7,$8,$9,$2,$3,0*
0 Add four circle primitives for the rounded corners*
1,1,$1+$1,$2,$3*
1,1,$1+$1,$4,$5*
1,1,$1+$1,$6,$7*
1,1,$1+$1,$8,$9*
0 Add four rect primitives between the rounded corners*
20,1,$1+$1,$2,$3,$4,$5,0*
20,1,$1+$1,$4,$5,$6,$7,0*
20,1,$1+$1,$6,$7,$8,$9,0*
20,1,$1+$1,$8,$9,$2,$3,0*%
G04 Aperture macros list end*
G04 #@! TA.AperFunction,EtchedComponent*
%ADD10C,0.010000*%
G04 #@! TD*
G04 #@! TA.AperFunction,ComponentPad*
%ADD11O,2.000000X1.600000*%
G04 #@! TD*
G04 #@! TA.AperFunction,ComponentPad*
%ADD12O,1.600000X2.000000*%
G04 #@! TD*
G04 #@! TA.AperFunction,ComponentPad*
%ADD13R,1.700000X1.700000*%
G04 #@! TD*
G04 #@! TA.AperFunction,ComponentPad*
%ADD14O,1.700000X1.700000*%
G04 #@! TD*
G04 #@! TA.AperFunction,ComponentPad*
%ADD15C,2.000000*%
G04 #@! TD*
G04 #@! TA.AperFunction,ComponentPad*
%ADD16C,1.752600*%
G04 #@! TD*
G04 #@! TA.AperFunction,ComponentPad*
%ADD17RoundRect,0.438150X-0.619638X0.000000X0.000000X-0.619638X0.619638X0.000000X0.000000X0.619638X0*%
G04 #@! TD*
G04 #@! TA.AperFunction,ComponentPad*
%ADD18R,1.752600X1.752600*%
G04 #@! TD*
G04 #@! TA.AperFunction,ViaPad*
%ADD19C,0.800000*%
G04 #@! TD*
G04 #@! TA.AperFunction,Conductor*
%ADD20C,0.250000*%
G04 #@! TD*
G04 APERTURE END LIST*
G36*
X83105814Y-57793931D02*
G01*
X83189635Y-58238555D01*
X83498920Y-58366053D01*
X83808206Y-58493551D01*
X84179246Y-58241246D01*
X84283157Y-58170996D01*
X84377087Y-58108272D01*
X84456652Y-58055938D01*
X84517470Y-58016857D01*
X84555157Y-57993893D01*
X84565421Y-57988942D01*
X84583910Y-58001676D01*
X84623420Y-58036882D01*
X84679522Y-58090062D01*
X84747787Y-58156718D01*
X84823786Y-58232354D01*
X84903092Y-58312472D01*
X84981275Y-58392574D01*
X85053907Y-58468164D01*
X85116559Y-58534745D01*
X85164803Y-58587818D01*
X85194210Y-58622887D01*
X85201241Y-58634623D01*
X85191123Y-58656260D01*
X85162759Y-58703662D01*
X85119129Y-58772193D01*
X85063218Y-58857215D01*
X84998006Y-58954093D01*
X84960219Y-59009350D01*
X84891343Y-59110248D01*
X84830140Y-59201299D01*
X84779578Y-59277970D01*
X84742628Y-59335728D01*
X84722258Y-59370043D01*
X84719197Y-59377254D01*
X84726136Y-59397748D01*
X84745051Y-59445513D01*
X84773087Y-59513832D01*
X84807391Y-59595989D01*
X84845109Y-59685270D01*
X84883387Y-59774958D01*
X84919370Y-59858338D01*
X84950206Y-59928694D01*
X84973039Y-59979310D01*
X84985017Y-60003471D01*
X84985724Y-60004422D01*
X85004531Y-60009036D01*
X85054618Y-60019328D01*
X85130793Y-60034287D01*
X85227865Y-60052901D01*
X85340643Y-60074159D01*
X85406442Y-60086418D01*
X85526950Y-60109362D01*
X85635797Y-60131195D01*
X85727476Y-60150722D01*
X85796481Y-60166748D01*
X85837304Y-60178079D01*
X85845511Y-60181674D01*
X85853548Y-60206006D01*
X85860033Y-60260959D01*
X85864970Y-60340108D01*
X85868364Y-60437026D01*
X85870218Y-60545287D01*
X85870538Y-60658465D01*
X85869327Y-60770135D01*
X85866590Y-60873868D01*
X85862331Y-60963241D01*
X85856555Y-61031826D01*
X85849267Y-61073197D01*
X85844895Y-61081810D01*
X85818764Y-61092133D01*
X85763393Y-61106892D01*
X85686107Y-61124352D01*
X85594230Y-61142780D01*
X85562158Y-61148741D01*
X85407524Y-61177066D01*
X85285375Y-61199876D01*
X85191673Y-61218080D01*
X85122384Y-61232583D01*
X85073471Y-61244292D01*
X85040897Y-61254115D01*
X85020628Y-61262956D01*
X85008626Y-61271724D01*
X85006947Y-61273457D01*
X84990184Y-61301371D01*
X84964614Y-61355695D01*
X84932788Y-61429777D01*
X84897260Y-61516965D01*
X84860583Y-61610608D01*
X84825311Y-61704052D01*
X84793996Y-61790647D01*
X84769193Y-61863740D01*
X84753454Y-61916678D01*
X84749332Y-61942811D01*
X84749676Y-61943726D01*
X84763641Y-61965086D01*
X84795322Y-62012084D01*
X84841391Y-62079827D01*
X84898518Y-62163423D01*
X84963373Y-62257982D01*
X84981843Y-62284854D01*
X85047699Y-62382275D01*
X85105650Y-62471163D01*
X85152538Y-62546412D01*
X85185207Y-62602920D01*
X85200500Y-62635581D01*
X85201241Y-62639593D01*
X85188392Y-62660684D01*
X85152888Y-62702464D01*
X85099293Y-62760445D01*
X85032171Y-62830135D01*
X84956087Y-62907045D01*
X84875604Y-62986683D01*
X84795287Y-63064561D01*
X84719699Y-63136186D01*
X84653405Y-63197070D01*
X84600969Y-63242721D01*
X84566955Y-63268650D01*
X84557545Y-63272883D01*
X84535643Y-63262912D01*
X84490800Y-63236020D01*
X84430321Y-63196736D01*
X84383789Y-63165117D01*
X84299475Y-63107098D01*
X84199626Y-63038784D01*
X84099473Y-62970579D01*
X84045627Y-62934075D01*
X83863371Y-62810800D01*
X83710381Y-62893520D01*
X83640682Y-62929759D01*
X83581414Y-62957926D01*
X83541311Y-62973991D01*
X83531103Y-62976226D01*
X83518829Y-62959722D01*
X83494613Y-62913082D01*
X83460263Y-62840609D01*
X83417588Y-62746606D01*
X83368394Y-62635374D01*
X83314490Y-62511215D01*
X83257684Y-62378432D01*
X83199782Y-62241327D01*
X83142593Y-62104202D01*
X83087924Y-61971358D01*
X83037584Y-61847098D01*
X82993380Y-61735725D01*
X82957119Y-61641539D01*
X82930609Y-61568844D01*
X82915658Y-61521941D01*
X82913254Y-61505833D01*
X82932311Y-61485286D01*
X82974036Y-61451933D01*
X83029706Y-61412702D01*
X83034378Y-61409599D01*
X83178264Y-61294423D01*
X83294283Y-61160053D01*
X83381430Y-61010784D01*
X83438699Y-60850913D01*
X83465086Y-60684737D01*
X83459585Y-60516552D01*
X83421190Y-60350655D01*
X83348895Y-60191342D01*
X83327626Y-60156487D01*
X83216996Y-60015737D01*
X83086302Y-59902714D01*
X82940064Y-59818003D01*
X82782808Y-59762194D01*
X82619057Y-59735874D01*
X82453333Y-59739630D01*
X82290162Y-59774050D01*
X82134065Y-59839723D01*
X81989567Y-59937235D01*
X81944869Y-59976813D01*
X81831112Y-60100703D01*
X81748218Y-60231124D01*
X81691356Y-60377315D01*
X81659687Y-60522088D01*
X81651869Y-60684860D01*
X81677938Y-60848440D01*
X81735245Y-61007298D01*
X81821144Y-61155906D01*
X81932986Y-61288735D01*
X82068123Y-61400256D01*
X82085883Y-61412011D01*
X82142150Y-61450508D01*
X82184923Y-61483863D01*
X82205372Y-61505160D01*
X82205669Y-61505833D01*
X82201279Y-61528871D01*
X82183876Y-61581157D01*
X82155268Y-61658390D01*
X82117265Y-61756268D01*
X82071674Y-61870491D01*
X82020303Y-61996758D01*
X81964962Y-62130767D01*
X81907458Y-62268218D01*
X81849601Y-62404808D01*
X81793198Y-62536237D01*
X81740058Y-62658205D01*
X81691990Y-62766409D01*
X81650801Y-62856549D01*
X81618301Y-62924323D01*
X81596297Y-62965430D01*
X81587436Y-62976226D01*
X81560360Y-62967819D01*
X81509697Y-62945272D01*
X81444183Y-62912613D01*
X81408159Y-62893520D01*
X81255168Y-62810800D01*
X81072912Y-62934075D01*
X80979875Y-62997228D01*
X80878015Y-63066727D01*
X80782562Y-63132165D01*
X80734750Y-63165117D01*
X80667505Y-63210273D01*
X80610564Y-63246057D01*
X80571354Y-63267938D01*
X80558619Y-63272563D01*
X80540083Y-63260085D01*
X80499059Y-63225252D01*
X80439525Y-63171678D01*
X80365458Y-63102983D01*
X80280835Y-63022781D01*
X80227315Y-62971286D01*
X80133681Y-62879286D01*
X80052759Y-62796999D01*
X79987823Y-62727945D01*
X79942142Y-62675644D01*
X79918989Y-62643616D01*
X79916768Y-62637116D01*
X79927076Y-62612394D01*
X79955561Y-62562405D01*
X79999063Y-62492212D01*
X80054423Y-62406875D01*
X80118480Y-62311456D01*
X80136697Y-62284854D01*
X80203073Y-62188167D01*
X80262622Y-62101117D01*
X80312016Y-62028595D01*
X80347925Y-61975493D01*
X80367019Y-61946703D01*
X80368864Y-61943726D01*
X80366105Y-61920782D01*
X80351462Y-61870336D01*
X80327487Y-61799041D01*
X80296734Y-61713547D01*
X80261756Y-61620507D01*
X80225107Y-61526574D01*
X80189339Y-61438399D01*
X80157006Y-61362634D01*
X80130662Y-61305931D01*
X80112858Y-61274943D01*
X80111593Y-61273457D01*
X80100706Y-61264601D01*
X80082318Y-61255843D01*
X80052394Y-61246277D01*
X80006897Y-61234996D01*
X79941791Y-61221093D01*
X79853039Y-61203663D01*
X79736607Y-61181798D01*
X79588458Y-61154591D01*
X79556382Y-61148741D01*
X79461314Y-61130374D01*
X79378435Y-61112405D01*
X79315070Y-61096569D01*
X79278542Y-61084600D01*
X79273644Y-61081810D01*
X79265573Y-61057072D01*
X79259013Y-61001790D01*
X79253967Y-60922389D01*
X79250441Y-60825296D01*
X79248439Y-60716938D01*
X79247964Y-60603740D01*
X79249023Y-60492128D01*
X79251618Y-60388529D01*
X79255754Y-60299368D01*
X79261437Y-60231072D01*
X79268669Y-60190066D01*
X79273029Y-60181674D01*
X79297302Y-60173208D01*
X79352574Y-60159435D01*
X79433338Y-60141550D01*
X79534088Y-60120748D01*
X79649317Y-60098223D01*
X79712098Y-60086418D01*
X79831213Y-60064151D01*
X79937435Y-60043979D01*
X80025573Y-60026915D01*
X80090434Y-60013969D01*
X80126826Y-60006155D01*
X80132816Y-60004422D01*
X80142939Y-59984890D01*
X80164338Y-59937843D01*
X80194161Y-59870003D01*
X80229555Y-59788091D01*
X80267668Y-59698828D01*
X80305647Y-59608935D01*
X80340640Y-59525135D01*
X80369794Y-59454147D01*
X80390257Y-59402694D01*
X80399177Y-59377497D01*
X80399343Y-59376396D01*
X80389231Y-59356519D01*
X80360883Y-59310777D01*
X80317277Y-59243717D01*
X80261394Y-59159884D01*
X80196213Y-59063826D01*
X80158321Y-59008650D01*
X80089275Y-58907481D01*
X80027950Y-58815630D01*
X79977337Y-58737744D01*
X79940429Y-58678469D01*
X79920218Y-58642451D01*
X79917299Y-58634377D01*
X79929847Y-58615584D01*
X79964537Y-58575457D01*
X80016937Y-58518493D01*
X80082616Y-58449185D01*
X80157144Y-58372031D01*
X80236087Y-58291525D01*
X80315017Y-58212163D01*
X80389500Y-58138440D01*
X80455106Y-58074852D01*
X80507404Y-58025894D01*
X80541961Y-57996061D01*
X80553522Y-57988942D01*
X80572346Y-57998953D01*
X80617369Y-58027078D01*
X80684213Y-58070454D01*
X80768501Y-58126218D01*
X80865856Y-58191506D01*
X80939293Y-58241246D01*
X81310333Y-58493551D01*
X81928905Y-58238555D01*
X82012725Y-57793931D01*
X82096546Y-57349307D01*
X83021994Y-57349307D01*
X83105814Y-57793931D01*
G37*
D10*
X83105814Y-57793931D02*
X83189635Y-58238555D01*
X83498920Y-58366053D01*
X83808206Y-58493551D01*
X84179246Y-58241246D01*
X84283157Y-58170996D01*
X84377087Y-58108272D01*
X84456652Y-58055938D01*
X84517470Y-58016857D01*
X84555157Y-57993893D01*
X84565421Y-57988942D01*
X84583910Y-58001676D01*
X84623420Y-58036882D01*
X84679522Y-58090062D01*
X84747787Y-58156718D01*
X84823786Y-58232354D01*
X84903092Y-58312472D01*
X84981275Y-58392574D01*
X85053907Y-58468164D01*
X85116559Y-58534745D01*
X85164803Y-58587818D01*
X85194210Y-58622887D01*
X85201241Y-58634623D01*
X85191123Y-58656260D01*
X85162759Y-58703662D01*
X85119129Y-58772193D01*
X85063218Y-58857215D01*
X84998006Y-58954093D01*
X84960219Y-59009350D01*
X84891343Y-59110248D01*
X84830140Y-59201299D01*
X84779578Y-59277970D01*
X84742628Y-59335728D01*
X84722258Y-59370043D01*
X84719197Y-59377254D01*
X84726136Y-59397748D01*
X84745051Y-59445513D01*
X84773087Y-59513832D01*
X84807391Y-59595989D01*
X84845109Y-59685270D01*
X84883387Y-59774958D01*
X84919370Y-59858338D01*
X84950206Y-59928694D01*
X84973039Y-59979310D01*
X84985017Y-60003471D01*
X84985724Y-60004422D01*
X85004531Y-60009036D01*
X85054618Y-60019328D01*
X85130793Y-60034287D01*
X85227865Y-60052901D01*
X85340643Y-60074159D01*
X85406442Y-60086418D01*
X85526950Y-60109362D01*
X85635797Y-60131195D01*
X85727476Y-60150722D01*
X85796481Y-60166748D01*
X85837304Y-60178079D01*
X85845511Y-60181674D01*
X85853548Y-60206006D01*
X85860033Y-60260959D01*
X85864970Y-60340108D01*
X85868364Y-60437026D01*
X85870218Y-60545287D01*
X85870538Y-60658465D01*
X85869327Y-60770135D01*
X85866590Y-60873868D01*
X85862331Y-60963241D01*
X85856555Y-61031826D01*
X85849267Y-61073197D01*
X85844895Y-61081810D01*
X85818764Y-61092133D01*
X85763393Y-61106892D01*
X85686107Y-61124352D01*
X85594230Y-61142780D01*
X85562158Y-61148741D01*
X85407524Y-61177066D01*
X85285375Y-61199876D01*
X85191673Y-61218080D01*
X85122384Y-61232583D01*
X85073471Y-61244292D01*
X85040897Y-61254115D01*
X85020628Y-61262956D01*
X85008626Y-61271724D01*
X85006947Y-61273457D01*
X84990184Y-61301371D01*
X84964614Y-61355695D01*
X84932788Y-61429777D01*
X84897260Y-61516965D01*
X84860583Y-61610608D01*
X84825311Y-61704052D01*
X84793996Y-61790647D01*
X84769193Y-61863740D01*
X84753454Y-61916678D01*
X84749332Y-61942811D01*
X84749676Y-61943726D01*
X84763641Y-61965086D01*
X84795322Y-62012084D01*
X84841391Y-62079827D01*
X84898518Y-62163423D01*
X84963373Y-62257982D01*
X84981843Y-62284854D01*
X85047699Y-62382275D01*
X85105650Y-62471163D01*
X85152538Y-62546412D01*
X85185207Y-62602920D01*
X85200500Y-62635581D01*
X85201241Y-62639593D01*
X85188392Y-62660684D01*
X85152888Y-62702464D01*
X85099293Y-62760445D01*
X85032171Y-62830135D01*
X84956087Y-62907045D01*
X84875604Y-62986683D01*
X84795287Y-63064561D01*
X84719699Y-63136186D01*
X84653405Y-63197070D01*
X84600969Y-63242721D01*
X84566955Y-63268650D01*
X84557545Y-63272883D01*
X84535643Y-63262912D01*
X84490800Y-63236020D01*
X84430321Y-63196736D01*
X84383789Y-63165117D01*
X84299475Y-63107098D01*
X84199626Y-63038784D01*
X84099473Y-62970579D01*
X84045627Y-62934075D01*
X83863371Y-62810800D01*
X83710381Y-62893520D01*
X83640682Y-62929759D01*
X83581414Y-62957926D01*
X83541311Y-62973991D01*
X83531103Y-62976226D01*
X83518829Y-62959722D01*
X83494613Y-62913082D01*
X83460263Y-62840609D01*
X83417588Y-62746606D01*
X83368394Y-62635374D01*
X83314490Y-62511215D01*
X83257684Y-62378432D01*
X83199782Y-62241327D01*
X83142593Y-62104202D01*
X83087924Y-61971358D01*
X83037584Y-61847098D01*
X82993380Y-61735725D01*
X82957119Y-61641539D01*
X82930609Y-61568844D01*
X82915658Y-61521941D01*
X82913254Y-61505833D01*
X82932311Y-61485286D01*
X82974036Y-61451933D01*
X83029706Y-61412702D01*
X83034378Y-61409599D01*
X83178264Y-61294423D01*
X83294283Y-61160053D01*
X83381430Y-61010784D01*
X83438699Y-60850913D01*
X83465086Y-60684737D01*
X83459585Y-60516552D01*
X83421190Y-60350655D01*
X83348895Y-60191342D01*
X83327626Y-60156487D01*
X83216996Y-60015737D01*
X83086302Y-59902714D01*
X82940064Y-59818003D01*
X82782808Y-59762194D01*
X82619057Y-59735874D01*
X82453333Y-59739630D01*
X82290162Y-59774050D01*
X82134065Y-59839723D01*
X81989567Y-59937235D01*
X81944869Y-59976813D01*
X81831112Y-60100703D01*
X81748218Y-60231124D01*
X81691356Y-60377315D01*
X81659687Y-60522088D01*
X81651869Y-60684860D01*
X81677938Y-60848440D01*
X81735245Y-61007298D01*
X81821144Y-61155906D01*
X81932986Y-61288735D01*
X82068123Y-61400256D01*
X82085883Y-61412011D01*
X82142150Y-61450508D01*
X82184923Y-61483863D01*
X82205372Y-61505160D01*
X82205669Y-61505833D01*
X82201279Y-61528871D01*
X82183876Y-61581157D01*
X82155268Y-61658390D01*
X82117265Y-61756268D01*
X82071674Y-61870491D01*
X82020303Y-61996758D01*
X81964962Y-62130767D01*
X81907458Y-62268218D01*
X81849601Y-62404808D01*
X81793198Y-62536237D01*
X81740058Y-62658205D01*
X81691990Y-62766409D01*
X81650801Y-62856549D01*
X81618301Y-62924323D01*
X81596297Y-62965430D01*
X81587436Y-62976226D01*
X81560360Y-62967819D01*
X81509697Y-62945272D01*
X81444183Y-62912613D01*
X81408159Y-62893520D01*
X81255168Y-62810800D01*
X81072912Y-62934075D01*
X80979875Y-62997228D01*
X80878015Y-63066727D01*
X80782562Y-63132165D01*
X80734750Y-63165117D01*
X80667505Y-63210273D01*
X80610564Y-63246057D01*
X80571354Y-63267938D01*
X80558619Y-63272563D01*
X80540083Y-63260085D01*
X80499059Y-63225252D01*
X80439525Y-63171678D01*
X80365458Y-63102983D01*
X80280835Y-63022781D01*
X80227315Y-62971286D01*
X80133681Y-62879286D01*
X80052759Y-62796999D01*
X79987823Y-62727945D01*
X79942142Y-62675644D01*
X79918989Y-62643616D01*
X79916768Y-62637116D01*
X79927076Y-62612394D01*
X79955561Y-62562405D01*
X79999063Y-62492212D01*
X80054423Y-62406875D01*
X80118480Y-62311456D01*
X80136697Y-62284854D01*
X80203073Y-62188167D01*
X80262622Y-62101117D01*
X80312016Y-62028595D01*
X80347925Y-61975493D01*
X80367019Y-61946703D01*
X80368864Y-61943726D01*
X80366105Y-61920782D01*
X80351462Y-61870336D01*
X80327487Y-61799041D01*
X80296734Y-61713547D01*
X80261756Y-61620507D01*
X80225107Y-61526574D01*
X80189339Y-61438399D01*
X80157006Y-61362634D01*
X80130662Y-61305931D01*
X80112858Y-61274943D01*
X80111593Y-61273457D01*
X80100706Y-61264601D01*
X80082318Y-61255843D01*
X80052394Y-61246277D01*
X80006897Y-61234996D01*
X79941791Y-61221093D01*
X79853039Y-61203663D01*
X79736607Y-61181798D01*
X79588458Y-61154591D01*
X79556382Y-61148741D01*
X79461314Y-61130374D01*
X79378435Y-61112405D01*
X79315070Y-61096569D01*
X79278542Y-61084600D01*
X79273644Y-61081810D01*
X79265573Y-61057072D01*
X79259013Y-61001790D01*
X79253967Y-60922389D01*
X79250441Y-60825296D01*
X79248439Y-60716938D01*
X79247964Y-60603740D01*
X79249023Y-60492128D01*
X79251618Y-60388529D01*
X79255754Y-60299368D01*
X79261437Y-60231072D01*
X79268669Y-60190066D01*
X79273029Y-60181674D01*
X79297302Y-60173208D01*
X79352574Y-60159435D01*
X79433338Y-60141550D01*
X79534088Y-60120748D01*
X79649317Y-60098223D01*
X79712098Y-60086418D01*
X79831213Y-60064151D01*
X79937435Y-60043979D01*
X80025573Y-60026915D01*
X80090434Y-60013969D01*
X80126826Y-60006155D01*
X80132816Y-60004422D01*
X80142939Y-59984890D01*
X80164338Y-59937843D01*
X80194161Y-59870003D01*
X80229555Y-59788091D01*
X80267668Y-59698828D01*
X80305647Y-59608935D01*
X80340640Y-59525135D01*
X80369794Y-59454147D01*
X80390257Y-59402694D01*
X80399177Y-59377497D01*
X80399343Y-59376396D01*
X80389231Y-59356519D01*
X80360883Y-59310777D01*
X80317277Y-59243717D01*
X80261394Y-59159884D01*
X80196213Y-59063826D01*
X80158321Y-59008650D01*
X80089275Y-58907481D01*
X80027950Y-58815630D01*
X79977337Y-58737744D01*
X79940429Y-58678469D01*
X79920218Y-58642451D01*
X79917299Y-58634377D01*
X79929847Y-58615584D01*
X79964537Y-58575457D01*
X80016937Y-58518493D01*
X80082616Y-58449185D01*
X80157144Y-58372031D01*
X80236087Y-58291525D01*
X80315017Y-58212163D01*
X80389500Y-58138440D01*
X80455106Y-58074852D01*
X80507404Y-58025894D01*
X80541961Y-57996061D01*
X80553522Y-57988942D01*
X80572346Y-57998953D01*
X80617369Y-58027078D01*
X80684213Y-58070454D01*
X80768501Y-58126218D01*
X80865856Y-58191506D01*
X80939293Y-58241246D01*
X81310333Y-58493551D01*
X81928905Y-58238555D01*
X82012725Y-57793931D01*
X82096546Y-57349307D01*
X83021994Y-57349307D01*
X83105814Y-57793931D01*
D11*
X86522500Y-77710000D03*
X87622500Y-82310000D03*
X91622500Y-82310000D03*
X94622500Y-82310000D03*
D12*
X94220000Y-53812500D03*
X98820000Y-52712500D03*
X98820000Y-48712500D03*
X98820000Y-45712500D03*
X66280000Y-53812500D03*
X70880000Y-52712500D03*
X70880000Y-48712500D03*
X70880000Y-45712500D03*
D11*
X78577500Y-82310000D03*
X77477500Y-77710000D03*
X73477500Y-77710000D03*
X70477500Y-77710000D03*
D13*
X74950000Y-92050000D03*
D14*
X77490000Y-92050000D03*
X80030000Y-92050000D03*
X82570000Y-92050000D03*
X85110000Y-92050000D03*
X87650000Y-92050000D03*
X90190000Y-92050000D03*
D13*
X76200000Y-86360000D03*
D14*
X78740000Y-86360000D03*
X81280000Y-86360000D03*
X83820000Y-86360000D03*
X86360000Y-86360000D03*
X88900000Y-86360000D03*
D15*
X79300000Y-101890000D03*
X85800000Y-101890000D03*
X79300000Y-106390000D03*
X85800000Y-106390000D03*
D13*
X73675000Y-97790000D03*
D14*
X76215000Y-97790000D03*
X78755000Y-97790000D03*
X81295000Y-97790000D03*
X83835000Y-97790000D03*
X86375000Y-97790000D03*
X88915000Y-97790000D03*
X91455000Y-97790000D03*
D16*
X74930000Y-46355000D03*
X74930000Y-48895000D03*
D17*
X74930000Y-51435000D03*
X74930000Y-53975000D03*
D16*
X74930000Y-56515000D03*
X74930000Y-59055000D03*
X74930000Y-61595000D03*
X74930000Y-64135000D03*
X74930000Y-66675000D03*
X74930000Y-69215000D03*
X74930000Y-71755000D03*
X74930000Y-74295000D03*
X90170000Y-74295000D03*
X90170000Y-71755000D03*
X90170000Y-69215000D03*
X90170000Y-66675000D03*
X90170000Y-64135000D03*
X90170000Y-61595000D03*
X90170000Y-59055000D03*
X90170000Y-56515000D03*
D18*
X90170000Y-53975000D03*
D16*
X90170000Y-51435000D03*
D17*
X90170000Y-48895000D03*
D16*
X90170000Y-46355000D03*
X77470000Y-74295000D03*
X80010000Y-74295000D03*
X82550000Y-74295000D03*
X85090000Y-74295000D03*
X87630000Y-74295000D03*
D19*
X71882000Y-84454500D03*
X71882000Y-81280000D03*
X94530500Y-68488216D03*
X97879500Y-73152000D03*
X90606951Y-79319049D03*
X98677034Y-72549550D03*
X92075000Y-77978000D03*
D20*
X66040000Y-67945000D02*
X74930000Y-59055000D01*
X74950000Y-92050000D02*
X66040000Y-83140000D01*
X66040000Y-83140000D02*
X66040000Y-67945000D01*
X75610000Y-90170000D02*
X77490000Y-92050000D01*
X66490000Y-82953604D02*
X73706396Y-90170000D01*
X66490000Y-70035000D02*
X66490000Y-82953604D01*
X73706396Y-90170000D02*
X75610000Y-90170000D01*
X74930000Y-61595000D02*
X66490000Y-70035000D01*
X66940000Y-72125000D02*
X66940000Y-82767208D01*
X74930000Y-64135000D02*
X66940000Y-72125000D01*
X77700000Y-89720000D02*
X80030000Y-92050000D01*
X73892792Y-89720000D02*
X77700000Y-89720000D01*
X66940000Y-82767208D02*
X73892792Y-89720000D01*
X67390000Y-74215000D02*
X67390000Y-82580812D01*
X79790000Y-89270000D02*
X82570000Y-92050000D01*
X67390000Y-82580812D02*
X74079188Y-89270000D01*
X74930000Y-66675000D02*
X67390000Y-74215000D01*
X74079188Y-89270000D02*
X79790000Y-89270000D01*
X74265584Y-88820000D02*
X81880000Y-88820000D01*
X81880000Y-88820000D02*
X85110000Y-92050000D01*
X67840000Y-82394416D02*
X74265584Y-88820000D01*
X74930000Y-69215000D02*
X67840000Y-76305000D01*
X67840000Y-76305000D02*
X67840000Y-82394416D01*
X69216396Y-75565000D02*
X68290000Y-76491396D01*
X74451980Y-88370000D02*
X83970000Y-88370000D01*
X68290000Y-77881745D02*
X69875990Y-79467735D01*
X68290000Y-76491396D02*
X68290000Y-77881745D01*
X83970000Y-88370000D02*
X87650000Y-92050000D01*
X69875990Y-83794010D02*
X74451980Y-88370000D01*
X69875990Y-79467735D02*
X69875990Y-83794010D01*
X71120000Y-75565000D02*
X69216396Y-75565000D01*
X74930000Y-71755000D02*
X71120000Y-75565000D01*
X71882000Y-81280000D02*
X71882000Y-84454500D01*
X96705000Y-91253604D02*
X93343604Y-94615000D01*
X87630000Y-74681104D02*
X93593896Y-80645000D01*
X89550000Y-94615000D02*
X86375000Y-97790000D01*
X93593896Y-80645000D02*
X95250000Y-80645000D01*
X93343604Y-94615000D02*
X89550000Y-94615000D01*
X95250000Y-80645000D02*
X96705000Y-82100000D01*
X87630000Y-74295000D02*
X87630000Y-74681104D01*
X96705000Y-82100000D02*
X96705000Y-91253604D01*
X97155000Y-71112716D02*
X97155000Y-91440000D01*
X91455000Y-95250000D02*
X88915000Y-97790000D01*
X97155000Y-91440000D02*
X93345000Y-95250000D01*
X94530500Y-68488216D02*
X97155000Y-71112716D01*
X93345000Y-95250000D02*
X91455000Y-95250000D01*
X97879500Y-73152000D02*
X97879500Y-91365500D01*
X97879500Y-91365500D02*
X91455000Y-97790000D01*
X98637500Y-48895000D02*
X98820000Y-48712500D01*
X91622500Y-82367500D02*
X91622500Y-82310000D01*
X91622500Y-80334598D02*
X91622500Y-82310000D01*
X72207500Y-48712500D02*
X70880000Y-48712500D01*
X76200000Y-83820000D02*
X90170000Y-83820000D01*
X79375000Y-48895000D02*
X77470000Y-48895000D01*
X77470000Y-48895000D02*
X74930000Y-51435000D01*
X90170000Y-48895000D02*
X98637500Y-48895000D01*
X73477500Y-77710000D02*
X73477500Y-81097500D01*
X74930000Y-51435000D02*
X72207500Y-48712500D01*
X73477500Y-81097500D02*
X76200000Y-83820000D01*
X90606951Y-79319049D02*
X91622500Y-80334598D01*
X90170000Y-83820000D02*
X91622500Y-82367500D01*
X90170000Y-48895000D02*
X79375000Y-48895000D01*
X80010000Y-48895000D02*
X74930000Y-53975000D01*
X98677034Y-72549550D02*
X98677034Y-91204362D01*
X93980000Y-95901396D02*
X93980000Y-99695000D01*
X87285000Y-106390000D02*
X85800000Y-106390000D01*
X98677034Y-91204362D02*
X93980000Y-95901396D01*
X93980000Y-99695000D02*
X87285000Y-106390000D01*
X98820000Y-52712500D02*
X98595000Y-52487500D01*
X80250000Y-77710000D02*
X84850000Y-82310000D01*
X70880000Y-52712500D02*
X73412500Y-55245000D01*
X91657500Y-52487500D02*
X90170000Y-53975000D01*
X88900000Y-55245000D02*
X90170000Y-53975000D01*
X73412500Y-55245000D02*
X88900000Y-55245000D01*
X98595000Y-52487500D02*
X91657500Y-52487500D01*
X92075000Y-55880000D02*
X90170000Y-53975000D01*
X77477500Y-77710000D02*
X80250000Y-77710000D01*
X84850000Y-82310000D02*
X87622500Y-82310000D01*
X70880000Y-52712500D02*
X70880000Y-52912500D01*
X92075000Y-77978000D02*
X92075000Y-55880000D01*
X74930000Y-48895000D02*
X78671300Y-45153700D01*
X94622500Y-82310000D02*
X88512500Y-76200000D01*
X78671300Y-45153700D02*
X98261200Y-45153700D01*
X71987500Y-76200000D02*
X70477500Y-77710000D01*
X70880000Y-45712500D02*
X71747500Y-45712500D01*
X88512500Y-76200000D02*
X71987500Y-76200000D01*
X71747500Y-45712500D02*
X74930000Y-48895000D01*
X98261200Y-45153700D02*
X98820000Y-45712500D01*
M02*
