%TF.GenerationSoftware,KiCad,Pcbnew,7.0.5*%
%TF.CreationDate,2023-08-14T09:49:50+08:00*%
%TF.ProjectId,handwire microboard,68616e64-7769-4726-9520-6d6963726f62,rev?*%
%TF.SameCoordinates,Original*%
%TF.FileFunction,Drillmap*%
%TF.FilePolarity,Positive*%
%FSLAX45Y45*%
G04 Gerber Fmt 4.5, Leading zero omitted, Abs format (unit mm)*
G04 Created by KiCad (PCBNEW 7.0.5) date 2023-08-14 09:49:50*
%MOMM*%
%LPD*%
G01*
G04 APERTURE LIST*
%ADD10C,0.100000*%
%ADD11C,0.200000*%
%ADD12C,0.040000*%
%ADD13C,0.090000*%
%ADD14C,0.109220*%
%ADD15C,0.110000*%
G04 APERTURE END LIST*
D10*
X3507000Y-2796350D02*
G75*
G03*
X3430800Y-2872550I0J-76200D01*
G01*
X6839200Y-2872550D02*
X6839200Y-7452000D01*
X3507000Y-2796350D02*
X6763000Y-2796350D01*
X6763000Y-7527380D02*
G75*
G03*
X6839200Y-7452000I410J75790D01*
G01*
X3430800Y-2872550D02*
X3430800Y-7451000D01*
X3430798Y-7451000D02*
G75*
G03*
X3507181Y-7527381I76382J0D01*
G01*
X6839200Y-2872550D02*
G75*
G03*
X6763000Y-2796350I-76200J0D01*
G01*
X3507181Y-7527381D02*
X6763000Y-7527381D01*
D11*
D12*
X4046000Y-6582000D02*
X4086000Y-6622000D01*
X4086000Y-6582000D02*
X4046000Y-6622000D01*
X4121085Y-6755482D02*
X4161085Y-6795482D01*
X4161085Y-6755482D02*
X4121085Y-6795482D01*
X4123000Y-4198000D02*
X4163000Y-4238000D01*
X4163000Y-4198000D02*
X4123000Y-4238000D01*
X4123000Y-4503550D02*
X4163000Y-4543550D01*
X4163000Y-4503550D02*
X4123000Y-4543550D01*
X4995000Y-6845000D02*
X5035000Y-6885000D01*
X5035000Y-6845000D02*
X4995000Y-6885000D01*
X5462000Y-4244000D02*
X5502000Y-4284000D01*
X5502000Y-4244000D02*
X5462000Y-4284000D01*
D13*
X4033500Y-7357600D02*
G75*
G03*
X4033500Y-7357600I-45000J0D01*
G01*
D11*
X3968500Y-7402600D02*
X4008500Y-7402600D01*
X4008500Y-7402600D02*
G75*
G03*
X4008500Y-7312600I0J45000D01*
G01*
X4008500Y-7312600D02*
X3968500Y-7312600D01*
X3968500Y-7312600D02*
G75*
G03*
X3968500Y-7402600I0J-45000D01*
G01*
D13*
X4036000Y-6897000D02*
G75*
G03*
X4036000Y-6897000I-45000J0D01*
G01*
D11*
X3971000Y-6942000D02*
X4011000Y-6942000D01*
X4011000Y-6942000D02*
G75*
G03*
X4011000Y-6852000I0J45000D01*
G01*
X4011000Y-6852000D02*
X3971000Y-6852000D01*
X3971000Y-6852000D02*
G75*
G03*
X3971000Y-6942000I0J-45000D01*
G01*
D13*
X4336000Y-6897000D02*
G75*
G03*
X4336000Y-6897000I-45000J0D01*
G01*
D11*
X4271000Y-6942000D02*
X4311000Y-6942000D01*
X4311000Y-6942000D02*
G75*
G03*
X4311000Y-6852000I0J45000D01*
G01*
X4311000Y-6852000D02*
X4271000Y-6852000D01*
X4271000Y-6852000D02*
G75*
G03*
X4271000Y-6942000I0J-45000D01*
G01*
D13*
X4338300Y-7357600D02*
G75*
G03*
X4338300Y-7357600I-45000J0D01*
G01*
D11*
X4273300Y-7402600D02*
X4313300Y-7402600D01*
X4313300Y-7402600D02*
G75*
G03*
X4313300Y-7312600I0J45000D01*
G01*
X4313300Y-7312600D02*
X4273300Y-7312600D01*
X4273300Y-7312600D02*
G75*
G03*
X4273300Y-7402600I0J-45000D01*
G01*
D13*
X4795500Y-7357600D02*
G75*
G03*
X4795500Y-7357600I-45000J0D01*
G01*
D11*
X4680500Y-7402600D02*
X4820500Y-7402600D01*
X4820500Y-7402600D02*
G75*
G03*
X4820500Y-7312600I0J45000D01*
G01*
X4820500Y-7312600D02*
X4680500Y-7312600D01*
X4680500Y-7312600D02*
G75*
G03*
X4680500Y-7402600I0J-45000D01*
G01*
D13*
X4796000Y-6897000D02*
G75*
G03*
X4796000Y-6897000I-45000J0D01*
G01*
D11*
X4681000Y-6942000D02*
X4821000Y-6942000D01*
X4821000Y-6942000D02*
G75*
G03*
X4821000Y-6852000I0J45000D01*
G01*
X4821000Y-6852000D02*
X4681000Y-6852000D01*
X4681000Y-6852000D02*
G75*
G03*
X4681000Y-6942000I0J-45000D01*
G01*
D13*
X6253400Y-3353850D02*
G75*
G03*
X6253400Y-3353850I-45000J0D01*
G01*
D11*
X6163400Y-3333850D02*
X6163400Y-3373850D01*
X6163400Y-3373850D02*
G75*
G03*
X6253400Y-3373850I45000J0D01*
G01*
X6253400Y-3373850D02*
X6253400Y-3333850D01*
X6253400Y-3333850D02*
G75*
G03*
X6163400Y-3333850I-45000J0D01*
G01*
D13*
X6253400Y-3658650D02*
G75*
G03*
X6253400Y-3658650I-45000J0D01*
G01*
D11*
X6163400Y-3638650D02*
X6163400Y-3678650D01*
X6163400Y-3678650D02*
G75*
G03*
X6253400Y-3678650I45000J0D01*
G01*
X6253400Y-3678650D02*
X6253400Y-3638650D01*
X6253400Y-3638650D02*
G75*
G03*
X6163400Y-3638650I-45000J0D01*
G01*
D13*
X6253400Y-4115850D02*
G75*
G03*
X6253400Y-4115850I-45000J0D01*
G01*
D11*
X6163400Y-4045850D02*
X6163400Y-4185850D01*
X6163400Y-4185850D02*
G75*
G03*
X6253400Y-4185850I45000J0D01*
G01*
X6253400Y-4185850D02*
X6253400Y-4045850D01*
X6253400Y-4045850D02*
G75*
G03*
X6163400Y-4045850I-45000J0D01*
G01*
D13*
X6714000Y-3356350D02*
G75*
G03*
X6714000Y-3356350I-45000J0D01*
G01*
D11*
X6624000Y-3336350D02*
X6624000Y-3376350D01*
X6624000Y-3376350D02*
G75*
G03*
X6714000Y-3376350I45000J0D01*
G01*
X6714000Y-3376350D02*
X6714000Y-3336350D01*
X6714000Y-3336350D02*
G75*
G03*
X6624000Y-3336350I-45000J0D01*
G01*
D13*
X6714000Y-3656350D02*
G75*
G03*
X6714000Y-3656350I-45000J0D01*
G01*
D11*
X6624000Y-3636350D02*
X6624000Y-3676350D01*
X6624000Y-3676350D02*
G75*
G03*
X6714000Y-3676350I45000J0D01*
G01*
X6714000Y-3676350D02*
X6714000Y-3636350D01*
X6714000Y-3636350D02*
G75*
G03*
X6624000Y-3636350I-45000J0D01*
G01*
D13*
X6714000Y-4116350D02*
G75*
G03*
X6714000Y-4116350I-45000J0D01*
G01*
D11*
X6624000Y-4046350D02*
X6624000Y-4186350D01*
X6624000Y-4186350D02*
G75*
G03*
X6714000Y-4186350I45000J0D01*
G01*
X6714000Y-4186350D02*
X6714000Y-4046350D01*
X6714000Y-4046350D02*
G75*
G03*
X6624000Y-4046350I-45000J0D01*
G01*
D10*
X3625000Y-4419000D02*
X3625000Y-4519000D01*
X3575000Y-4469000D02*
X3675000Y-4469000D01*
X3625000Y-4673000D02*
X3625000Y-4773000D01*
X3575000Y-4723000D02*
X3675000Y-4723000D01*
X3625000Y-4927000D02*
X3625000Y-5027000D01*
X3575000Y-4977000D02*
X3675000Y-4977000D01*
X3625000Y-5181000D02*
X3625000Y-5281000D01*
X3575000Y-5231000D02*
X3675000Y-5231000D01*
X3625000Y-5435000D02*
X3625000Y-5535000D01*
X3575000Y-5485000D02*
X3675000Y-5485000D01*
X3625000Y-5689000D02*
X3625000Y-5789000D01*
X3575000Y-5739000D02*
X3675000Y-5739000D01*
X3625000Y-5943000D02*
X3625000Y-6043000D01*
X3575000Y-5993000D02*
X3675000Y-5993000D01*
X3625000Y-6197000D02*
X3625000Y-6297000D01*
X3575000Y-6247000D02*
X3675000Y-6247000D01*
X3625000Y-6451000D02*
X3625000Y-6551000D01*
X3575000Y-6501000D02*
X3675000Y-6501000D01*
X3879000Y-4419000D02*
X3879000Y-4519000D01*
X3829000Y-4469000D02*
X3929000Y-4469000D01*
X3879000Y-4673000D02*
X3879000Y-4773000D01*
X3829000Y-4723000D02*
X3929000Y-4723000D01*
X3879000Y-4927000D02*
X3879000Y-5027000D01*
X3829000Y-4977000D02*
X3929000Y-4977000D01*
X3879000Y-5181000D02*
X3879000Y-5281000D01*
X3829000Y-5231000D02*
X3929000Y-5231000D01*
X3879000Y-5435000D02*
X3879000Y-5535000D01*
X3829000Y-5485000D02*
X3929000Y-5485000D01*
X3879000Y-5689000D02*
X3879000Y-5789000D01*
X3829000Y-5739000D02*
X3929000Y-5739000D01*
X3879000Y-5943000D02*
X3879000Y-6043000D01*
X3829000Y-5993000D02*
X3929000Y-5993000D01*
X3879000Y-6197000D02*
X3879000Y-6297000D01*
X3829000Y-6247000D02*
X3929000Y-6247000D01*
X3879000Y-6451000D02*
X3879000Y-6551000D01*
X3829000Y-6501000D02*
X3929000Y-6501000D01*
X4370500Y-6532000D02*
X4370500Y-6632000D01*
X4320500Y-6582000D02*
X4420500Y-6582000D01*
X4624500Y-6532000D02*
X4624500Y-6632000D01*
X4574500Y-6582000D02*
X4674500Y-6582000D01*
X4878500Y-6532000D02*
X4878500Y-6632000D01*
X4828500Y-6582000D02*
X4928500Y-6582000D01*
X5132500Y-6532000D02*
X5132500Y-6632000D01*
X5082500Y-6582000D02*
X5182500Y-6582000D01*
X5386500Y-6532000D02*
X5386500Y-6632000D01*
X5336500Y-6582000D02*
X5436500Y-6582000D01*
X5640500Y-6532000D02*
X5640500Y-6632000D01*
X5590500Y-6582000D02*
X5690500Y-6582000D01*
X5894500Y-6532000D02*
X5894500Y-6632000D01*
X5844500Y-6582000D02*
X5944500Y-6582000D01*
X6393000Y-4419000D02*
X6393000Y-4519000D01*
X6343000Y-4469000D02*
X6443000Y-4469000D01*
X6393000Y-4673000D02*
X6393000Y-4773000D01*
X6343000Y-4723000D02*
X6443000Y-4723000D01*
X6393000Y-4927000D02*
X6393000Y-5027000D01*
X6343000Y-4977000D02*
X6443000Y-4977000D01*
X6393000Y-5181000D02*
X6393000Y-5281000D01*
X6343000Y-5231000D02*
X6443000Y-5231000D01*
X6393000Y-5435000D02*
X6393000Y-5535000D01*
X6343000Y-5485000D02*
X6443000Y-5485000D01*
X6393000Y-5689000D02*
X6393000Y-5789000D01*
X6343000Y-5739000D02*
X6443000Y-5739000D01*
X6393000Y-5943000D02*
X6393000Y-6043000D01*
X6343000Y-5993000D02*
X6443000Y-5993000D01*
X6393000Y-6197000D02*
X6393000Y-6297000D01*
X6343000Y-6247000D02*
X6443000Y-6247000D01*
X6393000Y-6451000D02*
X6393000Y-6551000D01*
X6343000Y-6501000D02*
X6443000Y-6501000D01*
X6647000Y-4419000D02*
X6647000Y-4519000D01*
X6597000Y-4469000D02*
X6697000Y-4469000D01*
X6647000Y-4673000D02*
X6647000Y-4773000D01*
X6597000Y-4723000D02*
X6697000Y-4723000D01*
X6647000Y-4927000D02*
X6647000Y-5027000D01*
X6597000Y-4977000D02*
X6697000Y-4977000D01*
X6647000Y-5181000D02*
X6647000Y-5281000D01*
X6597000Y-5231000D02*
X6697000Y-5231000D01*
X6647000Y-5435000D02*
X6647000Y-5535000D01*
X6597000Y-5485000D02*
X6697000Y-5485000D01*
X6647000Y-5689000D02*
X6647000Y-5789000D01*
X6597000Y-5739000D02*
X6697000Y-5739000D01*
X6647000Y-5943000D02*
X6647000Y-6043000D01*
X6597000Y-5993000D02*
X6697000Y-5993000D01*
X6647000Y-6197000D02*
X6647000Y-6297000D01*
X6597000Y-6247000D02*
X6697000Y-6247000D01*
X6647000Y-6451000D02*
X6647000Y-6551000D01*
X6597000Y-6501000D02*
X6697000Y-6501000D01*
D14*
X4410616Y-3491615D02*
X4410616Y-3414384D01*
X4333385Y-3414384D01*
X4333385Y-3491615D01*
X4410616Y-3491615D01*
X4410616Y-3745615D02*
X4410616Y-3668384D01*
X4333385Y-3668384D01*
X4333385Y-3745615D01*
X4410616Y-3745615D01*
X4410616Y-3999615D02*
X4410616Y-3922384D01*
X4333385Y-3922384D01*
X4333385Y-3999615D01*
X4410616Y-3999615D01*
X4410616Y-4253616D02*
X4410616Y-4176384D01*
X4333385Y-4176384D01*
X4333385Y-4253616D01*
X4410616Y-4253616D01*
X4410616Y-4507616D02*
X4410616Y-4430385D01*
X4333385Y-4430385D01*
X4333385Y-4507616D01*
X4410616Y-4507616D01*
X4410616Y-4761616D02*
X4410616Y-4684385D01*
X4333385Y-4684385D01*
X4333385Y-4761616D01*
X4410616Y-4761616D01*
X4410616Y-5015616D02*
X4410616Y-4938385D01*
X4333385Y-4938385D01*
X4333385Y-5015616D01*
X4410616Y-5015616D01*
X4410616Y-5269616D02*
X4410616Y-5192385D01*
X4333385Y-5192385D01*
X4333385Y-5269616D01*
X4410616Y-5269616D01*
X4410616Y-5523616D02*
X4410616Y-5446385D01*
X4333385Y-5446385D01*
X4333385Y-5523616D01*
X4410616Y-5523616D01*
X4410616Y-5777615D02*
X4410616Y-5700384D01*
X4333385Y-5700384D01*
X4333385Y-5777615D01*
X4410616Y-5777615D01*
X4410616Y-6031615D02*
X4410616Y-5954384D01*
X4333385Y-5954384D01*
X4333385Y-6031615D01*
X4410616Y-6031615D01*
X4410616Y-6285615D02*
X4410616Y-6208384D01*
X4333385Y-6208384D01*
X4333385Y-6285615D01*
X4410616Y-6285615D01*
X4664616Y-6285615D02*
X4664616Y-6208384D01*
X4587385Y-6208384D01*
X4587385Y-6285615D01*
X4664616Y-6285615D01*
X4918616Y-6285615D02*
X4918616Y-6208384D01*
X4841385Y-6208384D01*
X4841385Y-6285615D01*
X4918616Y-6285615D01*
X5172616Y-6285615D02*
X5172616Y-6208384D01*
X5095385Y-6208384D01*
X5095385Y-6285615D01*
X5172616Y-6285615D01*
X5426616Y-6285615D02*
X5426616Y-6208384D01*
X5349385Y-6208384D01*
X5349385Y-6285615D01*
X5426616Y-6285615D01*
X5680615Y-6285615D02*
X5680615Y-6208384D01*
X5603384Y-6208384D01*
X5603384Y-6285615D01*
X5680615Y-6285615D01*
X5934615Y-3491615D02*
X5934615Y-3414384D01*
X5857384Y-3414384D01*
X5857384Y-3491615D01*
X5934615Y-3491615D01*
X5934615Y-3745615D02*
X5934615Y-3668384D01*
X5857384Y-3668384D01*
X5857384Y-3745615D01*
X5934615Y-3745615D01*
X5934615Y-3999615D02*
X5934615Y-3922384D01*
X5857384Y-3922384D01*
X5857384Y-3999615D01*
X5934615Y-3999615D01*
X5934615Y-4253616D02*
X5934615Y-4176384D01*
X5857384Y-4176384D01*
X5857384Y-4253616D01*
X5934615Y-4253616D01*
X5934615Y-4507616D02*
X5934615Y-4430385D01*
X5857384Y-4430385D01*
X5857384Y-4507616D01*
X5934615Y-4507616D01*
X5934615Y-4761616D02*
X5934615Y-4684385D01*
X5857384Y-4684385D01*
X5857384Y-4761616D01*
X5934615Y-4761616D01*
X5934615Y-5015616D02*
X5934615Y-4938385D01*
X5857384Y-4938385D01*
X5857384Y-5015616D01*
X5934615Y-5015616D01*
X5934615Y-5269616D02*
X5934615Y-5192385D01*
X5857384Y-5192385D01*
X5857384Y-5269616D01*
X5934615Y-5269616D01*
X5934615Y-5523616D02*
X5934615Y-5446385D01*
X5857384Y-5446385D01*
X5857384Y-5523616D01*
X5934615Y-5523616D01*
X5934615Y-5777615D02*
X5934615Y-5700384D01*
X5857384Y-5700384D01*
X5857384Y-5777615D01*
X5934615Y-5777615D01*
X5934615Y-6031615D02*
X5934615Y-5954384D01*
X5857384Y-5954384D01*
X5857384Y-6031615D01*
X5934615Y-6031615D01*
X5934615Y-6285615D02*
X5934615Y-6208384D01*
X5857384Y-6208384D01*
X5857384Y-6285615D01*
X5934615Y-6285615D01*
D15*
X5232000Y-6973000D02*
X5287000Y-6918000D01*
X5232000Y-6863000D01*
X5177000Y-6918000D01*
X5232000Y-6973000D01*
X5232000Y-7423000D02*
X5287000Y-7368000D01*
X5232000Y-7313000D01*
X5177000Y-7368000D01*
X5232000Y-7423000D01*
X5882000Y-6973000D02*
X5937000Y-6918000D01*
X5882000Y-6863000D01*
X5827000Y-6918000D01*
X5882000Y-6973000D01*
X5882000Y-7423000D02*
X5937000Y-7368000D01*
X5882000Y-7313000D01*
X5827000Y-7368000D01*
X5882000Y-7423000D01*
D11*
X3686577Y-7843865D02*
X3686577Y-7643865D01*
X3686577Y-7643865D02*
X3734196Y-7643865D01*
X3734196Y-7643865D02*
X3762767Y-7653389D01*
X3762767Y-7653389D02*
X3781815Y-7672437D01*
X3781815Y-7672437D02*
X3791339Y-7691484D01*
X3791339Y-7691484D02*
X3800862Y-7729579D01*
X3800862Y-7729579D02*
X3800862Y-7758151D01*
X3800862Y-7758151D02*
X3791339Y-7796246D01*
X3791339Y-7796246D02*
X3781815Y-7815294D01*
X3781815Y-7815294D02*
X3762767Y-7834341D01*
X3762767Y-7834341D02*
X3734196Y-7843865D01*
X3734196Y-7843865D02*
X3686577Y-7843865D01*
X3886577Y-7843865D02*
X3886577Y-7710532D01*
X3886577Y-7748627D02*
X3896101Y-7729579D01*
X3896101Y-7729579D02*
X3905624Y-7720056D01*
X3905624Y-7720056D02*
X3924672Y-7710532D01*
X3924672Y-7710532D02*
X3943720Y-7710532D01*
X4010386Y-7843865D02*
X4010386Y-7710532D01*
X4010386Y-7643865D02*
X4000862Y-7653389D01*
X4000862Y-7653389D02*
X4010386Y-7662913D01*
X4010386Y-7662913D02*
X4019910Y-7653389D01*
X4019910Y-7653389D02*
X4010386Y-7643865D01*
X4010386Y-7643865D02*
X4010386Y-7662913D01*
X4134196Y-7843865D02*
X4115148Y-7834341D01*
X4115148Y-7834341D02*
X4105624Y-7815294D01*
X4105624Y-7815294D02*
X4105624Y-7643865D01*
X4238958Y-7843865D02*
X4219910Y-7834341D01*
X4219910Y-7834341D02*
X4210386Y-7815294D01*
X4210386Y-7815294D02*
X4210386Y-7643865D01*
X4467529Y-7843865D02*
X4467529Y-7643865D01*
X4467529Y-7643865D02*
X4534196Y-7786722D01*
X4534196Y-7786722D02*
X4600863Y-7643865D01*
X4600863Y-7643865D02*
X4600863Y-7843865D01*
X4781815Y-7843865D02*
X4781815Y-7739103D01*
X4781815Y-7739103D02*
X4772291Y-7720056D01*
X4772291Y-7720056D02*
X4753244Y-7710532D01*
X4753244Y-7710532D02*
X4715148Y-7710532D01*
X4715148Y-7710532D02*
X4696101Y-7720056D01*
X4781815Y-7834341D02*
X4762767Y-7843865D01*
X4762767Y-7843865D02*
X4715148Y-7843865D01*
X4715148Y-7843865D02*
X4696101Y-7834341D01*
X4696101Y-7834341D02*
X4686577Y-7815294D01*
X4686577Y-7815294D02*
X4686577Y-7796246D01*
X4686577Y-7796246D02*
X4696101Y-7777199D01*
X4696101Y-7777199D02*
X4715148Y-7767675D01*
X4715148Y-7767675D02*
X4762767Y-7767675D01*
X4762767Y-7767675D02*
X4781815Y-7758151D01*
X4877053Y-7710532D02*
X4877053Y-7910532D01*
X4877053Y-7720056D02*
X4896101Y-7710532D01*
X4896101Y-7710532D02*
X4934196Y-7710532D01*
X4934196Y-7710532D02*
X4953244Y-7720056D01*
X4953244Y-7720056D02*
X4962767Y-7729579D01*
X4962767Y-7729579D02*
X4972291Y-7748627D01*
X4972291Y-7748627D02*
X4972291Y-7805770D01*
X4972291Y-7805770D02*
X4962767Y-7824818D01*
X4962767Y-7824818D02*
X4953244Y-7834341D01*
X4953244Y-7834341D02*
X4934196Y-7843865D01*
X4934196Y-7843865D02*
X4896101Y-7843865D01*
X4896101Y-7843865D02*
X4877053Y-7834341D01*
X5058005Y-7824818D02*
X5067529Y-7834341D01*
X5067529Y-7834341D02*
X5058005Y-7843865D01*
X5058005Y-7843865D02*
X5048482Y-7834341D01*
X5048482Y-7834341D02*
X5058005Y-7824818D01*
X5058005Y-7824818D02*
X5058005Y-7843865D01*
X5058005Y-7720056D02*
X5067529Y-7729579D01*
X5067529Y-7729579D02*
X5058005Y-7739103D01*
X5058005Y-7739103D02*
X5048482Y-7729579D01*
X5048482Y-7729579D02*
X5058005Y-7720056D01*
X5058005Y-7720056D02*
X5058005Y-7739103D01*
D12*
X3385800Y-8152381D02*
X3425800Y-8192381D01*
X3425800Y-8152381D02*
X3385800Y-8192381D01*
D11*
X3724672Y-8063865D02*
X3743720Y-8063865D01*
X3743720Y-8063865D02*
X3762767Y-8073389D01*
X3762767Y-8073389D02*
X3772291Y-8082913D01*
X3772291Y-8082913D02*
X3781815Y-8101960D01*
X3781815Y-8101960D02*
X3791339Y-8140056D01*
X3791339Y-8140056D02*
X3791339Y-8187675D01*
X3791339Y-8187675D02*
X3781815Y-8225770D01*
X3781815Y-8225770D02*
X3772291Y-8244818D01*
X3772291Y-8244818D02*
X3762767Y-8254341D01*
X3762767Y-8254341D02*
X3743720Y-8263865D01*
X3743720Y-8263865D02*
X3724672Y-8263865D01*
X3724672Y-8263865D02*
X3705624Y-8254341D01*
X3705624Y-8254341D02*
X3696101Y-8244818D01*
X3696101Y-8244818D02*
X3686577Y-8225770D01*
X3686577Y-8225770D02*
X3677053Y-8187675D01*
X3677053Y-8187675D02*
X3677053Y-8140056D01*
X3677053Y-8140056D02*
X3686577Y-8101960D01*
X3686577Y-8101960D02*
X3696101Y-8082913D01*
X3696101Y-8082913D02*
X3705624Y-8073389D01*
X3705624Y-8073389D02*
X3724672Y-8063865D01*
X3877053Y-8244818D02*
X3886577Y-8254341D01*
X3886577Y-8254341D02*
X3877053Y-8263865D01*
X3877053Y-8263865D02*
X3867529Y-8254341D01*
X3867529Y-8254341D02*
X3877053Y-8244818D01*
X3877053Y-8244818D02*
X3877053Y-8263865D01*
X4058005Y-8130532D02*
X4058005Y-8263865D01*
X4010386Y-8054341D02*
X3962767Y-8197199D01*
X3962767Y-8197199D02*
X4086577Y-8197199D01*
X4200863Y-8063865D02*
X4219910Y-8063865D01*
X4219910Y-8063865D02*
X4238958Y-8073389D01*
X4238958Y-8073389D02*
X4248482Y-8082913D01*
X4248482Y-8082913D02*
X4258005Y-8101960D01*
X4258005Y-8101960D02*
X4267529Y-8140056D01*
X4267529Y-8140056D02*
X4267529Y-8187675D01*
X4267529Y-8187675D02*
X4258005Y-8225770D01*
X4258005Y-8225770D02*
X4248482Y-8244818D01*
X4248482Y-8244818D02*
X4238958Y-8254341D01*
X4238958Y-8254341D02*
X4219910Y-8263865D01*
X4219910Y-8263865D02*
X4200863Y-8263865D01*
X4200863Y-8263865D02*
X4181815Y-8254341D01*
X4181815Y-8254341D02*
X4172291Y-8244818D01*
X4172291Y-8244818D02*
X4162767Y-8225770D01*
X4162767Y-8225770D02*
X4153243Y-8187675D01*
X4153243Y-8187675D02*
X4153243Y-8140056D01*
X4153243Y-8140056D02*
X4162767Y-8101960D01*
X4162767Y-8101960D02*
X4172291Y-8082913D01*
X4172291Y-8082913D02*
X4181815Y-8073389D01*
X4181815Y-8073389D02*
X4200863Y-8063865D01*
X4391339Y-8063865D02*
X4410386Y-8063865D01*
X4410386Y-8063865D02*
X4429434Y-8073389D01*
X4429434Y-8073389D02*
X4438958Y-8082913D01*
X4438958Y-8082913D02*
X4448482Y-8101960D01*
X4448482Y-8101960D02*
X4458005Y-8140056D01*
X4458005Y-8140056D02*
X4458005Y-8187675D01*
X4458005Y-8187675D02*
X4448482Y-8225770D01*
X4448482Y-8225770D02*
X4438958Y-8244818D01*
X4438958Y-8244818D02*
X4429434Y-8254341D01*
X4429434Y-8254341D02*
X4410386Y-8263865D01*
X4410386Y-8263865D02*
X4391339Y-8263865D01*
X4391339Y-8263865D02*
X4372291Y-8254341D01*
X4372291Y-8254341D02*
X4362767Y-8244818D01*
X4362767Y-8244818D02*
X4353244Y-8225770D01*
X4353244Y-8225770D02*
X4343720Y-8187675D01*
X4343720Y-8187675D02*
X4343720Y-8140056D01*
X4343720Y-8140056D02*
X4353244Y-8101960D01*
X4353244Y-8101960D02*
X4362767Y-8082913D01*
X4362767Y-8082913D02*
X4372291Y-8073389D01*
X4372291Y-8073389D02*
X4391339Y-8063865D01*
X4543720Y-8263865D02*
X4543720Y-8130532D01*
X4543720Y-8149579D02*
X4553244Y-8140056D01*
X4553244Y-8140056D02*
X4572291Y-8130532D01*
X4572291Y-8130532D02*
X4600863Y-8130532D01*
X4600863Y-8130532D02*
X4619910Y-8140056D01*
X4619910Y-8140056D02*
X4629434Y-8159103D01*
X4629434Y-8159103D02*
X4629434Y-8263865D01*
X4629434Y-8159103D02*
X4638958Y-8140056D01*
X4638958Y-8140056D02*
X4658005Y-8130532D01*
X4658005Y-8130532D02*
X4686577Y-8130532D01*
X4686577Y-8130532D02*
X4705625Y-8140056D01*
X4705625Y-8140056D02*
X4715148Y-8159103D01*
X4715148Y-8159103D02*
X4715148Y-8263865D01*
X4810386Y-8263865D02*
X4810386Y-8130532D01*
X4810386Y-8149579D02*
X4819910Y-8140056D01*
X4819910Y-8140056D02*
X4838958Y-8130532D01*
X4838958Y-8130532D02*
X4867529Y-8130532D01*
X4867529Y-8130532D02*
X4886577Y-8140056D01*
X4886577Y-8140056D02*
X4896101Y-8159103D01*
X4896101Y-8159103D02*
X4896101Y-8263865D01*
X4896101Y-8159103D02*
X4905625Y-8140056D01*
X4905625Y-8140056D02*
X4924672Y-8130532D01*
X4924672Y-8130532D02*
X4953244Y-8130532D01*
X4953244Y-8130532D02*
X4972291Y-8140056D01*
X4972291Y-8140056D02*
X4981815Y-8159103D01*
X4981815Y-8159103D02*
X4981815Y-8263865D01*
X5372291Y-8054341D02*
X5200863Y-8311484D01*
X5629434Y-8063865D02*
X5648482Y-8063865D01*
X5648482Y-8063865D02*
X5667529Y-8073389D01*
X5667529Y-8073389D02*
X5677053Y-8082913D01*
X5677053Y-8082913D02*
X5686577Y-8101960D01*
X5686577Y-8101960D02*
X5696101Y-8140056D01*
X5696101Y-8140056D02*
X5696101Y-8187675D01*
X5696101Y-8187675D02*
X5686577Y-8225770D01*
X5686577Y-8225770D02*
X5677053Y-8244818D01*
X5677053Y-8244818D02*
X5667529Y-8254341D01*
X5667529Y-8254341D02*
X5648482Y-8263865D01*
X5648482Y-8263865D02*
X5629434Y-8263865D01*
X5629434Y-8263865D02*
X5610386Y-8254341D01*
X5610386Y-8254341D02*
X5600863Y-8244818D01*
X5600863Y-8244818D02*
X5591339Y-8225770D01*
X5591339Y-8225770D02*
X5581815Y-8187675D01*
X5581815Y-8187675D02*
X5581815Y-8140056D01*
X5581815Y-8140056D02*
X5591339Y-8101960D01*
X5591339Y-8101960D02*
X5600863Y-8082913D01*
X5600863Y-8082913D02*
X5610386Y-8073389D01*
X5610386Y-8073389D02*
X5629434Y-8063865D01*
X5781815Y-8244818D02*
X5791339Y-8254341D01*
X5791339Y-8254341D02*
X5781815Y-8263865D01*
X5781815Y-8263865D02*
X5772291Y-8254341D01*
X5772291Y-8254341D02*
X5781815Y-8244818D01*
X5781815Y-8244818D02*
X5781815Y-8263865D01*
X5915148Y-8063865D02*
X5934196Y-8063865D01*
X5934196Y-8063865D02*
X5953244Y-8073389D01*
X5953244Y-8073389D02*
X5962767Y-8082913D01*
X5962767Y-8082913D02*
X5972291Y-8101960D01*
X5972291Y-8101960D02*
X5981815Y-8140056D01*
X5981815Y-8140056D02*
X5981815Y-8187675D01*
X5981815Y-8187675D02*
X5972291Y-8225770D01*
X5972291Y-8225770D02*
X5962767Y-8244818D01*
X5962767Y-8244818D02*
X5953244Y-8254341D01*
X5953244Y-8254341D02*
X5934196Y-8263865D01*
X5934196Y-8263865D02*
X5915148Y-8263865D01*
X5915148Y-8263865D02*
X5896101Y-8254341D01*
X5896101Y-8254341D02*
X5886577Y-8244818D01*
X5886577Y-8244818D02*
X5877053Y-8225770D01*
X5877053Y-8225770D02*
X5867529Y-8187675D01*
X5867529Y-8187675D02*
X5867529Y-8140056D01*
X5867529Y-8140056D02*
X5877053Y-8101960D01*
X5877053Y-8101960D02*
X5886577Y-8082913D01*
X5886577Y-8082913D02*
X5896101Y-8073389D01*
X5896101Y-8073389D02*
X5915148Y-8063865D01*
X6172291Y-8263865D02*
X6058006Y-8263865D01*
X6115148Y-8263865D02*
X6115148Y-8063865D01*
X6115148Y-8063865D02*
X6096101Y-8092437D01*
X6096101Y-8092437D02*
X6077053Y-8111484D01*
X6077053Y-8111484D02*
X6058006Y-8121008D01*
X6353244Y-8063865D02*
X6258006Y-8063865D01*
X6258006Y-8063865D02*
X6248482Y-8159103D01*
X6248482Y-8159103D02*
X6258006Y-8149579D01*
X6258006Y-8149579D02*
X6277053Y-8140056D01*
X6277053Y-8140056D02*
X6324672Y-8140056D01*
X6324672Y-8140056D02*
X6343720Y-8149579D01*
X6343720Y-8149579D02*
X6353244Y-8159103D01*
X6353244Y-8159103D02*
X6362767Y-8178151D01*
X6362767Y-8178151D02*
X6362767Y-8225770D01*
X6362767Y-8225770D02*
X6353244Y-8244818D01*
X6353244Y-8244818D02*
X6343720Y-8254341D01*
X6343720Y-8254341D02*
X6324672Y-8263865D01*
X6324672Y-8263865D02*
X6277053Y-8263865D01*
X6277053Y-8263865D02*
X6258006Y-8254341D01*
X6258006Y-8254341D02*
X6248482Y-8244818D01*
X6429434Y-8063865D02*
X6562767Y-8063865D01*
X6562767Y-8063865D02*
X6477053Y-8263865D01*
X6629434Y-8063865D02*
X6629434Y-8101960D01*
X6705625Y-8063865D02*
X6705625Y-8101960D01*
X7000863Y-8340056D02*
X6991339Y-8330532D01*
X6991339Y-8330532D02*
X6972291Y-8301960D01*
X6972291Y-8301960D02*
X6962768Y-8282913D01*
X6962768Y-8282913D02*
X6953244Y-8254341D01*
X6953244Y-8254341D02*
X6943720Y-8206722D01*
X6943720Y-8206722D02*
X6943720Y-8168627D01*
X6943720Y-8168627D02*
X6953244Y-8121008D01*
X6953244Y-8121008D02*
X6962768Y-8092437D01*
X6962768Y-8092437D02*
X6972291Y-8073389D01*
X6972291Y-8073389D02*
X6991339Y-8044818D01*
X6991339Y-8044818D02*
X7000863Y-8035294D01*
X7162768Y-8063865D02*
X7124672Y-8063865D01*
X7124672Y-8063865D02*
X7105625Y-8073389D01*
X7105625Y-8073389D02*
X7096101Y-8082913D01*
X7096101Y-8082913D02*
X7077053Y-8111484D01*
X7077053Y-8111484D02*
X7067529Y-8149579D01*
X7067529Y-8149579D02*
X7067529Y-8225770D01*
X7067529Y-8225770D02*
X7077053Y-8244818D01*
X7077053Y-8244818D02*
X7086577Y-8254341D01*
X7086577Y-8254341D02*
X7105625Y-8263865D01*
X7105625Y-8263865D02*
X7143720Y-8263865D01*
X7143720Y-8263865D02*
X7162768Y-8254341D01*
X7162768Y-8254341D02*
X7172291Y-8244818D01*
X7172291Y-8244818D02*
X7181815Y-8225770D01*
X7181815Y-8225770D02*
X7181815Y-8178151D01*
X7181815Y-8178151D02*
X7172291Y-8159103D01*
X7172291Y-8159103D02*
X7162768Y-8149579D01*
X7162768Y-8149579D02*
X7143720Y-8140056D01*
X7143720Y-8140056D02*
X7105625Y-8140056D01*
X7105625Y-8140056D02*
X7086577Y-8149579D01*
X7086577Y-8149579D02*
X7077053Y-8159103D01*
X7077053Y-8159103D02*
X7067529Y-8178151D01*
X7419910Y-8263865D02*
X7419910Y-8063865D01*
X7505625Y-8263865D02*
X7505625Y-8159103D01*
X7505625Y-8159103D02*
X7496101Y-8140056D01*
X7496101Y-8140056D02*
X7477053Y-8130532D01*
X7477053Y-8130532D02*
X7448482Y-8130532D01*
X7448482Y-8130532D02*
X7429434Y-8140056D01*
X7429434Y-8140056D02*
X7419910Y-8149579D01*
X7629434Y-8263865D02*
X7610387Y-8254341D01*
X7610387Y-8254341D02*
X7600863Y-8244818D01*
X7600863Y-8244818D02*
X7591339Y-8225770D01*
X7591339Y-8225770D02*
X7591339Y-8168627D01*
X7591339Y-8168627D02*
X7600863Y-8149579D01*
X7600863Y-8149579D02*
X7610387Y-8140056D01*
X7610387Y-8140056D02*
X7629434Y-8130532D01*
X7629434Y-8130532D02*
X7658006Y-8130532D01*
X7658006Y-8130532D02*
X7677053Y-8140056D01*
X7677053Y-8140056D02*
X7686577Y-8149579D01*
X7686577Y-8149579D02*
X7696101Y-8168627D01*
X7696101Y-8168627D02*
X7696101Y-8225770D01*
X7696101Y-8225770D02*
X7686577Y-8244818D01*
X7686577Y-8244818D02*
X7677053Y-8254341D01*
X7677053Y-8254341D02*
X7658006Y-8263865D01*
X7658006Y-8263865D02*
X7629434Y-8263865D01*
X7810387Y-8263865D02*
X7791339Y-8254341D01*
X7791339Y-8254341D02*
X7781815Y-8235294D01*
X7781815Y-8235294D02*
X7781815Y-8063865D01*
X7962768Y-8254341D02*
X7943720Y-8263865D01*
X7943720Y-8263865D02*
X7905625Y-8263865D01*
X7905625Y-8263865D02*
X7886577Y-8254341D01*
X7886577Y-8254341D02*
X7877053Y-8235294D01*
X7877053Y-8235294D02*
X7877053Y-8159103D01*
X7877053Y-8159103D02*
X7886577Y-8140056D01*
X7886577Y-8140056D02*
X7905625Y-8130532D01*
X7905625Y-8130532D02*
X7943720Y-8130532D01*
X7943720Y-8130532D02*
X7962768Y-8140056D01*
X7962768Y-8140056D02*
X7972291Y-8159103D01*
X7972291Y-8159103D02*
X7972291Y-8178151D01*
X7972291Y-8178151D02*
X7877053Y-8197199D01*
X8048482Y-8254341D02*
X8067530Y-8263865D01*
X8067530Y-8263865D02*
X8105625Y-8263865D01*
X8105625Y-8263865D02*
X8124672Y-8254341D01*
X8124672Y-8254341D02*
X8134196Y-8235294D01*
X8134196Y-8235294D02*
X8134196Y-8225770D01*
X8134196Y-8225770D02*
X8124672Y-8206722D01*
X8124672Y-8206722D02*
X8105625Y-8197199D01*
X8105625Y-8197199D02*
X8077053Y-8197199D01*
X8077053Y-8197199D02*
X8058006Y-8187675D01*
X8058006Y-8187675D02*
X8048482Y-8168627D01*
X8048482Y-8168627D02*
X8048482Y-8159103D01*
X8048482Y-8159103D02*
X8058006Y-8140056D01*
X8058006Y-8140056D02*
X8077053Y-8130532D01*
X8077053Y-8130532D02*
X8105625Y-8130532D01*
X8105625Y-8130532D02*
X8124672Y-8140056D01*
X8200863Y-8340056D02*
X8210387Y-8330532D01*
X8210387Y-8330532D02*
X8229434Y-8301960D01*
X8229434Y-8301960D02*
X8238958Y-8282913D01*
X8238958Y-8282913D02*
X8248482Y-8254341D01*
X8248482Y-8254341D02*
X8258006Y-8206722D01*
X8258006Y-8206722D02*
X8258006Y-8168627D01*
X8258006Y-8168627D02*
X8248482Y-8121008D01*
X8248482Y-8121008D02*
X8238958Y-8092437D01*
X8238958Y-8092437D02*
X8229434Y-8073389D01*
X8229434Y-8073389D02*
X8210387Y-8044818D01*
X8210387Y-8044818D02*
X8200863Y-8035294D01*
D13*
X3425800Y-8436382D02*
G75*
G03*
X3425800Y-8436382I-45000J0D01*
G01*
D11*
X3724672Y-8327865D02*
X3743720Y-8327865D01*
X3743720Y-8327865D02*
X3762767Y-8337389D01*
X3762767Y-8337389D02*
X3772291Y-8346913D01*
X3772291Y-8346913D02*
X3781815Y-8365960D01*
X3781815Y-8365960D02*
X3791339Y-8404056D01*
X3791339Y-8404056D02*
X3791339Y-8451675D01*
X3791339Y-8451675D02*
X3781815Y-8489770D01*
X3781815Y-8489770D02*
X3772291Y-8508818D01*
X3772291Y-8508818D02*
X3762767Y-8518342D01*
X3762767Y-8518342D02*
X3743720Y-8527865D01*
X3743720Y-8527865D02*
X3724672Y-8527865D01*
X3724672Y-8527865D02*
X3705624Y-8518342D01*
X3705624Y-8518342D02*
X3696101Y-8508818D01*
X3696101Y-8508818D02*
X3686577Y-8489770D01*
X3686577Y-8489770D02*
X3677053Y-8451675D01*
X3677053Y-8451675D02*
X3677053Y-8404056D01*
X3677053Y-8404056D02*
X3686577Y-8365960D01*
X3686577Y-8365960D02*
X3696101Y-8346913D01*
X3696101Y-8346913D02*
X3705624Y-8337389D01*
X3705624Y-8337389D02*
X3724672Y-8327865D01*
X3877053Y-8508818D02*
X3886577Y-8518342D01*
X3886577Y-8518342D02*
X3877053Y-8527865D01*
X3877053Y-8527865D02*
X3867529Y-8518342D01*
X3867529Y-8518342D02*
X3877053Y-8508818D01*
X3877053Y-8508818D02*
X3877053Y-8527865D01*
X3981815Y-8527865D02*
X4019910Y-8527865D01*
X4019910Y-8527865D02*
X4038958Y-8518342D01*
X4038958Y-8518342D02*
X4048482Y-8508818D01*
X4048482Y-8508818D02*
X4067529Y-8480246D01*
X4067529Y-8480246D02*
X4077053Y-8442151D01*
X4077053Y-8442151D02*
X4077053Y-8365960D01*
X4077053Y-8365960D02*
X4067529Y-8346913D01*
X4067529Y-8346913D02*
X4058005Y-8337389D01*
X4058005Y-8337389D02*
X4038958Y-8327865D01*
X4038958Y-8327865D02*
X4000862Y-8327865D01*
X4000862Y-8327865D02*
X3981815Y-8337389D01*
X3981815Y-8337389D02*
X3972291Y-8346913D01*
X3972291Y-8346913D02*
X3962767Y-8365960D01*
X3962767Y-8365960D02*
X3962767Y-8413580D01*
X3962767Y-8413580D02*
X3972291Y-8432627D01*
X3972291Y-8432627D02*
X3981815Y-8442151D01*
X3981815Y-8442151D02*
X4000862Y-8451675D01*
X4000862Y-8451675D02*
X4038958Y-8451675D01*
X4038958Y-8451675D02*
X4058005Y-8442151D01*
X4058005Y-8442151D02*
X4067529Y-8432627D01*
X4067529Y-8432627D02*
X4077053Y-8413580D01*
X4200863Y-8327865D02*
X4219910Y-8327865D01*
X4219910Y-8327865D02*
X4238958Y-8337389D01*
X4238958Y-8337389D02*
X4248482Y-8346913D01*
X4248482Y-8346913D02*
X4258005Y-8365960D01*
X4258005Y-8365960D02*
X4267529Y-8404056D01*
X4267529Y-8404056D02*
X4267529Y-8451675D01*
X4267529Y-8451675D02*
X4258005Y-8489770D01*
X4258005Y-8489770D02*
X4248482Y-8508818D01*
X4248482Y-8508818D02*
X4238958Y-8518342D01*
X4238958Y-8518342D02*
X4219910Y-8527865D01*
X4219910Y-8527865D02*
X4200863Y-8527865D01*
X4200863Y-8527865D02*
X4181815Y-8518342D01*
X4181815Y-8518342D02*
X4172291Y-8508818D01*
X4172291Y-8508818D02*
X4162767Y-8489770D01*
X4162767Y-8489770D02*
X4153243Y-8451675D01*
X4153243Y-8451675D02*
X4153243Y-8404056D01*
X4153243Y-8404056D02*
X4162767Y-8365960D01*
X4162767Y-8365960D02*
X4172291Y-8346913D01*
X4172291Y-8346913D02*
X4181815Y-8337389D01*
X4181815Y-8337389D02*
X4200863Y-8327865D01*
X4391339Y-8327865D02*
X4410386Y-8327865D01*
X4410386Y-8327865D02*
X4429434Y-8337389D01*
X4429434Y-8337389D02*
X4438958Y-8346913D01*
X4438958Y-8346913D02*
X4448482Y-8365960D01*
X4448482Y-8365960D02*
X4458005Y-8404056D01*
X4458005Y-8404056D02*
X4458005Y-8451675D01*
X4458005Y-8451675D02*
X4448482Y-8489770D01*
X4448482Y-8489770D02*
X4438958Y-8508818D01*
X4438958Y-8508818D02*
X4429434Y-8518342D01*
X4429434Y-8518342D02*
X4410386Y-8527865D01*
X4410386Y-8527865D02*
X4391339Y-8527865D01*
X4391339Y-8527865D02*
X4372291Y-8518342D01*
X4372291Y-8518342D02*
X4362767Y-8508818D01*
X4362767Y-8508818D02*
X4353244Y-8489770D01*
X4353244Y-8489770D02*
X4343720Y-8451675D01*
X4343720Y-8451675D02*
X4343720Y-8404056D01*
X4343720Y-8404056D02*
X4353244Y-8365960D01*
X4353244Y-8365960D02*
X4362767Y-8346913D01*
X4362767Y-8346913D02*
X4372291Y-8337389D01*
X4372291Y-8337389D02*
X4391339Y-8327865D01*
X4543720Y-8527865D02*
X4543720Y-8394532D01*
X4543720Y-8413580D02*
X4553244Y-8404056D01*
X4553244Y-8404056D02*
X4572291Y-8394532D01*
X4572291Y-8394532D02*
X4600863Y-8394532D01*
X4600863Y-8394532D02*
X4619910Y-8404056D01*
X4619910Y-8404056D02*
X4629434Y-8423103D01*
X4629434Y-8423103D02*
X4629434Y-8527865D01*
X4629434Y-8423103D02*
X4638958Y-8404056D01*
X4638958Y-8404056D02*
X4658005Y-8394532D01*
X4658005Y-8394532D02*
X4686577Y-8394532D01*
X4686577Y-8394532D02*
X4705625Y-8404056D01*
X4705625Y-8404056D02*
X4715148Y-8423103D01*
X4715148Y-8423103D02*
X4715148Y-8527865D01*
X4810386Y-8527865D02*
X4810386Y-8394532D01*
X4810386Y-8413580D02*
X4819910Y-8404056D01*
X4819910Y-8404056D02*
X4838958Y-8394532D01*
X4838958Y-8394532D02*
X4867529Y-8394532D01*
X4867529Y-8394532D02*
X4886577Y-8404056D01*
X4886577Y-8404056D02*
X4896101Y-8423103D01*
X4896101Y-8423103D02*
X4896101Y-8527865D01*
X4896101Y-8423103D02*
X4905625Y-8404056D01*
X4905625Y-8404056D02*
X4924672Y-8394532D01*
X4924672Y-8394532D02*
X4953244Y-8394532D01*
X4953244Y-8394532D02*
X4972291Y-8404056D01*
X4972291Y-8404056D02*
X4981815Y-8423103D01*
X4981815Y-8423103D02*
X4981815Y-8527865D01*
X5372291Y-8318341D02*
X5200863Y-8575484D01*
X5629434Y-8327865D02*
X5648482Y-8327865D01*
X5648482Y-8327865D02*
X5667529Y-8337389D01*
X5667529Y-8337389D02*
X5677053Y-8346913D01*
X5677053Y-8346913D02*
X5686577Y-8365960D01*
X5686577Y-8365960D02*
X5696101Y-8404056D01*
X5696101Y-8404056D02*
X5696101Y-8451675D01*
X5696101Y-8451675D02*
X5686577Y-8489770D01*
X5686577Y-8489770D02*
X5677053Y-8508818D01*
X5677053Y-8508818D02*
X5667529Y-8518342D01*
X5667529Y-8518342D02*
X5648482Y-8527865D01*
X5648482Y-8527865D02*
X5629434Y-8527865D01*
X5629434Y-8527865D02*
X5610386Y-8518342D01*
X5610386Y-8518342D02*
X5600863Y-8508818D01*
X5600863Y-8508818D02*
X5591339Y-8489770D01*
X5591339Y-8489770D02*
X5581815Y-8451675D01*
X5581815Y-8451675D02*
X5581815Y-8404056D01*
X5581815Y-8404056D02*
X5591339Y-8365960D01*
X5591339Y-8365960D02*
X5600863Y-8346913D01*
X5600863Y-8346913D02*
X5610386Y-8337389D01*
X5610386Y-8337389D02*
X5629434Y-8327865D01*
X5781815Y-8508818D02*
X5791339Y-8518342D01*
X5791339Y-8518342D02*
X5781815Y-8527865D01*
X5781815Y-8527865D02*
X5772291Y-8518342D01*
X5772291Y-8518342D02*
X5781815Y-8508818D01*
X5781815Y-8508818D02*
X5781815Y-8527865D01*
X5915148Y-8327865D02*
X5934196Y-8327865D01*
X5934196Y-8327865D02*
X5953244Y-8337389D01*
X5953244Y-8337389D02*
X5962767Y-8346913D01*
X5962767Y-8346913D02*
X5972291Y-8365960D01*
X5972291Y-8365960D02*
X5981815Y-8404056D01*
X5981815Y-8404056D02*
X5981815Y-8451675D01*
X5981815Y-8451675D02*
X5972291Y-8489770D01*
X5972291Y-8489770D02*
X5962767Y-8508818D01*
X5962767Y-8508818D02*
X5953244Y-8518342D01*
X5953244Y-8518342D02*
X5934196Y-8527865D01*
X5934196Y-8527865D02*
X5915148Y-8527865D01*
X5915148Y-8527865D02*
X5896101Y-8518342D01*
X5896101Y-8518342D02*
X5886577Y-8508818D01*
X5886577Y-8508818D02*
X5877053Y-8489770D01*
X5877053Y-8489770D02*
X5867529Y-8451675D01*
X5867529Y-8451675D02*
X5867529Y-8404056D01*
X5867529Y-8404056D02*
X5877053Y-8365960D01*
X5877053Y-8365960D02*
X5886577Y-8346913D01*
X5886577Y-8346913D02*
X5896101Y-8337389D01*
X5896101Y-8337389D02*
X5915148Y-8327865D01*
X6048482Y-8327865D02*
X6172291Y-8327865D01*
X6172291Y-8327865D02*
X6105625Y-8404056D01*
X6105625Y-8404056D02*
X6134196Y-8404056D01*
X6134196Y-8404056D02*
X6153244Y-8413580D01*
X6153244Y-8413580D02*
X6162767Y-8423103D01*
X6162767Y-8423103D02*
X6172291Y-8442151D01*
X6172291Y-8442151D02*
X6172291Y-8489770D01*
X6172291Y-8489770D02*
X6162767Y-8508818D01*
X6162767Y-8508818D02*
X6153244Y-8518342D01*
X6153244Y-8518342D02*
X6134196Y-8527865D01*
X6134196Y-8527865D02*
X6077053Y-8527865D01*
X6077053Y-8527865D02*
X6058006Y-8518342D01*
X6058006Y-8518342D02*
X6048482Y-8508818D01*
X6353244Y-8327865D02*
X6258006Y-8327865D01*
X6258006Y-8327865D02*
X6248482Y-8423103D01*
X6248482Y-8423103D02*
X6258006Y-8413580D01*
X6258006Y-8413580D02*
X6277053Y-8404056D01*
X6277053Y-8404056D02*
X6324672Y-8404056D01*
X6324672Y-8404056D02*
X6343720Y-8413580D01*
X6343720Y-8413580D02*
X6353244Y-8423103D01*
X6353244Y-8423103D02*
X6362767Y-8442151D01*
X6362767Y-8442151D02*
X6362767Y-8489770D01*
X6362767Y-8489770D02*
X6353244Y-8508818D01*
X6353244Y-8508818D02*
X6343720Y-8518342D01*
X6343720Y-8518342D02*
X6324672Y-8527865D01*
X6324672Y-8527865D02*
X6277053Y-8527865D01*
X6277053Y-8527865D02*
X6258006Y-8518342D01*
X6258006Y-8518342D02*
X6248482Y-8508818D01*
X6534196Y-8394532D02*
X6534196Y-8527865D01*
X6486577Y-8318341D02*
X6438958Y-8461199D01*
X6438958Y-8461199D02*
X6562767Y-8461199D01*
X6629434Y-8327865D02*
X6629434Y-8365960D01*
X6705625Y-8327865D02*
X6705625Y-8365960D01*
X7000863Y-8604056D02*
X6991339Y-8594532D01*
X6991339Y-8594532D02*
X6972291Y-8565961D01*
X6972291Y-8565961D02*
X6962768Y-8546913D01*
X6962768Y-8546913D02*
X6953244Y-8518342D01*
X6953244Y-8518342D02*
X6943720Y-8470722D01*
X6943720Y-8470722D02*
X6943720Y-8432627D01*
X6943720Y-8432627D02*
X6953244Y-8385008D01*
X6953244Y-8385008D02*
X6962768Y-8356437D01*
X6962768Y-8356437D02*
X6972291Y-8337389D01*
X6972291Y-8337389D02*
X6991339Y-8308818D01*
X6991339Y-8308818D02*
X7000863Y-8299294D01*
X7115148Y-8327865D02*
X7134196Y-8327865D01*
X7134196Y-8327865D02*
X7153244Y-8337389D01*
X7153244Y-8337389D02*
X7162768Y-8346913D01*
X7162768Y-8346913D02*
X7172291Y-8365960D01*
X7172291Y-8365960D02*
X7181815Y-8404056D01*
X7181815Y-8404056D02*
X7181815Y-8451675D01*
X7181815Y-8451675D02*
X7172291Y-8489770D01*
X7172291Y-8489770D02*
X7162768Y-8508818D01*
X7162768Y-8508818D02*
X7153244Y-8518342D01*
X7153244Y-8518342D02*
X7134196Y-8527865D01*
X7134196Y-8527865D02*
X7115148Y-8527865D01*
X7115148Y-8527865D02*
X7096101Y-8518342D01*
X7096101Y-8518342D02*
X7086577Y-8508818D01*
X7086577Y-8508818D02*
X7077053Y-8489770D01*
X7077053Y-8489770D02*
X7067529Y-8451675D01*
X7067529Y-8451675D02*
X7067529Y-8404056D01*
X7067529Y-8404056D02*
X7077053Y-8365960D01*
X7077053Y-8365960D02*
X7086577Y-8346913D01*
X7086577Y-8346913D02*
X7096101Y-8337389D01*
X7096101Y-8337389D02*
X7115148Y-8327865D01*
X7419910Y-8527865D02*
X7419910Y-8327865D01*
X7505625Y-8527865D02*
X7505625Y-8423103D01*
X7505625Y-8423103D02*
X7496101Y-8404056D01*
X7496101Y-8404056D02*
X7477053Y-8394532D01*
X7477053Y-8394532D02*
X7448482Y-8394532D01*
X7448482Y-8394532D02*
X7429434Y-8404056D01*
X7429434Y-8404056D02*
X7419910Y-8413580D01*
X7629434Y-8527865D02*
X7610387Y-8518342D01*
X7610387Y-8518342D02*
X7600863Y-8508818D01*
X7600863Y-8508818D02*
X7591339Y-8489770D01*
X7591339Y-8489770D02*
X7591339Y-8432627D01*
X7591339Y-8432627D02*
X7600863Y-8413580D01*
X7600863Y-8413580D02*
X7610387Y-8404056D01*
X7610387Y-8404056D02*
X7629434Y-8394532D01*
X7629434Y-8394532D02*
X7658006Y-8394532D01*
X7658006Y-8394532D02*
X7677053Y-8404056D01*
X7677053Y-8404056D02*
X7686577Y-8413580D01*
X7686577Y-8413580D02*
X7696101Y-8432627D01*
X7696101Y-8432627D02*
X7696101Y-8489770D01*
X7696101Y-8489770D02*
X7686577Y-8508818D01*
X7686577Y-8508818D02*
X7677053Y-8518342D01*
X7677053Y-8518342D02*
X7658006Y-8527865D01*
X7658006Y-8527865D02*
X7629434Y-8527865D01*
X7810387Y-8527865D02*
X7791339Y-8518342D01*
X7791339Y-8518342D02*
X7781815Y-8499294D01*
X7781815Y-8499294D02*
X7781815Y-8327865D01*
X7962768Y-8518342D02*
X7943720Y-8527865D01*
X7943720Y-8527865D02*
X7905625Y-8527865D01*
X7905625Y-8527865D02*
X7886577Y-8518342D01*
X7886577Y-8518342D02*
X7877053Y-8499294D01*
X7877053Y-8499294D02*
X7877053Y-8423103D01*
X7877053Y-8423103D02*
X7886577Y-8404056D01*
X7886577Y-8404056D02*
X7905625Y-8394532D01*
X7905625Y-8394532D02*
X7943720Y-8394532D01*
X7943720Y-8394532D02*
X7962768Y-8404056D01*
X7962768Y-8404056D02*
X7972291Y-8423103D01*
X7972291Y-8423103D02*
X7972291Y-8442151D01*
X7972291Y-8442151D02*
X7877053Y-8461199D01*
X8048482Y-8518342D02*
X8067530Y-8527865D01*
X8067530Y-8527865D02*
X8105625Y-8527865D01*
X8105625Y-8527865D02*
X8124672Y-8518342D01*
X8124672Y-8518342D02*
X8134196Y-8499294D01*
X8134196Y-8499294D02*
X8134196Y-8489770D01*
X8134196Y-8489770D02*
X8124672Y-8470722D01*
X8124672Y-8470722D02*
X8105625Y-8461199D01*
X8105625Y-8461199D02*
X8077053Y-8461199D01*
X8077053Y-8461199D02*
X8058006Y-8451675D01*
X8058006Y-8451675D02*
X8048482Y-8432627D01*
X8048482Y-8432627D02*
X8048482Y-8423103D01*
X8048482Y-8423103D02*
X8058006Y-8404056D01*
X8058006Y-8404056D02*
X8077053Y-8394532D01*
X8077053Y-8394532D02*
X8105625Y-8394532D01*
X8105625Y-8394532D02*
X8124672Y-8404056D01*
X8372292Y-8451675D02*
X8524673Y-8451675D01*
X8448482Y-8527865D02*
X8448482Y-8375484D01*
X8877054Y-8527865D02*
X8762768Y-8527865D01*
X8819911Y-8527865D02*
X8819911Y-8327865D01*
X8819911Y-8327865D02*
X8800863Y-8356437D01*
X8800863Y-8356437D02*
X8781815Y-8375484D01*
X8781815Y-8375484D02*
X8762768Y-8385008D01*
X8953244Y-8346913D02*
X8962768Y-8337389D01*
X8962768Y-8337389D02*
X8981815Y-8327865D01*
X8981815Y-8327865D02*
X9029435Y-8327865D01*
X9029435Y-8327865D02*
X9048482Y-8337389D01*
X9048482Y-8337389D02*
X9058006Y-8346913D01*
X9058006Y-8346913D02*
X9067530Y-8365960D01*
X9067530Y-8365960D02*
X9067530Y-8385008D01*
X9067530Y-8385008D02*
X9058006Y-8413580D01*
X9058006Y-8413580D02*
X8943720Y-8527865D01*
X8943720Y-8527865D02*
X9067530Y-8527865D01*
X9296101Y-8518342D02*
X9315149Y-8527865D01*
X9315149Y-8527865D02*
X9353244Y-8527865D01*
X9353244Y-8527865D02*
X9372292Y-8518342D01*
X9372292Y-8518342D02*
X9381816Y-8499294D01*
X9381816Y-8499294D02*
X9381816Y-8489770D01*
X9381816Y-8489770D02*
X9372292Y-8470722D01*
X9372292Y-8470722D02*
X9353244Y-8461199D01*
X9353244Y-8461199D02*
X9324673Y-8461199D01*
X9324673Y-8461199D02*
X9305625Y-8451675D01*
X9305625Y-8451675D02*
X9296101Y-8432627D01*
X9296101Y-8432627D02*
X9296101Y-8423103D01*
X9296101Y-8423103D02*
X9305625Y-8404056D01*
X9305625Y-8404056D02*
X9324673Y-8394532D01*
X9324673Y-8394532D02*
X9353244Y-8394532D01*
X9353244Y-8394532D02*
X9372292Y-8404056D01*
X9496101Y-8527865D02*
X9477054Y-8518342D01*
X9477054Y-8518342D02*
X9467530Y-8499294D01*
X9467530Y-8499294D02*
X9467530Y-8327865D01*
X9600863Y-8527865D02*
X9581816Y-8518342D01*
X9581816Y-8518342D02*
X9572292Y-8508818D01*
X9572292Y-8508818D02*
X9562768Y-8489770D01*
X9562768Y-8489770D02*
X9562768Y-8432627D01*
X9562768Y-8432627D02*
X9572292Y-8413580D01*
X9572292Y-8413580D02*
X9581816Y-8404056D01*
X9581816Y-8404056D02*
X9600863Y-8394532D01*
X9600863Y-8394532D02*
X9629435Y-8394532D01*
X9629435Y-8394532D02*
X9648482Y-8404056D01*
X9648482Y-8404056D02*
X9658006Y-8413580D01*
X9658006Y-8413580D02*
X9667530Y-8432627D01*
X9667530Y-8432627D02*
X9667530Y-8489770D01*
X9667530Y-8489770D02*
X9658006Y-8508818D01*
X9658006Y-8508818D02*
X9648482Y-8518342D01*
X9648482Y-8518342D02*
X9629435Y-8527865D01*
X9629435Y-8527865D02*
X9600863Y-8527865D01*
X9724673Y-8394532D02*
X9800863Y-8394532D01*
X9753244Y-8327865D02*
X9753244Y-8499294D01*
X9753244Y-8499294D02*
X9762768Y-8518342D01*
X9762768Y-8518342D02*
X9781816Y-8527865D01*
X9781816Y-8527865D02*
X9800863Y-8527865D01*
X9858006Y-8518342D02*
X9877054Y-8527865D01*
X9877054Y-8527865D02*
X9915149Y-8527865D01*
X9915149Y-8527865D02*
X9934197Y-8518342D01*
X9934197Y-8518342D02*
X9943720Y-8499294D01*
X9943720Y-8499294D02*
X9943720Y-8489770D01*
X9943720Y-8489770D02*
X9934197Y-8470722D01*
X9934197Y-8470722D02*
X9915149Y-8461199D01*
X9915149Y-8461199D02*
X9886577Y-8461199D01*
X9886577Y-8461199D02*
X9867530Y-8451675D01*
X9867530Y-8451675D02*
X9858006Y-8432627D01*
X9858006Y-8432627D02*
X9858006Y-8423103D01*
X9858006Y-8423103D02*
X9867530Y-8404056D01*
X9867530Y-8404056D02*
X9886577Y-8394532D01*
X9886577Y-8394532D02*
X9915149Y-8394532D01*
X9915149Y-8394532D02*
X9934197Y-8404056D01*
X10010387Y-8604056D02*
X10019911Y-8594532D01*
X10019911Y-8594532D02*
X10038958Y-8565961D01*
X10038958Y-8565961D02*
X10048482Y-8546913D01*
X10048482Y-8546913D02*
X10058006Y-8518342D01*
X10058006Y-8518342D02*
X10067530Y-8470722D01*
X10067530Y-8470722D02*
X10067530Y-8432627D01*
X10067530Y-8432627D02*
X10058006Y-8385008D01*
X10058006Y-8385008D02*
X10048482Y-8356437D01*
X10048482Y-8356437D02*
X10038958Y-8337389D01*
X10038958Y-8337389D02*
X10019911Y-8308818D01*
X10019911Y-8308818D02*
X10010387Y-8299294D01*
D10*
X3375800Y-8650382D02*
X3375800Y-8750382D01*
X3325800Y-8700382D02*
X3425800Y-8700382D01*
D11*
X3791339Y-8791865D02*
X3677053Y-8791865D01*
X3734196Y-8791865D02*
X3734196Y-8591865D01*
X3734196Y-8591865D02*
X3715148Y-8620437D01*
X3715148Y-8620437D02*
X3696101Y-8639484D01*
X3696101Y-8639484D02*
X3677053Y-8649008D01*
X3877053Y-8772818D02*
X3886577Y-8782342D01*
X3886577Y-8782342D02*
X3877053Y-8791865D01*
X3877053Y-8791865D02*
X3867529Y-8782342D01*
X3867529Y-8782342D02*
X3877053Y-8772818D01*
X3877053Y-8772818D02*
X3877053Y-8791865D01*
X4010386Y-8591865D02*
X4029434Y-8591865D01*
X4029434Y-8591865D02*
X4048482Y-8601389D01*
X4048482Y-8601389D02*
X4058005Y-8610913D01*
X4058005Y-8610913D02*
X4067529Y-8629961D01*
X4067529Y-8629961D02*
X4077053Y-8668056D01*
X4077053Y-8668056D02*
X4077053Y-8715675D01*
X4077053Y-8715675D02*
X4067529Y-8753770D01*
X4067529Y-8753770D02*
X4058005Y-8772818D01*
X4058005Y-8772818D02*
X4048482Y-8782342D01*
X4048482Y-8782342D02*
X4029434Y-8791865D01*
X4029434Y-8791865D02*
X4010386Y-8791865D01*
X4010386Y-8791865D02*
X3991339Y-8782342D01*
X3991339Y-8782342D02*
X3981815Y-8772818D01*
X3981815Y-8772818D02*
X3972291Y-8753770D01*
X3972291Y-8753770D02*
X3962767Y-8715675D01*
X3962767Y-8715675D02*
X3962767Y-8668056D01*
X3962767Y-8668056D02*
X3972291Y-8629961D01*
X3972291Y-8629961D02*
X3981815Y-8610913D01*
X3981815Y-8610913D02*
X3991339Y-8601389D01*
X3991339Y-8601389D02*
X4010386Y-8591865D01*
X4200863Y-8591865D02*
X4219910Y-8591865D01*
X4219910Y-8591865D02*
X4238958Y-8601389D01*
X4238958Y-8601389D02*
X4248482Y-8610913D01*
X4248482Y-8610913D02*
X4258005Y-8629961D01*
X4258005Y-8629961D02*
X4267529Y-8668056D01*
X4267529Y-8668056D02*
X4267529Y-8715675D01*
X4267529Y-8715675D02*
X4258005Y-8753770D01*
X4258005Y-8753770D02*
X4248482Y-8772818D01*
X4248482Y-8772818D02*
X4238958Y-8782342D01*
X4238958Y-8782342D02*
X4219910Y-8791865D01*
X4219910Y-8791865D02*
X4200863Y-8791865D01*
X4200863Y-8791865D02*
X4181815Y-8782342D01*
X4181815Y-8782342D02*
X4172291Y-8772818D01*
X4172291Y-8772818D02*
X4162767Y-8753770D01*
X4162767Y-8753770D02*
X4153243Y-8715675D01*
X4153243Y-8715675D02*
X4153243Y-8668056D01*
X4153243Y-8668056D02*
X4162767Y-8629961D01*
X4162767Y-8629961D02*
X4172291Y-8610913D01*
X4172291Y-8610913D02*
X4181815Y-8601389D01*
X4181815Y-8601389D02*
X4200863Y-8591865D01*
X4391339Y-8591865D02*
X4410386Y-8591865D01*
X4410386Y-8591865D02*
X4429434Y-8601389D01*
X4429434Y-8601389D02*
X4438958Y-8610913D01*
X4438958Y-8610913D02*
X4448482Y-8629961D01*
X4448482Y-8629961D02*
X4458005Y-8668056D01*
X4458005Y-8668056D02*
X4458005Y-8715675D01*
X4458005Y-8715675D02*
X4448482Y-8753770D01*
X4448482Y-8753770D02*
X4438958Y-8772818D01*
X4438958Y-8772818D02*
X4429434Y-8782342D01*
X4429434Y-8782342D02*
X4410386Y-8791865D01*
X4410386Y-8791865D02*
X4391339Y-8791865D01*
X4391339Y-8791865D02*
X4372291Y-8782342D01*
X4372291Y-8782342D02*
X4362767Y-8772818D01*
X4362767Y-8772818D02*
X4353244Y-8753770D01*
X4353244Y-8753770D02*
X4343720Y-8715675D01*
X4343720Y-8715675D02*
X4343720Y-8668056D01*
X4343720Y-8668056D02*
X4353244Y-8629961D01*
X4353244Y-8629961D02*
X4362767Y-8610913D01*
X4362767Y-8610913D02*
X4372291Y-8601389D01*
X4372291Y-8601389D02*
X4391339Y-8591865D01*
X4543720Y-8791865D02*
X4543720Y-8658532D01*
X4543720Y-8677580D02*
X4553244Y-8668056D01*
X4553244Y-8668056D02*
X4572291Y-8658532D01*
X4572291Y-8658532D02*
X4600863Y-8658532D01*
X4600863Y-8658532D02*
X4619910Y-8668056D01*
X4619910Y-8668056D02*
X4629434Y-8687103D01*
X4629434Y-8687103D02*
X4629434Y-8791865D01*
X4629434Y-8687103D02*
X4638958Y-8668056D01*
X4638958Y-8668056D02*
X4658005Y-8658532D01*
X4658005Y-8658532D02*
X4686577Y-8658532D01*
X4686577Y-8658532D02*
X4705625Y-8668056D01*
X4705625Y-8668056D02*
X4715148Y-8687103D01*
X4715148Y-8687103D02*
X4715148Y-8791865D01*
X4810386Y-8791865D02*
X4810386Y-8658532D01*
X4810386Y-8677580D02*
X4819910Y-8668056D01*
X4819910Y-8668056D02*
X4838958Y-8658532D01*
X4838958Y-8658532D02*
X4867529Y-8658532D01*
X4867529Y-8658532D02*
X4886577Y-8668056D01*
X4886577Y-8668056D02*
X4896101Y-8687103D01*
X4896101Y-8687103D02*
X4896101Y-8791865D01*
X4896101Y-8687103D02*
X4905625Y-8668056D01*
X4905625Y-8668056D02*
X4924672Y-8658532D01*
X4924672Y-8658532D02*
X4953244Y-8658532D01*
X4953244Y-8658532D02*
X4972291Y-8668056D01*
X4972291Y-8668056D02*
X4981815Y-8687103D01*
X4981815Y-8687103D02*
X4981815Y-8791865D01*
X5372291Y-8582342D02*
X5200863Y-8839484D01*
X5629434Y-8591865D02*
X5648482Y-8591865D01*
X5648482Y-8591865D02*
X5667529Y-8601389D01*
X5667529Y-8601389D02*
X5677053Y-8610913D01*
X5677053Y-8610913D02*
X5686577Y-8629961D01*
X5686577Y-8629961D02*
X5696101Y-8668056D01*
X5696101Y-8668056D02*
X5696101Y-8715675D01*
X5696101Y-8715675D02*
X5686577Y-8753770D01*
X5686577Y-8753770D02*
X5677053Y-8772818D01*
X5677053Y-8772818D02*
X5667529Y-8782342D01*
X5667529Y-8782342D02*
X5648482Y-8791865D01*
X5648482Y-8791865D02*
X5629434Y-8791865D01*
X5629434Y-8791865D02*
X5610386Y-8782342D01*
X5610386Y-8782342D02*
X5600863Y-8772818D01*
X5600863Y-8772818D02*
X5591339Y-8753770D01*
X5591339Y-8753770D02*
X5581815Y-8715675D01*
X5581815Y-8715675D02*
X5581815Y-8668056D01*
X5581815Y-8668056D02*
X5591339Y-8629961D01*
X5591339Y-8629961D02*
X5600863Y-8610913D01*
X5600863Y-8610913D02*
X5610386Y-8601389D01*
X5610386Y-8601389D02*
X5629434Y-8591865D01*
X5781815Y-8772818D02*
X5791339Y-8782342D01*
X5791339Y-8782342D02*
X5781815Y-8791865D01*
X5781815Y-8791865D02*
X5772291Y-8782342D01*
X5772291Y-8782342D02*
X5781815Y-8772818D01*
X5781815Y-8772818D02*
X5781815Y-8791865D01*
X5915148Y-8591865D02*
X5934196Y-8591865D01*
X5934196Y-8591865D02*
X5953244Y-8601389D01*
X5953244Y-8601389D02*
X5962767Y-8610913D01*
X5962767Y-8610913D02*
X5972291Y-8629961D01*
X5972291Y-8629961D02*
X5981815Y-8668056D01*
X5981815Y-8668056D02*
X5981815Y-8715675D01*
X5981815Y-8715675D02*
X5972291Y-8753770D01*
X5972291Y-8753770D02*
X5962767Y-8772818D01*
X5962767Y-8772818D02*
X5953244Y-8782342D01*
X5953244Y-8782342D02*
X5934196Y-8791865D01*
X5934196Y-8791865D02*
X5915148Y-8791865D01*
X5915148Y-8791865D02*
X5896101Y-8782342D01*
X5896101Y-8782342D02*
X5886577Y-8772818D01*
X5886577Y-8772818D02*
X5877053Y-8753770D01*
X5877053Y-8753770D02*
X5867529Y-8715675D01*
X5867529Y-8715675D02*
X5867529Y-8668056D01*
X5867529Y-8668056D02*
X5877053Y-8629961D01*
X5877053Y-8629961D02*
X5886577Y-8610913D01*
X5886577Y-8610913D02*
X5896101Y-8601389D01*
X5896101Y-8601389D02*
X5915148Y-8591865D01*
X6048482Y-8591865D02*
X6172291Y-8591865D01*
X6172291Y-8591865D02*
X6105625Y-8668056D01*
X6105625Y-8668056D02*
X6134196Y-8668056D01*
X6134196Y-8668056D02*
X6153244Y-8677580D01*
X6153244Y-8677580D02*
X6162767Y-8687103D01*
X6162767Y-8687103D02*
X6172291Y-8706151D01*
X6172291Y-8706151D02*
X6172291Y-8753770D01*
X6172291Y-8753770D02*
X6162767Y-8772818D01*
X6162767Y-8772818D02*
X6153244Y-8782342D01*
X6153244Y-8782342D02*
X6134196Y-8791865D01*
X6134196Y-8791865D02*
X6077053Y-8791865D01*
X6077053Y-8791865D02*
X6058006Y-8782342D01*
X6058006Y-8782342D02*
X6048482Y-8772818D01*
X6267529Y-8791865D02*
X6305625Y-8791865D01*
X6305625Y-8791865D02*
X6324672Y-8782342D01*
X6324672Y-8782342D02*
X6334196Y-8772818D01*
X6334196Y-8772818D02*
X6353244Y-8744246D01*
X6353244Y-8744246D02*
X6362767Y-8706151D01*
X6362767Y-8706151D02*
X6362767Y-8629961D01*
X6362767Y-8629961D02*
X6353244Y-8610913D01*
X6353244Y-8610913D02*
X6343720Y-8601389D01*
X6343720Y-8601389D02*
X6324672Y-8591865D01*
X6324672Y-8591865D02*
X6286577Y-8591865D01*
X6286577Y-8591865D02*
X6267529Y-8601389D01*
X6267529Y-8601389D02*
X6258006Y-8610913D01*
X6258006Y-8610913D02*
X6248482Y-8629961D01*
X6248482Y-8629961D02*
X6248482Y-8677580D01*
X6248482Y-8677580D02*
X6258006Y-8696627D01*
X6258006Y-8696627D02*
X6267529Y-8706151D01*
X6267529Y-8706151D02*
X6286577Y-8715675D01*
X6286577Y-8715675D02*
X6324672Y-8715675D01*
X6324672Y-8715675D02*
X6343720Y-8706151D01*
X6343720Y-8706151D02*
X6353244Y-8696627D01*
X6353244Y-8696627D02*
X6362767Y-8677580D01*
X6534196Y-8658532D02*
X6534196Y-8791865D01*
X6486577Y-8582342D02*
X6438958Y-8725199D01*
X6438958Y-8725199D02*
X6562767Y-8725199D01*
X6629434Y-8591865D02*
X6629434Y-8629961D01*
X6705625Y-8591865D02*
X6705625Y-8629961D01*
X7000863Y-8868056D02*
X6991339Y-8858532D01*
X6991339Y-8858532D02*
X6972291Y-8829961D01*
X6972291Y-8829961D02*
X6962768Y-8810913D01*
X6962768Y-8810913D02*
X6953244Y-8782342D01*
X6953244Y-8782342D02*
X6943720Y-8734722D01*
X6943720Y-8734722D02*
X6943720Y-8696627D01*
X6943720Y-8696627D02*
X6953244Y-8649008D01*
X6953244Y-8649008D02*
X6962768Y-8620437D01*
X6962768Y-8620437D02*
X6972291Y-8601389D01*
X6972291Y-8601389D02*
X6991339Y-8572818D01*
X6991339Y-8572818D02*
X7000863Y-8563294D01*
X7162768Y-8658532D02*
X7162768Y-8791865D01*
X7115148Y-8582342D02*
X7067529Y-8725199D01*
X7067529Y-8725199D02*
X7191339Y-8725199D01*
X7248482Y-8591865D02*
X7372291Y-8591865D01*
X7372291Y-8591865D02*
X7305625Y-8668056D01*
X7305625Y-8668056D02*
X7334196Y-8668056D01*
X7334196Y-8668056D02*
X7353244Y-8677580D01*
X7353244Y-8677580D02*
X7362768Y-8687103D01*
X7362768Y-8687103D02*
X7372291Y-8706151D01*
X7372291Y-8706151D02*
X7372291Y-8753770D01*
X7372291Y-8753770D02*
X7362768Y-8772818D01*
X7362768Y-8772818D02*
X7353244Y-8782342D01*
X7353244Y-8782342D02*
X7334196Y-8791865D01*
X7334196Y-8791865D02*
X7277053Y-8791865D01*
X7277053Y-8791865D02*
X7258006Y-8782342D01*
X7258006Y-8782342D02*
X7248482Y-8772818D01*
X7610387Y-8791865D02*
X7610387Y-8591865D01*
X7696101Y-8791865D02*
X7696101Y-8687103D01*
X7696101Y-8687103D02*
X7686577Y-8668056D01*
X7686577Y-8668056D02*
X7667530Y-8658532D01*
X7667530Y-8658532D02*
X7638958Y-8658532D01*
X7638958Y-8658532D02*
X7619910Y-8668056D01*
X7619910Y-8668056D02*
X7610387Y-8677580D01*
X7819910Y-8791865D02*
X7800863Y-8782342D01*
X7800863Y-8782342D02*
X7791339Y-8772818D01*
X7791339Y-8772818D02*
X7781815Y-8753770D01*
X7781815Y-8753770D02*
X7781815Y-8696627D01*
X7781815Y-8696627D02*
X7791339Y-8677580D01*
X7791339Y-8677580D02*
X7800863Y-8668056D01*
X7800863Y-8668056D02*
X7819910Y-8658532D01*
X7819910Y-8658532D02*
X7848482Y-8658532D01*
X7848482Y-8658532D02*
X7867530Y-8668056D01*
X7867530Y-8668056D02*
X7877053Y-8677580D01*
X7877053Y-8677580D02*
X7886577Y-8696627D01*
X7886577Y-8696627D02*
X7886577Y-8753770D01*
X7886577Y-8753770D02*
X7877053Y-8772818D01*
X7877053Y-8772818D02*
X7867530Y-8782342D01*
X7867530Y-8782342D02*
X7848482Y-8791865D01*
X7848482Y-8791865D02*
X7819910Y-8791865D01*
X8000863Y-8791865D02*
X7981815Y-8782342D01*
X7981815Y-8782342D02*
X7972291Y-8763294D01*
X7972291Y-8763294D02*
X7972291Y-8591865D01*
X8153244Y-8782342D02*
X8134196Y-8791865D01*
X8134196Y-8791865D02*
X8096101Y-8791865D01*
X8096101Y-8791865D02*
X8077053Y-8782342D01*
X8077053Y-8782342D02*
X8067530Y-8763294D01*
X8067530Y-8763294D02*
X8067530Y-8687103D01*
X8067530Y-8687103D02*
X8077053Y-8668056D01*
X8077053Y-8668056D02*
X8096101Y-8658532D01*
X8096101Y-8658532D02*
X8134196Y-8658532D01*
X8134196Y-8658532D02*
X8153244Y-8668056D01*
X8153244Y-8668056D02*
X8162768Y-8687103D01*
X8162768Y-8687103D02*
X8162768Y-8706151D01*
X8162768Y-8706151D02*
X8067530Y-8725199D01*
X8238958Y-8782342D02*
X8258006Y-8791865D01*
X8258006Y-8791865D02*
X8296101Y-8791865D01*
X8296101Y-8791865D02*
X8315149Y-8782342D01*
X8315149Y-8782342D02*
X8324672Y-8763294D01*
X8324672Y-8763294D02*
X8324672Y-8753770D01*
X8324672Y-8753770D02*
X8315149Y-8734722D01*
X8315149Y-8734722D02*
X8296101Y-8725199D01*
X8296101Y-8725199D02*
X8267530Y-8725199D01*
X8267530Y-8725199D02*
X8248482Y-8715675D01*
X8248482Y-8715675D02*
X8238958Y-8696627D01*
X8238958Y-8696627D02*
X8238958Y-8687103D01*
X8238958Y-8687103D02*
X8248482Y-8668056D01*
X8248482Y-8668056D02*
X8267530Y-8658532D01*
X8267530Y-8658532D02*
X8296101Y-8658532D01*
X8296101Y-8658532D02*
X8315149Y-8668056D01*
X8391339Y-8868056D02*
X8400863Y-8858532D01*
X8400863Y-8858532D02*
X8419911Y-8829961D01*
X8419911Y-8829961D02*
X8429434Y-8810913D01*
X8429434Y-8810913D02*
X8438958Y-8782342D01*
X8438958Y-8782342D02*
X8448482Y-8734722D01*
X8448482Y-8734722D02*
X8448482Y-8696627D01*
X8448482Y-8696627D02*
X8438958Y-8649008D01*
X8438958Y-8649008D02*
X8429434Y-8620437D01*
X8429434Y-8620437D02*
X8419911Y-8601389D01*
X8419911Y-8601389D02*
X8400863Y-8572818D01*
X8400863Y-8572818D02*
X8391339Y-8563294D01*
D14*
X3409805Y-9002997D02*
X3409805Y-8925766D01*
X3332574Y-8925766D01*
X3332574Y-9002997D01*
X3409805Y-9002997D01*
D11*
X3791339Y-9055865D02*
X3677053Y-9055865D01*
X3734196Y-9055865D02*
X3734196Y-8855865D01*
X3734196Y-8855865D02*
X3715148Y-8884437D01*
X3715148Y-8884437D02*
X3696101Y-8903484D01*
X3696101Y-8903484D02*
X3677053Y-8913008D01*
X3877053Y-9036818D02*
X3886577Y-9046342D01*
X3886577Y-9046342D02*
X3877053Y-9055865D01*
X3877053Y-9055865D02*
X3867529Y-9046342D01*
X3867529Y-9046342D02*
X3877053Y-9036818D01*
X3877053Y-9036818D02*
X3877053Y-9055865D01*
X4010386Y-8855865D02*
X4029434Y-8855865D01*
X4029434Y-8855865D02*
X4048482Y-8865389D01*
X4048482Y-8865389D02*
X4058005Y-8874913D01*
X4058005Y-8874913D02*
X4067529Y-8893961D01*
X4067529Y-8893961D02*
X4077053Y-8932056D01*
X4077053Y-8932056D02*
X4077053Y-8979675D01*
X4077053Y-8979675D02*
X4067529Y-9017770D01*
X4067529Y-9017770D02*
X4058005Y-9036818D01*
X4058005Y-9036818D02*
X4048482Y-9046342D01*
X4048482Y-9046342D02*
X4029434Y-9055865D01*
X4029434Y-9055865D02*
X4010386Y-9055865D01*
X4010386Y-9055865D02*
X3991339Y-9046342D01*
X3991339Y-9046342D02*
X3981815Y-9036818D01*
X3981815Y-9036818D02*
X3972291Y-9017770D01*
X3972291Y-9017770D02*
X3962767Y-8979675D01*
X3962767Y-8979675D02*
X3962767Y-8932056D01*
X3962767Y-8932056D02*
X3972291Y-8893961D01*
X3972291Y-8893961D02*
X3981815Y-8874913D01*
X3981815Y-8874913D02*
X3991339Y-8865389D01*
X3991339Y-8865389D02*
X4010386Y-8855865D01*
X4172291Y-9055865D02*
X4210386Y-9055865D01*
X4210386Y-9055865D02*
X4229434Y-9046342D01*
X4229434Y-9046342D02*
X4238958Y-9036818D01*
X4238958Y-9036818D02*
X4258005Y-9008246D01*
X4258005Y-9008246D02*
X4267529Y-8970151D01*
X4267529Y-8970151D02*
X4267529Y-8893961D01*
X4267529Y-8893961D02*
X4258005Y-8874913D01*
X4258005Y-8874913D02*
X4248482Y-8865389D01*
X4248482Y-8865389D02*
X4229434Y-8855865D01*
X4229434Y-8855865D02*
X4191339Y-8855865D01*
X4191339Y-8855865D02*
X4172291Y-8865389D01*
X4172291Y-8865389D02*
X4162767Y-8874913D01*
X4162767Y-8874913D02*
X4153243Y-8893961D01*
X4153243Y-8893961D02*
X4153243Y-8941580D01*
X4153243Y-8941580D02*
X4162767Y-8960627D01*
X4162767Y-8960627D02*
X4172291Y-8970151D01*
X4172291Y-8970151D02*
X4191339Y-8979675D01*
X4191339Y-8979675D02*
X4229434Y-8979675D01*
X4229434Y-8979675D02*
X4248482Y-8970151D01*
X4248482Y-8970151D02*
X4258005Y-8960627D01*
X4258005Y-8960627D02*
X4267529Y-8941580D01*
X4343720Y-8874913D02*
X4353244Y-8865389D01*
X4353244Y-8865389D02*
X4372291Y-8855865D01*
X4372291Y-8855865D02*
X4419910Y-8855865D01*
X4419910Y-8855865D02*
X4438958Y-8865389D01*
X4438958Y-8865389D02*
X4448482Y-8874913D01*
X4448482Y-8874913D02*
X4458005Y-8893961D01*
X4458005Y-8893961D02*
X4458005Y-8913008D01*
X4458005Y-8913008D02*
X4448482Y-8941580D01*
X4448482Y-8941580D02*
X4334196Y-9055865D01*
X4334196Y-9055865D02*
X4458005Y-9055865D01*
X4543720Y-9055865D02*
X4543720Y-8922532D01*
X4543720Y-8941580D02*
X4553244Y-8932056D01*
X4553244Y-8932056D02*
X4572291Y-8922532D01*
X4572291Y-8922532D02*
X4600863Y-8922532D01*
X4600863Y-8922532D02*
X4619910Y-8932056D01*
X4619910Y-8932056D02*
X4629434Y-8951103D01*
X4629434Y-8951103D02*
X4629434Y-9055865D01*
X4629434Y-8951103D02*
X4638958Y-8932056D01*
X4638958Y-8932056D02*
X4658005Y-8922532D01*
X4658005Y-8922532D02*
X4686577Y-8922532D01*
X4686577Y-8922532D02*
X4705625Y-8932056D01*
X4705625Y-8932056D02*
X4715148Y-8951103D01*
X4715148Y-8951103D02*
X4715148Y-9055865D01*
X4810386Y-9055865D02*
X4810386Y-8922532D01*
X4810386Y-8941580D02*
X4819910Y-8932056D01*
X4819910Y-8932056D02*
X4838958Y-8922532D01*
X4838958Y-8922532D02*
X4867529Y-8922532D01*
X4867529Y-8922532D02*
X4886577Y-8932056D01*
X4886577Y-8932056D02*
X4896101Y-8951103D01*
X4896101Y-8951103D02*
X4896101Y-9055865D01*
X4896101Y-8951103D02*
X4905625Y-8932056D01*
X4905625Y-8932056D02*
X4924672Y-8922532D01*
X4924672Y-8922532D02*
X4953244Y-8922532D01*
X4953244Y-8922532D02*
X4972291Y-8932056D01*
X4972291Y-8932056D02*
X4981815Y-8951103D01*
X4981815Y-8951103D02*
X4981815Y-9055865D01*
X5372291Y-8846342D02*
X5200863Y-9103484D01*
X5629434Y-8855865D02*
X5648482Y-8855865D01*
X5648482Y-8855865D02*
X5667529Y-8865389D01*
X5667529Y-8865389D02*
X5677053Y-8874913D01*
X5677053Y-8874913D02*
X5686577Y-8893961D01*
X5686577Y-8893961D02*
X5696101Y-8932056D01*
X5696101Y-8932056D02*
X5696101Y-8979675D01*
X5696101Y-8979675D02*
X5686577Y-9017770D01*
X5686577Y-9017770D02*
X5677053Y-9036818D01*
X5677053Y-9036818D02*
X5667529Y-9046342D01*
X5667529Y-9046342D02*
X5648482Y-9055865D01*
X5648482Y-9055865D02*
X5629434Y-9055865D01*
X5629434Y-9055865D02*
X5610386Y-9046342D01*
X5610386Y-9046342D02*
X5600863Y-9036818D01*
X5600863Y-9036818D02*
X5591339Y-9017770D01*
X5591339Y-9017770D02*
X5581815Y-8979675D01*
X5581815Y-8979675D02*
X5581815Y-8932056D01*
X5581815Y-8932056D02*
X5591339Y-8893961D01*
X5591339Y-8893961D02*
X5600863Y-8874913D01*
X5600863Y-8874913D02*
X5610386Y-8865389D01*
X5610386Y-8865389D02*
X5629434Y-8855865D01*
X5781815Y-9036818D02*
X5791339Y-9046342D01*
X5791339Y-9046342D02*
X5781815Y-9055865D01*
X5781815Y-9055865D02*
X5772291Y-9046342D01*
X5772291Y-9046342D02*
X5781815Y-9036818D01*
X5781815Y-9036818D02*
X5781815Y-9055865D01*
X5915148Y-8855865D02*
X5934196Y-8855865D01*
X5934196Y-8855865D02*
X5953244Y-8865389D01*
X5953244Y-8865389D02*
X5962767Y-8874913D01*
X5962767Y-8874913D02*
X5972291Y-8893961D01*
X5972291Y-8893961D02*
X5981815Y-8932056D01*
X5981815Y-8932056D02*
X5981815Y-8979675D01*
X5981815Y-8979675D02*
X5972291Y-9017770D01*
X5972291Y-9017770D02*
X5962767Y-9036818D01*
X5962767Y-9036818D02*
X5953244Y-9046342D01*
X5953244Y-9046342D02*
X5934196Y-9055865D01*
X5934196Y-9055865D02*
X5915148Y-9055865D01*
X5915148Y-9055865D02*
X5896101Y-9046342D01*
X5896101Y-9046342D02*
X5886577Y-9036818D01*
X5886577Y-9036818D02*
X5877053Y-9017770D01*
X5877053Y-9017770D02*
X5867529Y-8979675D01*
X5867529Y-8979675D02*
X5867529Y-8932056D01*
X5867529Y-8932056D02*
X5877053Y-8893961D01*
X5877053Y-8893961D02*
X5886577Y-8874913D01*
X5886577Y-8874913D02*
X5896101Y-8865389D01*
X5896101Y-8865389D02*
X5915148Y-8855865D01*
X6153244Y-8922532D02*
X6153244Y-9055865D01*
X6105625Y-8846342D02*
X6058006Y-8989199D01*
X6058006Y-8989199D02*
X6181815Y-8989199D01*
X6238958Y-8855865D02*
X6362767Y-8855865D01*
X6362767Y-8855865D02*
X6296101Y-8932056D01*
X6296101Y-8932056D02*
X6324672Y-8932056D01*
X6324672Y-8932056D02*
X6343720Y-8941580D01*
X6343720Y-8941580D02*
X6353244Y-8951103D01*
X6353244Y-8951103D02*
X6362767Y-8970151D01*
X6362767Y-8970151D02*
X6362767Y-9017770D01*
X6362767Y-9017770D02*
X6353244Y-9036818D01*
X6353244Y-9036818D02*
X6343720Y-9046342D01*
X6343720Y-9046342D02*
X6324672Y-9055865D01*
X6324672Y-9055865D02*
X6267529Y-9055865D01*
X6267529Y-9055865D02*
X6248482Y-9046342D01*
X6248482Y-9046342D02*
X6238958Y-9036818D01*
X6486577Y-8855865D02*
X6505625Y-8855865D01*
X6505625Y-8855865D02*
X6524672Y-8865389D01*
X6524672Y-8865389D02*
X6534196Y-8874913D01*
X6534196Y-8874913D02*
X6543720Y-8893961D01*
X6543720Y-8893961D02*
X6553244Y-8932056D01*
X6553244Y-8932056D02*
X6553244Y-8979675D01*
X6553244Y-8979675D02*
X6543720Y-9017770D01*
X6543720Y-9017770D02*
X6534196Y-9036818D01*
X6534196Y-9036818D02*
X6524672Y-9046342D01*
X6524672Y-9046342D02*
X6505625Y-9055865D01*
X6505625Y-9055865D02*
X6486577Y-9055865D01*
X6486577Y-9055865D02*
X6467529Y-9046342D01*
X6467529Y-9046342D02*
X6458006Y-9036818D01*
X6458006Y-9036818D02*
X6448482Y-9017770D01*
X6448482Y-9017770D02*
X6438958Y-8979675D01*
X6438958Y-8979675D02*
X6438958Y-8932056D01*
X6438958Y-8932056D02*
X6448482Y-8893961D01*
X6448482Y-8893961D02*
X6458006Y-8874913D01*
X6458006Y-8874913D02*
X6467529Y-8865389D01*
X6467529Y-8865389D02*
X6486577Y-8855865D01*
X6629434Y-8855865D02*
X6629434Y-8893961D01*
X6705625Y-8855865D02*
X6705625Y-8893961D01*
X7000863Y-9132056D02*
X6991339Y-9122532D01*
X6991339Y-9122532D02*
X6972291Y-9093961D01*
X6972291Y-9093961D02*
X6962768Y-9074913D01*
X6962768Y-9074913D02*
X6953244Y-9046342D01*
X6953244Y-9046342D02*
X6943720Y-8998722D01*
X6943720Y-8998722D02*
X6943720Y-8960627D01*
X6943720Y-8960627D02*
X6953244Y-8913008D01*
X6953244Y-8913008D02*
X6962768Y-8884437D01*
X6962768Y-8884437D02*
X6972291Y-8865389D01*
X6972291Y-8865389D02*
X6991339Y-8836818D01*
X6991339Y-8836818D02*
X7000863Y-8827294D01*
X7067529Y-8874913D02*
X7077053Y-8865389D01*
X7077053Y-8865389D02*
X7096101Y-8855865D01*
X7096101Y-8855865D02*
X7143720Y-8855865D01*
X7143720Y-8855865D02*
X7162768Y-8865389D01*
X7162768Y-8865389D02*
X7172291Y-8874913D01*
X7172291Y-8874913D02*
X7181815Y-8893961D01*
X7181815Y-8893961D02*
X7181815Y-8913008D01*
X7181815Y-8913008D02*
X7172291Y-8941580D01*
X7172291Y-8941580D02*
X7058006Y-9055865D01*
X7058006Y-9055865D02*
X7181815Y-9055865D01*
X7277053Y-9055865D02*
X7315148Y-9055865D01*
X7315148Y-9055865D02*
X7334196Y-9046342D01*
X7334196Y-9046342D02*
X7343720Y-9036818D01*
X7343720Y-9036818D02*
X7362768Y-9008246D01*
X7362768Y-9008246D02*
X7372291Y-8970151D01*
X7372291Y-8970151D02*
X7372291Y-8893961D01*
X7372291Y-8893961D02*
X7362768Y-8874913D01*
X7362768Y-8874913D02*
X7353244Y-8865389D01*
X7353244Y-8865389D02*
X7334196Y-8855865D01*
X7334196Y-8855865D02*
X7296101Y-8855865D01*
X7296101Y-8855865D02*
X7277053Y-8865389D01*
X7277053Y-8865389D02*
X7267529Y-8874913D01*
X7267529Y-8874913D02*
X7258006Y-8893961D01*
X7258006Y-8893961D02*
X7258006Y-8941580D01*
X7258006Y-8941580D02*
X7267529Y-8960627D01*
X7267529Y-8960627D02*
X7277053Y-8970151D01*
X7277053Y-8970151D02*
X7296101Y-8979675D01*
X7296101Y-8979675D02*
X7334196Y-8979675D01*
X7334196Y-8979675D02*
X7353244Y-8970151D01*
X7353244Y-8970151D02*
X7362768Y-8960627D01*
X7362768Y-8960627D02*
X7372291Y-8941580D01*
X7610387Y-9055865D02*
X7610387Y-8855865D01*
X7696101Y-9055865D02*
X7696101Y-8951103D01*
X7696101Y-8951103D02*
X7686577Y-8932056D01*
X7686577Y-8932056D02*
X7667530Y-8922532D01*
X7667530Y-8922532D02*
X7638958Y-8922532D01*
X7638958Y-8922532D02*
X7619910Y-8932056D01*
X7619910Y-8932056D02*
X7610387Y-8941580D01*
X7819910Y-9055865D02*
X7800863Y-9046342D01*
X7800863Y-9046342D02*
X7791339Y-9036818D01*
X7791339Y-9036818D02*
X7781815Y-9017770D01*
X7781815Y-9017770D02*
X7781815Y-8960627D01*
X7781815Y-8960627D02*
X7791339Y-8941580D01*
X7791339Y-8941580D02*
X7800863Y-8932056D01*
X7800863Y-8932056D02*
X7819910Y-8922532D01*
X7819910Y-8922532D02*
X7848482Y-8922532D01*
X7848482Y-8922532D02*
X7867530Y-8932056D01*
X7867530Y-8932056D02*
X7877053Y-8941580D01*
X7877053Y-8941580D02*
X7886577Y-8960627D01*
X7886577Y-8960627D02*
X7886577Y-9017770D01*
X7886577Y-9017770D02*
X7877053Y-9036818D01*
X7877053Y-9036818D02*
X7867530Y-9046342D01*
X7867530Y-9046342D02*
X7848482Y-9055865D01*
X7848482Y-9055865D02*
X7819910Y-9055865D01*
X8000863Y-9055865D02*
X7981815Y-9046342D01*
X7981815Y-9046342D02*
X7972291Y-9027294D01*
X7972291Y-9027294D02*
X7972291Y-8855865D01*
X8153244Y-9046342D02*
X8134196Y-9055865D01*
X8134196Y-9055865D02*
X8096101Y-9055865D01*
X8096101Y-9055865D02*
X8077053Y-9046342D01*
X8077053Y-9046342D02*
X8067530Y-9027294D01*
X8067530Y-9027294D02*
X8067530Y-8951103D01*
X8067530Y-8951103D02*
X8077053Y-8932056D01*
X8077053Y-8932056D02*
X8096101Y-8922532D01*
X8096101Y-8922532D02*
X8134196Y-8922532D01*
X8134196Y-8922532D02*
X8153244Y-8932056D01*
X8153244Y-8932056D02*
X8162768Y-8951103D01*
X8162768Y-8951103D02*
X8162768Y-8970151D01*
X8162768Y-8970151D02*
X8067530Y-8989199D01*
X8238958Y-9046342D02*
X8258006Y-9055865D01*
X8258006Y-9055865D02*
X8296101Y-9055865D01*
X8296101Y-9055865D02*
X8315149Y-9046342D01*
X8315149Y-9046342D02*
X8324672Y-9027294D01*
X8324672Y-9027294D02*
X8324672Y-9017770D01*
X8324672Y-9017770D02*
X8315149Y-8998722D01*
X8315149Y-8998722D02*
X8296101Y-8989199D01*
X8296101Y-8989199D02*
X8267530Y-8989199D01*
X8267530Y-8989199D02*
X8248482Y-8979675D01*
X8248482Y-8979675D02*
X8238958Y-8960627D01*
X8238958Y-8960627D02*
X8238958Y-8951103D01*
X8238958Y-8951103D02*
X8248482Y-8932056D01*
X8248482Y-8932056D02*
X8267530Y-8922532D01*
X8267530Y-8922532D02*
X8296101Y-8922532D01*
X8296101Y-8922532D02*
X8315149Y-8932056D01*
X8391339Y-9132056D02*
X8400863Y-9122532D01*
X8400863Y-9122532D02*
X8419911Y-9093961D01*
X8419911Y-9093961D02*
X8429434Y-9074913D01*
X8429434Y-9074913D02*
X8438958Y-9046342D01*
X8438958Y-9046342D02*
X8448482Y-8998722D01*
X8448482Y-8998722D02*
X8448482Y-8960627D01*
X8448482Y-8960627D02*
X8438958Y-8913008D01*
X8438958Y-8913008D02*
X8429434Y-8884437D01*
X8429434Y-8884437D02*
X8419911Y-8865389D01*
X8419911Y-8865389D02*
X8400863Y-8836818D01*
X8400863Y-8836818D02*
X8391339Y-8827294D01*
D15*
X3370800Y-9283382D02*
X3425800Y-9228382D01*
X3370800Y-9173382D01*
X3315800Y-9228382D01*
X3370800Y-9283382D01*
D11*
X3791339Y-9319865D02*
X3677053Y-9319865D01*
X3734196Y-9319865D02*
X3734196Y-9119865D01*
X3734196Y-9119865D02*
X3715148Y-9148437D01*
X3715148Y-9148437D02*
X3696101Y-9167484D01*
X3696101Y-9167484D02*
X3677053Y-9177008D01*
X3877053Y-9300818D02*
X3886577Y-9310342D01*
X3886577Y-9310342D02*
X3877053Y-9319865D01*
X3877053Y-9319865D02*
X3867529Y-9310342D01*
X3867529Y-9310342D02*
X3877053Y-9300818D01*
X3877053Y-9300818D02*
X3877053Y-9319865D01*
X4077053Y-9319865D02*
X3962767Y-9319865D01*
X4019910Y-9319865D02*
X4019910Y-9119865D01*
X4019910Y-9119865D02*
X4000862Y-9148437D01*
X4000862Y-9148437D02*
X3981815Y-9167484D01*
X3981815Y-9167484D02*
X3962767Y-9177008D01*
X4200863Y-9119865D02*
X4219910Y-9119865D01*
X4219910Y-9119865D02*
X4238958Y-9129389D01*
X4238958Y-9129389D02*
X4248482Y-9138913D01*
X4248482Y-9138913D02*
X4258005Y-9157961D01*
X4258005Y-9157961D02*
X4267529Y-9196056D01*
X4267529Y-9196056D02*
X4267529Y-9243675D01*
X4267529Y-9243675D02*
X4258005Y-9281770D01*
X4258005Y-9281770D02*
X4248482Y-9300818D01*
X4248482Y-9300818D02*
X4238958Y-9310342D01*
X4238958Y-9310342D02*
X4219910Y-9319865D01*
X4219910Y-9319865D02*
X4200863Y-9319865D01*
X4200863Y-9319865D02*
X4181815Y-9310342D01*
X4181815Y-9310342D02*
X4172291Y-9300818D01*
X4172291Y-9300818D02*
X4162767Y-9281770D01*
X4162767Y-9281770D02*
X4153243Y-9243675D01*
X4153243Y-9243675D02*
X4153243Y-9196056D01*
X4153243Y-9196056D02*
X4162767Y-9157961D01*
X4162767Y-9157961D02*
X4172291Y-9138913D01*
X4172291Y-9138913D02*
X4181815Y-9129389D01*
X4181815Y-9129389D02*
X4200863Y-9119865D01*
X4391339Y-9119865D02*
X4410386Y-9119865D01*
X4410386Y-9119865D02*
X4429434Y-9129389D01*
X4429434Y-9129389D02*
X4438958Y-9138913D01*
X4438958Y-9138913D02*
X4448482Y-9157961D01*
X4448482Y-9157961D02*
X4458005Y-9196056D01*
X4458005Y-9196056D02*
X4458005Y-9243675D01*
X4458005Y-9243675D02*
X4448482Y-9281770D01*
X4448482Y-9281770D02*
X4438958Y-9300818D01*
X4438958Y-9300818D02*
X4429434Y-9310342D01*
X4429434Y-9310342D02*
X4410386Y-9319865D01*
X4410386Y-9319865D02*
X4391339Y-9319865D01*
X4391339Y-9319865D02*
X4372291Y-9310342D01*
X4372291Y-9310342D02*
X4362767Y-9300818D01*
X4362767Y-9300818D02*
X4353244Y-9281770D01*
X4353244Y-9281770D02*
X4343720Y-9243675D01*
X4343720Y-9243675D02*
X4343720Y-9196056D01*
X4343720Y-9196056D02*
X4353244Y-9157961D01*
X4353244Y-9157961D02*
X4362767Y-9138913D01*
X4362767Y-9138913D02*
X4372291Y-9129389D01*
X4372291Y-9129389D02*
X4391339Y-9119865D01*
X4543720Y-9319865D02*
X4543720Y-9186532D01*
X4543720Y-9205580D02*
X4553244Y-9196056D01*
X4553244Y-9196056D02*
X4572291Y-9186532D01*
X4572291Y-9186532D02*
X4600863Y-9186532D01*
X4600863Y-9186532D02*
X4619910Y-9196056D01*
X4619910Y-9196056D02*
X4629434Y-9215103D01*
X4629434Y-9215103D02*
X4629434Y-9319865D01*
X4629434Y-9215103D02*
X4638958Y-9196056D01*
X4638958Y-9196056D02*
X4658005Y-9186532D01*
X4658005Y-9186532D02*
X4686577Y-9186532D01*
X4686577Y-9186532D02*
X4705625Y-9196056D01*
X4705625Y-9196056D02*
X4715148Y-9215103D01*
X4715148Y-9215103D02*
X4715148Y-9319865D01*
X4810386Y-9319865D02*
X4810386Y-9186532D01*
X4810386Y-9205580D02*
X4819910Y-9196056D01*
X4819910Y-9196056D02*
X4838958Y-9186532D01*
X4838958Y-9186532D02*
X4867529Y-9186532D01*
X4867529Y-9186532D02*
X4886577Y-9196056D01*
X4886577Y-9196056D02*
X4896101Y-9215103D01*
X4896101Y-9215103D02*
X4896101Y-9319865D01*
X4896101Y-9215103D02*
X4905625Y-9196056D01*
X4905625Y-9196056D02*
X4924672Y-9186532D01*
X4924672Y-9186532D02*
X4953244Y-9186532D01*
X4953244Y-9186532D02*
X4972291Y-9196056D01*
X4972291Y-9196056D02*
X4981815Y-9215103D01*
X4981815Y-9215103D02*
X4981815Y-9319865D01*
X5372291Y-9110342D02*
X5200863Y-9367484D01*
X5629434Y-9119865D02*
X5648482Y-9119865D01*
X5648482Y-9119865D02*
X5667529Y-9129389D01*
X5667529Y-9129389D02*
X5677053Y-9138913D01*
X5677053Y-9138913D02*
X5686577Y-9157961D01*
X5686577Y-9157961D02*
X5696101Y-9196056D01*
X5696101Y-9196056D02*
X5696101Y-9243675D01*
X5696101Y-9243675D02*
X5686577Y-9281770D01*
X5686577Y-9281770D02*
X5677053Y-9300818D01*
X5677053Y-9300818D02*
X5667529Y-9310342D01*
X5667529Y-9310342D02*
X5648482Y-9319865D01*
X5648482Y-9319865D02*
X5629434Y-9319865D01*
X5629434Y-9319865D02*
X5610386Y-9310342D01*
X5610386Y-9310342D02*
X5600863Y-9300818D01*
X5600863Y-9300818D02*
X5591339Y-9281770D01*
X5591339Y-9281770D02*
X5581815Y-9243675D01*
X5581815Y-9243675D02*
X5581815Y-9196056D01*
X5581815Y-9196056D02*
X5591339Y-9157961D01*
X5591339Y-9157961D02*
X5600863Y-9138913D01*
X5600863Y-9138913D02*
X5610386Y-9129389D01*
X5610386Y-9129389D02*
X5629434Y-9119865D01*
X5781815Y-9300818D02*
X5791339Y-9310342D01*
X5791339Y-9310342D02*
X5781815Y-9319865D01*
X5781815Y-9319865D02*
X5772291Y-9310342D01*
X5772291Y-9310342D02*
X5781815Y-9300818D01*
X5781815Y-9300818D02*
X5781815Y-9319865D01*
X5915148Y-9119865D02*
X5934196Y-9119865D01*
X5934196Y-9119865D02*
X5953244Y-9129389D01*
X5953244Y-9129389D02*
X5962767Y-9138913D01*
X5962767Y-9138913D02*
X5972291Y-9157961D01*
X5972291Y-9157961D02*
X5981815Y-9196056D01*
X5981815Y-9196056D02*
X5981815Y-9243675D01*
X5981815Y-9243675D02*
X5972291Y-9281770D01*
X5972291Y-9281770D02*
X5962767Y-9300818D01*
X5962767Y-9300818D02*
X5953244Y-9310342D01*
X5953244Y-9310342D02*
X5934196Y-9319865D01*
X5934196Y-9319865D02*
X5915148Y-9319865D01*
X5915148Y-9319865D02*
X5896101Y-9310342D01*
X5896101Y-9310342D02*
X5886577Y-9300818D01*
X5886577Y-9300818D02*
X5877053Y-9281770D01*
X5877053Y-9281770D02*
X5867529Y-9243675D01*
X5867529Y-9243675D02*
X5867529Y-9196056D01*
X5867529Y-9196056D02*
X5877053Y-9157961D01*
X5877053Y-9157961D02*
X5886577Y-9138913D01*
X5886577Y-9138913D02*
X5896101Y-9129389D01*
X5896101Y-9129389D02*
X5915148Y-9119865D01*
X6153244Y-9186532D02*
X6153244Y-9319865D01*
X6105625Y-9110342D02*
X6058006Y-9253199D01*
X6058006Y-9253199D02*
X6181815Y-9253199D01*
X6238958Y-9119865D02*
X6362767Y-9119865D01*
X6362767Y-9119865D02*
X6296101Y-9196056D01*
X6296101Y-9196056D02*
X6324672Y-9196056D01*
X6324672Y-9196056D02*
X6343720Y-9205580D01*
X6343720Y-9205580D02*
X6353244Y-9215103D01*
X6353244Y-9215103D02*
X6362767Y-9234151D01*
X6362767Y-9234151D02*
X6362767Y-9281770D01*
X6362767Y-9281770D02*
X6353244Y-9300818D01*
X6353244Y-9300818D02*
X6343720Y-9310342D01*
X6343720Y-9310342D02*
X6324672Y-9319865D01*
X6324672Y-9319865D02*
X6267529Y-9319865D01*
X6267529Y-9319865D02*
X6248482Y-9310342D01*
X6248482Y-9310342D02*
X6238958Y-9300818D01*
X6429434Y-9119865D02*
X6553244Y-9119865D01*
X6553244Y-9119865D02*
X6486577Y-9196056D01*
X6486577Y-9196056D02*
X6515148Y-9196056D01*
X6515148Y-9196056D02*
X6534196Y-9205580D01*
X6534196Y-9205580D02*
X6543720Y-9215103D01*
X6543720Y-9215103D02*
X6553244Y-9234151D01*
X6553244Y-9234151D02*
X6553244Y-9281770D01*
X6553244Y-9281770D02*
X6543720Y-9300818D01*
X6543720Y-9300818D02*
X6534196Y-9310342D01*
X6534196Y-9310342D02*
X6515148Y-9319865D01*
X6515148Y-9319865D02*
X6458006Y-9319865D01*
X6458006Y-9319865D02*
X6438958Y-9310342D01*
X6438958Y-9310342D02*
X6429434Y-9300818D01*
X6629434Y-9119865D02*
X6629434Y-9157961D01*
X6705625Y-9119865D02*
X6705625Y-9157961D01*
X7000863Y-9396056D02*
X6991339Y-9386532D01*
X6991339Y-9386532D02*
X6972291Y-9357961D01*
X6972291Y-9357961D02*
X6962768Y-9338913D01*
X6962768Y-9338913D02*
X6953244Y-9310342D01*
X6953244Y-9310342D02*
X6943720Y-9262722D01*
X6943720Y-9262722D02*
X6943720Y-9224627D01*
X6943720Y-9224627D02*
X6953244Y-9177008D01*
X6953244Y-9177008D02*
X6962768Y-9148437D01*
X6962768Y-9148437D02*
X6972291Y-9129389D01*
X6972291Y-9129389D02*
X6991339Y-9100818D01*
X6991339Y-9100818D02*
X7000863Y-9091294D01*
X7162768Y-9186532D02*
X7162768Y-9319865D01*
X7115148Y-9110342D02*
X7067529Y-9253199D01*
X7067529Y-9253199D02*
X7191339Y-9253199D01*
X7419910Y-9319865D02*
X7419910Y-9119865D01*
X7505625Y-9319865D02*
X7505625Y-9215103D01*
X7505625Y-9215103D02*
X7496101Y-9196056D01*
X7496101Y-9196056D02*
X7477053Y-9186532D01*
X7477053Y-9186532D02*
X7448482Y-9186532D01*
X7448482Y-9186532D02*
X7429434Y-9196056D01*
X7429434Y-9196056D02*
X7419910Y-9205580D01*
X7629434Y-9319865D02*
X7610387Y-9310342D01*
X7610387Y-9310342D02*
X7600863Y-9300818D01*
X7600863Y-9300818D02*
X7591339Y-9281770D01*
X7591339Y-9281770D02*
X7591339Y-9224627D01*
X7591339Y-9224627D02*
X7600863Y-9205580D01*
X7600863Y-9205580D02*
X7610387Y-9196056D01*
X7610387Y-9196056D02*
X7629434Y-9186532D01*
X7629434Y-9186532D02*
X7658006Y-9186532D01*
X7658006Y-9186532D02*
X7677053Y-9196056D01*
X7677053Y-9196056D02*
X7686577Y-9205580D01*
X7686577Y-9205580D02*
X7696101Y-9224627D01*
X7696101Y-9224627D02*
X7696101Y-9281770D01*
X7696101Y-9281770D02*
X7686577Y-9300818D01*
X7686577Y-9300818D02*
X7677053Y-9310342D01*
X7677053Y-9310342D02*
X7658006Y-9319865D01*
X7658006Y-9319865D02*
X7629434Y-9319865D01*
X7810387Y-9319865D02*
X7791339Y-9310342D01*
X7791339Y-9310342D02*
X7781815Y-9291294D01*
X7781815Y-9291294D02*
X7781815Y-9119865D01*
X7962768Y-9310342D02*
X7943720Y-9319865D01*
X7943720Y-9319865D02*
X7905625Y-9319865D01*
X7905625Y-9319865D02*
X7886577Y-9310342D01*
X7886577Y-9310342D02*
X7877053Y-9291294D01*
X7877053Y-9291294D02*
X7877053Y-9215103D01*
X7877053Y-9215103D02*
X7886577Y-9196056D01*
X7886577Y-9196056D02*
X7905625Y-9186532D01*
X7905625Y-9186532D02*
X7943720Y-9186532D01*
X7943720Y-9186532D02*
X7962768Y-9196056D01*
X7962768Y-9196056D02*
X7972291Y-9215103D01*
X7972291Y-9215103D02*
X7972291Y-9234151D01*
X7972291Y-9234151D02*
X7877053Y-9253199D01*
X8048482Y-9310342D02*
X8067530Y-9319865D01*
X8067530Y-9319865D02*
X8105625Y-9319865D01*
X8105625Y-9319865D02*
X8124672Y-9310342D01*
X8124672Y-9310342D02*
X8134196Y-9291294D01*
X8134196Y-9291294D02*
X8134196Y-9281770D01*
X8134196Y-9281770D02*
X8124672Y-9262722D01*
X8124672Y-9262722D02*
X8105625Y-9253199D01*
X8105625Y-9253199D02*
X8077053Y-9253199D01*
X8077053Y-9253199D02*
X8058006Y-9243675D01*
X8058006Y-9243675D02*
X8048482Y-9224627D01*
X8048482Y-9224627D02*
X8048482Y-9215103D01*
X8048482Y-9215103D02*
X8058006Y-9196056D01*
X8058006Y-9196056D02*
X8077053Y-9186532D01*
X8077053Y-9186532D02*
X8105625Y-9186532D01*
X8105625Y-9186532D02*
X8124672Y-9196056D01*
X8200863Y-9396056D02*
X8210387Y-9386532D01*
X8210387Y-9386532D02*
X8229434Y-9357961D01*
X8229434Y-9357961D02*
X8238958Y-9338913D01*
X8238958Y-9338913D02*
X8248482Y-9310342D01*
X8248482Y-9310342D02*
X8258006Y-9262722D01*
X8258006Y-9262722D02*
X8258006Y-9224627D01*
X8258006Y-9224627D02*
X8248482Y-9177008D01*
X8248482Y-9177008D02*
X8238958Y-9148437D01*
X8238958Y-9148437D02*
X8229434Y-9129389D01*
X8229434Y-9129389D02*
X8210387Y-9100818D01*
X8210387Y-9100818D02*
X8200863Y-9091294D01*
M02*
