G04 #@! TF.GenerationSoftware,KiCad,Pcbnew,7.0.5*
G04 #@! TF.CreationDate,2023-08-20T01:56:51+08:00*
G04 #@! TF.ProjectId,handwire microboard,68616e64-7769-4726-9520-6d6963726f62,rev?*
G04 #@! TF.SameCoordinates,Original*
G04 #@! TF.FileFunction,Legend,Top*
G04 #@! TF.FilePolarity,Positive*
%FSLAX46Y46*%
G04 Gerber Fmt 4.6, Leading zero omitted, Abs format (unit mm)*
G04 Created by KiCad (PCBNEW 7.0.5) date 2023-08-20 01:56:51*
%MOMM*%
%LPD*%
G01*
G04 APERTURE LIST*
G04 Aperture macros list*
%AMRoundRect*
0 Rectangle with rounded corners*
0 $1 Rounding radius*
0 $2 $3 $4 $5 $6 $7 $8 $9 X,Y pos of 4 corners*
0 Add a 4 corners polygon primitive as box body*
4,1,4,$2,$3,$4,$5,$6,$7,$8,$9,$2,$3,0*
0 Add four circle primitives for the rounded corners*
1,1,$1+$1,$2,$3*
1,1,$1+$1,$4,$5*
1,1,$1+$1,$6,$7*
1,1,$1+$1,$8,$9*
0 Add four rect primitives between the rounded corners*
20,1,$1+$1,$2,$3,$4,$5,0*
20,1,$1+$1,$4,$5,$6,$7,0*
20,1,$1+$1,$6,$7,$8,$9,0*
20,1,$1+$1,$8,$9,$2,$3,0*%
%AMOutline4P*
0 Free polygon, 4 corners , with rotation*
0 The origin of the aperture is its center*
0 number of corners: always 4*
0 $1 to $8 corner X, Y*
0 $9 Rotation angle, in degrees counterclockwise*
0 create outline with 4 corners*
4,1,4,$1,$2,$3,$4,$5,$6,$7,$8,$1,$2,$9*%
G04 Aperture macros list end*
%ADD10C,0.150000*%
%ADD11C,0.120000*%
%ADD12C,0.200000*%
%ADD13C,0.010000*%
%ADD14C,1.752600*%
%ADD15RoundRect,0.438150X-0.438150X0.438150X-0.438150X-0.438150X0.438150X-0.438150X0.438150X0.438150X0*%
%ADD16Outline4P,-0.876300X-0.876300X0.876300X-0.876300X0.876300X0.876300X-0.876300X0.876300X270.000000*%
%ADD17C,3.400000*%
%ADD18C,0.800000*%
%ADD19O,3.029000X1.576000*%
%ADD20O,1.800000X1.500000*%
%ADD21C,2.000000*%
%ADD22C,1.700000*%
%ADD23O,1.700000X1.700000*%
%ADD24O,1.576000X3.029000*%
%ADD25O,1.500000X1.800000*%
%ADD26RoundRect,0.425000X0.425000X-0.425000X0.425000X0.425000X-0.425000X0.425000X-0.425000X-0.425000X0*%
G04 APERTURE END LIST*
D10*
X26055390Y-61879523D02*
X26017295Y-61955713D01*
X26017295Y-61955713D02*
X26017295Y-62069999D01*
X26017295Y-62069999D02*
X26055390Y-62184285D01*
X26055390Y-62184285D02*
X26131580Y-62260475D01*
X26131580Y-62260475D02*
X26207771Y-62298570D01*
X26207771Y-62298570D02*
X26360152Y-62336666D01*
X26360152Y-62336666D02*
X26474438Y-62336666D01*
X26474438Y-62336666D02*
X26626819Y-62298570D01*
X26626819Y-62298570D02*
X26703009Y-62260475D01*
X26703009Y-62260475D02*
X26779200Y-62184285D01*
X26779200Y-62184285D02*
X26817295Y-62069999D01*
X26817295Y-62069999D02*
X26817295Y-61993808D01*
X26817295Y-61993808D02*
X26779200Y-61879523D01*
X26779200Y-61879523D02*
X26741104Y-61841427D01*
X26741104Y-61841427D02*
X26474438Y-61841427D01*
X26474438Y-61841427D02*
X26474438Y-61993808D01*
X26817295Y-61498570D02*
X26017295Y-61498570D01*
X26017295Y-61498570D02*
X26817295Y-61041427D01*
X26817295Y-61041427D02*
X26017295Y-61041427D01*
X26817295Y-60660475D02*
X26017295Y-60660475D01*
X26017295Y-60660475D02*
X26017295Y-60469999D01*
X26017295Y-60469999D02*
X26055390Y-60355713D01*
X26055390Y-60355713D02*
X26131580Y-60279523D01*
X26131580Y-60279523D02*
X26207771Y-60241428D01*
X26207771Y-60241428D02*
X26360152Y-60203332D01*
X26360152Y-60203332D02*
X26474438Y-60203332D01*
X26474438Y-60203332D02*
X26626819Y-60241428D01*
X26626819Y-60241428D02*
X26703009Y-60279523D01*
X26703009Y-60279523D02*
X26779200Y-60355713D01*
X26779200Y-60355713D02*
X26817295Y-60469999D01*
X26817295Y-60469999D02*
X26817295Y-60660475D01*
X24967295Y-61860475D02*
X24167295Y-61860475D01*
X24167295Y-61860475D02*
X24167295Y-61669999D01*
X24167295Y-61669999D02*
X24205390Y-61555713D01*
X24205390Y-61555713D02*
X24281580Y-61479523D01*
X24281580Y-61479523D02*
X24357771Y-61441428D01*
X24357771Y-61441428D02*
X24510152Y-61403332D01*
X24510152Y-61403332D02*
X24624438Y-61403332D01*
X24624438Y-61403332D02*
X24776819Y-61441428D01*
X24776819Y-61441428D02*
X24853009Y-61479523D01*
X24853009Y-61479523D02*
X24929200Y-61555713D01*
X24929200Y-61555713D02*
X24967295Y-61669999D01*
X24967295Y-61669999D02*
X24967295Y-61860475D01*
X24243485Y-61098571D02*
X24205390Y-61060475D01*
X24205390Y-61060475D02*
X24167295Y-60984285D01*
X24167295Y-60984285D02*
X24167295Y-60793809D01*
X24167295Y-60793809D02*
X24205390Y-60717618D01*
X24205390Y-60717618D02*
X24243485Y-60679523D01*
X24243485Y-60679523D02*
X24319676Y-60641428D01*
X24319676Y-60641428D02*
X24395866Y-60641428D01*
X24395866Y-60641428D02*
X24510152Y-60679523D01*
X24510152Y-60679523D02*
X24967295Y-61136666D01*
X24967295Y-61136666D02*
X24967295Y-60641428D01*
X30617295Y-62336666D02*
X31417295Y-62069999D01*
X31417295Y-62069999D02*
X30617295Y-61803333D01*
X31341104Y-61079523D02*
X31379200Y-61117619D01*
X31379200Y-61117619D02*
X31417295Y-61231904D01*
X31417295Y-61231904D02*
X31417295Y-61308095D01*
X31417295Y-61308095D02*
X31379200Y-61422381D01*
X31379200Y-61422381D02*
X31303009Y-61498571D01*
X31303009Y-61498571D02*
X31226819Y-61536666D01*
X31226819Y-61536666D02*
X31074438Y-61574762D01*
X31074438Y-61574762D02*
X30960152Y-61574762D01*
X30960152Y-61574762D02*
X30807771Y-61536666D01*
X30807771Y-61536666D02*
X30731580Y-61498571D01*
X30731580Y-61498571D02*
X30655390Y-61422381D01*
X30655390Y-61422381D02*
X30617295Y-61308095D01*
X30617295Y-61308095D02*
X30617295Y-61231904D01*
X30617295Y-61231904D02*
X30655390Y-61117619D01*
X30655390Y-61117619D02*
X30693485Y-61079523D01*
X31341104Y-60279523D02*
X31379200Y-60317619D01*
X31379200Y-60317619D02*
X31417295Y-60431904D01*
X31417295Y-60431904D02*
X31417295Y-60508095D01*
X31417295Y-60508095D02*
X31379200Y-60622381D01*
X31379200Y-60622381D02*
X31303009Y-60698571D01*
X31303009Y-60698571D02*
X31226819Y-60736666D01*
X31226819Y-60736666D02*
X31074438Y-60774762D01*
X31074438Y-60774762D02*
X30960152Y-60774762D01*
X30960152Y-60774762D02*
X30807771Y-60736666D01*
X30807771Y-60736666D02*
X30731580Y-60698571D01*
X30731580Y-60698571D02*
X30655390Y-60622381D01*
X30655390Y-60622381D02*
X30617295Y-60508095D01*
X30617295Y-60508095D02*
X30617295Y-60431904D01*
X30617295Y-60431904D02*
X30655390Y-60317619D01*
X30655390Y-60317619D02*
X30693485Y-60279523D01*
X38505476Y-58780390D02*
X38429286Y-58742295D01*
X38429286Y-58742295D02*
X38315000Y-58742295D01*
X38315000Y-58742295D02*
X38200714Y-58780390D01*
X38200714Y-58780390D02*
X38124524Y-58856580D01*
X38124524Y-58856580D02*
X38086429Y-58932771D01*
X38086429Y-58932771D02*
X38048333Y-59085152D01*
X38048333Y-59085152D02*
X38048333Y-59199438D01*
X38048333Y-59199438D02*
X38086429Y-59351819D01*
X38086429Y-59351819D02*
X38124524Y-59428009D01*
X38124524Y-59428009D02*
X38200714Y-59504200D01*
X38200714Y-59504200D02*
X38315000Y-59542295D01*
X38315000Y-59542295D02*
X38391191Y-59542295D01*
X38391191Y-59542295D02*
X38505476Y-59504200D01*
X38505476Y-59504200D02*
X38543572Y-59466104D01*
X38543572Y-59466104D02*
X38543572Y-59199438D01*
X38543572Y-59199438D02*
X38391191Y-59199438D01*
X38886429Y-59542295D02*
X38886429Y-58742295D01*
X38886429Y-58742295D02*
X39343572Y-59542295D01*
X39343572Y-59542295D02*
X39343572Y-58742295D01*
X39724524Y-59542295D02*
X39724524Y-58742295D01*
X39724524Y-58742295D02*
X39915000Y-58742295D01*
X39915000Y-58742295D02*
X40029286Y-58780390D01*
X40029286Y-58780390D02*
X40105476Y-58856580D01*
X40105476Y-58856580D02*
X40143571Y-58932771D01*
X40143571Y-58932771D02*
X40181667Y-59085152D01*
X40181667Y-59085152D02*
X40181667Y-59199438D01*
X40181667Y-59199438D02*
X40143571Y-59351819D01*
X40143571Y-59351819D02*
X40105476Y-59428009D01*
X40105476Y-59428009D02*
X40029286Y-59504200D01*
X40029286Y-59504200D02*
X39915000Y-59542295D01*
X39915000Y-59542295D02*
X39724524Y-59542295D01*
X38676905Y-64042295D02*
X38410238Y-63661342D01*
X38219762Y-64042295D02*
X38219762Y-63242295D01*
X38219762Y-63242295D02*
X38524524Y-63242295D01*
X38524524Y-63242295D02*
X38600714Y-63280390D01*
X38600714Y-63280390D02*
X38638809Y-63318485D01*
X38638809Y-63318485D02*
X38676905Y-63394676D01*
X38676905Y-63394676D02*
X38676905Y-63508961D01*
X38676905Y-63508961D02*
X38638809Y-63585152D01*
X38638809Y-63585152D02*
X38600714Y-63623247D01*
X38600714Y-63623247D02*
X38524524Y-63661342D01*
X38524524Y-63661342D02*
X38219762Y-63661342D01*
X38981666Y-64004200D02*
X39095952Y-64042295D01*
X39095952Y-64042295D02*
X39286428Y-64042295D01*
X39286428Y-64042295D02*
X39362619Y-64004200D01*
X39362619Y-64004200D02*
X39400714Y-63966104D01*
X39400714Y-63966104D02*
X39438809Y-63889914D01*
X39438809Y-63889914D02*
X39438809Y-63813723D01*
X39438809Y-63813723D02*
X39400714Y-63737533D01*
X39400714Y-63737533D02*
X39362619Y-63699438D01*
X39362619Y-63699438D02*
X39286428Y-63661342D01*
X39286428Y-63661342D02*
X39134047Y-63623247D01*
X39134047Y-63623247D02*
X39057857Y-63585152D01*
X39057857Y-63585152D02*
X39019762Y-63547057D01*
X39019762Y-63547057D02*
X38981666Y-63470866D01*
X38981666Y-63470866D02*
X38981666Y-63394676D01*
X38981666Y-63394676D02*
X39019762Y-63318485D01*
X39019762Y-63318485D02*
X39057857Y-63280390D01*
X39057857Y-63280390D02*
X39134047Y-63242295D01*
X39134047Y-63242295D02*
X39324524Y-63242295D01*
X39324524Y-63242295D02*
X39438809Y-63280390D01*
X39667381Y-63242295D02*
X40124524Y-63242295D01*
X39895952Y-64042295D02*
X39895952Y-63242295D01*
X28814476Y-29210390D02*
X28738286Y-29172295D01*
X28738286Y-29172295D02*
X28624000Y-29172295D01*
X28624000Y-29172295D02*
X28509714Y-29210390D01*
X28509714Y-29210390D02*
X28433524Y-29286580D01*
X28433524Y-29286580D02*
X28395429Y-29362771D01*
X28395429Y-29362771D02*
X28357333Y-29515152D01*
X28357333Y-29515152D02*
X28357333Y-29629438D01*
X28357333Y-29629438D02*
X28395429Y-29781819D01*
X28395429Y-29781819D02*
X28433524Y-29858009D01*
X28433524Y-29858009D02*
X28509714Y-29934200D01*
X28509714Y-29934200D02*
X28624000Y-29972295D01*
X28624000Y-29972295D02*
X28700191Y-29972295D01*
X28700191Y-29972295D02*
X28814476Y-29934200D01*
X28814476Y-29934200D02*
X28852572Y-29896104D01*
X28852572Y-29896104D02*
X28852572Y-29629438D01*
X28852572Y-29629438D02*
X28700191Y-29629438D01*
X29195429Y-29972295D02*
X29195429Y-29172295D01*
X29195429Y-29172295D02*
X29652572Y-29972295D01*
X29652572Y-29972295D02*
X29652572Y-29172295D01*
X30033524Y-29972295D02*
X30033524Y-29172295D01*
X30033524Y-29172295D02*
X30224000Y-29172295D01*
X30224000Y-29172295D02*
X30338286Y-29210390D01*
X30338286Y-29210390D02*
X30414476Y-29286580D01*
X30414476Y-29286580D02*
X30452571Y-29362771D01*
X30452571Y-29362771D02*
X30490667Y-29515152D01*
X30490667Y-29515152D02*
X30490667Y-29629438D01*
X30490667Y-29629438D02*
X30452571Y-29781819D01*
X30452571Y-29781819D02*
X30414476Y-29858009D01*
X30414476Y-29858009D02*
X30338286Y-29934200D01*
X30338286Y-29934200D02*
X30224000Y-29972295D01*
X30224000Y-29972295D02*
X30033524Y-29972295D01*
X39279333Y-31712295D02*
X39546000Y-32512295D01*
X39546000Y-32512295D02*
X39812666Y-31712295D01*
X40536476Y-32436104D02*
X40498380Y-32474200D01*
X40498380Y-32474200D02*
X40384095Y-32512295D01*
X40384095Y-32512295D02*
X40307904Y-32512295D01*
X40307904Y-32512295D02*
X40193618Y-32474200D01*
X40193618Y-32474200D02*
X40117428Y-32398009D01*
X40117428Y-32398009D02*
X40079333Y-32321819D01*
X40079333Y-32321819D02*
X40041237Y-32169438D01*
X40041237Y-32169438D02*
X40041237Y-32055152D01*
X40041237Y-32055152D02*
X40079333Y-31902771D01*
X40079333Y-31902771D02*
X40117428Y-31826580D01*
X40117428Y-31826580D02*
X40193618Y-31750390D01*
X40193618Y-31750390D02*
X40307904Y-31712295D01*
X40307904Y-31712295D02*
X40384095Y-31712295D01*
X40384095Y-31712295D02*
X40498380Y-31750390D01*
X40498380Y-31750390D02*
X40536476Y-31788485D01*
X41336476Y-32436104D02*
X41298380Y-32474200D01*
X41298380Y-32474200D02*
X41184095Y-32512295D01*
X41184095Y-32512295D02*
X41107904Y-32512295D01*
X41107904Y-32512295D02*
X40993618Y-32474200D01*
X40993618Y-32474200D02*
X40917428Y-32398009D01*
X40917428Y-32398009D02*
X40879333Y-32321819D01*
X40879333Y-32321819D02*
X40841237Y-32169438D01*
X40841237Y-32169438D02*
X40841237Y-32055152D01*
X40841237Y-32055152D02*
X40879333Y-31902771D01*
X40879333Y-31902771D02*
X40917428Y-31826580D01*
X40917428Y-31826580D02*
X40993618Y-31750390D01*
X40993618Y-31750390D02*
X41107904Y-31712295D01*
X41107904Y-31712295D02*
X41184095Y-31712295D01*
X41184095Y-31712295D02*
X41298380Y-31750390D01*
X41298380Y-31750390D02*
X41336476Y-31788485D01*
X39736476Y-26670390D02*
X39660286Y-26632295D01*
X39660286Y-26632295D02*
X39546000Y-26632295D01*
X39546000Y-26632295D02*
X39431714Y-26670390D01*
X39431714Y-26670390D02*
X39355524Y-26746580D01*
X39355524Y-26746580D02*
X39317429Y-26822771D01*
X39317429Y-26822771D02*
X39279333Y-26975152D01*
X39279333Y-26975152D02*
X39279333Y-27089438D01*
X39279333Y-27089438D02*
X39317429Y-27241819D01*
X39317429Y-27241819D02*
X39355524Y-27318009D01*
X39355524Y-27318009D02*
X39431714Y-27394200D01*
X39431714Y-27394200D02*
X39546000Y-27432295D01*
X39546000Y-27432295D02*
X39622191Y-27432295D01*
X39622191Y-27432295D02*
X39736476Y-27394200D01*
X39736476Y-27394200D02*
X39774572Y-27356104D01*
X39774572Y-27356104D02*
X39774572Y-27089438D01*
X39774572Y-27089438D02*
X39622191Y-27089438D01*
X40117429Y-27432295D02*
X40117429Y-26632295D01*
X40117429Y-26632295D02*
X40574572Y-27432295D01*
X40574572Y-27432295D02*
X40574572Y-26632295D01*
X40955524Y-27432295D02*
X40955524Y-26632295D01*
X40955524Y-26632295D02*
X41146000Y-26632295D01*
X41146000Y-26632295D02*
X41260286Y-26670390D01*
X41260286Y-26670390D02*
X41336476Y-26746580D01*
X41336476Y-26746580D02*
X41374571Y-26822771D01*
X41374571Y-26822771D02*
X41412667Y-26975152D01*
X41412667Y-26975152D02*
X41412667Y-27089438D01*
X41412667Y-27089438D02*
X41374571Y-27241819D01*
X41374571Y-27241819D02*
X41336476Y-27318009D01*
X41336476Y-27318009D02*
X41260286Y-27394200D01*
X41260286Y-27394200D02*
X41146000Y-27432295D01*
X41146000Y-27432295D02*
X40955524Y-27432295D01*
X39780905Y-29942295D02*
X39514238Y-29561342D01*
X39323762Y-29942295D02*
X39323762Y-29142295D01*
X39323762Y-29142295D02*
X39628524Y-29142295D01*
X39628524Y-29142295D02*
X39704714Y-29180390D01*
X39704714Y-29180390D02*
X39742809Y-29218485D01*
X39742809Y-29218485D02*
X39780905Y-29294676D01*
X39780905Y-29294676D02*
X39780905Y-29408961D01*
X39780905Y-29408961D02*
X39742809Y-29485152D01*
X39742809Y-29485152D02*
X39704714Y-29523247D01*
X39704714Y-29523247D02*
X39628524Y-29561342D01*
X39628524Y-29561342D02*
X39323762Y-29561342D01*
X40085666Y-29904200D02*
X40199952Y-29942295D01*
X40199952Y-29942295D02*
X40390428Y-29942295D01*
X40390428Y-29942295D02*
X40466619Y-29904200D01*
X40466619Y-29904200D02*
X40504714Y-29866104D01*
X40504714Y-29866104D02*
X40542809Y-29789914D01*
X40542809Y-29789914D02*
X40542809Y-29713723D01*
X40542809Y-29713723D02*
X40504714Y-29637533D01*
X40504714Y-29637533D02*
X40466619Y-29599438D01*
X40466619Y-29599438D02*
X40390428Y-29561342D01*
X40390428Y-29561342D02*
X40238047Y-29523247D01*
X40238047Y-29523247D02*
X40161857Y-29485152D01*
X40161857Y-29485152D02*
X40123762Y-29447057D01*
X40123762Y-29447057D02*
X40085666Y-29370866D01*
X40085666Y-29370866D02*
X40085666Y-29294676D01*
X40085666Y-29294676D02*
X40123762Y-29218485D01*
X40123762Y-29218485D02*
X40161857Y-29180390D01*
X40161857Y-29180390D02*
X40238047Y-29142295D01*
X40238047Y-29142295D02*
X40428524Y-29142295D01*
X40428524Y-29142295D02*
X40542809Y-29180390D01*
X40771381Y-29142295D02*
X41228524Y-29142295D01*
X40999952Y-29942295D02*
X40999952Y-29142295D01*
X28814476Y-31750390D02*
X28738286Y-31712295D01*
X28738286Y-31712295D02*
X28624000Y-31712295D01*
X28624000Y-31712295D02*
X28509714Y-31750390D01*
X28509714Y-31750390D02*
X28433524Y-31826580D01*
X28433524Y-31826580D02*
X28395429Y-31902771D01*
X28395429Y-31902771D02*
X28357333Y-32055152D01*
X28357333Y-32055152D02*
X28357333Y-32169438D01*
X28357333Y-32169438D02*
X28395429Y-32321819D01*
X28395429Y-32321819D02*
X28433524Y-32398009D01*
X28433524Y-32398009D02*
X28509714Y-32474200D01*
X28509714Y-32474200D02*
X28624000Y-32512295D01*
X28624000Y-32512295D02*
X28700191Y-32512295D01*
X28700191Y-32512295D02*
X28814476Y-32474200D01*
X28814476Y-32474200D02*
X28852572Y-32436104D01*
X28852572Y-32436104D02*
X28852572Y-32169438D01*
X28852572Y-32169438D02*
X28700191Y-32169438D01*
X29195429Y-32512295D02*
X29195429Y-31712295D01*
X29195429Y-31712295D02*
X29652572Y-32512295D01*
X29652572Y-32512295D02*
X29652572Y-31712295D01*
X30033524Y-32512295D02*
X30033524Y-31712295D01*
X30033524Y-31712295D02*
X30224000Y-31712295D01*
X30224000Y-31712295D02*
X30338286Y-31750390D01*
X30338286Y-31750390D02*
X30414476Y-31826580D01*
X30414476Y-31826580D02*
X30452571Y-31902771D01*
X30452571Y-31902771D02*
X30490667Y-32055152D01*
X30490667Y-32055152D02*
X30490667Y-32169438D01*
X30490667Y-32169438D02*
X30452571Y-32321819D01*
X30452571Y-32321819D02*
X30414476Y-32398009D01*
X30414476Y-32398009D02*
X30338286Y-32474200D01*
X30338286Y-32474200D02*
X30224000Y-32512295D01*
X30224000Y-32512295D02*
X30033524Y-32512295D01*
X20634277Y-49020462D02*
X20822839Y-48831900D01*
X21199963Y-49047399D02*
X20930589Y-49316773D01*
X20930589Y-49316773D02*
X20364903Y-48751088D01*
X20364903Y-48751088D02*
X20634277Y-48481714D01*
X21119151Y-47996840D02*
X21011401Y-48104590D01*
X21011401Y-48104590D02*
X20984464Y-48185402D01*
X20984464Y-48185402D02*
X20984464Y-48239277D01*
X20984464Y-48239277D02*
X21011401Y-48373964D01*
X21011401Y-48373964D02*
X21092213Y-48508651D01*
X21092213Y-48508651D02*
X21307713Y-48724150D01*
X21307713Y-48724150D02*
X21388525Y-48751087D01*
X21388525Y-48751087D02*
X21442400Y-48751087D01*
X21442400Y-48751087D02*
X21523212Y-48724150D01*
X21523212Y-48724150D02*
X21630961Y-48616400D01*
X21630961Y-48616400D02*
X21657899Y-48535588D01*
X21657899Y-48535588D02*
X21657899Y-48481713D01*
X21657899Y-48481713D02*
X21630961Y-48400901D01*
X21630961Y-48400901D02*
X21496274Y-48266214D01*
X21496274Y-48266214D02*
X21415462Y-48239277D01*
X21415462Y-48239277D02*
X21361587Y-48239277D01*
X21361587Y-48239277D02*
X21280775Y-48266214D01*
X21280775Y-48266214D02*
X21173026Y-48373964D01*
X21173026Y-48373964D02*
X21146088Y-48454776D01*
X21146088Y-48454776D02*
X21146088Y-48508651D01*
X21146088Y-48508651D02*
X21173026Y-48589463D01*
X20795902Y-53928837D02*
X20903651Y-53874962D01*
X20903651Y-53874962D02*
X20957526Y-53874962D01*
X20957526Y-53874962D02*
X21038338Y-53901900D01*
X21038338Y-53901900D02*
X21119151Y-53982712D01*
X21119151Y-53982712D02*
X21146088Y-54063524D01*
X21146088Y-54063524D02*
X21146088Y-54117399D01*
X21146088Y-54117399D02*
X21119151Y-54198211D01*
X21119151Y-54198211D02*
X20903651Y-54413710D01*
X20903651Y-54413710D02*
X20337966Y-53848025D01*
X20337966Y-53848025D02*
X20526528Y-53659463D01*
X20526528Y-53659463D02*
X20607340Y-53632526D01*
X20607340Y-53632526D02*
X20661215Y-53632526D01*
X20661215Y-53632526D02*
X20742027Y-53659463D01*
X20742027Y-53659463D02*
X20795902Y-53713338D01*
X20795902Y-53713338D02*
X20822839Y-53794150D01*
X20822839Y-53794150D02*
X20822839Y-53848025D01*
X20822839Y-53848025D02*
X20795902Y-53928837D01*
X20795902Y-53928837D02*
X20607340Y-54117399D01*
X21173025Y-53012966D02*
X20903651Y-53282340D01*
X20903651Y-53282340D02*
X21146088Y-53578651D01*
X21146088Y-53578651D02*
X21146088Y-53524776D01*
X21146088Y-53524776D02*
X21173025Y-53443964D01*
X21173025Y-53443964D02*
X21307712Y-53309277D01*
X21307712Y-53309277D02*
X21388525Y-53282340D01*
X21388525Y-53282340D02*
X21442399Y-53282340D01*
X21442399Y-53282340D02*
X21523212Y-53309277D01*
X21523212Y-53309277D02*
X21657899Y-53443964D01*
X21657899Y-53443964D02*
X21684836Y-53524776D01*
X21684836Y-53524776D02*
X21684836Y-53578651D01*
X21684836Y-53578651D02*
X21657899Y-53659463D01*
X21657899Y-53659463D02*
X21523212Y-53794150D01*
X21523212Y-53794150D02*
X21442399Y-53821088D01*
X21442399Y-53821088D02*
X21388525Y-53821088D01*
X20903651Y-41713710D02*
X20337966Y-41148025D01*
X20337966Y-41148025D02*
X20472653Y-41013338D01*
X20472653Y-41013338D02*
X20580403Y-40959463D01*
X20580403Y-40959463D02*
X20688152Y-40959463D01*
X20688152Y-40959463D02*
X20768964Y-40986401D01*
X20768964Y-40986401D02*
X20903651Y-41067213D01*
X20903651Y-41067213D02*
X20984464Y-41148025D01*
X20984464Y-41148025D02*
X21065276Y-41282712D01*
X21065276Y-41282712D02*
X21092213Y-41363524D01*
X21092213Y-41363524D02*
X21092213Y-41471274D01*
X21092213Y-41471274D02*
X21038338Y-41579023D01*
X21038338Y-41579023D02*
X20903651Y-41713710D01*
X21334650Y-40528465D02*
X21711774Y-40905588D01*
X20984464Y-40447653D02*
X21253838Y-40986401D01*
X21253838Y-40986401D02*
X21604024Y-40636214D01*
X23483651Y-34073710D02*
X22917966Y-33508025D01*
X22917966Y-33508025D02*
X23052653Y-33373338D01*
X23052653Y-33373338D02*
X23160403Y-33319463D01*
X23160403Y-33319463D02*
X23268152Y-33319463D01*
X23268152Y-33319463D02*
X23348964Y-33346401D01*
X23348964Y-33346401D02*
X23483651Y-33427213D01*
X23483651Y-33427213D02*
X23564464Y-33508025D01*
X23564464Y-33508025D02*
X23645276Y-33642712D01*
X23645276Y-33642712D02*
X23672213Y-33723524D01*
X23672213Y-33723524D02*
X23672213Y-33831274D01*
X23672213Y-33831274D02*
X23618338Y-33939023D01*
X23618338Y-33939023D02*
X23483651Y-34073710D01*
X23429777Y-32996214D02*
X23779963Y-32646028D01*
X23779963Y-32646028D02*
X23806900Y-33050089D01*
X23806900Y-33050089D02*
X23887712Y-32969277D01*
X23887712Y-32969277D02*
X23968525Y-32942340D01*
X23968525Y-32942340D02*
X24022399Y-32942340D01*
X24022399Y-32942340D02*
X24103212Y-32969277D01*
X24103212Y-32969277D02*
X24237899Y-33103964D01*
X24237899Y-33103964D02*
X24264836Y-33184776D01*
X24264836Y-33184776D02*
X24264836Y-33238651D01*
X24264836Y-33238651D02*
X24237899Y-33319463D01*
X24237899Y-33319463D02*
X24076274Y-33481088D01*
X24076274Y-33481088D02*
X23995462Y-33508025D01*
X23995462Y-33508025D02*
X23941587Y-33508025D01*
X20903651Y-46783710D02*
X20337966Y-46218025D01*
X20337966Y-46218025D02*
X20472653Y-46083338D01*
X20472653Y-46083338D02*
X20580403Y-46029463D01*
X20580403Y-46029463D02*
X20688152Y-46029463D01*
X20688152Y-46029463D02*
X20768964Y-46056401D01*
X20768964Y-46056401D02*
X20903651Y-46137213D01*
X20903651Y-46137213D02*
X20984464Y-46218025D01*
X20984464Y-46218025D02*
X21065276Y-46352712D01*
X21065276Y-46352712D02*
X21092213Y-46433524D01*
X21092213Y-46433524D02*
X21092213Y-46541274D01*
X21092213Y-46541274D02*
X21038338Y-46649023D01*
X21038338Y-46649023D02*
X20903651Y-46783710D01*
X20849777Y-45706214D02*
X21226900Y-45329091D01*
X21226900Y-45329091D02*
X21550149Y-46137213D01*
X23375902Y-46298837D02*
X23483651Y-46244962D01*
X23483651Y-46244962D02*
X23537526Y-46244962D01*
X23537526Y-46244962D02*
X23618338Y-46271900D01*
X23618338Y-46271900D02*
X23699151Y-46352712D01*
X23699151Y-46352712D02*
X23726088Y-46433524D01*
X23726088Y-46433524D02*
X23726088Y-46487399D01*
X23726088Y-46487399D02*
X23699151Y-46568211D01*
X23699151Y-46568211D02*
X23483651Y-46783710D01*
X23483651Y-46783710D02*
X22917966Y-46218025D01*
X22917966Y-46218025D02*
X23106528Y-46029463D01*
X23106528Y-46029463D02*
X23187340Y-46002526D01*
X23187340Y-46002526D02*
X23241215Y-46002526D01*
X23241215Y-46002526D02*
X23322027Y-46029463D01*
X23322027Y-46029463D02*
X23375902Y-46083338D01*
X23375902Y-46083338D02*
X23402839Y-46164150D01*
X23402839Y-46164150D02*
X23402839Y-46218025D01*
X23402839Y-46218025D02*
X23375902Y-46298837D01*
X23375902Y-46298837D02*
X23187340Y-46487399D01*
X24345648Y-45921714D02*
X24022399Y-46244962D01*
X24184024Y-46083338D02*
X23618338Y-45517653D01*
X23618338Y-45517653D02*
X23645276Y-45652340D01*
X23645276Y-45652340D02*
X23645276Y-45760089D01*
X23645276Y-45760089D02*
X23618338Y-45840901D01*
X21173025Y-43866587D02*
X21173025Y-43920462D01*
X21173025Y-43920462D02*
X21119151Y-44028211D01*
X21119151Y-44028211D02*
X21065276Y-44082086D01*
X21065276Y-44082086D02*
X20957526Y-44135961D01*
X20957526Y-44135961D02*
X20849777Y-44135961D01*
X20849777Y-44135961D02*
X20768964Y-44109023D01*
X20768964Y-44109023D02*
X20634277Y-44028211D01*
X20634277Y-44028211D02*
X20553465Y-43947399D01*
X20553465Y-43947399D02*
X20472653Y-43812712D01*
X20472653Y-43812712D02*
X20445716Y-43731900D01*
X20445716Y-43731900D02*
X20445716Y-43624150D01*
X20445716Y-43624150D02*
X20499590Y-43516401D01*
X20499590Y-43516401D02*
X20553465Y-43462526D01*
X20553465Y-43462526D02*
X20661215Y-43408651D01*
X20661215Y-43408651D02*
X20715090Y-43408651D01*
X21146088Y-42869903D02*
X21038338Y-42977653D01*
X21038338Y-42977653D02*
X21011401Y-43058465D01*
X21011401Y-43058465D02*
X21011401Y-43112340D01*
X21011401Y-43112340D02*
X21038338Y-43247027D01*
X21038338Y-43247027D02*
X21119151Y-43381714D01*
X21119151Y-43381714D02*
X21334650Y-43597213D01*
X21334650Y-43597213D02*
X21415462Y-43624150D01*
X21415462Y-43624150D02*
X21469337Y-43624150D01*
X21469337Y-43624150D02*
X21550149Y-43597213D01*
X21550149Y-43597213D02*
X21657899Y-43489463D01*
X21657899Y-43489463D02*
X21684836Y-43408651D01*
X21684836Y-43408651D02*
X21684836Y-43354776D01*
X21684836Y-43354776D02*
X21657899Y-43273964D01*
X21657899Y-43273964D02*
X21523212Y-43139277D01*
X21523212Y-43139277D02*
X21442399Y-43112340D01*
X21442399Y-43112340D02*
X21388525Y-43112340D01*
X21388525Y-43112340D02*
X21307712Y-43139277D01*
X21307712Y-43139277D02*
X21199963Y-43247027D01*
X21199963Y-43247027D02*
X21173025Y-43327839D01*
X21173025Y-43327839D02*
X21173025Y-43381714D01*
X21173025Y-43381714D02*
X21199963Y-43462526D01*
X23416308Y-38648431D02*
X23227746Y-38836993D01*
X23524058Y-39133304D02*
X22958372Y-38567619D01*
X22958372Y-38567619D02*
X23227746Y-38298245D01*
X23712619Y-37813372D02*
X23443245Y-38082746D01*
X23443245Y-38082746D02*
X23685682Y-38379057D01*
X23685682Y-38379057D02*
X23685682Y-38325182D01*
X23685682Y-38325182D02*
X23712619Y-38244370D01*
X23712619Y-38244370D02*
X23847306Y-38109683D01*
X23847306Y-38109683D02*
X23928118Y-38082746D01*
X23928118Y-38082746D02*
X23981993Y-38082746D01*
X23981993Y-38082746D02*
X24062805Y-38109683D01*
X24062805Y-38109683D02*
X24197493Y-38244370D01*
X24197493Y-38244370D02*
X24224430Y-38325182D01*
X24224430Y-38325182D02*
X24224430Y-38379057D01*
X24224430Y-38379057D02*
X24197493Y-38459869D01*
X24197493Y-38459869D02*
X24062805Y-38594556D01*
X24062805Y-38594556D02*
X23981993Y-38621494D01*
X23981993Y-38621494D02*
X23928118Y-38621494D01*
X23375902Y-48858837D02*
X23483651Y-48804962D01*
X23483651Y-48804962D02*
X23537526Y-48804962D01*
X23537526Y-48804962D02*
X23618338Y-48831900D01*
X23618338Y-48831900D02*
X23699151Y-48912712D01*
X23699151Y-48912712D02*
X23726088Y-48993524D01*
X23726088Y-48993524D02*
X23726088Y-49047399D01*
X23726088Y-49047399D02*
X23699151Y-49128211D01*
X23699151Y-49128211D02*
X23483651Y-49343710D01*
X23483651Y-49343710D02*
X22917966Y-48778025D01*
X22917966Y-48778025D02*
X23106528Y-48589463D01*
X23106528Y-48589463D02*
X23187340Y-48562526D01*
X23187340Y-48562526D02*
X23241215Y-48562526D01*
X23241215Y-48562526D02*
X23322027Y-48589463D01*
X23322027Y-48589463D02*
X23375902Y-48643338D01*
X23375902Y-48643338D02*
X23402839Y-48724150D01*
X23402839Y-48724150D02*
X23402839Y-48778025D01*
X23402839Y-48778025D02*
X23375902Y-48858837D01*
X23375902Y-48858837D02*
X23187340Y-49047399D01*
X23429777Y-48266214D02*
X23779963Y-47916028D01*
X23779963Y-47916028D02*
X23806900Y-48320089D01*
X23806900Y-48320089D02*
X23887712Y-48239277D01*
X23887712Y-48239277D02*
X23968525Y-48212340D01*
X23968525Y-48212340D02*
X24022399Y-48212340D01*
X24022399Y-48212340D02*
X24103212Y-48239277D01*
X24103212Y-48239277D02*
X24237899Y-48373964D01*
X24237899Y-48373964D02*
X24264836Y-48454776D01*
X24264836Y-48454776D02*
X24264836Y-48508651D01*
X24264836Y-48508651D02*
X24237899Y-48589463D01*
X24237899Y-48589463D02*
X24076274Y-48751088D01*
X24076274Y-48751088D02*
X23995462Y-48778025D01*
X23995462Y-48778025D02*
X23941587Y-48778025D01*
X20903651Y-34073710D02*
X20337966Y-33508025D01*
X20337966Y-33508025D02*
X20472653Y-33373338D01*
X20472653Y-33373338D02*
X20580403Y-33319463D01*
X20580403Y-33319463D02*
X20688152Y-33319463D01*
X20688152Y-33319463D02*
X20768964Y-33346401D01*
X20768964Y-33346401D02*
X20903651Y-33427213D01*
X20903651Y-33427213D02*
X20984464Y-33508025D01*
X20984464Y-33508025D02*
X21065276Y-33642712D01*
X21065276Y-33642712D02*
X21092213Y-33723524D01*
X21092213Y-33723524D02*
X21092213Y-33831274D01*
X21092213Y-33831274D02*
X21038338Y-33939023D01*
X21038338Y-33939023D02*
X20903651Y-34073710D01*
X20930589Y-33023152D02*
X20930589Y-32969277D01*
X20930589Y-32969277D02*
X20957526Y-32888465D01*
X20957526Y-32888465D02*
X21092213Y-32753778D01*
X21092213Y-32753778D02*
X21173025Y-32726840D01*
X21173025Y-32726840D02*
X21226900Y-32726840D01*
X21226900Y-32726840D02*
X21307712Y-32753778D01*
X21307712Y-32753778D02*
X21361587Y-32807653D01*
X21361587Y-32807653D02*
X21415462Y-32915402D01*
X21415462Y-32915402D02*
X21415462Y-33561900D01*
X21415462Y-33561900D02*
X21765648Y-33211714D01*
X20903651Y-36633710D02*
X20337966Y-36068025D01*
X20337966Y-36068025D02*
X20472653Y-35933338D01*
X20472653Y-35933338D02*
X20580403Y-35879463D01*
X20580403Y-35879463D02*
X20688152Y-35879463D01*
X20688152Y-35879463D02*
X20768964Y-35906401D01*
X20768964Y-35906401D02*
X20903651Y-35987213D01*
X20903651Y-35987213D02*
X20984464Y-36068025D01*
X20984464Y-36068025D02*
X21065276Y-36202712D01*
X21065276Y-36202712D02*
X21092213Y-36283524D01*
X21092213Y-36283524D02*
X21092213Y-36391274D01*
X21092213Y-36391274D02*
X21038338Y-36499023D01*
X21038338Y-36499023D02*
X20903651Y-36633710D01*
X21765648Y-35771714D02*
X21442399Y-36094962D01*
X21604024Y-35933338D02*
X21038338Y-35367653D01*
X21038338Y-35367653D02*
X21065276Y-35502340D01*
X21065276Y-35502340D02*
X21065276Y-35610089D01*
X21065276Y-35610089D02*
X21038338Y-35690901D01*
X23416308Y-43718431D02*
X23227746Y-43906993D01*
X23524058Y-44203304D02*
X22958372Y-43637619D01*
X22958372Y-43637619D02*
X23227746Y-43368245D01*
X23389370Y-43206621D02*
X23766494Y-42829497D01*
X23766494Y-42829497D02*
X24089743Y-43637619D01*
X23416308Y-41188431D02*
X23227746Y-41376993D01*
X23524058Y-41673304D02*
X22958372Y-41107619D01*
X22958372Y-41107619D02*
X23227746Y-40838245D01*
X23685682Y-40380309D02*
X23577932Y-40488059D01*
X23577932Y-40488059D02*
X23550995Y-40568871D01*
X23550995Y-40568871D02*
X23550995Y-40622746D01*
X23550995Y-40622746D02*
X23577932Y-40757433D01*
X23577932Y-40757433D02*
X23658744Y-40892120D01*
X23658744Y-40892120D02*
X23874244Y-41107619D01*
X23874244Y-41107619D02*
X23955056Y-41134556D01*
X23955056Y-41134556D02*
X24008931Y-41134556D01*
X24008931Y-41134556D02*
X24089743Y-41107619D01*
X24089743Y-41107619D02*
X24197493Y-40999869D01*
X24197493Y-40999869D02*
X24224430Y-40919057D01*
X24224430Y-40919057D02*
X24224430Y-40865182D01*
X24224430Y-40865182D02*
X24197493Y-40784370D01*
X24197493Y-40784370D02*
X24062805Y-40649683D01*
X24062805Y-40649683D02*
X23981993Y-40622746D01*
X23981993Y-40622746D02*
X23928118Y-40622746D01*
X23928118Y-40622746D02*
X23847306Y-40649683D01*
X23847306Y-40649683D02*
X23739557Y-40757433D01*
X23739557Y-40757433D02*
X23712619Y-40838245D01*
X23712619Y-40838245D02*
X23712619Y-40892120D01*
X23712619Y-40892120D02*
X23739557Y-40972932D01*
X20795902Y-51388837D02*
X20903651Y-51334962D01*
X20903651Y-51334962D02*
X20957526Y-51334962D01*
X20957526Y-51334962D02*
X21038338Y-51361900D01*
X21038338Y-51361900D02*
X21119151Y-51442712D01*
X21119151Y-51442712D02*
X21146088Y-51523524D01*
X21146088Y-51523524D02*
X21146088Y-51577399D01*
X21146088Y-51577399D02*
X21119151Y-51658211D01*
X21119151Y-51658211D02*
X20903651Y-51873710D01*
X20903651Y-51873710D02*
X20337966Y-51308025D01*
X20337966Y-51308025D02*
X20526528Y-51119463D01*
X20526528Y-51119463D02*
X20607340Y-51092526D01*
X20607340Y-51092526D02*
X20661215Y-51092526D01*
X20661215Y-51092526D02*
X20742027Y-51119463D01*
X20742027Y-51119463D02*
X20795902Y-51173338D01*
X20795902Y-51173338D02*
X20822839Y-51254150D01*
X20822839Y-51254150D02*
X20822839Y-51308025D01*
X20822839Y-51308025D02*
X20795902Y-51388837D01*
X20795902Y-51388837D02*
X20607340Y-51577399D01*
X21334650Y-50688465D02*
X21711774Y-51065588D01*
X20984464Y-50607653D02*
X21253838Y-51146401D01*
X21253838Y-51146401D02*
X21604024Y-50796214D01*
X23375902Y-51388837D02*
X23483651Y-51334962D01*
X23483651Y-51334962D02*
X23537526Y-51334962D01*
X23537526Y-51334962D02*
X23618338Y-51361900D01*
X23618338Y-51361900D02*
X23699151Y-51442712D01*
X23699151Y-51442712D02*
X23726088Y-51523524D01*
X23726088Y-51523524D02*
X23726088Y-51577399D01*
X23726088Y-51577399D02*
X23699151Y-51658211D01*
X23699151Y-51658211D02*
X23483651Y-51873710D01*
X23483651Y-51873710D02*
X22917966Y-51308025D01*
X22917966Y-51308025D02*
X23106528Y-51119463D01*
X23106528Y-51119463D02*
X23187340Y-51092526D01*
X23187340Y-51092526D02*
X23241215Y-51092526D01*
X23241215Y-51092526D02*
X23322027Y-51119463D01*
X23322027Y-51119463D02*
X23375902Y-51173338D01*
X23375902Y-51173338D02*
X23402839Y-51254150D01*
X23402839Y-51254150D02*
X23402839Y-51308025D01*
X23402839Y-51308025D02*
X23375902Y-51388837D01*
X23375902Y-51388837D02*
X23187340Y-51577399D01*
X23510589Y-50823152D02*
X23510589Y-50769277D01*
X23510589Y-50769277D02*
X23537526Y-50688465D01*
X23537526Y-50688465D02*
X23672213Y-50553778D01*
X23672213Y-50553778D02*
X23753025Y-50526840D01*
X23753025Y-50526840D02*
X23806900Y-50526840D01*
X23806900Y-50526840D02*
X23887712Y-50553778D01*
X23887712Y-50553778D02*
X23941587Y-50607653D01*
X23941587Y-50607653D02*
X23995462Y-50715402D01*
X23995462Y-50715402D02*
X23995462Y-51361900D01*
X23995462Y-51361900D02*
X24345648Y-51011714D01*
X23416308Y-36108431D02*
X23227746Y-36296993D01*
X23524058Y-36593304D02*
X22958372Y-36027619D01*
X22958372Y-36027619D02*
X23227746Y-35758245D01*
X23874244Y-35488871D02*
X24251367Y-35865995D01*
X23524057Y-35408059D02*
X23793431Y-35946807D01*
X23793431Y-35946807D02*
X24143618Y-35596621D01*
X23375902Y-53928837D02*
X23483651Y-53874962D01*
X23483651Y-53874962D02*
X23537526Y-53874962D01*
X23537526Y-53874962D02*
X23618338Y-53901900D01*
X23618338Y-53901900D02*
X23699151Y-53982712D01*
X23699151Y-53982712D02*
X23726088Y-54063524D01*
X23726088Y-54063524D02*
X23726088Y-54117399D01*
X23726088Y-54117399D02*
X23699151Y-54198211D01*
X23699151Y-54198211D02*
X23483651Y-54413710D01*
X23483651Y-54413710D02*
X22917966Y-53848025D01*
X22917966Y-53848025D02*
X23106528Y-53659463D01*
X23106528Y-53659463D02*
X23187340Y-53632526D01*
X23187340Y-53632526D02*
X23241215Y-53632526D01*
X23241215Y-53632526D02*
X23322027Y-53659463D01*
X23322027Y-53659463D02*
X23375902Y-53713338D01*
X23375902Y-53713338D02*
X23402839Y-53794150D01*
X23402839Y-53794150D02*
X23402839Y-53848025D01*
X23402839Y-53848025D02*
X23375902Y-53928837D01*
X23375902Y-53928837D02*
X23187340Y-54117399D01*
X23726088Y-53039903D02*
X23618338Y-53147653D01*
X23618338Y-53147653D02*
X23591401Y-53228465D01*
X23591401Y-53228465D02*
X23591401Y-53282340D01*
X23591401Y-53282340D02*
X23618338Y-53417027D01*
X23618338Y-53417027D02*
X23699151Y-53551714D01*
X23699151Y-53551714D02*
X23914650Y-53767213D01*
X23914650Y-53767213D02*
X23995462Y-53794150D01*
X23995462Y-53794150D02*
X24049337Y-53794150D01*
X24049337Y-53794150D02*
X24130149Y-53767213D01*
X24130149Y-53767213D02*
X24237899Y-53659463D01*
X24237899Y-53659463D02*
X24264836Y-53578651D01*
X24264836Y-53578651D02*
X24264836Y-53524776D01*
X24264836Y-53524776D02*
X24237899Y-53443964D01*
X24237899Y-53443964D02*
X24103212Y-53309277D01*
X24103212Y-53309277D02*
X24022399Y-53282340D01*
X24022399Y-53282340D02*
X23968525Y-53282340D01*
X23968525Y-53282340D02*
X23887712Y-53309277D01*
X23887712Y-53309277D02*
X23779963Y-53417027D01*
X23779963Y-53417027D02*
X23753025Y-53497839D01*
X23753025Y-53497839D02*
X23753025Y-53551714D01*
X23753025Y-53551714D02*
X23779963Y-53632526D01*
X20903651Y-39173710D02*
X20337966Y-38608025D01*
X20337966Y-38608025D02*
X20472653Y-38473338D01*
X20472653Y-38473338D02*
X20580403Y-38419463D01*
X20580403Y-38419463D02*
X20688152Y-38419463D01*
X20688152Y-38419463D02*
X20768964Y-38446401D01*
X20768964Y-38446401D02*
X20903651Y-38527213D01*
X20903651Y-38527213D02*
X20984464Y-38608025D01*
X20984464Y-38608025D02*
X21065276Y-38742712D01*
X21065276Y-38742712D02*
X21092213Y-38823524D01*
X21092213Y-38823524D02*
X21092213Y-38931274D01*
X21092213Y-38931274D02*
X21038338Y-39039023D01*
X21038338Y-39039023D02*
X20903651Y-39173710D01*
X21011401Y-37934590D02*
X21065276Y-37880715D01*
X21065276Y-37880715D02*
X21146088Y-37853778D01*
X21146088Y-37853778D02*
X21199963Y-37853778D01*
X21199963Y-37853778D02*
X21280775Y-37880715D01*
X21280775Y-37880715D02*
X21415462Y-37961527D01*
X21415462Y-37961527D02*
X21550149Y-38096214D01*
X21550149Y-38096214D02*
X21630961Y-38230901D01*
X21630961Y-38230901D02*
X21657899Y-38311714D01*
X21657899Y-38311714D02*
X21657899Y-38365588D01*
X21657899Y-38365588D02*
X21630961Y-38446401D01*
X21630961Y-38446401D02*
X21577087Y-38500275D01*
X21577087Y-38500275D02*
X21496274Y-38527213D01*
X21496274Y-38527213D02*
X21442399Y-38527213D01*
X21442399Y-38527213D02*
X21361587Y-38500275D01*
X21361587Y-38500275D02*
X21226900Y-38419463D01*
X21226900Y-38419463D02*
X21092213Y-38284776D01*
X21092213Y-38284776D02*
X21011401Y-38150089D01*
X21011401Y-38150089D02*
X20984464Y-38069277D01*
X20984464Y-38069277D02*
X20984464Y-38015402D01*
X20984464Y-38015402D02*
X21011401Y-37934590D01*
X45865902Y-56538837D02*
X45973651Y-56484962D01*
X45973651Y-56484962D02*
X46027526Y-56484962D01*
X46027526Y-56484962D02*
X46108338Y-56511900D01*
X46108338Y-56511900D02*
X46189151Y-56592712D01*
X46189151Y-56592712D02*
X46216088Y-56673524D01*
X46216088Y-56673524D02*
X46216088Y-56727399D01*
X46216088Y-56727399D02*
X46189151Y-56808211D01*
X46189151Y-56808211D02*
X45973651Y-57023710D01*
X45973651Y-57023710D02*
X45407966Y-56458025D01*
X45407966Y-56458025D02*
X45596528Y-56269463D01*
X45596528Y-56269463D02*
X45677340Y-56242526D01*
X45677340Y-56242526D02*
X45731215Y-56242526D01*
X45731215Y-56242526D02*
X45812027Y-56269463D01*
X45812027Y-56269463D02*
X45865902Y-56323338D01*
X45865902Y-56323338D02*
X45892839Y-56404150D01*
X45892839Y-56404150D02*
X45892839Y-56458025D01*
X45892839Y-56458025D02*
X45865902Y-56538837D01*
X45865902Y-56538837D02*
X45677340Y-56727399D01*
X46216088Y-55649903D02*
X46108338Y-55757653D01*
X46108338Y-55757653D02*
X46081401Y-55838465D01*
X46081401Y-55838465D02*
X46081401Y-55892340D01*
X46081401Y-55892340D02*
X46108338Y-56027027D01*
X46108338Y-56027027D02*
X46189151Y-56161714D01*
X46189151Y-56161714D02*
X46404650Y-56377213D01*
X46404650Y-56377213D02*
X46485462Y-56404150D01*
X46485462Y-56404150D02*
X46539337Y-56404150D01*
X46539337Y-56404150D02*
X46620149Y-56377213D01*
X46620149Y-56377213D02*
X46727899Y-56269463D01*
X46727899Y-56269463D02*
X46754836Y-56188651D01*
X46754836Y-56188651D02*
X46754836Y-56134776D01*
X46754836Y-56134776D02*
X46727899Y-56053964D01*
X46727899Y-56053964D02*
X46593212Y-55919277D01*
X46593212Y-55919277D02*
X46512399Y-55892340D01*
X46512399Y-55892340D02*
X46458525Y-55892340D01*
X46458525Y-55892340D02*
X46377712Y-55919277D01*
X46377712Y-55919277D02*
X46269963Y-56027027D01*
X46269963Y-56027027D02*
X46243025Y-56107839D01*
X46243025Y-56107839D02*
X46243025Y-56161714D01*
X46243025Y-56161714D02*
X46269963Y-56242526D01*
X48425902Y-53928837D02*
X48533651Y-53874962D01*
X48533651Y-53874962D02*
X48587526Y-53874962D01*
X48587526Y-53874962D02*
X48668338Y-53901900D01*
X48668338Y-53901900D02*
X48749151Y-53982712D01*
X48749151Y-53982712D02*
X48776088Y-54063524D01*
X48776088Y-54063524D02*
X48776088Y-54117399D01*
X48776088Y-54117399D02*
X48749151Y-54198211D01*
X48749151Y-54198211D02*
X48533651Y-54413710D01*
X48533651Y-54413710D02*
X47967966Y-53848025D01*
X47967966Y-53848025D02*
X48156528Y-53659463D01*
X48156528Y-53659463D02*
X48237340Y-53632526D01*
X48237340Y-53632526D02*
X48291215Y-53632526D01*
X48291215Y-53632526D02*
X48372027Y-53659463D01*
X48372027Y-53659463D02*
X48425902Y-53713338D01*
X48425902Y-53713338D02*
X48452839Y-53794150D01*
X48452839Y-53794150D02*
X48452839Y-53848025D01*
X48452839Y-53848025D02*
X48425902Y-53928837D01*
X48425902Y-53928837D02*
X48237340Y-54117399D01*
X48964650Y-53228465D02*
X49341774Y-53605588D01*
X48614464Y-53147653D02*
X48883838Y-53686401D01*
X48883838Y-53686401D02*
X49234024Y-53336214D01*
X48533651Y-49343710D02*
X47967966Y-48778025D01*
X47967966Y-48778025D02*
X48102653Y-48643338D01*
X48102653Y-48643338D02*
X48210403Y-48589463D01*
X48210403Y-48589463D02*
X48318152Y-48589463D01*
X48318152Y-48589463D02*
X48398964Y-48616401D01*
X48398964Y-48616401D02*
X48533651Y-48697213D01*
X48533651Y-48697213D02*
X48614464Y-48778025D01*
X48614464Y-48778025D02*
X48695276Y-48912712D01*
X48695276Y-48912712D02*
X48722213Y-48993524D01*
X48722213Y-48993524D02*
X48722213Y-49101274D01*
X48722213Y-49101274D02*
X48668338Y-49209023D01*
X48668338Y-49209023D02*
X48533651Y-49343710D01*
X48479777Y-48266214D02*
X48856900Y-47889091D01*
X48856900Y-47889091D02*
X49180149Y-48697213D01*
X45906308Y-41188431D02*
X45717746Y-41376993D01*
X46014058Y-41673304D02*
X45448372Y-41107619D01*
X45448372Y-41107619D02*
X45717746Y-40838245D01*
X46202619Y-40353372D02*
X45933245Y-40622746D01*
X45933245Y-40622746D02*
X46175682Y-40919057D01*
X46175682Y-40919057D02*
X46175682Y-40865182D01*
X46175682Y-40865182D02*
X46202619Y-40784370D01*
X46202619Y-40784370D02*
X46337306Y-40649683D01*
X46337306Y-40649683D02*
X46418118Y-40622746D01*
X46418118Y-40622746D02*
X46471993Y-40622746D01*
X46471993Y-40622746D02*
X46552805Y-40649683D01*
X46552805Y-40649683D02*
X46687493Y-40784370D01*
X46687493Y-40784370D02*
X46714430Y-40865182D01*
X46714430Y-40865182D02*
X46714430Y-40919057D01*
X46714430Y-40919057D02*
X46687493Y-40999869D01*
X46687493Y-40999869D02*
X46552805Y-41134556D01*
X46552805Y-41134556D02*
X46471993Y-41161494D01*
X46471993Y-41161494D02*
X46418118Y-41161494D01*
X45865902Y-48858837D02*
X45973651Y-48804962D01*
X45973651Y-48804962D02*
X46027526Y-48804962D01*
X46027526Y-48804962D02*
X46108338Y-48831900D01*
X46108338Y-48831900D02*
X46189151Y-48912712D01*
X46189151Y-48912712D02*
X46216088Y-48993524D01*
X46216088Y-48993524D02*
X46216088Y-49047399D01*
X46216088Y-49047399D02*
X46189151Y-49128211D01*
X46189151Y-49128211D02*
X45973651Y-49343710D01*
X45973651Y-49343710D02*
X45407966Y-48778025D01*
X45407966Y-48778025D02*
X45596528Y-48589463D01*
X45596528Y-48589463D02*
X45677340Y-48562526D01*
X45677340Y-48562526D02*
X45731215Y-48562526D01*
X45731215Y-48562526D02*
X45812027Y-48589463D01*
X45812027Y-48589463D02*
X45865902Y-48643338D01*
X45865902Y-48643338D02*
X45892839Y-48724150D01*
X45892839Y-48724150D02*
X45892839Y-48778025D01*
X45892839Y-48778025D02*
X45865902Y-48858837D01*
X45865902Y-48858837D02*
X45677340Y-49047399D01*
X46835648Y-48481714D02*
X46512399Y-48804962D01*
X46674024Y-48643338D02*
X46108338Y-48077653D01*
X46108338Y-48077653D02*
X46135276Y-48212340D01*
X46135276Y-48212340D02*
X46135276Y-48320089D01*
X46135276Y-48320089D02*
X46108338Y-48400901D01*
X48803025Y-46406587D02*
X48803025Y-46460462D01*
X48803025Y-46460462D02*
X48749151Y-46568211D01*
X48749151Y-46568211D02*
X48695276Y-46622086D01*
X48695276Y-46622086D02*
X48587526Y-46675961D01*
X48587526Y-46675961D02*
X48479777Y-46675961D01*
X48479777Y-46675961D02*
X48398964Y-46649023D01*
X48398964Y-46649023D02*
X48264277Y-46568211D01*
X48264277Y-46568211D02*
X48183465Y-46487399D01*
X48183465Y-46487399D02*
X48102653Y-46352712D01*
X48102653Y-46352712D02*
X48075716Y-46271900D01*
X48075716Y-46271900D02*
X48075716Y-46164150D01*
X48075716Y-46164150D02*
X48129590Y-46056401D01*
X48129590Y-46056401D02*
X48183465Y-46002526D01*
X48183465Y-46002526D02*
X48291215Y-45948651D01*
X48291215Y-45948651D02*
X48345090Y-45948651D01*
X48776088Y-45409903D02*
X48668338Y-45517653D01*
X48668338Y-45517653D02*
X48641401Y-45598465D01*
X48641401Y-45598465D02*
X48641401Y-45652340D01*
X48641401Y-45652340D02*
X48668338Y-45787027D01*
X48668338Y-45787027D02*
X48749151Y-45921714D01*
X48749151Y-45921714D02*
X48964650Y-46137213D01*
X48964650Y-46137213D02*
X49045462Y-46164150D01*
X49045462Y-46164150D02*
X49099337Y-46164150D01*
X49099337Y-46164150D02*
X49180149Y-46137213D01*
X49180149Y-46137213D02*
X49287899Y-46029463D01*
X49287899Y-46029463D02*
X49314836Y-45948651D01*
X49314836Y-45948651D02*
X49314836Y-45894776D01*
X49314836Y-45894776D02*
X49287899Y-45813964D01*
X49287899Y-45813964D02*
X49153212Y-45679277D01*
X49153212Y-45679277D02*
X49072399Y-45652340D01*
X49072399Y-45652340D02*
X49018525Y-45652340D01*
X49018525Y-45652340D02*
X48937712Y-45679277D01*
X48937712Y-45679277D02*
X48829963Y-45787027D01*
X48829963Y-45787027D02*
X48803025Y-45867839D01*
X48803025Y-45867839D02*
X48803025Y-45921714D01*
X48803025Y-45921714D02*
X48829963Y-46002526D01*
X45973651Y-36633710D02*
X45407966Y-36068025D01*
X45407966Y-36068025D02*
X45542653Y-35933338D01*
X45542653Y-35933338D02*
X45650403Y-35879463D01*
X45650403Y-35879463D02*
X45758152Y-35879463D01*
X45758152Y-35879463D02*
X45838964Y-35906401D01*
X45838964Y-35906401D02*
X45973651Y-35987213D01*
X45973651Y-35987213D02*
X46054464Y-36068025D01*
X46054464Y-36068025D02*
X46135276Y-36202712D01*
X46135276Y-36202712D02*
X46162213Y-36283524D01*
X46162213Y-36283524D02*
X46162213Y-36391274D01*
X46162213Y-36391274D02*
X46108338Y-36499023D01*
X46108338Y-36499023D02*
X45973651Y-36633710D01*
X45919777Y-35556214D02*
X46269963Y-35206028D01*
X46269963Y-35206028D02*
X46296900Y-35610089D01*
X46296900Y-35610089D02*
X46377712Y-35529277D01*
X46377712Y-35529277D02*
X46458525Y-35502340D01*
X46458525Y-35502340D02*
X46512399Y-35502340D01*
X46512399Y-35502340D02*
X46593212Y-35529277D01*
X46593212Y-35529277D02*
X46727899Y-35663964D01*
X46727899Y-35663964D02*
X46754836Y-35744776D01*
X46754836Y-35744776D02*
X46754836Y-35798651D01*
X46754836Y-35798651D02*
X46727899Y-35879463D01*
X46727899Y-35879463D02*
X46566274Y-36041088D01*
X46566274Y-36041088D02*
X46485462Y-36068025D01*
X46485462Y-36068025D02*
X46431587Y-36068025D01*
X48425902Y-56538837D02*
X48533651Y-56484962D01*
X48533651Y-56484962D02*
X48587526Y-56484962D01*
X48587526Y-56484962D02*
X48668338Y-56511900D01*
X48668338Y-56511900D02*
X48749151Y-56592712D01*
X48749151Y-56592712D02*
X48776088Y-56673524D01*
X48776088Y-56673524D02*
X48776088Y-56727399D01*
X48776088Y-56727399D02*
X48749151Y-56808211D01*
X48749151Y-56808211D02*
X48533651Y-57023710D01*
X48533651Y-57023710D02*
X47967966Y-56458025D01*
X47967966Y-56458025D02*
X48156528Y-56269463D01*
X48156528Y-56269463D02*
X48237340Y-56242526D01*
X48237340Y-56242526D02*
X48291215Y-56242526D01*
X48291215Y-56242526D02*
X48372027Y-56269463D01*
X48372027Y-56269463D02*
X48425902Y-56323338D01*
X48425902Y-56323338D02*
X48452839Y-56404150D01*
X48452839Y-56404150D02*
X48452839Y-56458025D01*
X48452839Y-56458025D02*
X48425902Y-56538837D01*
X48425902Y-56538837D02*
X48237340Y-56727399D01*
X48803025Y-55622966D02*
X48533651Y-55892340D01*
X48533651Y-55892340D02*
X48776088Y-56188651D01*
X48776088Y-56188651D02*
X48776088Y-56134776D01*
X48776088Y-56134776D02*
X48803025Y-56053964D01*
X48803025Y-56053964D02*
X48937712Y-55919277D01*
X48937712Y-55919277D02*
X49018525Y-55892340D01*
X49018525Y-55892340D02*
X49072399Y-55892340D01*
X49072399Y-55892340D02*
X49153212Y-55919277D01*
X49153212Y-55919277D02*
X49287899Y-56053964D01*
X49287899Y-56053964D02*
X49314836Y-56134776D01*
X49314836Y-56134776D02*
X49314836Y-56188651D01*
X49314836Y-56188651D02*
X49287899Y-56269463D01*
X49287899Y-56269463D02*
X49153212Y-56404150D01*
X49153212Y-56404150D02*
X49072399Y-56431088D01*
X49072399Y-56431088D02*
X49018525Y-56431088D01*
X48533651Y-41713710D02*
X47967966Y-41148025D01*
X47967966Y-41148025D02*
X48102653Y-41013338D01*
X48102653Y-41013338D02*
X48210403Y-40959463D01*
X48210403Y-40959463D02*
X48318152Y-40959463D01*
X48318152Y-40959463D02*
X48398964Y-40986401D01*
X48398964Y-40986401D02*
X48533651Y-41067213D01*
X48533651Y-41067213D02*
X48614464Y-41148025D01*
X48614464Y-41148025D02*
X48695276Y-41282712D01*
X48695276Y-41282712D02*
X48722213Y-41363524D01*
X48722213Y-41363524D02*
X48722213Y-41471274D01*
X48722213Y-41471274D02*
X48668338Y-41579023D01*
X48668338Y-41579023D02*
X48533651Y-41713710D01*
X48641401Y-40474590D02*
X48695276Y-40420715D01*
X48695276Y-40420715D02*
X48776088Y-40393778D01*
X48776088Y-40393778D02*
X48829963Y-40393778D01*
X48829963Y-40393778D02*
X48910775Y-40420715D01*
X48910775Y-40420715D02*
X49045462Y-40501527D01*
X49045462Y-40501527D02*
X49180149Y-40636214D01*
X49180149Y-40636214D02*
X49260961Y-40770901D01*
X49260961Y-40770901D02*
X49287899Y-40851714D01*
X49287899Y-40851714D02*
X49287899Y-40905588D01*
X49287899Y-40905588D02*
X49260961Y-40986401D01*
X49260961Y-40986401D02*
X49207087Y-41040275D01*
X49207087Y-41040275D02*
X49126274Y-41067213D01*
X49126274Y-41067213D02*
X49072399Y-41067213D01*
X49072399Y-41067213D02*
X48991587Y-41040275D01*
X48991587Y-41040275D02*
X48856900Y-40959463D01*
X48856900Y-40959463D02*
X48722213Y-40824776D01*
X48722213Y-40824776D02*
X48641401Y-40690089D01*
X48641401Y-40690089D02*
X48614464Y-40609277D01*
X48614464Y-40609277D02*
X48614464Y-40555402D01*
X48614464Y-40555402D02*
X48641401Y-40474590D01*
X45906308Y-38648431D02*
X45717746Y-38836993D01*
X46014058Y-39133304D02*
X45448372Y-38567619D01*
X45448372Y-38567619D02*
X45717746Y-38298245D01*
X46364244Y-38028871D02*
X46741367Y-38405995D01*
X46014057Y-37948059D02*
X46283431Y-38486807D01*
X46283431Y-38486807D02*
X46633618Y-38136621D01*
X45865902Y-53928837D02*
X45973651Y-53874962D01*
X45973651Y-53874962D02*
X46027526Y-53874962D01*
X46027526Y-53874962D02*
X46108338Y-53901900D01*
X46108338Y-53901900D02*
X46189151Y-53982712D01*
X46189151Y-53982712D02*
X46216088Y-54063524D01*
X46216088Y-54063524D02*
X46216088Y-54117399D01*
X46216088Y-54117399D02*
X46189151Y-54198211D01*
X46189151Y-54198211D02*
X45973651Y-54413710D01*
X45973651Y-54413710D02*
X45407966Y-53848025D01*
X45407966Y-53848025D02*
X45596528Y-53659463D01*
X45596528Y-53659463D02*
X45677340Y-53632526D01*
X45677340Y-53632526D02*
X45731215Y-53632526D01*
X45731215Y-53632526D02*
X45812027Y-53659463D01*
X45812027Y-53659463D02*
X45865902Y-53713338D01*
X45865902Y-53713338D02*
X45892839Y-53794150D01*
X45892839Y-53794150D02*
X45892839Y-53848025D01*
X45892839Y-53848025D02*
X45865902Y-53928837D01*
X45865902Y-53928837D02*
X45677340Y-54117399D01*
X46000589Y-53363152D02*
X46000589Y-53309277D01*
X46000589Y-53309277D02*
X46027526Y-53228465D01*
X46027526Y-53228465D02*
X46162213Y-53093778D01*
X46162213Y-53093778D02*
X46243025Y-53066840D01*
X46243025Y-53066840D02*
X46296900Y-53066840D01*
X46296900Y-53066840D02*
X46377712Y-53093778D01*
X46377712Y-53093778D02*
X46431587Y-53147653D01*
X46431587Y-53147653D02*
X46485462Y-53255402D01*
X46485462Y-53255402D02*
X46485462Y-53901900D01*
X46485462Y-53901900D02*
X46835648Y-53551714D01*
X48533651Y-39173710D02*
X47967966Y-38608025D01*
X47967966Y-38608025D02*
X48102653Y-38473338D01*
X48102653Y-38473338D02*
X48210403Y-38419463D01*
X48210403Y-38419463D02*
X48318152Y-38419463D01*
X48318152Y-38419463D02*
X48398964Y-38446401D01*
X48398964Y-38446401D02*
X48533651Y-38527213D01*
X48533651Y-38527213D02*
X48614464Y-38608025D01*
X48614464Y-38608025D02*
X48695276Y-38742712D01*
X48695276Y-38742712D02*
X48722213Y-38823524D01*
X48722213Y-38823524D02*
X48722213Y-38931274D01*
X48722213Y-38931274D02*
X48668338Y-39039023D01*
X48668338Y-39039023D02*
X48533651Y-39173710D01*
X49395648Y-38311714D02*
X49072399Y-38634962D01*
X49234024Y-38473338D02*
X48668338Y-37907653D01*
X48668338Y-37907653D02*
X48695276Y-38042340D01*
X48695276Y-38042340D02*
X48695276Y-38150089D01*
X48695276Y-38150089D02*
X48668338Y-38230901D01*
X45906308Y-43718431D02*
X45717746Y-43906993D01*
X46014058Y-44203304D02*
X45448372Y-43637619D01*
X45448372Y-43637619D02*
X45717746Y-43368245D01*
X46175682Y-42910309D02*
X46067932Y-43018059D01*
X46067932Y-43018059D02*
X46040995Y-43098871D01*
X46040995Y-43098871D02*
X46040995Y-43152746D01*
X46040995Y-43152746D02*
X46067932Y-43287433D01*
X46067932Y-43287433D02*
X46148744Y-43422120D01*
X46148744Y-43422120D02*
X46364244Y-43637619D01*
X46364244Y-43637619D02*
X46445056Y-43664556D01*
X46445056Y-43664556D02*
X46498931Y-43664556D01*
X46498931Y-43664556D02*
X46579743Y-43637619D01*
X46579743Y-43637619D02*
X46687493Y-43529869D01*
X46687493Y-43529869D02*
X46714430Y-43449057D01*
X46714430Y-43449057D02*
X46714430Y-43395182D01*
X46714430Y-43395182D02*
X46687493Y-43314370D01*
X46687493Y-43314370D02*
X46552805Y-43179683D01*
X46552805Y-43179683D02*
X46471993Y-43152746D01*
X46471993Y-43152746D02*
X46418118Y-43152746D01*
X46418118Y-43152746D02*
X46337306Y-43179683D01*
X46337306Y-43179683D02*
X46229557Y-43287433D01*
X46229557Y-43287433D02*
X46202619Y-43368245D01*
X46202619Y-43368245D02*
X46202619Y-43422120D01*
X46202619Y-43422120D02*
X46229557Y-43502932D01*
X45865902Y-51388837D02*
X45973651Y-51334962D01*
X45973651Y-51334962D02*
X46027526Y-51334962D01*
X46027526Y-51334962D02*
X46108338Y-51361900D01*
X46108338Y-51361900D02*
X46189151Y-51442712D01*
X46189151Y-51442712D02*
X46216088Y-51523524D01*
X46216088Y-51523524D02*
X46216088Y-51577399D01*
X46216088Y-51577399D02*
X46189151Y-51658211D01*
X46189151Y-51658211D02*
X45973651Y-51873710D01*
X45973651Y-51873710D02*
X45407966Y-51308025D01*
X45407966Y-51308025D02*
X45596528Y-51119463D01*
X45596528Y-51119463D02*
X45677340Y-51092526D01*
X45677340Y-51092526D02*
X45731215Y-51092526D01*
X45731215Y-51092526D02*
X45812027Y-51119463D01*
X45812027Y-51119463D02*
X45865902Y-51173338D01*
X45865902Y-51173338D02*
X45892839Y-51254150D01*
X45892839Y-51254150D02*
X45892839Y-51308025D01*
X45892839Y-51308025D02*
X45865902Y-51388837D01*
X45865902Y-51388837D02*
X45677340Y-51577399D01*
X45919777Y-50796214D02*
X46269963Y-50446028D01*
X46269963Y-50446028D02*
X46296900Y-50850089D01*
X46296900Y-50850089D02*
X46377712Y-50769277D01*
X46377712Y-50769277D02*
X46458525Y-50742340D01*
X46458525Y-50742340D02*
X46512399Y-50742340D01*
X46512399Y-50742340D02*
X46593212Y-50769277D01*
X46593212Y-50769277D02*
X46727899Y-50903964D01*
X46727899Y-50903964D02*
X46754836Y-50984776D01*
X46754836Y-50984776D02*
X46754836Y-51038651D01*
X46754836Y-51038651D02*
X46727899Y-51119463D01*
X46727899Y-51119463D02*
X46566274Y-51281088D01*
X46566274Y-51281088D02*
X46485462Y-51308025D01*
X46485462Y-51308025D02*
X46431587Y-51308025D01*
X45906308Y-46258431D02*
X45717746Y-46446993D01*
X46014058Y-46743304D02*
X45448372Y-46177619D01*
X45448372Y-46177619D02*
X45717746Y-45908245D01*
X45879370Y-45746621D02*
X46256494Y-45369497D01*
X46256494Y-45369497D02*
X46579743Y-46177619D01*
X48533651Y-36633710D02*
X47967966Y-36068025D01*
X47967966Y-36068025D02*
X48102653Y-35933338D01*
X48102653Y-35933338D02*
X48210403Y-35879463D01*
X48210403Y-35879463D02*
X48318152Y-35879463D01*
X48318152Y-35879463D02*
X48398964Y-35906401D01*
X48398964Y-35906401D02*
X48533651Y-35987213D01*
X48533651Y-35987213D02*
X48614464Y-36068025D01*
X48614464Y-36068025D02*
X48695276Y-36202712D01*
X48695276Y-36202712D02*
X48722213Y-36283524D01*
X48722213Y-36283524D02*
X48722213Y-36391274D01*
X48722213Y-36391274D02*
X48668338Y-36499023D01*
X48668338Y-36499023D02*
X48533651Y-36633710D01*
X48560589Y-35583152D02*
X48560589Y-35529277D01*
X48560589Y-35529277D02*
X48587526Y-35448465D01*
X48587526Y-35448465D02*
X48722213Y-35313778D01*
X48722213Y-35313778D02*
X48803025Y-35286840D01*
X48803025Y-35286840D02*
X48856900Y-35286840D01*
X48856900Y-35286840D02*
X48937712Y-35313778D01*
X48937712Y-35313778D02*
X48991587Y-35367653D01*
X48991587Y-35367653D02*
X49045462Y-35475402D01*
X49045462Y-35475402D02*
X49045462Y-36121900D01*
X49045462Y-36121900D02*
X49395648Y-35771714D01*
X48264277Y-51550462D02*
X48452839Y-51361900D01*
X48829963Y-51577399D02*
X48560589Y-51846773D01*
X48560589Y-51846773D02*
X47994903Y-51281088D01*
X47994903Y-51281088D02*
X48264277Y-51011714D01*
X48749151Y-50526840D02*
X48641401Y-50634590D01*
X48641401Y-50634590D02*
X48614464Y-50715402D01*
X48614464Y-50715402D02*
X48614464Y-50769277D01*
X48614464Y-50769277D02*
X48641401Y-50903964D01*
X48641401Y-50903964D02*
X48722213Y-51038651D01*
X48722213Y-51038651D02*
X48937713Y-51254150D01*
X48937713Y-51254150D02*
X49018525Y-51281087D01*
X49018525Y-51281087D02*
X49072400Y-51281087D01*
X49072400Y-51281087D02*
X49153212Y-51254150D01*
X49153212Y-51254150D02*
X49260961Y-51146400D01*
X49260961Y-51146400D02*
X49287899Y-51065588D01*
X49287899Y-51065588D02*
X49287899Y-51011713D01*
X49287899Y-51011713D02*
X49260961Y-50930901D01*
X49260961Y-50930901D02*
X49126274Y-50796214D01*
X49126274Y-50796214D02*
X49045462Y-50769277D01*
X49045462Y-50769277D02*
X48991587Y-50769277D01*
X48991587Y-50769277D02*
X48910775Y-50796214D01*
X48910775Y-50796214D02*
X48803026Y-50903964D01*
X48803026Y-50903964D02*
X48776088Y-50984776D01*
X48776088Y-50984776D02*
X48776088Y-51038651D01*
X48776088Y-51038651D02*
X48803026Y-51119463D01*
X48533651Y-44243710D02*
X47967966Y-43678025D01*
X47967966Y-43678025D02*
X48102653Y-43543338D01*
X48102653Y-43543338D02*
X48210403Y-43489463D01*
X48210403Y-43489463D02*
X48318152Y-43489463D01*
X48318152Y-43489463D02*
X48398964Y-43516401D01*
X48398964Y-43516401D02*
X48533651Y-43597213D01*
X48533651Y-43597213D02*
X48614464Y-43678025D01*
X48614464Y-43678025D02*
X48695276Y-43812712D01*
X48695276Y-43812712D02*
X48722213Y-43893524D01*
X48722213Y-43893524D02*
X48722213Y-44001274D01*
X48722213Y-44001274D02*
X48668338Y-44109023D01*
X48668338Y-44109023D02*
X48533651Y-44243710D01*
X48964650Y-43058465D02*
X49341774Y-43435588D01*
X48614464Y-42977653D02*
X48883838Y-43516401D01*
X48883838Y-43516401D02*
X49234024Y-43166214D01*
X46868333Y-30720795D02*
X47135000Y-31520795D01*
X47135000Y-31520795D02*
X47401666Y-30720795D01*
X48125476Y-31444604D02*
X48087380Y-31482700D01*
X48087380Y-31482700D02*
X47973095Y-31520795D01*
X47973095Y-31520795D02*
X47896904Y-31520795D01*
X47896904Y-31520795D02*
X47782618Y-31482700D01*
X47782618Y-31482700D02*
X47706428Y-31406509D01*
X47706428Y-31406509D02*
X47668333Y-31330319D01*
X47668333Y-31330319D02*
X47630237Y-31177938D01*
X47630237Y-31177938D02*
X47630237Y-31063652D01*
X47630237Y-31063652D02*
X47668333Y-30911271D01*
X47668333Y-30911271D02*
X47706428Y-30835080D01*
X47706428Y-30835080D02*
X47782618Y-30758890D01*
X47782618Y-30758890D02*
X47896904Y-30720795D01*
X47896904Y-30720795D02*
X47973095Y-30720795D01*
X47973095Y-30720795D02*
X48087380Y-30758890D01*
X48087380Y-30758890D02*
X48125476Y-30796985D01*
X48925476Y-31444604D02*
X48887380Y-31482700D01*
X48887380Y-31482700D02*
X48773095Y-31520795D01*
X48773095Y-31520795D02*
X48696904Y-31520795D01*
X48696904Y-31520795D02*
X48582618Y-31482700D01*
X48582618Y-31482700D02*
X48506428Y-31406509D01*
X48506428Y-31406509D02*
X48468333Y-31330319D01*
X48468333Y-31330319D02*
X48430237Y-31177938D01*
X48430237Y-31177938D02*
X48430237Y-31063652D01*
X48430237Y-31063652D02*
X48468333Y-30911271D01*
X48468333Y-30911271D02*
X48506428Y-30835080D01*
X48506428Y-30835080D02*
X48582618Y-30758890D01*
X48582618Y-30758890D02*
X48696904Y-30720795D01*
X48696904Y-30720795D02*
X48773095Y-30720795D01*
X48773095Y-30720795D02*
X48887380Y-30758890D01*
X48887380Y-30758890D02*
X48925476Y-30796985D01*
X47344524Y-25012295D02*
X47344524Y-24212295D01*
X47344524Y-24212295D02*
X47535000Y-24212295D01*
X47535000Y-24212295D02*
X47649286Y-24250390D01*
X47649286Y-24250390D02*
X47725476Y-24326580D01*
X47725476Y-24326580D02*
X47763571Y-24402771D01*
X47763571Y-24402771D02*
X47801667Y-24555152D01*
X47801667Y-24555152D02*
X47801667Y-24669438D01*
X47801667Y-24669438D02*
X47763571Y-24821819D01*
X47763571Y-24821819D02*
X47725476Y-24898009D01*
X47725476Y-24898009D02*
X47649286Y-24974200D01*
X47649286Y-24974200D02*
X47535000Y-25012295D01*
X47535000Y-25012295D02*
X47344524Y-25012295D01*
X48106428Y-24288485D02*
X48144524Y-24250390D01*
X48144524Y-24250390D02*
X48220714Y-24212295D01*
X48220714Y-24212295D02*
X48411190Y-24212295D01*
X48411190Y-24212295D02*
X48487381Y-24250390D01*
X48487381Y-24250390D02*
X48525476Y-24288485D01*
X48525476Y-24288485D02*
X48563571Y-24364676D01*
X48563571Y-24364676D02*
X48563571Y-24440866D01*
X48563571Y-24440866D02*
X48525476Y-24555152D01*
X48525476Y-24555152D02*
X48068333Y-25012295D01*
X48068333Y-25012295D02*
X48563571Y-25012295D01*
X47325476Y-26163890D02*
X47249286Y-26125795D01*
X47249286Y-26125795D02*
X47135000Y-26125795D01*
X47135000Y-26125795D02*
X47020714Y-26163890D01*
X47020714Y-26163890D02*
X46944524Y-26240080D01*
X46944524Y-26240080D02*
X46906429Y-26316271D01*
X46906429Y-26316271D02*
X46868333Y-26468652D01*
X46868333Y-26468652D02*
X46868333Y-26582938D01*
X46868333Y-26582938D02*
X46906429Y-26735319D01*
X46906429Y-26735319D02*
X46944524Y-26811509D01*
X46944524Y-26811509D02*
X47020714Y-26887700D01*
X47020714Y-26887700D02*
X47135000Y-26925795D01*
X47135000Y-26925795D02*
X47211191Y-26925795D01*
X47211191Y-26925795D02*
X47325476Y-26887700D01*
X47325476Y-26887700D02*
X47363572Y-26849604D01*
X47363572Y-26849604D02*
X47363572Y-26582938D01*
X47363572Y-26582938D02*
X47211191Y-26582938D01*
X47706429Y-26925795D02*
X47706429Y-26125795D01*
X47706429Y-26125795D02*
X48163572Y-26925795D01*
X48163572Y-26925795D02*
X48163572Y-26125795D01*
X48544524Y-26925795D02*
X48544524Y-26125795D01*
X48544524Y-26125795D02*
X48735000Y-26125795D01*
X48735000Y-26125795D02*
X48849286Y-26163890D01*
X48849286Y-26163890D02*
X48925476Y-26240080D01*
X48925476Y-26240080D02*
X48963571Y-26316271D01*
X48963571Y-26316271D02*
X49001667Y-26468652D01*
X49001667Y-26468652D02*
X49001667Y-26582938D01*
X49001667Y-26582938D02*
X48963571Y-26735319D01*
X48963571Y-26735319D02*
X48925476Y-26811509D01*
X48925476Y-26811509D02*
X48849286Y-26887700D01*
X48849286Y-26887700D02*
X48735000Y-26925795D01*
X48735000Y-26925795D02*
X48544524Y-26925795D01*
X33633025Y-57316587D02*
X33633025Y-57370462D01*
X33633025Y-57370462D02*
X33579151Y-57478211D01*
X33579151Y-57478211D02*
X33525276Y-57532086D01*
X33525276Y-57532086D02*
X33417526Y-57585961D01*
X33417526Y-57585961D02*
X33309777Y-57585961D01*
X33309777Y-57585961D02*
X33228964Y-57559023D01*
X33228964Y-57559023D02*
X33094277Y-57478211D01*
X33094277Y-57478211D02*
X33013465Y-57397399D01*
X33013465Y-57397399D02*
X32932653Y-57262712D01*
X32932653Y-57262712D02*
X32905716Y-57181900D01*
X32905716Y-57181900D02*
X32905716Y-57074150D01*
X32905716Y-57074150D02*
X32959590Y-56966401D01*
X32959590Y-56966401D02*
X33013465Y-56912526D01*
X33013465Y-56912526D02*
X33121215Y-56858651D01*
X33121215Y-56858651D02*
X33175090Y-56858651D01*
X33309777Y-56616214D02*
X33686900Y-56239091D01*
X33686900Y-56239091D02*
X34010149Y-57047213D01*
X28275902Y-57208837D02*
X28383651Y-57154962D01*
X28383651Y-57154962D02*
X28437526Y-57154962D01*
X28437526Y-57154962D02*
X28518338Y-57181900D01*
X28518338Y-57181900D02*
X28599151Y-57262712D01*
X28599151Y-57262712D02*
X28626088Y-57343524D01*
X28626088Y-57343524D02*
X28626088Y-57397399D01*
X28626088Y-57397399D02*
X28599151Y-57478211D01*
X28599151Y-57478211D02*
X28383651Y-57693710D01*
X28383651Y-57693710D02*
X27817966Y-57128025D01*
X27817966Y-57128025D02*
X28006528Y-56939463D01*
X28006528Y-56939463D02*
X28087340Y-56912526D01*
X28087340Y-56912526D02*
X28141215Y-56912526D01*
X28141215Y-56912526D02*
X28222027Y-56939463D01*
X28222027Y-56939463D02*
X28275902Y-56993338D01*
X28275902Y-56993338D02*
X28302839Y-57074150D01*
X28302839Y-57074150D02*
X28302839Y-57128025D01*
X28302839Y-57128025D02*
X28275902Y-57208837D01*
X28275902Y-57208837D02*
X28087340Y-57397399D01*
X28329777Y-56616214D02*
X28706900Y-56239091D01*
X28706900Y-56239091D02*
X29030149Y-57047213D01*
X25215390Y-56429523D02*
X25177295Y-56505713D01*
X25177295Y-56505713D02*
X25177295Y-56619999D01*
X25177295Y-56619999D02*
X25215390Y-56734285D01*
X25215390Y-56734285D02*
X25291580Y-56810475D01*
X25291580Y-56810475D02*
X25367771Y-56848570D01*
X25367771Y-56848570D02*
X25520152Y-56886666D01*
X25520152Y-56886666D02*
X25634438Y-56886666D01*
X25634438Y-56886666D02*
X25786819Y-56848570D01*
X25786819Y-56848570D02*
X25863009Y-56810475D01*
X25863009Y-56810475D02*
X25939200Y-56734285D01*
X25939200Y-56734285D02*
X25977295Y-56619999D01*
X25977295Y-56619999D02*
X25977295Y-56543808D01*
X25977295Y-56543808D02*
X25939200Y-56429523D01*
X25939200Y-56429523D02*
X25901104Y-56391427D01*
X25901104Y-56391427D02*
X25634438Y-56391427D01*
X25634438Y-56391427D02*
X25634438Y-56543808D01*
X25977295Y-56048570D02*
X25177295Y-56048570D01*
X25177295Y-56048570D02*
X25977295Y-55591427D01*
X25977295Y-55591427D02*
X25177295Y-55591427D01*
X25977295Y-55210475D02*
X25177295Y-55210475D01*
X25177295Y-55210475D02*
X25177295Y-55019999D01*
X25177295Y-55019999D02*
X25215390Y-54905713D01*
X25215390Y-54905713D02*
X25291580Y-54829523D01*
X25291580Y-54829523D02*
X25367771Y-54791428D01*
X25367771Y-54791428D02*
X25520152Y-54753332D01*
X25520152Y-54753332D02*
X25634438Y-54753332D01*
X25634438Y-54753332D02*
X25786819Y-54791428D01*
X25786819Y-54791428D02*
X25863009Y-54829523D01*
X25863009Y-54829523D02*
X25939200Y-54905713D01*
X25939200Y-54905713D02*
X25977295Y-55019999D01*
X25977295Y-55019999D02*
X25977295Y-55210475D01*
X38386308Y-57168431D02*
X38197746Y-57356993D01*
X38494058Y-57653304D02*
X37928372Y-57087619D01*
X37928372Y-57087619D02*
X38197746Y-56818245D01*
X38520995Y-56494996D02*
X38574870Y-56441121D01*
X38574870Y-56441121D02*
X38655682Y-56414184D01*
X38655682Y-56414184D02*
X38709557Y-56414184D01*
X38709557Y-56414184D02*
X38790369Y-56441121D01*
X38790369Y-56441121D02*
X38925056Y-56521934D01*
X38925056Y-56521934D02*
X39059743Y-56656621D01*
X39059743Y-56656621D02*
X39140555Y-56791308D01*
X39140555Y-56791308D02*
X39167493Y-56872120D01*
X39167493Y-56872120D02*
X39167493Y-56925995D01*
X39167493Y-56925995D02*
X39140555Y-57006807D01*
X39140555Y-57006807D02*
X39086680Y-57060682D01*
X39086680Y-57060682D02*
X39005868Y-57087619D01*
X39005868Y-57087619D02*
X38951993Y-57087619D01*
X38951993Y-57087619D02*
X38871181Y-57060682D01*
X38871181Y-57060682D02*
X38736494Y-56979869D01*
X38736494Y-56979869D02*
X38601807Y-56845182D01*
X38601807Y-56845182D02*
X38520995Y-56710495D01*
X38520995Y-56710495D02*
X38494057Y-56629683D01*
X38494057Y-56629683D02*
X38494057Y-56575808D01*
X38494057Y-56575808D02*
X38520995Y-56494996D01*
X35846308Y-57168431D02*
X35657746Y-57356993D01*
X35954058Y-57653304D02*
X35388372Y-57087619D01*
X35388372Y-57087619D02*
X35657746Y-56818245D01*
X36735242Y-56872120D02*
X36411993Y-57195369D01*
X36573618Y-57033744D02*
X36007932Y-56468059D01*
X36007932Y-56468059D02*
X36034870Y-56602746D01*
X36034870Y-56602746D02*
X36034870Y-56710495D01*
X36034870Y-56710495D02*
X36007932Y-56791308D01*
X30723651Y-57693710D02*
X30157966Y-57128025D01*
X30157966Y-57128025D02*
X30292653Y-56993338D01*
X30292653Y-56993338D02*
X30400403Y-56939463D01*
X30400403Y-56939463D02*
X30508152Y-56939463D01*
X30508152Y-56939463D02*
X30588964Y-56966401D01*
X30588964Y-56966401D02*
X30723651Y-57047213D01*
X30723651Y-57047213D02*
X30804464Y-57128025D01*
X30804464Y-57128025D02*
X30885276Y-57262712D01*
X30885276Y-57262712D02*
X30912213Y-57343524D01*
X30912213Y-57343524D02*
X30912213Y-57451274D01*
X30912213Y-57451274D02*
X30858338Y-57559023D01*
X30858338Y-57559023D02*
X30723651Y-57693710D01*
X30993025Y-56292966D02*
X30723651Y-56562340D01*
X30723651Y-56562340D02*
X30966088Y-56858651D01*
X30966088Y-56858651D02*
X30966088Y-56804776D01*
X30966088Y-56804776D02*
X30993025Y-56723964D01*
X30993025Y-56723964D02*
X31127712Y-56589277D01*
X31127712Y-56589277D02*
X31208525Y-56562340D01*
X31208525Y-56562340D02*
X31262399Y-56562340D01*
X31262399Y-56562340D02*
X31343212Y-56589277D01*
X31343212Y-56589277D02*
X31477899Y-56723964D01*
X31477899Y-56723964D02*
X31504836Y-56804776D01*
X31504836Y-56804776D02*
X31504836Y-56858651D01*
X31504836Y-56858651D02*
X31477899Y-56939463D01*
X31477899Y-56939463D02*
X31343212Y-57074150D01*
X31343212Y-57074150D02*
X31262399Y-57101088D01*
X31262399Y-57101088D02*
X31208525Y-57101088D01*
X43850390Y-56429523D02*
X43812295Y-56505713D01*
X43812295Y-56505713D02*
X43812295Y-56619999D01*
X43812295Y-56619999D02*
X43850390Y-56734285D01*
X43850390Y-56734285D02*
X43926580Y-56810475D01*
X43926580Y-56810475D02*
X44002771Y-56848570D01*
X44002771Y-56848570D02*
X44155152Y-56886666D01*
X44155152Y-56886666D02*
X44269438Y-56886666D01*
X44269438Y-56886666D02*
X44421819Y-56848570D01*
X44421819Y-56848570D02*
X44498009Y-56810475D01*
X44498009Y-56810475D02*
X44574200Y-56734285D01*
X44574200Y-56734285D02*
X44612295Y-56619999D01*
X44612295Y-56619999D02*
X44612295Y-56543808D01*
X44612295Y-56543808D02*
X44574200Y-56429523D01*
X44574200Y-56429523D02*
X44536104Y-56391427D01*
X44536104Y-56391427D02*
X44269438Y-56391427D01*
X44269438Y-56391427D02*
X44269438Y-56543808D01*
X44612295Y-56048570D02*
X43812295Y-56048570D01*
X43812295Y-56048570D02*
X44612295Y-55591427D01*
X44612295Y-55591427D02*
X43812295Y-55591427D01*
X44612295Y-55210475D02*
X43812295Y-55210475D01*
X43812295Y-55210475D02*
X43812295Y-55019999D01*
X43812295Y-55019999D02*
X43850390Y-54905713D01*
X43850390Y-54905713D02*
X43926580Y-54829523D01*
X43926580Y-54829523D02*
X44002771Y-54791428D01*
X44002771Y-54791428D02*
X44155152Y-54753332D01*
X44155152Y-54753332D02*
X44269438Y-54753332D01*
X44269438Y-54753332D02*
X44421819Y-54791428D01*
X44421819Y-54791428D02*
X44498009Y-54829523D01*
X44498009Y-54829523D02*
X44574200Y-54905713D01*
X44574200Y-54905713D02*
X44612295Y-55019999D01*
X44612295Y-55019999D02*
X44612295Y-55210475D01*
X20255000Y-64648200D02*
X32828000Y-64648200D01*
X20255000Y-64648200D02*
X20255000Y-64070000D01*
X20255000Y-64070000D02*
X18255000Y-64070000D01*
X18255000Y-58470000D02*
X18255000Y-64070000D01*
X20255000Y-58470000D02*
X18255000Y-58470000D01*
X20255000Y-58470000D02*
X20255000Y-57891800D01*
X20255000Y-57891800D02*
X32828000Y-57891800D01*
X32828000Y-57891800D02*
X32828000Y-64648200D01*
D11*
X35615000Y-60680000D02*
X35615000Y-62180000D01*
X36865000Y-64680000D02*
X41365000Y-64680000D01*
X41365000Y-58180000D02*
X36865000Y-58180000D01*
X42615000Y-62180000D02*
X42615000Y-60680000D01*
D12*
X43775000Y-20720000D02*
X25995000Y-20720000D01*
X25995000Y-20720000D02*
X25995000Y-23260000D01*
X43775000Y-23260000D02*
X43775000Y-20720000D01*
X25995000Y-23260000D02*
X25995000Y-53740000D01*
X43775000Y-53740000D02*
X43775000Y-23260000D01*
X25995000Y-53740000D02*
X43775000Y-53740000D01*
D13*
X35440814Y-35968931D02*
X35524635Y-36413555D01*
X35833920Y-36541053D01*
X36143206Y-36668551D01*
X36514246Y-36416246D01*
X36618157Y-36345996D01*
X36712087Y-36283272D01*
X36791652Y-36230938D01*
X36852470Y-36191857D01*
X36890157Y-36168893D01*
X36900421Y-36163942D01*
X36918910Y-36176676D01*
X36958420Y-36211882D01*
X37014522Y-36265062D01*
X37082787Y-36331718D01*
X37158786Y-36407354D01*
X37238092Y-36487472D01*
X37316275Y-36567574D01*
X37388907Y-36643164D01*
X37451559Y-36709745D01*
X37499803Y-36762818D01*
X37529210Y-36797887D01*
X37536241Y-36809623D01*
X37526123Y-36831260D01*
X37497759Y-36878662D01*
X37454129Y-36947193D01*
X37398218Y-37032215D01*
X37333006Y-37129093D01*
X37295219Y-37184350D01*
X37226343Y-37285248D01*
X37165140Y-37376299D01*
X37114578Y-37452970D01*
X37077628Y-37510728D01*
X37057258Y-37545043D01*
X37054197Y-37552254D01*
X37061136Y-37572748D01*
X37080051Y-37620513D01*
X37108087Y-37688832D01*
X37142391Y-37770989D01*
X37180109Y-37860270D01*
X37218387Y-37949958D01*
X37254370Y-38033338D01*
X37285206Y-38103694D01*
X37308039Y-38154310D01*
X37320017Y-38178471D01*
X37320724Y-38179422D01*
X37339531Y-38184036D01*
X37389618Y-38194328D01*
X37465793Y-38209287D01*
X37562865Y-38227901D01*
X37675643Y-38249159D01*
X37741442Y-38261418D01*
X37861950Y-38284362D01*
X37970797Y-38306195D01*
X38062476Y-38325722D01*
X38131481Y-38341748D01*
X38172304Y-38353079D01*
X38180511Y-38356674D01*
X38188548Y-38381006D01*
X38195033Y-38435959D01*
X38199970Y-38515108D01*
X38203364Y-38612026D01*
X38205218Y-38720287D01*
X38205538Y-38833465D01*
X38204327Y-38945135D01*
X38201590Y-39048868D01*
X38197331Y-39138241D01*
X38191555Y-39206826D01*
X38184267Y-39248197D01*
X38179895Y-39256810D01*
X38153764Y-39267133D01*
X38098393Y-39281892D01*
X38021107Y-39299352D01*
X37929230Y-39317780D01*
X37897158Y-39323741D01*
X37742524Y-39352066D01*
X37620375Y-39374876D01*
X37526673Y-39393080D01*
X37457384Y-39407583D01*
X37408471Y-39419292D01*
X37375897Y-39429115D01*
X37355628Y-39437956D01*
X37343626Y-39446724D01*
X37341947Y-39448457D01*
X37325184Y-39476371D01*
X37299614Y-39530695D01*
X37267788Y-39604777D01*
X37232260Y-39691965D01*
X37195583Y-39785608D01*
X37160311Y-39879052D01*
X37128996Y-39965647D01*
X37104193Y-40038740D01*
X37088454Y-40091678D01*
X37084332Y-40117811D01*
X37084676Y-40118726D01*
X37098641Y-40140086D01*
X37130322Y-40187084D01*
X37176391Y-40254827D01*
X37233518Y-40338423D01*
X37298373Y-40432982D01*
X37316843Y-40459854D01*
X37382699Y-40557275D01*
X37440650Y-40646163D01*
X37487538Y-40721412D01*
X37520207Y-40777920D01*
X37535500Y-40810581D01*
X37536241Y-40814593D01*
X37523392Y-40835684D01*
X37487888Y-40877464D01*
X37434293Y-40935445D01*
X37367171Y-41005135D01*
X37291087Y-41082045D01*
X37210604Y-41161683D01*
X37130287Y-41239561D01*
X37054699Y-41311186D01*
X36988405Y-41372070D01*
X36935969Y-41417721D01*
X36901955Y-41443650D01*
X36892545Y-41447883D01*
X36870643Y-41437912D01*
X36825800Y-41411020D01*
X36765321Y-41371736D01*
X36718789Y-41340117D01*
X36634475Y-41282098D01*
X36534626Y-41213784D01*
X36434473Y-41145579D01*
X36380627Y-41109075D01*
X36198371Y-40985800D01*
X36045381Y-41068520D01*
X35975682Y-41104759D01*
X35916414Y-41132926D01*
X35876311Y-41148991D01*
X35866103Y-41151226D01*
X35853829Y-41134722D01*
X35829613Y-41088082D01*
X35795263Y-41015609D01*
X35752588Y-40921606D01*
X35703394Y-40810374D01*
X35649490Y-40686215D01*
X35592684Y-40553432D01*
X35534782Y-40416327D01*
X35477593Y-40279202D01*
X35422924Y-40146358D01*
X35372584Y-40022098D01*
X35328380Y-39910725D01*
X35292119Y-39816539D01*
X35265609Y-39743844D01*
X35250658Y-39696941D01*
X35248254Y-39680833D01*
X35267311Y-39660286D01*
X35309036Y-39626933D01*
X35364706Y-39587702D01*
X35369378Y-39584599D01*
X35513264Y-39469423D01*
X35629283Y-39335053D01*
X35716430Y-39185784D01*
X35773699Y-39025913D01*
X35800086Y-38859737D01*
X35794585Y-38691552D01*
X35756190Y-38525655D01*
X35683895Y-38366342D01*
X35662626Y-38331487D01*
X35551996Y-38190737D01*
X35421302Y-38077714D01*
X35275064Y-37993003D01*
X35117808Y-37937194D01*
X34954057Y-37910874D01*
X34788333Y-37914630D01*
X34625162Y-37949050D01*
X34469065Y-38014723D01*
X34324567Y-38112235D01*
X34279869Y-38151813D01*
X34166112Y-38275703D01*
X34083218Y-38406124D01*
X34026356Y-38552315D01*
X33994687Y-38697088D01*
X33986869Y-38859860D01*
X34012938Y-39023440D01*
X34070245Y-39182298D01*
X34156144Y-39330906D01*
X34267986Y-39463735D01*
X34403123Y-39575256D01*
X34420883Y-39587011D01*
X34477150Y-39625508D01*
X34519923Y-39658863D01*
X34540372Y-39680160D01*
X34540669Y-39680833D01*
X34536279Y-39703871D01*
X34518876Y-39756157D01*
X34490268Y-39833390D01*
X34452265Y-39931268D01*
X34406674Y-40045491D01*
X34355303Y-40171758D01*
X34299962Y-40305767D01*
X34242458Y-40443218D01*
X34184601Y-40579808D01*
X34128198Y-40711237D01*
X34075058Y-40833205D01*
X34026990Y-40941409D01*
X33985801Y-41031549D01*
X33953301Y-41099323D01*
X33931297Y-41140430D01*
X33922436Y-41151226D01*
X33895360Y-41142819D01*
X33844697Y-41120272D01*
X33779183Y-41087613D01*
X33743159Y-41068520D01*
X33590168Y-40985800D01*
X33407912Y-41109075D01*
X33314875Y-41172228D01*
X33213015Y-41241727D01*
X33117562Y-41307165D01*
X33069750Y-41340117D01*
X33002505Y-41385273D01*
X32945564Y-41421057D01*
X32906354Y-41442938D01*
X32893619Y-41447563D01*
X32875083Y-41435085D01*
X32834059Y-41400252D01*
X32774525Y-41346678D01*
X32700458Y-41277983D01*
X32615835Y-41197781D01*
X32562315Y-41146286D01*
X32468681Y-41054286D01*
X32387759Y-40971999D01*
X32322823Y-40902945D01*
X32277142Y-40850644D01*
X32253989Y-40818616D01*
X32251768Y-40812116D01*
X32262076Y-40787394D01*
X32290561Y-40737405D01*
X32334063Y-40667212D01*
X32389423Y-40581875D01*
X32453480Y-40486456D01*
X32471697Y-40459854D01*
X32538073Y-40363167D01*
X32597622Y-40276117D01*
X32647016Y-40203595D01*
X32682925Y-40150493D01*
X32702019Y-40121703D01*
X32703864Y-40118726D01*
X32701105Y-40095782D01*
X32686462Y-40045336D01*
X32662487Y-39974041D01*
X32631734Y-39888547D01*
X32596756Y-39795507D01*
X32560107Y-39701574D01*
X32524339Y-39613399D01*
X32492006Y-39537634D01*
X32465662Y-39480931D01*
X32447858Y-39449943D01*
X32446593Y-39448457D01*
X32435706Y-39439601D01*
X32417318Y-39430843D01*
X32387394Y-39421277D01*
X32341897Y-39409996D01*
X32276791Y-39396093D01*
X32188039Y-39378663D01*
X32071607Y-39356798D01*
X31923458Y-39329591D01*
X31891382Y-39323741D01*
X31796314Y-39305374D01*
X31713435Y-39287405D01*
X31650070Y-39271569D01*
X31613542Y-39259600D01*
X31608644Y-39256810D01*
X31600573Y-39232072D01*
X31594013Y-39176790D01*
X31588967Y-39097389D01*
X31585441Y-39000296D01*
X31583439Y-38891938D01*
X31582964Y-38778740D01*
X31584023Y-38667128D01*
X31586618Y-38563529D01*
X31590754Y-38474368D01*
X31596437Y-38406072D01*
X31603669Y-38365066D01*
X31608029Y-38356674D01*
X31632302Y-38348208D01*
X31687574Y-38334435D01*
X31768338Y-38316550D01*
X31869088Y-38295748D01*
X31984317Y-38273223D01*
X32047098Y-38261418D01*
X32166213Y-38239151D01*
X32272435Y-38218979D01*
X32360573Y-38201915D01*
X32425434Y-38188969D01*
X32461826Y-38181155D01*
X32467816Y-38179422D01*
X32477939Y-38159890D01*
X32499338Y-38112843D01*
X32529161Y-38045003D01*
X32564555Y-37963091D01*
X32602668Y-37873828D01*
X32640647Y-37783935D01*
X32675640Y-37700135D01*
X32704794Y-37629147D01*
X32725257Y-37577694D01*
X32734177Y-37552497D01*
X32734343Y-37551396D01*
X32724231Y-37531519D01*
X32695883Y-37485777D01*
X32652277Y-37418717D01*
X32596394Y-37334884D01*
X32531213Y-37238826D01*
X32493321Y-37183650D01*
X32424275Y-37082481D01*
X32362950Y-36990630D01*
X32312337Y-36912744D01*
X32275429Y-36853469D01*
X32255218Y-36817451D01*
X32252299Y-36809377D01*
X32264847Y-36790584D01*
X32299537Y-36750457D01*
X32351937Y-36693493D01*
X32417616Y-36624185D01*
X32492144Y-36547031D01*
X32571087Y-36466525D01*
X32650017Y-36387163D01*
X32724500Y-36313440D01*
X32790106Y-36249852D01*
X32842404Y-36200894D01*
X32876961Y-36171061D01*
X32888522Y-36163942D01*
X32907346Y-36173953D01*
X32952369Y-36202078D01*
X33019213Y-36245454D01*
X33103501Y-36301218D01*
X33200856Y-36366506D01*
X33274293Y-36416246D01*
X33645333Y-36668551D01*
X34263905Y-36413555D01*
X34347725Y-35968931D01*
X34431546Y-35524307D01*
X35356994Y-35524307D01*
X35440814Y-35968931D01*
G36*
X35440814Y-35968931D02*
G01*
X35524635Y-36413555D01*
X35833920Y-36541053D01*
X36143206Y-36668551D01*
X36514246Y-36416246D01*
X36618157Y-36345996D01*
X36712087Y-36283272D01*
X36791652Y-36230938D01*
X36852470Y-36191857D01*
X36890157Y-36168893D01*
X36900421Y-36163942D01*
X36918910Y-36176676D01*
X36958420Y-36211882D01*
X37014522Y-36265062D01*
X37082787Y-36331718D01*
X37158786Y-36407354D01*
X37238092Y-36487472D01*
X37316275Y-36567574D01*
X37388907Y-36643164D01*
X37451559Y-36709745D01*
X37499803Y-36762818D01*
X37529210Y-36797887D01*
X37536241Y-36809623D01*
X37526123Y-36831260D01*
X37497759Y-36878662D01*
X37454129Y-36947193D01*
X37398218Y-37032215D01*
X37333006Y-37129093D01*
X37295219Y-37184350D01*
X37226343Y-37285248D01*
X37165140Y-37376299D01*
X37114578Y-37452970D01*
X37077628Y-37510728D01*
X37057258Y-37545043D01*
X37054197Y-37552254D01*
X37061136Y-37572748D01*
X37080051Y-37620513D01*
X37108087Y-37688832D01*
X37142391Y-37770989D01*
X37180109Y-37860270D01*
X37218387Y-37949958D01*
X37254370Y-38033338D01*
X37285206Y-38103694D01*
X37308039Y-38154310D01*
X37320017Y-38178471D01*
X37320724Y-38179422D01*
X37339531Y-38184036D01*
X37389618Y-38194328D01*
X37465793Y-38209287D01*
X37562865Y-38227901D01*
X37675643Y-38249159D01*
X37741442Y-38261418D01*
X37861950Y-38284362D01*
X37970797Y-38306195D01*
X38062476Y-38325722D01*
X38131481Y-38341748D01*
X38172304Y-38353079D01*
X38180511Y-38356674D01*
X38188548Y-38381006D01*
X38195033Y-38435959D01*
X38199970Y-38515108D01*
X38203364Y-38612026D01*
X38205218Y-38720287D01*
X38205538Y-38833465D01*
X38204327Y-38945135D01*
X38201590Y-39048868D01*
X38197331Y-39138241D01*
X38191555Y-39206826D01*
X38184267Y-39248197D01*
X38179895Y-39256810D01*
X38153764Y-39267133D01*
X38098393Y-39281892D01*
X38021107Y-39299352D01*
X37929230Y-39317780D01*
X37897158Y-39323741D01*
X37742524Y-39352066D01*
X37620375Y-39374876D01*
X37526673Y-39393080D01*
X37457384Y-39407583D01*
X37408471Y-39419292D01*
X37375897Y-39429115D01*
X37355628Y-39437956D01*
X37343626Y-39446724D01*
X37341947Y-39448457D01*
X37325184Y-39476371D01*
X37299614Y-39530695D01*
X37267788Y-39604777D01*
X37232260Y-39691965D01*
X37195583Y-39785608D01*
X37160311Y-39879052D01*
X37128996Y-39965647D01*
X37104193Y-40038740D01*
X37088454Y-40091678D01*
X37084332Y-40117811D01*
X37084676Y-40118726D01*
X37098641Y-40140086D01*
X37130322Y-40187084D01*
X37176391Y-40254827D01*
X37233518Y-40338423D01*
X37298373Y-40432982D01*
X37316843Y-40459854D01*
X37382699Y-40557275D01*
X37440650Y-40646163D01*
X37487538Y-40721412D01*
X37520207Y-40777920D01*
X37535500Y-40810581D01*
X37536241Y-40814593D01*
X37523392Y-40835684D01*
X37487888Y-40877464D01*
X37434293Y-40935445D01*
X37367171Y-41005135D01*
X37291087Y-41082045D01*
X37210604Y-41161683D01*
X37130287Y-41239561D01*
X37054699Y-41311186D01*
X36988405Y-41372070D01*
X36935969Y-41417721D01*
X36901955Y-41443650D01*
X36892545Y-41447883D01*
X36870643Y-41437912D01*
X36825800Y-41411020D01*
X36765321Y-41371736D01*
X36718789Y-41340117D01*
X36634475Y-41282098D01*
X36534626Y-41213784D01*
X36434473Y-41145579D01*
X36380627Y-41109075D01*
X36198371Y-40985800D01*
X36045381Y-41068520D01*
X35975682Y-41104759D01*
X35916414Y-41132926D01*
X35876311Y-41148991D01*
X35866103Y-41151226D01*
X35853829Y-41134722D01*
X35829613Y-41088082D01*
X35795263Y-41015609D01*
X35752588Y-40921606D01*
X35703394Y-40810374D01*
X35649490Y-40686215D01*
X35592684Y-40553432D01*
X35534782Y-40416327D01*
X35477593Y-40279202D01*
X35422924Y-40146358D01*
X35372584Y-40022098D01*
X35328380Y-39910725D01*
X35292119Y-39816539D01*
X35265609Y-39743844D01*
X35250658Y-39696941D01*
X35248254Y-39680833D01*
X35267311Y-39660286D01*
X35309036Y-39626933D01*
X35364706Y-39587702D01*
X35369378Y-39584599D01*
X35513264Y-39469423D01*
X35629283Y-39335053D01*
X35716430Y-39185784D01*
X35773699Y-39025913D01*
X35800086Y-38859737D01*
X35794585Y-38691552D01*
X35756190Y-38525655D01*
X35683895Y-38366342D01*
X35662626Y-38331487D01*
X35551996Y-38190737D01*
X35421302Y-38077714D01*
X35275064Y-37993003D01*
X35117808Y-37937194D01*
X34954057Y-37910874D01*
X34788333Y-37914630D01*
X34625162Y-37949050D01*
X34469065Y-38014723D01*
X34324567Y-38112235D01*
X34279869Y-38151813D01*
X34166112Y-38275703D01*
X34083218Y-38406124D01*
X34026356Y-38552315D01*
X33994687Y-38697088D01*
X33986869Y-38859860D01*
X34012938Y-39023440D01*
X34070245Y-39182298D01*
X34156144Y-39330906D01*
X34267986Y-39463735D01*
X34403123Y-39575256D01*
X34420883Y-39587011D01*
X34477150Y-39625508D01*
X34519923Y-39658863D01*
X34540372Y-39680160D01*
X34540669Y-39680833D01*
X34536279Y-39703871D01*
X34518876Y-39756157D01*
X34490268Y-39833390D01*
X34452265Y-39931268D01*
X34406674Y-40045491D01*
X34355303Y-40171758D01*
X34299962Y-40305767D01*
X34242458Y-40443218D01*
X34184601Y-40579808D01*
X34128198Y-40711237D01*
X34075058Y-40833205D01*
X34026990Y-40941409D01*
X33985801Y-41031549D01*
X33953301Y-41099323D01*
X33931297Y-41140430D01*
X33922436Y-41151226D01*
X33895360Y-41142819D01*
X33844697Y-41120272D01*
X33779183Y-41087613D01*
X33743159Y-41068520D01*
X33590168Y-40985800D01*
X33407912Y-41109075D01*
X33314875Y-41172228D01*
X33213015Y-41241727D01*
X33117562Y-41307165D01*
X33069750Y-41340117D01*
X33002505Y-41385273D01*
X32945564Y-41421057D01*
X32906354Y-41442938D01*
X32893619Y-41447563D01*
X32875083Y-41435085D01*
X32834059Y-41400252D01*
X32774525Y-41346678D01*
X32700458Y-41277983D01*
X32615835Y-41197781D01*
X32562315Y-41146286D01*
X32468681Y-41054286D01*
X32387759Y-40971999D01*
X32322823Y-40902945D01*
X32277142Y-40850644D01*
X32253989Y-40818616D01*
X32251768Y-40812116D01*
X32262076Y-40787394D01*
X32290561Y-40737405D01*
X32334063Y-40667212D01*
X32389423Y-40581875D01*
X32453480Y-40486456D01*
X32471697Y-40459854D01*
X32538073Y-40363167D01*
X32597622Y-40276117D01*
X32647016Y-40203595D01*
X32682925Y-40150493D01*
X32702019Y-40121703D01*
X32703864Y-40118726D01*
X32701105Y-40095782D01*
X32686462Y-40045336D01*
X32662487Y-39974041D01*
X32631734Y-39888547D01*
X32596756Y-39795507D01*
X32560107Y-39701574D01*
X32524339Y-39613399D01*
X32492006Y-39537634D01*
X32465662Y-39480931D01*
X32447858Y-39449943D01*
X32446593Y-39448457D01*
X32435706Y-39439601D01*
X32417318Y-39430843D01*
X32387394Y-39421277D01*
X32341897Y-39409996D01*
X32276791Y-39396093D01*
X32188039Y-39378663D01*
X32071607Y-39356798D01*
X31923458Y-39329591D01*
X31891382Y-39323741D01*
X31796314Y-39305374D01*
X31713435Y-39287405D01*
X31650070Y-39271569D01*
X31613542Y-39259600D01*
X31608644Y-39256810D01*
X31600573Y-39232072D01*
X31594013Y-39176790D01*
X31588967Y-39097389D01*
X31585441Y-39000296D01*
X31583439Y-38891938D01*
X31582964Y-38778740D01*
X31584023Y-38667128D01*
X31586618Y-38563529D01*
X31590754Y-38474368D01*
X31596437Y-38406072D01*
X31603669Y-38365066D01*
X31608029Y-38356674D01*
X31632302Y-38348208D01*
X31687574Y-38334435D01*
X31768338Y-38316550D01*
X31869088Y-38295748D01*
X31984317Y-38273223D01*
X32047098Y-38261418D01*
X32166213Y-38239151D01*
X32272435Y-38218979D01*
X32360573Y-38201915D01*
X32425434Y-38188969D01*
X32461826Y-38181155D01*
X32467816Y-38179422D01*
X32477939Y-38159890D01*
X32499338Y-38112843D01*
X32529161Y-38045003D01*
X32564555Y-37963091D01*
X32602668Y-37873828D01*
X32640647Y-37783935D01*
X32675640Y-37700135D01*
X32704794Y-37629147D01*
X32725257Y-37577694D01*
X32734177Y-37552497D01*
X32734343Y-37551396D01*
X32724231Y-37531519D01*
X32695883Y-37485777D01*
X32652277Y-37418717D01*
X32596394Y-37334884D01*
X32531213Y-37238826D01*
X32493321Y-37183650D01*
X32424275Y-37082481D01*
X32362950Y-36990630D01*
X32312337Y-36912744D01*
X32275429Y-36853469D01*
X32255218Y-36817451D01*
X32252299Y-36809377D01*
X32264847Y-36790584D01*
X32299537Y-36750457D01*
X32351937Y-36693493D01*
X32417616Y-36624185D01*
X32492144Y-36547031D01*
X32571087Y-36466525D01*
X32650017Y-36387163D01*
X32724500Y-36313440D01*
X32790106Y-36249852D01*
X32842404Y-36200894D01*
X32876961Y-36171061D01*
X32888522Y-36163942D01*
X32907346Y-36173953D01*
X32952369Y-36202078D01*
X33019213Y-36245454D01*
X33103501Y-36301218D01*
X33200856Y-36366506D01*
X33274293Y-36416246D01*
X33645333Y-36668551D01*
X34263905Y-36413555D01*
X34347725Y-35968931D01*
X34431546Y-35524307D01*
X35356994Y-35524307D01*
X35440814Y-35968931D01*
G37*
D10*
X44556800Y-20363500D02*
X44556800Y-32936500D01*
X44556800Y-20363500D02*
X45135000Y-20363500D01*
X45135000Y-20363500D02*
X45135000Y-18363500D01*
X50735000Y-18363500D02*
X45135000Y-18363500D01*
X50735000Y-20363500D02*
X50735000Y-18363500D01*
X50735000Y-20363500D02*
X51313200Y-20363500D01*
X51313200Y-20363500D02*
X51313200Y-32936500D01*
X51313200Y-32936500D02*
X44556800Y-32936500D01*
D14*
X27265000Y-24530000D03*
X27265000Y-27070000D03*
D15*
X27265000Y-29610000D03*
X27265000Y-32150000D03*
D14*
X27265000Y-34690000D03*
X27265000Y-37230000D03*
X27265000Y-39770000D03*
X27265000Y-42310000D03*
X27265000Y-44850000D03*
X27265000Y-47390000D03*
X27265000Y-49930000D03*
X27265000Y-52470000D03*
X42505000Y-52470000D03*
X42505000Y-49930000D03*
X42505000Y-47390000D03*
X42505000Y-44850000D03*
X42505000Y-42310000D03*
X42505000Y-39770000D03*
X42505000Y-37230000D03*
X42505000Y-34690000D03*
D16*
X42505000Y-32150000D03*
D14*
X42505000Y-29610000D03*
D15*
X42505000Y-27070000D03*
D14*
X42505000Y-24530000D03*
X29805000Y-52470000D03*
X32345000Y-52470000D03*
X34885000Y-52470000D03*
X37425000Y-52470000D03*
X39965000Y-52470000D03*
%LPC*%
D17*
X47935000Y-61270000D03*
X21855000Y-61270000D03*
D18*
X28855000Y-61270000D03*
D19*
X31050000Y-63576000D03*
X31055000Y-58970000D03*
D20*
X26478000Y-63576000D03*
X26455000Y-58970000D03*
X23430000Y-63576000D03*
X23455000Y-58970000D03*
D21*
X35865000Y-59180000D03*
X42365000Y-59180000D03*
X35865000Y-63680000D03*
X42365000Y-63680000D03*
D14*
X27265000Y-24530000D03*
X27265000Y-27070000D03*
D15*
X27265000Y-29610000D03*
X27265000Y-32150000D03*
D14*
X27265000Y-34690000D03*
X27265000Y-37230000D03*
X27265000Y-39770000D03*
X27265000Y-42310000D03*
X27265000Y-44850000D03*
X27265000Y-47390000D03*
X27265000Y-49930000D03*
X27265000Y-52470000D03*
X42505000Y-52470000D03*
X42505000Y-49930000D03*
X42505000Y-47390000D03*
X42505000Y-44850000D03*
X42505000Y-42310000D03*
X42505000Y-39770000D03*
X42505000Y-37230000D03*
X42505000Y-34690000D03*
D16*
X42505000Y-32150000D03*
D14*
X42505000Y-29610000D03*
D15*
X42505000Y-27070000D03*
D14*
X42505000Y-24530000D03*
X29805000Y-52470000D03*
X32345000Y-52470000D03*
X34885000Y-52470000D03*
X37425000Y-52470000D03*
X39965000Y-52470000D03*
D22*
X19795000Y-34690000D03*
D23*
X19795000Y-37230000D03*
X19795000Y-39770000D03*
X19795000Y-42310000D03*
X19795000Y-44850000D03*
X19795000Y-47390000D03*
X19795000Y-49930000D03*
X19795000Y-52470000D03*
X19795000Y-55010000D03*
X22335000Y-34690000D03*
X22335000Y-37230000D03*
X22335000Y-39770000D03*
X22335000Y-42310000D03*
X22335000Y-44850000D03*
X22335000Y-47390000D03*
X22335000Y-49930000D03*
X22335000Y-52470000D03*
X22335000Y-55010000D03*
D17*
X21855000Y-21963500D03*
D23*
X50015000Y-34690000D03*
X50015000Y-37230000D03*
X50015000Y-39770000D03*
X50015000Y-42310000D03*
X50015000Y-44850000D03*
X50015000Y-47390000D03*
X50015000Y-49930000D03*
X50015000Y-52470000D03*
X50015000Y-55010000D03*
D22*
X47475000Y-34690000D03*
D23*
X47475000Y-37230000D03*
X47475000Y-39770000D03*
X47475000Y-42310000D03*
X47475000Y-44850000D03*
X47475000Y-47390000D03*
X47475000Y-49930000D03*
X47475000Y-52470000D03*
X47475000Y-55010000D03*
D17*
X47935000Y-21963500D03*
D18*
X47935000Y-28963500D03*
D24*
X45629000Y-31158500D03*
X50235000Y-31163500D03*
D25*
X45629000Y-26586500D03*
X50235000Y-26563500D03*
X45629000Y-23538500D03*
X50235000Y-23563500D03*
D26*
X27250000Y-55820000D03*
D23*
X29790000Y-55820000D03*
X32330000Y-55820000D03*
X34870000Y-55820000D03*
X37410000Y-55820000D03*
X39950000Y-55820000D03*
D26*
X42490000Y-55820000D03*
%LPD*%
M02*
