G04 #@! TF.GenerationSoftware,KiCad,Pcbnew,7.0.5*
G04 #@! TF.CreationDate,2023-06-22T10:07:34+08:00*
G04 #@! TF.ProjectId,handwire microboard,68616e64-7769-4726-9520-6d6963726f62,rev?*
G04 #@! TF.SameCoordinates,Original*
G04 #@! TF.FileFunction,Legend,Bot*
G04 #@! TF.FilePolarity,Positive*
%FSLAX46Y46*%
G04 Gerber Fmt 4.6, Leading zero omitted, Abs format (unit mm)*
G04 Created by KiCad (PCBNEW 7.0.5) date 2023-06-22 10:07:34*
%MOMM*%
%LPD*%
G01*
G04 APERTURE LIST*
G04 Aperture macros list*
%AMRoundRect*
0 Rectangle with rounded corners*
0 $1 Rounding radius*
0 $2 $3 $4 $5 $6 $7 $8 $9 X,Y pos of 4 corners*
0 Add a 4 corners polygon primitive as box body*
4,1,4,$2,$3,$4,$5,$6,$7,$8,$9,$2,$3,0*
0 Add four circle primitives for the rounded corners*
1,1,$1+$1,$2,$3*
1,1,$1+$1,$4,$5*
1,1,$1+$1,$6,$7*
1,1,$1+$1,$8,$9*
0 Add four rect primitives between the rounded corners*
20,1,$1+$1,$2,$3,$4,$5,0*
20,1,$1+$1,$4,$5,$6,$7,0*
20,1,$1+$1,$6,$7,$8,$9,0*
20,1,$1+$1,$8,$9,$2,$3,0*%
%AMOutline4P*
0 Free polygon, 4 corners , with rotation*
0 The origin of the aperture is its center*
0 number of corners: always 4*
0 $1 to $8 corner X, Y*
0 $9 Rotation angle, in degrees counterclockwise*
0 create outline with 4 corners*
4,1,4,$1,$2,$3,$4,$5,$6,$7,$8,$1,$2,$9*%
G04 Aperture macros list end*
%ADD10C,0.150000*%
%ADD11C,0.120000*%
%ADD12C,0.010000*%
%ADD13C,1.752600*%
%ADD14Outline4P,-0.876300X-0.876300X0.876300X-0.876300X0.876300X0.876300X-0.876300X0.876300X270.000000*%
%ADD15R,1.752600X1.752600*%
%ADD16RoundRect,0.438150X-0.438150X0.438150X-0.438150X-0.438150X0.438150X-0.438150X0.438150X0.438150X0*%
%ADD17C,1.700000*%
%ADD18O,1.700000X1.700000*%
%ADD19Outline4P,-0.850000X-0.850000X0.850000X-0.850000X0.850000X0.850000X-0.850000X0.850000X90.000000*%
%ADD20C,0.800000*%
%ADD21O,1.576000X3.029000*%
%ADD22O,1.600000X2.000000*%
%ADD23C,2.000000*%
%ADD24C,2.200000*%
%ADD25O,3.029000X1.576000*%
%ADD26O,2.000000X1.600000*%
G04 APERTURE END LIST*
D10*
X97163666Y-120839033D02*
X97163666Y-120139033D01*
X97163666Y-120139033D02*
X96996999Y-120139033D01*
X96996999Y-120139033D02*
X96896999Y-120172366D01*
X96896999Y-120172366D02*
X96830333Y-120239033D01*
X96830333Y-120239033D02*
X96796999Y-120305700D01*
X96796999Y-120305700D02*
X96763666Y-120439033D01*
X96763666Y-120439033D02*
X96763666Y-120539033D01*
X96763666Y-120539033D02*
X96796999Y-120672366D01*
X96796999Y-120672366D02*
X96830333Y-120739033D01*
X96830333Y-120739033D02*
X96896999Y-120805700D01*
X96896999Y-120805700D02*
X96996999Y-120839033D01*
X96996999Y-120839033D02*
X97163666Y-120839033D01*
X96130333Y-120139033D02*
X96463666Y-120139033D01*
X96463666Y-120139033D02*
X96496999Y-120472366D01*
X96496999Y-120472366D02*
X96463666Y-120439033D01*
X96463666Y-120439033D02*
X96396999Y-120405700D01*
X96396999Y-120405700D02*
X96230333Y-120405700D01*
X96230333Y-120405700D02*
X96163666Y-120439033D01*
X96163666Y-120439033D02*
X96130333Y-120472366D01*
X96130333Y-120472366D02*
X96096999Y-120539033D01*
X96096999Y-120539033D02*
X96096999Y-120705700D01*
X96096999Y-120705700D02*
X96130333Y-120772366D01*
X96130333Y-120772366D02*
X96163666Y-120805700D01*
X96163666Y-120805700D02*
X96230333Y-120839033D01*
X96230333Y-120839033D02*
X96396999Y-120839033D01*
X96396999Y-120839033D02*
X96463666Y-120805700D01*
X96463666Y-120805700D02*
X96496999Y-120772366D01*
X92083666Y-120839033D02*
X92083666Y-120139033D01*
X92083666Y-120139033D02*
X91916999Y-120139033D01*
X91916999Y-120139033D02*
X91816999Y-120172366D01*
X91816999Y-120172366D02*
X91750333Y-120239033D01*
X91750333Y-120239033D02*
X91716999Y-120305700D01*
X91716999Y-120305700D02*
X91683666Y-120439033D01*
X91683666Y-120439033D02*
X91683666Y-120539033D01*
X91683666Y-120539033D02*
X91716999Y-120672366D01*
X91716999Y-120672366D02*
X91750333Y-120739033D01*
X91750333Y-120739033D02*
X91816999Y-120805700D01*
X91816999Y-120805700D02*
X91916999Y-120839033D01*
X91916999Y-120839033D02*
X92083666Y-120839033D01*
X91016999Y-120839033D02*
X91416999Y-120839033D01*
X91216999Y-120839033D02*
X91216999Y-120139033D01*
X91216999Y-120139033D02*
X91283666Y-120239033D01*
X91283666Y-120239033D02*
X91350333Y-120305700D01*
X91350333Y-120305700D02*
X91416999Y-120339033D01*
X89543666Y-120839033D02*
X89543666Y-120139033D01*
X89543666Y-120139033D02*
X89376999Y-120139033D01*
X89376999Y-120139033D02*
X89276999Y-120172366D01*
X89276999Y-120172366D02*
X89210333Y-120239033D01*
X89210333Y-120239033D02*
X89176999Y-120305700D01*
X89176999Y-120305700D02*
X89143666Y-120439033D01*
X89143666Y-120439033D02*
X89143666Y-120539033D01*
X89143666Y-120539033D02*
X89176999Y-120672366D01*
X89176999Y-120672366D02*
X89210333Y-120739033D01*
X89210333Y-120739033D02*
X89276999Y-120805700D01*
X89276999Y-120805700D02*
X89376999Y-120839033D01*
X89376999Y-120839033D02*
X89543666Y-120839033D01*
X88910333Y-120139033D02*
X88476999Y-120139033D01*
X88476999Y-120139033D02*
X88710333Y-120405700D01*
X88710333Y-120405700D02*
X88610333Y-120405700D01*
X88610333Y-120405700D02*
X88543666Y-120439033D01*
X88543666Y-120439033D02*
X88510333Y-120472366D01*
X88510333Y-120472366D02*
X88476999Y-120539033D01*
X88476999Y-120539033D02*
X88476999Y-120705700D01*
X88476999Y-120705700D02*
X88510333Y-120772366D01*
X88510333Y-120772366D02*
X88543666Y-120805700D01*
X88543666Y-120805700D02*
X88610333Y-120839033D01*
X88610333Y-120839033D02*
X88810333Y-120839033D01*
X88810333Y-120839033D02*
X88876999Y-120805700D01*
X88876999Y-120805700D02*
X88910333Y-120772366D01*
X94390333Y-120472366D02*
X94290333Y-120505700D01*
X94290333Y-120505700D02*
X94256999Y-120539033D01*
X94256999Y-120539033D02*
X94223666Y-120605700D01*
X94223666Y-120605700D02*
X94223666Y-120705700D01*
X94223666Y-120705700D02*
X94256999Y-120772366D01*
X94256999Y-120772366D02*
X94290333Y-120805700D01*
X94290333Y-120805700D02*
X94356999Y-120839033D01*
X94356999Y-120839033D02*
X94623666Y-120839033D01*
X94623666Y-120839033D02*
X94623666Y-120139033D01*
X94623666Y-120139033D02*
X94390333Y-120139033D01*
X94390333Y-120139033D02*
X94323666Y-120172366D01*
X94323666Y-120172366D02*
X94290333Y-120205700D01*
X94290333Y-120205700D02*
X94256999Y-120272366D01*
X94256999Y-120272366D02*
X94256999Y-120339033D01*
X94256999Y-120339033D02*
X94290333Y-120405700D01*
X94290333Y-120405700D02*
X94323666Y-120439033D01*
X94323666Y-120439033D02*
X94390333Y-120472366D01*
X94390333Y-120472366D02*
X94623666Y-120472366D01*
X93990333Y-120139033D02*
X93523666Y-120139033D01*
X93523666Y-120139033D02*
X93823666Y-120839033D01*
X87003666Y-120839033D02*
X87003666Y-120139033D01*
X87003666Y-120139033D02*
X86836999Y-120139033D01*
X86836999Y-120139033D02*
X86736999Y-120172366D01*
X86736999Y-120172366D02*
X86670333Y-120239033D01*
X86670333Y-120239033D02*
X86636999Y-120305700D01*
X86636999Y-120305700D02*
X86603666Y-120439033D01*
X86603666Y-120439033D02*
X86603666Y-120539033D01*
X86603666Y-120539033D02*
X86636999Y-120672366D01*
X86636999Y-120672366D02*
X86670333Y-120739033D01*
X86670333Y-120739033D02*
X86736999Y-120805700D01*
X86736999Y-120805700D02*
X86836999Y-120839033D01*
X86836999Y-120839033D02*
X87003666Y-120839033D01*
X86336999Y-120205700D02*
X86303666Y-120172366D01*
X86303666Y-120172366D02*
X86236999Y-120139033D01*
X86236999Y-120139033D02*
X86070333Y-120139033D01*
X86070333Y-120139033D02*
X86003666Y-120172366D01*
X86003666Y-120172366D02*
X85970333Y-120205700D01*
X85970333Y-120205700D02*
X85936999Y-120272366D01*
X85936999Y-120272366D02*
X85936999Y-120339033D01*
X85936999Y-120339033D02*
X85970333Y-120439033D01*
X85970333Y-120439033D02*
X86370333Y-120839033D01*
X86370333Y-120839033D02*
X85936999Y-120839033D01*
X99303666Y-120772366D02*
X99336999Y-120805700D01*
X99336999Y-120805700D02*
X99436999Y-120839033D01*
X99436999Y-120839033D02*
X99503666Y-120839033D01*
X99503666Y-120839033D02*
X99603666Y-120805700D01*
X99603666Y-120805700D02*
X99670333Y-120739033D01*
X99670333Y-120739033D02*
X99703666Y-120672366D01*
X99703666Y-120672366D02*
X99736999Y-120539033D01*
X99736999Y-120539033D02*
X99736999Y-120439033D01*
X99736999Y-120439033D02*
X99703666Y-120305700D01*
X99703666Y-120305700D02*
X99670333Y-120239033D01*
X99670333Y-120239033D02*
X99603666Y-120172366D01*
X99603666Y-120172366D02*
X99503666Y-120139033D01*
X99503666Y-120139033D02*
X99436999Y-120139033D01*
X99436999Y-120139033D02*
X99336999Y-120172366D01*
X99336999Y-120172366D02*
X99303666Y-120205700D01*
X99070333Y-120139033D02*
X98603666Y-120139033D01*
X98603666Y-120139033D02*
X98903666Y-120839033D01*
X101960333Y-120472366D02*
X102193666Y-120472366D01*
X102193666Y-120839033D02*
X102193666Y-120139033D01*
X102193666Y-120139033D02*
X101860333Y-120139033D01*
X101226999Y-120839033D02*
X101626999Y-120839033D01*
X101426999Y-120839033D02*
X101426999Y-120139033D01*
X101426999Y-120139033D02*
X101493666Y-120239033D01*
X101493666Y-120239033D02*
X101560333Y-120305700D01*
X101560333Y-120305700D02*
X101626999Y-120339033D01*
X112420332Y-120172366D02*
X112486999Y-120139033D01*
X112486999Y-120139033D02*
X112586999Y-120139033D01*
X112586999Y-120139033D02*
X112686999Y-120172366D01*
X112686999Y-120172366D02*
X112753666Y-120239033D01*
X112753666Y-120239033D02*
X112786999Y-120305700D01*
X112786999Y-120305700D02*
X112820332Y-120439033D01*
X112820332Y-120439033D02*
X112820332Y-120539033D01*
X112820332Y-120539033D02*
X112786999Y-120672366D01*
X112786999Y-120672366D02*
X112753666Y-120739033D01*
X112753666Y-120739033D02*
X112686999Y-120805700D01*
X112686999Y-120805700D02*
X112586999Y-120839033D01*
X112586999Y-120839033D02*
X112520332Y-120839033D01*
X112520332Y-120839033D02*
X112420332Y-120805700D01*
X112420332Y-120805700D02*
X112386999Y-120772366D01*
X112386999Y-120772366D02*
X112386999Y-120539033D01*
X112386999Y-120539033D02*
X112520332Y-120539033D01*
X112086999Y-120839033D02*
X112086999Y-120139033D01*
X112086999Y-120139033D02*
X111686999Y-120839033D01*
X111686999Y-120839033D02*
X111686999Y-120139033D01*
X111353666Y-120839033D02*
X111353666Y-120139033D01*
X111353666Y-120139033D02*
X111186999Y-120139033D01*
X111186999Y-120139033D02*
X111086999Y-120172366D01*
X111086999Y-120172366D02*
X111020333Y-120239033D01*
X111020333Y-120239033D02*
X110986999Y-120305700D01*
X110986999Y-120305700D02*
X110953666Y-120439033D01*
X110953666Y-120439033D02*
X110953666Y-120539033D01*
X110953666Y-120539033D02*
X110986999Y-120672366D01*
X110986999Y-120672366D02*
X111020333Y-120739033D01*
X111020333Y-120739033D02*
X111086999Y-120805700D01*
X111086999Y-120805700D02*
X111186999Y-120839033D01*
X111186999Y-120839033D02*
X111353666Y-120839033D01*
X107040333Y-120472366D02*
X107273666Y-120472366D01*
X107273666Y-120839033D02*
X107273666Y-120139033D01*
X107273666Y-120139033D02*
X106940333Y-120139033D01*
X106373666Y-120372366D02*
X106373666Y-120839033D01*
X106540333Y-120105700D02*
X106706999Y-120605700D01*
X106706999Y-120605700D02*
X106273666Y-120605700D01*
X109580333Y-120472366D02*
X109813666Y-120472366D01*
X109813666Y-120839033D02*
X109813666Y-120139033D01*
X109813666Y-120139033D02*
X109480333Y-120139033D01*
X108880333Y-120139033D02*
X109213666Y-120139033D01*
X109213666Y-120139033D02*
X109246999Y-120472366D01*
X109246999Y-120472366D02*
X109213666Y-120439033D01*
X109213666Y-120439033D02*
X109146999Y-120405700D01*
X109146999Y-120405700D02*
X108980333Y-120405700D01*
X108980333Y-120405700D02*
X108913666Y-120439033D01*
X108913666Y-120439033D02*
X108880333Y-120472366D01*
X108880333Y-120472366D02*
X108846999Y-120539033D01*
X108846999Y-120539033D02*
X108846999Y-120705700D01*
X108846999Y-120705700D02*
X108880333Y-120772366D01*
X108880333Y-120772366D02*
X108913666Y-120805700D01*
X108913666Y-120805700D02*
X108980333Y-120839033D01*
X108980333Y-120839033D02*
X109146999Y-120839033D01*
X109146999Y-120839033D02*
X109213666Y-120805700D01*
X109213666Y-120805700D02*
X109246999Y-120772366D01*
X104500333Y-120472366D02*
X104733666Y-120472366D01*
X104733666Y-120839033D02*
X104733666Y-120139033D01*
X104733666Y-120139033D02*
X104400333Y-120139033D01*
X104000333Y-120139033D02*
X103933666Y-120139033D01*
X103933666Y-120139033D02*
X103866999Y-120172366D01*
X103866999Y-120172366D02*
X103833666Y-120205700D01*
X103833666Y-120205700D02*
X103800333Y-120272366D01*
X103800333Y-120272366D02*
X103766999Y-120405700D01*
X103766999Y-120405700D02*
X103766999Y-120572366D01*
X103766999Y-120572366D02*
X103800333Y-120705700D01*
X103800333Y-120705700D02*
X103833666Y-120772366D01*
X103833666Y-120772366D02*
X103866999Y-120805700D01*
X103866999Y-120805700D02*
X103933666Y-120839033D01*
X103933666Y-120839033D02*
X104000333Y-120839033D01*
X104000333Y-120839033D02*
X104066999Y-120805700D01*
X104066999Y-120805700D02*
X104100333Y-120772366D01*
X104100333Y-120772366D02*
X104133666Y-120705700D01*
X104133666Y-120705700D02*
X104166999Y-120572366D01*
X104166999Y-120572366D02*
X104166999Y-120405700D01*
X104166999Y-120405700D02*
X104133666Y-120272366D01*
X104133666Y-120272366D02*
X104100333Y-120205700D01*
X104100333Y-120205700D02*
X104066999Y-120172366D01*
X104066999Y-120172366D02*
X104000333Y-120139033D01*
X111537733Y-95678833D02*
X111871066Y-95678833D01*
X111871066Y-95678833D02*
X111904399Y-96012166D01*
X111904399Y-96012166D02*
X111871066Y-95978833D01*
X111871066Y-95978833D02*
X111804399Y-95945500D01*
X111804399Y-95945500D02*
X111637733Y-95945500D01*
X111637733Y-95945500D02*
X111571066Y-95978833D01*
X111571066Y-95978833D02*
X111537733Y-96012166D01*
X111537733Y-96012166D02*
X111504399Y-96078833D01*
X111504399Y-96078833D02*
X111504399Y-96245500D01*
X111504399Y-96245500D02*
X111537733Y-96312166D01*
X111537733Y-96312166D02*
X111571066Y-96345500D01*
X111571066Y-96345500D02*
X111637733Y-96378833D01*
X111637733Y-96378833D02*
X111804399Y-96378833D01*
X111804399Y-96378833D02*
X111871066Y-96345500D01*
X111871066Y-96345500D02*
X111904399Y-96312166D01*
X111304399Y-95678833D02*
X111071066Y-96378833D01*
X111071066Y-96378833D02*
X110837732Y-95678833D01*
X111172599Y-88827100D02*
X111072599Y-88860433D01*
X111072599Y-88860433D02*
X110905933Y-88860433D01*
X110905933Y-88860433D02*
X110839266Y-88827100D01*
X110839266Y-88827100D02*
X110805933Y-88793766D01*
X110805933Y-88793766D02*
X110772599Y-88727100D01*
X110772599Y-88727100D02*
X110772599Y-88660433D01*
X110772599Y-88660433D02*
X110805933Y-88593766D01*
X110805933Y-88593766D02*
X110839266Y-88560433D01*
X110839266Y-88560433D02*
X110905933Y-88527100D01*
X110905933Y-88527100D02*
X111039266Y-88493766D01*
X111039266Y-88493766D02*
X111105933Y-88460433D01*
X111105933Y-88460433D02*
X111139266Y-88427100D01*
X111139266Y-88427100D02*
X111172599Y-88360433D01*
X111172599Y-88360433D02*
X111172599Y-88293766D01*
X111172599Y-88293766D02*
X111139266Y-88227100D01*
X111139266Y-88227100D02*
X111105933Y-88193766D01*
X111105933Y-88193766D02*
X111039266Y-88160433D01*
X111039266Y-88160433D02*
X110872599Y-88160433D01*
X110872599Y-88160433D02*
X110772599Y-88193766D01*
X112115532Y-91267166D02*
X112182199Y-91233833D01*
X112182199Y-91233833D02*
X112282199Y-91233833D01*
X112282199Y-91233833D02*
X112382199Y-91267166D01*
X112382199Y-91267166D02*
X112448866Y-91333833D01*
X112448866Y-91333833D02*
X112482199Y-91400500D01*
X112482199Y-91400500D02*
X112515532Y-91533833D01*
X112515532Y-91533833D02*
X112515532Y-91633833D01*
X112515532Y-91633833D02*
X112482199Y-91767166D01*
X112482199Y-91767166D02*
X112448866Y-91833833D01*
X112448866Y-91833833D02*
X112382199Y-91900500D01*
X112382199Y-91900500D02*
X112282199Y-91933833D01*
X112282199Y-91933833D02*
X112215532Y-91933833D01*
X112215532Y-91933833D02*
X112115532Y-91900500D01*
X112115532Y-91900500D02*
X112082199Y-91867166D01*
X112082199Y-91867166D02*
X112082199Y-91633833D01*
X112082199Y-91633833D02*
X112215532Y-91633833D01*
X111782199Y-91933833D02*
X111782199Y-91233833D01*
X111782199Y-91233833D02*
X111382199Y-91933833D01*
X111382199Y-91933833D02*
X111382199Y-91233833D01*
X111048866Y-91933833D02*
X111048866Y-91233833D01*
X111048866Y-91233833D02*
X110882199Y-91233833D01*
X110882199Y-91233833D02*
X110782199Y-91267166D01*
X110782199Y-91267166D02*
X110715533Y-91333833D01*
X110715533Y-91333833D02*
X110682199Y-91400500D01*
X110682199Y-91400500D02*
X110648866Y-91533833D01*
X110648866Y-91533833D02*
X110648866Y-91633833D01*
X110648866Y-91633833D02*
X110682199Y-91767166D01*
X110682199Y-91767166D02*
X110715533Y-91833833D01*
X110715533Y-91833833D02*
X110782199Y-91900500D01*
X110782199Y-91900500D02*
X110882199Y-91933833D01*
X110882199Y-91933833D02*
X111048866Y-91933833D01*
X109199333Y-102387566D02*
X109432666Y-102387566D01*
X109432666Y-102754233D02*
X109432666Y-102054233D01*
X109432666Y-102054233D02*
X109099333Y-102054233D01*
X108532666Y-102054233D02*
X108665999Y-102054233D01*
X108665999Y-102054233D02*
X108732666Y-102087566D01*
X108732666Y-102087566D02*
X108765999Y-102120900D01*
X108765999Y-102120900D02*
X108832666Y-102220900D01*
X108832666Y-102220900D02*
X108865999Y-102354233D01*
X108865999Y-102354233D02*
X108865999Y-102620900D01*
X108865999Y-102620900D02*
X108832666Y-102687566D01*
X108832666Y-102687566D02*
X108799333Y-102720900D01*
X108799333Y-102720900D02*
X108732666Y-102754233D01*
X108732666Y-102754233D02*
X108599333Y-102754233D01*
X108599333Y-102754233D02*
X108532666Y-102720900D01*
X108532666Y-102720900D02*
X108499333Y-102687566D01*
X108499333Y-102687566D02*
X108465999Y-102620900D01*
X108465999Y-102620900D02*
X108465999Y-102454233D01*
X108465999Y-102454233D02*
X108499333Y-102387566D01*
X108499333Y-102387566D02*
X108532666Y-102354233D01*
X108532666Y-102354233D02*
X108599333Y-102320900D01*
X108599333Y-102320900D02*
X108732666Y-102320900D01*
X108732666Y-102320900D02*
X108799333Y-102354233D01*
X108799333Y-102354233D02*
X108832666Y-102387566D01*
X108832666Y-102387566D02*
X108865999Y-102454233D01*
X109198533Y-112496766D02*
X109098533Y-112530100D01*
X109098533Y-112530100D02*
X109065199Y-112563433D01*
X109065199Y-112563433D02*
X109031866Y-112630100D01*
X109031866Y-112630100D02*
X109031866Y-112730100D01*
X109031866Y-112730100D02*
X109065199Y-112796766D01*
X109065199Y-112796766D02*
X109098533Y-112830100D01*
X109098533Y-112830100D02*
X109165199Y-112863433D01*
X109165199Y-112863433D02*
X109431866Y-112863433D01*
X109431866Y-112863433D02*
X109431866Y-112163433D01*
X109431866Y-112163433D02*
X109198533Y-112163433D01*
X109198533Y-112163433D02*
X109131866Y-112196766D01*
X109131866Y-112196766D02*
X109098533Y-112230100D01*
X109098533Y-112230100D02*
X109065199Y-112296766D01*
X109065199Y-112296766D02*
X109065199Y-112363433D01*
X109065199Y-112363433D02*
X109098533Y-112430100D01*
X109098533Y-112430100D02*
X109131866Y-112463433D01*
X109131866Y-112463433D02*
X109198533Y-112496766D01*
X109198533Y-112496766D02*
X109431866Y-112496766D01*
X108765199Y-112230100D02*
X108731866Y-112196766D01*
X108731866Y-112196766D02*
X108665199Y-112163433D01*
X108665199Y-112163433D02*
X108498533Y-112163433D01*
X108498533Y-112163433D02*
X108431866Y-112196766D01*
X108431866Y-112196766D02*
X108398533Y-112230100D01*
X108398533Y-112230100D02*
X108365199Y-112296766D01*
X108365199Y-112296766D02*
X108365199Y-112363433D01*
X108365199Y-112363433D02*
X108398533Y-112463433D01*
X108398533Y-112463433D02*
X108798533Y-112863433D01*
X108798533Y-112863433D02*
X108365199Y-112863433D01*
X109199333Y-104902166D02*
X109432666Y-104902166D01*
X109432666Y-105268833D02*
X109432666Y-104568833D01*
X109432666Y-104568833D02*
X109099333Y-104568833D01*
X108899333Y-104568833D02*
X108432666Y-104568833D01*
X108432666Y-104568833D02*
X108732666Y-105268833D01*
X109198533Y-107416766D02*
X109098533Y-107450100D01*
X109098533Y-107450100D02*
X109065199Y-107483433D01*
X109065199Y-107483433D02*
X109031866Y-107550100D01*
X109031866Y-107550100D02*
X109031866Y-107650100D01*
X109031866Y-107650100D02*
X109065199Y-107716766D01*
X109065199Y-107716766D02*
X109098533Y-107750100D01*
X109098533Y-107750100D02*
X109165199Y-107783433D01*
X109165199Y-107783433D02*
X109431866Y-107783433D01*
X109431866Y-107783433D02*
X109431866Y-107083433D01*
X109431866Y-107083433D02*
X109198533Y-107083433D01*
X109198533Y-107083433D02*
X109131866Y-107116766D01*
X109131866Y-107116766D02*
X109098533Y-107150100D01*
X109098533Y-107150100D02*
X109065199Y-107216766D01*
X109065199Y-107216766D02*
X109065199Y-107283433D01*
X109065199Y-107283433D02*
X109098533Y-107350100D01*
X109098533Y-107350100D02*
X109131866Y-107383433D01*
X109131866Y-107383433D02*
X109198533Y-107416766D01*
X109198533Y-107416766D02*
X109431866Y-107416766D01*
X108365199Y-107783433D02*
X108765199Y-107783433D01*
X108565199Y-107783433D02*
X108565199Y-107083433D01*
X108565199Y-107083433D02*
X108631866Y-107183433D01*
X108631866Y-107183433D02*
X108698533Y-107250100D01*
X108698533Y-107250100D02*
X108765199Y-107283433D01*
X109198533Y-110007566D02*
X109098533Y-110040900D01*
X109098533Y-110040900D02*
X109065199Y-110074233D01*
X109065199Y-110074233D02*
X109031866Y-110140900D01*
X109031866Y-110140900D02*
X109031866Y-110240900D01*
X109031866Y-110240900D02*
X109065199Y-110307566D01*
X109065199Y-110307566D02*
X109098533Y-110340900D01*
X109098533Y-110340900D02*
X109165199Y-110374233D01*
X109165199Y-110374233D02*
X109431866Y-110374233D01*
X109431866Y-110374233D02*
X109431866Y-109674233D01*
X109431866Y-109674233D02*
X109198533Y-109674233D01*
X109198533Y-109674233D02*
X109131866Y-109707566D01*
X109131866Y-109707566D02*
X109098533Y-109740900D01*
X109098533Y-109740900D02*
X109065199Y-109807566D01*
X109065199Y-109807566D02*
X109065199Y-109874233D01*
X109065199Y-109874233D02*
X109098533Y-109940900D01*
X109098533Y-109940900D02*
X109131866Y-109974233D01*
X109131866Y-109974233D02*
X109198533Y-110007566D01*
X109198533Y-110007566D02*
X109431866Y-110007566D01*
X108798533Y-109674233D02*
X108365199Y-109674233D01*
X108365199Y-109674233D02*
X108598533Y-109940900D01*
X108598533Y-109940900D02*
X108498533Y-109940900D01*
X108498533Y-109940900D02*
X108431866Y-109974233D01*
X108431866Y-109974233D02*
X108398533Y-110007566D01*
X108398533Y-110007566D02*
X108365199Y-110074233D01*
X108365199Y-110074233D02*
X108365199Y-110240900D01*
X108365199Y-110240900D02*
X108398533Y-110307566D01*
X108398533Y-110307566D02*
X108431866Y-110340900D01*
X108431866Y-110340900D02*
X108498533Y-110374233D01*
X108498533Y-110374233D02*
X108698533Y-110374233D01*
X108698533Y-110374233D02*
X108765199Y-110340900D01*
X108765199Y-110340900D02*
X108798533Y-110307566D01*
X109198533Y-115036766D02*
X109098533Y-115070100D01*
X109098533Y-115070100D02*
X109065199Y-115103433D01*
X109065199Y-115103433D02*
X109031866Y-115170100D01*
X109031866Y-115170100D02*
X109031866Y-115270100D01*
X109031866Y-115270100D02*
X109065199Y-115336766D01*
X109065199Y-115336766D02*
X109098533Y-115370100D01*
X109098533Y-115370100D02*
X109165199Y-115403433D01*
X109165199Y-115403433D02*
X109431866Y-115403433D01*
X109431866Y-115403433D02*
X109431866Y-114703433D01*
X109431866Y-114703433D02*
X109198533Y-114703433D01*
X109198533Y-114703433D02*
X109131866Y-114736766D01*
X109131866Y-114736766D02*
X109098533Y-114770100D01*
X109098533Y-114770100D02*
X109065199Y-114836766D01*
X109065199Y-114836766D02*
X109065199Y-114903433D01*
X109065199Y-114903433D02*
X109098533Y-114970100D01*
X109098533Y-114970100D02*
X109131866Y-115003433D01*
X109131866Y-115003433D02*
X109198533Y-115036766D01*
X109198533Y-115036766D02*
X109431866Y-115036766D01*
X108431866Y-114703433D02*
X108565199Y-114703433D01*
X108565199Y-114703433D02*
X108631866Y-114736766D01*
X108631866Y-114736766D02*
X108665199Y-114770100D01*
X108665199Y-114770100D02*
X108731866Y-114870100D01*
X108731866Y-114870100D02*
X108765199Y-115003433D01*
X108765199Y-115003433D02*
X108765199Y-115270100D01*
X108765199Y-115270100D02*
X108731866Y-115336766D01*
X108731866Y-115336766D02*
X108698533Y-115370100D01*
X108698533Y-115370100D02*
X108631866Y-115403433D01*
X108631866Y-115403433D02*
X108498533Y-115403433D01*
X108498533Y-115403433D02*
X108431866Y-115370100D01*
X108431866Y-115370100D02*
X108398533Y-115336766D01*
X108398533Y-115336766D02*
X108365199Y-115270100D01*
X108365199Y-115270100D02*
X108365199Y-115103433D01*
X108365199Y-115103433D02*
X108398533Y-115036766D01*
X108398533Y-115036766D02*
X108431866Y-115003433D01*
X108431866Y-115003433D02*
X108498533Y-114970100D01*
X108498533Y-114970100D02*
X108631866Y-114970100D01*
X108631866Y-114970100D02*
X108698533Y-115003433D01*
X108698533Y-115003433D02*
X108731866Y-115036766D01*
X108731866Y-115036766D02*
X108765199Y-115103433D01*
X104015333Y-123201233D02*
X104248666Y-122867900D01*
X104415333Y-123201233D02*
X104415333Y-122501233D01*
X104415333Y-122501233D02*
X104148666Y-122501233D01*
X104148666Y-122501233D02*
X104082000Y-122534566D01*
X104082000Y-122534566D02*
X104048666Y-122567900D01*
X104048666Y-122567900D02*
X104015333Y-122634566D01*
X104015333Y-122634566D02*
X104015333Y-122734566D01*
X104015333Y-122734566D02*
X104048666Y-122801233D01*
X104048666Y-122801233D02*
X104082000Y-122834566D01*
X104082000Y-122834566D02*
X104148666Y-122867900D01*
X104148666Y-122867900D02*
X104415333Y-122867900D01*
X103748666Y-123167900D02*
X103648666Y-123201233D01*
X103648666Y-123201233D02*
X103482000Y-123201233D01*
X103482000Y-123201233D02*
X103415333Y-123167900D01*
X103415333Y-123167900D02*
X103382000Y-123134566D01*
X103382000Y-123134566D02*
X103348666Y-123067900D01*
X103348666Y-123067900D02*
X103348666Y-123001233D01*
X103348666Y-123001233D02*
X103382000Y-122934566D01*
X103382000Y-122934566D02*
X103415333Y-122901233D01*
X103415333Y-122901233D02*
X103482000Y-122867900D01*
X103482000Y-122867900D02*
X103615333Y-122834566D01*
X103615333Y-122834566D02*
X103682000Y-122801233D01*
X103682000Y-122801233D02*
X103715333Y-122767900D01*
X103715333Y-122767900D02*
X103748666Y-122701233D01*
X103748666Y-122701233D02*
X103748666Y-122634566D01*
X103748666Y-122634566D02*
X103715333Y-122567900D01*
X103715333Y-122567900D02*
X103682000Y-122534566D01*
X103682000Y-122534566D02*
X103615333Y-122501233D01*
X103615333Y-122501233D02*
X103448666Y-122501233D01*
X103448666Y-122501233D02*
X103348666Y-122534566D01*
X103148666Y-122501233D02*
X102748666Y-122501233D01*
X102948666Y-123201233D02*
X102948666Y-122501233D01*
X104165332Y-126217566D02*
X104231999Y-126184233D01*
X104231999Y-126184233D02*
X104331999Y-126184233D01*
X104331999Y-126184233D02*
X104431999Y-126217566D01*
X104431999Y-126217566D02*
X104498666Y-126284233D01*
X104498666Y-126284233D02*
X104531999Y-126350900D01*
X104531999Y-126350900D02*
X104565332Y-126484233D01*
X104565332Y-126484233D02*
X104565332Y-126584233D01*
X104565332Y-126584233D02*
X104531999Y-126717566D01*
X104531999Y-126717566D02*
X104498666Y-126784233D01*
X104498666Y-126784233D02*
X104431999Y-126850900D01*
X104431999Y-126850900D02*
X104331999Y-126884233D01*
X104331999Y-126884233D02*
X104265332Y-126884233D01*
X104265332Y-126884233D02*
X104165332Y-126850900D01*
X104165332Y-126850900D02*
X104131999Y-126817566D01*
X104131999Y-126817566D02*
X104131999Y-126584233D01*
X104131999Y-126584233D02*
X104265332Y-126584233D01*
X103831999Y-126884233D02*
X103831999Y-126184233D01*
X103831999Y-126184233D02*
X103431999Y-126884233D01*
X103431999Y-126884233D02*
X103431999Y-126184233D01*
X103098666Y-126884233D02*
X103098666Y-126184233D01*
X103098666Y-126184233D02*
X102931999Y-126184233D01*
X102931999Y-126184233D02*
X102831999Y-126217566D01*
X102831999Y-126217566D02*
X102765333Y-126284233D01*
X102765333Y-126284233D02*
X102731999Y-126350900D01*
X102731999Y-126350900D02*
X102698666Y-126484233D01*
X102698666Y-126484233D02*
X102698666Y-126584233D01*
X102698666Y-126584233D02*
X102731999Y-126717566D01*
X102731999Y-126717566D02*
X102765333Y-126784233D01*
X102765333Y-126784233D02*
X102831999Y-126850900D01*
X102831999Y-126850900D02*
X102931999Y-126884233D01*
X102931999Y-126884233D02*
X103098666Y-126884233D01*
X94335523Y-94373340D02*
X94411713Y-94335245D01*
X94411713Y-94335245D02*
X94525999Y-94335245D01*
X94525999Y-94335245D02*
X94640285Y-94373340D01*
X94640285Y-94373340D02*
X94716475Y-94449530D01*
X94716475Y-94449530D02*
X94754570Y-94525721D01*
X94754570Y-94525721D02*
X94792666Y-94678102D01*
X94792666Y-94678102D02*
X94792666Y-94792388D01*
X94792666Y-94792388D02*
X94754570Y-94944769D01*
X94754570Y-94944769D02*
X94716475Y-95020959D01*
X94716475Y-95020959D02*
X94640285Y-95097150D01*
X94640285Y-95097150D02*
X94525999Y-95135245D01*
X94525999Y-95135245D02*
X94449808Y-95135245D01*
X94449808Y-95135245D02*
X94335523Y-95097150D01*
X94335523Y-95097150D02*
X94297427Y-95059054D01*
X94297427Y-95059054D02*
X94297427Y-94792388D01*
X94297427Y-94792388D02*
X94449808Y-94792388D01*
X93954570Y-95135245D02*
X93954570Y-94335245D01*
X93954570Y-94335245D02*
X93497427Y-95135245D01*
X93497427Y-95135245D02*
X93497427Y-94335245D01*
X93116475Y-95135245D02*
X93116475Y-94335245D01*
X93116475Y-94335245D02*
X92925999Y-94335245D01*
X92925999Y-94335245D02*
X92811713Y-94373340D01*
X92811713Y-94373340D02*
X92735523Y-94449530D01*
X92735523Y-94449530D02*
X92697428Y-94525721D01*
X92697428Y-94525721D02*
X92659332Y-94678102D01*
X92659332Y-94678102D02*
X92659332Y-94792388D01*
X92659332Y-94792388D02*
X92697428Y-94944769D01*
X92697428Y-94944769D02*
X92735523Y-95020959D01*
X92735523Y-95020959D02*
X92811713Y-95097150D01*
X92811713Y-95097150D02*
X92925999Y-95135245D01*
X92925999Y-95135245D02*
X93116475Y-95135245D01*
X105257523Y-89293340D02*
X105333713Y-89255245D01*
X105333713Y-89255245D02*
X105447999Y-89255245D01*
X105447999Y-89255245D02*
X105562285Y-89293340D01*
X105562285Y-89293340D02*
X105638475Y-89369530D01*
X105638475Y-89369530D02*
X105676570Y-89445721D01*
X105676570Y-89445721D02*
X105714666Y-89598102D01*
X105714666Y-89598102D02*
X105714666Y-89712388D01*
X105714666Y-89712388D02*
X105676570Y-89864769D01*
X105676570Y-89864769D02*
X105638475Y-89940959D01*
X105638475Y-89940959D02*
X105562285Y-90017150D01*
X105562285Y-90017150D02*
X105447999Y-90055245D01*
X105447999Y-90055245D02*
X105371808Y-90055245D01*
X105371808Y-90055245D02*
X105257523Y-90017150D01*
X105257523Y-90017150D02*
X105219427Y-89979054D01*
X105219427Y-89979054D02*
X105219427Y-89712388D01*
X105219427Y-89712388D02*
X105371808Y-89712388D01*
X104876570Y-90055245D02*
X104876570Y-89255245D01*
X104876570Y-89255245D02*
X104419427Y-90055245D01*
X104419427Y-90055245D02*
X104419427Y-89255245D01*
X104038475Y-90055245D02*
X104038475Y-89255245D01*
X104038475Y-89255245D02*
X103847999Y-89255245D01*
X103847999Y-89255245D02*
X103733713Y-89293340D01*
X103733713Y-89293340D02*
X103657523Y-89369530D01*
X103657523Y-89369530D02*
X103619428Y-89445721D01*
X103619428Y-89445721D02*
X103581332Y-89598102D01*
X103581332Y-89598102D02*
X103581332Y-89712388D01*
X103581332Y-89712388D02*
X103619428Y-89864769D01*
X103619428Y-89864769D02*
X103657523Y-89940959D01*
X103657523Y-89940959D02*
X103733713Y-90017150D01*
X103733713Y-90017150D02*
X103847999Y-90055245D01*
X103847999Y-90055245D02*
X104038475Y-90055245D01*
X105714666Y-94335245D02*
X105447999Y-95135245D01*
X105447999Y-95135245D02*
X105181333Y-94335245D01*
X104457523Y-95059054D02*
X104495619Y-95097150D01*
X104495619Y-95097150D02*
X104609904Y-95135245D01*
X104609904Y-95135245D02*
X104686095Y-95135245D01*
X104686095Y-95135245D02*
X104800381Y-95097150D01*
X104800381Y-95097150D02*
X104876571Y-95020959D01*
X104876571Y-95020959D02*
X104914666Y-94944769D01*
X104914666Y-94944769D02*
X104952762Y-94792388D01*
X104952762Y-94792388D02*
X104952762Y-94678102D01*
X104952762Y-94678102D02*
X104914666Y-94525721D01*
X104914666Y-94525721D02*
X104876571Y-94449530D01*
X104876571Y-94449530D02*
X104800381Y-94373340D01*
X104800381Y-94373340D02*
X104686095Y-94335245D01*
X104686095Y-94335245D02*
X104609904Y-94335245D01*
X104609904Y-94335245D02*
X104495619Y-94373340D01*
X104495619Y-94373340D02*
X104457523Y-94411435D01*
X103657523Y-95059054D02*
X103695619Y-95097150D01*
X103695619Y-95097150D02*
X103809904Y-95135245D01*
X103809904Y-95135245D02*
X103886095Y-95135245D01*
X103886095Y-95135245D02*
X104000381Y-95097150D01*
X104000381Y-95097150D02*
X104076571Y-95020959D01*
X104076571Y-95020959D02*
X104114666Y-94944769D01*
X104114666Y-94944769D02*
X104152762Y-94792388D01*
X104152762Y-94792388D02*
X104152762Y-94678102D01*
X104152762Y-94678102D02*
X104114666Y-94525721D01*
X104114666Y-94525721D02*
X104076571Y-94449530D01*
X104076571Y-94449530D02*
X104000381Y-94373340D01*
X104000381Y-94373340D02*
X103886095Y-94335245D01*
X103886095Y-94335245D02*
X103809904Y-94335245D01*
X103809904Y-94335245D02*
X103695619Y-94373340D01*
X103695619Y-94373340D02*
X103657523Y-94411435D01*
X94335523Y-91833340D02*
X94411713Y-91795245D01*
X94411713Y-91795245D02*
X94525999Y-91795245D01*
X94525999Y-91795245D02*
X94640285Y-91833340D01*
X94640285Y-91833340D02*
X94716475Y-91909530D01*
X94716475Y-91909530D02*
X94754570Y-91985721D01*
X94754570Y-91985721D02*
X94792666Y-92138102D01*
X94792666Y-92138102D02*
X94792666Y-92252388D01*
X94792666Y-92252388D02*
X94754570Y-92404769D01*
X94754570Y-92404769D02*
X94716475Y-92480959D01*
X94716475Y-92480959D02*
X94640285Y-92557150D01*
X94640285Y-92557150D02*
X94525999Y-92595245D01*
X94525999Y-92595245D02*
X94449808Y-92595245D01*
X94449808Y-92595245D02*
X94335523Y-92557150D01*
X94335523Y-92557150D02*
X94297427Y-92519054D01*
X94297427Y-92519054D02*
X94297427Y-92252388D01*
X94297427Y-92252388D02*
X94449808Y-92252388D01*
X93954570Y-92595245D02*
X93954570Y-91795245D01*
X93954570Y-91795245D02*
X93497427Y-92595245D01*
X93497427Y-92595245D02*
X93497427Y-91795245D01*
X93116475Y-92595245D02*
X93116475Y-91795245D01*
X93116475Y-91795245D02*
X92925999Y-91795245D01*
X92925999Y-91795245D02*
X92811713Y-91833340D01*
X92811713Y-91833340D02*
X92735523Y-91909530D01*
X92735523Y-91909530D02*
X92697428Y-91985721D01*
X92697428Y-91985721D02*
X92659332Y-92138102D01*
X92659332Y-92138102D02*
X92659332Y-92252388D01*
X92659332Y-92252388D02*
X92697428Y-92404769D01*
X92697428Y-92404769D02*
X92735523Y-92480959D01*
X92735523Y-92480959D02*
X92811713Y-92557150D01*
X92811713Y-92557150D02*
X92925999Y-92595245D01*
X92925999Y-92595245D02*
X93116475Y-92595245D01*
X105086094Y-92665895D02*
X105352761Y-92284942D01*
X105543237Y-92665895D02*
X105543237Y-91865895D01*
X105543237Y-91865895D02*
X105238475Y-91865895D01*
X105238475Y-91865895D02*
X105162285Y-91903990D01*
X105162285Y-91903990D02*
X105124190Y-91942085D01*
X105124190Y-91942085D02*
X105086094Y-92018276D01*
X105086094Y-92018276D02*
X105086094Y-92132561D01*
X105086094Y-92132561D02*
X105124190Y-92208752D01*
X105124190Y-92208752D02*
X105162285Y-92246847D01*
X105162285Y-92246847D02*
X105238475Y-92284942D01*
X105238475Y-92284942D02*
X105543237Y-92284942D01*
X104781333Y-92627800D02*
X104667047Y-92665895D01*
X104667047Y-92665895D02*
X104476571Y-92665895D01*
X104476571Y-92665895D02*
X104400380Y-92627800D01*
X104400380Y-92627800D02*
X104362285Y-92589704D01*
X104362285Y-92589704D02*
X104324190Y-92513514D01*
X104324190Y-92513514D02*
X104324190Y-92437323D01*
X104324190Y-92437323D02*
X104362285Y-92361133D01*
X104362285Y-92361133D02*
X104400380Y-92323038D01*
X104400380Y-92323038D02*
X104476571Y-92284942D01*
X104476571Y-92284942D02*
X104628952Y-92246847D01*
X104628952Y-92246847D02*
X104705142Y-92208752D01*
X104705142Y-92208752D02*
X104743237Y-92170657D01*
X104743237Y-92170657D02*
X104781333Y-92094466D01*
X104781333Y-92094466D02*
X104781333Y-92018276D01*
X104781333Y-92018276D02*
X104743237Y-91942085D01*
X104743237Y-91942085D02*
X104705142Y-91903990D01*
X104705142Y-91903990D02*
X104628952Y-91865895D01*
X104628952Y-91865895D02*
X104438475Y-91865895D01*
X104438475Y-91865895D02*
X104324190Y-91903990D01*
X104095618Y-91865895D02*
X103638475Y-91865895D01*
X103867047Y-92665895D02*
X103867047Y-91865895D01*
X86285866Y-100191433D02*
X86285866Y-99491433D01*
X86285866Y-99491433D02*
X86119199Y-99491433D01*
X86119199Y-99491433D02*
X86019199Y-99524766D01*
X86019199Y-99524766D02*
X85952533Y-99591433D01*
X85952533Y-99591433D02*
X85919199Y-99658100D01*
X85919199Y-99658100D02*
X85885866Y-99791433D01*
X85885866Y-99791433D02*
X85885866Y-99891433D01*
X85885866Y-99891433D02*
X85919199Y-100024766D01*
X85919199Y-100024766D02*
X85952533Y-100091433D01*
X85952533Y-100091433D02*
X86019199Y-100158100D01*
X86019199Y-100158100D02*
X86119199Y-100191433D01*
X86119199Y-100191433D02*
X86285866Y-100191433D01*
X85452533Y-99491433D02*
X85385866Y-99491433D01*
X85385866Y-99491433D02*
X85319199Y-99524766D01*
X85319199Y-99524766D02*
X85285866Y-99558100D01*
X85285866Y-99558100D02*
X85252533Y-99624766D01*
X85252533Y-99624766D02*
X85219199Y-99758100D01*
X85219199Y-99758100D02*
X85219199Y-99924766D01*
X85219199Y-99924766D02*
X85252533Y-100058100D01*
X85252533Y-100058100D02*
X85285866Y-100124766D01*
X85285866Y-100124766D02*
X85319199Y-100158100D01*
X85319199Y-100158100D02*
X85385866Y-100191433D01*
X85385866Y-100191433D02*
X85452533Y-100191433D01*
X85452533Y-100191433D02*
X85519199Y-100158100D01*
X85519199Y-100158100D02*
X85552533Y-100124766D01*
X85552533Y-100124766D02*
X85585866Y-100058100D01*
X85585866Y-100058100D02*
X85619199Y-99924766D01*
X85619199Y-99924766D02*
X85619199Y-99758100D01*
X85619199Y-99758100D02*
X85585866Y-99624766D01*
X85585866Y-99624766D02*
X85552533Y-99558100D01*
X85552533Y-99558100D02*
X85519199Y-99524766D01*
X85519199Y-99524766D02*
X85452533Y-99491433D01*
X85885866Y-105230166D02*
X85919199Y-105263500D01*
X85919199Y-105263500D02*
X86019199Y-105296833D01*
X86019199Y-105296833D02*
X86085866Y-105296833D01*
X86085866Y-105296833D02*
X86185866Y-105263500D01*
X86185866Y-105263500D02*
X86252533Y-105196833D01*
X86252533Y-105196833D02*
X86285866Y-105130166D01*
X86285866Y-105130166D02*
X86319199Y-104996833D01*
X86319199Y-104996833D02*
X86319199Y-104896833D01*
X86319199Y-104896833D02*
X86285866Y-104763500D01*
X86285866Y-104763500D02*
X86252533Y-104696833D01*
X86252533Y-104696833D02*
X86185866Y-104630166D01*
X86185866Y-104630166D02*
X86085866Y-104596833D01*
X86085866Y-104596833D02*
X86019199Y-104596833D01*
X86019199Y-104596833D02*
X85919199Y-104630166D01*
X85919199Y-104630166D02*
X85885866Y-104663500D01*
X85285866Y-104596833D02*
X85419199Y-104596833D01*
X85419199Y-104596833D02*
X85485866Y-104630166D01*
X85485866Y-104630166D02*
X85519199Y-104663500D01*
X85519199Y-104663500D02*
X85585866Y-104763500D01*
X85585866Y-104763500D02*
X85619199Y-104896833D01*
X85619199Y-104896833D02*
X85619199Y-105163500D01*
X85619199Y-105163500D02*
X85585866Y-105230166D01*
X85585866Y-105230166D02*
X85552533Y-105263500D01*
X85552533Y-105263500D02*
X85485866Y-105296833D01*
X85485866Y-105296833D02*
X85352533Y-105296833D01*
X85352533Y-105296833D02*
X85285866Y-105263500D01*
X85285866Y-105263500D02*
X85252533Y-105230166D01*
X85252533Y-105230166D02*
X85219199Y-105163500D01*
X85219199Y-105163500D02*
X85219199Y-104996833D01*
X85219199Y-104996833D02*
X85252533Y-104930166D01*
X85252533Y-104930166D02*
X85285866Y-104896833D01*
X85285866Y-104896833D02*
X85352533Y-104863500D01*
X85352533Y-104863500D02*
X85485866Y-104863500D01*
X85485866Y-104863500D02*
X85552533Y-104896833D01*
X85552533Y-104896833D02*
X85585866Y-104930166D01*
X85585866Y-104930166D02*
X85619199Y-104996833D01*
X86311266Y-102782233D02*
X86311266Y-102082233D01*
X86311266Y-102082233D02*
X86144599Y-102082233D01*
X86144599Y-102082233D02*
X86044599Y-102115566D01*
X86044599Y-102115566D02*
X85977933Y-102182233D01*
X85977933Y-102182233D02*
X85944599Y-102248900D01*
X85944599Y-102248900D02*
X85911266Y-102382233D01*
X85911266Y-102382233D02*
X85911266Y-102482233D01*
X85911266Y-102482233D02*
X85944599Y-102615566D01*
X85944599Y-102615566D02*
X85977933Y-102682233D01*
X85977933Y-102682233D02*
X86044599Y-102748900D01*
X86044599Y-102748900D02*
X86144599Y-102782233D01*
X86144599Y-102782233D02*
X86311266Y-102782233D01*
X85311266Y-102315566D02*
X85311266Y-102782233D01*
X85477933Y-102048900D02*
X85644599Y-102548900D01*
X85644599Y-102548900D02*
X85211266Y-102548900D01*
X86285866Y-107836833D02*
X86285866Y-107136833D01*
X86285866Y-107136833D02*
X86119199Y-107136833D01*
X86119199Y-107136833D02*
X86019199Y-107170166D01*
X86019199Y-107170166D02*
X85952533Y-107236833D01*
X85952533Y-107236833D02*
X85919199Y-107303500D01*
X85919199Y-107303500D02*
X85885866Y-107436833D01*
X85885866Y-107436833D02*
X85885866Y-107536833D01*
X85885866Y-107536833D02*
X85919199Y-107670166D01*
X85919199Y-107670166D02*
X85952533Y-107736833D01*
X85952533Y-107736833D02*
X86019199Y-107803500D01*
X86019199Y-107803500D02*
X86119199Y-107836833D01*
X86119199Y-107836833D02*
X86285866Y-107836833D01*
X85652533Y-107136833D02*
X85185866Y-107136833D01*
X85185866Y-107136833D02*
X85485866Y-107836833D01*
X86052533Y-115090166D02*
X85952533Y-115123500D01*
X85952533Y-115123500D02*
X85919199Y-115156833D01*
X85919199Y-115156833D02*
X85885866Y-115223500D01*
X85885866Y-115223500D02*
X85885866Y-115323500D01*
X85885866Y-115323500D02*
X85919199Y-115390166D01*
X85919199Y-115390166D02*
X85952533Y-115423500D01*
X85952533Y-115423500D02*
X86019199Y-115456833D01*
X86019199Y-115456833D02*
X86285866Y-115456833D01*
X86285866Y-115456833D02*
X86285866Y-114756833D01*
X86285866Y-114756833D02*
X86052533Y-114756833D01*
X86052533Y-114756833D02*
X85985866Y-114790166D01*
X85985866Y-114790166D02*
X85952533Y-114823500D01*
X85952533Y-114823500D02*
X85919199Y-114890166D01*
X85919199Y-114890166D02*
X85919199Y-114956833D01*
X85919199Y-114956833D02*
X85952533Y-115023500D01*
X85952533Y-115023500D02*
X85985866Y-115056833D01*
X85985866Y-115056833D02*
X86052533Y-115090166D01*
X86052533Y-115090166D02*
X86285866Y-115090166D01*
X85252533Y-114756833D02*
X85585866Y-114756833D01*
X85585866Y-114756833D02*
X85619199Y-115090166D01*
X85619199Y-115090166D02*
X85585866Y-115056833D01*
X85585866Y-115056833D02*
X85519199Y-115023500D01*
X85519199Y-115023500D02*
X85352533Y-115023500D01*
X85352533Y-115023500D02*
X85285866Y-115056833D01*
X85285866Y-115056833D02*
X85252533Y-115090166D01*
X85252533Y-115090166D02*
X85219199Y-115156833D01*
X85219199Y-115156833D02*
X85219199Y-115323500D01*
X85219199Y-115323500D02*
X85252533Y-115390166D01*
X85252533Y-115390166D02*
X85285866Y-115423500D01*
X85285866Y-115423500D02*
X85352533Y-115456833D01*
X85352533Y-115456833D02*
X85519199Y-115456833D01*
X85519199Y-115456833D02*
X85585866Y-115423500D01*
X85585866Y-115423500D02*
X85619199Y-115390166D01*
X86277933Y-109984766D02*
X86044600Y-109984766D01*
X85944600Y-110351433D02*
X86277933Y-110351433D01*
X86277933Y-110351433D02*
X86277933Y-109651433D01*
X86277933Y-109651433D02*
X85944600Y-109651433D01*
X85344600Y-109651433D02*
X85477933Y-109651433D01*
X85477933Y-109651433D02*
X85544600Y-109684766D01*
X85544600Y-109684766D02*
X85577933Y-109718100D01*
X85577933Y-109718100D02*
X85644600Y-109818100D01*
X85644600Y-109818100D02*
X85677933Y-109951433D01*
X85677933Y-109951433D02*
X85677933Y-110218100D01*
X85677933Y-110218100D02*
X85644600Y-110284766D01*
X85644600Y-110284766D02*
X85611267Y-110318100D01*
X85611267Y-110318100D02*
X85544600Y-110351433D01*
X85544600Y-110351433D02*
X85411267Y-110351433D01*
X85411267Y-110351433D02*
X85344600Y-110318100D01*
X85344600Y-110318100D02*
X85311267Y-110284766D01*
X85311267Y-110284766D02*
X85277933Y-110218100D01*
X85277933Y-110218100D02*
X85277933Y-110051433D01*
X85277933Y-110051433D02*
X85311267Y-109984766D01*
X85311267Y-109984766D02*
X85344600Y-109951433D01*
X85344600Y-109951433D02*
X85411267Y-109918100D01*
X85411267Y-109918100D02*
X85544600Y-109918100D01*
X85544600Y-109918100D02*
X85611267Y-109951433D01*
X85611267Y-109951433D02*
X85644600Y-109984766D01*
X85644600Y-109984766D02*
X85677933Y-110051433D01*
X86052533Y-112524766D02*
X85952533Y-112558100D01*
X85952533Y-112558100D02*
X85919199Y-112591433D01*
X85919199Y-112591433D02*
X85885866Y-112658100D01*
X85885866Y-112658100D02*
X85885866Y-112758100D01*
X85885866Y-112758100D02*
X85919199Y-112824766D01*
X85919199Y-112824766D02*
X85952533Y-112858100D01*
X85952533Y-112858100D02*
X86019199Y-112891433D01*
X86019199Y-112891433D02*
X86285866Y-112891433D01*
X86285866Y-112891433D02*
X86285866Y-112191433D01*
X86285866Y-112191433D02*
X86052533Y-112191433D01*
X86052533Y-112191433D02*
X85985866Y-112224766D01*
X85985866Y-112224766D02*
X85952533Y-112258100D01*
X85952533Y-112258100D02*
X85919199Y-112324766D01*
X85919199Y-112324766D02*
X85919199Y-112391433D01*
X85919199Y-112391433D02*
X85952533Y-112458100D01*
X85952533Y-112458100D02*
X85985866Y-112491433D01*
X85985866Y-112491433D02*
X86052533Y-112524766D01*
X86052533Y-112524766D02*
X86285866Y-112524766D01*
X85285866Y-112424766D02*
X85285866Y-112891433D01*
X85452533Y-112158100D02*
X85619199Y-112658100D01*
X85619199Y-112658100D02*
X85185866Y-112658100D01*
X112562466Y-105250166D02*
X112595799Y-105283500D01*
X112595799Y-105283500D02*
X112695799Y-105316833D01*
X112695799Y-105316833D02*
X112762466Y-105316833D01*
X112762466Y-105316833D02*
X112862466Y-105283500D01*
X112862466Y-105283500D02*
X112929133Y-105216833D01*
X112929133Y-105216833D02*
X112962466Y-105150166D01*
X112962466Y-105150166D02*
X112995799Y-105016833D01*
X112995799Y-105016833D02*
X112995799Y-104916833D01*
X112995799Y-104916833D02*
X112962466Y-104783500D01*
X112962466Y-104783500D02*
X112929133Y-104716833D01*
X112929133Y-104716833D02*
X112862466Y-104650166D01*
X112862466Y-104650166D02*
X112762466Y-104616833D01*
X112762466Y-104616833D02*
X112695799Y-104616833D01*
X112695799Y-104616833D02*
X112595799Y-104650166D01*
X112595799Y-104650166D02*
X112562466Y-104683500D01*
X111962466Y-104616833D02*
X112095799Y-104616833D01*
X112095799Y-104616833D02*
X112162466Y-104650166D01*
X112162466Y-104650166D02*
X112195799Y-104683500D01*
X112195799Y-104683500D02*
X112262466Y-104783500D01*
X112262466Y-104783500D02*
X112295799Y-104916833D01*
X112295799Y-104916833D02*
X112295799Y-105183500D01*
X112295799Y-105183500D02*
X112262466Y-105250166D01*
X112262466Y-105250166D02*
X112229133Y-105283500D01*
X112229133Y-105283500D02*
X112162466Y-105316833D01*
X112162466Y-105316833D02*
X112029133Y-105316833D01*
X112029133Y-105316833D02*
X111962466Y-105283500D01*
X111962466Y-105283500D02*
X111929133Y-105250166D01*
X111929133Y-105250166D02*
X111895799Y-105183500D01*
X111895799Y-105183500D02*
X111895799Y-105016833D01*
X111895799Y-105016833D02*
X111929133Y-104950166D01*
X111929133Y-104950166D02*
X111962466Y-104916833D01*
X111962466Y-104916833D02*
X112029133Y-104883500D01*
X112029133Y-104883500D02*
X112162466Y-104883500D01*
X112162466Y-104883500D02*
X112229133Y-104916833D01*
X112229133Y-104916833D02*
X112262466Y-104950166D01*
X112262466Y-104950166D02*
X112295799Y-105016833D01*
X112987866Y-100236833D02*
X112987866Y-99536833D01*
X112987866Y-99536833D02*
X112821199Y-99536833D01*
X112821199Y-99536833D02*
X112721199Y-99570166D01*
X112721199Y-99570166D02*
X112654533Y-99636833D01*
X112654533Y-99636833D02*
X112621199Y-99703500D01*
X112621199Y-99703500D02*
X112587866Y-99836833D01*
X112587866Y-99836833D02*
X112587866Y-99936833D01*
X112587866Y-99936833D02*
X112621199Y-100070166D01*
X112621199Y-100070166D02*
X112654533Y-100136833D01*
X112654533Y-100136833D02*
X112721199Y-100203500D01*
X112721199Y-100203500D02*
X112821199Y-100236833D01*
X112821199Y-100236833D02*
X112987866Y-100236833D01*
X112154533Y-99536833D02*
X112087866Y-99536833D01*
X112087866Y-99536833D02*
X112021199Y-99570166D01*
X112021199Y-99570166D02*
X111987866Y-99603500D01*
X111987866Y-99603500D02*
X111954533Y-99670166D01*
X111954533Y-99670166D02*
X111921199Y-99803500D01*
X111921199Y-99803500D02*
X111921199Y-99970166D01*
X111921199Y-99970166D02*
X111954533Y-100103500D01*
X111954533Y-100103500D02*
X111987866Y-100170166D01*
X111987866Y-100170166D02*
X112021199Y-100203500D01*
X112021199Y-100203500D02*
X112087866Y-100236833D01*
X112087866Y-100236833D02*
X112154533Y-100236833D01*
X112154533Y-100236833D02*
X112221199Y-100203500D01*
X112221199Y-100203500D02*
X112254533Y-100170166D01*
X112254533Y-100170166D02*
X112287866Y-100103500D01*
X112287866Y-100103500D02*
X112321199Y-99970166D01*
X112321199Y-99970166D02*
X112321199Y-99803500D01*
X112321199Y-99803500D02*
X112287866Y-99670166D01*
X112287866Y-99670166D02*
X112254533Y-99603500D01*
X112254533Y-99603500D02*
X112221199Y-99570166D01*
X112221199Y-99570166D02*
X112154533Y-99536833D01*
X112987866Y-102776833D02*
X112987866Y-102076833D01*
X112987866Y-102076833D02*
X112821199Y-102076833D01*
X112821199Y-102076833D02*
X112721199Y-102110166D01*
X112721199Y-102110166D02*
X112654533Y-102176833D01*
X112654533Y-102176833D02*
X112621199Y-102243500D01*
X112621199Y-102243500D02*
X112587866Y-102376833D01*
X112587866Y-102376833D02*
X112587866Y-102476833D01*
X112587866Y-102476833D02*
X112621199Y-102610166D01*
X112621199Y-102610166D02*
X112654533Y-102676833D01*
X112654533Y-102676833D02*
X112721199Y-102743500D01*
X112721199Y-102743500D02*
X112821199Y-102776833D01*
X112821199Y-102776833D02*
X112987866Y-102776833D01*
X111987866Y-102310166D02*
X111987866Y-102776833D01*
X112154533Y-102043500D02*
X112321199Y-102543500D01*
X112321199Y-102543500D02*
X111887866Y-102543500D01*
X112954533Y-110055566D02*
X112721200Y-110055566D01*
X112621200Y-110422233D02*
X112954533Y-110422233D01*
X112954533Y-110422233D02*
X112954533Y-109722233D01*
X112954533Y-109722233D02*
X112621200Y-109722233D01*
X112021200Y-109722233D02*
X112154533Y-109722233D01*
X112154533Y-109722233D02*
X112221200Y-109755566D01*
X112221200Y-109755566D02*
X112254533Y-109788900D01*
X112254533Y-109788900D02*
X112321200Y-109888900D01*
X112321200Y-109888900D02*
X112354533Y-110022233D01*
X112354533Y-110022233D02*
X112354533Y-110288900D01*
X112354533Y-110288900D02*
X112321200Y-110355566D01*
X112321200Y-110355566D02*
X112287867Y-110388900D01*
X112287867Y-110388900D02*
X112221200Y-110422233D01*
X112221200Y-110422233D02*
X112087867Y-110422233D01*
X112087867Y-110422233D02*
X112021200Y-110388900D01*
X112021200Y-110388900D02*
X111987867Y-110355566D01*
X111987867Y-110355566D02*
X111954533Y-110288900D01*
X111954533Y-110288900D02*
X111954533Y-110122233D01*
X111954533Y-110122233D02*
X111987867Y-110055566D01*
X111987867Y-110055566D02*
X112021200Y-110022233D01*
X112021200Y-110022233D02*
X112087867Y-109988900D01*
X112087867Y-109988900D02*
X112221200Y-109988900D01*
X112221200Y-109988900D02*
X112287867Y-110022233D01*
X112287867Y-110022233D02*
X112321200Y-110055566D01*
X112321200Y-110055566D02*
X112354533Y-110122233D01*
X112754533Y-112570166D02*
X112654533Y-112603500D01*
X112654533Y-112603500D02*
X112621199Y-112636833D01*
X112621199Y-112636833D02*
X112587866Y-112703500D01*
X112587866Y-112703500D02*
X112587866Y-112803500D01*
X112587866Y-112803500D02*
X112621199Y-112870166D01*
X112621199Y-112870166D02*
X112654533Y-112903500D01*
X112654533Y-112903500D02*
X112721199Y-112936833D01*
X112721199Y-112936833D02*
X112987866Y-112936833D01*
X112987866Y-112936833D02*
X112987866Y-112236833D01*
X112987866Y-112236833D02*
X112754533Y-112236833D01*
X112754533Y-112236833D02*
X112687866Y-112270166D01*
X112687866Y-112270166D02*
X112654533Y-112303500D01*
X112654533Y-112303500D02*
X112621199Y-112370166D01*
X112621199Y-112370166D02*
X112621199Y-112436833D01*
X112621199Y-112436833D02*
X112654533Y-112503500D01*
X112654533Y-112503500D02*
X112687866Y-112536833D01*
X112687866Y-112536833D02*
X112754533Y-112570166D01*
X112754533Y-112570166D02*
X112987866Y-112570166D01*
X111987866Y-112470166D02*
X111987866Y-112936833D01*
X112154533Y-112203500D02*
X112321199Y-112703500D01*
X112321199Y-112703500D02*
X111887866Y-112703500D01*
X112987866Y-107831433D02*
X112987866Y-107131433D01*
X112987866Y-107131433D02*
X112821199Y-107131433D01*
X112821199Y-107131433D02*
X112721199Y-107164766D01*
X112721199Y-107164766D02*
X112654533Y-107231433D01*
X112654533Y-107231433D02*
X112621199Y-107298100D01*
X112621199Y-107298100D02*
X112587866Y-107431433D01*
X112587866Y-107431433D02*
X112587866Y-107531433D01*
X112587866Y-107531433D02*
X112621199Y-107664766D01*
X112621199Y-107664766D02*
X112654533Y-107731433D01*
X112654533Y-107731433D02*
X112721199Y-107798100D01*
X112721199Y-107798100D02*
X112821199Y-107831433D01*
X112821199Y-107831433D02*
X112987866Y-107831433D01*
X112354533Y-107131433D02*
X111887866Y-107131433D01*
X111887866Y-107131433D02*
X112187866Y-107831433D01*
X112754533Y-115110166D02*
X112654533Y-115143500D01*
X112654533Y-115143500D02*
X112621199Y-115176833D01*
X112621199Y-115176833D02*
X112587866Y-115243500D01*
X112587866Y-115243500D02*
X112587866Y-115343500D01*
X112587866Y-115343500D02*
X112621199Y-115410166D01*
X112621199Y-115410166D02*
X112654533Y-115443500D01*
X112654533Y-115443500D02*
X112721199Y-115476833D01*
X112721199Y-115476833D02*
X112987866Y-115476833D01*
X112987866Y-115476833D02*
X112987866Y-114776833D01*
X112987866Y-114776833D02*
X112754533Y-114776833D01*
X112754533Y-114776833D02*
X112687866Y-114810166D01*
X112687866Y-114810166D02*
X112654533Y-114843500D01*
X112654533Y-114843500D02*
X112621199Y-114910166D01*
X112621199Y-114910166D02*
X112621199Y-114976833D01*
X112621199Y-114976833D02*
X112654533Y-115043500D01*
X112654533Y-115043500D02*
X112687866Y-115076833D01*
X112687866Y-115076833D02*
X112754533Y-115110166D01*
X112754533Y-115110166D02*
X112987866Y-115110166D01*
X111954533Y-114776833D02*
X112287866Y-114776833D01*
X112287866Y-114776833D02*
X112321199Y-115110166D01*
X112321199Y-115110166D02*
X112287866Y-115076833D01*
X112287866Y-115076833D02*
X112221199Y-115043500D01*
X112221199Y-115043500D02*
X112054533Y-115043500D01*
X112054533Y-115043500D02*
X111987866Y-115076833D01*
X111987866Y-115076833D02*
X111954533Y-115110166D01*
X111954533Y-115110166D02*
X111921199Y-115176833D01*
X111921199Y-115176833D02*
X111921199Y-115343500D01*
X111921199Y-115343500D02*
X111954533Y-115410166D01*
X111954533Y-115410166D02*
X111987866Y-115443500D01*
X111987866Y-115443500D02*
X112054533Y-115476833D01*
X112054533Y-115476833D02*
X112221199Y-115476833D01*
X112221199Y-115476833D02*
X112287866Y-115443500D01*
X112287866Y-115443500D02*
X112321199Y-115410166D01*
X91439932Y-125328566D02*
X91506599Y-125295233D01*
X91506599Y-125295233D02*
X91606599Y-125295233D01*
X91606599Y-125295233D02*
X91706599Y-125328566D01*
X91706599Y-125328566D02*
X91773266Y-125395233D01*
X91773266Y-125395233D02*
X91806599Y-125461900D01*
X91806599Y-125461900D02*
X91839932Y-125595233D01*
X91839932Y-125595233D02*
X91839932Y-125695233D01*
X91839932Y-125695233D02*
X91806599Y-125828566D01*
X91806599Y-125828566D02*
X91773266Y-125895233D01*
X91773266Y-125895233D02*
X91706599Y-125961900D01*
X91706599Y-125961900D02*
X91606599Y-125995233D01*
X91606599Y-125995233D02*
X91539932Y-125995233D01*
X91539932Y-125995233D02*
X91439932Y-125961900D01*
X91439932Y-125961900D02*
X91406599Y-125928566D01*
X91406599Y-125928566D02*
X91406599Y-125695233D01*
X91406599Y-125695233D02*
X91539932Y-125695233D01*
X91106599Y-125995233D02*
X91106599Y-125295233D01*
X91106599Y-125295233D02*
X90706599Y-125995233D01*
X90706599Y-125995233D02*
X90706599Y-125295233D01*
X90373266Y-125995233D02*
X90373266Y-125295233D01*
X90373266Y-125295233D02*
X90206599Y-125295233D01*
X90206599Y-125295233D02*
X90106599Y-125328566D01*
X90106599Y-125328566D02*
X90039933Y-125395233D01*
X90039933Y-125395233D02*
X90006599Y-125461900D01*
X90006599Y-125461900D02*
X89973266Y-125595233D01*
X89973266Y-125595233D02*
X89973266Y-125695233D01*
X89973266Y-125695233D02*
X90006599Y-125828566D01*
X90006599Y-125828566D02*
X90039933Y-125895233D01*
X90039933Y-125895233D02*
X90106599Y-125961900D01*
X90106599Y-125961900D02*
X90206599Y-125995233D01*
X90206599Y-125995233D02*
X90373266Y-125995233D01*
X95662733Y-125320633D02*
X95996066Y-125320633D01*
X95996066Y-125320633D02*
X96029399Y-125653966D01*
X96029399Y-125653966D02*
X95996066Y-125620633D01*
X95996066Y-125620633D02*
X95929399Y-125587300D01*
X95929399Y-125587300D02*
X95762733Y-125587300D01*
X95762733Y-125587300D02*
X95696066Y-125620633D01*
X95696066Y-125620633D02*
X95662733Y-125653966D01*
X95662733Y-125653966D02*
X95629399Y-125720633D01*
X95629399Y-125720633D02*
X95629399Y-125887300D01*
X95629399Y-125887300D02*
X95662733Y-125953966D01*
X95662733Y-125953966D02*
X95696066Y-125987300D01*
X95696066Y-125987300D02*
X95762733Y-126020633D01*
X95762733Y-126020633D02*
X95929399Y-126020633D01*
X95929399Y-126020633D02*
X95996066Y-125987300D01*
X95996066Y-125987300D02*
X96029399Y-125953966D01*
X95429399Y-125320633D02*
X95196066Y-126020633D01*
X95196066Y-126020633D02*
X94962732Y-125320633D01*
X88369800Y-125371100D02*
X88469800Y-125337766D01*
X88469800Y-125337766D02*
X88636467Y-125337766D01*
X88636467Y-125337766D02*
X88703133Y-125371100D01*
X88703133Y-125371100D02*
X88736467Y-125404433D01*
X88736467Y-125404433D02*
X88769800Y-125471100D01*
X88769800Y-125471100D02*
X88769800Y-125537766D01*
X88769800Y-125537766D02*
X88736467Y-125604433D01*
X88736467Y-125604433D02*
X88703133Y-125637766D01*
X88703133Y-125637766D02*
X88636467Y-125671100D01*
X88636467Y-125671100D02*
X88503133Y-125704433D01*
X88503133Y-125704433D02*
X88436467Y-125737766D01*
X88436467Y-125737766D02*
X88403133Y-125771100D01*
X88403133Y-125771100D02*
X88369800Y-125837766D01*
X88369800Y-125837766D02*
X88369800Y-125904433D01*
X88369800Y-125904433D02*
X88403133Y-125971100D01*
X88403133Y-125971100D02*
X88436467Y-126004433D01*
X88436467Y-126004433D02*
X88503133Y-126037766D01*
X88503133Y-126037766D02*
X88669800Y-126037766D01*
X88669800Y-126037766D02*
X88769800Y-126004433D01*
X89742933Y-104902166D02*
X89976266Y-104902166D01*
X89976266Y-105268833D02*
X89976266Y-104568833D01*
X89976266Y-104568833D02*
X89642933Y-104568833D01*
X89442933Y-104568833D02*
X88976266Y-104568833D01*
X88976266Y-104568833D02*
X89276266Y-105268833D01*
X89742133Y-112496766D02*
X89642133Y-112530100D01*
X89642133Y-112530100D02*
X89608799Y-112563433D01*
X89608799Y-112563433D02*
X89575466Y-112630100D01*
X89575466Y-112630100D02*
X89575466Y-112730100D01*
X89575466Y-112730100D02*
X89608799Y-112796766D01*
X89608799Y-112796766D02*
X89642133Y-112830100D01*
X89642133Y-112830100D02*
X89708799Y-112863433D01*
X89708799Y-112863433D02*
X89975466Y-112863433D01*
X89975466Y-112863433D02*
X89975466Y-112163433D01*
X89975466Y-112163433D02*
X89742133Y-112163433D01*
X89742133Y-112163433D02*
X89675466Y-112196766D01*
X89675466Y-112196766D02*
X89642133Y-112230100D01*
X89642133Y-112230100D02*
X89608799Y-112296766D01*
X89608799Y-112296766D02*
X89608799Y-112363433D01*
X89608799Y-112363433D02*
X89642133Y-112430100D01*
X89642133Y-112430100D02*
X89675466Y-112463433D01*
X89675466Y-112463433D02*
X89742133Y-112496766D01*
X89742133Y-112496766D02*
X89975466Y-112496766D01*
X89308799Y-112230100D02*
X89275466Y-112196766D01*
X89275466Y-112196766D02*
X89208799Y-112163433D01*
X89208799Y-112163433D02*
X89042133Y-112163433D01*
X89042133Y-112163433D02*
X88975466Y-112196766D01*
X88975466Y-112196766D02*
X88942133Y-112230100D01*
X88942133Y-112230100D02*
X88908799Y-112296766D01*
X88908799Y-112296766D02*
X88908799Y-112363433D01*
X88908799Y-112363433D02*
X88942133Y-112463433D01*
X88942133Y-112463433D02*
X89342133Y-112863433D01*
X89342133Y-112863433D02*
X88908799Y-112863433D01*
X89768333Y-102311366D02*
X90001666Y-102311366D01*
X90001666Y-102678033D02*
X90001666Y-101978033D01*
X90001666Y-101978033D02*
X89668333Y-101978033D01*
X89101666Y-101978033D02*
X89234999Y-101978033D01*
X89234999Y-101978033D02*
X89301666Y-102011366D01*
X89301666Y-102011366D02*
X89334999Y-102044700D01*
X89334999Y-102044700D02*
X89401666Y-102144700D01*
X89401666Y-102144700D02*
X89434999Y-102278033D01*
X89434999Y-102278033D02*
X89434999Y-102544700D01*
X89434999Y-102544700D02*
X89401666Y-102611366D01*
X89401666Y-102611366D02*
X89368333Y-102644700D01*
X89368333Y-102644700D02*
X89301666Y-102678033D01*
X89301666Y-102678033D02*
X89168333Y-102678033D01*
X89168333Y-102678033D02*
X89101666Y-102644700D01*
X89101666Y-102644700D02*
X89068333Y-102611366D01*
X89068333Y-102611366D02*
X89034999Y-102544700D01*
X89034999Y-102544700D02*
X89034999Y-102378033D01*
X89034999Y-102378033D02*
X89068333Y-102311366D01*
X89068333Y-102311366D02*
X89101666Y-102278033D01*
X89101666Y-102278033D02*
X89168333Y-102244700D01*
X89168333Y-102244700D02*
X89301666Y-102244700D01*
X89301666Y-102244700D02*
X89368333Y-102278033D01*
X89368333Y-102278033D02*
X89401666Y-102311366D01*
X89401666Y-102311366D02*
X89434999Y-102378033D01*
X89742133Y-115062166D02*
X89642133Y-115095500D01*
X89642133Y-115095500D02*
X89608799Y-115128833D01*
X89608799Y-115128833D02*
X89575466Y-115195500D01*
X89575466Y-115195500D02*
X89575466Y-115295500D01*
X89575466Y-115295500D02*
X89608799Y-115362166D01*
X89608799Y-115362166D02*
X89642133Y-115395500D01*
X89642133Y-115395500D02*
X89708799Y-115428833D01*
X89708799Y-115428833D02*
X89975466Y-115428833D01*
X89975466Y-115428833D02*
X89975466Y-114728833D01*
X89975466Y-114728833D02*
X89742133Y-114728833D01*
X89742133Y-114728833D02*
X89675466Y-114762166D01*
X89675466Y-114762166D02*
X89642133Y-114795500D01*
X89642133Y-114795500D02*
X89608799Y-114862166D01*
X89608799Y-114862166D02*
X89608799Y-114928833D01*
X89608799Y-114928833D02*
X89642133Y-114995500D01*
X89642133Y-114995500D02*
X89675466Y-115028833D01*
X89675466Y-115028833D02*
X89742133Y-115062166D01*
X89742133Y-115062166D02*
X89975466Y-115062166D01*
X88975466Y-114728833D02*
X89108799Y-114728833D01*
X89108799Y-114728833D02*
X89175466Y-114762166D01*
X89175466Y-114762166D02*
X89208799Y-114795500D01*
X89208799Y-114795500D02*
X89275466Y-114895500D01*
X89275466Y-114895500D02*
X89308799Y-115028833D01*
X89308799Y-115028833D02*
X89308799Y-115295500D01*
X89308799Y-115295500D02*
X89275466Y-115362166D01*
X89275466Y-115362166D02*
X89242133Y-115395500D01*
X89242133Y-115395500D02*
X89175466Y-115428833D01*
X89175466Y-115428833D02*
X89042133Y-115428833D01*
X89042133Y-115428833D02*
X88975466Y-115395500D01*
X88975466Y-115395500D02*
X88942133Y-115362166D01*
X88942133Y-115362166D02*
X88908799Y-115295500D01*
X88908799Y-115295500D02*
X88908799Y-115128833D01*
X88908799Y-115128833D02*
X88942133Y-115062166D01*
X88942133Y-115062166D02*
X88975466Y-115028833D01*
X88975466Y-115028833D02*
X89042133Y-114995500D01*
X89042133Y-114995500D02*
X89175466Y-114995500D01*
X89175466Y-114995500D02*
X89242133Y-115028833D01*
X89242133Y-115028833D02*
X89275466Y-115062166D01*
X89275466Y-115062166D02*
X89308799Y-115128833D01*
X89742133Y-107391366D02*
X89642133Y-107424700D01*
X89642133Y-107424700D02*
X89608799Y-107458033D01*
X89608799Y-107458033D02*
X89575466Y-107524700D01*
X89575466Y-107524700D02*
X89575466Y-107624700D01*
X89575466Y-107624700D02*
X89608799Y-107691366D01*
X89608799Y-107691366D02*
X89642133Y-107724700D01*
X89642133Y-107724700D02*
X89708799Y-107758033D01*
X89708799Y-107758033D02*
X89975466Y-107758033D01*
X89975466Y-107758033D02*
X89975466Y-107058033D01*
X89975466Y-107058033D02*
X89742133Y-107058033D01*
X89742133Y-107058033D02*
X89675466Y-107091366D01*
X89675466Y-107091366D02*
X89642133Y-107124700D01*
X89642133Y-107124700D02*
X89608799Y-107191366D01*
X89608799Y-107191366D02*
X89608799Y-107258033D01*
X89608799Y-107258033D02*
X89642133Y-107324700D01*
X89642133Y-107324700D02*
X89675466Y-107358033D01*
X89675466Y-107358033D02*
X89742133Y-107391366D01*
X89742133Y-107391366D02*
X89975466Y-107391366D01*
X88908799Y-107758033D02*
X89308799Y-107758033D01*
X89108799Y-107758033D02*
X89108799Y-107058033D01*
X89108799Y-107058033D02*
X89175466Y-107158033D01*
X89175466Y-107158033D02*
X89242133Y-107224700D01*
X89242133Y-107224700D02*
X89308799Y-107258033D01*
X89742133Y-109982166D02*
X89642133Y-110015500D01*
X89642133Y-110015500D02*
X89608799Y-110048833D01*
X89608799Y-110048833D02*
X89575466Y-110115500D01*
X89575466Y-110115500D02*
X89575466Y-110215500D01*
X89575466Y-110215500D02*
X89608799Y-110282166D01*
X89608799Y-110282166D02*
X89642133Y-110315500D01*
X89642133Y-110315500D02*
X89708799Y-110348833D01*
X89708799Y-110348833D02*
X89975466Y-110348833D01*
X89975466Y-110348833D02*
X89975466Y-109648833D01*
X89975466Y-109648833D02*
X89742133Y-109648833D01*
X89742133Y-109648833D02*
X89675466Y-109682166D01*
X89675466Y-109682166D02*
X89642133Y-109715500D01*
X89642133Y-109715500D02*
X89608799Y-109782166D01*
X89608799Y-109782166D02*
X89608799Y-109848833D01*
X89608799Y-109848833D02*
X89642133Y-109915500D01*
X89642133Y-109915500D02*
X89675466Y-109948833D01*
X89675466Y-109948833D02*
X89742133Y-109982166D01*
X89742133Y-109982166D02*
X89975466Y-109982166D01*
X89342133Y-109648833D02*
X88908799Y-109648833D01*
X88908799Y-109648833D02*
X89142133Y-109915500D01*
X89142133Y-109915500D02*
X89042133Y-109915500D01*
X89042133Y-109915500D02*
X88975466Y-109948833D01*
X88975466Y-109948833D02*
X88942133Y-109982166D01*
X88942133Y-109982166D02*
X88908799Y-110048833D01*
X88908799Y-110048833D02*
X88908799Y-110215500D01*
X88908799Y-110215500D02*
X88942133Y-110282166D01*
X88942133Y-110282166D02*
X88975466Y-110315500D01*
X88975466Y-110315500D02*
X89042133Y-110348833D01*
X89042133Y-110348833D02*
X89242133Y-110348833D01*
X89242133Y-110348833D02*
X89308799Y-110315500D01*
X89308799Y-110315500D02*
X89342133Y-110282166D01*
D11*
X105565400Y-118919200D02*
X105565400Y-117589200D01*
X105565400Y-117589200D02*
X106895400Y-117589200D01*
D10*
X108585000Y-84262850D02*
X108585000Y-96835850D01*
X108585000Y-84262850D02*
X115341400Y-84262850D01*
X108585000Y-96835850D02*
X115341400Y-96835850D01*
X109163200Y-82262850D02*
X114763200Y-82262850D01*
X109163200Y-84262850D02*
X109163200Y-82262850D01*
X114763200Y-84262850D02*
X114763200Y-82262850D01*
X115341400Y-84262850D02*
X115341400Y-96835850D01*
D11*
X106580000Y-125413200D02*
X106580000Y-123913200D01*
X105828800Y-127913200D02*
X101328800Y-127913200D01*
X101328800Y-121401400D02*
X105828800Y-121401400D01*
X100073600Y-123913200D02*
X100073600Y-125413200D01*
D10*
X108077000Y-83342950D02*
X90297000Y-83342950D01*
X90297000Y-83342950D02*
X90297000Y-116362950D01*
X108077000Y-116362950D02*
X108077000Y-83342950D01*
X90297000Y-116362950D02*
X108077000Y-116362950D01*
X84677250Y-128168400D02*
X97250250Y-128168400D01*
X84677250Y-128168400D02*
X84677250Y-121412000D01*
X97250250Y-128168400D02*
X97250250Y-121412000D01*
X82677250Y-127590200D02*
X82677250Y-121990200D01*
X84677250Y-127590200D02*
X82677250Y-127590200D01*
X84677250Y-121990200D02*
X82677250Y-121990200D01*
X84677250Y-121412000D02*
X97250250Y-121412000D01*
D12*
X99724275Y-100034131D02*
X99808095Y-100478755D01*
X100426667Y-100733751D01*
X100797707Y-100481446D01*
X100871144Y-100431706D01*
X100968499Y-100366418D01*
X101052787Y-100310654D01*
X101119631Y-100267278D01*
X101164654Y-100239153D01*
X101183478Y-100229142D01*
X101195039Y-100236261D01*
X101229596Y-100266094D01*
X101281894Y-100315052D01*
X101347500Y-100378640D01*
X101421983Y-100452363D01*
X101500913Y-100531725D01*
X101579856Y-100612231D01*
X101654384Y-100689385D01*
X101720063Y-100758693D01*
X101772463Y-100815657D01*
X101807153Y-100855784D01*
X101819701Y-100874577D01*
X101816782Y-100882651D01*
X101796571Y-100918669D01*
X101759663Y-100977944D01*
X101709050Y-101055830D01*
X101647725Y-101147681D01*
X101578679Y-101248850D01*
X101540787Y-101304026D01*
X101475606Y-101400084D01*
X101419723Y-101483917D01*
X101376117Y-101550977D01*
X101347769Y-101596719D01*
X101337657Y-101616596D01*
X101337823Y-101617697D01*
X101346743Y-101642894D01*
X101367206Y-101694347D01*
X101396360Y-101765335D01*
X101431353Y-101849135D01*
X101469332Y-101939028D01*
X101507445Y-102028291D01*
X101542839Y-102110203D01*
X101572662Y-102178043D01*
X101594061Y-102225090D01*
X101604184Y-102244622D01*
X101610174Y-102246355D01*
X101646566Y-102254169D01*
X101711427Y-102267115D01*
X101799565Y-102284179D01*
X101905787Y-102304351D01*
X102024902Y-102326618D01*
X102087683Y-102338423D01*
X102202912Y-102360948D01*
X102303662Y-102381750D01*
X102384426Y-102399635D01*
X102439698Y-102413408D01*
X102463971Y-102421874D01*
X102468331Y-102430266D01*
X102475563Y-102471272D01*
X102481246Y-102539568D01*
X102485382Y-102628729D01*
X102487977Y-102732328D01*
X102489036Y-102843940D01*
X102488561Y-102957138D01*
X102486559Y-103065496D01*
X102483033Y-103162589D01*
X102477987Y-103241990D01*
X102471427Y-103297272D01*
X102463356Y-103322010D01*
X102458458Y-103324800D01*
X102421930Y-103336769D01*
X102358565Y-103352605D01*
X102275686Y-103370574D01*
X102180618Y-103388941D01*
X102148542Y-103394791D01*
X102000393Y-103421998D01*
X101883961Y-103443863D01*
X101795209Y-103461293D01*
X101730103Y-103475196D01*
X101684606Y-103486477D01*
X101654682Y-103496043D01*
X101636294Y-103504801D01*
X101625407Y-103513657D01*
X101624142Y-103515143D01*
X101606338Y-103546131D01*
X101579994Y-103602834D01*
X101547661Y-103678599D01*
X101511893Y-103766774D01*
X101475244Y-103860707D01*
X101440266Y-103953747D01*
X101409513Y-104039241D01*
X101385538Y-104110536D01*
X101370895Y-104160982D01*
X101368136Y-104183926D01*
X101369981Y-104186903D01*
X101389075Y-104215693D01*
X101424984Y-104268795D01*
X101474378Y-104341317D01*
X101533927Y-104428367D01*
X101600303Y-104525054D01*
X101618520Y-104551656D01*
X101682577Y-104647075D01*
X101737937Y-104732412D01*
X101781439Y-104802605D01*
X101809924Y-104852594D01*
X101820232Y-104877316D01*
X101818011Y-104883816D01*
X101794858Y-104915844D01*
X101749177Y-104968145D01*
X101684241Y-105037199D01*
X101603319Y-105119486D01*
X101509685Y-105211486D01*
X101456165Y-105262981D01*
X101371542Y-105343183D01*
X101297475Y-105411878D01*
X101237941Y-105465452D01*
X101196917Y-105500285D01*
X101178381Y-105512763D01*
X101165646Y-105508138D01*
X101126436Y-105486257D01*
X101069495Y-105450473D01*
X101002250Y-105405317D01*
X100954438Y-105372365D01*
X100858985Y-105306927D01*
X100757125Y-105237428D01*
X100664088Y-105174275D01*
X100481832Y-105051000D01*
X100328841Y-105133720D01*
X100292817Y-105152813D01*
X100227303Y-105185472D01*
X100176640Y-105208019D01*
X100149564Y-105216426D01*
X100140703Y-105205630D01*
X100118699Y-105164523D01*
X100086199Y-105096749D01*
X100045010Y-105006609D01*
X99996942Y-104898405D01*
X99943802Y-104776437D01*
X99887399Y-104645008D01*
X99829542Y-104508418D01*
X99772038Y-104370967D01*
X99716697Y-104236958D01*
X99665326Y-104110691D01*
X99619735Y-103996468D01*
X99581732Y-103898590D01*
X99553124Y-103821357D01*
X99535721Y-103769071D01*
X99531331Y-103746033D01*
X99531628Y-103745360D01*
X99552077Y-103724063D01*
X99594850Y-103690708D01*
X99651117Y-103652211D01*
X99668877Y-103640456D01*
X99804014Y-103528935D01*
X99915856Y-103396106D01*
X100001755Y-103247498D01*
X100059062Y-103088640D01*
X100085131Y-102925060D01*
X100077313Y-102762288D01*
X100045644Y-102617515D01*
X99988782Y-102471324D01*
X99905888Y-102340903D01*
X99792131Y-102217013D01*
X99747433Y-102177435D01*
X99602935Y-102079923D01*
X99446838Y-102014250D01*
X99283667Y-101979830D01*
X99117943Y-101976074D01*
X98954192Y-102002394D01*
X98796936Y-102058203D01*
X98650698Y-102142914D01*
X98520004Y-102255937D01*
X98409374Y-102396687D01*
X98388105Y-102431542D01*
X98315810Y-102590855D01*
X98277415Y-102756752D01*
X98271914Y-102924937D01*
X98298301Y-103091113D01*
X98355570Y-103250984D01*
X98442717Y-103400253D01*
X98558736Y-103534623D01*
X98702622Y-103649799D01*
X98707294Y-103652902D01*
X98762964Y-103692133D01*
X98804689Y-103725486D01*
X98823746Y-103746033D01*
X98821342Y-103762141D01*
X98806391Y-103809044D01*
X98779881Y-103881739D01*
X98743620Y-103975925D01*
X98699416Y-104087298D01*
X98649076Y-104211558D01*
X98594407Y-104344402D01*
X98537218Y-104481527D01*
X98479316Y-104618632D01*
X98422510Y-104751415D01*
X98368606Y-104875574D01*
X98319412Y-104986806D01*
X98276737Y-105080809D01*
X98242387Y-105153282D01*
X98218171Y-105199922D01*
X98205897Y-105216426D01*
X98195689Y-105214191D01*
X98155586Y-105198126D01*
X98096318Y-105169959D01*
X98026619Y-105133720D01*
X97873629Y-105051000D01*
X97691373Y-105174275D01*
X97637527Y-105210779D01*
X97537374Y-105278984D01*
X97437525Y-105347298D01*
X97353211Y-105405317D01*
X97306679Y-105436936D01*
X97246200Y-105476220D01*
X97201357Y-105503112D01*
X97179455Y-105513083D01*
X97170045Y-105508850D01*
X97136031Y-105482921D01*
X97083595Y-105437270D01*
X97017301Y-105376386D01*
X96941713Y-105304761D01*
X96861396Y-105226883D01*
X96780913Y-105147245D01*
X96704829Y-105070335D01*
X96637707Y-105000645D01*
X96584112Y-104942664D01*
X96548608Y-104900884D01*
X96535759Y-104879793D01*
X96536500Y-104875781D01*
X96551793Y-104843120D01*
X96584462Y-104786612D01*
X96631350Y-104711363D01*
X96689301Y-104622475D01*
X96755157Y-104525054D01*
X96773627Y-104498182D01*
X96838482Y-104403623D01*
X96895609Y-104320027D01*
X96941678Y-104252284D01*
X96973359Y-104205286D01*
X96987324Y-104183926D01*
X96987668Y-104183011D01*
X96983546Y-104156878D01*
X96967807Y-104103940D01*
X96943004Y-104030847D01*
X96911689Y-103944252D01*
X96876417Y-103850808D01*
X96839740Y-103757165D01*
X96804212Y-103669977D01*
X96772386Y-103595895D01*
X96746816Y-103541571D01*
X96730053Y-103513657D01*
X96728374Y-103511924D01*
X96716372Y-103503156D01*
X96696103Y-103494315D01*
X96663529Y-103484492D01*
X96614616Y-103472783D01*
X96545327Y-103458280D01*
X96451625Y-103440076D01*
X96329476Y-103417266D01*
X96174842Y-103388941D01*
X96142770Y-103382980D01*
X96050893Y-103364552D01*
X95973607Y-103347092D01*
X95918236Y-103332333D01*
X95892105Y-103322010D01*
X95887733Y-103313397D01*
X95880445Y-103272026D01*
X95874669Y-103203441D01*
X95870410Y-103114068D01*
X95867673Y-103010335D01*
X95866462Y-102898665D01*
X95866782Y-102785487D01*
X95868636Y-102677226D01*
X95872030Y-102580308D01*
X95876967Y-102501159D01*
X95883452Y-102446206D01*
X95891489Y-102421874D01*
X95899696Y-102418279D01*
X95940519Y-102406948D01*
X96009524Y-102390922D01*
X96101203Y-102371395D01*
X96210050Y-102349562D01*
X96330558Y-102326618D01*
X96396357Y-102314359D01*
X96509135Y-102293101D01*
X96606207Y-102274487D01*
X96682382Y-102259528D01*
X96732469Y-102249236D01*
X96751276Y-102244622D01*
X96751983Y-102243671D01*
X96763961Y-102219510D01*
X96786794Y-102168894D01*
X96817630Y-102098538D01*
X96853613Y-102015158D01*
X96891891Y-101925470D01*
X96929609Y-101836189D01*
X96963913Y-101754032D01*
X96991949Y-101685713D01*
X97010864Y-101637948D01*
X97017803Y-101617454D01*
X97014742Y-101610243D01*
X96994372Y-101575928D01*
X96957422Y-101518170D01*
X96906860Y-101441499D01*
X96845657Y-101350448D01*
X96776781Y-101249550D01*
X96738994Y-101194293D01*
X96673782Y-101097415D01*
X96617871Y-101012393D01*
X96574241Y-100943862D01*
X96545877Y-100896460D01*
X96535759Y-100874823D01*
X96542790Y-100863087D01*
X96572197Y-100828018D01*
X96620441Y-100774945D01*
X96683093Y-100708364D01*
X96755725Y-100632774D01*
X96833908Y-100552672D01*
X96913214Y-100472554D01*
X96989213Y-100396918D01*
X97057478Y-100330262D01*
X97113580Y-100277082D01*
X97153090Y-100241876D01*
X97171579Y-100229142D01*
X97181843Y-100234093D01*
X97219530Y-100257057D01*
X97280348Y-100296138D01*
X97359913Y-100348472D01*
X97453843Y-100411196D01*
X97557754Y-100481446D01*
X97928794Y-100733751D01*
X98238080Y-100606253D01*
X98547365Y-100478755D01*
X98631186Y-100034131D01*
X98715006Y-99589507D01*
X99640454Y-99589507D01*
X99724275Y-100034131D01*
G36*
X99724275Y-100034131D02*
G01*
X99808095Y-100478755D01*
X100426667Y-100733751D01*
X100797707Y-100481446D01*
X100871144Y-100431706D01*
X100968499Y-100366418D01*
X101052787Y-100310654D01*
X101119631Y-100267278D01*
X101164654Y-100239153D01*
X101183478Y-100229142D01*
X101195039Y-100236261D01*
X101229596Y-100266094D01*
X101281894Y-100315052D01*
X101347500Y-100378640D01*
X101421983Y-100452363D01*
X101500913Y-100531725D01*
X101579856Y-100612231D01*
X101654384Y-100689385D01*
X101720063Y-100758693D01*
X101772463Y-100815657D01*
X101807153Y-100855784D01*
X101819701Y-100874577D01*
X101816782Y-100882651D01*
X101796571Y-100918669D01*
X101759663Y-100977944D01*
X101709050Y-101055830D01*
X101647725Y-101147681D01*
X101578679Y-101248850D01*
X101540787Y-101304026D01*
X101475606Y-101400084D01*
X101419723Y-101483917D01*
X101376117Y-101550977D01*
X101347769Y-101596719D01*
X101337657Y-101616596D01*
X101337823Y-101617697D01*
X101346743Y-101642894D01*
X101367206Y-101694347D01*
X101396360Y-101765335D01*
X101431353Y-101849135D01*
X101469332Y-101939028D01*
X101507445Y-102028291D01*
X101542839Y-102110203D01*
X101572662Y-102178043D01*
X101594061Y-102225090D01*
X101604184Y-102244622D01*
X101610174Y-102246355D01*
X101646566Y-102254169D01*
X101711427Y-102267115D01*
X101799565Y-102284179D01*
X101905787Y-102304351D01*
X102024902Y-102326618D01*
X102087683Y-102338423D01*
X102202912Y-102360948D01*
X102303662Y-102381750D01*
X102384426Y-102399635D01*
X102439698Y-102413408D01*
X102463971Y-102421874D01*
X102468331Y-102430266D01*
X102475563Y-102471272D01*
X102481246Y-102539568D01*
X102485382Y-102628729D01*
X102487977Y-102732328D01*
X102489036Y-102843940D01*
X102488561Y-102957138D01*
X102486559Y-103065496D01*
X102483033Y-103162589D01*
X102477987Y-103241990D01*
X102471427Y-103297272D01*
X102463356Y-103322010D01*
X102458458Y-103324800D01*
X102421930Y-103336769D01*
X102358565Y-103352605D01*
X102275686Y-103370574D01*
X102180618Y-103388941D01*
X102148542Y-103394791D01*
X102000393Y-103421998D01*
X101883961Y-103443863D01*
X101795209Y-103461293D01*
X101730103Y-103475196D01*
X101684606Y-103486477D01*
X101654682Y-103496043D01*
X101636294Y-103504801D01*
X101625407Y-103513657D01*
X101624142Y-103515143D01*
X101606338Y-103546131D01*
X101579994Y-103602834D01*
X101547661Y-103678599D01*
X101511893Y-103766774D01*
X101475244Y-103860707D01*
X101440266Y-103953747D01*
X101409513Y-104039241D01*
X101385538Y-104110536D01*
X101370895Y-104160982D01*
X101368136Y-104183926D01*
X101369981Y-104186903D01*
X101389075Y-104215693D01*
X101424984Y-104268795D01*
X101474378Y-104341317D01*
X101533927Y-104428367D01*
X101600303Y-104525054D01*
X101618520Y-104551656D01*
X101682577Y-104647075D01*
X101737937Y-104732412D01*
X101781439Y-104802605D01*
X101809924Y-104852594D01*
X101820232Y-104877316D01*
X101818011Y-104883816D01*
X101794858Y-104915844D01*
X101749177Y-104968145D01*
X101684241Y-105037199D01*
X101603319Y-105119486D01*
X101509685Y-105211486D01*
X101456165Y-105262981D01*
X101371542Y-105343183D01*
X101297475Y-105411878D01*
X101237941Y-105465452D01*
X101196917Y-105500285D01*
X101178381Y-105512763D01*
X101165646Y-105508138D01*
X101126436Y-105486257D01*
X101069495Y-105450473D01*
X101002250Y-105405317D01*
X100954438Y-105372365D01*
X100858985Y-105306927D01*
X100757125Y-105237428D01*
X100664088Y-105174275D01*
X100481832Y-105051000D01*
X100328841Y-105133720D01*
X100292817Y-105152813D01*
X100227303Y-105185472D01*
X100176640Y-105208019D01*
X100149564Y-105216426D01*
X100140703Y-105205630D01*
X100118699Y-105164523D01*
X100086199Y-105096749D01*
X100045010Y-105006609D01*
X99996942Y-104898405D01*
X99943802Y-104776437D01*
X99887399Y-104645008D01*
X99829542Y-104508418D01*
X99772038Y-104370967D01*
X99716697Y-104236958D01*
X99665326Y-104110691D01*
X99619735Y-103996468D01*
X99581732Y-103898590D01*
X99553124Y-103821357D01*
X99535721Y-103769071D01*
X99531331Y-103746033D01*
X99531628Y-103745360D01*
X99552077Y-103724063D01*
X99594850Y-103690708D01*
X99651117Y-103652211D01*
X99668877Y-103640456D01*
X99804014Y-103528935D01*
X99915856Y-103396106D01*
X100001755Y-103247498D01*
X100059062Y-103088640D01*
X100085131Y-102925060D01*
X100077313Y-102762288D01*
X100045644Y-102617515D01*
X99988782Y-102471324D01*
X99905888Y-102340903D01*
X99792131Y-102217013D01*
X99747433Y-102177435D01*
X99602935Y-102079923D01*
X99446838Y-102014250D01*
X99283667Y-101979830D01*
X99117943Y-101976074D01*
X98954192Y-102002394D01*
X98796936Y-102058203D01*
X98650698Y-102142914D01*
X98520004Y-102255937D01*
X98409374Y-102396687D01*
X98388105Y-102431542D01*
X98315810Y-102590855D01*
X98277415Y-102756752D01*
X98271914Y-102924937D01*
X98298301Y-103091113D01*
X98355570Y-103250984D01*
X98442717Y-103400253D01*
X98558736Y-103534623D01*
X98702622Y-103649799D01*
X98707294Y-103652902D01*
X98762964Y-103692133D01*
X98804689Y-103725486D01*
X98823746Y-103746033D01*
X98821342Y-103762141D01*
X98806391Y-103809044D01*
X98779881Y-103881739D01*
X98743620Y-103975925D01*
X98699416Y-104087298D01*
X98649076Y-104211558D01*
X98594407Y-104344402D01*
X98537218Y-104481527D01*
X98479316Y-104618632D01*
X98422510Y-104751415D01*
X98368606Y-104875574D01*
X98319412Y-104986806D01*
X98276737Y-105080809D01*
X98242387Y-105153282D01*
X98218171Y-105199922D01*
X98205897Y-105216426D01*
X98195689Y-105214191D01*
X98155586Y-105198126D01*
X98096318Y-105169959D01*
X98026619Y-105133720D01*
X97873629Y-105051000D01*
X97691373Y-105174275D01*
X97637527Y-105210779D01*
X97537374Y-105278984D01*
X97437525Y-105347298D01*
X97353211Y-105405317D01*
X97306679Y-105436936D01*
X97246200Y-105476220D01*
X97201357Y-105503112D01*
X97179455Y-105513083D01*
X97170045Y-105508850D01*
X97136031Y-105482921D01*
X97083595Y-105437270D01*
X97017301Y-105376386D01*
X96941713Y-105304761D01*
X96861396Y-105226883D01*
X96780913Y-105147245D01*
X96704829Y-105070335D01*
X96637707Y-105000645D01*
X96584112Y-104942664D01*
X96548608Y-104900884D01*
X96535759Y-104879793D01*
X96536500Y-104875781D01*
X96551793Y-104843120D01*
X96584462Y-104786612D01*
X96631350Y-104711363D01*
X96689301Y-104622475D01*
X96755157Y-104525054D01*
X96773627Y-104498182D01*
X96838482Y-104403623D01*
X96895609Y-104320027D01*
X96941678Y-104252284D01*
X96973359Y-104205286D01*
X96987324Y-104183926D01*
X96987668Y-104183011D01*
X96983546Y-104156878D01*
X96967807Y-104103940D01*
X96943004Y-104030847D01*
X96911689Y-103944252D01*
X96876417Y-103850808D01*
X96839740Y-103757165D01*
X96804212Y-103669977D01*
X96772386Y-103595895D01*
X96746816Y-103541571D01*
X96730053Y-103513657D01*
X96728374Y-103511924D01*
X96716372Y-103503156D01*
X96696103Y-103494315D01*
X96663529Y-103484492D01*
X96614616Y-103472783D01*
X96545327Y-103458280D01*
X96451625Y-103440076D01*
X96329476Y-103417266D01*
X96174842Y-103388941D01*
X96142770Y-103382980D01*
X96050893Y-103364552D01*
X95973607Y-103347092D01*
X95918236Y-103332333D01*
X95892105Y-103322010D01*
X95887733Y-103313397D01*
X95880445Y-103272026D01*
X95874669Y-103203441D01*
X95870410Y-103114068D01*
X95867673Y-103010335D01*
X95866462Y-102898665D01*
X95866782Y-102785487D01*
X95868636Y-102677226D01*
X95872030Y-102580308D01*
X95876967Y-102501159D01*
X95883452Y-102446206D01*
X95891489Y-102421874D01*
X95899696Y-102418279D01*
X95940519Y-102406948D01*
X96009524Y-102390922D01*
X96101203Y-102371395D01*
X96210050Y-102349562D01*
X96330558Y-102326618D01*
X96396357Y-102314359D01*
X96509135Y-102293101D01*
X96606207Y-102274487D01*
X96682382Y-102259528D01*
X96732469Y-102249236D01*
X96751276Y-102244622D01*
X96751983Y-102243671D01*
X96763961Y-102219510D01*
X96786794Y-102168894D01*
X96817630Y-102098538D01*
X96853613Y-102015158D01*
X96891891Y-101925470D01*
X96929609Y-101836189D01*
X96963913Y-101754032D01*
X96991949Y-101685713D01*
X97010864Y-101637948D01*
X97017803Y-101617454D01*
X97014742Y-101610243D01*
X96994372Y-101575928D01*
X96957422Y-101518170D01*
X96906860Y-101441499D01*
X96845657Y-101350448D01*
X96776781Y-101249550D01*
X96738994Y-101194293D01*
X96673782Y-101097415D01*
X96617871Y-101012393D01*
X96574241Y-100943862D01*
X96545877Y-100896460D01*
X96535759Y-100874823D01*
X96542790Y-100863087D01*
X96572197Y-100828018D01*
X96620441Y-100774945D01*
X96683093Y-100708364D01*
X96755725Y-100632774D01*
X96833908Y-100552672D01*
X96913214Y-100472554D01*
X96989213Y-100396918D01*
X97057478Y-100330262D01*
X97113580Y-100277082D01*
X97153090Y-100241876D01*
X97171579Y-100229142D01*
X97181843Y-100234093D01*
X97219530Y-100257057D01*
X97280348Y-100296138D01*
X97359913Y-100348472D01*
X97453843Y-100411196D01*
X97557754Y-100481446D01*
X97928794Y-100733751D01*
X98238080Y-100606253D01*
X98547365Y-100478755D01*
X98631186Y-100034131D01*
X98715006Y-99589507D01*
X99640454Y-99589507D01*
X99724275Y-100034131D01*
G37*
D13*
X91567000Y-87152950D03*
X91567000Y-89692950D03*
D14*
X91567000Y-92232950D03*
D15*
X91567000Y-94772950D03*
D13*
X91567000Y-97312950D03*
X91567000Y-99852950D03*
X91567000Y-102392950D03*
X91567000Y-104932950D03*
X91567000Y-107472950D03*
X91567000Y-110012950D03*
X91567000Y-112552950D03*
X91567000Y-115092950D03*
X106807000Y-115092950D03*
X106807000Y-112552950D03*
X106807000Y-110012950D03*
X106807000Y-107472950D03*
X106807000Y-104932950D03*
X106807000Y-102392950D03*
X106807000Y-99852950D03*
X106807000Y-97312950D03*
D16*
X106807000Y-94772950D03*
D13*
X106807000Y-92232950D03*
D14*
X106807000Y-89692950D03*
D13*
X106807000Y-87152950D03*
X94107000Y-115092950D03*
X96647000Y-115092950D03*
X99187000Y-115092950D03*
X101727000Y-115092950D03*
X104267000Y-115092950D03*
%LPC*%
D17*
X86490000Y-118910000D03*
D18*
X89030000Y-118910000D03*
X91570000Y-118910000D03*
X94110000Y-118910000D03*
X96650000Y-118910000D03*
X99190000Y-118910000D03*
X101730000Y-118910000D03*
X104270000Y-118910000D03*
X106810000Y-118910000D03*
X109350000Y-118910000D03*
D19*
X111890000Y-118910000D03*
D20*
X111963200Y-92862850D03*
D21*
X109663200Y-95057850D03*
X114263200Y-95062850D03*
D22*
X109677200Y-90485850D03*
X114263200Y-90462850D03*
X109677200Y-87437850D03*
X114263200Y-87462850D03*
D17*
X110634400Y-102387400D03*
D18*
X110634400Y-104927400D03*
X110634400Y-107467400D03*
X110634400Y-110007400D03*
X110634400Y-112547400D03*
X110634400Y-115087400D03*
D23*
X106830000Y-126913200D03*
X100330000Y-126913200D03*
X106830000Y-122413200D03*
X100330000Y-122413200D03*
D13*
X91567000Y-87152950D03*
X91567000Y-89692950D03*
D14*
X91567000Y-92232950D03*
D15*
X91567000Y-94772950D03*
D13*
X91567000Y-97312950D03*
X91567000Y-99852950D03*
X91567000Y-102392950D03*
X91567000Y-104932950D03*
X91567000Y-107472950D03*
X91567000Y-110012950D03*
X91567000Y-112552950D03*
X91567000Y-115092950D03*
X106807000Y-115092950D03*
X106807000Y-112552950D03*
X106807000Y-110012950D03*
X106807000Y-107472950D03*
X106807000Y-104932950D03*
X106807000Y-102392950D03*
X106807000Y-99852950D03*
X106807000Y-97312950D03*
D16*
X106807000Y-94772950D03*
D13*
X106807000Y-92232950D03*
D14*
X106807000Y-89692950D03*
D13*
X106807000Y-87152950D03*
X94107000Y-115092950D03*
X96647000Y-115092950D03*
X99187000Y-115092950D03*
X101727000Y-115092950D03*
X104267000Y-115092950D03*
D17*
X84050000Y-115090000D03*
D18*
X84050000Y-112550000D03*
X84050000Y-110010000D03*
X84050000Y-107470000D03*
X84050000Y-104930000D03*
X84050000Y-102390000D03*
X84050000Y-99850000D03*
D17*
X114266600Y-115110000D03*
D18*
X114266600Y-112570000D03*
X114266600Y-110030000D03*
X114266600Y-107490000D03*
X114266600Y-104950000D03*
X114266600Y-102410000D03*
X114266600Y-99870000D03*
D24*
X86266400Y-124790200D03*
X86266400Y-85844850D03*
X111963200Y-124790200D03*
D20*
X93277250Y-124790200D03*
D25*
X95472250Y-127090200D03*
X95477250Y-122490200D03*
D26*
X90900250Y-127076200D03*
X90877250Y-122490200D03*
X87852250Y-127076200D03*
X87877250Y-122490200D03*
D17*
X87739600Y-102362000D03*
D18*
X87739600Y-104902000D03*
X87739600Y-107442000D03*
X87739600Y-109982000D03*
X87739600Y-112522000D03*
X87739600Y-115062000D03*
D24*
X111963200Y-85844850D03*
%LPD*%
M02*
