G04 #@! TF.GenerationSoftware,KiCad,Pcbnew,7.0.5*
G04 #@! TF.CreationDate,2023-08-14T09:49:52+08:00*
G04 #@! TF.ProjectId,handwire microboard,68616e64-7769-4726-9520-6d6963726f62,rev?*
G04 #@! TF.SameCoordinates,Original*
G04 #@! TF.FileFunction,Legend,Bot*
G04 #@! TF.FilePolarity,Positive*
%FSLAX46Y46*%
G04 Gerber Fmt 4.6, Leading zero omitted, Abs format (unit mm)*
G04 Created by KiCad (PCBNEW 7.0.5) date 2023-08-14 09:49:52*
%MOMM*%
%LPD*%
G01*
G04 APERTURE LIST*
G04 Aperture macros list*
%AMRoundRect*
0 Rectangle with rounded corners*
0 $1 Rounding radius*
0 $2 $3 $4 $5 $6 $7 $8 $9 X,Y pos of 4 corners*
0 Add a 4 corners polygon primitive as box body*
4,1,4,$2,$3,$4,$5,$6,$7,$8,$9,$2,$3,0*
0 Add four circle primitives for the rounded corners*
1,1,$1+$1,$2,$3*
1,1,$1+$1,$4,$5*
1,1,$1+$1,$6,$7*
1,1,$1+$1,$8,$9*
0 Add four rect primitives between the rounded corners*
20,1,$1+$1,$2,$3,$4,$5,0*
20,1,$1+$1,$4,$5,$6,$7,0*
20,1,$1+$1,$6,$7,$8,$9,0*
20,1,$1+$1,$8,$9,$2,$3,0*%
%AMOutline4P*
0 Free polygon, 4 corners , with rotation*
0 The origin of the aperture is its center*
0 number of corners: always 4*
0 $1 to $8 corner X, Y*
0 $9 Rotation angle, in degrees counterclockwise*
0 create outline with 4 corners*
4,1,4,$1,$2,$3,$4,$5,$6,$7,$8,$1,$2,$9*%
G04 Aperture macros list end*
%ADD10C,0.150000*%
%ADD11C,0.120000*%
%ADD12C,0.200000*%
%ADD13C,0.010000*%
%ADD14C,1.752600*%
%ADD15RoundRect,0.438150X-0.438150X0.438150X-0.438150X-0.438150X0.438150X-0.438150X0.438150X0.438150X0*%
%ADD16Outline4P,-0.876300X-0.876300X0.876300X-0.876300X0.876300X0.876300X-0.876300X0.876300X270.000000*%
%ADD17C,3.400000*%
%ADD18C,0.800000*%
%ADD19O,3.029000X1.576000*%
%ADD20O,1.800000X1.500000*%
%ADD21C,2.000000*%
%ADD22C,1.700000*%
%ADD23O,1.700000X1.700000*%
%ADD24O,1.576000X3.029000*%
%ADD25O,1.500000X1.800000*%
%ADD26RoundRect,0.425000X0.425000X-0.425000X0.425000X0.425000X-0.425000X0.425000X-0.425000X-0.425000X0*%
G04 APERTURE END LIST*
D10*
X41422295Y-70679524D02*
X40622295Y-70679524D01*
X40622295Y-70679524D02*
X40622295Y-70870000D01*
X40622295Y-70870000D02*
X40660390Y-70984286D01*
X40660390Y-70984286D02*
X40736580Y-71060476D01*
X40736580Y-71060476D02*
X40812771Y-71098571D01*
X40812771Y-71098571D02*
X40965152Y-71136667D01*
X40965152Y-71136667D02*
X41079438Y-71136667D01*
X41079438Y-71136667D02*
X41231819Y-71098571D01*
X41231819Y-71098571D02*
X41308009Y-71060476D01*
X41308009Y-71060476D02*
X41384200Y-70984286D01*
X41384200Y-70984286D02*
X41422295Y-70870000D01*
X41422295Y-70870000D02*
X41422295Y-70679524D01*
X40698485Y-71441428D02*
X40660390Y-71479524D01*
X40660390Y-71479524D02*
X40622295Y-71555714D01*
X40622295Y-71555714D02*
X40622295Y-71746190D01*
X40622295Y-71746190D02*
X40660390Y-71822381D01*
X40660390Y-71822381D02*
X40698485Y-71860476D01*
X40698485Y-71860476D02*
X40774676Y-71898571D01*
X40774676Y-71898571D02*
X40850866Y-71898571D01*
X40850866Y-71898571D02*
X40965152Y-71860476D01*
X40965152Y-71860476D02*
X41422295Y-71403333D01*
X41422295Y-71403333D02*
X41422295Y-71898571D01*
X47072295Y-70203333D02*
X47872295Y-70470000D01*
X47872295Y-70470000D02*
X47072295Y-70736666D01*
X47796104Y-71460476D02*
X47834200Y-71422380D01*
X47834200Y-71422380D02*
X47872295Y-71308095D01*
X47872295Y-71308095D02*
X47872295Y-71231904D01*
X47872295Y-71231904D02*
X47834200Y-71117618D01*
X47834200Y-71117618D02*
X47758009Y-71041428D01*
X47758009Y-71041428D02*
X47681819Y-71003333D01*
X47681819Y-71003333D02*
X47529438Y-70965237D01*
X47529438Y-70965237D02*
X47415152Y-70965237D01*
X47415152Y-70965237D02*
X47262771Y-71003333D01*
X47262771Y-71003333D02*
X47186580Y-71041428D01*
X47186580Y-71041428D02*
X47110390Y-71117618D01*
X47110390Y-71117618D02*
X47072295Y-71231904D01*
X47072295Y-71231904D02*
X47072295Y-71308095D01*
X47072295Y-71308095D02*
X47110390Y-71422380D01*
X47110390Y-71422380D02*
X47148485Y-71460476D01*
X47796104Y-72260476D02*
X47834200Y-72222380D01*
X47834200Y-72222380D02*
X47872295Y-72108095D01*
X47872295Y-72108095D02*
X47872295Y-72031904D01*
X47872295Y-72031904D02*
X47834200Y-71917618D01*
X47834200Y-71917618D02*
X47758009Y-71841428D01*
X47758009Y-71841428D02*
X47681819Y-71803333D01*
X47681819Y-71803333D02*
X47529438Y-71765237D01*
X47529438Y-71765237D02*
X47415152Y-71765237D01*
X47415152Y-71765237D02*
X47262771Y-71803333D01*
X47262771Y-71803333D02*
X47186580Y-71841428D01*
X47186580Y-71841428D02*
X47110390Y-71917618D01*
X47110390Y-71917618D02*
X47072295Y-72031904D01*
X47072295Y-72031904D02*
X47072295Y-72108095D01*
X47072295Y-72108095D02*
X47110390Y-72222380D01*
X47110390Y-72222380D02*
X47148485Y-72260476D01*
X42510390Y-70660476D02*
X42472295Y-70584286D01*
X42472295Y-70584286D02*
X42472295Y-70470000D01*
X42472295Y-70470000D02*
X42510390Y-70355714D01*
X42510390Y-70355714D02*
X42586580Y-70279524D01*
X42586580Y-70279524D02*
X42662771Y-70241429D01*
X42662771Y-70241429D02*
X42815152Y-70203333D01*
X42815152Y-70203333D02*
X42929438Y-70203333D01*
X42929438Y-70203333D02*
X43081819Y-70241429D01*
X43081819Y-70241429D02*
X43158009Y-70279524D01*
X43158009Y-70279524D02*
X43234200Y-70355714D01*
X43234200Y-70355714D02*
X43272295Y-70470000D01*
X43272295Y-70470000D02*
X43272295Y-70546191D01*
X43272295Y-70546191D02*
X43234200Y-70660476D01*
X43234200Y-70660476D02*
X43196104Y-70698572D01*
X43196104Y-70698572D02*
X42929438Y-70698572D01*
X42929438Y-70698572D02*
X42929438Y-70546191D01*
X43272295Y-71041429D02*
X42472295Y-71041429D01*
X42472295Y-71041429D02*
X43272295Y-71498572D01*
X43272295Y-71498572D02*
X42472295Y-71498572D01*
X43272295Y-71879524D02*
X42472295Y-71879524D01*
X42472295Y-71879524D02*
X42472295Y-72070000D01*
X42472295Y-72070000D02*
X42510390Y-72184286D01*
X42510390Y-72184286D02*
X42586580Y-72260476D01*
X42586580Y-72260476D02*
X42662771Y-72298571D01*
X42662771Y-72298571D02*
X42815152Y-72336667D01*
X42815152Y-72336667D02*
X42929438Y-72336667D01*
X42929438Y-72336667D02*
X43081819Y-72298571D01*
X43081819Y-72298571D02*
X43158009Y-72260476D01*
X43158009Y-72260476D02*
X43234200Y-72184286D01*
X43234200Y-72184286D02*
X43272295Y-72070000D01*
X43272295Y-72070000D02*
X43272295Y-71879524D01*
X56008094Y-74042295D02*
X56274761Y-73661342D01*
X56465237Y-74042295D02*
X56465237Y-73242295D01*
X56465237Y-73242295D02*
X56160475Y-73242295D01*
X56160475Y-73242295D02*
X56084285Y-73280390D01*
X56084285Y-73280390D02*
X56046190Y-73318485D01*
X56046190Y-73318485D02*
X56008094Y-73394676D01*
X56008094Y-73394676D02*
X56008094Y-73508961D01*
X56008094Y-73508961D02*
X56046190Y-73585152D01*
X56046190Y-73585152D02*
X56084285Y-73623247D01*
X56084285Y-73623247D02*
X56160475Y-73661342D01*
X56160475Y-73661342D02*
X56465237Y-73661342D01*
X55703333Y-74004200D02*
X55589047Y-74042295D01*
X55589047Y-74042295D02*
X55398571Y-74042295D01*
X55398571Y-74042295D02*
X55322380Y-74004200D01*
X55322380Y-74004200D02*
X55284285Y-73966104D01*
X55284285Y-73966104D02*
X55246190Y-73889914D01*
X55246190Y-73889914D02*
X55246190Y-73813723D01*
X55246190Y-73813723D02*
X55284285Y-73737533D01*
X55284285Y-73737533D02*
X55322380Y-73699438D01*
X55322380Y-73699438D02*
X55398571Y-73661342D01*
X55398571Y-73661342D02*
X55550952Y-73623247D01*
X55550952Y-73623247D02*
X55627142Y-73585152D01*
X55627142Y-73585152D02*
X55665237Y-73547057D01*
X55665237Y-73547057D02*
X55703333Y-73470866D01*
X55703333Y-73470866D02*
X55703333Y-73394676D01*
X55703333Y-73394676D02*
X55665237Y-73318485D01*
X55665237Y-73318485D02*
X55627142Y-73280390D01*
X55627142Y-73280390D02*
X55550952Y-73242295D01*
X55550952Y-73242295D02*
X55360475Y-73242295D01*
X55360475Y-73242295D02*
X55246190Y-73280390D01*
X55017618Y-73242295D02*
X54560475Y-73242295D01*
X54789047Y-74042295D02*
X54789047Y-73242295D01*
X56179523Y-68780390D02*
X56255713Y-68742295D01*
X56255713Y-68742295D02*
X56369999Y-68742295D01*
X56369999Y-68742295D02*
X56484285Y-68780390D01*
X56484285Y-68780390D02*
X56560475Y-68856580D01*
X56560475Y-68856580D02*
X56598570Y-68932771D01*
X56598570Y-68932771D02*
X56636666Y-69085152D01*
X56636666Y-69085152D02*
X56636666Y-69199438D01*
X56636666Y-69199438D02*
X56598570Y-69351819D01*
X56598570Y-69351819D02*
X56560475Y-69428009D01*
X56560475Y-69428009D02*
X56484285Y-69504200D01*
X56484285Y-69504200D02*
X56369999Y-69542295D01*
X56369999Y-69542295D02*
X56293808Y-69542295D01*
X56293808Y-69542295D02*
X56179523Y-69504200D01*
X56179523Y-69504200D02*
X56141427Y-69466104D01*
X56141427Y-69466104D02*
X56141427Y-69199438D01*
X56141427Y-69199438D02*
X56293808Y-69199438D01*
X55798570Y-69542295D02*
X55798570Y-68742295D01*
X55798570Y-68742295D02*
X55341427Y-69542295D01*
X55341427Y-69542295D02*
X55341427Y-68742295D01*
X54960475Y-69542295D02*
X54960475Y-68742295D01*
X54960475Y-68742295D02*
X54769999Y-68742295D01*
X54769999Y-68742295D02*
X54655713Y-68780390D01*
X54655713Y-68780390D02*
X54579523Y-68856580D01*
X54579523Y-68856580D02*
X54541428Y-68932771D01*
X54541428Y-68932771D02*
X54503332Y-69085152D01*
X54503332Y-69085152D02*
X54503332Y-69199438D01*
X54503332Y-69199438D02*
X54541428Y-69351819D01*
X54541428Y-69351819D02*
X54579523Y-69428009D01*
X54579523Y-69428009D02*
X54655713Y-69504200D01*
X54655713Y-69504200D02*
X54769999Y-69542295D01*
X54769999Y-69542295D02*
X54960475Y-69542295D01*
X57410523Y-36670390D02*
X57486713Y-36632295D01*
X57486713Y-36632295D02*
X57600999Y-36632295D01*
X57600999Y-36632295D02*
X57715285Y-36670390D01*
X57715285Y-36670390D02*
X57791475Y-36746580D01*
X57791475Y-36746580D02*
X57829570Y-36822771D01*
X57829570Y-36822771D02*
X57867666Y-36975152D01*
X57867666Y-36975152D02*
X57867666Y-37089438D01*
X57867666Y-37089438D02*
X57829570Y-37241819D01*
X57829570Y-37241819D02*
X57791475Y-37318009D01*
X57791475Y-37318009D02*
X57715285Y-37394200D01*
X57715285Y-37394200D02*
X57600999Y-37432295D01*
X57600999Y-37432295D02*
X57524808Y-37432295D01*
X57524808Y-37432295D02*
X57410523Y-37394200D01*
X57410523Y-37394200D02*
X57372427Y-37356104D01*
X57372427Y-37356104D02*
X57372427Y-37089438D01*
X57372427Y-37089438D02*
X57524808Y-37089438D01*
X57029570Y-37432295D02*
X57029570Y-36632295D01*
X57029570Y-36632295D02*
X56572427Y-37432295D01*
X56572427Y-37432295D02*
X56572427Y-36632295D01*
X56191475Y-37432295D02*
X56191475Y-36632295D01*
X56191475Y-36632295D02*
X56000999Y-36632295D01*
X56000999Y-36632295D02*
X55886713Y-36670390D01*
X55886713Y-36670390D02*
X55810523Y-36746580D01*
X55810523Y-36746580D02*
X55772428Y-36822771D01*
X55772428Y-36822771D02*
X55734332Y-36975152D01*
X55734332Y-36975152D02*
X55734332Y-37089438D01*
X55734332Y-37089438D02*
X55772428Y-37241819D01*
X55772428Y-37241819D02*
X55810523Y-37318009D01*
X55810523Y-37318009D02*
X55886713Y-37394200D01*
X55886713Y-37394200D02*
X56000999Y-37432295D01*
X56000999Y-37432295D02*
X56191475Y-37432295D01*
X46488523Y-39210390D02*
X46564713Y-39172295D01*
X46564713Y-39172295D02*
X46678999Y-39172295D01*
X46678999Y-39172295D02*
X46793285Y-39210390D01*
X46793285Y-39210390D02*
X46869475Y-39286580D01*
X46869475Y-39286580D02*
X46907570Y-39362771D01*
X46907570Y-39362771D02*
X46945666Y-39515152D01*
X46945666Y-39515152D02*
X46945666Y-39629438D01*
X46945666Y-39629438D02*
X46907570Y-39781819D01*
X46907570Y-39781819D02*
X46869475Y-39858009D01*
X46869475Y-39858009D02*
X46793285Y-39934200D01*
X46793285Y-39934200D02*
X46678999Y-39972295D01*
X46678999Y-39972295D02*
X46602808Y-39972295D01*
X46602808Y-39972295D02*
X46488523Y-39934200D01*
X46488523Y-39934200D02*
X46450427Y-39896104D01*
X46450427Y-39896104D02*
X46450427Y-39629438D01*
X46450427Y-39629438D02*
X46602808Y-39629438D01*
X46107570Y-39972295D02*
X46107570Y-39172295D01*
X46107570Y-39172295D02*
X45650427Y-39972295D01*
X45650427Y-39972295D02*
X45650427Y-39172295D01*
X45269475Y-39972295D02*
X45269475Y-39172295D01*
X45269475Y-39172295D02*
X45078999Y-39172295D01*
X45078999Y-39172295D02*
X44964713Y-39210390D01*
X44964713Y-39210390D02*
X44888523Y-39286580D01*
X44888523Y-39286580D02*
X44850428Y-39362771D01*
X44850428Y-39362771D02*
X44812332Y-39515152D01*
X44812332Y-39515152D02*
X44812332Y-39629438D01*
X44812332Y-39629438D02*
X44850428Y-39781819D01*
X44850428Y-39781819D02*
X44888523Y-39858009D01*
X44888523Y-39858009D02*
X44964713Y-39934200D01*
X44964713Y-39934200D02*
X45078999Y-39972295D01*
X45078999Y-39972295D02*
X45269475Y-39972295D01*
X46488523Y-41750390D02*
X46564713Y-41712295D01*
X46564713Y-41712295D02*
X46678999Y-41712295D01*
X46678999Y-41712295D02*
X46793285Y-41750390D01*
X46793285Y-41750390D02*
X46869475Y-41826580D01*
X46869475Y-41826580D02*
X46907570Y-41902771D01*
X46907570Y-41902771D02*
X46945666Y-42055152D01*
X46945666Y-42055152D02*
X46945666Y-42169438D01*
X46945666Y-42169438D02*
X46907570Y-42321819D01*
X46907570Y-42321819D02*
X46869475Y-42398009D01*
X46869475Y-42398009D02*
X46793285Y-42474200D01*
X46793285Y-42474200D02*
X46678999Y-42512295D01*
X46678999Y-42512295D02*
X46602808Y-42512295D01*
X46602808Y-42512295D02*
X46488523Y-42474200D01*
X46488523Y-42474200D02*
X46450427Y-42436104D01*
X46450427Y-42436104D02*
X46450427Y-42169438D01*
X46450427Y-42169438D02*
X46602808Y-42169438D01*
X46107570Y-42512295D02*
X46107570Y-41712295D01*
X46107570Y-41712295D02*
X45650427Y-42512295D01*
X45650427Y-42512295D02*
X45650427Y-41712295D01*
X45269475Y-42512295D02*
X45269475Y-41712295D01*
X45269475Y-41712295D02*
X45078999Y-41712295D01*
X45078999Y-41712295D02*
X44964713Y-41750390D01*
X44964713Y-41750390D02*
X44888523Y-41826580D01*
X44888523Y-41826580D02*
X44850428Y-41902771D01*
X44850428Y-41902771D02*
X44812332Y-42055152D01*
X44812332Y-42055152D02*
X44812332Y-42169438D01*
X44812332Y-42169438D02*
X44850428Y-42321819D01*
X44850428Y-42321819D02*
X44888523Y-42398009D01*
X44888523Y-42398009D02*
X44964713Y-42474200D01*
X44964713Y-42474200D02*
X45078999Y-42512295D01*
X45078999Y-42512295D02*
X45269475Y-42512295D01*
X57239094Y-39952295D02*
X57505761Y-39571342D01*
X57696237Y-39952295D02*
X57696237Y-39152295D01*
X57696237Y-39152295D02*
X57391475Y-39152295D01*
X57391475Y-39152295D02*
X57315285Y-39190390D01*
X57315285Y-39190390D02*
X57277190Y-39228485D01*
X57277190Y-39228485D02*
X57239094Y-39304676D01*
X57239094Y-39304676D02*
X57239094Y-39418961D01*
X57239094Y-39418961D02*
X57277190Y-39495152D01*
X57277190Y-39495152D02*
X57315285Y-39533247D01*
X57315285Y-39533247D02*
X57391475Y-39571342D01*
X57391475Y-39571342D02*
X57696237Y-39571342D01*
X56934333Y-39914200D02*
X56820047Y-39952295D01*
X56820047Y-39952295D02*
X56629571Y-39952295D01*
X56629571Y-39952295D02*
X56553380Y-39914200D01*
X56553380Y-39914200D02*
X56515285Y-39876104D01*
X56515285Y-39876104D02*
X56477190Y-39799914D01*
X56477190Y-39799914D02*
X56477190Y-39723723D01*
X56477190Y-39723723D02*
X56515285Y-39647533D01*
X56515285Y-39647533D02*
X56553380Y-39609438D01*
X56553380Y-39609438D02*
X56629571Y-39571342D01*
X56629571Y-39571342D02*
X56781952Y-39533247D01*
X56781952Y-39533247D02*
X56858142Y-39495152D01*
X56858142Y-39495152D02*
X56896237Y-39457057D01*
X56896237Y-39457057D02*
X56934333Y-39380866D01*
X56934333Y-39380866D02*
X56934333Y-39304676D01*
X56934333Y-39304676D02*
X56896237Y-39228485D01*
X56896237Y-39228485D02*
X56858142Y-39190390D01*
X56858142Y-39190390D02*
X56781952Y-39152295D01*
X56781952Y-39152295D02*
X56591475Y-39152295D01*
X56591475Y-39152295D02*
X56477190Y-39190390D01*
X56248618Y-39152295D02*
X55791475Y-39152295D01*
X56020047Y-39952295D02*
X56020047Y-39152295D01*
X57867666Y-41712295D02*
X57600999Y-42512295D01*
X57600999Y-42512295D02*
X57334333Y-41712295D01*
X56610523Y-42436104D02*
X56648619Y-42474200D01*
X56648619Y-42474200D02*
X56762904Y-42512295D01*
X56762904Y-42512295D02*
X56839095Y-42512295D01*
X56839095Y-42512295D02*
X56953381Y-42474200D01*
X56953381Y-42474200D02*
X57029571Y-42398009D01*
X57029571Y-42398009D02*
X57067666Y-42321819D01*
X57067666Y-42321819D02*
X57105762Y-42169438D01*
X57105762Y-42169438D02*
X57105762Y-42055152D01*
X57105762Y-42055152D02*
X57067666Y-41902771D01*
X57067666Y-41902771D02*
X57029571Y-41826580D01*
X57029571Y-41826580D02*
X56953381Y-41750390D01*
X56953381Y-41750390D02*
X56839095Y-41712295D01*
X56839095Y-41712295D02*
X56762904Y-41712295D01*
X56762904Y-41712295D02*
X56648619Y-41750390D01*
X56648619Y-41750390D02*
X56610523Y-41788485D01*
X55810523Y-42436104D02*
X55848619Y-42474200D01*
X55848619Y-42474200D02*
X55962904Y-42512295D01*
X55962904Y-42512295D02*
X56039095Y-42512295D01*
X56039095Y-42512295D02*
X56153381Y-42474200D01*
X56153381Y-42474200D02*
X56229571Y-42398009D01*
X56229571Y-42398009D02*
X56267666Y-42321819D01*
X56267666Y-42321819D02*
X56305762Y-42169438D01*
X56305762Y-42169438D02*
X56305762Y-42055152D01*
X56305762Y-42055152D02*
X56267666Y-41902771D01*
X56267666Y-41902771D02*
X56229571Y-41826580D01*
X56229571Y-41826580D02*
X56153381Y-41750390D01*
X56153381Y-41750390D02*
X56039095Y-41712295D01*
X56039095Y-41712295D02*
X55962904Y-41712295D01*
X55962904Y-41712295D02*
X55848619Y-41750390D01*
X55848619Y-41750390D02*
X55810523Y-41788485D01*
X40248431Y-48271308D02*
X40436993Y-48082746D01*
X40733304Y-48379058D02*
X40167619Y-47813372D01*
X40167619Y-47813372D02*
X39898245Y-48082746D01*
X39413372Y-48567619D02*
X39682746Y-48298245D01*
X39682746Y-48298245D02*
X39979057Y-48540682D01*
X39979057Y-48540682D02*
X39925182Y-48540682D01*
X39925182Y-48540682D02*
X39844370Y-48567619D01*
X39844370Y-48567619D02*
X39709683Y-48702306D01*
X39709683Y-48702306D02*
X39682746Y-48783118D01*
X39682746Y-48783118D02*
X39682746Y-48836993D01*
X39682746Y-48836993D02*
X39709683Y-48917805D01*
X39709683Y-48917805D02*
X39844370Y-49052493D01*
X39844370Y-49052493D02*
X39925182Y-49079430D01*
X39925182Y-49079430D02*
X39979057Y-49079430D01*
X39979057Y-49079430D02*
X40059869Y-49052493D01*
X40059869Y-49052493D02*
X40194556Y-48917805D01*
X40194556Y-48917805D02*
X40221494Y-48836993D01*
X40221494Y-48836993D02*
X40221494Y-48783118D01*
X38193710Y-48338651D02*
X37628025Y-47772966D01*
X37628025Y-47772966D02*
X37493338Y-47907653D01*
X37493338Y-47907653D02*
X37439463Y-48015403D01*
X37439463Y-48015403D02*
X37439463Y-48123152D01*
X37439463Y-48123152D02*
X37466401Y-48203964D01*
X37466401Y-48203964D02*
X37547213Y-48338651D01*
X37547213Y-48338651D02*
X37628025Y-48419464D01*
X37628025Y-48419464D02*
X37762712Y-48500276D01*
X37762712Y-48500276D02*
X37843524Y-48527213D01*
X37843524Y-48527213D02*
X37951274Y-48527213D01*
X37951274Y-48527213D02*
X38059023Y-48473338D01*
X38059023Y-48473338D02*
X38193710Y-48338651D01*
X36954590Y-48446401D02*
X36900715Y-48500276D01*
X36900715Y-48500276D02*
X36873778Y-48581088D01*
X36873778Y-48581088D02*
X36873778Y-48634963D01*
X36873778Y-48634963D02*
X36900715Y-48715775D01*
X36900715Y-48715775D02*
X36981527Y-48850462D01*
X36981527Y-48850462D02*
X37116214Y-48985149D01*
X37116214Y-48985149D02*
X37250901Y-49065961D01*
X37250901Y-49065961D02*
X37331714Y-49092899D01*
X37331714Y-49092899D02*
X37385588Y-49092899D01*
X37385588Y-49092899D02*
X37466401Y-49065961D01*
X37466401Y-49065961D02*
X37520275Y-49012087D01*
X37520275Y-49012087D02*
X37547213Y-48931274D01*
X37547213Y-48931274D02*
X37547213Y-48877399D01*
X37547213Y-48877399D02*
X37520275Y-48796587D01*
X37520275Y-48796587D02*
X37439463Y-48661900D01*
X37439463Y-48661900D02*
X37304776Y-48527213D01*
X37304776Y-48527213D02*
X37170089Y-48446401D01*
X37170089Y-48446401D02*
X37089277Y-48419464D01*
X37089277Y-48419464D02*
X37035402Y-48419464D01*
X37035402Y-48419464D02*
X36954590Y-48446401D01*
X40288837Y-60930902D02*
X40234962Y-61038651D01*
X40234962Y-61038651D02*
X40234962Y-61092526D01*
X40234962Y-61092526D02*
X40261900Y-61173338D01*
X40261900Y-61173338D02*
X40342712Y-61254151D01*
X40342712Y-61254151D02*
X40423524Y-61281088D01*
X40423524Y-61281088D02*
X40477399Y-61281088D01*
X40477399Y-61281088D02*
X40558211Y-61254151D01*
X40558211Y-61254151D02*
X40773710Y-61038651D01*
X40773710Y-61038651D02*
X40208025Y-60472966D01*
X40208025Y-60472966D02*
X40019463Y-60661528D01*
X40019463Y-60661528D02*
X39992526Y-60742340D01*
X39992526Y-60742340D02*
X39992526Y-60796215D01*
X39992526Y-60796215D02*
X40019463Y-60877027D01*
X40019463Y-60877027D02*
X40073338Y-60930902D01*
X40073338Y-60930902D02*
X40154150Y-60957839D01*
X40154150Y-60957839D02*
X40208025Y-60957839D01*
X40208025Y-60957839D02*
X40288837Y-60930902D01*
X40288837Y-60930902D02*
X40477399Y-60742340D01*
X39723152Y-61065589D02*
X39669277Y-61065589D01*
X39669277Y-61065589D02*
X39588465Y-61092526D01*
X39588465Y-61092526D02*
X39453778Y-61227213D01*
X39453778Y-61227213D02*
X39426840Y-61308025D01*
X39426840Y-61308025D02*
X39426840Y-61361900D01*
X39426840Y-61361900D02*
X39453778Y-61442712D01*
X39453778Y-61442712D02*
X39507653Y-61496587D01*
X39507653Y-61496587D02*
X39615402Y-61550462D01*
X39615402Y-61550462D02*
X40261900Y-61550462D01*
X40261900Y-61550462D02*
X39911714Y-61900648D01*
X40248431Y-45731308D02*
X40436993Y-45542746D01*
X40733304Y-45839058D02*
X40167619Y-45273372D01*
X40167619Y-45273372D02*
X39898245Y-45542746D01*
X39628871Y-46189244D02*
X40005995Y-46566367D01*
X39548059Y-45839057D02*
X40086807Y-46108431D01*
X40086807Y-46108431D02*
X39736621Y-46458618D01*
X37708837Y-60930902D02*
X37654962Y-61038651D01*
X37654962Y-61038651D02*
X37654962Y-61092526D01*
X37654962Y-61092526D02*
X37681900Y-61173338D01*
X37681900Y-61173338D02*
X37762712Y-61254151D01*
X37762712Y-61254151D02*
X37843524Y-61281088D01*
X37843524Y-61281088D02*
X37897399Y-61281088D01*
X37897399Y-61281088D02*
X37978211Y-61254151D01*
X37978211Y-61254151D02*
X38193710Y-61038651D01*
X38193710Y-61038651D02*
X37628025Y-60472966D01*
X37628025Y-60472966D02*
X37439463Y-60661528D01*
X37439463Y-60661528D02*
X37412526Y-60742340D01*
X37412526Y-60742340D02*
X37412526Y-60796215D01*
X37412526Y-60796215D02*
X37439463Y-60877027D01*
X37439463Y-60877027D02*
X37493338Y-60930902D01*
X37493338Y-60930902D02*
X37574150Y-60957839D01*
X37574150Y-60957839D02*
X37628025Y-60957839D01*
X37628025Y-60957839D02*
X37708837Y-60930902D01*
X37708837Y-60930902D02*
X37897399Y-60742340D01*
X37008465Y-61469650D02*
X37385588Y-61846774D01*
X36927653Y-61119464D02*
X37466401Y-61388838D01*
X37466401Y-61388838D02*
X37116214Y-61739024D01*
X38223710Y-45798651D02*
X37658025Y-45232966D01*
X37658025Y-45232966D02*
X37523338Y-45367653D01*
X37523338Y-45367653D02*
X37469463Y-45475403D01*
X37469463Y-45475403D02*
X37469463Y-45583152D01*
X37469463Y-45583152D02*
X37496401Y-45663964D01*
X37496401Y-45663964D02*
X37577213Y-45798651D01*
X37577213Y-45798651D02*
X37658025Y-45879464D01*
X37658025Y-45879464D02*
X37792712Y-45960276D01*
X37792712Y-45960276D02*
X37873524Y-45987213D01*
X37873524Y-45987213D02*
X37981274Y-45987213D01*
X37981274Y-45987213D02*
X38089023Y-45933338D01*
X38089023Y-45933338D02*
X38223710Y-45798651D01*
X37361714Y-46660648D02*
X37684962Y-46337399D01*
X37523338Y-46499024D02*
X36957653Y-45933338D01*
X36957653Y-45933338D02*
X37092340Y-45960276D01*
X37092340Y-45960276D02*
X37200089Y-45960276D01*
X37200089Y-45960276D02*
X37280901Y-45933338D01*
X38243710Y-43238651D02*
X37678025Y-42672966D01*
X37678025Y-42672966D02*
X37543338Y-42807653D01*
X37543338Y-42807653D02*
X37489463Y-42915403D01*
X37489463Y-42915403D02*
X37489463Y-43023152D01*
X37489463Y-43023152D02*
X37516401Y-43103964D01*
X37516401Y-43103964D02*
X37597213Y-43238651D01*
X37597213Y-43238651D02*
X37678025Y-43319464D01*
X37678025Y-43319464D02*
X37812712Y-43400276D01*
X37812712Y-43400276D02*
X37893524Y-43427213D01*
X37893524Y-43427213D02*
X38001274Y-43427213D01*
X38001274Y-43427213D02*
X38109023Y-43373338D01*
X38109023Y-43373338D02*
X38243710Y-43238651D01*
X37193152Y-43265589D02*
X37139277Y-43265589D01*
X37139277Y-43265589D02*
X37058465Y-43292526D01*
X37058465Y-43292526D02*
X36923778Y-43427213D01*
X36923778Y-43427213D02*
X36896840Y-43508025D01*
X36896840Y-43508025D02*
X36896840Y-43561900D01*
X36896840Y-43561900D02*
X36923778Y-43642712D01*
X36923778Y-43642712D02*
X36977653Y-43696587D01*
X36977653Y-43696587D02*
X37085402Y-43750462D01*
X37085402Y-43750462D02*
X37731900Y-43750462D01*
X37731900Y-43750462D02*
X37381714Y-44100648D01*
X40773710Y-43238651D02*
X40208025Y-42672966D01*
X40208025Y-42672966D02*
X40073338Y-42807653D01*
X40073338Y-42807653D02*
X40019463Y-42915403D01*
X40019463Y-42915403D02*
X40019463Y-43023152D01*
X40019463Y-43023152D02*
X40046401Y-43103964D01*
X40046401Y-43103964D02*
X40127213Y-43238651D01*
X40127213Y-43238651D02*
X40208025Y-43319464D01*
X40208025Y-43319464D02*
X40342712Y-43400276D01*
X40342712Y-43400276D02*
X40423524Y-43427213D01*
X40423524Y-43427213D02*
X40531274Y-43427213D01*
X40531274Y-43427213D02*
X40639023Y-43373338D01*
X40639023Y-43373338D02*
X40773710Y-43238651D01*
X39696214Y-43184777D02*
X39346028Y-43534963D01*
X39346028Y-43534963D02*
X39750089Y-43561900D01*
X39750089Y-43561900D02*
X39669277Y-43642712D01*
X39669277Y-43642712D02*
X39642340Y-43723525D01*
X39642340Y-43723525D02*
X39642340Y-43777399D01*
X39642340Y-43777399D02*
X39669277Y-43858212D01*
X39669277Y-43858212D02*
X39803964Y-43992899D01*
X39803964Y-43992899D02*
X39884776Y-44019836D01*
X39884776Y-44019836D02*
X39938651Y-44019836D01*
X39938651Y-44019836D02*
X40019463Y-43992899D01*
X40019463Y-43992899D02*
X40181088Y-43831274D01*
X40181088Y-43831274D02*
X40208025Y-43750462D01*
X40208025Y-43750462D02*
X40208025Y-43696587D01*
X38193710Y-50878651D02*
X37628025Y-50312966D01*
X37628025Y-50312966D02*
X37493338Y-50447653D01*
X37493338Y-50447653D02*
X37439463Y-50555403D01*
X37439463Y-50555403D02*
X37439463Y-50663152D01*
X37439463Y-50663152D02*
X37466401Y-50743964D01*
X37466401Y-50743964D02*
X37547213Y-50878651D01*
X37547213Y-50878651D02*
X37628025Y-50959464D01*
X37628025Y-50959464D02*
X37762712Y-51040276D01*
X37762712Y-51040276D02*
X37843524Y-51067213D01*
X37843524Y-51067213D02*
X37951274Y-51067213D01*
X37951274Y-51067213D02*
X38059023Y-51013338D01*
X38059023Y-51013338D02*
X38193710Y-50878651D01*
X37008465Y-51309650D02*
X37385588Y-51686774D01*
X36927653Y-50959464D02*
X37466401Y-51228838D01*
X37466401Y-51228838D02*
X37116214Y-51579024D01*
X40248431Y-53341308D02*
X40436993Y-53152746D01*
X40733304Y-53449058D02*
X40167619Y-52883372D01*
X40167619Y-52883372D02*
X39898245Y-53152746D01*
X39736621Y-53314370D02*
X39359497Y-53691494D01*
X39359497Y-53691494D02*
X40167619Y-54014743D01*
X37708837Y-63470902D02*
X37654962Y-63578651D01*
X37654962Y-63578651D02*
X37654962Y-63632526D01*
X37654962Y-63632526D02*
X37681900Y-63713338D01*
X37681900Y-63713338D02*
X37762712Y-63794151D01*
X37762712Y-63794151D02*
X37843524Y-63821088D01*
X37843524Y-63821088D02*
X37897399Y-63821088D01*
X37897399Y-63821088D02*
X37978211Y-63794151D01*
X37978211Y-63794151D02*
X38193710Y-63578651D01*
X38193710Y-63578651D02*
X37628025Y-63012966D01*
X37628025Y-63012966D02*
X37439463Y-63201528D01*
X37439463Y-63201528D02*
X37412526Y-63282340D01*
X37412526Y-63282340D02*
X37412526Y-63336215D01*
X37412526Y-63336215D02*
X37439463Y-63417027D01*
X37439463Y-63417027D02*
X37493338Y-63470902D01*
X37493338Y-63470902D02*
X37574150Y-63497839D01*
X37574150Y-63497839D02*
X37628025Y-63497839D01*
X37628025Y-63497839D02*
X37708837Y-63470902D01*
X37708837Y-63470902D02*
X37897399Y-63282340D01*
X36792966Y-63848025D02*
X37062340Y-63578651D01*
X37062340Y-63578651D02*
X37358651Y-63821088D01*
X37358651Y-63821088D02*
X37304776Y-63821088D01*
X37304776Y-63821088D02*
X37223964Y-63848025D01*
X37223964Y-63848025D02*
X37089277Y-63982712D01*
X37089277Y-63982712D02*
X37062340Y-64063525D01*
X37062340Y-64063525D02*
X37062340Y-64117399D01*
X37062340Y-64117399D02*
X37089277Y-64198212D01*
X37089277Y-64198212D02*
X37223964Y-64332899D01*
X37223964Y-64332899D02*
X37304776Y-64359836D01*
X37304776Y-64359836D02*
X37358651Y-64359836D01*
X37358651Y-64359836D02*
X37439463Y-64332899D01*
X37439463Y-64332899D02*
X37574150Y-64198212D01*
X37574150Y-64198212D02*
X37601088Y-64117399D01*
X37601088Y-64117399D02*
X37601088Y-64063525D01*
X38193710Y-55948651D02*
X37628025Y-55382966D01*
X37628025Y-55382966D02*
X37493338Y-55517653D01*
X37493338Y-55517653D02*
X37439463Y-55625403D01*
X37439463Y-55625403D02*
X37439463Y-55733152D01*
X37439463Y-55733152D02*
X37466401Y-55813964D01*
X37466401Y-55813964D02*
X37547213Y-55948651D01*
X37547213Y-55948651D02*
X37628025Y-56029464D01*
X37628025Y-56029464D02*
X37762712Y-56110276D01*
X37762712Y-56110276D02*
X37843524Y-56137213D01*
X37843524Y-56137213D02*
X37951274Y-56137213D01*
X37951274Y-56137213D02*
X38059023Y-56083338D01*
X38059023Y-56083338D02*
X38193710Y-55948651D01*
X37116214Y-55894777D02*
X36739091Y-56271900D01*
X36739091Y-56271900D02*
X37547213Y-56595149D01*
X40288837Y-63470902D02*
X40234962Y-63578651D01*
X40234962Y-63578651D02*
X40234962Y-63632526D01*
X40234962Y-63632526D02*
X40261900Y-63713338D01*
X40261900Y-63713338D02*
X40342712Y-63794151D01*
X40342712Y-63794151D02*
X40423524Y-63821088D01*
X40423524Y-63821088D02*
X40477399Y-63821088D01*
X40477399Y-63821088D02*
X40558211Y-63794151D01*
X40558211Y-63794151D02*
X40773710Y-63578651D01*
X40773710Y-63578651D02*
X40208025Y-63012966D01*
X40208025Y-63012966D02*
X40019463Y-63201528D01*
X40019463Y-63201528D02*
X39992526Y-63282340D01*
X39992526Y-63282340D02*
X39992526Y-63336215D01*
X39992526Y-63336215D02*
X40019463Y-63417027D01*
X40019463Y-63417027D02*
X40073338Y-63470902D01*
X40073338Y-63470902D02*
X40154150Y-63497839D01*
X40154150Y-63497839D02*
X40208025Y-63497839D01*
X40208025Y-63497839D02*
X40288837Y-63470902D01*
X40288837Y-63470902D02*
X40477399Y-63282340D01*
X39399903Y-63821088D02*
X39507653Y-63713338D01*
X39507653Y-63713338D02*
X39588465Y-63686401D01*
X39588465Y-63686401D02*
X39642340Y-63686401D01*
X39642340Y-63686401D02*
X39777027Y-63713338D01*
X39777027Y-63713338D02*
X39911714Y-63794151D01*
X39911714Y-63794151D02*
X40127213Y-64009650D01*
X40127213Y-64009650D02*
X40154150Y-64090462D01*
X40154150Y-64090462D02*
X40154150Y-64144337D01*
X40154150Y-64144337D02*
X40127213Y-64225149D01*
X40127213Y-64225149D02*
X40019463Y-64332899D01*
X40019463Y-64332899D02*
X39938651Y-64359836D01*
X39938651Y-64359836D02*
X39884776Y-64359836D01*
X39884776Y-64359836D02*
X39803964Y-64332899D01*
X39803964Y-64332899D02*
X39669277Y-64198212D01*
X39669277Y-64198212D02*
X39642340Y-64117399D01*
X39642340Y-64117399D02*
X39642340Y-64063525D01*
X39642340Y-64063525D02*
X39669277Y-63982712D01*
X39669277Y-63982712D02*
X39777027Y-63874963D01*
X39777027Y-63874963D02*
X39857839Y-63848025D01*
X39857839Y-63848025D02*
X39911714Y-63848025D01*
X39911714Y-63848025D02*
X39992526Y-63874963D01*
X37870462Y-58239277D02*
X37681900Y-58427839D01*
X37897399Y-58804963D02*
X38166773Y-58535589D01*
X38166773Y-58535589D02*
X37601088Y-57969903D01*
X37601088Y-57969903D02*
X37331714Y-58239277D01*
X36846840Y-58724151D02*
X36954590Y-58616401D01*
X36954590Y-58616401D02*
X37035402Y-58589464D01*
X37035402Y-58589464D02*
X37089277Y-58589464D01*
X37089277Y-58589464D02*
X37223964Y-58616401D01*
X37223964Y-58616401D02*
X37358651Y-58697213D01*
X37358651Y-58697213D02*
X37574150Y-58912713D01*
X37574150Y-58912713D02*
X37601087Y-58993525D01*
X37601087Y-58993525D02*
X37601087Y-59047400D01*
X37601087Y-59047400D02*
X37574150Y-59128212D01*
X37574150Y-59128212D02*
X37466400Y-59235961D01*
X37466400Y-59235961D02*
X37385588Y-59262899D01*
X37385588Y-59262899D02*
X37331713Y-59262899D01*
X37331713Y-59262899D02*
X37250901Y-59235961D01*
X37250901Y-59235961D02*
X37116214Y-59101274D01*
X37116214Y-59101274D02*
X37089277Y-59020462D01*
X37089277Y-59020462D02*
X37089277Y-58966587D01*
X37089277Y-58966587D02*
X37116214Y-58885775D01*
X37116214Y-58885775D02*
X37223964Y-58778026D01*
X37223964Y-58778026D02*
X37304776Y-58751088D01*
X37304776Y-58751088D02*
X37358651Y-58751088D01*
X37358651Y-58751088D02*
X37439463Y-58778026D01*
X37816587Y-53678025D02*
X37870462Y-53678025D01*
X37870462Y-53678025D02*
X37978211Y-53624151D01*
X37978211Y-53624151D02*
X38032086Y-53570276D01*
X38032086Y-53570276D02*
X38085961Y-53462526D01*
X38085961Y-53462526D02*
X38085961Y-53354777D01*
X38085961Y-53354777D02*
X38059023Y-53273964D01*
X38059023Y-53273964D02*
X37978211Y-53139277D01*
X37978211Y-53139277D02*
X37897399Y-53058465D01*
X37897399Y-53058465D02*
X37762712Y-52977653D01*
X37762712Y-52977653D02*
X37681900Y-52950716D01*
X37681900Y-52950716D02*
X37574150Y-52950716D01*
X37574150Y-52950716D02*
X37466401Y-53004590D01*
X37466401Y-53004590D02*
X37412526Y-53058465D01*
X37412526Y-53058465D02*
X37358651Y-53166215D01*
X37358651Y-53166215D02*
X37358651Y-53220090D01*
X36819903Y-53651088D02*
X36927653Y-53543338D01*
X36927653Y-53543338D02*
X37008465Y-53516401D01*
X37008465Y-53516401D02*
X37062340Y-53516401D01*
X37062340Y-53516401D02*
X37197027Y-53543338D01*
X37197027Y-53543338D02*
X37331714Y-53624151D01*
X37331714Y-53624151D02*
X37547213Y-53839650D01*
X37547213Y-53839650D02*
X37574150Y-53920462D01*
X37574150Y-53920462D02*
X37574150Y-53974337D01*
X37574150Y-53974337D02*
X37547213Y-54055149D01*
X37547213Y-54055149D02*
X37439463Y-54162899D01*
X37439463Y-54162899D02*
X37358651Y-54189836D01*
X37358651Y-54189836D02*
X37304776Y-54189836D01*
X37304776Y-54189836D02*
X37223964Y-54162899D01*
X37223964Y-54162899D02*
X37089277Y-54028212D01*
X37089277Y-54028212D02*
X37062340Y-53947399D01*
X37062340Y-53947399D02*
X37062340Y-53893525D01*
X37062340Y-53893525D02*
X37089277Y-53812712D01*
X37089277Y-53812712D02*
X37197027Y-53704963D01*
X37197027Y-53704963D02*
X37277839Y-53678025D01*
X37277839Y-53678025D02*
X37331714Y-53678025D01*
X37331714Y-53678025D02*
X37412526Y-53704963D01*
X40288837Y-58400902D02*
X40234962Y-58508651D01*
X40234962Y-58508651D02*
X40234962Y-58562526D01*
X40234962Y-58562526D02*
X40261900Y-58643338D01*
X40261900Y-58643338D02*
X40342712Y-58724151D01*
X40342712Y-58724151D02*
X40423524Y-58751088D01*
X40423524Y-58751088D02*
X40477399Y-58751088D01*
X40477399Y-58751088D02*
X40558211Y-58724151D01*
X40558211Y-58724151D02*
X40773710Y-58508651D01*
X40773710Y-58508651D02*
X40208025Y-57942966D01*
X40208025Y-57942966D02*
X40019463Y-58131528D01*
X40019463Y-58131528D02*
X39992526Y-58212340D01*
X39992526Y-58212340D02*
X39992526Y-58266215D01*
X39992526Y-58266215D02*
X40019463Y-58347027D01*
X40019463Y-58347027D02*
X40073338Y-58400902D01*
X40073338Y-58400902D02*
X40154150Y-58427839D01*
X40154150Y-58427839D02*
X40208025Y-58427839D01*
X40208025Y-58427839D02*
X40288837Y-58400902D01*
X40288837Y-58400902D02*
X40477399Y-58212340D01*
X39696214Y-58454777D02*
X39346028Y-58804963D01*
X39346028Y-58804963D02*
X39750089Y-58831900D01*
X39750089Y-58831900D02*
X39669277Y-58912712D01*
X39669277Y-58912712D02*
X39642340Y-58993525D01*
X39642340Y-58993525D02*
X39642340Y-59047399D01*
X39642340Y-59047399D02*
X39669277Y-59128212D01*
X39669277Y-59128212D02*
X39803964Y-59262899D01*
X39803964Y-59262899D02*
X39884776Y-59289836D01*
X39884776Y-59289836D02*
X39938651Y-59289836D01*
X39938651Y-59289836D02*
X40019463Y-59262899D01*
X40019463Y-59262899D02*
X40181088Y-59101274D01*
X40181088Y-59101274D02*
X40208025Y-59020462D01*
X40208025Y-59020462D02*
X40208025Y-58966587D01*
X40288837Y-55840902D02*
X40234962Y-55948651D01*
X40234962Y-55948651D02*
X40234962Y-56002526D01*
X40234962Y-56002526D02*
X40261900Y-56083338D01*
X40261900Y-56083338D02*
X40342712Y-56164151D01*
X40342712Y-56164151D02*
X40423524Y-56191088D01*
X40423524Y-56191088D02*
X40477399Y-56191088D01*
X40477399Y-56191088D02*
X40558211Y-56164151D01*
X40558211Y-56164151D02*
X40773710Y-55948651D01*
X40773710Y-55948651D02*
X40208025Y-55382966D01*
X40208025Y-55382966D02*
X40019463Y-55571528D01*
X40019463Y-55571528D02*
X39992526Y-55652340D01*
X39992526Y-55652340D02*
X39992526Y-55706215D01*
X39992526Y-55706215D02*
X40019463Y-55787027D01*
X40019463Y-55787027D02*
X40073338Y-55840902D01*
X40073338Y-55840902D02*
X40154150Y-55867839D01*
X40154150Y-55867839D02*
X40208025Y-55867839D01*
X40208025Y-55867839D02*
X40288837Y-55840902D01*
X40288837Y-55840902D02*
X40477399Y-55652340D01*
X39911714Y-56810648D02*
X40234962Y-56487399D01*
X40073338Y-56649024D02*
X39507653Y-56083338D01*
X39507653Y-56083338D02*
X39642340Y-56110276D01*
X39642340Y-56110276D02*
X39750089Y-56110276D01*
X39750089Y-56110276D02*
X39830901Y-56083338D01*
X40248431Y-50811308D02*
X40436993Y-50622746D01*
X40733304Y-50919058D02*
X40167619Y-50353372D01*
X40167619Y-50353372D02*
X39898245Y-50622746D01*
X39440309Y-51080682D02*
X39548059Y-50972932D01*
X39548059Y-50972932D02*
X39628871Y-50945995D01*
X39628871Y-50945995D02*
X39682746Y-50945995D01*
X39682746Y-50945995D02*
X39817433Y-50972932D01*
X39817433Y-50972932D02*
X39952120Y-51053744D01*
X39952120Y-51053744D02*
X40167619Y-51269244D01*
X40167619Y-51269244D02*
X40194556Y-51350056D01*
X40194556Y-51350056D02*
X40194556Y-51403931D01*
X40194556Y-51403931D02*
X40167619Y-51484743D01*
X40167619Y-51484743D02*
X40059869Y-51592493D01*
X40059869Y-51592493D02*
X39979057Y-51619430D01*
X39979057Y-51619430D02*
X39925182Y-51619430D01*
X39925182Y-51619430D02*
X39844370Y-51592493D01*
X39844370Y-51592493D02*
X39709683Y-51457805D01*
X39709683Y-51457805D02*
X39682746Y-51376993D01*
X39682746Y-51376993D02*
X39682746Y-51323118D01*
X39682746Y-51323118D02*
X39709683Y-51242306D01*
X39709683Y-51242306D02*
X39817433Y-51134557D01*
X39817433Y-51134557D02*
X39898245Y-51107619D01*
X39898245Y-51107619D02*
X39952120Y-51107619D01*
X39952120Y-51107619D02*
X40032932Y-51134557D01*
X62738431Y-48271308D02*
X62926993Y-48082746D01*
X63223304Y-48379058D02*
X62657619Y-47813372D01*
X62657619Y-47813372D02*
X62388245Y-48082746D01*
X62118871Y-48729244D02*
X62495995Y-49106367D01*
X62038059Y-48379057D02*
X62576807Y-48648431D01*
X62576807Y-48648431D02*
X62226621Y-48998618D01*
X65823710Y-53408651D02*
X65258025Y-52842966D01*
X65258025Y-52842966D02*
X65123338Y-52977653D01*
X65123338Y-52977653D02*
X65069463Y-53085403D01*
X65069463Y-53085403D02*
X65069463Y-53193152D01*
X65069463Y-53193152D02*
X65096401Y-53273964D01*
X65096401Y-53273964D02*
X65177213Y-53408651D01*
X65177213Y-53408651D02*
X65258025Y-53489464D01*
X65258025Y-53489464D02*
X65392712Y-53570276D01*
X65392712Y-53570276D02*
X65473524Y-53597213D01*
X65473524Y-53597213D02*
X65581274Y-53597213D01*
X65581274Y-53597213D02*
X65689023Y-53543338D01*
X65689023Y-53543338D02*
X65823710Y-53408651D01*
X64638465Y-53839650D02*
X65015588Y-54216774D01*
X64557653Y-53489464D02*
X65096401Y-53758838D01*
X65096401Y-53758838D02*
X64746214Y-54109024D01*
X62778837Y-60930902D02*
X62724962Y-61038651D01*
X62724962Y-61038651D02*
X62724962Y-61092526D01*
X62724962Y-61092526D02*
X62751900Y-61173338D01*
X62751900Y-61173338D02*
X62832712Y-61254151D01*
X62832712Y-61254151D02*
X62913524Y-61281088D01*
X62913524Y-61281088D02*
X62967399Y-61281088D01*
X62967399Y-61281088D02*
X63048211Y-61254151D01*
X63048211Y-61254151D02*
X63263710Y-61038651D01*
X63263710Y-61038651D02*
X62698025Y-60472966D01*
X62698025Y-60472966D02*
X62509463Y-60661528D01*
X62509463Y-60661528D02*
X62482526Y-60742340D01*
X62482526Y-60742340D02*
X62482526Y-60796215D01*
X62482526Y-60796215D02*
X62509463Y-60877027D01*
X62509463Y-60877027D02*
X62563338Y-60930902D01*
X62563338Y-60930902D02*
X62644150Y-60957839D01*
X62644150Y-60957839D02*
X62698025Y-60957839D01*
X62698025Y-60957839D02*
X62778837Y-60930902D01*
X62778837Y-60930902D02*
X62967399Y-60742340D01*
X62186214Y-60984777D02*
X61836028Y-61334963D01*
X61836028Y-61334963D02*
X62240089Y-61361900D01*
X62240089Y-61361900D02*
X62159277Y-61442712D01*
X62159277Y-61442712D02*
X62132340Y-61523525D01*
X62132340Y-61523525D02*
X62132340Y-61577399D01*
X62132340Y-61577399D02*
X62159277Y-61658212D01*
X62159277Y-61658212D02*
X62293964Y-61792899D01*
X62293964Y-61792899D02*
X62374776Y-61819836D01*
X62374776Y-61819836D02*
X62428651Y-61819836D01*
X62428651Y-61819836D02*
X62509463Y-61792899D01*
X62509463Y-61792899D02*
X62671088Y-61631274D01*
X62671088Y-61631274D02*
X62698025Y-61550462D01*
X62698025Y-61550462D02*
X62698025Y-61496587D01*
X65823710Y-50878651D02*
X65258025Y-50312966D01*
X65258025Y-50312966D02*
X65123338Y-50447653D01*
X65123338Y-50447653D02*
X65069463Y-50555403D01*
X65069463Y-50555403D02*
X65069463Y-50663152D01*
X65069463Y-50663152D02*
X65096401Y-50743964D01*
X65096401Y-50743964D02*
X65177213Y-50878651D01*
X65177213Y-50878651D02*
X65258025Y-50959464D01*
X65258025Y-50959464D02*
X65392712Y-51040276D01*
X65392712Y-51040276D02*
X65473524Y-51067213D01*
X65473524Y-51067213D02*
X65581274Y-51067213D01*
X65581274Y-51067213D02*
X65689023Y-51013338D01*
X65689023Y-51013338D02*
X65823710Y-50878651D01*
X64584590Y-50986401D02*
X64530715Y-51040276D01*
X64530715Y-51040276D02*
X64503778Y-51121088D01*
X64503778Y-51121088D02*
X64503778Y-51174963D01*
X64503778Y-51174963D02*
X64530715Y-51255775D01*
X64530715Y-51255775D02*
X64611527Y-51390462D01*
X64611527Y-51390462D02*
X64746214Y-51525149D01*
X64746214Y-51525149D02*
X64880901Y-51605961D01*
X64880901Y-51605961D02*
X64961714Y-51632899D01*
X64961714Y-51632899D02*
X65015588Y-51632899D01*
X65015588Y-51632899D02*
X65096401Y-51605961D01*
X65096401Y-51605961D02*
X65150275Y-51552087D01*
X65150275Y-51552087D02*
X65177213Y-51471274D01*
X65177213Y-51471274D02*
X65177213Y-51417399D01*
X65177213Y-51417399D02*
X65150275Y-51336587D01*
X65150275Y-51336587D02*
X65069463Y-51201900D01*
X65069463Y-51201900D02*
X64934776Y-51067213D01*
X64934776Y-51067213D02*
X64800089Y-50986401D01*
X64800089Y-50986401D02*
X64719277Y-50959464D01*
X64719277Y-50959464D02*
X64665402Y-50959464D01*
X64665402Y-50959464D02*
X64584590Y-50986401D01*
X65338837Y-63470902D02*
X65284962Y-63578651D01*
X65284962Y-63578651D02*
X65284962Y-63632526D01*
X65284962Y-63632526D02*
X65311900Y-63713338D01*
X65311900Y-63713338D02*
X65392712Y-63794151D01*
X65392712Y-63794151D02*
X65473524Y-63821088D01*
X65473524Y-63821088D02*
X65527399Y-63821088D01*
X65527399Y-63821088D02*
X65608211Y-63794151D01*
X65608211Y-63794151D02*
X65823710Y-63578651D01*
X65823710Y-63578651D02*
X65258025Y-63012966D01*
X65258025Y-63012966D02*
X65069463Y-63201528D01*
X65069463Y-63201528D02*
X65042526Y-63282340D01*
X65042526Y-63282340D02*
X65042526Y-63336215D01*
X65042526Y-63336215D02*
X65069463Y-63417027D01*
X65069463Y-63417027D02*
X65123338Y-63470902D01*
X65123338Y-63470902D02*
X65204150Y-63497839D01*
X65204150Y-63497839D02*
X65258025Y-63497839D01*
X65258025Y-63497839D02*
X65338837Y-63470902D01*
X65338837Y-63470902D02*
X65527399Y-63282340D01*
X64638465Y-64009650D02*
X65015588Y-64386774D01*
X64557653Y-63659464D02*
X65096401Y-63928838D01*
X65096401Y-63928838D02*
X64746214Y-64279024D01*
X65446587Y-56218025D02*
X65500462Y-56218025D01*
X65500462Y-56218025D02*
X65608211Y-56164151D01*
X65608211Y-56164151D02*
X65662086Y-56110276D01*
X65662086Y-56110276D02*
X65715961Y-56002526D01*
X65715961Y-56002526D02*
X65715961Y-55894777D01*
X65715961Y-55894777D02*
X65689023Y-55813964D01*
X65689023Y-55813964D02*
X65608211Y-55679277D01*
X65608211Y-55679277D02*
X65527399Y-55598465D01*
X65527399Y-55598465D02*
X65392712Y-55517653D01*
X65392712Y-55517653D02*
X65311900Y-55490716D01*
X65311900Y-55490716D02*
X65204150Y-55490716D01*
X65204150Y-55490716D02*
X65096401Y-55544590D01*
X65096401Y-55544590D02*
X65042526Y-55598465D01*
X65042526Y-55598465D02*
X64988651Y-55706215D01*
X64988651Y-55706215D02*
X64988651Y-55760090D01*
X64449903Y-56191088D02*
X64557653Y-56083338D01*
X64557653Y-56083338D02*
X64638465Y-56056401D01*
X64638465Y-56056401D02*
X64692340Y-56056401D01*
X64692340Y-56056401D02*
X64827027Y-56083338D01*
X64827027Y-56083338D02*
X64961714Y-56164151D01*
X64961714Y-56164151D02*
X65177213Y-56379650D01*
X65177213Y-56379650D02*
X65204150Y-56460462D01*
X65204150Y-56460462D02*
X65204150Y-56514337D01*
X65204150Y-56514337D02*
X65177213Y-56595149D01*
X65177213Y-56595149D02*
X65069463Y-56702899D01*
X65069463Y-56702899D02*
X64988651Y-56729836D01*
X64988651Y-56729836D02*
X64934776Y-56729836D01*
X64934776Y-56729836D02*
X64853964Y-56702899D01*
X64853964Y-56702899D02*
X64719277Y-56568212D01*
X64719277Y-56568212D02*
X64692340Y-56487399D01*
X64692340Y-56487399D02*
X64692340Y-56433525D01*
X64692340Y-56433525D02*
X64719277Y-56352712D01*
X64719277Y-56352712D02*
X64827027Y-56244963D01*
X64827027Y-56244963D02*
X64907839Y-56218025D01*
X64907839Y-56218025D02*
X64961714Y-56218025D01*
X64961714Y-56218025D02*
X65042526Y-56244963D01*
X65823710Y-48338651D02*
X65258025Y-47772966D01*
X65258025Y-47772966D02*
X65123338Y-47907653D01*
X65123338Y-47907653D02*
X65069463Y-48015403D01*
X65069463Y-48015403D02*
X65069463Y-48123152D01*
X65069463Y-48123152D02*
X65096401Y-48203964D01*
X65096401Y-48203964D02*
X65177213Y-48338651D01*
X65177213Y-48338651D02*
X65258025Y-48419464D01*
X65258025Y-48419464D02*
X65392712Y-48500276D01*
X65392712Y-48500276D02*
X65473524Y-48527213D01*
X65473524Y-48527213D02*
X65581274Y-48527213D01*
X65581274Y-48527213D02*
X65689023Y-48473338D01*
X65689023Y-48473338D02*
X65823710Y-48338651D01*
X64961714Y-49200648D02*
X65284962Y-48877399D01*
X65123338Y-49039024D02*
X64557653Y-48473338D01*
X64557653Y-48473338D02*
X64692340Y-48500276D01*
X64692340Y-48500276D02*
X64800089Y-48500276D01*
X64800089Y-48500276D02*
X64880901Y-48473338D01*
X65823710Y-45798651D02*
X65258025Y-45232966D01*
X65258025Y-45232966D02*
X65123338Y-45367653D01*
X65123338Y-45367653D02*
X65069463Y-45475403D01*
X65069463Y-45475403D02*
X65069463Y-45583152D01*
X65069463Y-45583152D02*
X65096401Y-45663964D01*
X65096401Y-45663964D02*
X65177213Y-45798651D01*
X65177213Y-45798651D02*
X65258025Y-45879464D01*
X65258025Y-45879464D02*
X65392712Y-45960276D01*
X65392712Y-45960276D02*
X65473524Y-45987213D01*
X65473524Y-45987213D02*
X65581274Y-45987213D01*
X65581274Y-45987213D02*
X65689023Y-45933338D01*
X65689023Y-45933338D02*
X65823710Y-45798651D01*
X64773152Y-45825589D02*
X64719277Y-45825589D01*
X64719277Y-45825589D02*
X64638465Y-45852526D01*
X64638465Y-45852526D02*
X64503778Y-45987213D01*
X64503778Y-45987213D02*
X64476840Y-46068025D01*
X64476840Y-46068025D02*
X64476840Y-46121900D01*
X64476840Y-46121900D02*
X64503778Y-46202712D01*
X64503778Y-46202712D02*
X64557653Y-46256587D01*
X64557653Y-46256587D02*
X64665402Y-46310462D01*
X64665402Y-46310462D02*
X65311900Y-46310462D01*
X65311900Y-46310462D02*
X64961714Y-46660648D01*
X62738431Y-53341308D02*
X62926993Y-53152746D01*
X63223304Y-53449058D02*
X62657619Y-52883372D01*
X62657619Y-52883372D02*
X62388245Y-53152746D01*
X61930309Y-53610682D02*
X62038059Y-53502932D01*
X62038059Y-53502932D02*
X62118871Y-53475995D01*
X62118871Y-53475995D02*
X62172746Y-53475995D01*
X62172746Y-53475995D02*
X62307433Y-53502932D01*
X62307433Y-53502932D02*
X62442120Y-53583744D01*
X62442120Y-53583744D02*
X62657619Y-53799244D01*
X62657619Y-53799244D02*
X62684556Y-53880056D01*
X62684556Y-53880056D02*
X62684556Y-53933931D01*
X62684556Y-53933931D02*
X62657619Y-54014743D01*
X62657619Y-54014743D02*
X62549869Y-54122493D01*
X62549869Y-54122493D02*
X62469057Y-54149430D01*
X62469057Y-54149430D02*
X62415182Y-54149430D01*
X62415182Y-54149430D02*
X62334370Y-54122493D01*
X62334370Y-54122493D02*
X62199683Y-53987805D01*
X62199683Y-53987805D02*
X62172746Y-53906993D01*
X62172746Y-53906993D02*
X62172746Y-53853118D01*
X62172746Y-53853118D02*
X62199683Y-53772306D01*
X62199683Y-53772306D02*
X62307433Y-53664557D01*
X62307433Y-53664557D02*
X62388245Y-53637619D01*
X62388245Y-53637619D02*
X62442120Y-53637619D01*
X62442120Y-53637619D02*
X62522932Y-53664557D01*
X62738431Y-50811308D02*
X62926993Y-50622746D01*
X63223304Y-50919058D02*
X62657619Y-50353372D01*
X62657619Y-50353372D02*
X62388245Y-50622746D01*
X61903372Y-51107619D02*
X62172746Y-50838245D01*
X62172746Y-50838245D02*
X62469057Y-51080682D01*
X62469057Y-51080682D02*
X62415182Y-51080682D01*
X62415182Y-51080682D02*
X62334370Y-51107619D01*
X62334370Y-51107619D02*
X62199683Y-51242306D01*
X62199683Y-51242306D02*
X62172746Y-51323118D01*
X62172746Y-51323118D02*
X62172746Y-51376993D01*
X62172746Y-51376993D02*
X62199683Y-51457805D01*
X62199683Y-51457805D02*
X62334370Y-51592493D01*
X62334370Y-51592493D02*
X62415182Y-51619430D01*
X62415182Y-51619430D02*
X62469057Y-51619430D01*
X62469057Y-51619430D02*
X62549869Y-51592493D01*
X62549869Y-51592493D02*
X62684556Y-51457805D01*
X62684556Y-51457805D02*
X62711494Y-51376993D01*
X62711494Y-51376993D02*
X62711494Y-51323118D01*
X63263710Y-45798651D02*
X62698025Y-45232966D01*
X62698025Y-45232966D02*
X62563338Y-45367653D01*
X62563338Y-45367653D02*
X62509463Y-45475403D01*
X62509463Y-45475403D02*
X62509463Y-45583152D01*
X62509463Y-45583152D02*
X62536401Y-45663964D01*
X62536401Y-45663964D02*
X62617213Y-45798651D01*
X62617213Y-45798651D02*
X62698025Y-45879464D01*
X62698025Y-45879464D02*
X62832712Y-45960276D01*
X62832712Y-45960276D02*
X62913524Y-45987213D01*
X62913524Y-45987213D02*
X63021274Y-45987213D01*
X63021274Y-45987213D02*
X63129023Y-45933338D01*
X63129023Y-45933338D02*
X63263710Y-45798651D01*
X62186214Y-45744777D02*
X61836028Y-46094963D01*
X61836028Y-46094963D02*
X62240089Y-46121900D01*
X62240089Y-46121900D02*
X62159277Y-46202712D01*
X62159277Y-46202712D02*
X62132340Y-46283525D01*
X62132340Y-46283525D02*
X62132340Y-46337399D01*
X62132340Y-46337399D02*
X62159277Y-46418212D01*
X62159277Y-46418212D02*
X62293964Y-46552899D01*
X62293964Y-46552899D02*
X62374776Y-46579836D01*
X62374776Y-46579836D02*
X62428651Y-46579836D01*
X62428651Y-46579836D02*
X62509463Y-46552899D01*
X62509463Y-46552899D02*
X62671088Y-46391274D01*
X62671088Y-46391274D02*
X62698025Y-46310462D01*
X62698025Y-46310462D02*
X62698025Y-46256587D01*
X62738431Y-55881308D02*
X62926993Y-55692746D01*
X63223304Y-55989058D02*
X62657619Y-55423372D01*
X62657619Y-55423372D02*
X62388245Y-55692746D01*
X62226621Y-55854370D02*
X61849497Y-56231494D01*
X61849497Y-56231494D02*
X62657619Y-56554743D01*
X65338837Y-66080902D02*
X65284962Y-66188651D01*
X65284962Y-66188651D02*
X65284962Y-66242526D01*
X65284962Y-66242526D02*
X65311900Y-66323338D01*
X65311900Y-66323338D02*
X65392712Y-66404151D01*
X65392712Y-66404151D02*
X65473524Y-66431088D01*
X65473524Y-66431088D02*
X65527399Y-66431088D01*
X65527399Y-66431088D02*
X65608211Y-66404151D01*
X65608211Y-66404151D02*
X65823710Y-66188651D01*
X65823710Y-66188651D02*
X65258025Y-65622966D01*
X65258025Y-65622966D02*
X65069463Y-65811528D01*
X65069463Y-65811528D02*
X65042526Y-65892340D01*
X65042526Y-65892340D02*
X65042526Y-65946215D01*
X65042526Y-65946215D02*
X65069463Y-66027027D01*
X65069463Y-66027027D02*
X65123338Y-66080902D01*
X65123338Y-66080902D02*
X65204150Y-66107839D01*
X65204150Y-66107839D02*
X65258025Y-66107839D01*
X65258025Y-66107839D02*
X65338837Y-66080902D01*
X65338837Y-66080902D02*
X65527399Y-65892340D01*
X64422966Y-66458025D02*
X64692340Y-66188651D01*
X64692340Y-66188651D02*
X64988651Y-66431088D01*
X64988651Y-66431088D02*
X64934776Y-66431088D01*
X64934776Y-66431088D02*
X64853964Y-66458025D01*
X64853964Y-66458025D02*
X64719277Y-66592712D01*
X64719277Y-66592712D02*
X64692340Y-66673525D01*
X64692340Y-66673525D02*
X64692340Y-66727399D01*
X64692340Y-66727399D02*
X64719277Y-66808212D01*
X64719277Y-66808212D02*
X64853964Y-66942899D01*
X64853964Y-66942899D02*
X64934776Y-66969836D01*
X64934776Y-66969836D02*
X64988651Y-66969836D01*
X64988651Y-66969836D02*
X65069463Y-66942899D01*
X65069463Y-66942899D02*
X65204150Y-66808212D01*
X65204150Y-66808212D02*
X65231088Y-66727399D01*
X65231088Y-66727399D02*
X65231088Y-66673525D01*
X62778837Y-63470902D02*
X62724962Y-63578651D01*
X62724962Y-63578651D02*
X62724962Y-63632526D01*
X62724962Y-63632526D02*
X62751900Y-63713338D01*
X62751900Y-63713338D02*
X62832712Y-63794151D01*
X62832712Y-63794151D02*
X62913524Y-63821088D01*
X62913524Y-63821088D02*
X62967399Y-63821088D01*
X62967399Y-63821088D02*
X63048211Y-63794151D01*
X63048211Y-63794151D02*
X63263710Y-63578651D01*
X63263710Y-63578651D02*
X62698025Y-63012966D01*
X62698025Y-63012966D02*
X62509463Y-63201528D01*
X62509463Y-63201528D02*
X62482526Y-63282340D01*
X62482526Y-63282340D02*
X62482526Y-63336215D01*
X62482526Y-63336215D02*
X62509463Y-63417027D01*
X62509463Y-63417027D02*
X62563338Y-63470902D01*
X62563338Y-63470902D02*
X62644150Y-63497839D01*
X62644150Y-63497839D02*
X62698025Y-63497839D01*
X62698025Y-63497839D02*
X62778837Y-63470902D01*
X62778837Y-63470902D02*
X62967399Y-63282340D01*
X62213152Y-63605589D02*
X62159277Y-63605589D01*
X62159277Y-63605589D02*
X62078465Y-63632526D01*
X62078465Y-63632526D02*
X61943778Y-63767213D01*
X61943778Y-63767213D02*
X61916840Y-63848025D01*
X61916840Y-63848025D02*
X61916840Y-63901900D01*
X61916840Y-63901900D02*
X61943778Y-63982712D01*
X61943778Y-63982712D02*
X61997653Y-64036587D01*
X61997653Y-64036587D02*
X62105402Y-64090462D01*
X62105402Y-64090462D02*
X62751900Y-64090462D01*
X62751900Y-64090462D02*
X62401714Y-64440648D01*
X62778837Y-66080902D02*
X62724962Y-66188651D01*
X62724962Y-66188651D02*
X62724962Y-66242526D01*
X62724962Y-66242526D02*
X62751900Y-66323338D01*
X62751900Y-66323338D02*
X62832712Y-66404151D01*
X62832712Y-66404151D02*
X62913524Y-66431088D01*
X62913524Y-66431088D02*
X62967399Y-66431088D01*
X62967399Y-66431088D02*
X63048211Y-66404151D01*
X63048211Y-66404151D02*
X63263710Y-66188651D01*
X63263710Y-66188651D02*
X62698025Y-65622966D01*
X62698025Y-65622966D02*
X62509463Y-65811528D01*
X62509463Y-65811528D02*
X62482526Y-65892340D01*
X62482526Y-65892340D02*
X62482526Y-65946215D01*
X62482526Y-65946215D02*
X62509463Y-66027027D01*
X62509463Y-66027027D02*
X62563338Y-66080902D01*
X62563338Y-66080902D02*
X62644150Y-66107839D01*
X62644150Y-66107839D02*
X62698025Y-66107839D01*
X62698025Y-66107839D02*
X62778837Y-66080902D01*
X62778837Y-66080902D02*
X62967399Y-65892340D01*
X61889903Y-66431088D02*
X61997653Y-66323338D01*
X61997653Y-66323338D02*
X62078465Y-66296401D01*
X62078465Y-66296401D02*
X62132340Y-66296401D01*
X62132340Y-66296401D02*
X62267027Y-66323338D01*
X62267027Y-66323338D02*
X62401714Y-66404151D01*
X62401714Y-66404151D02*
X62617213Y-66619650D01*
X62617213Y-66619650D02*
X62644150Y-66700462D01*
X62644150Y-66700462D02*
X62644150Y-66754337D01*
X62644150Y-66754337D02*
X62617213Y-66835149D01*
X62617213Y-66835149D02*
X62509463Y-66942899D01*
X62509463Y-66942899D02*
X62428651Y-66969836D01*
X62428651Y-66969836D02*
X62374776Y-66969836D01*
X62374776Y-66969836D02*
X62293964Y-66942899D01*
X62293964Y-66942899D02*
X62159277Y-66808212D01*
X62159277Y-66808212D02*
X62132340Y-66727399D01*
X62132340Y-66727399D02*
X62132340Y-66673525D01*
X62132340Y-66673525D02*
X62159277Y-66592712D01*
X62159277Y-66592712D02*
X62267027Y-66484963D01*
X62267027Y-66484963D02*
X62347839Y-66458025D01*
X62347839Y-66458025D02*
X62401714Y-66458025D01*
X62401714Y-66458025D02*
X62482526Y-66484963D01*
X65823710Y-58508651D02*
X65258025Y-57942966D01*
X65258025Y-57942966D02*
X65123338Y-58077653D01*
X65123338Y-58077653D02*
X65069463Y-58185403D01*
X65069463Y-58185403D02*
X65069463Y-58293152D01*
X65069463Y-58293152D02*
X65096401Y-58373964D01*
X65096401Y-58373964D02*
X65177213Y-58508651D01*
X65177213Y-58508651D02*
X65258025Y-58589464D01*
X65258025Y-58589464D02*
X65392712Y-58670276D01*
X65392712Y-58670276D02*
X65473524Y-58697213D01*
X65473524Y-58697213D02*
X65581274Y-58697213D01*
X65581274Y-58697213D02*
X65689023Y-58643338D01*
X65689023Y-58643338D02*
X65823710Y-58508651D01*
X64746214Y-58454777D02*
X64369091Y-58831900D01*
X64369091Y-58831900D02*
X65177213Y-59155149D01*
X62778837Y-58400902D02*
X62724962Y-58508651D01*
X62724962Y-58508651D02*
X62724962Y-58562526D01*
X62724962Y-58562526D02*
X62751900Y-58643338D01*
X62751900Y-58643338D02*
X62832712Y-58724151D01*
X62832712Y-58724151D02*
X62913524Y-58751088D01*
X62913524Y-58751088D02*
X62967399Y-58751088D01*
X62967399Y-58751088D02*
X63048211Y-58724151D01*
X63048211Y-58724151D02*
X63263710Y-58508651D01*
X63263710Y-58508651D02*
X62698025Y-57942966D01*
X62698025Y-57942966D02*
X62509463Y-58131528D01*
X62509463Y-58131528D02*
X62482526Y-58212340D01*
X62482526Y-58212340D02*
X62482526Y-58266215D01*
X62482526Y-58266215D02*
X62509463Y-58347027D01*
X62509463Y-58347027D02*
X62563338Y-58400902D01*
X62563338Y-58400902D02*
X62644150Y-58427839D01*
X62644150Y-58427839D02*
X62698025Y-58427839D01*
X62698025Y-58427839D02*
X62778837Y-58400902D01*
X62778837Y-58400902D02*
X62967399Y-58212340D01*
X62401714Y-59370648D02*
X62724962Y-59047399D01*
X62563338Y-59209024D02*
X61997653Y-58643338D01*
X61997653Y-58643338D02*
X62132340Y-58670276D01*
X62132340Y-58670276D02*
X62240089Y-58670276D01*
X62240089Y-58670276D02*
X62320901Y-58643338D01*
X65500462Y-60769277D02*
X65311900Y-60957839D01*
X65527399Y-61334963D02*
X65796773Y-61065589D01*
X65796773Y-61065589D02*
X65231088Y-60499903D01*
X65231088Y-60499903D02*
X64961714Y-60769277D01*
X64476840Y-61254151D02*
X64584590Y-61146401D01*
X64584590Y-61146401D02*
X64665402Y-61119464D01*
X64665402Y-61119464D02*
X64719277Y-61119464D01*
X64719277Y-61119464D02*
X64853964Y-61146401D01*
X64853964Y-61146401D02*
X64988651Y-61227213D01*
X64988651Y-61227213D02*
X65204150Y-61442713D01*
X65204150Y-61442713D02*
X65231087Y-61523525D01*
X65231087Y-61523525D02*
X65231087Y-61577400D01*
X65231087Y-61577400D02*
X65204150Y-61658212D01*
X65204150Y-61658212D02*
X65096400Y-61765961D01*
X65096400Y-61765961D02*
X65015588Y-61792899D01*
X65015588Y-61792899D02*
X64961713Y-61792899D01*
X64961713Y-61792899D02*
X64880901Y-61765961D01*
X64880901Y-61765961D02*
X64746214Y-61631274D01*
X64746214Y-61631274D02*
X64719277Y-61550462D01*
X64719277Y-61550462D02*
X64719277Y-61496587D01*
X64719277Y-61496587D02*
X64746214Y-61415775D01*
X64746214Y-61415775D02*
X64853964Y-61308026D01*
X64853964Y-61308026D02*
X64934776Y-61281088D01*
X64934776Y-61281088D02*
X64988651Y-61281088D01*
X64988651Y-61281088D02*
X65069463Y-61308026D01*
X65456666Y-40720795D02*
X65189999Y-41520795D01*
X65189999Y-41520795D02*
X64923333Y-40720795D01*
X64199523Y-41444604D02*
X64237619Y-41482700D01*
X64237619Y-41482700D02*
X64351904Y-41520795D01*
X64351904Y-41520795D02*
X64428095Y-41520795D01*
X64428095Y-41520795D02*
X64542381Y-41482700D01*
X64542381Y-41482700D02*
X64618571Y-41406509D01*
X64618571Y-41406509D02*
X64656666Y-41330319D01*
X64656666Y-41330319D02*
X64694762Y-41177938D01*
X64694762Y-41177938D02*
X64694762Y-41063652D01*
X64694762Y-41063652D02*
X64656666Y-40911271D01*
X64656666Y-40911271D02*
X64618571Y-40835080D01*
X64618571Y-40835080D02*
X64542381Y-40758890D01*
X64542381Y-40758890D02*
X64428095Y-40720795D01*
X64428095Y-40720795D02*
X64351904Y-40720795D01*
X64351904Y-40720795D02*
X64237619Y-40758890D01*
X64237619Y-40758890D02*
X64199523Y-40796985D01*
X63399523Y-41444604D02*
X63437619Y-41482700D01*
X63437619Y-41482700D02*
X63551904Y-41520795D01*
X63551904Y-41520795D02*
X63628095Y-41520795D01*
X63628095Y-41520795D02*
X63742381Y-41482700D01*
X63742381Y-41482700D02*
X63818571Y-41406509D01*
X63818571Y-41406509D02*
X63856666Y-41330319D01*
X63856666Y-41330319D02*
X63894762Y-41177938D01*
X63894762Y-41177938D02*
X63894762Y-41063652D01*
X63894762Y-41063652D02*
X63856666Y-40911271D01*
X63856666Y-40911271D02*
X63818571Y-40835080D01*
X63818571Y-40835080D02*
X63742381Y-40758890D01*
X63742381Y-40758890D02*
X63628095Y-40720795D01*
X63628095Y-40720795D02*
X63551904Y-40720795D01*
X63551904Y-40720795D02*
X63437619Y-40758890D01*
X63437619Y-40758890D02*
X63399523Y-40796985D01*
X64999523Y-36163890D02*
X65075713Y-36125795D01*
X65075713Y-36125795D02*
X65189999Y-36125795D01*
X65189999Y-36125795D02*
X65304285Y-36163890D01*
X65304285Y-36163890D02*
X65380475Y-36240080D01*
X65380475Y-36240080D02*
X65418570Y-36316271D01*
X65418570Y-36316271D02*
X65456666Y-36468652D01*
X65456666Y-36468652D02*
X65456666Y-36582938D01*
X65456666Y-36582938D02*
X65418570Y-36735319D01*
X65418570Y-36735319D02*
X65380475Y-36811509D01*
X65380475Y-36811509D02*
X65304285Y-36887700D01*
X65304285Y-36887700D02*
X65189999Y-36925795D01*
X65189999Y-36925795D02*
X65113808Y-36925795D01*
X65113808Y-36925795D02*
X64999523Y-36887700D01*
X64999523Y-36887700D02*
X64961427Y-36849604D01*
X64961427Y-36849604D02*
X64961427Y-36582938D01*
X64961427Y-36582938D02*
X65113808Y-36582938D01*
X64618570Y-36925795D02*
X64618570Y-36125795D01*
X64618570Y-36125795D02*
X64161427Y-36925795D01*
X64161427Y-36925795D02*
X64161427Y-36125795D01*
X63780475Y-36925795D02*
X63780475Y-36125795D01*
X63780475Y-36125795D02*
X63589999Y-36125795D01*
X63589999Y-36125795D02*
X63475713Y-36163890D01*
X63475713Y-36163890D02*
X63399523Y-36240080D01*
X63399523Y-36240080D02*
X63361428Y-36316271D01*
X63361428Y-36316271D02*
X63323332Y-36468652D01*
X63323332Y-36468652D02*
X63323332Y-36582938D01*
X63323332Y-36582938D02*
X63361428Y-36735319D01*
X63361428Y-36735319D02*
X63399523Y-36811509D01*
X63399523Y-36811509D02*
X63475713Y-36887700D01*
X63475713Y-36887700D02*
X63589999Y-36925795D01*
X63589999Y-36925795D02*
X63780475Y-36925795D01*
X64980475Y-35012295D02*
X64980475Y-34212295D01*
X64980475Y-34212295D02*
X64789999Y-34212295D01*
X64789999Y-34212295D02*
X64675713Y-34250390D01*
X64675713Y-34250390D02*
X64599523Y-34326580D01*
X64599523Y-34326580D02*
X64561428Y-34402771D01*
X64561428Y-34402771D02*
X64523332Y-34555152D01*
X64523332Y-34555152D02*
X64523332Y-34669438D01*
X64523332Y-34669438D02*
X64561428Y-34821819D01*
X64561428Y-34821819D02*
X64599523Y-34898009D01*
X64599523Y-34898009D02*
X64675713Y-34974200D01*
X64675713Y-34974200D02*
X64789999Y-35012295D01*
X64789999Y-35012295D02*
X64980475Y-35012295D01*
X64218571Y-34288485D02*
X64180475Y-34250390D01*
X64180475Y-34250390D02*
X64104285Y-34212295D01*
X64104285Y-34212295D02*
X63913809Y-34212295D01*
X63913809Y-34212295D02*
X63837618Y-34250390D01*
X63837618Y-34250390D02*
X63799523Y-34288485D01*
X63799523Y-34288485D02*
X63761428Y-34364676D01*
X63761428Y-34364676D02*
X63761428Y-34440866D01*
X63761428Y-34440866D02*
X63799523Y-34555152D01*
X63799523Y-34555152D02*
X64256666Y-35012295D01*
X64256666Y-35012295D02*
X63761428Y-35012295D01*
X61029609Y-66429523D02*
X61067704Y-66505713D01*
X61067704Y-66505713D02*
X61067704Y-66619999D01*
X61067704Y-66619999D02*
X61029609Y-66734285D01*
X61029609Y-66734285D02*
X60953419Y-66810475D01*
X60953419Y-66810475D02*
X60877228Y-66848570D01*
X60877228Y-66848570D02*
X60724847Y-66886666D01*
X60724847Y-66886666D02*
X60610561Y-66886666D01*
X60610561Y-66886666D02*
X60458180Y-66848570D01*
X60458180Y-66848570D02*
X60381990Y-66810475D01*
X60381990Y-66810475D02*
X60305800Y-66734285D01*
X60305800Y-66734285D02*
X60267704Y-66619999D01*
X60267704Y-66619999D02*
X60267704Y-66543808D01*
X60267704Y-66543808D02*
X60305800Y-66429523D01*
X60305800Y-66429523D02*
X60343895Y-66391427D01*
X60343895Y-66391427D02*
X60610561Y-66391427D01*
X60610561Y-66391427D02*
X60610561Y-66543808D01*
X60267704Y-66048570D02*
X61067704Y-66048570D01*
X61067704Y-66048570D02*
X60267704Y-65591427D01*
X60267704Y-65591427D02*
X61067704Y-65591427D01*
X60267704Y-65210475D02*
X61067704Y-65210475D01*
X61067704Y-65210475D02*
X61067704Y-65019999D01*
X61067704Y-65019999D02*
X61029609Y-64905713D01*
X61029609Y-64905713D02*
X60953419Y-64829523D01*
X60953419Y-64829523D02*
X60877228Y-64791428D01*
X60877228Y-64791428D02*
X60724847Y-64753332D01*
X60724847Y-64753332D02*
X60610561Y-64753332D01*
X60610561Y-64753332D02*
X60458180Y-64791428D01*
X60458180Y-64791428D02*
X60381990Y-64829523D01*
X60381990Y-64829523D02*
X60305800Y-64905713D01*
X60305800Y-64905713D02*
X60267704Y-65019999D01*
X60267704Y-65019999D02*
X60267704Y-65210475D01*
X50311348Y-67693710D02*
X50877033Y-67128025D01*
X50877033Y-67128025D02*
X50742346Y-66993338D01*
X50742346Y-66993338D02*
X50634596Y-66939463D01*
X50634596Y-66939463D02*
X50526847Y-66939463D01*
X50526847Y-66939463D02*
X50446035Y-66966401D01*
X50446035Y-66966401D02*
X50311348Y-67047213D01*
X50311348Y-67047213D02*
X50230535Y-67128025D01*
X50230535Y-67128025D02*
X50149723Y-67262712D01*
X50149723Y-67262712D02*
X50122786Y-67343524D01*
X50122786Y-67343524D02*
X50122786Y-67451274D01*
X50122786Y-67451274D02*
X50176661Y-67559023D01*
X50176661Y-67559023D02*
X50311348Y-67693710D01*
X50041974Y-66292966D02*
X50311348Y-66562340D01*
X50311348Y-66562340D02*
X50068911Y-66858651D01*
X50068911Y-66858651D02*
X50068911Y-66804776D01*
X50068911Y-66804776D02*
X50041974Y-66723964D01*
X50041974Y-66723964D02*
X49907287Y-66589277D01*
X49907287Y-66589277D02*
X49826474Y-66562340D01*
X49826474Y-66562340D02*
X49772600Y-66562340D01*
X49772600Y-66562340D02*
X49691787Y-66589277D01*
X49691787Y-66589277D02*
X49557100Y-66723964D01*
X49557100Y-66723964D02*
X49530163Y-66804776D01*
X49530163Y-66804776D02*
X49530163Y-66858651D01*
X49530163Y-66858651D02*
X49557100Y-66939463D01*
X49557100Y-66939463D02*
X49691787Y-67074150D01*
X49691787Y-67074150D02*
X49772600Y-67101088D01*
X49772600Y-67101088D02*
X49826474Y-67101088D01*
X57878691Y-67168431D02*
X58067253Y-67356993D01*
X57770941Y-67653304D02*
X58336627Y-67087619D01*
X58336627Y-67087619D02*
X58067253Y-66818245D01*
X57744004Y-66494996D02*
X57690129Y-66441121D01*
X57690129Y-66441121D02*
X57609317Y-66414184D01*
X57609317Y-66414184D02*
X57555442Y-66414184D01*
X57555442Y-66414184D02*
X57474630Y-66441121D01*
X57474630Y-66441121D02*
X57339943Y-66521934D01*
X57339943Y-66521934D02*
X57205256Y-66656621D01*
X57205256Y-66656621D02*
X57124444Y-66791308D01*
X57124444Y-66791308D02*
X57097506Y-66872120D01*
X57097506Y-66872120D02*
X57097506Y-66925995D01*
X57097506Y-66925995D02*
X57124444Y-67006807D01*
X57124444Y-67006807D02*
X57178319Y-67060682D01*
X57178319Y-67060682D02*
X57259131Y-67087619D01*
X57259131Y-67087619D02*
X57313006Y-67087619D01*
X57313006Y-67087619D02*
X57393818Y-67060682D01*
X57393818Y-67060682D02*
X57528505Y-66979869D01*
X57528505Y-66979869D02*
X57663192Y-66845182D01*
X57663192Y-66845182D02*
X57744004Y-66710495D01*
X57744004Y-66710495D02*
X57770942Y-66629683D01*
X57770942Y-66629683D02*
X57770942Y-66575808D01*
X57770942Y-66575808D02*
X57744004Y-66494996D01*
X47839097Y-67208837D02*
X47731348Y-67154962D01*
X47731348Y-67154962D02*
X47677473Y-67154962D01*
X47677473Y-67154962D02*
X47596661Y-67181900D01*
X47596661Y-67181900D02*
X47515848Y-67262712D01*
X47515848Y-67262712D02*
X47488911Y-67343524D01*
X47488911Y-67343524D02*
X47488911Y-67397399D01*
X47488911Y-67397399D02*
X47515848Y-67478211D01*
X47515848Y-67478211D02*
X47731348Y-67693710D01*
X47731348Y-67693710D02*
X48297033Y-67128025D01*
X48297033Y-67128025D02*
X48108471Y-66939463D01*
X48108471Y-66939463D02*
X48027659Y-66912526D01*
X48027659Y-66912526D02*
X47973784Y-66912526D01*
X47973784Y-66912526D02*
X47892972Y-66939463D01*
X47892972Y-66939463D02*
X47839097Y-66993338D01*
X47839097Y-66993338D02*
X47812160Y-67074150D01*
X47812160Y-67074150D02*
X47812160Y-67128025D01*
X47812160Y-67128025D02*
X47839097Y-67208837D01*
X47839097Y-67208837D02*
X48027659Y-67397399D01*
X47785222Y-66616214D02*
X47408099Y-66239091D01*
X47408099Y-66239091D02*
X47084850Y-67047213D01*
X42394609Y-66429523D02*
X42432704Y-66505713D01*
X42432704Y-66505713D02*
X42432704Y-66619999D01*
X42432704Y-66619999D02*
X42394609Y-66734285D01*
X42394609Y-66734285D02*
X42318419Y-66810475D01*
X42318419Y-66810475D02*
X42242228Y-66848570D01*
X42242228Y-66848570D02*
X42089847Y-66886666D01*
X42089847Y-66886666D02*
X41975561Y-66886666D01*
X41975561Y-66886666D02*
X41823180Y-66848570D01*
X41823180Y-66848570D02*
X41746990Y-66810475D01*
X41746990Y-66810475D02*
X41670800Y-66734285D01*
X41670800Y-66734285D02*
X41632704Y-66619999D01*
X41632704Y-66619999D02*
X41632704Y-66543808D01*
X41632704Y-66543808D02*
X41670800Y-66429523D01*
X41670800Y-66429523D02*
X41708895Y-66391427D01*
X41708895Y-66391427D02*
X41975561Y-66391427D01*
X41975561Y-66391427D02*
X41975561Y-66543808D01*
X41632704Y-66048570D02*
X42432704Y-66048570D01*
X42432704Y-66048570D02*
X41632704Y-65591427D01*
X41632704Y-65591427D02*
X42432704Y-65591427D01*
X41632704Y-65210475D02*
X42432704Y-65210475D01*
X42432704Y-65210475D02*
X42432704Y-65019999D01*
X42432704Y-65019999D02*
X42394609Y-64905713D01*
X42394609Y-64905713D02*
X42318419Y-64829523D01*
X42318419Y-64829523D02*
X42242228Y-64791428D01*
X42242228Y-64791428D02*
X42089847Y-64753332D01*
X42089847Y-64753332D02*
X41975561Y-64753332D01*
X41975561Y-64753332D02*
X41823180Y-64791428D01*
X41823180Y-64791428D02*
X41746990Y-64829523D01*
X41746990Y-64829523D02*
X41670800Y-64905713D01*
X41670800Y-64905713D02*
X41632704Y-65019999D01*
X41632704Y-65019999D02*
X41632704Y-65210475D01*
X55298691Y-67168431D02*
X55487253Y-67356993D01*
X55190941Y-67653304D02*
X55756627Y-67087619D01*
X55756627Y-67087619D02*
X55487253Y-66818245D01*
X54409757Y-66872120D02*
X54733006Y-67195369D01*
X54571381Y-67033744D02*
X55137067Y-66468059D01*
X55137067Y-66468059D02*
X55110129Y-66602746D01*
X55110129Y-66602746D02*
X55110129Y-66710495D01*
X55110129Y-66710495D02*
X55137067Y-66791308D01*
X52531974Y-67316587D02*
X52531974Y-67370462D01*
X52531974Y-67370462D02*
X52585848Y-67478211D01*
X52585848Y-67478211D02*
X52639723Y-67532086D01*
X52639723Y-67532086D02*
X52747473Y-67585961D01*
X52747473Y-67585961D02*
X52855222Y-67585961D01*
X52855222Y-67585961D02*
X52936035Y-67559023D01*
X52936035Y-67559023D02*
X53070722Y-67478211D01*
X53070722Y-67478211D02*
X53151534Y-67397399D01*
X53151534Y-67397399D02*
X53232346Y-67262712D01*
X53232346Y-67262712D02*
X53259283Y-67181900D01*
X53259283Y-67181900D02*
X53259283Y-67074150D01*
X53259283Y-67074150D02*
X53205409Y-66966401D01*
X53205409Y-66966401D02*
X53151534Y-66912526D01*
X53151534Y-66912526D02*
X53043784Y-66858651D01*
X53043784Y-66858651D02*
X52989909Y-66858651D01*
X52855222Y-66616214D02*
X52478099Y-66239091D01*
X52478099Y-66239091D02*
X52154850Y-67047213D01*
X36710000Y-74648200D02*
X49283000Y-74648200D01*
X36710000Y-74648200D02*
X36710000Y-74070000D01*
X49283000Y-74648200D02*
X49283000Y-67891800D01*
X34710000Y-74070000D02*
X34710000Y-68470000D01*
X36710000Y-74070000D02*
X34710000Y-74070000D01*
X36710000Y-68470000D02*
X34710000Y-68470000D01*
X36710000Y-68470000D02*
X36710000Y-67891800D01*
X36710000Y-67891800D02*
X49283000Y-67891800D01*
D11*
X52070000Y-72180000D02*
X52070000Y-70680000D01*
X53320000Y-68180000D02*
X57820000Y-68180000D01*
X57820000Y-74680000D02*
X53320000Y-74680000D01*
X59070000Y-70680000D02*
X59070000Y-72180000D01*
D12*
X60230000Y-30720000D02*
X42450000Y-30720000D01*
X42450000Y-30720000D02*
X42450000Y-63740000D01*
X60230000Y-63740000D02*
X60230000Y-30720000D01*
X42450000Y-63740000D02*
X60230000Y-63740000D01*
D10*
X61011800Y-30360500D02*
X61011800Y-42933500D01*
X61011800Y-42933500D02*
X67768200Y-42933500D01*
X61590000Y-28360500D02*
X67190000Y-28360500D01*
X61590000Y-30360500D02*
X61011800Y-30360500D01*
X61590000Y-30360500D02*
X61590000Y-28360500D01*
X67190000Y-30360500D02*
X67190000Y-28360500D01*
X67190000Y-30360500D02*
X67768200Y-30360500D01*
X67768200Y-30360500D02*
X67768200Y-42933500D01*
D13*
X51877275Y-45968931D02*
X51961095Y-46413555D01*
X52579667Y-46668551D01*
X52950707Y-46416246D01*
X53024144Y-46366506D01*
X53121499Y-46301218D01*
X53205787Y-46245454D01*
X53272631Y-46202078D01*
X53317654Y-46173953D01*
X53336478Y-46163942D01*
X53348039Y-46171061D01*
X53382596Y-46200894D01*
X53434894Y-46249852D01*
X53500500Y-46313440D01*
X53574983Y-46387163D01*
X53653913Y-46466525D01*
X53732856Y-46547031D01*
X53807384Y-46624185D01*
X53873063Y-46693493D01*
X53925463Y-46750457D01*
X53960153Y-46790584D01*
X53972701Y-46809377D01*
X53969782Y-46817451D01*
X53949571Y-46853469D01*
X53912663Y-46912744D01*
X53862050Y-46990630D01*
X53800725Y-47082481D01*
X53731679Y-47183650D01*
X53693787Y-47238826D01*
X53628606Y-47334884D01*
X53572723Y-47418717D01*
X53529117Y-47485777D01*
X53500769Y-47531519D01*
X53490657Y-47551396D01*
X53490823Y-47552497D01*
X53499743Y-47577694D01*
X53520206Y-47629147D01*
X53549360Y-47700135D01*
X53584353Y-47783935D01*
X53622332Y-47873828D01*
X53660445Y-47963091D01*
X53695839Y-48045003D01*
X53725662Y-48112843D01*
X53747061Y-48159890D01*
X53757184Y-48179422D01*
X53763174Y-48181155D01*
X53799566Y-48188969D01*
X53864427Y-48201915D01*
X53952565Y-48218979D01*
X54058787Y-48239151D01*
X54177902Y-48261418D01*
X54240683Y-48273223D01*
X54355912Y-48295748D01*
X54456662Y-48316550D01*
X54537426Y-48334435D01*
X54592698Y-48348208D01*
X54616971Y-48356674D01*
X54621331Y-48365066D01*
X54628563Y-48406072D01*
X54634246Y-48474368D01*
X54638382Y-48563529D01*
X54640977Y-48667128D01*
X54642036Y-48778740D01*
X54641561Y-48891938D01*
X54639559Y-49000296D01*
X54636033Y-49097389D01*
X54630987Y-49176790D01*
X54624427Y-49232072D01*
X54616356Y-49256810D01*
X54611458Y-49259600D01*
X54574930Y-49271569D01*
X54511565Y-49287405D01*
X54428686Y-49305374D01*
X54333618Y-49323741D01*
X54301542Y-49329591D01*
X54153393Y-49356798D01*
X54036961Y-49378663D01*
X53948209Y-49396093D01*
X53883103Y-49409996D01*
X53837606Y-49421277D01*
X53807682Y-49430843D01*
X53789294Y-49439601D01*
X53778407Y-49448457D01*
X53777142Y-49449943D01*
X53759338Y-49480931D01*
X53732994Y-49537634D01*
X53700661Y-49613399D01*
X53664893Y-49701574D01*
X53628244Y-49795507D01*
X53593266Y-49888547D01*
X53562513Y-49974041D01*
X53538538Y-50045336D01*
X53523895Y-50095782D01*
X53521136Y-50118726D01*
X53522981Y-50121703D01*
X53542075Y-50150493D01*
X53577984Y-50203595D01*
X53627378Y-50276117D01*
X53686927Y-50363167D01*
X53753303Y-50459854D01*
X53771520Y-50486456D01*
X53835577Y-50581875D01*
X53890937Y-50667212D01*
X53934439Y-50737405D01*
X53962924Y-50787394D01*
X53973232Y-50812116D01*
X53971011Y-50818616D01*
X53947858Y-50850644D01*
X53902177Y-50902945D01*
X53837241Y-50971999D01*
X53756319Y-51054286D01*
X53662685Y-51146286D01*
X53609165Y-51197781D01*
X53524542Y-51277983D01*
X53450475Y-51346678D01*
X53390941Y-51400252D01*
X53349917Y-51435085D01*
X53331381Y-51447563D01*
X53318646Y-51442938D01*
X53279436Y-51421057D01*
X53222495Y-51385273D01*
X53155250Y-51340117D01*
X53107438Y-51307165D01*
X53011985Y-51241727D01*
X52910125Y-51172228D01*
X52817088Y-51109075D01*
X52634832Y-50985800D01*
X52481841Y-51068520D01*
X52445817Y-51087613D01*
X52380303Y-51120272D01*
X52329640Y-51142819D01*
X52302564Y-51151226D01*
X52293703Y-51140430D01*
X52271699Y-51099323D01*
X52239199Y-51031549D01*
X52198010Y-50941409D01*
X52149942Y-50833205D01*
X52096802Y-50711237D01*
X52040399Y-50579808D01*
X51982542Y-50443218D01*
X51925038Y-50305767D01*
X51869697Y-50171758D01*
X51818326Y-50045491D01*
X51772735Y-49931268D01*
X51734732Y-49833390D01*
X51706124Y-49756157D01*
X51688721Y-49703871D01*
X51684331Y-49680833D01*
X51684628Y-49680160D01*
X51705077Y-49658863D01*
X51747850Y-49625508D01*
X51804117Y-49587011D01*
X51821877Y-49575256D01*
X51957014Y-49463735D01*
X52068856Y-49330906D01*
X52154755Y-49182298D01*
X52212062Y-49023440D01*
X52238131Y-48859860D01*
X52230313Y-48697088D01*
X52198644Y-48552315D01*
X52141782Y-48406124D01*
X52058888Y-48275703D01*
X51945131Y-48151813D01*
X51900433Y-48112235D01*
X51755935Y-48014723D01*
X51599838Y-47949050D01*
X51436667Y-47914630D01*
X51270943Y-47910874D01*
X51107192Y-47937194D01*
X50949936Y-47993003D01*
X50803698Y-48077714D01*
X50673004Y-48190737D01*
X50562374Y-48331487D01*
X50541105Y-48366342D01*
X50468810Y-48525655D01*
X50430415Y-48691552D01*
X50424914Y-48859737D01*
X50451301Y-49025913D01*
X50508570Y-49185784D01*
X50595717Y-49335053D01*
X50711736Y-49469423D01*
X50855622Y-49584599D01*
X50860294Y-49587702D01*
X50915964Y-49626933D01*
X50957689Y-49660286D01*
X50976746Y-49680833D01*
X50974342Y-49696941D01*
X50959391Y-49743844D01*
X50932881Y-49816539D01*
X50896620Y-49910725D01*
X50852416Y-50022098D01*
X50802076Y-50146358D01*
X50747407Y-50279202D01*
X50690218Y-50416327D01*
X50632316Y-50553432D01*
X50575510Y-50686215D01*
X50521606Y-50810374D01*
X50472412Y-50921606D01*
X50429737Y-51015609D01*
X50395387Y-51088082D01*
X50371171Y-51134722D01*
X50358897Y-51151226D01*
X50348689Y-51148991D01*
X50308586Y-51132926D01*
X50249318Y-51104759D01*
X50179619Y-51068520D01*
X50026629Y-50985800D01*
X49844373Y-51109075D01*
X49790527Y-51145579D01*
X49690374Y-51213784D01*
X49590525Y-51282098D01*
X49506211Y-51340117D01*
X49459679Y-51371736D01*
X49399200Y-51411020D01*
X49354357Y-51437912D01*
X49332455Y-51447883D01*
X49323045Y-51443650D01*
X49289031Y-51417721D01*
X49236595Y-51372070D01*
X49170301Y-51311186D01*
X49094713Y-51239561D01*
X49014396Y-51161683D01*
X48933913Y-51082045D01*
X48857829Y-51005135D01*
X48790707Y-50935445D01*
X48737112Y-50877464D01*
X48701608Y-50835684D01*
X48688759Y-50814593D01*
X48689500Y-50810581D01*
X48704793Y-50777920D01*
X48737462Y-50721412D01*
X48784350Y-50646163D01*
X48842301Y-50557275D01*
X48908157Y-50459854D01*
X48926627Y-50432982D01*
X48991482Y-50338423D01*
X49048609Y-50254827D01*
X49094678Y-50187084D01*
X49126359Y-50140086D01*
X49140324Y-50118726D01*
X49140668Y-50117811D01*
X49136546Y-50091678D01*
X49120807Y-50038740D01*
X49096004Y-49965647D01*
X49064689Y-49879052D01*
X49029417Y-49785608D01*
X48992740Y-49691965D01*
X48957212Y-49604777D01*
X48925386Y-49530695D01*
X48899816Y-49476371D01*
X48883053Y-49448457D01*
X48881374Y-49446724D01*
X48869372Y-49437956D01*
X48849103Y-49429115D01*
X48816529Y-49419292D01*
X48767616Y-49407583D01*
X48698327Y-49393080D01*
X48604625Y-49374876D01*
X48482476Y-49352066D01*
X48327842Y-49323741D01*
X48295770Y-49317780D01*
X48203893Y-49299352D01*
X48126607Y-49281892D01*
X48071236Y-49267133D01*
X48045105Y-49256810D01*
X48040733Y-49248197D01*
X48033445Y-49206826D01*
X48027669Y-49138241D01*
X48023410Y-49048868D01*
X48020673Y-48945135D01*
X48019462Y-48833465D01*
X48019782Y-48720287D01*
X48021636Y-48612026D01*
X48025030Y-48515108D01*
X48029967Y-48435959D01*
X48036452Y-48381006D01*
X48044489Y-48356674D01*
X48052696Y-48353079D01*
X48093519Y-48341748D01*
X48162524Y-48325722D01*
X48254203Y-48306195D01*
X48363050Y-48284362D01*
X48483558Y-48261418D01*
X48549357Y-48249159D01*
X48662135Y-48227901D01*
X48759207Y-48209287D01*
X48835382Y-48194328D01*
X48885469Y-48184036D01*
X48904276Y-48179422D01*
X48904983Y-48178471D01*
X48916961Y-48154310D01*
X48939794Y-48103694D01*
X48970630Y-48033338D01*
X49006613Y-47949958D01*
X49044891Y-47860270D01*
X49082609Y-47770989D01*
X49116913Y-47688832D01*
X49144949Y-47620513D01*
X49163864Y-47572748D01*
X49170803Y-47552254D01*
X49167742Y-47545043D01*
X49147372Y-47510728D01*
X49110422Y-47452970D01*
X49059860Y-47376299D01*
X48998657Y-47285248D01*
X48929781Y-47184350D01*
X48891994Y-47129093D01*
X48826782Y-47032215D01*
X48770871Y-46947193D01*
X48727241Y-46878662D01*
X48698877Y-46831260D01*
X48688759Y-46809623D01*
X48695790Y-46797887D01*
X48725197Y-46762818D01*
X48773441Y-46709745D01*
X48836093Y-46643164D01*
X48908725Y-46567574D01*
X48986908Y-46487472D01*
X49066214Y-46407354D01*
X49142213Y-46331718D01*
X49210478Y-46265062D01*
X49266580Y-46211882D01*
X49306090Y-46176676D01*
X49324579Y-46163942D01*
X49334843Y-46168893D01*
X49372530Y-46191857D01*
X49433348Y-46230938D01*
X49512913Y-46283272D01*
X49606843Y-46345996D01*
X49710754Y-46416246D01*
X50081794Y-46668551D01*
X50391080Y-46541053D01*
X50700365Y-46413555D01*
X50784186Y-45968931D01*
X50868006Y-45524307D01*
X51793454Y-45524307D01*
X51877275Y-45968931D01*
G36*
X51877275Y-45968931D02*
G01*
X51961095Y-46413555D01*
X52579667Y-46668551D01*
X52950707Y-46416246D01*
X53024144Y-46366506D01*
X53121499Y-46301218D01*
X53205787Y-46245454D01*
X53272631Y-46202078D01*
X53317654Y-46173953D01*
X53336478Y-46163942D01*
X53348039Y-46171061D01*
X53382596Y-46200894D01*
X53434894Y-46249852D01*
X53500500Y-46313440D01*
X53574983Y-46387163D01*
X53653913Y-46466525D01*
X53732856Y-46547031D01*
X53807384Y-46624185D01*
X53873063Y-46693493D01*
X53925463Y-46750457D01*
X53960153Y-46790584D01*
X53972701Y-46809377D01*
X53969782Y-46817451D01*
X53949571Y-46853469D01*
X53912663Y-46912744D01*
X53862050Y-46990630D01*
X53800725Y-47082481D01*
X53731679Y-47183650D01*
X53693787Y-47238826D01*
X53628606Y-47334884D01*
X53572723Y-47418717D01*
X53529117Y-47485777D01*
X53500769Y-47531519D01*
X53490657Y-47551396D01*
X53490823Y-47552497D01*
X53499743Y-47577694D01*
X53520206Y-47629147D01*
X53549360Y-47700135D01*
X53584353Y-47783935D01*
X53622332Y-47873828D01*
X53660445Y-47963091D01*
X53695839Y-48045003D01*
X53725662Y-48112843D01*
X53747061Y-48159890D01*
X53757184Y-48179422D01*
X53763174Y-48181155D01*
X53799566Y-48188969D01*
X53864427Y-48201915D01*
X53952565Y-48218979D01*
X54058787Y-48239151D01*
X54177902Y-48261418D01*
X54240683Y-48273223D01*
X54355912Y-48295748D01*
X54456662Y-48316550D01*
X54537426Y-48334435D01*
X54592698Y-48348208D01*
X54616971Y-48356674D01*
X54621331Y-48365066D01*
X54628563Y-48406072D01*
X54634246Y-48474368D01*
X54638382Y-48563529D01*
X54640977Y-48667128D01*
X54642036Y-48778740D01*
X54641561Y-48891938D01*
X54639559Y-49000296D01*
X54636033Y-49097389D01*
X54630987Y-49176790D01*
X54624427Y-49232072D01*
X54616356Y-49256810D01*
X54611458Y-49259600D01*
X54574930Y-49271569D01*
X54511565Y-49287405D01*
X54428686Y-49305374D01*
X54333618Y-49323741D01*
X54301542Y-49329591D01*
X54153393Y-49356798D01*
X54036961Y-49378663D01*
X53948209Y-49396093D01*
X53883103Y-49409996D01*
X53837606Y-49421277D01*
X53807682Y-49430843D01*
X53789294Y-49439601D01*
X53778407Y-49448457D01*
X53777142Y-49449943D01*
X53759338Y-49480931D01*
X53732994Y-49537634D01*
X53700661Y-49613399D01*
X53664893Y-49701574D01*
X53628244Y-49795507D01*
X53593266Y-49888547D01*
X53562513Y-49974041D01*
X53538538Y-50045336D01*
X53523895Y-50095782D01*
X53521136Y-50118726D01*
X53522981Y-50121703D01*
X53542075Y-50150493D01*
X53577984Y-50203595D01*
X53627378Y-50276117D01*
X53686927Y-50363167D01*
X53753303Y-50459854D01*
X53771520Y-50486456D01*
X53835577Y-50581875D01*
X53890937Y-50667212D01*
X53934439Y-50737405D01*
X53962924Y-50787394D01*
X53973232Y-50812116D01*
X53971011Y-50818616D01*
X53947858Y-50850644D01*
X53902177Y-50902945D01*
X53837241Y-50971999D01*
X53756319Y-51054286D01*
X53662685Y-51146286D01*
X53609165Y-51197781D01*
X53524542Y-51277983D01*
X53450475Y-51346678D01*
X53390941Y-51400252D01*
X53349917Y-51435085D01*
X53331381Y-51447563D01*
X53318646Y-51442938D01*
X53279436Y-51421057D01*
X53222495Y-51385273D01*
X53155250Y-51340117D01*
X53107438Y-51307165D01*
X53011985Y-51241727D01*
X52910125Y-51172228D01*
X52817088Y-51109075D01*
X52634832Y-50985800D01*
X52481841Y-51068520D01*
X52445817Y-51087613D01*
X52380303Y-51120272D01*
X52329640Y-51142819D01*
X52302564Y-51151226D01*
X52293703Y-51140430D01*
X52271699Y-51099323D01*
X52239199Y-51031549D01*
X52198010Y-50941409D01*
X52149942Y-50833205D01*
X52096802Y-50711237D01*
X52040399Y-50579808D01*
X51982542Y-50443218D01*
X51925038Y-50305767D01*
X51869697Y-50171758D01*
X51818326Y-50045491D01*
X51772735Y-49931268D01*
X51734732Y-49833390D01*
X51706124Y-49756157D01*
X51688721Y-49703871D01*
X51684331Y-49680833D01*
X51684628Y-49680160D01*
X51705077Y-49658863D01*
X51747850Y-49625508D01*
X51804117Y-49587011D01*
X51821877Y-49575256D01*
X51957014Y-49463735D01*
X52068856Y-49330906D01*
X52154755Y-49182298D01*
X52212062Y-49023440D01*
X52238131Y-48859860D01*
X52230313Y-48697088D01*
X52198644Y-48552315D01*
X52141782Y-48406124D01*
X52058888Y-48275703D01*
X51945131Y-48151813D01*
X51900433Y-48112235D01*
X51755935Y-48014723D01*
X51599838Y-47949050D01*
X51436667Y-47914630D01*
X51270943Y-47910874D01*
X51107192Y-47937194D01*
X50949936Y-47993003D01*
X50803698Y-48077714D01*
X50673004Y-48190737D01*
X50562374Y-48331487D01*
X50541105Y-48366342D01*
X50468810Y-48525655D01*
X50430415Y-48691552D01*
X50424914Y-48859737D01*
X50451301Y-49025913D01*
X50508570Y-49185784D01*
X50595717Y-49335053D01*
X50711736Y-49469423D01*
X50855622Y-49584599D01*
X50860294Y-49587702D01*
X50915964Y-49626933D01*
X50957689Y-49660286D01*
X50976746Y-49680833D01*
X50974342Y-49696941D01*
X50959391Y-49743844D01*
X50932881Y-49816539D01*
X50896620Y-49910725D01*
X50852416Y-50022098D01*
X50802076Y-50146358D01*
X50747407Y-50279202D01*
X50690218Y-50416327D01*
X50632316Y-50553432D01*
X50575510Y-50686215D01*
X50521606Y-50810374D01*
X50472412Y-50921606D01*
X50429737Y-51015609D01*
X50395387Y-51088082D01*
X50371171Y-51134722D01*
X50358897Y-51151226D01*
X50348689Y-51148991D01*
X50308586Y-51132926D01*
X50249318Y-51104759D01*
X50179619Y-51068520D01*
X50026629Y-50985800D01*
X49844373Y-51109075D01*
X49790527Y-51145579D01*
X49690374Y-51213784D01*
X49590525Y-51282098D01*
X49506211Y-51340117D01*
X49459679Y-51371736D01*
X49399200Y-51411020D01*
X49354357Y-51437912D01*
X49332455Y-51447883D01*
X49323045Y-51443650D01*
X49289031Y-51417721D01*
X49236595Y-51372070D01*
X49170301Y-51311186D01*
X49094713Y-51239561D01*
X49014396Y-51161683D01*
X48933913Y-51082045D01*
X48857829Y-51005135D01*
X48790707Y-50935445D01*
X48737112Y-50877464D01*
X48701608Y-50835684D01*
X48688759Y-50814593D01*
X48689500Y-50810581D01*
X48704793Y-50777920D01*
X48737462Y-50721412D01*
X48784350Y-50646163D01*
X48842301Y-50557275D01*
X48908157Y-50459854D01*
X48926627Y-50432982D01*
X48991482Y-50338423D01*
X49048609Y-50254827D01*
X49094678Y-50187084D01*
X49126359Y-50140086D01*
X49140324Y-50118726D01*
X49140668Y-50117811D01*
X49136546Y-50091678D01*
X49120807Y-50038740D01*
X49096004Y-49965647D01*
X49064689Y-49879052D01*
X49029417Y-49785608D01*
X48992740Y-49691965D01*
X48957212Y-49604777D01*
X48925386Y-49530695D01*
X48899816Y-49476371D01*
X48883053Y-49448457D01*
X48881374Y-49446724D01*
X48869372Y-49437956D01*
X48849103Y-49429115D01*
X48816529Y-49419292D01*
X48767616Y-49407583D01*
X48698327Y-49393080D01*
X48604625Y-49374876D01*
X48482476Y-49352066D01*
X48327842Y-49323741D01*
X48295770Y-49317780D01*
X48203893Y-49299352D01*
X48126607Y-49281892D01*
X48071236Y-49267133D01*
X48045105Y-49256810D01*
X48040733Y-49248197D01*
X48033445Y-49206826D01*
X48027669Y-49138241D01*
X48023410Y-49048868D01*
X48020673Y-48945135D01*
X48019462Y-48833465D01*
X48019782Y-48720287D01*
X48021636Y-48612026D01*
X48025030Y-48515108D01*
X48029967Y-48435959D01*
X48036452Y-48381006D01*
X48044489Y-48356674D01*
X48052696Y-48353079D01*
X48093519Y-48341748D01*
X48162524Y-48325722D01*
X48254203Y-48306195D01*
X48363050Y-48284362D01*
X48483558Y-48261418D01*
X48549357Y-48249159D01*
X48662135Y-48227901D01*
X48759207Y-48209287D01*
X48835382Y-48194328D01*
X48885469Y-48184036D01*
X48904276Y-48179422D01*
X48904983Y-48178471D01*
X48916961Y-48154310D01*
X48939794Y-48103694D01*
X48970630Y-48033338D01*
X49006613Y-47949958D01*
X49044891Y-47860270D01*
X49082609Y-47770989D01*
X49116913Y-47688832D01*
X49144949Y-47620513D01*
X49163864Y-47572748D01*
X49170803Y-47552254D01*
X49167742Y-47545043D01*
X49147372Y-47510728D01*
X49110422Y-47452970D01*
X49059860Y-47376299D01*
X48998657Y-47285248D01*
X48929781Y-47184350D01*
X48891994Y-47129093D01*
X48826782Y-47032215D01*
X48770871Y-46947193D01*
X48727241Y-46878662D01*
X48698877Y-46831260D01*
X48688759Y-46809623D01*
X48695790Y-46797887D01*
X48725197Y-46762818D01*
X48773441Y-46709745D01*
X48836093Y-46643164D01*
X48908725Y-46567574D01*
X48986908Y-46487472D01*
X49066214Y-46407354D01*
X49142213Y-46331718D01*
X49210478Y-46265062D01*
X49266580Y-46211882D01*
X49306090Y-46176676D01*
X49324579Y-46163942D01*
X49334843Y-46168893D01*
X49372530Y-46191857D01*
X49433348Y-46230938D01*
X49512913Y-46283272D01*
X49606843Y-46345996D01*
X49710754Y-46416246D01*
X50081794Y-46668551D01*
X50391080Y-46541053D01*
X50700365Y-46413555D01*
X50784186Y-45968931D01*
X50868006Y-45524307D01*
X51793454Y-45524307D01*
X51877275Y-45968931D01*
G37*
D14*
X43720000Y-34530000D03*
X43720000Y-37070000D03*
D15*
X43720000Y-39610000D03*
X43720000Y-42150000D03*
D14*
X43720000Y-44690000D03*
X43720000Y-47230000D03*
X43720000Y-49770000D03*
X43720000Y-52310000D03*
X43720000Y-54850000D03*
X43720000Y-57390000D03*
X43720000Y-59930000D03*
X43720000Y-62470000D03*
X58960000Y-62470000D03*
X58960000Y-59930000D03*
X58960000Y-57390000D03*
X58960000Y-54850000D03*
X58960000Y-52310000D03*
X58960000Y-49770000D03*
X58960000Y-47230000D03*
X58960000Y-44690000D03*
D16*
X58960000Y-42150000D03*
D14*
X58960000Y-39610000D03*
D15*
X58960000Y-37070000D03*
D14*
X58960000Y-34530000D03*
X46260000Y-62470000D03*
X48800000Y-62470000D03*
X51340000Y-62470000D03*
X53880000Y-62470000D03*
X56420000Y-62470000D03*
%LPC*%
D17*
X64390000Y-71270000D03*
X38310000Y-71270000D03*
D18*
X45310000Y-71270000D03*
D19*
X47505000Y-73576000D03*
X47510000Y-68970000D03*
D20*
X42933000Y-73576000D03*
X42910000Y-68970000D03*
X39885000Y-73576000D03*
X39910000Y-68970000D03*
D21*
X52320000Y-69180000D03*
X58820000Y-69180000D03*
X52320000Y-73680000D03*
X58820000Y-73680000D03*
D14*
X43720000Y-34530000D03*
X43720000Y-37070000D03*
D15*
X43720000Y-39610000D03*
X43720000Y-42150000D03*
D14*
X43720000Y-44690000D03*
X43720000Y-47230000D03*
X43720000Y-49770000D03*
X43720000Y-52310000D03*
X43720000Y-54850000D03*
X43720000Y-57390000D03*
X43720000Y-59930000D03*
X43720000Y-62470000D03*
X58960000Y-62470000D03*
X58960000Y-59930000D03*
X58960000Y-57390000D03*
X58960000Y-54850000D03*
X58960000Y-52310000D03*
X58960000Y-49770000D03*
X58960000Y-47230000D03*
X58960000Y-44690000D03*
D16*
X58960000Y-42150000D03*
D14*
X58960000Y-39610000D03*
D15*
X58960000Y-37070000D03*
D14*
X58960000Y-34530000D03*
X46260000Y-62470000D03*
X48800000Y-62470000D03*
X51340000Y-62470000D03*
X53880000Y-62470000D03*
X56420000Y-62470000D03*
D22*
X36250000Y-44690000D03*
D23*
X36250000Y-47230000D03*
X36250000Y-49770000D03*
X36250000Y-52310000D03*
X36250000Y-54850000D03*
X36250000Y-57390000D03*
X36250000Y-59930000D03*
X36250000Y-62470000D03*
X36250000Y-65010000D03*
X38790000Y-44690000D03*
X38790000Y-47230000D03*
X38790000Y-49770000D03*
X38790000Y-52310000D03*
X38790000Y-54850000D03*
X38790000Y-57390000D03*
X38790000Y-59930000D03*
X38790000Y-62470000D03*
X38790000Y-65010000D03*
D17*
X38310000Y-31963500D03*
D23*
X66470000Y-44690000D03*
X66470000Y-47230000D03*
X66470000Y-49770000D03*
X66470000Y-52310000D03*
X66470000Y-54850000D03*
X66470000Y-57390000D03*
X66470000Y-59930000D03*
X66470000Y-62470000D03*
X66470000Y-65010000D03*
D22*
X63930000Y-44690000D03*
D23*
X63930000Y-47230000D03*
X63930000Y-49770000D03*
X63930000Y-52310000D03*
X63930000Y-54850000D03*
X63930000Y-57390000D03*
X63930000Y-59930000D03*
X63930000Y-62470000D03*
X63930000Y-65010000D03*
D17*
X64390000Y-31963500D03*
D18*
X64390000Y-38963500D03*
D24*
X62084000Y-41158500D03*
X66690000Y-41163500D03*
D25*
X62084000Y-36586500D03*
X66690000Y-36563500D03*
X62084000Y-33538500D03*
X66690000Y-33563500D03*
D26*
X43705000Y-65820000D03*
D23*
X46245000Y-65820000D03*
X48785000Y-65820000D03*
X51325000Y-65820000D03*
X53865000Y-65820000D03*
X56405000Y-65820000D03*
D26*
X58945000Y-65820000D03*
%LPD*%
M02*
