G04 #@! TF.GenerationSoftware,KiCad,Pcbnew,(6.0.6)*
G04 #@! TF.CreationDate,2023-06-15T01:10:49+08:00*
G04 #@! TF.ProjectId,handwire microboard,68616e64-7769-4726-9520-6d6963726f62,rev?*
G04 #@! TF.SameCoordinates,Original*
G04 #@! TF.FileFunction,Legend,Top*
G04 #@! TF.FilePolarity,Positive*
%FSLAX46Y46*%
G04 Gerber Fmt 4.6, Leading zero omitted, Abs format (unit mm)*
G04 Created by KiCad (PCBNEW (6.0.6)) date 2023-06-15 01:10:49*
%MOMM*%
%LPD*%
G01*
G04 APERTURE LIST*
G04 Aperture macros list*
%AMOutline4P*
0 Free polygon, 4 corners , with rotation*
0 The origin of the aperture is its center*
0 number of corners: always 4*
0 $1 to $8 corner X, Y*
0 $9 Rotation angle, in degrees counterclockwise*
0 create outline with 4 corners*
4,1,4,$1,$2,$3,$4,$5,$6,$7,$8,$1,$2,$9*%
G04 Aperture macros list end*
%ADD10C,0.150000*%
%ADD11C,0.120000*%
%ADD12C,0.200000*%
%ADD13C,1.752600*%
%ADD14Outline4P,-0.876300X-0.876300X0.876300X-0.876300X0.876300X0.876300X-0.876300X0.876300X270.000000*%
%ADD15R,1.752600X1.752600*%
%ADD16C,0.800000*%
%ADD17O,2.000000X1.600000*%
%ADD18O,1.600000X2.000000*%
%ADD19C,2.200000*%
%ADD20R,1.700000X1.700000*%
%ADD21O,1.700000X1.700000*%
%ADD22C,2.000000*%
G04 APERTURE END LIST*
D10*
X72537142Y-92216666D02*
X72584761Y-92264285D01*
X72632380Y-92407142D01*
X72632380Y-92502380D01*
X72584761Y-92645238D01*
X72489523Y-92740476D01*
X72394285Y-92788095D01*
X72203809Y-92835714D01*
X72060952Y-92835714D01*
X71870476Y-92788095D01*
X71775238Y-92740476D01*
X71680000Y-92645238D01*
X71632380Y-92502380D01*
X71632380Y-92407142D01*
X71680000Y-92264285D01*
X71727619Y-92216666D01*
X71632380Y-91597619D02*
X71632380Y-91502380D01*
X71680000Y-91407142D01*
X71727619Y-91359523D01*
X71822857Y-91311904D01*
X72013333Y-91264285D01*
X72251428Y-91264285D01*
X72441904Y-91311904D01*
X72537142Y-91359523D01*
X72584761Y-91407142D01*
X72632380Y-91502380D01*
X72632380Y-91597619D01*
X72584761Y-91692857D01*
X72537142Y-91740476D01*
X72441904Y-91788095D01*
X72251428Y-91835714D01*
X72013333Y-91835714D01*
X71822857Y-91788095D01*
X71727619Y-91740476D01*
X71680000Y-91692857D01*
X71632380Y-91597619D01*
X74322380Y-86526666D02*
X73846190Y-86860000D01*
X74322380Y-87098095D02*
X73322380Y-87098095D01*
X73322380Y-86717142D01*
X73370000Y-86621904D01*
X73417619Y-86574285D01*
X73512857Y-86526666D01*
X73655714Y-86526666D01*
X73750952Y-86574285D01*
X73798571Y-86621904D01*
X73846190Y-86717142D01*
X73846190Y-87098095D01*
X73322380Y-85907619D02*
X73322380Y-85812380D01*
X73370000Y-85717142D01*
X73417619Y-85669523D01*
X73512857Y-85621904D01*
X73703333Y-85574285D01*
X73941428Y-85574285D01*
X74131904Y-85621904D01*
X74227142Y-85669523D01*
X74274761Y-85717142D01*
X74322380Y-85812380D01*
X74322380Y-85907619D01*
X74274761Y-86002857D01*
X74227142Y-86050476D01*
X74131904Y-86098095D01*
X73941428Y-86145714D01*
X73703333Y-86145714D01*
X73512857Y-86098095D01*
X73417619Y-86050476D01*
X73370000Y-86002857D01*
X73322380Y-85907619D01*
X71702142Y-97956666D02*
X71749761Y-98004285D01*
X71797380Y-98147142D01*
X71797380Y-98242380D01*
X71749761Y-98385238D01*
X71654523Y-98480476D01*
X71559285Y-98528095D01*
X71368809Y-98575714D01*
X71225952Y-98575714D01*
X71035476Y-98528095D01*
X70940238Y-98480476D01*
X70845000Y-98385238D01*
X70797380Y-98242380D01*
X70797380Y-98147142D01*
X70845000Y-98004285D01*
X70892619Y-97956666D01*
X70797380Y-97623333D02*
X70797380Y-96956666D01*
X71797380Y-97385238D01*
X65277500Y-77210000D02*
X65277500Y-82810000D01*
X67277500Y-83312000D02*
X79723500Y-83312000D01*
X79723500Y-76708000D02*
X79723500Y-83314000D01*
X67277500Y-82810000D02*
X65277500Y-82810000D01*
X67277500Y-76708000D02*
X67277500Y-83312000D01*
X67277500Y-77210000D02*
X65277500Y-77210000D01*
X67277500Y-76708000D02*
X79723500Y-76708000D01*
X85376500Y-83312000D02*
X85376500Y-76708000D01*
X97822500Y-83312000D02*
X85376500Y-83312000D01*
X97822500Y-83312000D02*
X97822500Y-76708000D01*
X97822500Y-77210000D02*
X99822500Y-77210000D01*
X99822500Y-82810000D02*
X99822500Y-77210000D01*
X97822500Y-76708000D02*
X85376500Y-76708000D01*
X97822500Y-82810000D02*
X99822500Y-82810000D01*
X65780000Y-42512500D02*
X65780000Y-40512500D01*
X71380000Y-40512500D02*
X65780000Y-40512500D01*
X71882000Y-54958500D02*
X65278000Y-54958500D01*
X71882000Y-42512500D02*
X65278000Y-42512500D01*
X71882000Y-42512500D02*
X71882000Y-54958500D01*
X65278000Y-42512500D02*
X65278000Y-54958500D01*
X71380000Y-42512500D02*
X71380000Y-40512500D01*
X99320000Y-42512500D02*
X99320000Y-40512500D01*
X99822000Y-42512500D02*
X93218000Y-42512500D01*
X99822000Y-42512500D02*
X99822000Y-54958500D01*
X99320000Y-40512500D02*
X93720000Y-40512500D01*
X99822000Y-54958500D02*
X93218000Y-54958500D01*
X93720000Y-42512500D02*
X93720000Y-40512500D01*
X93218000Y-42512500D02*
X93218000Y-54958500D01*
D11*
X73620000Y-92050000D02*
X73620000Y-90720000D01*
X73620000Y-90720000D02*
X74950000Y-90720000D01*
X76200000Y-87690000D02*
X74870000Y-87690000D01*
X74870000Y-87690000D02*
X74870000Y-86360000D01*
X84800000Y-100890000D02*
X80300000Y-100890000D01*
X80300000Y-107390000D02*
X84800000Y-107390000D01*
X72345000Y-99120000D02*
X72345000Y-97790000D01*
X73675000Y-99120000D02*
X72345000Y-99120000D01*
D12*
X91440000Y-75565000D02*
X91440000Y-42545000D01*
X73660000Y-75565000D02*
X91440000Y-75565000D01*
X91440000Y-42545000D02*
X73660000Y-42545000D01*
X73660000Y-42545000D02*
X73660000Y-75565000D01*
D13*
X74930000Y-46355000D03*
X74930000Y-48895000D03*
D14*
X74930000Y-51435000D03*
X74930000Y-53975000D03*
D13*
X74930000Y-56515000D03*
X74930000Y-59055000D03*
X74930000Y-61595000D03*
X74930000Y-64135000D03*
X74930000Y-66675000D03*
X74930000Y-69215000D03*
X74930000Y-71755000D03*
X74930000Y-74295000D03*
X90170000Y-74295000D03*
X90170000Y-71755000D03*
X90170000Y-69215000D03*
X90170000Y-66675000D03*
X90170000Y-64135000D03*
X90170000Y-61595000D03*
X90170000Y-59055000D03*
X90170000Y-56515000D03*
D15*
X90170000Y-53975000D03*
D13*
X90170000Y-51435000D03*
D14*
X90170000Y-48895000D03*
D13*
X90170000Y-46355000D03*
X77470000Y-74295000D03*
X80010000Y-74295000D03*
X82550000Y-74295000D03*
X85090000Y-74295000D03*
X87630000Y-74295000D03*
%LPC*%
D16*
X68877500Y-80010000D03*
X75877500Y-80010000D03*
D17*
X78577500Y-82310000D03*
X77477500Y-77710000D03*
X73477500Y-77710000D03*
X70477500Y-77710000D03*
D16*
X96222500Y-80010000D03*
X89222500Y-80010000D03*
D17*
X86522500Y-77710000D03*
X87622500Y-82310000D03*
X91622500Y-82310000D03*
X94622500Y-82310000D03*
D18*
X70880000Y-45712500D03*
X70880000Y-48712500D03*
X70880000Y-52712500D03*
X66280000Y-53812500D03*
D16*
X68580000Y-51112500D03*
X68580000Y-44112500D03*
D18*
X98820000Y-45712500D03*
X98820000Y-48712500D03*
X98820000Y-52712500D03*
X94220000Y-53812500D03*
D16*
X96520000Y-44112500D03*
X96520000Y-51112500D03*
D19*
X68580000Y-104775000D03*
X96520000Y-58928000D03*
X96520000Y-104775000D03*
X68580000Y-58928000D03*
D20*
X74950000Y-92050000D03*
D21*
X77490000Y-92050000D03*
X80030000Y-92050000D03*
X82570000Y-92050000D03*
X85110000Y-92050000D03*
X87650000Y-92050000D03*
X90190000Y-92050000D03*
D20*
X76200000Y-86360000D03*
D21*
X78740000Y-86360000D03*
X81280000Y-86360000D03*
X83820000Y-86360000D03*
X86360000Y-86360000D03*
X88900000Y-86360000D03*
D22*
X79300000Y-101890000D03*
X85800000Y-101890000D03*
X79300000Y-106390000D03*
X85800000Y-106390000D03*
D20*
X73675000Y-97790000D03*
D21*
X76215000Y-97790000D03*
X78755000Y-97790000D03*
X81295000Y-97790000D03*
X83835000Y-97790000D03*
X86375000Y-97790000D03*
X88915000Y-97790000D03*
X91455000Y-97790000D03*
D13*
X74930000Y-46355000D03*
X74930000Y-48895000D03*
D14*
X74930000Y-51435000D03*
X74930000Y-53975000D03*
D13*
X74930000Y-56515000D03*
X74930000Y-59055000D03*
X74930000Y-61595000D03*
X74930000Y-64135000D03*
X74930000Y-66675000D03*
X74930000Y-69215000D03*
X74930000Y-71755000D03*
X74930000Y-74295000D03*
X90170000Y-74295000D03*
X90170000Y-71755000D03*
X90170000Y-69215000D03*
X90170000Y-66675000D03*
X90170000Y-64135000D03*
X90170000Y-61595000D03*
X90170000Y-59055000D03*
X90170000Y-56515000D03*
D15*
X90170000Y-53975000D03*
D13*
X90170000Y-51435000D03*
D14*
X90170000Y-48895000D03*
D13*
X90170000Y-46355000D03*
X77470000Y-74295000D03*
X80010000Y-74295000D03*
X82550000Y-74295000D03*
X85090000Y-74295000D03*
X87630000Y-74295000D03*
M02*
