G04 #@! TF.GenerationSoftware,KiCad,Pcbnew,7.0.5*
G04 #@! TF.CreationDate,2023-08-28T02:39:03+08:00*
G04 #@! TF.ProjectId,handwire microboard,68616e64-7769-4726-9520-6d6963726f62,rev?*
G04 #@! TF.SameCoordinates,Original*
G04 #@! TF.FileFunction,Copper,L1,Top*
G04 #@! TF.FilePolarity,Positive*
%FSLAX46Y46*%
G04 Gerber Fmt 4.6, Leading zero omitted, Abs format (unit mm)*
G04 Created by KiCad (PCBNEW 7.0.5) date 2023-08-28 02:39:03*
%MOMM*%
%LPD*%
G01*
G04 APERTURE LIST*
G04 Aperture macros list*
%AMRoundRect*
0 Rectangle with rounded corners*
0 $1 Rounding radius*
0 $2 $3 $4 $5 $6 $7 $8 $9 X,Y pos of 4 corners*
0 Add a 4 corners polygon primitive as box body*
4,1,4,$2,$3,$4,$5,$6,$7,$8,$9,$2,$3,0*
0 Add four circle primitives for the rounded corners*
1,1,$1+$1,$2,$3*
1,1,$1+$1,$4,$5*
1,1,$1+$1,$6,$7*
1,1,$1+$1,$8,$9*
0 Add four rect primitives between the rounded corners*
20,1,$1+$1,$2,$3,$4,$5,0*
20,1,$1+$1,$4,$5,$6,$7,0*
20,1,$1+$1,$6,$7,$8,$9,0*
20,1,$1+$1,$8,$9,$2,$3,0*%
G04 Aperture macros list end*
G04 #@! TA.AperFunction,ComponentPad*
%ADD10O,1.900000X1.500000*%
G04 #@! TD*
G04 #@! TA.AperFunction,ComponentPad*
%ADD11O,1.800000X1.500000*%
G04 #@! TD*
G04 #@! TA.AperFunction,ComponentPad*
%ADD12C,2.000000*%
G04 #@! TD*
G04 #@! TA.AperFunction,ComponentPad*
%ADD13C,1.752600*%
G04 #@! TD*
G04 #@! TA.AperFunction,ComponentPad*
%ADD14RoundRect,0.438150X-0.438150X0.438150X-0.438150X-0.438150X0.438150X-0.438150X0.438150X0.438150X0*%
G04 #@! TD*
G04 #@! TA.AperFunction,ComponentPad*
%ADD15R,1.752600X1.752600*%
G04 #@! TD*
G04 #@! TA.AperFunction,ComponentPad*
%ADD16O,1.500000X1.900000*%
G04 #@! TD*
G04 #@! TA.AperFunction,ComponentPad*
%ADD17O,1.500000X1.800000*%
G04 #@! TD*
G04 #@! TA.AperFunction,ComponentPad*
%ADD18O,1.700000X1.700000*%
G04 #@! TD*
G04 #@! TA.AperFunction,ComponentPad*
%ADD19C,1.700000*%
G04 #@! TD*
G04 #@! TA.AperFunction,ViaPad*
%ADD20C,0.800000*%
G04 #@! TD*
G04 #@! TA.AperFunction,Conductor*
%ADD21C,0.250000*%
G04 #@! TD*
G04 #@! TA.AperFunction,Conductor*
%ADD22C,0.350000*%
G04 #@! TD*
G04 APERTURE END LIST*
D10*
X31555000Y-63570000D03*
D11*
X24155000Y-58970000D03*
D10*
X26455000Y-58970000D03*
X30455000Y-58970000D03*
D12*
X38135000Y-55840000D03*
X31635000Y-55840000D03*
D13*
X27265000Y-24530000D03*
X27265000Y-27070000D03*
D14*
X27265000Y-29610000D03*
X27265000Y-32150000D03*
D13*
X27265000Y-34690000D03*
X27265000Y-37230000D03*
X27265000Y-39770000D03*
X27265000Y-42310000D03*
X27265000Y-44850000D03*
X27265000Y-47390000D03*
X27265000Y-49930000D03*
X27265000Y-52470000D03*
X42505000Y-52470000D03*
X42505000Y-49930000D03*
X42505000Y-47390000D03*
X42505000Y-44850000D03*
X42505000Y-42310000D03*
X42505000Y-39770000D03*
X42505000Y-37230000D03*
X42505000Y-34690000D03*
D15*
X42505000Y-32150000D03*
D13*
X42505000Y-29610000D03*
D14*
X42505000Y-27070000D03*
D13*
X42505000Y-24530000D03*
D10*
X38235000Y-58970000D03*
D11*
X45635000Y-63570000D03*
D10*
X43335000Y-63570000D03*
X39335000Y-63570000D03*
D16*
X19555000Y-31663500D03*
D17*
X24155000Y-24263500D03*
D16*
X24155000Y-26563500D03*
X24155000Y-30563500D03*
D18*
X50015000Y-34690000D03*
X50015000Y-37230000D03*
X50015000Y-39770000D03*
X50015000Y-42310000D03*
X50015000Y-44850000D03*
X50015000Y-47390000D03*
X50015000Y-49930000D03*
X50015000Y-52470000D03*
X50015000Y-55010000D03*
D19*
X47475000Y-34690000D03*
D18*
X47475000Y-37230000D03*
X47475000Y-39770000D03*
X47475000Y-42310000D03*
X47475000Y-44850000D03*
X47475000Y-47390000D03*
X47475000Y-49930000D03*
X47475000Y-52470000D03*
X47475000Y-55010000D03*
D16*
X45635000Y-31663500D03*
D17*
X50235000Y-24263500D03*
D16*
X50235000Y-26563500D03*
X50235000Y-30563500D03*
D18*
X19795000Y-34690000D03*
X19795000Y-37230000D03*
X19795000Y-39770000D03*
X19795000Y-42310000D03*
X19795000Y-44850000D03*
X19795000Y-47390000D03*
X19795000Y-49930000D03*
X19795000Y-52470000D03*
X19795000Y-55010000D03*
D19*
X22335000Y-34690000D03*
D18*
X22335000Y-37230000D03*
X22335000Y-39770000D03*
X22335000Y-42310000D03*
X22335000Y-44850000D03*
X22335000Y-47390000D03*
X22335000Y-49930000D03*
X22335000Y-52470000D03*
X22335000Y-55010000D03*
D20*
X25044302Y-28654302D03*
X24660000Y-55820000D03*
X23941000Y-34060000D03*
X38365000Y-32640000D03*
X25520000Y-56650000D03*
X24715500Y-35180000D03*
D21*
X25995000Y-53740000D02*
X27265000Y-52470000D01*
X19795000Y-55010000D02*
X21065000Y-53740000D01*
X21065000Y-53740000D02*
X25995000Y-53740000D01*
X19795000Y-52470000D02*
X21065000Y-51200000D01*
X21065000Y-51200000D02*
X25995000Y-51200000D01*
X25995000Y-51200000D02*
X27265000Y-49930000D01*
X19795000Y-49930000D02*
X21055000Y-48670000D01*
X21055000Y-48670000D02*
X25985000Y-48670000D01*
X25985000Y-48670000D02*
X27265000Y-47390000D01*
X19795000Y-47390000D02*
X21075000Y-46110000D01*
X26005000Y-46110000D02*
X27265000Y-44850000D01*
X21075000Y-46110000D02*
X26005000Y-46110000D01*
X21075000Y-43570000D02*
X26005000Y-43570000D01*
X19795000Y-44850000D02*
X21075000Y-43570000D01*
X26005000Y-43570000D02*
X27265000Y-42310000D01*
X19795000Y-42310000D02*
X21065000Y-41040000D01*
X21065000Y-41040000D02*
X25995000Y-41040000D01*
X25995000Y-41040000D02*
X27265000Y-39770000D01*
X19795000Y-39770000D02*
X21065000Y-38500000D01*
X25995000Y-38500000D02*
X27265000Y-37230000D01*
X21065000Y-38500000D02*
X25995000Y-38500000D01*
X25044302Y-28654302D02*
X25960000Y-27738604D01*
X25960000Y-25835000D02*
X27265000Y-24530000D01*
X25960000Y-27738604D02*
X25960000Y-25835000D01*
X21065000Y-35960000D02*
X25995000Y-35960000D01*
X25995000Y-35960000D02*
X27265000Y-34690000D01*
X19795000Y-37230000D02*
X21065000Y-35960000D01*
X45045000Y-37230000D02*
X42505000Y-34690000D01*
X25566105Y-37230000D02*
X26846105Y-35950000D01*
X47475000Y-37230000D02*
X45045000Y-37230000D01*
X22335000Y-37230000D02*
X25566105Y-37230000D01*
X41245000Y-35950000D02*
X42505000Y-34690000D01*
X26846105Y-35950000D02*
X41245000Y-35950000D01*
X26641396Y-38490000D02*
X25361396Y-39770000D01*
X41245000Y-38490000D02*
X26641396Y-38490000D01*
X25361396Y-39770000D02*
X22335000Y-39770000D01*
X45045000Y-39770000D02*
X42505000Y-37230000D01*
X42505000Y-37230000D02*
X41245000Y-38490000D01*
X47475000Y-39770000D02*
X45045000Y-39770000D01*
X22885000Y-54460000D02*
X40515000Y-54460000D01*
X22335000Y-55010000D02*
X22885000Y-54460000D01*
X45045000Y-55010000D02*
X42505000Y-52470000D01*
X40515000Y-54460000D02*
X42505000Y-52470000D01*
X47475000Y-55010000D02*
X45045000Y-55010000D01*
X25566105Y-52470000D02*
X26826105Y-51210000D01*
X41225000Y-51210000D02*
X42505000Y-49930000D01*
X45045000Y-52470000D02*
X47475000Y-52470000D01*
X22335000Y-52470000D02*
X25566105Y-52470000D01*
X26826105Y-51210000D02*
X41225000Y-51210000D01*
X42505000Y-49930000D02*
X45045000Y-52470000D01*
X45045000Y-49930000D02*
X42505000Y-47390000D01*
X25375000Y-49930000D02*
X22335000Y-49930000D01*
X47475000Y-49930000D02*
X45045000Y-49930000D01*
X26655000Y-48650000D02*
X25375000Y-49930000D01*
X42505000Y-47390000D02*
X41245000Y-48650000D01*
X41245000Y-48650000D02*
X26655000Y-48650000D01*
X47475000Y-47390000D02*
X45045000Y-47390000D01*
X25566105Y-47390000D02*
X26846105Y-46110000D01*
X22335000Y-47390000D02*
X25566105Y-47390000D01*
X45045000Y-47390000D02*
X42505000Y-44850000D01*
X26846105Y-46110000D02*
X41245000Y-46110000D01*
X41245000Y-46110000D02*
X42505000Y-44850000D01*
X45045000Y-44850000D02*
X42505000Y-42310000D01*
X26641396Y-43570000D02*
X25361396Y-44850000D01*
X47475000Y-44850000D02*
X45045000Y-44850000D01*
X42505000Y-42310000D02*
X41245000Y-43570000D01*
X25361396Y-44850000D02*
X22335000Y-44850000D01*
X41245000Y-43570000D02*
X26641396Y-43570000D01*
X22335000Y-42310000D02*
X25566105Y-42310000D01*
X47475000Y-42310000D02*
X45045000Y-42310000D01*
X25566105Y-42310000D02*
X26856105Y-41020000D01*
X45045000Y-42310000D02*
X42505000Y-39770000D01*
X41255000Y-41020000D02*
X42505000Y-39770000D01*
X26856105Y-41020000D02*
X41255000Y-41020000D01*
X23941000Y-34060000D02*
X24740000Y-34060000D01*
X26340000Y-30880000D02*
X41235000Y-30880000D01*
X25780000Y-33020000D02*
X25780000Y-31440000D01*
X41235000Y-30880000D02*
X42505000Y-29610000D01*
X31615000Y-55820000D02*
X31635000Y-55840000D01*
X24660000Y-55820000D02*
X31615000Y-55820000D01*
X25780000Y-31440000D02*
X26340000Y-30880000D01*
X24740000Y-34060000D02*
X25780000Y-33020000D01*
X25330000Y-32833604D02*
X24828604Y-33335000D01*
X25960000Y-30623604D02*
X25330000Y-31253604D01*
X38365000Y-32640000D02*
X39145000Y-33420000D01*
X24155000Y-58970000D02*
X27445000Y-62260000D01*
X25330000Y-31253604D02*
X25330000Y-32833604D01*
X48745000Y-33420000D02*
X50015000Y-34690000D01*
X39145000Y-33420000D02*
X48745000Y-33420000D01*
X27265000Y-27070000D02*
X25960000Y-28375000D01*
X25960000Y-28375000D02*
X25960000Y-30623604D01*
X27445000Y-62260000D02*
X44325000Y-62260000D01*
X21150000Y-33335000D02*
X19795000Y-34690000D01*
X44325000Y-62260000D02*
X45635000Y-63570000D01*
X24828604Y-33335000D02*
X21150000Y-33335000D01*
D22*
X28051268Y-33390000D02*
X28039968Y-33401300D01*
X42270000Y-31915000D02*
X42220000Y-31865000D01*
X28135000Y-56650000D02*
X30455000Y-58970000D01*
X42505000Y-32150000D02*
X44316500Y-30338500D01*
X28039968Y-33401300D02*
X26494200Y-33401300D01*
X44316500Y-30338500D02*
X50010000Y-30338500D01*
D21*
X42270000Y-31915000D02*
X42505000Y-32150000D01*
D22*
X42220000Y-31865000D02*
X38043984Y-31865000D01*
X38043984Y-31865000D02*
X36518984Y-33390000D01*
X25520000Y-56650000D02*
X28135000Y-56650000D01*
X36518984Y-33390000D02*
X28051268Y-33390000D01*
X50010000Y-30338500D02*
X50235000Y-30563500D01*
X26494200Y-33401300D02*
X24715500Y-35180000D01*
G04 #@! TA.AperFunction,NonConductor*
G36*
X51178031Y-17964299D02*
G01*
X51185641Y-17965048D01*
X51210293Y-17967476D01*
X51320730Y-17979919D01*
X51342829Y-17984477D01*
X51394823Y-18000249D01*
X51397282Y-18001053D01*
X51475132Y-18028294D01*
X51492607Y-18035967D01*
X51545933Y-18064470D01*
X51549641Y-18066623D01*
X51611057Y-18105212D01*
X51619257Y-18110365D01*
X51625609Y-18114939D01*
X51677264Y-18157331D01*
X51681765Y-18161410D01*
X51739087Y-18218732D01*
X51743167Y-18223234D01*
X51785559Y-18274889D01*
X51790133Y-18281241D01*
X51833862Y-18350834D01*
X51836039Y-18354585D01*
X51841244Y-18364321D01*
X51864528Y-18407884D01*
X51872211Y-18425382D01*
X51899444Y-18503213D01*
X51900254Y-18505691D01*
X51916020Y-18557664D01*
X51920580Y-18579777D01*
X51933022Y-18690203D01*
X51936201Y-18722468D01*
X51936500Y-18728550D01*
X51936500Y-64516780D01*
X51936167Y-64523197D01*
X51932814Y-64555444D01*
X51919915Y-64664699D01*
X51915234Y-64686796D01*
X51899150Y-64738806D01*
X51898327Y-64741282D01*
X51871014Y-64818003D01*
X51863237Y-64835459D01*
X51834477Y-64888571D01*
X51832274Y-64892320D01*
X51788628Y-64960954D01*
X51784019Y-64967282D01*
X51741407Y-65018636D01*
X51737294Y-65023124D01*
X51680261Y-65079545D01*
X51675727Y-65083609D01*
X51623901Y-65125674D01*
X51617524Y-65130214D01*
X51548450Y-65173098D01*
X51544676Y-65175262D01*
X51491235Y-65203455D01*
X51473695Y-65211044D01*
X51396702Y-65237518D01*
X51394219Y-65238313D01*
X51342011Y-65253843D01*
X51319874Y-65258284D01*
X51211332Y-65269919D01*
X51177906Y-65273029D01*
X51171787Y-65273295D01*
X51126120Y-65273022D01*
X51123355Y-65273315D01*
X18619860Y-65273315D01*
X18613779Y-65273016D01*
X18612167Y-65272857D01*
X18581759Y-65269862D01*
X18470630Y-65257333D01*
X18448529Y-65252775D01*
X18396853Y-65237100D01*
X18394373Y-65236291D01*
X18315860Y-65208819D01*
X18298363Y-65201136D01*
X18245209Y-65172726D01*
X18241448Y-65170543D01*
X18171389Y-65126523D01*
X18165036Y-65121948D01*
X18113470Y-65079630D01*
X18108960Y-65075542D01*
X18051266Y-65017850D01*
X18047177Y-65013339D01*
X18004857Y-64961773D01*
X18000291Y-64955432D01*
X17956250Y-64885342D01*
X17954076Y-64881596D01*
X17925671Y-64828455D01*
X17917988Y-64810956D01*
X17890505Y-64732416D01*
X17889704Y-64729964D01*
X17874028Y-64678289D01*
X17869472Y-64656194D01*
X17856851Y-64544183D01*
X17853797Y-64513180D01*
X17853500Y-64507112D01*
X17853500Y-61270001D01*
X19849390Y-61270001D01*
X19869804Y-61555433D01*
X19930628Y-61835037D01*
X19930630Y-61835043D01*
X19930631Y-61835046D01*
X19942374Y-61866530D01*
X20030635Y-62103166D01*
X20167770Y-62354309D01*
X20167775Y-62354317D01*
X20339254Y-62583387D01*
X20339270Y-62583405D01*
X20541594Y-62785729D01*
X20541612Y-62785745D01*
X20770682Y-62957224D01*
X20770690Y-62957229D01*
X21021833Y-63094364D01*
X21021832Y-63094364D01*
X21021836Y-63094365D01*
X21021839Y-63094367D01*
X21289954Y-63194369D01*
X21289960Y-63194370D01*
X21289962Y-63194371D01*
X21569566Y-63255195D01*
X21569568Y-63255195D01*
X21569572Y-63255196D01*
X21783552Y-63270500D01*
X21926448Y-63270500D01*
X22140428Y-63255196D01*
X22383386Y-63202344D01*
X22420037Y-63194371D01*
X22420037Y-63194370D01*
X22420046Y-63194369D01*
X22688161Y-63094367D01*
X22939315Y-62957226D01*
X23168395Y-62785739D01*
X23370739Y-62583395D01*
X23542226Y-62354315D01*
X23679367Y-62103161D01*
X23779369Y-61835046D01*
X23797883Y-61749938D01*
X23840195Y-61555433D01*
X23840195Y-61555432D01*
X23840196Y-61555428D01*
X23860610Y-61270000D01*
X23857665Y-61228830D01*
X23846119Y-61067387D01*
X23840196Y-60984572D01*
X23786895Y-60739552D01*
X23779371Y-60704962D01*
X23779370Y-60704960D01*
X23779369Y-60704954D01*
X23679367Y-60436839D01*
X23649178Y-60381553D01*
X23634327Y-60313282D01*
X23658743Y-60247817D01*
X23714676Y-60205946D01*
X23780152Y-60200120D01*
X23800921Y-60203889D01*
X23892450Y-60220500D01*
X23892453Y-60220500D01*
X24361148Y-60220500D01*
X24361155Y-60220500D01*
X24449944Y-60212508D01*
X24518475Y-60226104D01*
X24548738Y-60248328D01*
X26944194Y-62643784D01*
X26954019Y-62656048D01*
X26954240Y-62655866D01*
X26959210Y-62661874D01*
X27008949Y-62708582D01*
X27010316Y-62709906D01*
X27030530Y-62730120D01*
X27036004Y-62734366D01*
X27040442Y-62738156D01*
X27074418Y-62770062D01*
X27074422Y-62770064D01*
X27091973Y-62779713D01*
X27108231Y-62790392D01*
X27124064Y-62802674D01*
X27146015Y-62812172D01*
X27166837Y-62821183D01*
X27172081Y-62823752D01*
X27212908Y-62846197D01*
X27232312Y-62851179D01*
X27250710Y-62857478D01*
X27269105Y-62865438D01*
X27315129Y-62872726D01*
X27320832Y-62873907D01*
X27365981Y-62885500D01*
X27386016Y-62885500D01*
X27405413Y-62887026D01*
X27425196Y-62890160D01*
X27471583Y-62885775D01*
X27477422Y-62885500D01*
X30099780Y-62885500D01*
X30166819Y-62905185D01*
X30212574Y-62957989D01*
X30222518Y-63027147D01*
X30213802Y-63058235D01*
X30160896Y-63182014D01*
X30160895Y-63182017D01*
X30110810Y-63401457D01*
X30110808Y-63401468D01*
X30105769Y-63513674D01*
X30100710Y-63626330D01*
X30130925Y-63849387D01*
X30130926Y-63849390D01*
X30200483Y-64063465D01*
X30307146Y-64261678D01*
X30307148Y-64261681D01*
X30447489Y-64437663D01*
X30447491Y-64437664D01*
X30447492Y-64437666D01*
X30617004Y-64585765D01*
X30810236Y-64701215D01*
X31020976Y-64780307D01*
X31242450Y-64820500D01*
X31242453Y-64820500D01*
X31811148Y-64820500D01*
X31811155Y-64820500D01*
X31979188Y-64805377D01*
X31991022Y-64802111D01*
X32196160Y-64745496D01*
X32196162Y-64745495D01*
X32196170Y-64745493D01*
X32398973Y-64647829D01*
X32581078Y-64515522D01*
X32736632Y-64352825D01*
X32860635Y-64164968D01*
X32949103Y-63957988D01*
X32999191Y-63738537D01*
X33009290Y-63513670D01*
X32979075Y-63290613D01*
X32909517Y-63076536D01*
X32909514Y-63076531D01*
X32909514Y-63076529D01*
X32905063Y-63068257D01*
X32890631Y-62999894D01*
X32915450Y-62934581D01*
X32971639Y-62893054D01*
X33014258Y-62885500D01*
X37879780Y-62885500D01*
X37946819Y-62905185D01*
X37992574Y-62957989D01*
X38002518Y-63027147D01*
X37993802Y-63058235D01*
X37940896Y-63182014D01*
X37940895Y-63182017D01*
X37890810Y-63401457D01*
X37890808Y-63401468D01*
X37885769Y-63513674D01*
X37880710Y-63626330D01*
X37910925Y-63849387D01*
X37910926Y-63849390D01*
X37980483Y-64063465D01*
X38087146Y-64261678D01*
X38087148Y-64261681D01*
X38227489Y-64437663D01*
X38227491Y-64437664D01*
X38227492Y-64437666D01*
X38397004Y-64585765D01*
X38590236Y-64701215D01*
X38800976Y-64780307D01*
X39022450Y-64820500D01*
X39022453Y-64820500D01*
X39591148Y-64820500D01*
X39591155Y-64820500D01*
X39759188Y-64805377D01*
X39771022Y-64802111D01*
X39976160Y-64745496D01*
X39976162Y-64745495D01*
X39976170Y-64745493D01*
X40178973Y-64647829D01*
X40361078Y-64515522D01*
X40516632Y-64352825D01*
X40640635Y-64164968D01*
X40729103Y-63957988D01*
X40779191Y-63738537D01*
X40789290Y-63513670D01*
X40759075Y-63290613D01*
X40689517Y-63076536D01*
X40689514Y-63076531D01*
X40689514Y-63076529D01*
X40685063Y-63068257D01*
X40670631Y-62999894D01*
X40695450Y-62934581D01*
X40751639Y-62893054D01*
X40794258Y-62885500D01*
X41879780Y-62885500D01*
X41946819Y-62905185D01*
X41992574Y-62957989D01*
X42002518Y-63027147D01*
X41993802Y-63058235D01*
X41940896Y-63182014D01*
X41940895Y-63182017D01*
X41890810Y-63401457D01*
X41890808Y-63401468D01*
X41885769Y-63513674D01*
X41880710Y-63626330D01*
X41910925Y-63849387D01*
X41910926Y-63849390D01*
X41980483Y-64063465D01*
X42087146Y-64261678D01*
X42087148Y-64261681D01*
X42227489Y-64437663D01*
X42227491Y-64437664D01*
X42227492Y-64437666D01*
X42397004Y-64585765D01*
X42590236Y-64701215D01*
X42800976Y-64780307D01*
X43022450Y-64820500D01*
X43022453Y-64820500D01*
X43591148Y-64820500D01*
X43591155Y-64820500D01*
X43759188Y-64805377D01*
X43771022Y-64802111D01*
X43976160Y-64745496D01*
X43976162Y-64745495D01*
X43976170Y-64745493D01*
X44178973Y-64647829D01*
X44361078Y-64515522D01*
X44418205Y-64455771D01*
X44478761Y-64420920D01*
X44548547Y-64424339D01*
X44589416Y-64448084D01*
X44746996Y-64585759D01*
X44747000Y-64585762D01*
X44747004Y-64585765D01*
X44940236Y-64701215D01*
X45150976Y-64780307D01*
X45372450Y-64820500D01*
X45372453Y-64820500D01*
X45841148Y-64820500D01*
X45841155Y-64820500D01*
X46009188Y-64805377D01*
X46021022Y-64802111D01*
X46226160Y-64745496D01*
X46226162Y-64745495D01*
X46226170Y-64745493D01*
X46428973Y-64647829D01*
X46611078Y-64515522D01*
X46766632Y-64352825D01*
X46890635Y-64164968D01*
X46979103Y-63957988D01*
X47029191Y-63738537D01*
X47039290Y-63513670D01*
X47009075Y-63290613D01*
X47003086Y-63272183D01*
X47001090Y-63202344D01*
X47037169Y-63142510D01*
X47099869Y-63111681D01*
X47164348Y-63117681D01*
X47369954Y-63194369D01*
X47369960Y-63194370D01*
X47369962Y-63194371D01*
X47649566Y-63255195D01*
X47649568Y-63255195D01*
X47649572Y-63255196D01*
X47863552Y-63270500D01*
X48006448Y-63270500D01*
X48220428Y-63255196D01*
X48463386Y-63202344D01*
X48500037Y-63194371D01*
X48500037Y-63194370D01*
X48500046Y-63194369D01*
X48768161Y-63094367D01*
X49019315Y-62957226D01*
X49248395Y-62785739D01*
X49450739Y-62583395D01*
X49622226Y-62354315D01*
X49759367Y-62103161D01*
X49859369Y-61835046D01*
X49877883Y-61749938D01*
X49920195Y-61555433D01*
X49920195Y-61555432D01*
X49920196Y-61555428D01*
X49940610Y-61270000D01*
X49937665Y-61228830D01*
X49926119Y-61067387D01*
X49920196Y-60984572D01*
X49866895Y-60739552D01*
X49859371Y-60704962D01*
X49859370Y-60704960D01*
X49859369Y-60704954D01*
X49759367Y-60436839D01*
X49633289Y-60205946D01*
X49622229Y-60185690D01*
X49622224Y-60185682D01*
X49450745Y-59956612D01*
X49450729Y-59956594D01*
X49248405Y-59754270D01*
X49248387Y-59754254D01*
X49019317Y-59582775D01*
X49019309Y-59582770D01*
X48768166Y-59445635D01*
X48768167Y-59445635D01*
X48639088Y-59397491D01*
X48500046Y-59345631D01*
X48500043Y-59345630D01*
X48500037Y-59345628D01*
X48220433Y-59284804D01*
X48006450Y-59269500D01*
X48006448Y-59269500D01*
X47863552Y-59269500D01*
X47863549Y-59269500D01*
X47649566Y-59284804D01*
X47369962Y-59345628D01*
X47101833Y-59445635D01*
X46850690Y-59582770D01*
X46850682Y-59582775D01*
X46621612Y-59754254D01*
X46621594Y-59754270D01*
X46419270Y-59956594D01*
X46419254Y-59956612D01*
X46247775Y-60185682D01*
X46247770Y-60185690D01*
X46110635Y-60436833D01*
X46010628Y-60704962D01*
X45949804Y-60984566D01*
X45929390Y-61269998D01*
X45929390Y-61270001D01*
X45949804Y-61555433D01*
X46010628Y-61835037D01*
X46010630Y-61835043D01*
X46010631Y-61835046D01*
X46022374Y-61866530D01*
X46110635Y-62103166D01*
X46140820Y-62158445D01*
X46155672Y-62226718D01*
X46131255Y-62292182D01*
X46075322Y-62334054D01*
X46009847Y-62339879D01*
X45897551Y-62319500D01*
X45897547Y-62319500D01*
X45428845Y-62319500D01*
X45428843Y-62319500D01*
X45340055Y-62327490D01*
X45271521Y-62313893D01*
X45241261Y-62291670D01*
X44825803Y-61876212D01*
X44815980Y-61863950D01*
X44815759Y-61864134D01*
X44810786Y-61858122D01*
X44761066Y-61811432D01*
X44759666Y-61810075D01*
X44739476Y-61789884D01*
X44733986Y-61785625D01*
X44729561Y-61781847D01*
X44695582Y-61749938D01*
X44695580Y-61749936D01*
X44695577Y-61749935D01*
X44678029Y-61740288D01*
X44661763Y-61729604D01*
X44645933Y-61717325D01*
X44603168Y-61698818D01*
X44597922Y-61696248D01*
X44557093Y-61673803D01*
X44557092Y-61673802D01*
X44537693Y-61668822D01*
X44519281Y-61662518D01*
X44500898Y-61654562D01*
X44500892Y-61654560D01*
X44454874Y-61647272D01*
X44449152Y-61646087D01*
X44404021Y-61634500D01*
X44404019Y-61634500D01*
X44383984Y-61634500D01*
X44364586Y-61632973D01*
X44357162Y-61631797D01*
X44344805Y-61629840D01*
X44344804Y-61629840D01*
X44298416Y-61634225D01*
X44292578Y-61634500D01*
X41676650Y-61634500D01*
X41609611Y-61614815D01*
X41563856Y-61562011D01*
X41553912Y-61492853D01*
X41558395Y-61473574D01*
X41558577Y-61472615D01*
X41558579Y-61472613D01*
X41589376Y-61311170D01*
X41579056Y-61147140D01*
X41528268Y-60990829D01*
X41524293Y-60984566D01*
X41440201Y-60852059D01*
X41320396Y-60739554D01*
X41320388Y-60739548D01*
X41176371Y-60660374D01*
X41176361Y-60660371D01*
X41017180Y-60619500D01*
X41017177Y-60619500D01*
X40894075Y-60619500D01*
X40894065Y-60619500D01*
X40771942Y-60634929D01*
X40771939Y-60634929D01*
X40619130Y-60695431D01*
X40619121Y-60695436D01*
X40486164Y-60792034D01*
X40486162Y-60792037D01*
X40381400Y-60918673D01*
X40311420Y-61067387D01*
X40296207Y-61147139D01*
X40280624Y-61228830D01*
X40280624Y-61228832D01*
X40280624Y-61228833D01*
X40290944Y-61392860D01*
X40316717Y-61472182D01*
X40318712Y-61542023D01*
X40282632Y-61601856D01*
X40219931Y-61632684D01*
X40198786Y-61634500D01*
X29596650Y-61634500D01*
X29529611Y-61614815D01*
X29483856Y-61562011D01*
X29473912Y-61492853D01*
X29478395Y-61473574D01*
X29478577Y-61472615D01*
X29478579Y-61472613D01*
X29509376Y-61311170D01*
X29499056Y-61147140D01*
X29448268Y-60990829D01*
X29444293Y-60984566D01*
X29360201Y-60852059D01*
X29240396Y-60739554D01*
X29240388Y-60739548D01*
X29096371Y-60660374D01*
X29096361Y-60660371D01*
X28937180Y-60619500D01*
X28937177Y-60619500D01*
X28814075Y-60619500D01*
X28814065Y-60619500D01*
X28691942Y-60634929D01*
X28691939Y-60634929D01*
X28539130Y-60695431D01*
X28539121Y-60695436D01*
X28406164Y-60792034D01*
X28406162Y-60792037D01*
X28301400Y-60918673D01*
X28231420Y-61067387D01*
X28216207Y-61147139D01*
X28200624Y-61228830D01*
X28200624Y-61228832D01*
X28200624Y-61228833D01*
X28210944Y-61392860D01*
X28236717Y-61472182D01*
X28238712Y-61542023D01*
X28202632Y-61601856D01*
X28139931Y-61632684D01*
X28118786Y-61634500D01*
X27755452Y-61634500D01*
X27688413Y-61614815D01*
X27667771Y-61598181D01*
X26501771Y-60432181D01*
X26468286Y-60370858D01*
X26473270Y-60301166D01*
X26515142Y-60245233D01*
X26580606Y-60220816D01*
X26589452Y-60220500D01*
X26711148Y-60220500D01*
X26711155Y-60220500D01*
X26879188Y-60205377D01*
X26898236Y-60200120D01*
X27096160Y-60145496D01*
X27096162Y-60145495D01*
X27096170Y-60145493D01*
X27298973Y-60047829D01*
X27481078Y-59915522D01*
X27636632Y-59752825D01*
X27760635Y-59564968D01*
X27849103Y-59357988D01*
X27899191Y-59138537D01*
X27909290Y-58913670D01*
X27879075Y-58690613D01*
X27809517Y-58476536D01*
X27702852Y-58278319D01*
X27575863Y-58119080D01*
X27562510Y-58102336D01*
X27562508Y-58102334D01*
X27392996Y-57954235D01*
X27199764Y-57838785D01*
X27081775Y-57794503D01*
X26989023Y-57759692D01*
X26767550Y-57719500D01*
X26767547Y-57719500D01*
X26198845Y-57719500D01*
X26163034Y-57722723D01*
X26030813Y-57734622D01*
X26030807Y-57734623D01*
X25813839Y-57794503D01*
X25813826Y-57794508D01*
X25611033Y-57892167D01*
X25611025Y-57892171D01*
X25428927Y-58024473D01*
X25428918Y-58024480D01*
X25371793Y-58084228D01*
X25311236Y-58119080D01*
X25241451Y-58115659D01*
X25200585Y-58091917D01*
X25042996Y-57954235D01*
X24849764Y-57838785D01*
X24731775Y-57794503D01*
X24639023Y-57759692D01*
X24417550Y-57719500D01*
X24417547Y-57719500D01*
X23948845Y-57719500D01*
X23913034Y-57722723D01*
X23780813Y-57734622D01*
X23780807Y-57734623D01*
X23563839Y-57794503D01*
X23563826Y-57794508D01*
X23361033Y-57892167D01*
X23361025Y-57892171D01*
X23178927Y-58024473D01*
X23178925Y-58024474D01*
X23023366Y-58187176D01*
X22899363Y-58375033D01*
X22810899Y-58582004D01*
X22810895Y-58582017D01*
X22760810Y-58801457D01*
X22760808Y-58801468D01*
X22755769Y-58913674D01*
X22750710Y-59026330D01*
X22780925Y-59249387D01*
X22780926Y-59249391D01*
X22786913Y-59267817D01*
X22788908Y-59337658D01*
X22752828Y-59397491D01*
X22690127Y-59428319D01*
X22625649Y-59422317D01*
X22581863Y-59405985D01*
X22420046Y-59345631D01*
X22420042Y-59345630D01*
X22420039Y-59345629D01*
X22140433Y-59284804D01*
X21926450Y-59269500D01*
X21926448Y-59269500D01*
X21783552Y-59269500D01*
X21783549Y-59269500D01*
X21569566Y-59284804D01*
X21289962Y-59345628D01*
X21021833Y-59445635D01*
X20770690Y-59582770D01*
X20770682Y-59582775D01*
X20541612Y-59754254D01*
X20541594Y-59754270D01*
X20339270Y-59956594D01*
X20339254Y-59956612D01*
X20167775Y-60185682D01*
X20167770Y-60185690D01*
X20030635Y-60436833D01*
X19930628Y-60704962D01*
X19869804Y-60984566D01*
X19849390Y-61269998D01*
X19849390Y-61270001D01*
X17853500Y-61270001D01*
X17853500Y-31919655D01*
X18304500Y-31919655D01*
X18309113Y-31970916D01*
X18319622Y-32087686D01*
X18319623Y-32087692D01*
X18379503Y-32304660D01*
X18379508Y-32304673D01*
X18477167Y-32507466D01*
X18477171Y-32507474D01*
X18609473Y-32689572D01*
X18609474Y-32689574D01*
X18609477Y-32689577D01*
X18609478Y-32689578D01*
X18639081Y-32717881D01*
X18772176Y-32845133D01*
X18960033Y-32969136D01*
X19167004Y-33057600D01*
X19167007Y-33057601D01*
X19167012Y-33057603D01*
X19386463Y-33107691D01*
X19503501Y-33112947D01*
X19523511Y-33113846D01*
X19589600Y-33136518D01*
X19632940Y-33191322D01*
X19639770Y-33260857D01*
X19607923Y-33323047D01*
X19550041Y-33357496D01*
X19331344Y-33416094D01*
X19331335Y-33416098D01*
X19117171Y-33515964D01*
X19117169Y-33515965D01*
X18923597Y-33651505D01*
X18756505Y-33818597D01*
X18620965Y-34012169D01*
X18620964Y-34012171D01*
X18521098Y-34226335D01*
X18521094Y-34226344D01*
X18459938Y-34454586D01*
X18459936Y-34454596D01*
X18439341Y-34689999D01*
X18439341Y-34690000D01*
X18459936Y-34925403D01*
X18459938Y-34925413D01*
X18521094Y-35153655D01*
X18521096Y-35153659D01*
X18521097Y-35153663D01*
X18534709Y-35182853D01*
X18620965Y-35367830D01*
X18620967Y-35367834D01*
X18729281Y-35522521D01*
X18756501Y-35561396D01*
X18756506Y-35561402D01*
X18923597Y-35728493D01*
X18923603Y-35728498D01*
X19109158Y-35858425D01*
X19152783Y-35913002D01*
X19159977Y-35982500D01*
X19128454Y-36044855D01*
X19109158Y-36061575D01*
X18923597Y-36191505D01*
X18756505Y-36358597D01*
X18620965Y-36552169D01*
X18620964Y-36552171D01*
X18521098Y-36766335D01*
X18521094Y-36766344D01*
X18459938Y-36994586D01*
X18459936Y-36994596D01*
X18439341Y-37229999D01*
X18439341Y-37230000D01*
X18459936Y-37465403D01*
X18459938Y-37465413D01*
X18521094Y-37693655D01*
X18521096Y-37693659D01*
X18521097Y-37693663D01*
X18589645Y-37840664D01*
X18620965Y-37907830D01*
X18620967Y-37907834D01*
X18729281Y-38062521D01*
X18756501Y-38101396D01*
X18756506Y-38101402D01*
X18923597Y-38268493D01*
X18923603Y-38268498D01*
X19109158Y-38398425D01*
X19152783Y-38453002D01*
X19159977Y-38522500D01*
X19128454Y-38584855D01*
X19109158Y-38601575D01*
X18923597Y-38731505D01*
X18756505Y-38898597D01*
X18620965Y-39092169D01*
X18620964Y-39092171D01*
X18521098Y-39306335D01*
X18521094Y-39306344D01*
X18459938Y-39534586D01*
X18459936Y-39534596D01*
X18439341Y-39769999D01*
X18439341Y-39770000D01*
X18459936Y-40005403D01*
X18459938Y-40005413D01*
X18521094Y-40233655D01*
X18521096Y-40233659D01*
X18521097Y-40233663D01*
X18589645Y-40380664D01*
X18620965Y-40447830D01*
X18620967Y-40447834D01*
X18729281Y-40602521D01*
X18756501Y-40641396D01*
X18756506Y-40641402D01*
X18923597Y-40808493D01*
X18923603Y-40808498D01*
X19109158Y-40938425D01*
X19152783Y-40993002D01*
X19159977Y-41062500D01*
X19128454Y-41124855D01*
X19109158Y-41141575D01*
X18923597Y-41271505D01*
X18756505Y-41438597D01*
X18620965Y-41632169D01*
X18620964Y-41632171D01*
X18521098Y-41846335D01*
X18521094Y-41846344D01*
X18459938Y-42074586D01*
X18459936Y-42074596D01*
X18439341Y-42309999D01*
X18439341Y-42310000D01*
X18459936Y-42545403D01*
X18459938Y-42545413D01*
X18521094Y-42773655D01*
X18521096Y-42773659D01*
X18521097Y-42773663D01*
X18589645Y-42920664D01*
X18620965Y-42987830D01*
X18620967Y-42987834D01*
X18729281Y-43142521D01*
X18756501Y-43181396D01*
X18756506Y-43181402D01*
X18923597Y-43348493D01*
X18923603Y-43348498D01*
X19109158Y-43478425D01*
X19152783Y-43533002D01*
X19159977Y-43602500D01*
X19128454Y-43664855D01*
X19109158Y-43681575D01*
X18923597Y-43811505D01*
X18756505Y-43978597D01*
X18620965Y-44172169D01*
X18620964Y-44172171D01*
X18521098Y-44386335D01*
X18521094Y-44386344D01*
X18459938Y-44614586D01*
X18459936Y-44614596D01*
X18439341Y-44849999D01*
X18439341Y-44850000D01*
X18459936Y-45085403D01*
X18459938Y-45085413D01*
X18521094Y-45313655D01*
X18521096Y-45313659D01*
X18521097Y-45313663D01*
X18589645Y-45460664D01*
X18620965Y-45527830D01*
X18620967Y-45527834D01*
X18729281Y-45682521D01*
X18756501Y-45721396D01*
X18756506Y-45721402D01*
X18923597Y-45888493D01*
X18923603Y-45888498D01*
X19109158Y-46018425D01*
X19152783Y-46073002D01*
X19159977Y-46142500D01*
X19128454Y-46204855D01*
X19109158Y-46221575D01*
X18923597Y-46351505D01*
X18756505Y-46518597D01*
X18620965Y-46712169D01*
X18620964Y-46712171D01*
X18521098Y-46926335D01*
X18521094Y-46926344D01*
X18459938Y-47154586D01*
X18459936Y-47154596D01*
X18439341Y-47389999D01*
X18439341Y-47390000D01*
X18459936Y-47625403D01*
X18459938Y-47625413D01*
X18521094Y-47853655D01*
X18521096Y-47853659D01*
X18521097Y-47853663D01*
X18589645Y-48000664D01*
X18620965Y-48067830D01*
X18620967Y-48067834D01*
X18729281Y-48222521D01*
X18756501Y-48261396D01*
X18756506Y-48261402D01*
X18923597Y-48428493D01*
X18923603Y-48428498D01*
X19109158Y-48558425D01*
X19152783Y-48613002D01*
X19159977Y-48682500D01*
X19128454Y-48744855D01*
X19109158Y-48761575D01*
X18923597Y-48891505D01*
X18756505Y-49058597D01*
X18620965Y-49252169D01*
X18620964Y-49252171D01*
X18521098Y-49466335D01*
X18521094Y-49466344D01*
X18459938Y-49694586D01*
X18459936Y-49694596D01*
X18439341Y-49929999D01*
X18439341Y-49930000D01*
X18459936Y-50165403D01*
X18459938Y-50165413D01*
X18521094Y-50393655D01*
X18521096Y-50393659D01*
X18521097Y-50393663D01*
X18610086Y-50584500D01*
X18620965Y-50607830D01*
X18620967Y-50607834D01*
X18729281Y-50762521D01*
X18756504Y-50801400D01*
X18756506Y-50801402D01*
X18923597Y-50968493D01*
X18923603Y-50968498D01*
X19109158Y-51098425D01*
X19152783Y-51153002D01*
X19159977Y-51222500D01*
X19128454Y-51284855D01*
X19109158Y-51301575D01*
X18923597Y-51431505D01*
X18756505Y-51598597D01*
X18620965Y-51792169D01*
X18620964Y-51792171D01*
X18521098Y-52006335D01*
X18521094Y-52006344D01*
X18459938Y-52234586D01*
X18459936Y-52234596D01*
X18439341Y-52469999D01*
X18439341Y-52470000D01*
X18459936Y-52705403D01*
X18459938Y-52705413D01*
X18521094Y-52933655D01*
X18521096Y-52933659D01*
X18521097Y-52933663D01*
X18611499Y-53127530D01*
X18620965Y-53147830D01*
X18620967Y-53147834D01*
X18729281Y-53302521D01*
X18756501Y-53341396D01*
X18756506Y-53341402D01*
X18923597Y-53508493D01*
X18923603Y-53508498D01*
X19109158Y-53638425D01*
X19152783Y-53693002D01*
X19159977Y-53762500D01*
X19128454Y-53824855D01*
X19109158Y-53841575D01*
X18923597Y-53971505D01*
X18756505Y-54138597D01*
X18620965Y-54332169D01*
X18620964Y-54332171D01*
X18521098Y-54546335D01*
X18521094Y-54546344D01*
X18459938Y-54774586D01*
X18459936Y-54774596D01*
X18439341Y-55009999D01*
X18439341Y-55010000D01*
X18459936Y-55245403D01*
X18459938Y-55245413D01*
X18521094Y-55473655D01*
X18521096Y-55473659D01*
X18521097Y-55473663D01*
X18601004Y-55645023D01*
X18620965Y-55687830D01*
X18620967Y-55687834D01*
X18727511Y-55839994D01*
X18756505Y-55881401D01*
X18923599Y-56048495D01*
X18979767Y-56087824D01*
X19117165Y-56184032D01*
X19117167Y-56184033D01*
X19117170Y-56184035D01*
X19331337Y-56283903D01*
X19559592Y-56345063D01*
X19747918Y-56361539D01*
X19794999Y-56365659D01*
X19795000Y-56365659D01*
X19795001Y-56365659D01*
X19834234Y-56362226D01*
X20030408Y-56345063D01*
X20258663Y-56283903D01*
X20472830Y-56184035D01*
X20666401Y-56048495D01*
X20833495Y-55881401D01*
X20947891Y-55718026D01*
X20963425Y-55695842D01*
X21018002Y-55652217D01*
X21087500Y-55645023D01*
X21149855Y-55676546D01*
X21166575Y-55695842D01*
X21296500Y-55881395D01*
X21296505Y-55881401D01*
X21463599Y-56048495D01*
X21519767Y-56087824D01*
X21657165Y-56184032D01*
X21657167Y-56184033D01*
X21657170Y-56184035D01*
X21871337Y-56283903D01*
X22099592Y-56345063D01*
X22287918Y-56361539D01*
X22334999Y-56365659D01*
X22335000Y-56365659D01*
X22335001Y-56365659D01*
X22374234Y-56362226D01*
X22570408Y-56345063D01*
X22798663Y-56283903D01*
X23012830Y-56184035D01*
X23206401Y-56048495D01*
X23373495Y-55881401D01*
X23509035Y-55687830D01*
X23530754Y-55641252D01*
X23576926Y-55588813D01*
X23644119Y-55569661D01*
X23711000Y-55589876D01*
X23756335Y-55643041D01*
X23766456Y-55706616D01*
X23754540Y-55820000D01*
X23774326Y-56008256D01*
X23774327Y-56008259D01*
X23832818Y-56188277D01*
X23832821Y-56188284D01*
X23927467Y-56352216D01*
X24011461Y-56445500D01*
X24054129Y-56492888D01*
X24207265Y-56604148D01*
X24207270Y-56604151D01*
X24380192Y-56681142D01*
X24380193Y-56681142D01*
X24380197Y-56681144D01*
X24535118Y-56714073D01*
X24596600Y-56747265D01*
X24630377Y-56808428D01*
X24632658Y-56822399D01*
X24634324Y-56838249D01*
X24634324Y-56838252D01*
X24692818Y-57018277D01*
X24692821Y-57018284D01*
X24787467Y-57182216D01*
X24893133Y-57299570D01*
X24914129Y-57322888D01*
X25067265Y-57434148D01*
X25067270Y-57434151D01*
X25240192Y-57511142D01*
X25240197Y-57511144D01*
X25425354Y-57550500D01*
X25425355Y-57550500D01*
X25614644Y-57550500D01*
X25614646Y-57550500D01*
X25799803Y-57511144D01*
X25972730Y-57434151D01*
X26072287Y-57361819D01*
X26089681Y-57349182D01*
X26155487Y-57325702D01*
X26162566Y-57325500D01*
X27803837Y-57325500D01*
X27870876Y-57345185D01*
X27891518Y-57361819D01*
X29021879Y-58492181D01*
X29055364Y-58553504D01*
X29055089Y-58607454D01*
X29010810Y-58801457D01*
X29010808Y-58801468D01*
X29005769Y-58913674D01*
X29000710Y-59026330D01*
X29030925Y-59249387D01*
X29030926Y-59249390D01*
X29100483Y-59463465D01*
X29207146Y-59661678D01*
X29207148Y-59661681D01*
X29347489Y-59837663D01*
X29347491Y-59837664D01*
X29347492Y-59837666D01*
X29517004Y-59985765D01*
X29710236Y-60101215D01*
X29920976Y-60180307D01*
X30142450Y-60220500D01*
X30142453Y-60220500D01*
X30711148Y-60220500D01*
X30711155Y-60220500D01*
X30879188Y-60205377D01*
X30898236Y-60200120D01*
X31096160Y-60145496D01*
X31096162Y-60145495D01*
X31096170Y-60145493D01*
X31298973Y-60047829D01*
X31481078Y-59915522D01*
X31636632Y-59752825D01*
X31760635Y-59564968D01*
X31849103Y-59357988D01*
X31899191Y-59138537D01*
X31904230Y-59026330D01*
X36780710Y-59026330D01*
X36810925Y-59249387D01*
X36810926Y-59249390D01*
X36880483Y-59463465D01*
X36987146Y-59661678D01*
X36987148Y-59661681D01*
X37127489Y-59837663D01*
X37127491Y-59837664D01*
X37127492Y-59837666D01*
X37297004Y-59985765D01*
X37490236Y-60101215D01*
X37700976Y-60180307D01*
X37922450Y-60220500D01*
X37922453Y-60220500D01*
X38491148Y-60220500D01*
X38491155Y-60220500D01*
X38659188Y-60205377D01*
X38678236Y-60200120D01*
X38876160Y-60145496D01*
X38876162Y-60145495D01*
X38876170Y-60145493D01*
X39078973Y-60047829D01*
X39261078Y-59915522D01*
X39416632Y-59752825D01*
X39540635Y-59564968D01*
X39629103Y-59357988D01*
X39679191Y-59138537D01*
X39689290Y-58913670D01*
X39659075Y-58690613D01*
X39589517Y-58476536D01*
X39482852Y-58278319D01*
X39355863Y-58119080D01*
X39342510Y-58102336D01*
X39342508Y-58102334D01*
X39172996Y-57954235D01*
X38979764Y-57838785D01*
X38861775Y-57794503D01*
X38769023Y-57759692D01*
X38547550Y-57719500D01*
X38547547Y-57719500D01*
X37978845Y-57719500D01*
X37943034Y-57722723D01*
X37810813Y-57734622D01*
X37810807Y-57734623D01*
X37593839Y-57794503D01*
X37593826Y-57794508D01*
X37391033Y-57892167D01*
X37391025Y-57892171D01*
X37208927Y-58024473D01*
X37208925Y-58024474D01*
X37053366Y-58187176D01*
X36929363Y-58375033D01*
X36840899Y-58582004D01*
X36840895Y-58582017D01*
X36790810Y-58801457D01*
X36790808Y-58801468D01*
X36785769Y-58913674D01*
X36780710Y-59026330D01*
X31904230Y-59026330D01*
X31909290Y-58913670D01*
X31879075Y-58690613D01*
X31809517Y-58476536D01*
X31702852Y-58278319D01*
X31575863Y-58119080D01*
X31562510Y-58102336D01*
X31562508Y-58102334D01*
X31392996Y-57954235D01*
X31199764Y-57838785D01*
X31081775Y-57794503D01*
X30989023Y-57759692D01*
X30767550Y-57719500D01*
X30767547Y-57719500D01*
X30211164Y-57719500D01*
X30144125Y-57699815D01*
X30123483Y-57683181D01*
X29622516Y-57182214D01*
X29097481Y-56657180D01*
X29063997Y-56595858D01*
X29068981Y-56526166D01*
X29110853Y-56470233D01*
X29176317Y-56445816D01*
X29185163Y-56445500D01*
X30181078Y-56445500D01*
X30248117Y-56465185D01*
X30293872Y-56517989D01*
X30294634Y-56519691D01*
X30310825Y-56556605D01*
X30446833Y-56764782D01*
X30446836Y-56764785D01*
X30615256Y-56947738D01*
X30811491Y-57100474D01*
X31030190Y-57218828D01*
X31265386Y-57299571D01*
X31510665Y-57340500D01*
X31759335Y-57340500D01*
X32004614Y-57299571D01*
X32239810Y-57218828D01*
X32458509Y-57100474D01*
X32654744Y-56947738D01*
X32823164Y-56764785D01*
X32959173Y-56556607D01*
X33059063Y-56328881D01*
X33120108Y-56087821D01*
X33120109Y-56087812D01*
X33140643Y-55840005D01*
X33140643Y-55839994D01*
X33120109Y-55592187D01*
X33120107Y-55592175D01*
X33059063Y-55351118D01*
X33018792Y-55259310D01*
X33009889Y-55190010D01*
X33039866Y-55126898D01*
X33099205Y-55090011D01*
X33132348Y-55085500D01*
X36637652Y-55085500D01*
X36704691Y-55105185D01*
X36750446Y-55157989D01*
X36760390Y-55227147D01*
X36751208Y-55259310D01*
X36710936Y-55351118D01*
X36649892Y-55592175D01*
X36649890Y-55592187D01*
X36629357Y-55839994D01*
X36629357Y-55840005D01*
X36649890Y-56087812D01*
X36649892Y-56087824D01*
X36710936Y-56328881D01*
X36810826Y-56556606D01*
X36946833Y-56764782D01*
X36946836Y-56764785D01*
X37115256Y-56947738D01*
X37311491Y-57100474D01*
X37530190Y-57218828D01*
X37765386Y-57299571D01*
X38010665Y-57340500D01*
X38259335Y-57340500D01*
X38504614Y-57299571D01*
X38739810Y-57218828D01*
X38958509Y-57100474D01*
X39154744Y-56947738D01*
X39323164Y-56764785D01*
X39459173Y-56556607D01*
X39559063Y-56328881D01*
X39620108Y-56087821D01*
X39620109Y-56087812D01*
X39640643Y-55840005D01*
X39640643Y-55839994D01*
X39620109Y-55592187D01*
X39620107Y-55592175D01*
X39559063Y-55351118D01*
X39518792Y-55259310D01*
X39509889Y-55190010D01*
X39539866Y-55126898D01*
X39599205Y-55090011D01*
X39632348Y-55085500D01*
X40432257Y-55085500D01*
X40447877Y-55087224D01*
X40447904Y-55086939D01*
X40455666Y-55087673D01*
X40455666Y-55087672D01*
X40455667Y-55087673D01*
X40458999Y-55087568D01*
X40523847Y-55085531D01*
X40525794Y-55085500D01*
X40554347Y-55085500D01*
X40554350Y-55085500D01*
X40561228Y-55084630D01*
X40567041Y-55084172D01*
X40613627Y-55082709D01*
X40632869Y-55077117D01*
X40651912Y-55073174D01*
X40671792Y-55070664D01*
X40715122Y-55053507D01*
X40720646Y-55051617D01*
X40724396Y-55050527D01*
X40765390Y-55038618D01*
X40782629Y-55028422D01*
X40800103Y-55019862D01*
X40818727Y-55012488D01*
X40818727Y-55012487D01*
X40818732Y-55012486D01*
X40856449Y-54985082D01*
X40861305Y-54981892D01*
X40901420Y-54958170D01*
X40915589Y-54943999D01*
X40930379Y-54931368D01*
X40946587Y-54919594D01*
X40976299Y-54883676D01*
X40980212Y-54879376D01*
X42025134Y-53834455D01*
X42086455Y-53800972D01*
X42153081Y-53804859D01*
X42165857Y-53809245D01*
X42390915Y-53846800D01*
X42619085Y-53846800D01*
X42844143Y-53809245D01*
X42856922Y-53804857D01*
X42926717Y-53801706D01*
X42984866Y-53834457D01*
X44544197Y-55393788D01*
X44554022Y-55406051D01*
X44554243Y-55405869D01*
X44559211Y-55411874D01*
X44608932Y-55458566D01*
X44610332Y-55459923D01*
X44630523Y-55480115D01*
X44630527Y-55480118D01*
X44630529Y-55480120D01*
X44636011Y-55484373D01*
X44640443Y-55488157D01*
X44674418Y-55520062D01*
X44691976Y-55529714D01*
X44708235Y-55540395D01*
X44724064Y-55552673D01*
X44766838Y-55571182D01*
X44772056Y-55573738D01*
X44812908Y-55596197D01*
X44832316Y-55601180D01*
X44850717Y-55607480D01*
X44869104Y-55615437D01*
X44912488Y-55622308D01*
X44915119Y-55622725D01*
X44920839Y-55623909D01*
X44965981Y-55635500D01*
X44986016Y-55635500D01*
X45005414Y-55637026D01*
X45025194Y-55640159D01*
X45025195Y-55640160D01*
X45025195Y-55640159D01*
X45025196Y-55640160D01*
X45071583Y-55635775D01*
X45077422Y-55635500D01*
X46199773Y-55635500D01*
X46266812Y-55655185D01*
X46301348Y-55688377D01*
X46436500Y-55881395D01*
X46436505Y-55881401D01*
X46603599Y-56048495D01*
X46659767Y-56087824D01*
X46797165Y-56184032D01*
X46797167Y-56184033D01*
X46797170Y-56184035D01*
X47011337Y-56283903D01*
X47239592Y-56345063D01*
X47427918Y-56361539D01*
X47474999Y-56365659D01*
X47475000Y-56365659D01*
X47475001Y-56365659D01*
X47514234Y-56362226D01*
X47710408Y-56345063D01*
X47938663Y-56283903D01*
X48152830Y-56184035D01*
X48346401Y-56048495D01*
X48513495Y-55881401D01*
X48627891Y-55718026D01*
X48643425Y-55695842D01*
X48698002Y-55652217D01*
X48767500Y-55645023D01*
X48829855Y-55676546D01*
X48846575Y-55695842D01*
X48976500Y-55881395D01*
X48976505Y-55881401D01*
X49143599Y-56048495D01*
X49199767Y-56087824D01*
X49337165Y-56184032D01*
X49337167Y-56184033D01*
X49337170Y-56184035D01*
X49551337Y-56283903D01*
X49779592Y-56345063D01*
X49967918Y-56361539D01*
X50014999Y-56365659D01*
X50015000Y-56365659D01*
X50015001Y-56365659D01*
X50054234Y-56362226D01*
X50250408Y-56345063D01*
X50478663Y-56283903D01*
X50692830Y-56184035D01*
X50886401Y-56048495D01*
X51053495Y-55881401D01*
X51189035Y-55687830D01*
X51288903Y-55473663D01*
X51350063Y-55245408D01*
X51370659Y-55010000D01*
X51350063Y-54774592D01*
X51288903Y-54546337D01*
X51189035Y-54332171D01*
X51188652Y-54331623D01*
X51053494Y-54138597D01*
X50886402Y-53971506D01*
X50886396Y-53971501D01*
X50700842Y-53841575D01*
X50657217Y-53786998D01*
X50650023Y-53717500D01*
X50681546Y-53655145D01*
X50700842Y-53638425D01*
X50737658Y-53612646D01*
X50886401Y-53508495D01*
X51053495Y-53341401D01*
X51189035Y-53147830D01*
X51288903Y-52933663D01*
X51350063Y-52705408D01*
X51370659Y-52470000D01*
X51370658Y-52469994D01*
X51350063Y-52234596D01*
X51350063Y-52234592D01*
X51288903Y-52006337D01*
X51189035Y-51792171D01*
X51188652Y-51791623D01*
X51053494Y-51598597D01*
X50886402Y-51431506D01*
X50886396Y-51431501D01*
X50700842Y-51301575D01*
X50657217Y-51246998D01*
X50650023Y-51177500D01*
X50681546Y-51115145D01*
X50700842Y-51098425D01*
X50723026Y-51082891D01*
X50886401Y-50968495D01*
X51053495Y-50801401D01*
X51189035Y-50607830D01*
X51288903Y-50393663D01*
X51350063Y-50165408D01*
X51370659Y-49930000D01*
X51370658Y-49929994D01*
X51350063Y-49694596D01*
X51350063Y-49694592D01*
X51288903Y-49466337D01*
X51189035Y-49252171D01*
X51188652Y-49251623D01*
X51053494Y-49058597D01*
X50886402Y-48891506D01*
X50886396Y-48891501D01*
X50700842Y-48761575D01*
X50657217Y-48706998D01*
X50650023Y-48637500D01*
X50681546Y-48575145D01*
X50700842Y-48558425D01*
X50723026Y-48542891D01*
X50886401Y-48428495D01*
X51053495Y-48261401D01*
X51189035Y-48067830D01*
X51288903Y-47853663D01*
X51350063Y-47625408D01*
X51370659Y-47390000D01*
X51370658Y-47389994D01*
X51350063Y-47154596D01*
X51350063Y-47154592D01*
X51288903Y-46926337D01*
X51189035Y-46712171D01*
X51188652Y-46711623D01*
X51053494Y-46518597D01*
X50886402Y-46351506D01*
X50886396Y-46351501D01*
X50700842Y-46221575D01*
X50657217Y-46166998D01*
X50650023Y-46097500D01*
X50681546Y-46035145D01*
X50700842Y-46018425D01*
X50723026Y-46002891D01*
X50886401Y-45888495D01*
X51053495Y-45721401D01*
X51189035Y-45527830D01*
X51288903Y-45313663D01*
X51350063Y-45085408D01*
X51370659Y-44850000D01*
X51370658Y-44849994D01*
X51350063Y-44614596D01*
X51350063Y-44614592D01*
X51288903Y-44386337D01*
X51189035Y-44172171D01*
X51188652Y-44171623D01*
X51053494Y-43978597D01*
X50886402Y-43811506D01*
X50886396Y-43811501D01*
X50700842Y-43681575D01*
X50657217Y-43626998D01*
X50650023Y-43557500D01*
X50681546Y-43495145D01*
X50700842Y-43478425D01*
X50723026Y-43462891D01*
X50886401Y-43348495D01*
X51053495Y-43181401D01*
X51189035Y-42987830D01*
X51288903Y-42773663D01*
X51350063Y-42545408D01*
X51370659Y-42310000D01*
X51370658Y-42309994D01*
X51350063Y-42074596D01*
X51350063Y-42074592D01*
X51288903Y-41846337D01*
X51189035Y-41632171D01*
X51188652Y-41631623D01*
X51053494Y-41438597D01*
X50886402Y-41271506D01*
X50886396Y-41271501D01*
X50700842Y-41141575D01*
X50657217Y-41086998D01*
X50650023Y-41017500D01*
X50681546Y-40955145D01*
X50700842Y-40938425D01*
X50723026Y-40922891D01*
X50886401Y-40808495D01*
X51053495Y-40641401D01*
X51189035Y-40447830D01*
X51288903Y-40233663D01*
X51350063Y-40005408D01*
X51370659Y-39770000D01*
X51370658Y-39769994D01*
X51350063Y-39534596D01*
X51350063Y-39534592D01*
X51288903Y-39306337D01*
X51189035Y-39092171D01*
X51188652Y-39091623D01*
X51053494Y-38898597D01*
X50886402Y-38731506D01*
X50886396Y-38731501D01*
X50700842Y-38601575D01*
X50657217Y-38546998D01*
X50650023Y-38477500D01*
X50681546Y-38415145D01*
X50700842Y-38398425D01*
X50723026Y-38382891D01*
X50886401Y-38268495D01*
X51053495Y-38101401D01*
X51189035Y-37907830D01*
X51288903Y-37693663D01*
X51350063Y-37465408D01*
X51370659Y-37230000D01*
X51370658Y-37229994D01*
X51350063Y-36994596D01*
X51350063Y-36994592D01*
X51288903Y-36766337D01*
X51189035Y-36552171D01*
X51188652Y-36551623D01*
X51053494Y-36358597D01*
X50886402Y-36191506D01*
X50886396Y-36191501D01*
X50700842Y-36061575D01*
X50657217Y-36006998D01*
X50650023Y-35937500D01*
X50681546Y-35875145D01*
X50700842Y-35858425D01*
X50723026Y-35842891D01*
X50886401Y-35728495D01*
X51053495Y-35561401D01*
X51189035Y-35367830D01*
X51288903Y-35153663D01*
X51350063Y-34925408D01*
X51370659Y-34690000D01*
X51370658Y-34689994D01*
X51350063Y-34454596D01*
X51350063Y-34454592D01*
X51288903Y-34226337D01*
X51189035Y-34012171D01*
X51188339Y-34011176D01*
X51053494Y-33818597D01*
X50886402Y-33651506D01*
X50886395Y-33651501D01*
X50692834Y-33515967D01*
X50692830Y-33515965D01*
X50661042Y-33501142D01*
X50478663Y-33416097D01*
X50478659Y-33416096D01*
X50478655Y-33416094D01*
X50250413Y-33354938D01*
X50250403Y-33354936D01*
X50015001Y-33334341D01*
X50014999Y-33334341D01*
X49779590Y-33354937D01*
X49779589Y-33354937D01*
X49679124Y-33381855D01*
X49609274Y-33380191D01*
X49559352Y-33349761D01*
X49245803Y-33036212D01*
X49235980Y-33023950D01*
X49235759Y-33024134D01*
X49230786Y-33018122D01*
X49181066Y-32971432D01*
X49179666Y-32970075D01*
X49159476Y-32949884D01*
X49153986Y-32945625D01*
X49149561Y-32941847D01*
X49115582Y-32909938D01*
X49115580Y-32909936D01*
X49115577Y-32909935D01*
X49098029Y-32900288D01*
X49081763Y-32889604D01*
X49065933Y-32877325D01*
X49023168Y-32858818D01*
X49017922Y-32856248D01*
X48977093Y-32833803D01*
X48977092Y-32833802D01*
X48957693Y-32828822D01*
X48939281Y-32822518D01*
X48920898Y-32814562D01*
X48920892Y-32814560D01*
X48874874Y-32807272D01*
X48869152Y-32806087D01*
X48824021Y-32794500D01*
X48824019Y-32794500D01*
X48803984Y-32794500D01*
X48784586Y-32792973D01*
X48777162Y-32791797D01*
X48764805Y-32789840D01*
X48764804Y-32789840D01*
X48718416Y-32794225D01*
X48712578Y-32794500D01*
X46753903Y-32794500D01*
X46686864Y-32774815D01*
X46641109Y-32722011D01*
X46631165Y-32652853D01*
X46649639Y-32607311D01*
X46647908Y-32606277D01*
X46650763Y-32601497D01*
X46650765Y-32601496D01*
X46766215Y-32408264D01*
X46845307Y-32197524D01*
X46865240Y-32087686D01*
X46885500Y-31976049D01*
X46885500Y-31407352D01*
X46885500Y-31407345D01*
X46870377Y-31239312D01*
X46860816Y-31204670D01*
X46851521Y-31170989D01*
X46852661Y-31101129D01*
X46891389Y-31042975D01*
X46955409Y-31014991D01*
X46971052Y-31014000D01*
X48912471Y-31014000D01*
X48979510Y-31033685D01*
X49025265Y-31086489D01*
X49032002Y-31105011D01*
X49059503Y-31204660D01*
X49059508Y-31204673D01*
X49157167Y-31407466D01*
X49157171Y-31407474D01*
X49289473Y-31589572D01*
X49289474Y-31589574D01*
X49452176Y-31745133D01*
X49640033Y-31869136D01*
X49847004Y-31957600D01*
X49847007Y-31957601D01*
X49847012Y-31957603D01*
X50066463Y-32007691D01*
X50291330Y-32017790D01*
X50514387Y-31987575D01*
X50728464Y-31918017D01*
X50926681Y-31811352D01*
X51102666Y-31671008D01*
X51250765Y-31501496D01*
X51366215Y-31308264D01*
X51445307Y-31097524D01*
X51477753Y-30918736D01*
X51485500Y-30876049D01*
X51485500Y-30307352D01*
X51485500Y-30307345D01*
X51470377Y-30139312D01*
X51465262Y-30120778D01*
X51410496Y-29922339D01*
X51410491Y-29922326D01*
X51312832Y-29719533D01*
X51312828Y-29719525D01*
X51180526Y-29537427D01*
X51180525Y-29537425D01*
X51135048Y-29493945D01*
X51017825Y-29381868D01*
X51017823Y-29381866D01*
X50829966Y-29257863D01*
X50622995Y-29169399D01*
X50622982Y-29169395D01*
X50403542Y-29119310D01*
X50403538Y-29119309D01*
X50403537Y-29119309D01*
X50403536Y-29119308D01*
X50403531Y-29119308D01*
X50178674Y-29109210D01*
X50178673Y-29109210D01*
X50178670Y-29109210D01*
X49955613Y-29139425D01*
X49955610Y-29139425D01*
X49955609Y-29139426D01*
X49741534Y-29208983D01*
X49543321Y-29315646D01*
X49543318Y-29315648D01*
X49367336Y-29455989D01*
X49315390Y-29515446D01*
X49232886Y-29609880D01*
X49223533Y-29620585D01*
X49164601Y-29658119D01*
X49130152Y-29663000D01*
X48460551Y-29663000D01*
X48393512Y-29643315D01*
X48347757Y-29590511D01*
X48337813Y-29521353D01*
X48366838Y-29457797D01*
X48378458Y-29447132D01*
X48378150Y-29446804D01*
X48383834Y-29441465D01*
X48383837Y-29441463D01*
X48488600Y-29314826D01*
X48558579Y-29166113D01*
X48589376Y-29004670D01*
X48579056Y-28840640D01*
X48528268Y-28684329D01*
X48511438Y-28657810D01*
X48470680Y-28593586D01*
X48440202Y-28545560D01*
X48435190Y-28540853D01*
X48320396Y-28433054D01*
X48320388Y-28433048D01*
X48176371Y-28353874D01*
X48176361Y-28353871D01*
X48017180Y-28313000D01*
X48017177Y-28313000D01*
X47894075Y-28313000D01*
X47894065Y-28313000D01*
X47771942Y-28328429D01*
X47771939Y-28328429D01*
X47619130Y-28388931D01*
X47619121Y-28388936D01*
X47486164Y-28485534D01*
X47486162Y-28485537D01*
X47381400Y-28612173D01*
X47311420Y-28760887D01*
X47291833Y-28863569D01*
X47280624Y-28922330D01*
X47280624Y-28922332D01*
X47280624Y-28922333D01*
X47290944Y-29086360D01*
X47341732Y-29242671D01*
X47341734Y-29242675D01*
X47429798Y-29381440D01*
X47501324Y-29448608D01*
X47536719Y-29508849D01*
X47533926Y-29578663D01*
X47493832Y-29635884D01*
X47429167Y-29662345D01*
X47416440Y-29663000D01*
X44338778Y-29663000D01*
X44335034Y-29662887D01*
X44275418Y-29659281D01*
X44275409Y-29659281D01*
X44216671Y-29670045D01*
X44212970Y-29670608D01*
X44153656Y-29677811D01*
X44144881Y-29681139D01*
X44123278Y-29687160D01*
X44118759Y-29687988D01*
X44114060Y-29688850D01*
X44059529Y-29713390D01*
X44056065Y-29714821D01*
X44054573Y-29715387D01*
X44053870Y-29715653D01*
X43984199Y-29720909D01*
X43922746Y-29687663D01*
X43889022Y-29626470D01*
X43886510Y-29609895D01*
X43867677Y-29382609D01*
X43811664Y-29161422D01*
X43720010Y-28952470D01*
X43595213Y-28761453D01*
X43595212Y-28761451D01*
X43440680Y-28593586D01*
X43440676Y-28593582D01*
X43372929Y-28540853D01*
X43332116Y-28484142D01*
X43328441Y-28414369D01*
X43363072Y-28353686D01*
X43392794Y-28332515D01*
X43457191Y-28299704D01*
X43610532Y-28175532D01*
X43734704Y-28022191D01*
X43824282Y-27846385D01*
X43875350Y-27655796D01*
X43881800Y-27573841D01*
X43881799Y-26566160D01*
X43875350Y-26484204D01*
X43824282Y-26293615D01*
X43745661Y-26139313D01*
X43734705Y-26117810D01*
X43610532Y-25964467D01*
X43457189Y-25840294D01*
X43392796Y-25807485D01*
X43342000Y-25759511D01*
X43325205Y-25691690D01*
X43347742Y-25625555D01*
X43372930Y-25599146D01*
X43440671Y-25546422D01*
X43440672Y-25546420D01*
X43440677Y-25546417D01*
X43595213Y-25378547D01*
X43720010Y-25187530D01*
X43811664Y-24978578D01*
X43867677Y-24757391D01*
X43868495Y-24747523D01*
X43886519Y-24530005D01*
X43886519Y-24529994D01*
X43867678Y-24302616D01*
X43867677Y-24302613D01*
X43867677Y-24302609D01*
X43811664Y-24081422D01*
X43720010Y-23872470D01*
X43687805Y-23823176D01*
X43595212Y-23681451D01*
X43440680Y-23513586D01*
X43440676Y-23513582D01*
X43260620Y-23373440D01*
X43260619Y-23373439D01*
X43059950Y-23264842D01*
X43059942Y-23264839D01*
X42844145Y-23190755D01*
X42619085Y-23153200D01*
X42390915Y-23153200D01*
X42165854Y-23190755D01*
X41950057Y-23264839D01*
X41950049Y-23264842D01*
X41749379Y-23373440D01*
X41569323Y-23513582D01*
X41569319Y-23513586D01*
X41414787Y-23681451D01*
X41289989Y-23872470D01*
X41198335Y-24081422D01*
X41142323Y-24302608D01*
X41142321Y-24302616D01*
X41123481Y-24529994D01*
X41123481Y-24530005D01*
X41142321Y-24757383D01*
X41142323Y-24757391D01*
X41198335Y-24978577D01*
X41289989Y-25187529D01*
X41414787Y-25378548D01*
X41569319Y-25546413D01*
X41569323Y-25546417D01*
X41637070Y-25599146D01*
X41677883Y-25655856D01*
X41681558Y-25725629D01*
X41646927Y-25786313D01*
X41617203Y-25807485D01*
X41552810Y-25840294D01*
X41399467Y-25964467D01*
X41275294Y-26117810D01*
X41185717Y-26293616D01*
X41134649Y-26484205D01*
X41128200Y-26566153D01*
X41128200Y-27573830D01*
X41128201Y-27573849D01*
X41134649Y-27655794D01*
X41185717Y-27846383D01*
X41275294Y-28022189D01*
X41399467Y-28175532D01*
X41462484Y-28226561D01*
X41552809Y-28299704D01*
X41552810Y-28299704D01*
X41552812Y-28299706D01*
X41617202Y-28332514D01*
X41667998Y-28380488D01*
X41684794Y-28448309D01*
X41662257Y-28514444D01*
X41637071Y-28540852D01*
X41569325Y-28593580D01*
X41569319Y-28593586D01*
X41414787Y-28761451D01*
X41289989Y-28952470D01*
X41198335Y-29161422D01*
X41142323Y-29382608D01*
X41142321Y-29382616D01*
X41123481Y-29609994D01*
X41123481Y-29610005D01*
X41142321Y-29837383D01*
X41142323Y-29837394D01*
X41175683Y-29969128D01*
X41173058Y-30038948D01*
X41143158Y-30087249D01*
X41012226Y-30218182D01*
X40950906Y-30251666D01*
X40924547Y-30254500D01*
X28764873Y-30254500D01*
X28697834Y-30234815D01*
X28652079Y-30182011D01*
X28641255Y-30120778D01*
X28641798Y-30113863D01*
X28641800Y-30113841D01*
X28641799Y-29106160D01*
X28635350Y-29024204D01*
X28584282Y-28833615D01*
X28508217Y-28684329D01*
X28494705Y-28657810D01*
X28370532Y-28504467D01*
X28217189Y-28380294D01*
X28152796Y-28347485D01*
X28102000Y-28299511D01*
X28085205Y-28231690D01*
X28107742Y-28165555D01*
X28132930Y-28139146D01*
X28200671Y-28086422D01*
X28200672Y-28086420D01*
X28200677Y-28086417D01*
X28355213Y-27918547D01*
X28480010Y-27727530D01*
X28571664Y-27518578D01*
X28627677Y-27297391D01*
X28637437Y-27179609D01*
X28646519Y-27070005D01*
X28646519Y-27069994D01*
X28627678Y-26842616D01*
X28627677Y-26842613D01*
X28627677Y-26842609D01*
X28571664Y-26621422D01*
X28480010Y-26412470D01*
X28355212Y-26221451D01*
X28200680Y-26053586D01*
X28200676Y-26053582D01*
X28020620Y-25913440D01*
X28020619Y-25913439D01*
X28012517Y-25909054D01*
X27962928Y-25859837D01*
X27947818Y-25791621D01*
X27971988Y-25726065D01*
X28012517Y-25690945D01*
X28020619Y-25686561D01*
X28200677Y-25546417D01*
X28355213Y-25378547D01*
X28480010Y-25187530D01*
X28571664Y-24978578D01*
X28627677Y-24757391D01*
X28628495Y-24747523D01*
X28646519Y-24530005D01*
X28646519Y-24529994D01*
X28627678Y-24302616D01*
X28627677Y-24302613D01*
X28627677Y-24302609D01*
X28571664Y-24081422D01*
X28480010Y-23872470D01*
X28447805Y-23823176D01*
X28355212Y-23681451D01*
X28200680Y-23513586D01*
X28200676Y-23513582D01*
X28020620Y-23373440D01*
X28020619Y-23373439D01*
X27819950Y-23264842D01*
X27819942Y-23264839D01*
X27604145Y-23190755D01*
X27379085Y-23153200D01*
X27150915Y-23153200D01*
X26925854Y-23190755D01*
X26710057Y-23264839D01*
X26710049Y-23264842D01*
X26509379Y-23373440D01*
X26329323Y-23513582D01*
X26329319Y-23513586D01*
X26174787Y-23681451D01*
X26049989Y-23872470D01*
X25958335Y-24081422D01*
X25902323Y-24302608D01*
X25902321Y-24302616D01*
X25883481Y-24529994D01*
X25883481Y-24530005D01*
X25902321Y-24757383D01*
X25902323Y-24757395D01*
X25935683Y-24889129D01*
X25933058Y-24958949D01*
X25903158Y-25007250D01*
X25576208Y-25334199D01*
X25563951Y-25344020D01*
X25564134Y-25344241D01*
X25558122Y-25349214D01*
X25511432Y-25398932D01*
X25510079Y-25400329D01*
X25489889Y-25420519D01*
X25489877Y-25420532D01*
X25485621Y-25426017D01*
X25481837Y-25430447D01*
X25449937Y-25464418D01*
X25449936Y-25464420D01*
X25440284Y-25481976D01*
X25429610Y-25498226D01*
X25417329Y-25514061D01*
X25417324Y-25514068D01*
X25398815Y-25556839D01*
X25396245Y-25562085D01*
X25370714Y-25608525D01*
X25321168Y-25657789D01*
X25252853Y-25672446D01*
X25187459Y-25647843D01*
X25161736Y-25621676D01*
X25100522Y-25537422D01*
X25076092Y-25514064D01*
X25040772Y-25480294D01*
X25005920Y-25419737D01*
X25009339Y-25349951D01*
X25033082Y-25309085D01*
X25170765Y-25151496D01*
X25286215Y-24958264D01*
X25365307Y-24747524D01*
X25405500Y-24526047D01*
X25405500Y-24057345D01*
X25390377Y-23889312D01*
X25390195Y-23888652D01*
X25330496Y-23672339D01*
X25330491Y-23672326D01*
X25232832Y-23469533D01*
X25232828Y-23469525D01*
X25100526Y-23287427D01*
X25100525Y-23287425D01*
X25089511Y-23276895D01*
X24937825Y-23131868D01*
X24937823Y-23131866D01*
X24749966Y-23007863D01*
X24542995Y-22919399D01*
X24542982Y-22919395D01*
X24323542Y-22869310D01*
X24323538Y-22869309D01*
X24323537Y-22869309D01*
X24323536Y-22869308D01*
X24323531Y-22869308D01*
X24098674Y-22859210D01*
X24098673Y-22859210D01*
X24098670Y-22859210D01*
X23971208Y-22876475D01*
X23875610Y-22889425D01*
X23857180Y-22895414D01*
X23787339Y-22897408D01*
X23727507Y-22861326D01*
X23696680Y-22798625D01*
X23702681Y-22734152D01*
X23779369Y-22528546D01*
X23840196Y-22248928D01*
X23860610Y-21963501D01*
X45929390Y-21963501D01*
X45949804Y-22248933D01*
X46010628Y-22528537D01*
X46110635Y-22796666D01*
X46247770Y-23047809D01*
X46247775Y-23047817D01*
X46419254Y-23276887D01*
X46419270Y-23276905D01*
X46621594Y-23479229D01*
X46621612Y-23479245D01*
X46850682Y-23650724D01*
X46850690Y-23650729D01*
X47101833Y-23787864D01*
X47101832Y-23787864D01*
X47101836Y-23787865D01*
X47101839Y-23787867D01*
X47369954Y-23887869D01*
X47369960Y-23887870D01*
X47369962Y-23887871D01*
X47649566Y-23948695D01*
X47649568Y-23948695D01*
X47649572Y-23948696D01*
X47863552Y-23964000D01*
X48006448Y-23964000D01*
X48220428Y-23948696D01*
X48500046Y-23887869D01*
X48768161Y-23787867D01*
X48823444Y-23757679D01*
X48891716Y-23742827D01*
X48957181Y-23767243D01*
X48999053Y-23823176D01*
X49004879Y-23888652D01*
X48984500Y-24000949D01*
X48984500Y-24469651D01*
X48999622Y-24637686D01*
X48999623Y-24637692D01*
X49059503Y-24854660D01*
X49059508Y-24854673D01*
X49157167Y-25057466D01*
X49157171Y-25057474D01*
X49289473Y-25239572D01*
X49289480Y-25239580D01*
X49349227Y-25296705D01*
X49384079Y-25357262D01*
X49380660Y-25427048D01*
X49356916Y-25467916D01*
X49219236Y-25625502D01*
X49123157Y-25786313D01*
X49103785Y-25818736D01*
X49088360Y-25859837D01*
X49024692Y-26029476D01*
X48984500Y-26250950D01*
X48984500Y-26250953D01*
X48984500Y-26819655D01*
X48989113Y-26870916D01*
X48999622Y-26987686D01*
X48999623Y-26987692D01*
X49059503Y-27204660D01*
X49059508Y-27204673D01*
X49157167Y-27407466D01*
X49157171Y-27407474D01*
X49289473Y-27589572D01*
X49289474Y-27589574D01*
X49452176Y-27745133D01*
X49640033Y-27869136D01*
X49847004Y-27957600D01*
X49847007Y-27957601D01*
X49847012Y-27957603D01*
X50066463Y-28007691D01*
X50291330Y-28017790D01*
X50514387Y-27987575D01*
X50728464Y-27918017D01*
X50926681Y-27811352D01*
X51102666Y-27671008D01*
X51250765Y-27501496D01*
X51366215Y-27308264D01*
X51445307Y-27097524D01*
X51485500Y-26876047D01*
X51485500Y-26307345D01*
X51470377Y-26139312D01*
X51464443Y-26117810D01*
X51410496Y-25922339D01*
X51410491Y-25922326D01*
X51312832Y-25719533D01*
X51312828Y-25719525D01*
X51180526Y-25537427D01*
X51180519Y-25537419D01*
X51120772Y-25480294D01*
X51085920Y-25419737D01*
X51089339Y-25349951D01*
X51113082Y-25309085D01*
X51250765Y-25151496D01*
X51366215Y-24958264D01*
X51445307Y-24747524D01*
X51485500Y-24526047D01*
X51485500Y-24057345D01*
X51470377Y-23889312D01*
X51470195Y-23888652D01*
X51410496Y-23672339D01*
X51410491Y-23672326D01*
X51312832Y-23469533D01*
X51312828Y-23469525D01*
X51180526Y-23287427D01*
X51180525Y-23287425D01*
X51169511Y-23276895D01*
X51017825Y-23131868D01*
X51017823Y-23131866D01*
X50829966Y-23007863D01*
X50622995Y-22919399D01*
X50622982Y-22919395D01*
X50403542Y-22869310D01*
X50403538Y-22869309D01*
X50403537Y-22869309D01*
X50403536Y-22869308D01*
X50403531Y-22869308D01*
X50178674Y-22859210D01*
X50178673Y-22859210D01*
X50178670Y-22859210D01*
X50051208Y-22876475D01*
X49955610Y-22889425D01*
X49937180Y-22895414D01*
X49867339Y-22897408D01*
X49807507Y-22861326D01*
X49776680Y-22798625D01*
X49782681Y-22734152D01*
X49859369Y-22528546D01*
X49920196Y-22248928D01*
X49940610Y-21963500D01*
X49920196Y-21678072D01*
X49859369Y-21398454D01*
X49759367Y-21130339D01*
X49622226Y-20879185D01*
X49622224Y-20879182D01*
X49450745Y-20650112D01*
X49450729Y-20650094D01*
X49248405Y-20447770D01*
X49248387Y-20447754D01*
X49019317Y-20276275D01*
X49019309Y-20276270D01*
X48768166Y-20139135D01*
X48768167Y-20139135D01*
X48660914Y-20099132D01*
X48500046Y-20039131D01*
X48500043Y-20039130D01*
X48500037Y-20039128D01*
X48220433Y-19978304D01*
X48006450Y-19963000D01*
X48006448Y-19963000D01*
X47863552Y-19963000D01*
X47863549Y-19963000D01*
X47649566Y-19978304D01*
X47369962Y-20039128D01*
X47101833Y-20139135D01*
X46850690Y-20276270D01*
X46850682Y-20276275D01*
X46621612Y-20447754D01*
X46621594Y-20447770D01*
X46419270Y-20650094D01*
X46419254Y-20650112D01*
X46247775Y-20879182D01*
X46247770Y-20879190D01*
X46110635Y-21130333D01*
X46010628Y-21398462D01*
X45949804Y-21678066D01*
X45929390Y-21963498D01*
X45929390Y-21963501D01*
X23860610Y-21963501D01*
X23860610Y-21963500D01*
X23840196Y-21678072D01*
X23779369Y-21398454D01*
X23679367Y-21130339D01*
X23542226Y-20879185D01*
X23542224Y-20879182D01*
X23370745Y-20650112D01*
X23370729Y-20650094D01*
X23168405Y-20447770D01*
X23168387Y-20447754D01*
X22939317Y-20276275D01*
X22939309Y-20276270D01*
X22688166Y-20139135D01*
X22688167Y-20139135D01*
X22580915Y-20099132D01*
X22420046Y-20039131D01*
X22420043Y-20039130D01*
X22420037Y-20039128D01*
X22140433Y-19978304D01*
X21926450Y-19963000D01*
X21926448Y-19963000D01*
X21783552Y-19963000D01*
X21783549Y-19963000D01*
X21569566Y-19978304D01*
X21289962Y-20039128D01*
X21021833Y-20139135D01*
X20770690Y-20276270D01*
X20770682Y-20276275D01*
X20541612Y-20447754D01*
X20541594Y-20447770D01*
X20339270Y-20650094D01*
X20339254Y-20650112D01*
X20167775Y-20879182D01*
X20167770Y-20879190D01*
X20030635Y-21130333D01*
X19930628Y-21398462D01*
X19869804Y-21678066D01*
X19849390Y-21963498D01*
X19849390Y-21963501D01*
X19869804Y-22248933D01*
X19930628Y-22528537D01*
X20030635Y-22796666D01*
X20167770Y-23047809D01*
X20167775Y-23047817D01*
X20339254Y-23276887D01*
X20339270Y-23276905D01*
X20541594Y-23479229D01*
X20541612Y-23479245D01*
X20770682Y-23650724D01*
X20770690Y-23650729D01*
X21021833Y-23787864D01*
X21021832Y-23787864D01*
X21021836Y-23787865D01*
X21021839Y-23787867D01*
X21289954Y-23887869D01*
X21289960Y-23887870D01*
X21289962Y-23887871D01*
X21569566Y-23948695D01*
X21569568Y-23948695D01*
X21569572Y-23948696D01*
X21783552Y-23964000D01*
X21926448Y-23964000D01*
X22140428Y-23948696D01*
X22420046Y-23887869D01*
X22688161Y-23787867D01*
X22743444Y-23757679D01*
X22811716Y-23742827D01*
X22877181Y-23767243D01*
X22919053Y-23823176D01*
X22924879Y-23888652D01*
X22904500Y-24000949D01*
X22904500Y-24469651D01*
X22919622Y-24637686D01*
X22919623Y-24637692D01*
X22979503Y-24854660D01*
X22979508Y-24854673D01*
X23077167Y-25057466D01*
X23077171Y-25057474D01*
X23209473Y-25239572D01*
X23209480Y-25239580D01*
X23269227Y-25296705D01*
X23304079Y-25357262D01*
X23300660Y-25427048D01*
X23276916Y-25467916D01*
X23139236Y-25625502D01*
X23043157Y-25786313D01*
X23023785Y-25818736D01*
X23008360Y-25859837D01*
X22944692Y-26029476D01*
X22904500Y-26250950D01*
X22904500Y-26250953D01*
X22904500Y-26819655D01*
X22909113Y-26870916D01*
X22919622Y-26987686D01*
X22919623Y-26987692D01*
X22979503Y-27204660D01*
X22979508Y-27204673D01*
X23077167Y-27407466D01*
X23077171Y-27407474D01*
X23209473Y-27589572D01*
X23209474Y-27589574D01*
X23372176Y-27745133D01*
X23560033Y-27869136D01*
X23767004Y-27957600D01*
X23767007Y-27957601D01*
X23767012Y-27957603D01*
X23986463Y-28007691D01*
X24164071Y-28015667D01*
X24230159Y-28038339D01*
X24273499Y-28093143D01*
X24280330Y-28162678D01*
X24265895Y-28201541D01*
X24217122Y-28286019D01*
X24217120Y-28286024D01*
X24164391Y-28448309D01*
X24158628Y-28466046D01*
X24138842Y-28654302D01*
X24158628Y-28842558D01*
X24158628Y-28842560D01*
X24158629Y-28842562D01*
X24193190Y-28948932D01*
X24195185Y-29018773D01*
X24159104Y-29078605D01*
X24096403Y-29109433D01*
X24091929Y-29110123D01*
X23875613Y-29139425D01*
X23875610Y-29139425D01*
X23875609Y-29139426D01*
X23661534Y-29208983D01*
X23463321Y-29315646D01*
X23463318Y-29315648D01*
X23287336Y-29455989D01*
X23216186Y-29537427D01*
X23139235Y-29625504D01*
X23023785Y-29818736D01*
X23016787Y-29837383D01*
X22944692Y-30029476D01*
X22904500Y-30250950D01*
X22904500Y-30819651D01*
X22919622Y-30987686D01*
X22919623Y-30987692D01*
X22979503Y-31204660D01*
X22979508Y-31204673D01*
X23077167Y-31407466D01*
X23077171Y-31407474D01*
X23209473Y-31589572D01*
X23209474Y-31589574D01*
X23372176Y-31745133D01*
X23560033Y-31869136D01*
X23767004Y-31957600D01*
X23767007Y-31957601D01*
X23767012Y-31957603D01*
X23986463Y-32007691D01*
X24211330Y-32017790D01*
X24434387Y-31987575D01*
X24542182Y-31952549D01*
X24612023Y-31950555D01*
X24671856Y-31986635D01*
X24702684Y-32049336D01*
X24704500Y-32070481D01*
X24704500Y-32523151D01*
X24684815Y-32590190D01*
X24668181Y-32610832D01*
X24605832Y-32673181D01*
X24544509Y-32706666D01*
X24518151Y-32709500D01*
X21232737Y-32709500D01*
X21217120Y-32707776D01*
X21217093Y-32708062D01*
X21209331Y-32707327D01*
X21141171Y-32709469D01*
X21139224Y-32709500D01*
X21110650Y-32709500D01*
X21109929Y-32709590D01*
X21103757Y-32710369D01*
X21097945Y-32710826D01*
X21051372Y-32712290D01*
X21051369Y-32712291D01*
X21032126Y-32717881D01*
X21013083Y-32721825D01*
X20993204Y-32724336D01*
X20993203Y-32724337D01*
X20949878Y-32741490D01*
X20944352Y-32743382D01*
X20899608Y-32756383D01*
X20899604Y-32756385D01*
X20882365Y-32766580D01*
X20864898Y-32775137D01*
X20846269Y-32782512D01*
X20846267Y-32782513D01*
X20808564Y-32809906D01*
X20803682Y-32813112D01*
X20763580Y-32836828D01*
X20749408Y-32851000D01*
X20734623Y-32863628D01*
X20718412Y-32875407D01*
X20688709Y-32911310D01*
X20684777Y-32915631D01*
X20250646Y-33349761D01*
X20189323Y-33383246D01*
X20130873Y-33381855D01*
X20030408Y-33354937D01*
X19820860Y-33336603D01*
X19755791Y-33311150D01*
X19714813Y-33254559D01*
X19710935Y-33184797D01*
X19745389Y-33124013D01*
X19807236Y-33091506D01*
X19815001Y-33090200D01*
X19834387Y-33087575D01*
X20048464Y-33018017D01*
X20246681Y-32911352D01*
X20422666Y-32771008D01*
X20570765Y-32601496D01*
X20686215Y-32408264D01*
X20765307Y-32197524D01*
X20785240Y-32087686D01*
X20805500Y-31976049D01*
X20805500Y-31407352D01*
X20805500Y-31407345D01*
X20790377Y-31239312D01*
X20790376Y-31239307D01*
X20730496Y-31022339D01*
X20730491Y-31022326D01*
X20726481Y-31014000D01*
X20632829Y-30819527D01*
X20564517Y-30725504D01*
X20500526Y-30637427D01*
X20500525Y-30637425D01*
X20337823Y-30481866D01*
X20149966Y-30357863D01*
X19942995Y-30269399D01*
X19942982Y-30269395D01*
X19723542Y-30219310D01*
X19723538Y-30219309D01*
X19723537Y-30219309D01*
X19723536Y-30219308D01*
X19723531Y-30219308D01*
X19498674Y-30209210D01*
X19498673Y-30209210D01*
X19498670Y-30209210D01*
X19275613Y-30239425D01*
X19275610Y-30239425D01*
X19275609Y-30239426D01*
X19061534Y-30308983D01*
X18863321Y-30415646D01*
X18863318Y-30415648D01*
X18687336Y-30555989D01*
X18539236Y-30725503D01*
X18423787Y-30918732D01*
X18423786Y-30918734D01*
X18344692Y-31129476D01*
X18304500Y-31350950D01*
X18304500Y-31350953D01*
X18304500Y-31919655D01*
X17853500Y-31919655D01*
X17853500Y-28922333D01*
X21200624Y-28922333D01*
X21210944Y-29086360D01*
X21261732Y-29242671D01*
X21261734Y-29242675D01*
X21349798Y-29381440D01*
X21469603Y-29493945D01*
X21469611Y-29493951D01*
X21549860Y-29538068D01*
X21613632Y-29573127D01*
X21772823Y-29614000D01*
X21772827Y-29614000D01*
X21895923Y-29614000D01*
X21895925Y-29614000D01*
X21895930Y-29613999D01*
X21895934Y-29613999D01*
X21909174Y-29612326D01*
X22018058Y-29598571D01*
X22170871Y-29538068D01*
X22171760Y-29537422D01*
X22303835Y-29441465D01*
X22303835Y-29441463D01*
X22303837Y-29441463D01*
X22408600Y-29314826D01*
X22478579Y-29166113D01*
X22509376Y-29004670D01*
X22499056Y-28840640D01*
X22448268Y-28684329D01*
X22431438Y-28657810D01*
X22390680Y-28593586D01*
X22360202Y-28545560D01*
X22355190Y-28540853D01*
X22240396Y-28433054D01*
X22240388Y-28433048D01*
X22096371Y-28353874D01*
X22096361Y-28353871D01*
X21937180Y-28313000D01*
X21937177Y-28313000D01*
X21814075Y-28313000D01*
X21814065Y-28313000D01*
X21691942Y-28328429D01*
X21691939Y-28328429D01*
X21539130Y-28388931D01*
X21539121Y-28388936D01*
X21406164Y-28485534D01*
X21406162Y-28485537D01*
X21301400Y-28612173D01*
X21231420Y-28760887D01*
X21211833Y-28863569D01*
X21200624Y-28922330D01*
X21200624Y-28922332D01*
X21200624Y-28922333D01*
X17853500Y-28922333D01*
X17853500Y-18728544D01*
X17853797Y-18722479D01*
X17856978Y-18690182D01*
X17869420Y-18579765D01*
X17873978Y-18557666D01*
X17873979Y-18557664D01*
X17889753Y-18505661D01*
X17890543Y-18503245D01*
X17917797Y-18425357D01*
X17925462Y-18407901D01*
X17953983Y-18354541D01*
X17956107Y-18350882D01*
X17999873Y-18281228D01*
X18004426Y-18274906D01*
X18046849Y-18223213D01*
X18050890Y-18218754D01*
X18108253Y-18161391D01*
X18112713Y-18157349D01*
X18164406Y-18114926D01*
X18170728Y-18110373D01*
X18240382Y-18066607D01*
X18244041Y-18064483D01*
X18297401Y-18035962D01*
X18314857Y-18028297D01*
X18392745Y-18001043D01*
X18395147Y-18000258D01*
X18447174Y-17984475D01*
X18469265Y-17979920D01*
X18579702Y-17967476D01*
X18611979Y-17964297D01*
X18618047Y-17964000D01*
X51171952Y-17964000D01*
X51178031Y-17964299D01*
G37*
G04 #@! TD.AperFunction*
G04 #@! TA.AperFunction,NonConductor*
G36*
X37215860Y-31525185D02*
G01*
X37261615Y-31577989D01*
X37271559Y-31647147D01*
X37242534Y-31710703D01*
X37236502Y-31717181D01*
X36275502Y-32678181D01*
X36214179Y-32711666D01*
X36187821Y-32714500D01*
X28765800Y-32714500D01*
X28698761Y-32694815D01*
X28653006Y-32642011D01*
X28641800Y-32590500D01*
X28641799Y-31646169D01*
X28641799Y-31646160D01*
X28641254Y-31639233D01*
X28655615Y-31570856D01*
X28704665Y-31521097D01*
X28764871Y-31505500D01*
X37148821Y-31505500D01*
X37215860Y-31525185D01*
G37*
G04 #@! TD.AperFunction*
G04 #@! TA.AperFunction,NonConductor*
G36*
X41157132Y-51855185D02*
G01*
X41202887Y-51907989D01*
X41212831Y-51977147D01*
X41203649Y-52009310D01*
X41198335Y-52021422D01*
X41142323Y-52242608D01*
X41142321Y-52242616D01*
X41123481Y-52469994D01*
X41123481Y-52470005D01*
X41142321Y-52697383D01*
X41142323Y-52697395D01*
X41175683Y-52829129D01*
X41173058Y-52898949D01*
X41143158Y-52947250D01*
X40292228Y-53798181D01*
X40230905Y-53831666D01*
X40204547Y-53834500D01*
X28114659Y-53834500D01*
X28047620Y-53814815D01*
X28001865Y-53762011D01*
X27991921Y-53692853D01*
X28020946Y-53629297D01*
X28038497Y-53612646D01*
X28200677Y-53486417D01*
X28355213Y-53318547D01*
X28480010Y-53127530D01*
X28571664Y-52918578D01*
X28627677Y-52697391D01*
X28646519Y-52470000D01*
X28641235Y-52406234D01*
X28627678Y-52242616D01*
X28627677Y-52242613D01*
X28627677Y-52242609D01*
X28571664Y-52021422D01*
X28566350Y-52009309D01*
X28557448Y-51940009D01*
X28587426Y-51876897D01*
X28646765Y-51840011D01*
X28679907Y-51835500D01*
X41090093Y-51835500D01*
X41157132Y-51855185D01*
G37*
G04 #@! TD.AperFunction*
M02*
