G04 #@! TF.GenerationSoftware,KiCad,Pcbnew,(6.0.6)*
G04 #@! TF.CreationDate,2023-06-16T03:16:24+08:00*
G04 #@! TF.ProjectId,handwire microboard,68616e64-7769-4726-9520-6d6963726f62,rev?*
G04 #@! TF.SameCoordinates,Original*
G04 #@! TF.FileFunction,Copper,L2,Bot*
G04 #@! TF.FilePolarity,Positive*
%FSLAX46Y46*%
G04 Gerber Fmt 4.6, Leading zero omitted, Abs format (unit mm)*
G04 Created by KiCad (PCBNEW (6.0.6)) date 2023-06-16 03:16:24*
%MOMM*%
%LPD*%
G01*
G04 APERTURE LIST*
G04 Aperture macros list*
%AMOutline4P*
0 Free polygon, 4 corners , with rotation*
0 The origin of the aperture is its center*
0 number of corners: always 4*
0 $1 to $8 corner X, Y*
0 $9 Rotation angle, in degrees counterclockwise*
0 create outline with 4 corners*
4,1,4,$1,$2,$3,$4,$5,$6,$7,$8,$1,$2,$9*%
G04 Aperture macros list end*
G04 #@! TA.AperFunction,ComponentPad*
%ADD10O,2.000000X1.600000*%
G04 #@! TD*
G04 #@! TA.AperFunction,ComponentPad*
%ADD11O,1.600000X2.000000*%
G04 #@! TD*
G04 #@! TA.AperFunction,ComponentPad*
%ADD12R,1.700000X1.700000*%
G04 #@! TD*
G04 #@! TA.AperFunction,ComponentPad*
%ADD13O,1.700000X1.700000*%
G04 #@! TD*
G04 #@! TA.AperFunction,ComponentPad*
%ADD14C,2.000000*%
G04 #@! TD*
G04 #@! TA.AperFunction,ComponentPad*
%ADD15C,1.752600*%
G04 #@! TD*
G04 #@! TA.AperFunction,ComponentPad*
%ADD16Outline4P,-0.876300X-0.876300X0.876300X-0.876300X0.876300X0.876300X-0.876300X0.876300X270.000000*%
G04 #@! TD*
G04 #@! TA.AperFunction,ComponentPad*
%ADD17R,1.752600X1.752600*%
G04 #@! TD*
G04 #@! TA.AperFunction,ViaPad*
%ADD18C,0.800000*%
G04 #@! TD*
G04 #@! TA.AperFunction,Conductor*
%ADD19C,0.250000*%
G04 #@! TD*
G04 APERTURE END LIST*
D10*
X156388948Y-113300500D03*
X157488948Y-117900500D03*
X161488948Y-117900500D03*
X164488948Y-117900500D03*
D11*
X163864948Y-86879500D03*
X168464948Y-85779500D03*
X168464948Y-81779500D03*
X168464948Y-78779500D03*
X136940948Y-86879500D03*
X141540948Y-85779500D03*
X141540948Y-81779500D03*
X141540948Y-78779500D03*
D10*
X149016948Y-117901500D03*
X147916948Y-113301500D03*
X143916948Y-113301500D03*
X140916948Y-113301500D03*
D12*
X141424948Y-91109500D03*
D13*
X141424948Y-93649500D03*
X141424948Y-96189500D03*
X141424948Y-98729500D03*
X141424948Y-101269500D03*
X141424948Y-103809500D03*
X141424948Y-106349500D03*
D12*
X137208948Y-93629500D03*
D13*
X137208948Y-96169500D03*
X137208948Y-98709500D03*
X137208948Y-101249500D03*
X137208948Y-103789500D03*
X137208948Y-106329500D03*
D12*
X168196948Y-93629500D03*
D13*
X168196948Y-96169500D03*
X168196948Y-98709500D03*
X168196948Y-101249500D03*
X168196948Y-103789500D03*
X168196948Y-106329500D03*
D12*
X164157948Y-91109500D03*
D13*
X164157948Y-93649500D03*
X164157948Y-96189500D03*
X164157948Y-98729500D03*
X164157948Y-101269500D03*
X164157948Y-103809500D03*
X164157948Y-106349500D03*
D14*
X149452948Y-120970500D03*
X155952948Y-120970500D03*
X149452948Y-125470500D03*
X155952948Y-125470500D03*
D12*
X145082948Y-110266500D03*
D13*
X147622948Y-110266500D03*
X150162948Y-110266500D03*
X152702948Y-110266500D03*
X155242948Y-110266500D03*
X157782948Y-110266500D03*
X160322948Y-110266500D03*
X162862948Y-110266500D03*
D15*
X145082948Y-78897500D03*
X145082948Y-81437500D03*
D16*
X145082948Y-83977500D03*
X145082948Y-86517500D03*
D15*
X145082948Y-89057500D03*
X145082948Y-91597500D03*
X145082948Y-94137500D03*
X145082948Y-96677500D03*
X145082948Y-99217500D03*
X145082948Y-101757500D03*
X145082948Y-104297500D03*
X145082948Y-106837500D03*
X160322948Y-106837500D03*
X160322948Y-104297500D03*
X160322948Y-101757500D03*
X160322948Y-99217500D03*
X160322948Y-96677500D03*
X160322948Y-94137500D03*
X160322948Y-91597500D03*
X160322948Y-89057500D03*
D17*
X160322948Y-86517500D03*
D15*
X160322948Y-83977500D03*
D16*
X160322948Y-81437500D03*
D15*
X160322948Y-78897500D03*
X147622948Y-106837500D03*
X150162948Y-106837500D03*
X152702948Y-106837500D03*
X155242948Y-106837500D03*
X157782948Y-106837500D03*
D18*
X152806400Y-115214400D03*
X158290948Y-92075000D03*
X158290948Y-94683000D03*
X158290948Y-97155000D03*
X158290948Y-99695000D03*
X158290948Y-102265500D03*
X158294549Y-104420899D03*
D19*
X153974800Y-123492352D02*
X155952948Y-125470500D01*
X153974800Y-90325648D02*
X153974800Y-123492352D01*
X160322948Y-83977500D02*
X153974800Y-90325648D01*
X151434800Y-87789352D02*
X145082948Y-81437500D01*
X151434800Y-113842800D02*
X151434800Y-87789352D01*
X152806400Y-115214400D02*
X151434800Y-113842800D01*
X143431948Y-90708500D02*
X145082948Y-89057500D01*
X143431948Y-108488500D02*
X145082948Y-110139500D01*
X145082948Y-110139500D02*
X145082948Y-110266500D01*
X143431948Y-108488500D02*
X143431948Y-90708500D01*
X147622948Y-106837500D02*
X147622948Y-110266500D01*
X150162948Y-106837500D02*
X150162948Y-110266500D01*
X152702948Y-106837500D02*
X152702948Y-110266500D01*
X155242948Y-106837500D02*
X155242948Y-110266500D01*
X157782948Y-106837500D02*
X157782948Y-110266500D01*
X159052948Y-106203896D02*
X159052948Y-108996500D01*
X160322948Y-89057500D02*
X159083673Y-89057500D01*
X157274948Y-104425896D02*
X159052948Y-106203896D01*
X157274948Y-90866225D02*
X157274948Y-104425896D01*
X159083673Y-89057500D02*
X157274948Y-90866225D01*
X159052948Y-108996500D02*
X160322948Y-110266500D01*
X162862948Y-110266500D02*
X162862948Y-94137500D01*
X160322948Y-91597500D02*
X162862948Y-94137500D01*
X158290948Y-92105500D02*
X160322948Y-94137500D01*
X158290948Y-92075000D02*
X158290948Y-92105500D01*
X158328448Y-94683000D02*
X160322948Y-96677500D01*
X158290948Y-94683000D02*
X158328448Y-94683000D01*
X158290948Y-97185500D02*
X160322948Y-99217500D01*
X158290948Y-97155000D02*
X158290948Y-97185500D01*
X158290948Y-99725500D02*
X160322948Y-101757500D01*
X158290948Y-99695000D02*
X158290948Y-99725500D01*
X158290948Y-102265500D02*
X160322948Y-104297500D01*
X160322948Y-106449298D02*
X160322948Y-106837500D01*
X158294549Y-104420899D02*
X160322948Y-106449298D01*
X146352948Y-111346500D02*
X146352948Y-106202500D01*
X145082948Y-83977500D02*
X145082948Y-86517500D01*
X143916948Y-115434500D02*
X143916948Y-113301500D01*
X149452948Y-120970500D02*
X143916948Y-115434500D01*
X148442948Y-89877500D02*
X145082948Y-86517500D01*
X144397948Y-113301500D02*
X146352948Y-111346500D01*
X146352948Y-106202500D02*
X148442948Y-104112500D01*
X148442948Y-104112500D02*
X148442948Y-89877500D01*
X143916948Y-113301500D02*
X144397948Y-113301500D01*
X160322948Y-86517500D02*
X156512948Y-90327500D01*
X156512948Y-113176500D02*
X156388948Y-113300500D01*
X147916948Y-116801500D02*
X149016948Y-117901500D01*
X156388948Y-116800500D02*
X157488948Y-117900500D01*
X156388948Y-113300500D02*
X156388948Y-116800500D01*
X156512948Y-90327500D02*
X156512948Y-113176500D01*
X147916948Y-113301500D02*
X147916948Y-116801500D01*
M02*
