G04 #@! TF.GenerationSoftware,KiCad,Pcbnew,(6.0.6)*
G04 #@! TF.CreationDate,2023-06-14T22:57:07+08:00*
G04 #@! TF.ProjectId,handwire microboard,68616e64-7769-4726-9520-6d6963726f62,rev?*
G04 #@! TF.SameCoordinates,Original*
G04 #@! TF.FileFunction,Legend,Bot*
G04 #@! TF.FilePolarity,Positive*
%FSLAX46Y46*%
G04 Gerber Fmt 4.6, Leading zero omitted, Abs format (unit mm)*
G04 Created by KiCad (PCBNEW (6.0.6)) date 2023-06-14 22:57:07*
%MOMM*%
%LPD*%
G01*
G04 APERTURE LIST*
G04 Aperture macros list*
%AMRoundRect*
0 Rectangle with rounded corners*
0 $1 Rounding radius*
0 $2 $3 $4 $5 $6 $7 $8 $9 X,Y pos of 4 corners*
0 Add a 4 corners polygon primitive as box body*
4,1,4,$2,$3,$4,$5,$6,$7,$8,$9,$2,$3,0*
0 Add four circle primitives for the rounded corners*
1,1,$1+$1,$2,$3*
1,1,$1+$1,$4,$5*
1,1,$1+$1,$6,$7*
1,1,$1+$1,$8,$9*
0 Add four rect primitives between the rounded corners*
20,1,$1+$1,$2,$3,$4,$5,0*
20,1,$1+$1,$4,$5,$6,$7,0*
20,1,$1+$1,$6,$7,$8,$9,0*
20,1,$1+$1,$8,$9,$2,$3,0*%
G04 Aperture macros list end*
%ADD10C,1.752600*%
%ADD11RoundRect,0.438150X-0.619638X0.000000X0.000000X-0.619638X0.619638X0.000000X0.000000X0.619638X0*%
%ADD12R,1.752600X1.752600*%
%ADD13C,0.800000*%
%ADD14O,2.000000X1.600000*%
%ADD15C,2.200000*%
%ADD16O,1.600000X2.000000*%
%ADD17R,1.700000X1.700000*%
%ADD18O,1.700000X1.700000*%
%ADD19C,2.000000*%
G04 APERTURE END LIST*
D10*
X74930000Y-46355000D03*
X74930000Y-48895000D03*
D11*
X74930000Y-51435000D03*
X74930000Y-53975000D03*
D10*
X74930000Y-56515000D03*
X74930000Y-59055000D03*
X74930000Y-61595000D03*
X74930000Y-64135000D03*
X74930000Y-66675000D03*
X74930000Y-69215000D03*
X74930000Y-71755000D03*
X74930000Y-74295000D03*
X90170000Y-74295000D03*
X90170000Y-71755000D03*
X90170000Y-69215000D03*
X90170000Y-66675000D03*
X90170000Y-64135000D03*
X90170000Y-61595000D03*
X90170000Y-59055000D03*
X90170000Y-56515000D03*
D12*
X90170000Y-53975000D03*
D10*
X90170000Y-51435000D03*
D11*
X90170000Y-48895000D03*
D10*
X90170000Y-46355000D03*
X77470000Y-74295000D03*
X80010000Y-74295000D03*
X82550000Y-74295000D03*
X85090000Y-74295000D03*
X87630000Y-74295000D03*
%LPC*%
D13*
X96222500Y-80010000D03*
X89222500Y-80010000D03*
D14*
X86522500Y-77710000D03*
X87622500Y-82310000D03*
X91622500Y-82310000D03*
X94622500Y-82310000D03*
D15*
X68580000Y-104775000D03*
X96520000Y-58928000D03*
D13*
X96520000Y-51112500D03*
X96520000Y-44112500D03*
D16*
X94220000Y-53812500D03*
X98820000Y-52712500D03*
X98820000Y-48712500D03*
X98820000Y-45712500D03*
D13*
X68580000Y-44112500D03*
X68580000Y-51112500D03*
D16*
X66280000Y-53812500D03*
X70880000Y-52712500D03*
X70880000Y-48712500D03*
X70880000Y-45712500D03*
D13*
X68877500Y-80010000D03*
X75877500Y-80010000D03*
D14*
X78577500Y-82310000D03*
X77477500Y-77710000D03*
X73477500Y-77710000D03*
X70477500Y-77710000D03*
D15*
X96520000Y-104775000D03*
X68580000Y-58928000D03*
D17*
X74950000Y-92050000D03*
D18*
X77490000Y-92050000D03*
X80030000Y-92050000D03*
X82570000Y-92050000D03*
X85110000Y-92050000D03*
X87650000Y-92050000D03*
X90190000Y-92050000D03*
D17*
X76200000Y-86360000D03*
D18*
X78740000Y-86360000D03*
X81280000Y-86360000D03*
X83820000Y-86360000D03*
X86360000Y-86360000D03*
X88900000Y-86360000D03*
D19*
X79300000Y-101890000D03*
X85800000Y-101890000D03*
X79300000Y-106390000D03*
X85800000Y-106390000D03*
D17*
X73675000Y-97790000D03*
D18*
X76215000Y-97790000D03*
X78755000Y-97790000D03*
X81295000Y-97790000D03*
X83835000Y-97790000D03*
X86375000Y-97790000D03*
X88915000Y-97790000D03*
X91455000Y-97790000D03*
D10*
X74930000Y-46355000D03*
X74930000Y-48895000D03*
D11*
X74930000Y-51435000D03*
X74930000Y-53975000D03*
D10*
X74930000Y-56515000D03*
X74930000Y-59055000D03*
X74930000Y-61595000D03*
X74930000Y-64135000D03*
X74930000Y-66675000D03*
X74930000Y-69215000D03*
X74930000Y-71755000D03*
X74930000Y-74295000D03*
X90170000Y-74295000D03*
X90170000Y-71755000D03*
X90170000Y-69215000D03*
X90170000Y-66675000D03*
X90170000Y-64135000D03*
X90170000Y-61595000D03*
X90170000Y-59055000D03*
X90170000Y-56515000D03*
D12*
X90170000Y-53975000D03*
D10*
X90170000Y-51435000D03*
D11*
X90170000Y-48895000D03*
D10*
X90170000Y-46355000D03*
X77470000Y-74295000D03*
X80010000Y-74295000D03*
X82550000Y-74295000D03*
X85090000Y-74295000D03*
X87630000Y-74295000D03*
M02*
