%TF.GenerationSoftware,KiCad,Pcbnew,7.0.5*%
%TF.CreationDate,2023-08-28T02:39:00+08:00*%
%TF.ProjectId,handwire microboard,68616e64-7769-4726-9520-6d6963726f62,rev?*%
%TF.SameCoordinates,Original*%
%TF.FileFunction,Drillmap*%
%TF.FilePolarity,Positive*%
%FSLAX45Y45*%
G04 Gerber Fmt 4.5, Leading zero omitted, Abs format (unit mm)*
G04 Created by KiCad (PCBNEW 7.0.5) date 2023-08-28 02:39:00*
%MOMM*%
%LPD*%
G01*
G04 APERTURE LIST*
%ADD10C,0.100000*%
%ADD11C,0.200000*%
%ADD12C,0.080000*%
%ADD13C,0.350000*%
G04 APERTURE END LIST*
D10*
X1861500Y-1796350D02*
G75*
G03*
X1785300Y-1872550I0J-76200D01*
G01*
X5193700Y-1872550D02*
X5193700Y-6452000D01*
X1861500Y-1796350D02*
X5117500Y-1796350D01*
X5117500Y-6527380D02*
G75*
G03*
X5193700Y-6452000I410J75790D01*
G01*
X1861681Y-6527381D02*
X5117500Y-6527381D01*
X1785300Y-1872550D02*
X1785300Y-6451000D01*
X1785298Y-6451000D02*
G75*
G03*
X1861681Y-6527381I76382J0D01*
G01*
X5193700Y-1872550D02*
G75*
G03*
X5117500Y-1796350I-76200J0D01*
G01*
D11*
D12*
X2145500Y-2856350D02*
X2225500Y-2936350D01*
X2225500Y-2856350D02*
X2145500Y-2936350D01*
X2845500Y-6087000D02*
X2925500Y-6167000D01*
X2925500Y-6087000D02*
X2845500Y-6167000D01*
X4053500Y-6087000D02*
X4133500Y-6167000D01*
X4133500Y-6087000D02*
X4053500Y-6167000D01*
X4753500Y-2856350D02*
X4833500Y-2936350D01*
X4833500Y-2856350D02*
X4753500Y-2936350D01*
D13*
X2360500Y-2196350D02*
G75*
G03*
X2360500Y-2196350I-175000J0D01*
G01*
X2360500Y-6127000D02*
G75*
G03*
X2360500Y-6127000I-175000J0D01*
G01*
X4968500Y-2196350D02*
G75*
G03*
X4968500Y-2196350I-175000J0D01*
G01*
X4968500Y-6127000D02*
G75*
G03*
X4968500Y-6127000I-175000J0D01*
G01*
D11*
X2041077Y-6843865D02*
X2041077Y-6643865D01*
X2041077Y-6643865D02*
X2088696Y-6643865D01*
X2088696Y-6643865D02*
X2117267Y-6653389D01*
X2117267Y-6653389D02*
X2136315Y-6672437D01*
X2136315Y-6672437D02*
X2145839Y-6691484D01*
X2145839Y-6691484D02*
X2155363Y-6729579D01*
X2155363Y-6729579D02*
X2155363Y-6758151D01*
X2155363Y-6758151D02*
X2145839Y-6796246D01*
X2145839Y-6796246D02*
X2136315Y-6815294D01*
X2136315Y-6815294D02*
X2117267Y-6834341D01*
X2117267Y-6834341D02*
X2088696Y-6843865D01*
X2088696Y-6843865D02*
X2041077Y-6843865D01*
X2241077Y-6843865D02*
X2241077Y-6710532D01*
X2241077Y-6748627D02*
X2250601Y-6729579D01*
X2250601Y-6729579D02*
X2260124Y-6720056D01*
X2260124Y-6720056D02*
X2279172Y-6710532D01*
X2279172Y-6710532D02*
X2298220Y-6710532D01*
X2364886Y-6843865D02*
X2364886Y-6710532D01*
X2364886Y-6643865D02*
X2355363Y-6653389D01*
X2355363Y-6653389D02*
X2364886Y-6662913D01*
X2364886Y-6662913D02*
X2374410Y-6653389D01*
X2374410Y-6653389D02*
X2364886Y-6643865D01*
X2364886Y-6643865D02*
X2364886Y-6662913D01*
X2488696Y-6843865D02*
X2469648Y-6834341D01*
X2469648Y-6834341D02*
X2460124Y-6815294D01*
X2460124Y-6815294D02*
X2460124Y-6643865D01*
X2593458Y-6843865D02*
X2574410Y-6834341D01*
X2574410Y-6834341D02*
X2564886Y-6815294D01*
X2564886Y-6815294D02*
X2564886Y-6643865D01*
X2822029Y-6843865D02*
X2822029Y-6643865D01*
X2822029Y-6643865D02*
X2888696Y-6786722D01*
X2888696Y-6786722D02*
X2955362Y-6643865D01*
X2955362Y-6643865D02*
X2955362Y-6843865D01*
X3136315Y-6843865D02*
X3136315Y-6739103D01*
X3136315Y-6739103D02*
X3126791Y-6720056D01*
X3126791Y-6720056D02*
X3107743Y-6710532D01*
X3107743Y-6710532D02*
X3069648Y-6710532D01*
X3069648Y-6710532D02*
X3050601Y-6720056D01*
X3136315Y-6834341D02*
X3117267Y-6843865D01*
X3117267Y-6843865D02*
X3069648Y-6843865D01*
X3069648Y-6843865D02*
X3050601Y-6834341D01*
X3050601Y-6834341D02*
X3041077Y-6815294D01*
X3041077Y-6815294D02*
X3041077Y-6796246D01*
X3041077Y-6796246D02*
X3050601Y-6777199D01*
X3050601Y-6777199D02*
X3069648Y-6767675D01*
X3069648Y-6767675D02*
X3117267Y-6767675D01*
X3117267Y-6767675D02*
X3136315Y-6758151D01*
X3231553Y-6710532D02*
X3231553Y-6910532D01*
X3231553Y-6720056D02*
X3250601Y-6710532D01*
X3250601Y-6710532D02*
X3288696Y-6710532D01*
X3288696Y-6710532D02*
X3307743Y-6720056D01*
X3307743Y-6720056D02*
X3317267Y-6729579D01*
X3317267Y-6729579D02*
X3326791Y-6748627D01*
X3326791Y-6748627D02*
X3326791Y-6805770D01*
X3326791Y-6805770D02*
X3317267Y-6824818D01*
X3317267Y-6824818D02*
X3307743Y-6834341D01*
X3307743Y-6834341D02*
X3288696Y-6843865D01*
X3288696Y-6843865D02*
X3250601Y-6843865D01*
X3250601Y-6843865D02*
X3231553Y-6834341D01*
X3412505Y-6824818D02*
X3422029Y-6834341D01*
X3422029Y-6834341D02*
X3412505Y-6843865D01*
X3412505Y-6843865D02*
X3402982Y-6834341D01*
X3402982Y-6834341D02*
X3412505Y-6824818D01*
X3412505Y-6824818D02*
X3412505Y-6843865D01*
X3412505Y-6720056D02*
X3422029Y-6729579D01*
X3422029Y-6729579D02*
X3412505Y-6739103D01*
X3412505Y-6739103D02*
X3402982Y-6729579D01*
X3402982Y-6729579D02*
X3412505Y-6720056D01*
X3412505Y-6720056D02*
X3412505Y-6739103D01*
D12*
X1700300Y-7132381D02*
X1780300Y-7212381D01*
X1780300Y-7132381D02*
X1700300Y-7212381D01*
D11*
X2079172Y-7063865D02*
X2098220Y-7063865D01*
X2098220Y-7063865D02*
X2117267Y-7073389D01*
X2117267Y-7073389D02*
X2126791Y-7082913D01*
X2126791Y-7082913D02*
X2136315Y-7101960D01*
X2136315Y-7101960D02*
X2145839Y-7140056D01*
X2145839Y-7140056D02*
X2145839Y-7187675D01*
X2145839Y-7187675D02*
X2136315Y-7225770D01*
X2136315Y-7225770D02*
X2126791Y-7244818D01*
X2126791Y-7244818D02*
X2117267Y-7254341D01*
X2117267Y-7254341D02*
X2098220Y-7263865D01*
X2098220Y-7263865D02*
X2079172Y-7263865D01*
X2079172Y-7263865D02*
X2060124Y-7254341D01*
X2060124Y-7254341D02*
X2050601Y-7244818D01*
X2050601Y-7244818D02*
X2041077Y-7225770D01*
X2041077Y-7225770D02*
X2031553Y-7187675D01*
X2031553Y-7187675D02*
X2031553Y-7140056D01*
X2031553Y-7140056D02*
X2041077Y-7101960D01*
X2041077Y-7101960D02*
X2050601Y-7082913D01*
X2050601Y-7082913D02*
X2060124Y-7073389D01*
X2060124Y-7073389D02*
X2079172Y-7063865D01*
X2231553Y-7244818D02*
X2241077Y-7254341D01*
X2241077Y-7254341D02*
X2231553Y-7263865D01*
X2231553Y-7263865D02*
X2222029Y-7254341D01*
X2222029Y-7254341D02*
X2231553Y-7244818D01*
X2231553Y-7244818D02*
X2231553Y-7263865D01*
X2355363Y-7149579D02*
X2336315Y-7140056D01*
X2336315Y-7140056D02*
X2326791Y-7130532D01*
X2326791Y-7130532D02*
X2317267Y-7111484D01*
X2317267Y-7111484D02*
X2317267Y-7101960D01*
X2317267Y-7101960D02*
X2326791Y-7082913D01*
X2326791Y-7082913D02*
X2336315Y-7073389D01*
X2336315Y-7073389D02*
X2355363Y-7063865D01*
X2355363Y-7063865D02*
X2393458Y-7063865D01*
X2393458Y-7063865D02*
X2412505Y-7073389D01*
X2412505Y-7073389D02*
X2422029Y-7082913D01*
X2422029Y-7082913D02*
X2431553Y-7101960D01*
X2431553Y-7101960D02*
X2431553Y-7111484D01*
X2431553Y-7111484D02*
X2422029Y-7130532D01*
X2422029Y-7130532D02*
X2412505Y-7140056D01*
X2412505Y-7140056D02*
X2393458Y-7149579D01*
X2393458Y-7149579D02*
X2355363Y-7149579D01*
X2355363Y-7149579D02*
X2336315Y-7159103D01*
X2336315Y-7159103D02*
X2326791Y-7168627D01*
X2326791Y-7168627D02*
X2317267Y-7187675D01*
X2317267Y-7187675D02*
X2317267Y-7225770D01*
X2317267Y-7225770D02*
X2326791Y-7244818D01*
X2326791Y-7244818D02*
X2336315Y-7254341D01*
X2336315Y-7254341D02*
X2355363Y-7263865D01*
X2355363Y-7263865D02*
X2393458Y-7263865D01*
X2393458Y-7263865D02*
X2412505Y-7254341D01*
X2412505Y-7254341D02*
X2422029Y-7244818D01*
X2422029Y-7244818D02*
X2431553Y-7225770D01*
X2431553Y-7225770D02*
X2431553Y-7187675D01*
X2431553Y-7187675D02*
X2422029Y-7168627D01*
X2422029Y-7168627D02*
X2412505Y-7159103D01*
X2412505Y-7159103D02*
X2393458Y-7149579D01*
X2555363Y-7063865D02*
X2574410Y-7063865D01*
X2574410Y-7063865D02*
X2593458Y-7073389D01*
X2593458Y-7073389D02*
X2602982Y-7082913D01*
X2602982Y-7082913D02*
X2612505Y-7101960D01*
X2612505Y-7101960D02*
X2622029Y-7140056D01*
X2622029Y-7140056D02*
X2622029Y-7187675D01*
X2622029Y-7187675D02*
X2612505Y-7225770D01*
X2612505Y-7225770D02*
X2602982Y-7244818D01*
X2602982Y-7244818D02*
X2593458Y-7254341D01*
X2593458Y-7254341D02*
X2574410Y-7263865D01*
X2574410Y-7263865D02*
X2555363Y-7263865D01*
X2555363Y-7263865D02*
X2536315Y-7254341D01*
X2536315Y-7254341D02*
X2526791Y-7244818D01*
X2526791Y-7244818D02*
X2517267Y-7225770D01*
X2517267Y-7225770D02*
X2507744Y-7187675D01*
X2507744Y-7187675D02*
X2507744Y-7140056D01*
X2507744Y-7140056D02*
X2517267Y-7101960D01*
X2517267Y-7101960D02*
X2526791Y-7082913D01*
X2526791Y-7082913D02*
X2536315Y-7073389D01*
X2536315Y-7073389D02*
X2555363Y-7063865D01*
X2745839Y-7063865D02*
X2764886Y-7063865D01*
X2764886Y-7063865D02*
X2783934Y-7073389D01*
X2783934Y-7073389D02*
X2793458Y-7082913D01*
X2793458Y-7082913D02*
X2802982Y-7101960D01*
X2802982Y-7101960D02*
X2812505Y-7140056D01*
X2812505Y-7140056D02*
X2812505Y-7187675D01*
X2812505Y-7187675D02*
X2802982Y-7225770D01*
X2802982Y-7225770D02*
X2793458Y-7244818D01*
X2793458Y-7244818D02*
X2783934Y-7254341D01*
X2783934Y-7254341D02*
X2764886Y-7263865D01*
X2764886Y-7263865D02*
X2745839Y-7263865D01*
X2745839Y-7263865D02*
X2726791Y-7254341D01*
X2726791Y-7254341D02*
X2717267Y-7244818D01*
X2717267Y-7244818D02*
X2707744Y-7225770D01*
X2707744Y-7225770D02*
X2698220Y-7187675D01*
X2698220Y-7187675D02*
X2698220Y-7140056D01*
X2698220Y-7140056D02*
X2707744Y-7101960D01*
X2707744Y-7101960D02*
X2717267Y-7082913D01*
X2717267Y-7082913D02*
X2726791Y-7073389D01*
X2726791Y-7073389D02*
X2745839Y-7063865D01*
X2898220Y-7263865D02*
X2898220Y-7130532D01*
X2898220Y-7149579D02*
X2907743Y-7140056D01*
X2907743Y-7140056D02*
X2926791Y-7130532D01*
X2926791Y-7130532D02*
X2955363Y-7130532D01*
X2955363Y-7130532D02*
X2974410Y-7140056D01*
X2974410Y-7140056D02*
X2983934Y-7159103D01*
X2983934Y-7159103D02*
X2983934Y-7263865D01*
X2983934Y-7159103D02*
X2993458Y-7140056D01*
X2993458Y-7140056D02*
X3012505Y-7130532D01*
X3012505Y-7130532D02*
X3041077Y-7130532D01*
X3041077Y-7130532D02*
X3060124Y-7140056D01*
X3060124Y-7140056D02*
X3069648Y-7159103D01*
X3069648Y-7159103D02*
X3069648Y-7263865D01*
X3164886Y-7263865D02*
X3164886Y-7130532D01*
X3164886Y-7149579D02*
X3174410Y-7140056D01*
X3174410Y-7140056D02*
X3193458Y-7130532D01*
X3193458Y-7130532D02*
X3222029Y-7130532D01*
X3222029Y-7130532D02*
X3241077Y-7140056D01*
X3241077Y-7140056D02*
X3250601Y-7159103D01*
X3250601Y-7159103D02*
X3250601Y-7263865D01*
X3250601Y-7159103D02*
X3260124Y-7140056D01*
X3260124Y-7140056D02*
X3279172Y-7130532D01*
X3279172Y-7130532D02*
X3307743Y-7130532D01*
X3307743Y-7130532D02*
X3326791Y-7140056D01*
X3326791Y-7140056D02*
X3336315Y-7159103D01*
X3336315Y-7159103D02*
X3336315Y-7263865D01*
X3726791Y-7054341D02*
X3555363Y-7311484D01*
X3983934Y-7063865D02*
X4002982Y-7063865D01*
X4002982Y-7063865D02*
X4022029Y-7073389D01*
X4022029Y-7073389D02*
X4031553Y-7082913D01*
X4031553Y-7082913D02*
X4041077Y-7101960D01*
X4041077Y-7101960D02*
X4050601Y-7140056D01*
X4050601Y-7140056D02*
X4050601Y-7187675D01*
X4050601Y-7187675D02*
X4041077Y-7225770D01*
X4041077Y-7225770D02*
X4031553Y-7244818D01*
X4031553Y-7244818D02*
X4022029Y-7254341D01*
X4022029Y-7254341D02*
X4002982Y-7263865D01*
X4002982Y-7263865D02*
X3983934Y-7263865D01*
X3983934Y-7263865D02*
X3964886Y-7254341D01*
X3964886Y-7254341D02*
X3955363Y-7244818D01*
X3955363Y-7244818D02*
X3945839Y-7225770D01*
X3945839Y-7225770D02*
X3936315Y-7187675D01*
X3936315Y-7187675D02*
X3936315Y-7140056D01*
X3936315Y-7140056D02*
X3945839Y-7101960D01*
X3945839Y-7101960D02*
X3955363Y-7082913D01*
X3955363Y-7082913D02*
X3964886Y-7073389D01*
X3964886Y-7073389D02*
X3983934Y-7063865D01*
X4136315Y-7244818D02*
X4145839Y-7254341D01*
X4145839Y-7254341D02*
X4136315Y-7263865D01*
X4136315Y-7263865D02*
X4126791Y-7254341D01*
X4126791Y-7254341D02*
X4136315Y-7244818D01*
X4136315Y-7244818D02*
X4136315Y-7263865D01*
X4269648Y-7063865D02*
X4288696Y-7063865D01*
X4288696Y-7063865D02*
X4307744Y-7073389D01*
X4307744Y-7073389D02*
X4317268Y-7082913D01*
X4317268Y-7082913D02*
X4326791Y-7101960D01*
X4326791Y-7101960D02*
X4336315Y-7140056D01*
X4336315Y-7140056D02*
X4336315Y-7187675D01*
X4336315Y-7187675D02*
X4326791Y-7225770D01*
X4326791Y-7225770D02*
X4317268Y-7244818D01*
X4317268Y-7244818D02*
X4307744Y-7254341D01*
X4307744Y-7254341D02*
X4288696Y-7263865D01*
X4288696Y-7263865D02*
X4269648Y-7263865D01*
X4269648Y-7263865D02*
X4250601Y-7254341D01*
X4250601Y-7254341D02*
X4241077Y-7244818D01*
X4241077Y-7244818D02*
X4231553Y-7225770D01*
X4231553Y-7225770D02*
X4222029Y-7187675D01*
X4222029Y-7187675D02*
X4222029Y-7140056D01*
X4222029Y-7140056D02*
X4231553Y-7101960D01*
X4231553Y-7101960D02*
X4241077Y-7082913D01*
X4241077Y-7082913D02*
X4250601Y-7073389D01*
X4250601Y-7073389D02*
X4269648Y-7063865D01*
X4402982Y-7063865D02*
X4526791Y-7063865D01*
X4526791Y-7063865D02*
X4460125Y-7140056D01*
X4460125Y-7140056D02*
X4488696Y-7140056D01*
X4488696Y-7140056D02*
X4507744Y-7149579D01*
X4507744Y-7149579D02*
X4517268Y-7159103D01*
X4517268Y-7159103D02*
X4526791Y-7178151D01*
X4526791Y-7178151D02*
X4526791Y-7225770D01*
X4526791Y-7225770D02*
X4517268Y-7244818D01*
X4517268Y-7244818D02*
X4507744Y-7254341D01*
X4507744Y-7254341D02*
X4488696Y-7263865D01*
X4488696Y-7263865D02*
X4431553Y-7263865D01*
X4431553Y-7263865D02*
X4412506Y-7254341D01*
X4412506Y-7254341D02*
X4402982Y-7244818D01*
X4717268Y-7263865D02*
X4602982Y-7263865D01*
X4660125Y-7263865D02*
X4660125Y-7063865D01*
X4660125Y-7063865D02*
X4641077Y-7092437D01*
X4641077Y-7092437D02*
X4622029Y-7111484D01*
X4622029Y-7111484D02*
X4602982Y-7121008D01*
X4898220Y-7063865D02*
X4802982Y-7063865D01*
X4802982Y-7063865D02*
X4793458Y-7159103D01*
X4793458Y-7159103D02*
X4802982Y-7149579D01*
X4802982Y-7149579D02*
X4822029Y-7140056D01*
X4822029Y-7140056D02*
X4869649Y-7140056D01*
X4869649Y-7140056D02*
X4888696Y-7149579D01*
X4888696Y-7149579D02*
X4898220Y-7159103D01*
X4898220Y-7159103D02*
X4907744Y-7178151D01*
X4907744Y-7178151D02*
X4907744Y-7225770D01*
X4907744Y-7225770D02*
X4898220Y-7244818D01*
X4898220Y-7244818D02*
X4888696Y-7254341D01*
X4888696Y-7254341D02*
X4869649Y-7263865D01*
X4869649Y-7263865D02*
X4822029Y-7263865D01*
X4822029Y-7263865D02*
X4802982Y-7254341D01*
X4802982Y-7254341D02*
X4793458Y-7244818D01*
X4983934Y-7063865D02*
X4983934Y-7101960D01*
X5060125Y-7063865D02*
X5060125Y-7101960D01*
X5355363Y-7340056D02*
X5345839Y-7330532D01*
X5345839Y-7330532D02*
X5326791Y-7301960D01*
X5326791Y-7301960D02*
X5317268Y-7282913D01*
X5317268Y-7282913D02*
X5307744Y-7254341D01*
X5307744Y-7254341D02*
X5298220Y-7206722D01*
X5298220Y-7206722D02*
X5298220Y-7168627D01*
X5298220Y-7168627D02*
X5307744Y-7121008D01*
X5307744Y-7121008D02*
X5317268Y-7092437D01*
X5317268Y-7092437D02*
X5326791Y-7073389D01*
X5326791Y-7073389D02*
X5345839Y-7044818D01*
X5345839Y-7044818D02*
X5355363Y-7035294D01*
X5517268Y-7130532D02*
X5517268Y-7263865D01*
X5469649Y-7054341D02*
X5422030Y-7197199D01*
X5422030Y-7197199D02*
X5545839Y-7197199D01*
X5774410Y-7263865D02*
X5774410Y-7063865D01*
X5860125Y-7263865D02*
X5860125Y-7159103D01*
X5860125Y-7159103D02*
X5850601Y-7140056D01*
X5850601Y-7140056D02*
X5831553Y-7130532D01*
X5831553Y-7130532D02*
X5802982Y-7130532D01*
X5802982Y-7130532D02*
X5783934Y-7140056D01*
X5783934Y-7140056D02*
X5774410Y-7149579D01*
X5983934Y-7263865D02*
X5964887Y-7254341D01*
X5964887Y-7254341D02*
X5955363Y-7244818D01*
X5955363Y-7244818D02*
X5945839Y-7225770D01*
X5945839Y-7225770D02*
X5945839Y-7168627D01*
X5945839Y-7168627D02*
X5955363Y-7149579D01*
X5955363Y-7149579D02*
X5964887Y-7140056D01*
X5964887Y-7140056D02*
X5983934Y-7130532D01*
X5983934Y-7130532D02*
X6012506Y-7130532D01*
X6012506Y-7130532D02*
X6031553Y-7140056D01*
X6031553Y-7140056D02*
X6041077Y-7149579D01*
X6041077Y-7149579D02*
X6050601Y-7168627D01*
X6050601Y-7168627D02*
X6050601Y-7225770D01*
X6050601Y-7225770D02*
X6041077Y-7244818D01*
X6041077Y-7244818D02*
X6031553Y-7254341D01*
X6031553Y-7254341D02*
X6012506Y-7263865D01*
X6012506Y-7263865D02*
X5983934Y-7263865D01*
X6164887Y-7263865D02*
X6145839Y-7254341D01*
X6145839Y-7254341D02*
X6136315Y-7235294D01*
X6136315Y-7235294D02*
X6136315Y-7063865D01*
X6317268Y-7254341D02*
X6298220Y-7263865D01*
X6298220Y-7263865D02*
X6260125Y-7263865D01*
X6260125Y-7263865D02*
X6241077Y-7254341D01*
X6241077Y-7254341D02*
X6231553Y-7235294D01*
X6231553Y-7235294D02*
X6231553Y-7159103D01*
X6231553Y-7159103D02*
X6241077Y-7140056D01*
X6241077Y-7140056D02*
X6260125Y-7130532D01*
X6260125Y-7130532D02*
X6298220Y-7130532D01*
X6298220Y-7130532D02*
X6317268Y-7140056D01*
X6317268Y-7140056D02*
X6326791Y-7159103D01*
X6326791Y-7159103D02*
X6326791Y-7178151D01*
X6326791Y-7178151D02*
X6231553Y-7197199D01*
X6402982Y-7254341D02*
X6422030Y-7263865D01*
X6422030Y-7263865D02*
X6460125Y-7263865D01*
X6460125Y-7263865D02*
X6479172Y-7254341D01*
X6479172Y-7254341D02*
X6488696Y-7235294D01*
X6488696Y-7235294D02*
X6488696Y-7225770D01*
X6488696Y-7225770D02*
X6479172Y-7206722D01*
X6479172Y-7206722D02*
X6460125Y-7197199D01*
X6460125Y-7197199D02*
X6431553Y-7197199D01*
X6431553Y-7197199D02*
X6412506Y-7187675D01*
X6412506Y-7187675D02*
X6402982Y-7168627D01*
X6402982Y-7168627D02*
X6402982Y-7159103D01*
X6402982Y-7159103D02*
X6412506Y-7140056D01*
X6412506Y-7140056D02*
X6431553Y-7130532D01*
X6431553Y-7130532D02*
X6460125Y-7130532D01*
X6460125Y-7130532D02*
X6479172Y-7140056D01*
X6555363Y-7340056D02*
X6564887Y-7330532D01*
X6564887Y-7330532D02*
X6583934Y-7301960D01*
X6583934Y-7301960D02*
X6593458Y-7282913D01*
X6593458Y-7282913D02*
X6602982Y-7254341D01*
X6602982Y-7254341D02*
X6612506Y-7206722D01*
X6612506Y-7206722D02*
X6612506Y-7168627D01*
X6612506Y-7168627D02*
X6602982Y-7121008D01*
X6602982Y-7121008D02*
X6593458Y-7092437D01*
X6593458Y-7092437D02*
X6583934Y-7073389D01*
X6583934Y-7073389D02*
X6564887Y-7044818D01*
X6564887Y-7044818D02*
X6555363Y-7035294D01*
X6917268Y-7340056D02*
X6907744Y-7330532D01*
X6907744Y-7330532D02*
X6888696Y-7301960D01*
X6888696Y-7301960D02*
X6879172Y-7282913D01*
X6879172Y-7282913D02*
X6869649Y-7254341D01*
X6869649Y-7254341D02*
X6860125Y-7206722D01*
X6860125Y-7206722D02*
X6860125Y-7168627D01*
X6860125Y-7168627D02*
X6869649Y-7121008D01*
X6869649Y-7121008D02*
X6879172Y-7092437D01*
X6879172Y-7092437D02*
X6888696Y-7073389D01*
X6888696Y-7073389D02*
X6907744Y-7044818D01*
X6907744Y-7044818D02*
X6917268Y-7035294D01*
X6993458Y-7130532D02*
X6993458Y-7263865D01*
X6993458Y-7149579D02*
X7002982Y-7140056D01*
X7002982Y-7140056D02*
X7022030Y-7130532D01*
X7022030Y-7130532D02*
X7050601Y-7130532D01*
X7050601Y-7130532D02*
X7069649Y-7140056D01*
X7069649Y-7140056D02*
X7079172Y-7159103D01*
X7079172Y-7159103D02*
X7079172Y-7263865D01*
X7202982Y-7263865D02*
X7183934Y-7254341D01*
X7183934Y-7254341D02*
X7174411Y-7244818D01*
X7174411Y-7244818D02*
X7164887Y-7225770D01*
X7164887Y-7225770D02*
X7164887Y-7168627D01*
X7164887Y-7168627D02*
X7174411Y-7149579D01*
X7174411Y-7149579D02*
X7183934Y-7140056D01*
X7183934Y-7140056D02*
X7202982Y-7130532D01*
X7202982Y-7130532D02*
X7231553Y-7130532D01*
X7231553Y-7130532D02*
X7250601Y-7140056D01*
X7250601Y-7140056D02*
X7260125Y-7149579D01*
X7260125Y-7149579D02*
X7269649Y-7168627D01*
X7269649Y-7168627D02*
X7269649Y-7225770D01*
X7269649Y-7225770D02*
X7260125Y-7244818D01*
X7260125Y-7244818D02*
X7250601Y-7254341D01*
X7250601Y-7254341D02*
X7231553Y-7263865D01*
X7231553Y-7263865D02*
X7202982Y-7263865D01*
X7326792Y-7130532D02*
X7402982Y-7130532D01*
X7355363Y-7063865D02*
X7355363Y-7235294D01*
X7355363Y-7235294D02*
X7364887Y-7254341D01*
X7364887Y-7254341D02*
X7383934Y-7263865D01*
X7383934Y-7263865D02*
X7402982Y-7263865D01*
X7622030Y-7130532D02*
X7622030Y-7330532D01*
X7622030Y-7140056D02*
X7641077Y-7130532D01*
X7641077Y-7130532D02*
X7679173Y-7130532D01*
X7679173Y-7130532D02*
X7698220Y-7140056D01*
X7698220Y-7140056D02*
X7707744Y-7149579D01*
X7707744Y-7149579D02*
X7717268Y-7168627D01*
X7717268Y-7168627D02*
X7717268Y-7225770D01*
X7717268Y-7225770D02*
X7707744Y-7244818D01*
X7707744Y-7244818D02*
X7698220Y-7254341D01*
X7698220Y-7254341D02*
X7679173Y-7263865D01*
X7679173Y-7263865D02*
X7641077Y-7263865D01*
X7641077Y-7263865D02*
X7622030Y-7254341D01*
X7831553Y-7263865D02*
X7812506Y-7254341D01*
X7812506Y-7254341D02*
X7802982Y-7235294D01*
X7802982Y-7235294D02*
X7802982Y-7063865D01*
X7993458Y-7263865D02*
X7993458Y-7159103D01*
X7993458Y-7159103D02*
X7983934Y-7140056D01*
X7983934Y-7140056D02*
X7964887Y-7130532D01*
X7964887Y-7130532D02*
X7926792Y-7130532D01*
X7926792Y-7130532D02*
X7907744Y-7140056D01*
X7993458Y-7254341D02*
X7974411Y-7263865D01*
X7974411Y-7263865D02*
X7926792Y-7263865D01*
X7926792Y-7263865D02*
X7907744Y-7254341D01*
X7907744Y-7254341D02*
X7898220Y-7235294D01*
X7898220Y-7235294D02*
X7898220Y-7216246D01*
X7898220Y-7216246D02*
X7907744Y-7197199D01*
X7907744Y-7197199D02*
X7926792Y-7187675D01*
X7926792Y-7187675D02*
X7974411Y-7187675D01*
X7974411Y-7187675D02*
X7993458Y-7178151D01*
X8060125Y-7130532D02*
X8136315Y-7130532D01*
X8088696Y-7063865D02*
X8088696Y-7235294D01*
X8088696Y-7235294D02*
X8098220Y-7254341D01*
X8098220Y-7254341D02*
X8117268Y-7263865D01*
X8117268Y-7263865D02*
X8136315Y-7263865D01*
X8279173Y-7254341D02*
X8260125Y-7263865D01*
X8260125Y-7263865D02*
X8222030Y-7263865D01*
X8222030Y-7263865D02*
X8202982Y-7254341D01*
X8202982Y-7254341D02*
X8193458Y-7235294D01*
X8193458Y-7235294D02*
X8193458Y-7159103D01*
X8193458Y-7159103D02*
X8202982Y-7140056D01*
X8202982Y-7140056D02*
X8222030Y-7130532D01*
X8222030Y-7130532D02*
X8260125Y-7130532D01*
X8260125Y-7130532D02*
X8279173Y-7140056D01*
X8279173Y-7140056D02*
X8288696Y-7159103D01*
X8288696Y-7159103D02*
X8288696Y-7178151D01*
X8288696Y-7178151D02*
X8193458Y-7197199D01*
X8460125Y-7263865D02*
X8460125Y-7063865D01*
X8460125Y-7254341D02*
X8441077Y-7263865D01*
X8441077Y-7263865D02*
X8402982Y-7263865D01*
X8402982Y-7263865D02*
X8383934Y-7254341D01*
X8383934Y-7254341D02*
X8374411Y-7244818D01*
X8374411Y-7244818D02*
X8364887Y-7225770D01*
X8364887Y-7225770D02*
X8364887Y-7168627D01*
X8364887Y-7168627D02*
X8374411Y-7149579D01*
X8374411Y-7149579D02*
X8383934Y-7140056D01*
X8383934Y-7140056D02*
X8402982Y-7130532D01*
X8402982Y-7130532D02*
X8441077Y-7130532D01*
X8441077Y-7130532D02*
X8460125Y-7140056D01*
X8536316Y-7340056D02*
X8545839Y-7330532D01*
X8545839Y-7330532D02*
X8564887Y-7301960D01*
X8564887Y-7301960D02*
X8574411Y-7282913D01*
X8574411Y-7282913D02*
X8583935Y-7254341D01*
X8583935Y-7254341D02*
X8593458Y-7206722D01*
X8593458Y-7206722D02*
X8593458Y-7168627D01*
X8593458Y-7168627D02*
X8583935Y-7121008D01*
X8583935Y-7121008D02*
X8574411Y-7092437D01*
X8574411Y-7092437D02*
X8564887Y-7073389D01*
X8564887Y-7073389D02*
X8545839Y-7044818D01*
X8545839Y-7044818D02*
X8536316Y-7035294D01*
X1780300Y-7436381D02*
G75*
G03*
X1780300Y-7436381I-100000J0D01*
G01*
X2022029Y-7327865D02*
X2145839Y-7327865D01*
X2145839Y-7327865D02*
X2079172Y-7404056D01*
X2079172Y-7404056D02*
X2107744Y-7404056D01*
X2107744Y-7404056D02*
X2126791Y-7413579D01*
X2126791Y-7413579D02*
X2136315Y-7423103D01*
X2136315Y-7423103D02*
X2145839Y-7442151D01*
X2145839Y-7442151D02*
X2145839Y-7489770D01*
X2145839Y-7489770D02*
X2136315Y-7508818D01*
X2136315Y-7508818D02*
X2126791Y-7518341D01*
X2126791Y-7518341D02*
X2107744Y-7527865D01*
X2107744Y-7527865D02*
X2050601Y-7527865D01*
X2050601Y-7527865D02*
X2031553Y-7518341D01*
X2031553Y-7518341D02*
X2022029Y-7508818D01*
X2231553Y-7508818D02*
X2241077Y-7518341D01*
X2241077Y-7518341D02*
X2231553Y-7527865D01*
X2231553Y-7527865D02*
X2222029Y-7518341D01*
X2222029Y-7518341D02*
X2231553Y-7508818D01*
X2231553Y-7508818D02*
X2231553Y-7527865D01*
X2422029Y-7327865D02*
X2326791Y-7327865D01*
X2326791Y-7327865D02*
X2317267Y-7423103D01*
X2317267Y-7423103D02*
X2326791Y-7413579D01*
X2326791Y-7413579D02*
X2345839Y-7404056D01*
X2345839Y-7404056D02*
X2393458Y-7404056D01*
X2393458Y-7404056D02*
X2412505Y-7413579D01*
X2412505Y-7413579D02*
X2422029Y-7423103D01*
X2422029Y-7423103D02*
X2431553Y-7442151D01*
X2431553Y-7442151D02*
X2431553Y-7489770D01*
X2431553Y-7489770D02*
X2422029Y-7508818D01*
X2422029Y-7508818D02*
X2412505Y-7518341D01*
X2412505Y-7518341D02*
X2393458Y-7527865D01*
X2393458Y-7527865D02*
X2345839Y-7527865D01*
X2345839Y-7527865D02*
X2326791Y-7518341D01*
X2326791Y-7518341D02*
X2317267Y-7508818D01*
X2555363Y-7327865D02*
X2574410Y-7327865D01*
X2574410Y-7327865D02*
X2593458Y-7337389D01*
X2593458Y-7337389D02*
X2602982Y-7346913D01*
X2602982Y-7346913D02*
X2612505Y-7365960D01*
X2612505Y-7365960D02*
X2622029Y-7404056D01*
X2622029Y-7404056D02*
X2622029Y-7451675D01*
X2622029Y-7451675D02*
X2612505Y-7489770D01*
X2612505Y-7489770D02*
X2602982Y-7508818D01*
X2602982Y-7508818D02*
X2593458Y-7518341D01*
X2593458Y-7518341D02*
X2574410Y-7527865D01*
X2574410Y-7527865D02*
X2555363Y-7527865D01*
X2555363Y-7527865D02*
X2536315Y-7518341D01*
X2536315Y-7518341D02*
X2526791Y-7508818D01*
X2526791Y-7508818D02*
X2517267Y-7489770D01*
X2517267Y-7489770D02*
X2507744Y-7451675D01*
X2507744Y-7451675D02*
X2507744Y-7404056D01*
X2507744Y-7404056D02*
X2517267Y-7365960D01*
X2517267Y-7365960D02*
X2526791Y-7346913D01*
X2526791Y-7346913D02*
X2536315Y-7337389D01*
X2536315Y-7337389D02*
X2555363Y-7327865D01*
X2745839Y-7327865D02*
X2764886Y-7327865D01*
X2764886Y-7327865D02*
X2783934Y-7337389D01*
X2783934Y-7337389D02*
X2793458Y-7346913D01*
X2793458Y-7346913D02*
X2802982Y-7365960D01*
X2802982Y-7365960D02*
X2812505Y-7404056D01*
X2812505Y-7404056D02*
X2812505Y-7451675D01*
X2812505Y-7451675D02*
X2802982Y-7489770D01*
X2802982Y-7489770D02*
X2793458Y-7508818D01*
X2793458Y-7508818D02*
X2783934Y-7518341D01*
X2783934Y-7518341D02*
X2764886Y-7527865D01*
X2764886Y-7527865D02*
X2745839Y-7527865D01*
X2745839Y-7527865D02*
X2726791Y-7518341D01*
X2726791Y-7518341D02*
X2717267Y-7508818D01*
X2717267Y-7508818D02*
X2707744Y-7489770D01*
X2707744Y-7489770D02*
X2698220Y-7451675D01*
X2698220Y-7451675D02*
X2698220Y-7404056D01*
X2698220Y-7404056D02*
X2707744Y-7365960D01*
X2707744Y-7365960D02*
X2717267Y-7346913D01*
X2717267Y-7346913D02*
X2726791Y-7337389D01*
X2726791Y-7337389D02*
X2745839Y-7327865D01*
X2898220Y-7527865D02*
X2898220Y-7394532D01*
X2898220Y-7413579D02*
X2907743Y-7404056D01*
X2907743Y-7404056D02*
X2926791Y-7394532D01*
X2926791Y-7394532D02*
X2955363Y-7394532D01*
X2955363Y-7394532D02*
X2974410Y-7404056D01*
X2974410Y-7404056D02*
X2983934Y-7423103D01*
X2983934Y-7423103D02*
X2983934Y-7527865D01*
X2983934Y-7423103D02*
X2993458Y-7404056D01*
X2993458Y-7404056D02*
X3012505Y-7394532D01*
X3012505Y-7394532D02*
X3041077Y-7394532D01*
X3041077Y-7394532D02*
X3060124Y-7404056D01*
X3060124Y-7404056D02*
X3069648Y-7423103D01*
X3069648Y-7423103D02*
X3069648Y-7527865D01*
X3164886Y-7527865D02*
X3164886Y-7394532D01*
X3164886Y-7413579D02*
X3174410Y-7404056D01*
X3174410Y-7404056D02*
X3193458Y-7394532D01*
X3193458Y-7394532D02*
X3222029Y-7394532D01*
X3222029Y-7394532D02*
X3241077Y-7404056D01*
X3241077Y-7404056D02*
X3250601Y-7423103D01*
X3250601Y-7423103D02*
X3250601Y-7527865D01*
X3250601Y-7423103D02*
X3260124Y-7404056D01*
X3260124Y-7404056D02*
X3279172Y-7394532D01*
X3279172Y-7394532D02*
X3307743Y-7394532D01*
X3307743Y-7394532D02*
X3326791Y-7404056D01*
X3326791Y-7404056D02*
X3336315Y-7423103D01*
X3336315Y-7423103D02*
X3336315Y-7527865D01*
X3726791Y-7318341D02*
X3555363Y-7575484D01*
X3983934Y-7327865D02*
X4002982Y-7327865D01*
X4002982Y-7327865D02*
X4022029Y-7337389D01*
X4022029Y-7337389D02*
X4031553Y-7346913D01*
X4031553Y-7346913D02*
X4041077Y-7365960D01*
X4041077Y-7365960D02*
X4050601Y-7404056D01*
X4050601Y-7404056D02*
X4050601Y-7451675D01*
X4050601Y-7451675D02*
X4041077Y-7489770D01*
X4041077Y-7489770D02*
X4031553Y-7508818D01*
X4031553Y-7508818D02*
X4022029Y-7518341D01*
X4022029Y-7518341D02*
X4002982Y-7527865D01*
X4002982Y-7527865D02*
X3983934Y-7527865D01*
X3983934Y-7527865D02*
X3964886Y-7518341D01*
X3964886Y-7518341D02*
X3955363Y-7508818D01*
X3955363Y-7508818D02*
X3945839Y-7489770D01*
X3945839Y-7489770D02*
X3936315Y-7451675D01*
X3936315Y-7451675D02*
X3936315Y-7404056D01*
X3936315Y-7404056D02*
X3945839Y-7365960D01*
X3945839Y-7365960D02*
X3955363Y-7346913D01*
X3955363Y-7346913D02*
X3964886Y-7337389D01*
X3964886Y-7337389D02*
X3983934Y-7327865D01*
X4136315Y-7508818D02*
X4145839Y-7518341D01*
X4145839Y-7518341D02*
X4136315Y-7527865D01*
X4136315Y-7527865D02*
X4126791Y-7518341D01*
X4126791Y-7518341D02*
X4136315Y-7508818D01*
X4136315Y-7508818D02*
X4136315Y-7527865D01*
X4336315Y-7527865D02*
X4222029Y-7527865D01*
X4279172Y-7527865D02*
X4279172Y-7327865D01*
X4279172Y-7327865D02*
X4260125Y-7356437D01*
X4260125Y-7356437D02*
X4241077Y-7375484D01*
X4241077Y-7375484D02*
X4222029Y-7385008D01*
X4402982Y-7327865D02*
X4526791Y-7327865D01*
X4526791Y-7327865D02*
X4460125Y-7404056D01*
X4460125Y-7404056D02*
X4488696Y-7404056D01*
X4488696Y-7404056D02*
X4507744Y-7413579D01*
X4507744Y-7413579D02*
X4517268Y-7423103D01*
X4517268Y-7423103D02*
X4526791Y-7442151D01*
X4526791Y-7442151D02*
X4526791Y-7489770D01*
X4526791Y-7489770D02*
X4517268Y-7508818D01*
X4517268Y-7508818D02*
X4507744Y-7518341D01*
X4507744Y-7518341D02*
X4488696Y-7527865D01*
X4488696Y-7527865D02*
X4431553Y-7527865D01*
X4431553Y-7527865D02*
X4412506Y-7518341D01*
X4412506Y-7518341D02*
X4402982Y-7508818D01*
X4593458Y-7327865D02*
X4726791Y-7327865D01*
X4726791Y-7327865D02*
X4641077Y-7527865D01*
X4831553Y-7413579D02*
X4812506Y-7404056D01*
X4812506Y-7404056D02*
X4802982Y-7394532D01*
X4802982Y-7394532D02*
X4793458Y-7375484D01*
X4793458Y-7375484D02*
X4793458Y-7365960D01*
X4793458Y-7365960D02*
X4802982Y-7346913D01*
X4802982Y-7346913D02*
X4812506Y-7337389D01*
X4812506Y-7337389D02*
X4831553Y-7327865D01*
X4831553Y-7327865D02*
X4869649Y-7327865D01*
X4869649Y-7327865D02*
X4888696Y-7337389D01*
X4888696Y-7337389D02*
X4898220Y-7346913D01*
X4898220Y-7346913D02*
X4907744Y-7365960D01*
X4907744Y-7365960D02*
X4907744Y-7375484D01*
X4907744Y-7375484D02*
X4898220Y-7394532D01*
X4898220Y-7394532D02*
X4888696Y-7404056D01*
X4888696Y-7404056D02*
X4869649Y-7413579D01*
X4869649Y-7413579D02*
X4831553Y-7413579D01*
X4831553Y-7413579D02*
X4812506Y-7423103D01*
X4812506Y-7423103D02*
X4802982Y-7432627D01*
X4802982Y-7432627D02*
X4793458Y-7451675D01*
X4793458Y-7451675D02*
X4793458Y-7489770D01*
X4793458Y-7489770D02*
X4802982Y-7508818D01*
X4802982Y-7508818D02*
X4812506Y-7518341D01*
X4812506Y-7518341D02*
X4831553Y-7527865D01*
X4831553Y-7527865D02*
X4869649Y-7527865D01*
X4869649Y-7527865D02*
X4888696Y-7518341D01*
X4888696Y-7518341D02*
X4898220Y-7508818D01*
X4898220Y-7508818D02*
X4907744Y-7489770D01*
X4907744Y-7489770D02*
X4907744Y-7451675D01*
X4907744Y-7451675D02*
X4898220Y-7432627D01*
X4898220Y-7432627D02*
X4888696Y-7423103D01*
X4888696Y-7423103D02*
X4869649Y-7413579D01*
X4983934Y-7327865D02*
X4983934Y-7365960D01*
X5060125Y-7327865D02*
X5060125Y-7365960D01*
X5355363Y-7604056D02*
X5345839Y-7594532D01*
X5345839Y-7594532D02*
X5326791Y-7565960D01*
X5326791Y-7565960D02*
X5317268Y-7546913D01*
X5317268Y-7546913D02*
X5307744Y-7518341D01*
X5307744Y-7518341D02*
X5298220Y-7470722D01*
X5298220Y-7470722D02*
X5298220Y-7432627D01*
X5298220Y-7432627D02*
X5307744Y-7385008D01*
X5307744Y-7385008D02*
X5317268Y-7356437D01*
X5317268Y-7356437D02*
X5326791Y-7337389D01*
X5326791Y-7337389D02*
X5345839Y-7308818D01*
X5345839Y-7308818D02*
X5355363Y-7299294D01*
X5517268Y-7394532D02*
X5517268Y-7527865D01*
X5469649Y-7318341D02*
X5422030Y-7461199D01*
X5422030Y-7461199D02*
X5545839Y-7461199D01*
X5774410Y-7527865D02*
X5774410Y-7327865D01*
X5860125Y-7527865D02*
X5860125Y-7423103D01*
X5860125Y-7423103D02*
X5850601Y-7404056D01*
X5850601Y-7404056D02*
X5831553Y-7394532D01*
X5831553Y-7394532D02*
X5802982Y-7394532D01*
X5802982Y-7394532D02*
X5783934Y-7404056D01*
X5783934Y-7404056D02*
X5774410Y-7413579D01*
X5983934Y-7527865D02*
X5964887Y-7518341D01*
X5964887Y-7518341D02*
X5955363Y-7508818D01*
X5955363Y-7508818D02*
X5945839Y-7489770D01*
X5945839Y-7489770D02*
X5945839Y-7432627D01*
X5945839Y-7432627D02*
X5955363Y-7413579D01*
X5955363Y-7413579D02*
X5964887Y-7404056D01*
X5964887Y-7404056D02*
X5983934Y-7394532D01*
X5983934Y-7394532D02*
X6012506Y-7394532D01*
X6012506Y-7394532D02*
X6031553Y-7404056D01*
X6031553Y-7404056D02*
X6041077Y-7413579D01*
X6041077Y-7413579D02*
X6050601Y-7432627D01*
X6050601Y-7432627D02*
X6050601Y-7489770D01*
X6050601Y-7489770D02*
X6041077Y-7508818D01*
X6041077Y-7508818D02*
X6031553Y-7518341D01*
X6031553Y-7518341D02*
X6012506Y-7527865D01*
X6012506Y-7527865D02*
X5983934Y-7527865D01*
X6164887Y-7527865D02*
X6145839Y-7518341D01*
X6145839Y-7518341D02*
X6136315Y-7499294D01*
X6136315Y-7499294D02*
X6136315Y-7327865D01*
X6317268Y-7518341D02*
X6298220Y-7527865D01*
X6298220Y-7527865D02*
X6260125Y-7527865D01*
X6260125Y-7527865D02*
X6241077Y-7518341D01*
X6241077Y-7518341D02*
X6231553Y-7499294D01*
X6231553Y-7499294D02*
X6231553Y-7423103D01*
X6231553Y-7423103D02*
X6241077Y-7404056D01*
X6241077Y-7404056D02*
X6260125Y-7394532D01*
X6260125Y-7394532D02*
X6298220Y-7394532D01*
X6298220Y-7394532D02*
X6317268Y-7404056D01*
X6317268Y-7404056D02*
X6326791Y-7423103D01*
X6326791Y-7423103D02*
X6326791Y-7442151D01*
X6326791Y-7442151D02*
X6231553Y-7461199D01*
X6402982Y-7518341D02*
X6422030Y-7527865D01*
X6422030Y-7527865D02*
X6460125Y-7527865D01*
X6460125Y-7527865D02*
X6479172Y-7518341D01*
X6479172Y-7518341D02*
X6488696Y-7499294D01*
X6488696Y-7499294D02*
X6488696Y-7489770D01*
X6488696Y-7489770D02*
X6479172Y-7470722D01*
X6479172Y-7470722D02*
X6460125Y-7461199D01*
X6460125Y-7461199D02*
X6431553Y-7461199D01*
X6431553Y-7461199D02*
X6412506Y-7451675D01*
X6412506Y-7451675D02*
X6402982Y-7432627D01*
X6402982Y-7432627D02*
X6402982Y-7423103D01*
X6402982Y-7423103D02*
X6412506Y-7404056D01*
X6412506Y-7404056D02*
X6431553Y-7394532D01*
X6431553Y-7394532D02*
X6460125Y-7394532D01*
X6460125Y-7394532D02*
X6479172Y-7404056D01*
X6555363Y-7604056D02*
X6564887Y-7594532D01*
X6564887Y-7594532D02*
X6583934Y-7565960D01*
X6583934Y-7565960D02*
X6593458Y-7546913D01*
X6593458Y-7546913D02*
X6602982Y-7518341D01*
X6602982Y-7518341D02*
X6612506Y-7470722D01*
X6612506Y-7470722D02*
X6612506Y-7432627D01*
X6612506Y-7432627D02*
X6602982Y-7385008D01*
X6602982Y-7385008D02*
X6593458Y-7356437D01*
X6593458Y-7356437D02*
X6583934Y-7337389D01*
X6583934Y-7337389D02*
X6564887Y-7308818D01*
X6564887Y-7308818D02*
X6555363Y-7299294D01*
X6917268Y-7604056D02*
X6907744Y-7594532D01*
X6907744Y-7594532D02*
X6888696Y-7565960D01*
X6888696Y-7565960D02*
X6879172Y-7546913D01*
X6879172Y-7546913D02*
X6869649Y-7518341D01*
X6869649Y-7518341D02*
X6860125Y-7470722D01*
X6860125Y-7470722D02*
X6860125Y-7432627D01*
X6860125Y-7432627D02*
X6869649Y-7385008D01*
X6869649Y-7385008D02*
X6879172Y-7356437D01*
X6879172Y-7356437D02*
X6888696Y-7337389D01*
X6888696Y-7337389D02*
X6907744Y-7308818D01*
X6907744Y-7308818D02*
X6917268Y-7299294D01*
X6993458Y-7394532D02*
X6993458Y-7527865D01*
X6993458Y-7413579D02*
X7002982Y-7404056D01*
X7002982Y-7404056D02*
X7022030Y-7394532D01*
X7022030Y-7394532D02*
X7050601Y-7394532D01*
X7050601Y-7394532D02*
X7069649Y-7404056D01*
X7069649Y-7404056D02*
X7079172Y-7423103D01*
X7079172Y-7423103D02*
X7079172Y-7527865D01*
X7202982Y-7527865D02*
X7183934Y-7518341D01*
X7183934Y-7518341D02*
X7174411Y-7508818D01*
X7174411Y-7508818D02*
X7164887Y-7489770D01*
X7164887Y-7489770D02*
X7164887Y-7432627D01*
X7164887Y-7432627D02*
X7174411Y-7413579D01*
X7174411Y-7413579D02*
X7183934Y-7404056D01*
X7183934Y-7404056D02*
X7202982Y-7394532D01*
X7202982Y-7394532D02*
X7231553Y-7394532D01*
X7231553Y-7394532D02*
X7250601Y-7404056D01*
X7250601Y-7404056D02*
X7260125Y-7413579D01*
X7260125Y-7413579D02*
X7269649Y-7432627D01*
X7269649Y-7432627D02*
X7269649Y-7489770D01*
X7269649Y-7489770D02*
X7260125Y-7508818D01*
X7260125Y-7508818D02*
X7250601Y-7518341D01*
X7250601Y-7518341D02*
X7231553Y-7527865D01*
X7231553Y-7527865D02*
X7202982Y-7527865D01*
X7326792Y-7394532D02*
X7402982Y-7394532D01*
X7355363Y-7327865D02*
X7355363Y-7499294D01*
X7355363Y-7499294D02*
X7364887Y-7518341D01*
X7364887Y-7518341D02*
X7383934Y-7527865D01*
X7383934Y-7527865D02*
X7402982Y-7527865D01*
X7622030Y-7394532D02*
X7622030Y-7594532D01*
X7622030Y-7404056D02*
X7641077Y-7394532D01*
X7641077Y-7394532D02*
X7679173Y-7394532D01*
X7679173Y-7394532D02*
X7698220Y-7404056D01*
X7698220Y-7404056D02*
X7707744Y-7413579D01*
X7707744Y-7413579D02*
X7717268Y-7432627D01*
X7717268Y-7432627D02*
X7717268Y-7489770D01*
X7717268Y-7489770D02*
X7707744Y-7508818D01*
X7707744Y-7508818D02*
X7698220Y-7518341D01*
X7698220Y-7518341D02*
X7679173Y-7527865D01*
X7679173Y-7527865D02*
X7641077Y-7527865D01*
X7641077Y-7527865D02*
X7622030Y-7518341D01*
X7831553Y-7527865D02*
X7812506Y-7518341D01*
X7812506Y-7518341D02*
X7802982Y-7499294D01*
X7802982Y-7499294D02*
X7802982Y-7327865D01*
X7993458Y-7527865D02*
X7993458Y-7423103D01*
X7993458Y-7423103D02*
X7983934Y-7404056D01*
X7983934Y-7404056D02*
X7964887Y-7394532D01*
X7964887Y-7394532D02*
X7926792Y-7394532D01*
X7926792Y-7394532D02*
X7907744Y-7404056D01*
X7993458Y-7518341D02*
X7974411Y-7527865D01*
X7974411Y-7527865D02*
X7926792Y-7527865D01*
X7926792Y-7527865D02*
X7907744Y-7518341D01*
X7907744Y-7518341D02*
X7898220Y-7499294D01*
X7898220Y-7499294D02*
X7898220Y-7480246D01*
X7898220Y-7480246D02*
X7907744Y-7461199D01*
X7907744Y-7461199D02*
X7926792Y-7451675D01*
X7926792Y-7451675D02*
X7974411Y-7451675D01*
X7974411Y-7451675D02*
X7993458Y-7442151D01*
X8060125Y-7394532D02*
X8136315Y-7394532D01*
X8088696Y-7327865D02*
X8088696Y-7499294D01*
X8088696Y-7499294D02*
X8098220Y-7518341D01*
X8098220Y-7518341D02*
X8117268Y-7527865D01*
X8117268Y-7527865D02*
X8136315Y-7527865D01*
X8279173Y-7518341D02*
X8260125Y-7527865D01*
X8260125Y-7527865D02*
X8222030Y-7527865D01*
X8222030Y-7527865D02*
X8202982Y-7518341D01*
X8202982Y-7518341D02*
X8193458Y-7499294D01*
X8193458Y-7499294D02*
X8193458Y-7423103D01*
X8193458Y-7423103D02*
X8202982Y-7404056D01*
X8202982Y-7404056D02*
X8222030Y-7394532D01*
X8222030Y-7394532D02*
X8260125Y-7394532D01*
X8260125Y-7394532D02*
X8279173Y-7404056D01*
X8279173Y-7404056D02*
X8288696Y-7423103D01*
X8288696Y-7423103D02*
X8288696Y-7442151D01*
X8288696Y-7442151D02*
X8193458Y-7461199D01*
X8460125Y-7527865D02*
X8460125Y-7327865D01*
X8460125Y-7518341D02*
X8441077Y-7527865D01*
X8441077Y-7527865D02*
X8402982Y-7527865D01*
X8402982Y-7527865D02*
X8383934Y-7518341D01*
X8383934Y-7518341D02*
X8374411Y-7508818D01*
X8374411Y-7508818D02*
X8364887Y-7489770D01*
X8364887Y-7489770D02*
X8364887Y-7432627D01*
X8364887Y-7432627D02*
X8374411Y-7413579D01*
X8374411Y-7413579D02*
X8383934Y-7404056D01*
X8383934Y-7404056D02*
X8402982Y-7394532D01*
X8402982Y-7394532D02*
X8441077Y-7394532D01*
X8441077Y-7394532D02*
X8460125Y-7404056D01*
X8536316Y-7604056D02*
X8545839Y-7594532D01*
X8545839Y-7594532D02*
X8564887Y-7565960D01*
X8564887Y-7565960D02*
X8574411Y-7546913D01*
X8574411Y-7546913D02*
X8583935Y-7518341D01*
X8583935Y-7518341D02*
X8593458Y-7470722D01*
X8593458Y-7470722D02*
X8593458Y-7432627D01*
X8593458Y-7432627D02*
X8583935Y-7385008D01*
X8583935Y-7385008D02*
X8574411Y-7356437D01*
X8574411Y-7356437D02*
X8564887Y-7337389D01*
X8564887Y-7337389D02*
X8545839Y-7308818D01*
X8545839Y-7308818D02*
X8536316Y-7299294D01*
M02*
