G04 #@! TF.GenerationSoftware,KiCad,Pcbnew,7.0.5*
G04 #@! TF.CreationDate,2023-08-28T02:06:04+08:00*
G04 #@! TF.ProjectId,handwire microboard,68616e64-7769-4726-9520-6d6963726f62,rev?*
G04 #@! TF.SameCoordinates,Original*
G04 #@! TF.FileFunction,Copper,L2,Bot*
G04 #@! TF.FilePolarity,Positive*
%FSLAX46Y46*%
G04 Gerber Fmt 4.6, Leading zero omitted, Abs format (unit mm)*
G04 Created by KiCad (PCBNEW 7.0.5) date 2023-08-28 02:06:04*
%MOMM*%
%LPD*%
G01*
G04 APERTURE LIST*
G04 Aperture macros list*
%AMRoundRect*
0 Rectangle with rounded corners*
0 $1 Rounding radius*
0 $2 $3 $4 $5 $6 $7 $8 $9 X,Y pos of 4 corners*
0 Add a 4 corners polygon primitive as box body*
4,1,4,$2,$3,$4,$5,$6,$7,$8,$9,$2,$3,0*
0 Add four circle primitives for the rounded corners*
1,1,$1+$1,$2,$3*
1,1,$1+$1,$4,$5*
1,1,$1+$1,$6,$7*
1,1,$1+$1,$8,$9*
0 Add four rect primitives between the rounded corners*
20,1,$1+$1,$2,$3,$4,$5,0*
20,1,$1+$1,$4,$5,$6,$7,0*
20,1,$1+$1,$6,$7,$8,$9,0*
20,1,$1+$1,$8,$9,$2,$3,0*%
G04 Aperture macros list end*
G04 #@! TA.AperFunction,ComponentPad*
%ADD10C,2.000000*%
G04 #@! TD*
G04 #@! TA.AperFunction,ComponentPad*
%ADD11C,1.752600*%
G04 #@! TD*
G04 #@! TA.AperFunction,ComponentPad*
%ADD12RoundRect,0.438150X-0.438150X0.438150X-0.438150X-0.438150X0.438150X-0.438150X0.438150X0.438150X0*%
G04 #@! TD*
G04 #@! TA.AperFunction,ComponentPad*
%ADD13R,1.752600X1.752600*%
G04 #@! TD*
G04 #@! TA.AperFunction,ComponentPad*
%ADD14O,1.700000X1.700000*%
G04 #@! TD*
G04 #@! TA.AperFunction,ComponentPad*
%ADD15C,1.700000*%
G04 #@! TD*
G04 #@! TA.AperFunction,ComponentPad*
%ADD16O,1.900000X1.500000*%
G04 #@! TD*
G04 #@! TA.AperFunction,ComponentPad*
%ADD17O,1.800000X1.500000*%
G04 #@! TD*
G04 #@! TA.AperFunction,ComponentPad*
%ADD18O,1.500000X1.900000*%
G04 #@! TD*
G04 #@! TA.AperFunction,ComponentPad*
%ADD19O,1.500000X1.800000*%
G04 #@! TD*
G04 #@! TA.AperFunction,ViaPad*
%ADD20C,0.800000*%
G04 #@! TD*
G04 #@! TA.AperFunction,Conductor*
%ADD21C,0.350000*%
G04 #@! TD*
G04 #@! TA.AperFunction,Conductor*
%ADD22C,0.250000*%
G04 #@! TD*
G04 APERTURE END LIST*
D10*
X31635000Y-55840000D03*
X38135000Y-55840000D03*
D11*
X27265000Y-24530000D03*
X27265000Y-27070000D03*
D12*
X27265000Y-29610000D03*
X27265000Y-32150000D03*
D11*
X27265000Y-34690000D03*
X27265000Y-37230000D03*
X27265000Y-39770000D03*
X27265000Y-42310000D03*
X27265000Y-44850000D03*
X27265000Y-47390000D03*
X27265000Y-49930000D03*
X27265000Y-52470000D03*
X42505000Y-52470000D03*
X42505000Y-49930000D03*
X42505000Y-47390000D03*
X42505000Y-44850000D03*
X42505000Y-42310000D03*
X42505000Y-39770000D03*
X42505000Y-37230000D03*
X42505000Y-34690000D03*
D13*
X42505000Y-32150000D03*
D11*
X42505000Y-29610000D03*
D12*
X42505000Y-27070000D03*
D11*
X42505000Y-24530000D03*
D14*
X19795000Y-34690000D03*
X19795000Y-37230000D03*
X19795000Y-39770000D03*
X19795000Y-42310000D03*
X19795000Y-44850000D03*
X19795000Y-47390000D03*
X19795000Y-49930000D03*
X19795000Y-52470000D03*
X19795000Y-55010000D03*
D15*
X22335000Y-34690000D03*
D14*
X22335000Y-37230000D03*
X22335000Y-39770000D03*
X22335000Y-42310000D03*
X22335000Y-44850000D03*
X22335000Y-47390000D03*
X22335000Y-49930000D03*
X22335000Y-52470000D03*
X22335000Y-55010000D03*
X50015000Y-34690000D03*
X50015000Y-37230000D03*
X50015000Y-39770000D03*
X50015000Y-42310000D03*
X50015000Y-44850000D03*
X50015000Y-47390000D03*
X50015000Y-49930000D03*
X50015000Y-52470000D03*
X50015000Y-55010000D03*
D15*
X47475000Y-34690000D03*
D14*
X47475000Y-37230000D03*
X47475000Y-39770000D03*
X47475000Y-42310000D03*
X47475000Y-44850000D03*
X47475000Y-47390000D03*
X47475000Y-49930000D03*
X47475000Y-52470000D03*
X47475000Y-55010000D03*
D16*
X38235000Y-58970000D03*
D17*
X45635000Y-63570000D03*
D16*
X43335000Y-63570000D03*
X39335000Y-63570000D03*
D18*
X24155000Y-30563500D03*
X24155000Y-26563500D03*
D19*
X24155000Y-24263500D03*
D18*
X19555000Y-31663500D03*
D16*
X31555000Y-63570000D03*
D17*
X24155000Y-58970000D03*
D16*
X26455000Y-58970000D03*
X30455000Y-58970000D03*
D18*
X50235000Y-30563500D03*
X50235000Y-26563500D03*
D19*
X50235000Y-24263500D03*
D18*
X45635000Y-31663500D03*
D20*
X24715500Y-35180000D03*
X25044302Y-28654302D03*
X24660000Y-55820000D03*
X25520000Y-56650000D03*
X23941000Y-34060000D03*
X38365000Y-32640000D03*
D21*
X36505000Y-57470000D02*
X38135000Y-55840000D01*
X27955000Y-57470000D02*
X36505000Y-57470000D01*
X26455000Y-58970000D02*
X27955000Y-57470000D01*
X25490000Y-54060000D02*
X25490000Y-33925000D01*
X26455000Y-55025000D02*
X25490000Y-54060000D01*
X26455000Y-58970000D02*
X26455000Y-55025000D01*
X25490000Y-33925000D02*
X27265000Y-32150000D01*
D22*
X48725000Y-35940000D02*
X50015000Y-37230000D01*
X46354000Y-35940000D02*
X48725000Y-35940000D01*
X43834000Y-33420000D02*
X46354000Y-35940000D01*
X28535000Y-33420000D02*
X43834000Y-33420000D01*
X27265000Y-34690000D02*
X28535000Y-33420000D01*
X25044302Y-28654302D02*
X23805698Y-28654302D01*
X23805698Y-28654302D02*
X22335000Y-30125000D01*
X22335000Y-30125000D02*
X22335000Y-34690000D01*
X23990500Y-55150500D02*
X24660000Y-55820000D01*
X23941000Y-34060000D02*
X23990500Y-34109500D01*
X23990500Y-34109500D02*
X23990500Y-55150500D01*
D21*
X38135000Y-55840000D02*
X40960000Y-55840000D01*
X40960000Y-55840000D02*
X43335000Y-58215000D01*
X43335000Y-58215000D02*
X43335000Y-63570000D01*
X24715500Y-54665500D02*
X24715500Y-35180000D01*
X25520000Y-56650000D02*
X25520000Y-55470000D01*
X25520000Y-55470000D02*
X24715500Y-54665500D01*
X24155000Y-32005000D02*
X24155000Y-30563500D01*
X24715500Y-32565500D02*
X24155000Y-32005000D01*
X24715500Y-35180000D02*
X24715500Y-32565500D01*
X27201500Y-29610000D02*
X24155000Y-26563500D01*
X27265000Y-29610000D02*
X27201500Y-29610000D01*
D22*
X24458500Y-24263500D02*
X24155000Y-24263500D01*
X27265000Y-27070000D02*
X24458500Y-24263500D01*
D21*
X37150000Y-63570000D02*
X39335000Y-63570000D01*
X32550000Y-58970000D02*
X37150000Y-63570000D01*
X30455000Y-58970000D02*
X32550000Y-58970000D01*
D22*
X27265000Y-49930000D02*
X28545000Y-48650000D01*
X46364000Y-51190000D02*
X48735000Y-51190000D01*
X28545000Y-48650000D02*
X43824000Y-48650000D01*
X43824000Y-48650000D02*
X46364000Y-51190000D01*
X48735000Y-51190000D02*
X50015000Y-52470000D01*
X50015000Y-49930000D02*
X48735000Y-48650000D01*
X46364000Y-48650000D02*
X43824000Y-46110000D01*
X48735000Y-48650000D02*
X46364000Y-48650000D01*
X28545000Y-46110000D02*
X27265000Y-47390000D01*
X43824000Y-46110000D02*
X28545000Y-46110000D01*
X46237000Y-46110000D02*
X48735000Y-46110000D01*
X27265000Y-44850000D02*
X28545000Y-43570000D01*
X48735000Y-46110000D02*
X50015000Y-47390000D01*
X28545000Y-43570000D02*
X43697000Y-43570000D01*
X43697000Y-43570000D02*
X46237000Y-46110000D01*
X50015000Y-44850000D02*
X48745000Y-43580000D01*
X48745000Y-43580000D02*
X46368447Y-43580000D01*
X46368447Y-43580000D02*
X43808447Y-41020000D01*
X43808447Y-41020000D02*
X28555000Y-41020000D01*
X28555000Y-41020000D02*
X27265000Y-42310000D01*
X27265000Y-39770000D02*
X28545000Y-38490000D01*
X43824000Y-38490000D02*
X46374000Y-41040000D01*
X28545000Y-38490000D02*
X43824000Y-38490000D01*
X46374000Y-41040000D02*
X48745000Y-41040000D01*
X48745000Y-41040000D02*
X50015000Y-42310000D01*
X28545000Y-35950000D02*
X27265000Y-37230000D01*
X50015000Y-39770000D02*
X48745000Y-38500000D01*
X43824000Y-35950000D02*
X28545000Y-35950000D01*
X48745000Y-38500000D02*
X46374000Y-38500000D01*
X46374000Y-38500000D02*
X43824000Y-35950000D01*
X27265000Y-27070000D02*
X32835000Y-32640000D01*
X32835000Y-32640000D02*
X38365000Y-32640000D01*
X48915000Y-33590000D02*
X48915000Y-25583500D01*
X50015000Y-34690000D02*
X48915000Y-33590000D01*
X48915000Y-25583500D02*
X50235000Y-24263500D01*
D21*
X27265000Y-29610000D02*
X27265000Y-32150000D01*
D22*
X43844000Y-51210000D02*
X28525000Y-51210000D01*
X50015000Y-55010000D02*
X48735000Y-53730000D01*
X28525000Y-51210000D02*
X27265000Y-52470000D01*
X48735000Y-53730000D02*
X46364000Y-53730000D01*
X46364000Y-53730000D02*
X43844000Y-51210000D01*
X47475000Y-30140000D02*
X45695000Y-28360000D01*
X31095000Y-28360000D02*
X27265000Y-24530000D01*
X45695000Y-28360000D02*
X31095000Y-28360000D01*
X47475000Y-34690000D02*
X47475000Y-30140000D01*
X19795000Y-34690000D02*
X21065000Y-35960000D01*
X21065000Y-35960000D02*
X21065000Y-56580000D01*
X21065000Y-56580000D02*
X23455000Y-58970000D01*
G04 #@! TA.AperFunction,NonConductor*
G36*
X51178031Y-17964299D02*
G01*
X51185641Y-17965048D01*
X51210293Y-17967476D01*
X51320730Y-17979919D01*
X51342829Y-17984477D01*
X51394823Y-18000249D01*
X51397282Y-18001053D01*
X51475132Y-18028294D01*
X51492607Y-18035967D01*
X51545933Y-18064470D01*
X51549641Y-18066623D01*
X51611057Y-18105212D01*
X51619257Y-18110365D01*
X51625609Y-18114939D01*
X51677264Y-18157331D01*
X51681765Y-18161410D01*
X51739087Y-18218732D01*
X51743167Y-18223234D01*
X51785559Y-18274889D01*
X51790133Y-18281241D01*
X51833862Y-18350834D01*
X51836039Y-18354585D01*
X51841244Y-18364321D01*
X51864528Y-18407884D01*
X51872211Y-18425382D01*
X51899444Y-18503213D01*
X51900254Y-18505691D01*
X51916020Y-18557664D01*
X51920580Y-18579777D01*
X51933022Y-18690203D01*
X51936201Y-18722468D01*
X51936500Y-18728550D01*
X51936500Y-64516780D01*
X51936167Y-64523198D01*
X51932829Y-64555290D01*
X51919895Y-64664768D01*
X51915215Y-64686857D01*
X51899249Y-64738481D01*
X51898426Y-64740955D01*
X51870967Y-64818092D01*
X51863188Y-64835552D01*
X51834586Y-64888371D01*
X51832383Y-64892118D01*
X51788554Y-64961042D01*
X51783945Y-64967371D01*
X51741495Y-65018529D01*
X51737382Y-65023017D01*
X51680143Y-65079639D01*
X51675611Y-65083703D01*
X51623996Y-65125597D01*
X51617619Y-65130137D01*
X51548246Y-65173206D01*
X51544474Y-65175368D01*
X51491334Y-65203404D01*
X51473792Y-65210994D01*
X51396322Y-65237632D01*
X51393838Y-65238428D01*
X51342079Y-65253823D01*
X51319954Y-65258262D01*
X51211151Y-65269936D01*
X51177907Y-65273029D01*
X51171788Y-65273295D01*
X51126120Y-65273022D01*
X51123355Y-65273315D01*
X18619861Y-65273315D01*
X18613779Y-65273016D01*
X18581606Y-65269847D01*
X18470699Y-65257353D01*
X18448586Y-65252793D01*
X18396536Y-65237004D01*
X18394056Y-65236195D01*
X18315943Y-65208863D01*
X18298447Y-65201182D01*
X18245027Y-65172629D01*
X18241273Y-65170450D01*
X18171477Y-65126595D01*
X18165125Y-65122020D01*
X18113352Y-65079533D01*
X18108841Y-65075444D01*
X18051362Y-65017967D01*
X18047273Y-65013456D01*
X18004787Y-64961687D01*
X18000212Y-64955334D01*
X17956361Y-64885545D01*
X17954178Y-64881785D01*
X17925624Y-64828366D01*
X17917941Y-64810867D01*
X17890606Y-64732749D01*
X17889797Y-64730270D01*
X17880983Y-64701215D01*
X17874008Y-64678223D01*
X17869451Y-64656123D01*
X17856871Y-64544389D01*
X17854469Y-64519996D01*
X17853799Y-64513190D01*
X17853500Y-64507111D01*
X17853500Y-63626330D01*
X30100710Y-63626330D01*
X30130925Y-63849387D01*
X30130926Y-63849390D01*
X30200483Y-64063465D01*
X30307146Y-64261678D01*
X30307148Y-64261681D01*
X30447489Y-64437663D01*
X30447491Y-64437664D01*
X30447492Y-64437666D01*
X30617004Y-64585765D01*
X30810236Y-64701215D01*
X31020976Y-64780307D01*
X31242450Y-64820500D01*
X31242453Y-64820500D01*
X31811148Y-64820500D01*
X31811155Y-64820500D01*
X31979188Y-64805377D01*
X31991022Y-64802111D01*
X32196160Y-64745496D01*
X32196162Y-64745495D01*
X32196170Y-64745493D01*
X32398973Y-64647829D01*
X32581078Y-64515522D01*
X32736632Y-64352825D01*
X32860635Y-64164968D01*
X32862420Y-64160793D01*
X32949100Y-63957995D01*
X32949099Y-63957995D01*
X32949103Y-63957988D01*
X32999191Y-63738537D01*
X33009290Y-63513670D01*
X32979075Y-63290613D01*
X32909517Y-63076536D01*
X32802852Y-62878319D01*
X32675863Y-62719080D01*
X32662510Y-62702336D01*
X32662508Y-62702334D01*
X32492996Y-62554235D01*
X32299764Y-62438785D01*
X32176161Y-62392396D01*
X32089023Y-62359692D01*
X31867550Y-62319500D01*
X31867547Y-62319500D01*
X31298845Y-62319500D01*
X31260399Y-62322960D01*
X31130813Y-62334622D01*
X31130807Y-62334623D01*
X30913839Y-62394503D01*
X30913826Y-62394508D01*
X30711033Y-62492167D01*
X30711025Y-62492171D01*
X30528927Y-62624473D01*
X30528925Y-62624474D01*
X30373366Y-62787176D01*
X30249363Y-62975033D01*
X30160899Y-63182004D01*
X30160895Y-63182017D01*
X30110810Y-63401457D01*
X30110808Y-63401468D01*
X30105769Y-63513674D01*
X30100710Y-63626330D01*
X17853500Y-63626330D01*
X17853500Y-31919655D01*
X18304500Y-31919655D01*
X18308771Y-31967110D01*
X18319622Y-32087686D01*
X18319623Y-32087692D01*
X18379503Y-32304660D01*
X18379508Y-32304673D01*
X18477167Y-32507466D01*
X18477171Y-32507474D01*
X18609473Y-32689572D01*
X18609474Y-32689574D01*
X18609477Y-32689577D01*
X18609478Y-32689578D01*
X18718982Y-32794274D01*
X18772176Y-32845133D01*
X18960033Y-32969136D01*
X19167004Y-33057600D01*
X19167007Y-33057601D01*
X19167012Y-33057603D01*
X19386463Y-33107691D01*
X19503501Y-33112947D01*
X19523511Y-33113846D01*
X19589600Y-33136518D01*
X19632940Y-33191322D01*
X19639770Y-33260857D01*
X19607923Y-33323047D01*
X19550041Y-33357496D01*
X19331344Y-33416094D01*
X19331335Y-33416098D01*
X19117171Y-33515964D01*
X19117169Y-33515965D01*
X18923597Y-33651505D01*
X18756505Y-33818597D01*
X18620965Y-34012169D01*
X18620964Y-34012171D01*
X18521098Y-34226335D01*
X18521094Y-34226344D01*
X18459938Y-34454586D01*
X18459936Y-34454596D01*
X18439341Y-34689999D01*
X18439341Y-34690000D01*
X18459936Y-34925403D01*
X18459938Y-34925413D01*
X18521094Y-35153655D01*
X18521096Y-35153659D01*
X18521097Y-35153663D01*
X18619087Y-35363802D01*
X18620965Y-35367830D01*
X18620967Y-35367834D01*
X18695191Y-35473836D01*
X18740502Y-35538547D01*
X18756501Y-35561395D01*
X18756506Y-35561402D01*
X18923597Y-35728493D01*
X18923603Y-35728498D01*
X19109158Y-35858425D01*
X19152783Y-35913002D01*
X19159977Y-35982500D01*
X19128454Y-36044855D01*
X19109158Y-36061575D01*
X18923597Y-36191505D01*
X18756505Y-36358597D01*
X18620965Y-36552169D01*
X18620964Y-36552171D01*
X18521098Y-36766335D01*
X18521094Y-36766344D01*
X18459938Y-36994586D01*
X18459936Y-36994596D01*
X18439341Y-37229999D01*
X18439341Y-37230000D01*
X18459936Y-37465403D01*
X18459938Y-37465413D01*
X18521094Y-37693655D01*
X18521096Y-37693659D01*
X18521097Y-37693663D01*
X18619087Y-37903802D01*
X18620965Y-37907830D01*
X18620967Y-37907834D01*
X18695191Y-38013836D01*
X18740502Y-38078547D01*
X18756501Y-38101395D01*
X18756506Y-38101402D01*
X18923597Y-38268493D01*
X18923603Y-38268498D01*
X19109158Y-38398425D01*
X19152783Y-38453002D01*
X19159977Y-38522500D01*
X19128454Y-38584855D01*
X19109158Y-38601575D01*
X18923597Y-38731505D01*
X18756505Y-38898597D01*
X18620965Y-39092169D01*
X18620964Y-39092171D01*
X18521098Y-39306335D01*
X18521094Y-39306344D01*
X18459938Y-39534586D01*
X18459936Y-39534596D01*
X18439341Y-39769999D01*
X18439341Y-39770000D01*
X18459936Y-40005403D01*
X18459938Y-40005413D01*
X18521094Y-40233655D01*
X18521096Y-40233659D01*
X18521097Y-40233663D01*
X18603250Y-40409840D01*
X18620965Y-40447830D01*
X18620967Y-40447834D01*
X18688189Y-40543836D01*
X18740502Y-40618547D01*
X18756501Y-40641395D01*
X18756506Y-40641402D01*
X18923597Y-40808493D01*
X18923603Y-40808498D01*
X19109158Y-40938425D01*
X19152783Y-40993002D01*
X19159977Y-41062500D01*
X19128454Y-41124855D01*
X19109158Y-41141575D01*
X18923597Y-41271505D01*
X18756505Y-41438597D01*
X18620965Y-41632169D01*
X18620964Y-41632171D01*
X18521098Y-41846335D01*
X18521094Y-41846344D01*
X18459938Y-42074586D01*
X18459936Y-42074596D01*
X18439341Y-42309999D01*
X18439341Y-42310000D01*
X18459936Y-42545403D01*
X18459938Y-42545413D01*
X18521094Y-42773655D01*
X18521096Y-42773659D01*
X18521097Y-42773663D01*
X18619087Y-42983802D01*
X18620965Y-42987830D01*
X18620967Y-42987834D01*
X18695191Y-43093836D01*
X18740502Y-43158547D01*
X18756501Y-43181395D01*
X18756506Y-43181402D01*
X18923597Y-43348493D01*
X18923603Y-43348498D01*
X19109158Y-43478425D01*
X19152783Y-43533002D01*
X19159977Y-43602500D01*
X19128454Y-43664855D01*
X19109158Y-43681575D01*
X18923597Y-43811505D01*
X18756505Y-43978597D01*
X18620965Y-44172169D01*
X18620964Y-44172171D01*
X18521098Y-44386335D01*
X18521094Y-44386344D01*
X18459938Y-44614586D01*
X18459936Y-44614596D01*
X18439341Y-44849999D01*
X18439341Y-44850000D01*
X18459936Y-45085403D01*
X18459938Y-45085413D01*
X18521094Y-45313655D01*
X18521096Y-45313659D01*
X18521097Y-45313663D01*
X18619087Y-45523802D01*
X18620965Y-45527830D01*
X18620967Y-45527834D01*
X18695191Y-45633836D01*
X18740502Y-45698547D01*
X18756501Y-45721395D01*
X18756506Y-45721402D01*
X18923597Y-45888493D01*
X18923603Y-45888498D01*
X19109158Y-46018425D01*
X19152783Y-46073002D01*
X19159977Y-46142500D01*
X19128454Y-46204855D01*
X19109158Y-46221575D01*
X18923597Y-46351505D01*
X18756505Y-46518597D01*
X18620965Y-46712169D01*
X18620964Y-46712171D01*
X18521098Y-46926335D01*
X18521094Y-46926344D01*
X18459938Y-47154586D01*
X18459936Y-47154596D01*
X18439341Y-47389999D01*
X18439341Y-47390000D01*
X18459936Y-47625403D01*
X18459938Y-47625413D01*
X18521094Y-47853655D01*
X18521096Y-47853659D01*
X18521097Y-47853663D01*
X18619087Y-48063802D01*
X18620965Y-48067830D01*
X18620967Y-48067834D01*
X18695191Y-48173836D01*
X18740502Y-48238547D01*
X18756501Y-48261395D01*
X18756506Y-48261402D01*
X18923597Y-48428493D01*
X18923603Y-48428498D01*
X19109158Y-48558425D01*
X19152783Y-48613002D01*
X19159977Y-48682500D01*
X19128454Y-48744855D01*
X19109158Y-48761575D01*
X18923597Y-48891505D01*
X18756505Y-49058597D01*
X18620965Y-49252169D01*
X18620964Y-49252171D01*
X18521098Y-49466335D01*
X18521094Y-49466344D01*
X18459938Y-49694586D01*
X18459936Y-49694596D01*
X18439341Y-49929999D01*
X18439341Y-49930000D01*
X18459936Y-50165403D01*
X18459938Y-50165413D01*
X18521094Y-50393655D01*
X18521096Y-50393659D01*
X18521097Y-50393663D01*
X18609073Y-50582328D01*
X18620965Y-50607830D01*
X18620967Y-50607834D01*
X18707791Y-50731830D01*
X18740502Y-50778547D01*
X18756501Y-50801395D01*
X18756506Y-50801402D01*
X18923597Y-50968493D01*
X18923603Y-50968498D01*
X19109158Y-51098425D01*
X19152783Y-51153002D01*
X19159977Y-51222500D01*
X19128454Y-51284855D01*
X19109158Y-51301575D01*
X18923597Y-51431505D01*
X18756505Y-51598597D01*
X18620965Y-51792169D01*
X18620964Y-51792171D01*
X18521098Y-52006335D01*
X18521094Y-52006344D01*
X18459938Y-52234586D01*
X18459936Y-52234596D01*
X18439341Y-52469999D01*
X18439341Y-52470000D01*
X18459936Y-52705403D01*
X18459938Y-52705413D01*
X18521094Y-52933655D01*
X18521096Y-52933659D01*
X18521097Y-52933663D01*
X18611499Y-53127530D01*
X18620965Y-53147830D01*
X18620967Y-53147834D01*
X18729281Y-53302521D01*
X18740502Y-53318547D01*
X18756501Y-53341395D01*
X18756506Y-53341402D01*
X18923597Y-53508493D01*
X18923603Y-53508498D01*
X19109158Y-53638425D01*
X19152783Y-53693002D01*
X19159977Y-53762500D01*
X19128454Y-53824855D01*
X19109158Y-53841575D01*
X18923597Y-53971505D01*
X18756505Y-54138597D01*
X18620965Y-54332169D01*
X18620964Y-54332171D01*
X18521098Y-54546335D01*
X18521094Y-54546344D01*
X18459938Y-54774586D01*
X18459936Y-54774596D01*
X18439341Y-55009999D01*
X18439341Y-55010000D01*
X18459936Y-55245403D01*
X18459938Y-55245413D01*
X18521094Y-55473655D01*
X18521096Y-55473659D01*
X18521097Y-55473663D01*
X18525000Y-55482032D01*
X18620965Y-55687830D01*
X18620967Y-55687834D01*
X18718380Y-55826953D01*
X18756505Y-55881401D01*
X18923599Y-56048495D01*
X18979767Y-56087824D01*
X19117165Y-56184032D01*
X19117167Y-56184033D01*
X19117170Y-56184035D01*
X19331337Y-56283903D01*
X19559592Y-56345063D01*
X19747918Y-56361539D01*
X19794999Y-56365659D01*
X19795000Y-56365659D01*
X19795001Y-56365659D01*
X19834234Y-56362226D01*
X20030408Y-56345063D01*
X20258663Y-56283903D01*
X20263093Y-56281837D01*
X20332171Y-56271344D01*
X20395955Y-56299863D01*
X20434196Y-56358339D01*
X20439500Y-56394218D01*
X20439500Y-56497255D01*
X20437775Y-56512872D01*
X20438061Y-56512899D01*
X20437326Y-56520666D01*
X20439469Y-56588846D01*
X20439500Y-56590793D01*
X20439500Y-56619343D01*
X20439501Y-56619360D01*
X20440368Y-56626231D01*
X20440826Y-56632050D01*
X20442290Y-56678624D01*
X20442291Y-56678627D01*
X20447880Y-56697867D01*
X20451824Y-56716911D01*
X20454336Y-56736792D01*
X20465418Y-56764782D01*
X20471490Y-56780119D01*
X20473382Y-56785647D01*
X20481224Y-56812639D01*
X20486382Y-56830390D01*
X20495791Y-56846301D01*
X20496580Y-56847634D01*
X20505136Y-56865100D01*
X20508189Y-56872808D01*
X20512514Y-56883732D01*
X20539898Y-56921423D01*
X20543106Y-56926307D01*
X20566827Y-56966416D01*
X20566833Y-56966424D01*
X20580990Y-56980580D01*
X20593627Y-56995375D01*
X20605406Y-57011587D01*
X20639552Y-57039835D01*
X20641309Y-57041288D01*
X20645620Y-57045210D01*
X21694108Y-58093698D01*
X22740552Y-59140142D01*
X22774037Y-59201465D01*
X22775748Y-59211176D01*
X22780924Y-59249386D01*
X22786913Y-59267817D01*
X22788908Y-59337658D01*
X22752828Y-59397491D01*
X22690127Y-59428319D01*
X22625649Y-59422317D01*
X22581863Y-59405985D01*
X22420046Y-59345631D01*
X22420042Y-59345630D01*
X22420039Y-59345629D01*
X22140433Y-59284804D01*
X21926450Y-59269500D01*
X21926448Y-59269500D01*
X21783552Y-59269500D01*
X21783549Y-59269500D01*
X21569566Y-59284804D01*
X21289962Y-59345628D01*
X21021833Y-59445635D01*
X20770690Y-59582770D01*
X20770682Y-59582775D01*
X20541612Y-59754254D01*
X20541594Y-59754270D01*
X20339270Y-59956594D01*
X20339254Y-59956612D01*
X20167775Y-60185682D01*
X20167770Y-60185690D01*
X20030635Y-60436833D01*
X19930628Y-60704962D01*
X19869804Y-60984566D01*
X19849390Y-61269998D01*
X19849390Y-61270001D01*
X19869804Y-61555433D01*
X19930628Y-61835037D01*
X19930630Y-61835043D01*
X19930631Y-61835046D01*
X19962504Y-61920500D01*
X20030635Y-62103166D01*
X20167770Y-62354309D01*
X20167775Y-62354317D01*
X20339254Y-62583387D01*
X20339270Y-62583405D01*
X20541594Y-62785729D01*
X20541612Y-62785745D01*
X20770682Y-62957224D01*
X20770690Y-62957229D01*
X21021833Y-63094364D01*
X21021832Y-63094364D01*
X21021836Y-63094365D01*
X21021839Y-63094367D01*
X21289954Y-63194369D01*
X21289960Y-63194370D01*
X21289962Y-63194371D01*
X21569566Y-63255195D01*
X21569568Y-63255195D01*
X21569572Y-63255196D01*
X21783552Y-63270500D01*
X21926448Y-63270500D01*
X22140428Y-63255196D01*
X22383386Y-63202344D01*
X22420037Y-63194371D01*
X22420037Y-63194370D01*
X22420046Y-63194369D01*
X22688161Y-63094367D01*
X22939315Y-62957226D01*
X23168395Y-62785739D01*
X23370739Y-62583395D01*
X23542226Y-62354315D01*
X23679367Y-62103161D01*
X23779369Y-61835046D01*
X23840196Y-61555428D01*
X23860610Y-61270000D01*
X23857665Y-61228833D01*
X28200624Y-61228833D01*
X28210944Y-61392860D01*
X28261732Y-61549171D01*
X28261734Y-61549175D01*
X28349798Y-61687940D01*
X28469603Y-61800445D01*
X28469611Y-61800451D01*
X28549860Y-61844568D01*
X28613632Y-61879627D01*
X28772823Y-61920500D01*
X28772827Y-61920500D01*
X28895923Y-61920500D01*
X28895925Y-61920500D01*
X28895930Y-61920499D01*
X28895934Y-61920499D01*
X28909174Y-61918826D01*
X29018058Y-61905071D01*
X29170871Y-61844568D01*
X29183977Y-61835046D01*
X29303835Y-61747965D01*
X29303835Y-61747963D01*
X29303837Y-61747963D01*
X29408600Y-61621326D01*
X29478579Y-61472613D01*
X29509376Y-61311170D01*
X29499056Y-61147140D01*
X29448268Y-60990829D01*
X29444293Y-60984566D01*
X29360201Y-60852059D01*
X29240396Y-60739554D01*
X29240388Y-60739548D01*
X29096371Y-60660374D01*
X29096361Y-60660371D01*
X28937180Y-60619500D01*
X28937177Y-60619500D01*
X28814075Y-60619500D01*
X28814065Y-60619500D01*
X28691942Y-60634929D01*
X28691939Y-60634929D01*
X28539130Y-60695431D01*
X28539121Y-60695436D01*
X28406164Y-60792034D01*
X28406162Y-60792037D01*
X28301400Y-60918673D01*
X28231420Y-61067387D01*
X28216207Y-61147139D01*
X28200624Y-61228830D01*
X28200624Y-61228832D01*
X28200624Y-61228833D01*
X23857665Y-61228833D01*
X23857665Y-61228830D01*
X23846119Y-61067387D01*
X23840196Y-60984572D01*
X23786895Y-60739552D01*
X23779371Y-60704962D01*
X23779370Y-60704960D01*
X23779369Y-60704954D01*
X23679367Y-60436839D01*
X23649178Y-60381553D01*
X23634327Y-60313282D01*
X23658743Y-60247817D01*
X23714676Y-60205946D01*
X23780152Y-60200120D01*
X23800921Y-60203889D01*
X23892450Y-60220500D01*
X23892453Y-60220500D01*
X24361148Y-60220500D01*
X24361155Y-60220500D01*
X24529188Y-60205377D01*
X24548236Y-60200120D01*
X24746160Y-60145496D01*
X24746162Y-60145495D01*
X24746170Y-60145493D01*
X24948973Y-60047829D01*
X25131078Y-59915522D01*
X25188205Y-59855771D01*
X25248761Y-59820920D01*
X25318547Y-59824339D01*
X25359416Y-59848084D01*
X25516996Y-59985759D01*
X25517000Y-59985762D01*
X25517004Y-59985765D01*
X25710236Y-60101215D01*
X25920976Y-60180307D01*
X26142450Y-60220500D01*
X26142453Y-60220500D01*
X26711148Y-60220500D01*
X26711155Y-60220500D01*
X26879188Y-60205377D01*
X26898236Y-60200120D01*
X27096160Y-60145496D01*
X27096162Y-60145495D01*
X27096170Y-60145493D01*
X27298973Y-60047829D01*
X27481078Y-59915522D01*
X27636632Y-59752825D01*
X27760635Y-59564968D01*
X27849103Y-59357988D01*
X27899191Y-59138537D01*
X27909290Y-58913670D01*
X27879075Y-58690613D01*
X27856110Y-58619937D01*
X27854116Y-58550098D01*
X27886358Y-58493943D01*
X28198485Y-58181816D01*
X28259806Y-58148334D01*
X28286164Y-58145500D01*
X29070447Y-58145500D01*
X29137486Y-58165185D01*
X29183241Y-58217989D01*
X29193185Y-58287147D01*
X29173934Y-58337810D01*
X29161701Y-58356342D01*
X29149362Y-58375036D01*
X29060899Y-58582004D01*
X29060895Y-58582017D01*
X29010810Y-58801457D01*
X29010808Y-58801468D01*
X29005769Y-58913674D01*
X29000710Y-59026330D01*
X29030925Y-59249387D01*
X29030926Y-59249390D01*
X29100483Y-59463465D01*
X29207146Y-59661678D01*
X29207148Y-59661681D01*
X29347489Y-59837663D01*
X29347491Y-59837664D01*
X29347492Y-59837666D01*
X29517004Y-59985765D01*
X29710236Y-60101215D01*
X29920976Y-60180307D01*
X30142450Y-60220500D01*
X30142453Y-60220500D01*
X30711148Y-60220500D01*
X30711155Y-60220500D01*
X30879188Y-60205377D01*
X30898236Y-60200120D01*
X31096160Y-60145496D01*
X31096162Y-60145495D01*
X31096170Y-60145493D01*
X31298973Y-60047829D01*
X31481078Y-59915522D01*
X31636632Y-59752825D01*
X31670716Y-59701188D01*
X31724075Y-59656084D01*
X31774203Y-59645500D01*
X32218837Y-59645500D01*
X32285876Y-59665185D01*
X32306517Y-59681818D01*
X36656619Y-64031921D01*
X36659171Y-64034633D01*
X36698771Y-64079332D01*
X36747955Y-64113281D01*
X36750944Y-64115481D01*
X36797972Y-64152325D01*
X36806514Y-64156169D01*
X36826061Y-64167194D01*
X36833774Y-64172518D01*
X36889643Y-64193706D01*
X36893082Y-64195131D01*
X36947561Y-64219650D01*
X36956776Y-64221338D01*
X36978389Y-64227363D01*
X36987155Y-64230688D01*
X37046471Y-64237890D01*
X37050158Y-64238451D01*
X37108915Y-64249219D01*
X37164889Y-64245833D01*
X37168527Y-64245613D01*
X37172272Y-64245500D01*
X38014529Y-64245500D01*
X38081568Y-64265185D01*
X38111476Y-64292187D01*
X38227489Y-64437663D01*
X38227491Y-64437664D01*
X38227492Y-64437666D01*
X38397004Y-64585765D01*
X38590236Y-64701215D01*
X38800976Y-64780307D01*
X39022450Y-64820500D01*
X39022453Y-64820500D01*
X39591148Y-64820500D01*
X39591155Y-64820500D01*
X39759188Y-64805377D01*
X39771022Y-64802111D01*
X39976160Y-64745496D01*
X39976162Y-64745495D01*
X39976170Y-64745493D01*
X40178973Y-64647829D01*
X40361078Y-64515522D01*
X40516632Y-64352825D01*
X40640635Y-64164968D01*
X40642420Y-64160793D01*
X40729100Y-63957995D01*
X40729099Y-63957995D01*
X40729103Y-63957988D01*
X40779191Y-63738537D01*
X40789290Y-63513670D01*
X40759075Y-63290613D01*
X40689517Y-63076536D01*
X40582852Y-62878319D01*
X40455863Y-62719080D01*
X40442510Y-62702336D01*
X40442508Y-62702334D01*
X40272996Y-62554235D01*
X40079764Y-62438785D01*
X39956161Y-62392396D01*
X39869023Y-62359692D01*
X39647550Y-62319500D01*
X39647547Y-62319500D01*
X39078845Y-62319500D01*
X39040399Y-62322960D01*
X38910813Y-62334622D01*
X38910807Y-62334623D01*
X38693839Y-62394503D01*
X38693826Y-62394508D01*
X38491033Y-62492167D01*
X38491025Y-62492171D01*
X38308927Y-62624473D01*
X38308926Y-62624474D01*
X38308922Y-62624477D01*
X38308922Y-62624478D01*
X38153368Y-62787175D01*
X38119283Y-62838811D01*
X38065925Y-62883916D01*
X38015797Y-62894500D01*
X37481164Y-62894500D01*
X37414125Y-62874815D01*
X37393483Y-62858181D01*
X36335747Y-61800445D01*
X35764135Y-61228833D01*
X40280624Y-61228833D01*
X40290944Y-61392860D01*
X40341732Y-61549171D01*
X40341734Y-61549175D01*
X40429798Y-61687940D01*
X40549603Y-61800445D01*
X40549611Y-61800451D01*
X40629860Y-61844568D01*
X40693632Y-61879627D01*
X40852823Y-61920500D01*
X40852827Y-61920500D01*
X40975923Y-61920500D01*
X40975925Y-61920500D01*
X40975930Y-61920499D01*
X40975934Y-61920499D01*
X40989174Y-61918826D01*
X41098058Y-61905071D01*
X41250871Y-61844568D01*
X41263977Y-61835046D01*
X41383835Y-61747965D01*
X41383835Y-61747963D01*
X41383837Y-61747963D01*
X41488600Y-61621326D01*
X41558579Y-61472613D01*
X41589376Y-61311170D01*
X41579056Y-61147140D01*
X41528268Y-60990829D01*
X41524293Y-60984566D01*
X41440201Y-60852059D01*
X41320396Y-60739554D01*
X41320388Y-60739548D01*
X41176371Y-60660374D01*
X41176361Y-60660371D01*
X41017180Y-60619500D01*
X41017177Y-60619500D01*
X40894075Y-60619500D01*
X40894065Y-60619500D01*
X40771942Y-60634929D01*
X40771939Y-60634929D01*
X40619130Y-60695431D01*
X40619121Y-60695436D01*
X40486164Y-60792034D01*
X40486162Y-60792037D01*
X40381400Y-60918673D01*
X40311420Y-61067387D01*
X40296207Y-61147139D01*
X40280624Y-61228830D01*
X40280624Y-61228832D01*
X40280624Y-61228833D01*
X35764135Y-61228833D01*
X33043385Y-58508084D01*
X33040851Y-58505392D01*
X33001229Y-58460668D01*
X32952061Y-58426730D01*
X32949051Y-58424515D01*
X32902025Y-58387672D01*
X32902023Y-58387671D01*
X32893476Y-58383824D01*
X32873949Y-58372812D01*
X32872136Y-58371561D01*
X32828137Y-58317285D01*
X32820467Y-58247838D01*
X32851560Y-58185268D01*
X32911545Y-58149441D01*
X32942560Y-58145500D01*
X36482722Y-58145500D01*
X36486466Y-58145613D01*
X36546082Y-58149219D01*
X36546082Y-58149218D01*
X36546085Y-58149219D01*
X36582327Y-58142577D01*
X36604836Y-58138453D01*
X36608540Y-58137889D01*
X36629888Y-58135296D01*
X36667845Y-58130688D01*
X36676605Y-58127365D01*
X36698221Y-58121338D01*
X36707439Y-58119650D01*
X36708706Y-58119080D01*
X36761916Y-58095132D01*
X36765358Y-58093705D01*
X36821226Y-58072518D01*
X36828933Y-58067197D01*
X36848480Y-58056172D01*
X36857028Y-58052326D01*
X36857032Y-58052322D01*
X36861313Y-58049735D01*
X36928867Y-58031897D01*
X36995342Y-58053413D01*
X37039631Y-58107452D01*
X37047674Y-58176857D01*
X37028953Y-58224161D01*
X36929363Y-58375033D01*
X36840899Y-58582004D01*
X36840895Y-58582017D01*
X36790810Y-58801457D01*
X36790808Y-58801468D01*
X36785769Y-58913674D01*
X36780710Y-59026330D01*
X36810925Y-59249387D01*
X36810926Y-59249390D01*
X36880483Y-59463465D01*
X36987146Y-59661678D01*
X36987148Y-59661681D01*
X37127489Y-59837663D01*
X37127491Y-59837664D01*
X37127492Y-59837666D01*
X37297004Y-59985765D01*
X37490236Y-60101215D01*
X37700976Y-60180307D01*
X37922450Y-60220500D01*
X37922453Y-60220500D01*
X38491148Y-60220500D01*
X38491155Y-60220500D01*
X38659188Y-60205377D01*
X38678236Y-60200120D01*
X38876160Y-60145496D01*
X38876162Y-60145495D01*
X38876170Y-60145493D01*
X39078973Y-60047829D01*
X39261078Y-59915522D01*
X39416632Y-59752825D01*
X39540635Y-59564968D01*
X39629103Y-59357988D01*
X39679191Y-59138537D01*
X39689290Y-58913670D01*
X39659075Y-58690613D01*
X39589517Y-58476536D01*
X39482852Y-58278319D01*
X39405895Y-58181818D01*
X39342510Y-58102336D01*
X39342508Y-58102334D01*
X39172996Y-57954235D01*
X38979764Y-57838785D01*
X38857104Y-57792750D01*
X38769023Y-57759692D01*
X38547550Y-57719500D01*
X38547547Y-57719500D01*
X37978845Y-57719500D01*
X37940745Y-57722929D01*
X37810813Y-57734622D01*
X37810807Y-57734623D01*
X37593839Y-57794503D01*
X37593826Y-57794508D01*
X37391033Y-57892167D01*
X37391028Y-57892170D01*
X37375179Y-57903685D01*
X37309372Y-57927163D01*
X37241318Y-57911336D01*
X37192625Y-57861229D01*
X37178751Y-57792750D01*
X37204102Y-57727642D01*
X37214607Y-57715692D01*
X37610411Y-57319888D01*
X37671732Y-57286405D01*
X37738354Y-57290290D01*
X37765386Y-57299571D01*
X38010665Y-57340500D01*
X38259335Y-57340500D01*
X38504614Y-57299571D01*
X38739810Y-57218828D01*
X38958509Y-57100474D01*
X39154744Y-56947738D01*
X39323164Y-56764785D01*
X39449326Y-56571678D01*
X39502472Y-56526322D01*
X39553135Y-56515500D01*
X40628837Y-56515500D01*
X40695876Y-56535185D01*
X40716517Y-56551819D01*
X42623182Y-58458483D01*
X42656666Y-58519804D01*
X42659500Y-58546162D01*
X42659500Y-62333124D01*
X42639815Y-62400163D01*
X42589302Y-62444844D01*
X42491029Y-62492169D01*
X42491025Y-62492171D01*
X42308927Y-62624473D01*
X42308925Y-62624474D01*
X42153366Y-62787176D01*
X42029363Y-62975033D01*
X41940899Y-63182004D01*
X41940895Y-63182017D01*
X41890810Y-63401457D01*
X41890808Y-63401468D01*
X41885769Y-63513674D01*
X41880710Y-63626330D01*
X41910925Y-63849387D01*
X41910926Y-63849390D01*
X41980483Y-64063465D01*
X42087146Y-64261678D01*
X42087148Y-64261681D01*
X42227489Y-64437663D01*
X42227491Y-64437664D01*
X42227492Y-64437666D01*
X42397004Y-64585765D01*
X42590236Y-64701215D01*
X42800976Y-64780307D01*
X43022450Y-64820500D01*
X43022453Y-64820500D01*
X43591148Y-64820500D01*
X43591155Y-64820500D01*
X43759188Y-64805377D01*
X43771022Y-64802111D01*
X43976160Y-64745496D01*
X43976162Y-64745495D01*
X43976170Y-64745493D01*
X44178973Y-64647829D01*
X44361078Y-64515522D01*
X44418205Y-64455771D01*
X44478761Y-64420920D01*
X44548547Y-64424339D01*
X44589416Y-64448084D01*
X44746996Y-64585759D01*
X44747000Y-64585762D01*
X44747004Y-64585765D01*
X44940236Y-64701215D01*
X45150976Y-64780307D01*
X45372450Y-64820500D01*
X45372453Y-64820500D01*
X45841148Y-64820500D01*
X45841155Y-64820500D01*
X46009188Y-64805377D01*
X46021022Y-64802111D01*
X46226160Y-64745496D01*
X46226162Y-64745495D01*
X46226170Y-64745493D01*
X46428973Y-64647829D01*
X46611078Y-64515522D01*
X46766632Y-64352825D01*
X46890635Y-64164968D01*
X46892420Y-64160793D01*
X46979100Y-63957995D01*
X46979099Y-63957995D01*
X46979103Y-63957988D01*
X47029191Y-63738537D01*
X47039290Y-63513670D01*
X47009075Y-63290613D01*
X47003086Y-63272183D01*
X47001090Y-63202344D01*
X47037169Y-63142510D01*
X47099869Y-63111681D01*
X47164348Y-63117681D01*
X47369954Y-63194369D01*
X47369960Y-63194370D01*
X47369962Y-63194371D01*
X47649566Y-63255195D01*
X47649568Y-63255195D01*
X47649572Y-63255196D01*
X47863552Y-63270500D01*
X48006448Y-63270500D01*
X48220428Y-63255196D01*
X48463386Y-63202344D01*
X48500037Y-63194371D01*
X48500037Y-63194370D01*
X48500046Y-63194369D01*
X48768161Y-63094367D01*
X49019315Y-62957226D01*
X49248395Y-62785739D01*
X49450739Y-62583395D01*
X49622226Y-62354315D01*
X49759367Y-62103161D01*
X49859369Y-61835046D01*
X49920196Y-61555428D01*
X49940610Y-61270000D01*
X49937665Y-61228830D01*
X49926119Y-61067387D01*
X49920196Y-60984572D01*
X49866895Y-60739552D01*
X49859371Y-60704962D01*
X49859370Y-60704960D01*
X49859369Y-60704954D01*
X49759367Y-60436839D01*
X49633289Y-60205946D01*
X49622229Y-60185690D01*
X49622224Y-60185682D01*
X49450745Y-59956612D01*
X49450729Y-59956594D01*
X49248405Y-59754270D01*
X49248387Y-59754254D01*
X49019317Y-59582775D01*
X49019309Y-59582770D01*
X48768166Y-59445635D01*
X48768167Y-59445635D01*
X48639088Y-59397491D01*
X48500046Y-59345631D01*
X48500043Y-59345630D01*
X48500037Y-59345628D01*
X48220433Y-59284804D01*
X48006450Y-59269500D01*
X48006448Y-59269500D01*
X47863552Y-59269500D01*
X47863549Y-59269500D01*
X47649566Y-59284804D01*
X47369962Y-59345628D01*
X47101833Y-59445635D01*
X46850690Y-59582770D01*
X46850682Y-59582775D01*
X46621612Y-59754254D01*
X46621594Y-59754270D01*
X46419270Y-59956594D01*
X46419254Y-59956612D01*
X46247775Y-60185682D01*
X46247770Y-60185690D01*
X46110635Y-60436833D01*
X46010628Y-60704962D01*
X45949804Y-60984566D01*
X45929390Y-61269998D01*
X45929390Y-61270001D01*
X45949804Y-61555433D01*
X46010628Y-61835037D01*
X46010630Y-61835043D01*
X46010631Y-61835046D01*
X46042504Y-61920500D01*
X46110635Y-62103166D01*
X46140820Y-62158445D01*
X46155672Y-62226718D01*
X46131255Y-62292182D01*
X46075322Y-62334054D01*
X46009847Y-62339879D01*
X45897551Y-62319500D01*
X45897547Y-62319500D01*
X45428845Y-62319500D01*
X45390399Y-62322960D01*
X45260813Y-62334622D01*
X45260807Y-62334623D01*
X45043839Y-62394503D01*
X45043826Y-62394508D01*
X44841033Y-62492167D01*
X44841025Y-62492171D01*
X44658927Y-62624473D01*
X44658918Y-62624480D01*
X44601793Y-62684228D01*
X44541236Y-62719080D01*
X44471451Y-62715659D01*
X44430585Y-62691917D01*
X44272996Y-62554235D01*
X44079764Y-62438785D01*
X44074984Y-62435929D01*
X44075701Y-62434728D01*
X44028829Y-62392396D01*
X44010500Y-62327514D01*
X44010500Y-58237277D01*
X44010613Y-58233533D01*
X44014219Y-58173915D01*
X44009531Y-58148334D01*
X44003451Y-58115158D01*
X44002889Y-58111463D01*
X43998160Y-58072518D01*
X43995688Y-58052155D01*
X43992363Y-58043389D01*
X43986338Y-58021776D01*
X43984650Y-58012561D01*
X43960126Y-57958070D01*
X43958703Y-57954634D01*
X43958552Y-57954235D01*
X43937518Y-57898774D01*
X43936717Y-57897614D01*
X43932198Y-57891066D01*
X43921171Y-57871515D01*
X43917327Y-57862974D01*
X43917326Y-57862973D01*
X43917326Y-57862972D01*
X43880465Y-57815923D01*
X43878258Y-57812922D01*
X43844332Y-57763771D01*
X43799633Y-57724171D01*
X43796921Y-57721619D01*
X41453385Y-55378084D01*
X41450851Y-55375392D01*
X41411229Y-55330668D01*
X41362061Y-55296730D01*
X41359051Y-55294515D01*
X41312025Y-55257672D01*
X41312023Y-55257671D01*
X41303476Y-55253824D01*
X41283938Y-55242805D01*
X41276226Y-55237482D01*
X41276224Y-55237481D01*
X41220366Y-55216296D01*
X41216907Y-55214863D01*
X41162440Y-55190350D01*
X41162441Y-55190350D01*
X41155087Y-55189002D01*
X41153222Y-55188660D01*
X41131614Y-55182637D01*
X41122845Y-55179311D01*
X41063529Y-55172108D01*
X41059828Y-55171545D01*
X41001089Y-55160781D01*
X41001082Y-55160781D01*
X40941466Y-55164387D01*
X40937722Y-55164500D01*
X39553135Y-55164500D01*
X39486096Y-55144815D01*
X39449326Y-55108321D01*
X39323166Y-54915217D01*
X39301557Y-54891744D01*
X39154744Y-54732262D01*
X38958509Y-54579526D01*
X38958507Y-54579525D01*
X38958506Y-54579524D01*
X38739811Y-54461172D01*
X38739802Y-54461169D01*
X38504616Y-54380429D01*
X38259335Y-54339500D01*
X38010665Y-54339500D01*
X37765383Y-54380429D01*
X37530197Y-54461169D01*
X37530188Y-54461172D01*
X37311493Y-54579524D01*
X37115257Y-54732261D01*
X36946833Y-54915217D01*
X36810826Y-55123393D01*
X36710936Y-55351118D01*
X36649892Y-55592175D01*
X36649890Y-55592187D01*
X36629357Y-55839994D01*
X36629357Y-55840005D01*
X36649891Y-56087817D01*
X36689575Y-56244526D01*
X36686950Y-56314346D01*
X36657050Y-56362647D01*
X36261518Y-56758181D01*
X36200195Y-56791666D01*
X36173837Y-56794500D01*
X33032882Y-56794500D01*
X32965843Y-56774815D01*
X32920088Y-56722011D01*
X32910144Y-56652853D01*
X32929073Y-56602679D01*
X32949326Y-56571679D01*
X32959173Y-56556607D01*
X33059063Y-56328881D01*
X33120108Y-56087821D01*
X33120109Y-56087812D01*
X33140643Y-55840005D01*
X33140643Y-55839994D01*
X33120109Y-55592187D01*
X33120107Y-55592175D01*
X33059063Y-55351118D01*
X32959173Y-55123393D01*
X32823166Y-54915217D01*
X32801557Y-54891744D01*
X32654744Y-54732262D01*
X32458509Y-54579526D01*
X32458507Y-54579525D01*
X32458506Y-54579524D01*
X32239811Y-54461172D01*
X32239802Y-54461169D01*
X32004616Y-54380429D01*
X31759335Y-54339500D01*
X31510665Y-54339500D01*
X31265383Y-54380429D01*
X31030197Y-54461169D01*
X31030188Y-54461172D01*
X30811493Y-54579524D01*
X30615257Y-54732261D01*
X30446833Y-54915217D01*
X30310826Y-55123393D01*
X30210936Y-55351118D01*
X30149892Y-55592175D01*
X30149890Y-55592187D01*
X30129357Y-55839994D01*
X30129357Y-55840005D01*
X30149890Y-56087812D01*
X30149892Y-56087824D01*
X30210936Y-56328881D01*
X30310826Y-56556606D01*
X30340927Y-56602679D01*
X30361114Y-56669568D01*
X30341934Y-56736754D01*
X30289476Y-56782904D01*
X30237118Y-56794500D01*
X27977278Y-56794500D01*
X27973534Y-56794387D01*
X27913918Y-56790781D01*
X27913909Y-56790781D01*
X27855171Y-56801545D01*
X27851470Y-56802108D01*
X27792156Y-56809311D01*
X27783381Y-56812639D01*
X27761778Y-56818660D01*
X27757259Y-56819488D01*
X27752560Y-56820350D01*
X27698075Y-56844869D01*
X27694618Y-56846301D01*
X27638774Y-56867481D01*
X27638770Y-56867484D01*
X27631056Y-56872808D01*
X27611525Y-56883824D01*
X27602971Y-56887674D01*
X27602970Y-56887674D01*
X27555932Y-56924525D01*
X27552917Y-56926744D01*
X27503771Y-56960667D01*
X27503769Y-56960669D01*
X27464172Y-57005364D01*
X27461605Y-57008091D01*
X27342180Y-57127516D01*
X27280857Y-57161001D01*
X27211165Y-57156017D01*
X27155232Y-57114145D01*
X27130815Y-57048681D01*
X27130500Y-57039862D01*
X27130500Y-55047276D01*
X27130613Y-55043533D01*
X27134219Y-54983915D01*
X27123453Y-54925168D01*
X27122889Y-54921463D01*
X27122130Y-54915215D01*
X27115688Y-54862155D01*
X27112363Y-54853389D01*
X27106338Y-54831776D01*
X27104650Y-54822561D01*
X27080126Y-54768070D01*
X27078703Y-54764634D01*
X27066426Y-54732262D01*
X27057518Y-54708774D01*
X27052198Y-54701066D01*
X27041171Y-54681515D01*
X27037326Y-54672972D01*
X27030944Y-54664827D01*
X27000486Y-54625949D01*
X26998265Y-54622932D01*
X26964333Y-54573772D01*
X26919624Y-54534163D01*
X26916912Y-54531611D01*
X26201816Y-53816515D01*
X26168333Y-53755195D01*
X26165500Y-53728845D01*
X26165500Y-53612553D01*
X26185185Y-53545514D01*
X26237990Y-53499759D01*
X26307148Y-53489816D01*
X26365662Y-53514701D01*
X26509372Y-53626555D01*
X26509378Y-53626559D01*
X26509381Y-53626561D01*
X26710050Y-53735158D01*
X26925857Y-53809245D01*
X27150915Y-53846800D01*
X27379085Y-53846800D01*
X27604143Y-53809245D01*
X27819950Y-53735158D01*
X28020619Y-53626561D01*
X28200677Y-53486417D01*
X28355213Y-53318547D01*
X28480010Y-53127530D01*
X28571664Y-52918578D01*
X28627677Y-52697391D01*
X28646519Y-52470000D01*
X28643639Y-52435249D01*
X28627678Y-52242616D01*
X28627676Y-52242608D01*
X28625645Y-52234586D01*
X28594316Y-52110873D01*
X28596940Y-52041052D01*
X28626840Y-51992749D01*
X28642443Y-51977147D01*
X28747772Y-51871818D01*
X28809097Y-51838334D01*
X28835454Y-51835500D01*
X41090093Y-51835500D01*
X41157132Y-51855185D01*
X41202887Y-51907989D01*
X41212831Y-51977147D01*
X41203649Y-52009310D01*
X41198335Y-52021422D01*
X41142323Y-52242608D01*
X41142321Y-52242616D01*
X41123481Y-52469994D01*
X41123481Y-52470005D01*
X41142321Y-52697383D01*
X41142323Y-52697391D01*
X41198335Y-52918577D01*
X41289989Y-53127529D01*
X41414787Y-53318548D01*
X41569319Y-53486413D01*
X41569323Y-53486417D01*
X41749381Y-53626561D01*
X41950050Y-53735158D01*
X42165857Y-53809245D01*
X42390915Y-53846800D01*
X42619085Y-53846800D01*
X42844143Y-53809245D01*
X43059950Y-53735158D01*
X43260619Y-53626561D01*
X43440677Y-53486417D01*
X43595213Y-53318547D01*
X43720010Y-53127530D01*
X43811664Y-52918578D01*
X43867677Y-52697391D01*
X43886519Y-52470000D01*
X43884377Y-52444145D01*
X43898458Y-52375709D01*
X43947303Y-52325750D01*
X44015404Y-52310129D01*
X44081139Y-52333806D01*
X44095633Y-52346223D01*
X45053741Y-53304332D01*
X45863197Y-54113788D01*
X45873022Y-54126051D01*
X45873243Y-54125869D01*
X45878211Y-54131874D01*
X45927932Y-54178566D01*
X45929332Y-54179923D01*
X45949523Y-54200115D01*
X45949527Y-54200118D01*
X45949529Y-54200120D01*
X45955011Y-54204373D01*
X45959443Y-54208157D01*
X45993418Y-54240062D01*
X46010976Y-54249714D01*
X46027235Y-54260395D01*
X46043064Y-54272673D01*
X46085838Y-54291182D01*
X46091056Y-54293738D01*
X46131908Y-54316197D01*
X46144875Y-54319526D01*
X46204911Y-54355263D01*
X46236097Y-54417787D01*
X46228530Y-54487245D01*
X46226419Y-54492034D01*
X46201096Y-54546339D01*
X46201094Y-54546344D01*
X46139938Y-54774586D01*
X46139936Y-54774596D01*
X46119341Y-55009999D01*
X46119341Y-55010000D01*
X46139936Y-55245403D01*
X46139938Y-55245413D01*
X46201094Y-55473655D01*
X46201096Y-55473659D01*
X46201097Y-55473663D01*
X46205000Y-55482032D01*
X46300965Y-55687830D01*
X46300967Y-55687834D01*
X46398380Y-55826953D01*
X46436505Y-55881401D01*
X46603599Y-56048495D01*
X46659767Y-56087824D01*
X46797165Y-56184032D01*
X46797167Y-56184033D01*
X46797170Y-56184035D01*
X47011337Y-56283903D01*
X47239592Y-56345063D01*
X47427918Y-56361539D01*
X47474999Y-56365659D01*
X47475000Y-56365659D01*
X47475001Y-56365659D01*
X47514234Y-56362226D01*
X47710408Y-56345063D01*
X47938663Y-56283903D01*
X48152830Y-56184035D01*
X48346401Y-56048495D01*
X48513495Y-55881401D01*
X48643424Y-55695842D01*
X48698002Y-55652217D01*
X48767500Y-55645023D01*
X48829855Y-55676546D01*
X48846575Y-55695842D01*
X48976500Y-55881395D01*
X48976505Y-55881401D01*
X49143599Y-56048495D01*
X49199767Y-56087824D01*
X49337165Y-56184032D01*
X49337167Y-56184033D01*
X49337170Y-56184035D01*
X49551337Y-56283903D01*
X49779592Y-56345063D01*
X49967918Y-56361539D01*
X50014999Y-56365659D01*
X50015000Y-56365659D01*
X50015001Y-56365659D01*
X50054234Y-56362226D01*
X50250408Y-56345063D01*
X50478663Y-56283903D01*
X50692830Y-56184035D01*
X50886401Y-56048495D01*
X51053495Y-55881401D01*
X51189035Y-55687830D01*
X51288903Y-55473663D01*
X51350063Y-55245408D01*
X51370659Y-55010000D01*
X51350063Y-54774592D01*
X51288903Y-54546337D01*
X51189035Y-54332171D01*
X51180181Y-54319525D01*
X51053494Y-54138597D01*
X50886402Y-53971506D01*
X50886396Y-53971501D01*
X50700842Y-53841575D01*
X50657217Y-53786998D01*
X50650023Y-53717500D01*
X50681546Y-53655145D01*
X50700842Y-53638425D01*
X50833532Y-53545514D01*
X50886401Y-53508495D01*
X51053495Y-53341401D01*
X51189035Y-53147830D01*
X51288903Y-52933663D01*
X51350063Y-52705408D01*
X51370659Y-52470000D01*
X51370658Y-52469994D01*
X51350764Y-52242608D01*
X51350063Y-52234592D01*
X51303626Y-52061285D01*
X51288905Y-52006344D01*
X51288904Y-52006343D01*
X51288903Y-52006337D01*
X51189035Y-51792171D01*
X51180181Y-51779525D01*
X51053494Y-51598597D01*
X50886402Y-51431506D01*
X50886396Y-51431501D01*
X50700842Y-51301575D01*
X50657217Y-51246998D01*
X50650023Y-51177500D01*
X50681546Y-51115145D01*
X50700842Y-51098425D01*
X50833531Y-51005515D01*
X50886401Y-50968495D01*
X51053495Y-50801401D01*
X51189035Y-50607830D01*
X51288903Y-50393663D01*
X51350063Y-50165408D01*
X51370659Y-49930000D01*
X51370658Y-49929994D01*
X51363694Y-49850394D01*
X51350063Y-49694592D01*
X51303626Y-49521285D01*
X51288905Y-49466344D01*
X51288904Y-49466343D01*
X51288903Y-49466337D01*
X51189035Y-49252171D01*
X51180181Y-49239525D01*
X51053494Y-49058597D01*
X50886402Y-48891506D01*
X50886396Y-48891501D01*
X50700842Y-48761575D01*
X50657217Y-48706998D01*
X50650023Y-48637500D01*
X50681546Y-48575145D01*
X50700842Y-48558425D01*
X50833531Y-48465515D01*
X50886401Y-48428495D01*
X51053495Y-48261401D01*
X51189035Y-48067830D01*
X51288903Y-47853663D01*
X51350063Y-47625408D01*
X51370659Y-47390000D01*
X51370658Y-47389994D01*
X51363694Y-47310394D01*
X51350063Y-47154592D01*
X51303626Y-46981285D01*
X51288905Y-46926344D01*
X51288904Y-46926343D01*
X51288903Y-46926337D01*
X51189035Y-46712171D01*
X51161145Y-46672339D01*
X51053494Y-46518597D01*
X50886402Y-46351506D01*
X50886396Y-46351501D01*
X50700842Y-46221575D01*
X50657217Y-46166998D01*
X50650023Y-46097500D01*
X50681546Y-46035145D01*
X50700842Y-46018425D01*
X50833531Y-45925515D01*
X50886401Y-45888495D01*
X51053495Y-45721401D01*
X51189035Y-45527830D01*
X51288903Y-45313663D01*
X51350063Y-45085408D01*
X51370659Y-44850000D01*
X51370658Y-44849994D01*
X51350764Y-44622608D01*
X51350063Y-44614592D01*
X51303626Y-44441285D01*
X51288905Y-44386344D01*
X51288904Y-44386343D01*
X51288903Y-44386337D01*
X51189035Y-44172171D01*
X51184852Y-44166196D01*
X51053494Y-43978597D01*
X50886402Y-43811506D01*
X50886396Y-43811501D01*
X50700842Y-43681575D01*
X50657217Y-43626998D01*
X50650023Y-43557500D01*
X50681546Y-43495145D01*
X50700842Y-43478425D01*
X50833531Y-43385515D01*
X50886401Y-43348495D01*
X51053495Y-43181401D01*
X51189035Y-42987830D01*
X51288903Y-42773663D01*
X51350063Y-42545408D01*
X51370659Y-42310000D01*
X51370658Y-42309994D01*
X51350764Y-42082608D01*
X51350063Y-42074592D01*
X51303626Y-41901285D01*
X51288905Y-41846344D01*
X51288904Y-41846343D01*
X51288903Y-41846337D01*
X51189035Y-41632171D01*
X51187709Y-41630276D01*
X51053494Y-41438597D01*
X50886402Y-41271506D01*
X50886396Y-41271501D01*
X50700842Y-41141575D01*
X50657217Y-41086998D01*
X50650023Y-41017500D01*
X50681546Y-40955145D01*
X50700842Y-40938425D01*
X50833531Y-40845515D01*
X50886401Y-40808495D01*
X51053495Y-40641401D01*
X51189035Y-40447830D01*
X51288903Y-40233663D01*
X51350063Y-40005408D01*
X51370659Y-39770000D01*
X51370658Y-39769994D01*
X51350764Y-39542608D01*
X51350063Y-39534592D01*
X51303626Y-39361285D01*
X51288905Y-39306344D01*
X51288904Y-39306343D01*
X51288903Y-39306337D01*
X51189035Y-39092171D01*
X51187709Y-39090276D01*
X51053494Y-38898597D01*
X50886402Y-38731506D01*
X50886396Y-38731501D01*
X50700842Y-38601575D01*
X50657217Y-38546998D01*
X50650023Y-38477500D01*
X50681546Y-38415145D01*
X50700842Y-38398425D01*
X50833531Y-38305515D01*
X50886401Y-38268495D01*
X51053495Y-38101401D01*
X51189035Y-37907830D01*
X51288903Y-37693663D01*
X51350063Y-37465408D01*
X51370659Y-37230000D01*
X51370658Y-37229994D01*
X51350764Y-37002608D01*
X51350063Y-36994592D01*
X51303626Y-36821285D01*
X51288905Y-36766344D01*
X51288904Y-36766343D01*
X51288903Y-36766337D01*
X51189035Y-36552171D01*
X51154143Y-36502339D01*
X51053494Y-36358597D01*
X50886402Y-36191506D01*
X50886396Y-36191501D01*
X50700842Y-36061575D01*
X50657217Y-36006998D01*
X50650023Y-35937500D01*
X50681546Y-35875145D01*
X50700842Y-35858425D01*
X50833531Y-35765515D01*
X50886401Y-35728495D01*
X51053495Y-35561401D01*
X51189035Y-35367830D01*
X51288903Y-35153663D01*
X51350063Y-34925408D01*
X51370659Y-34690000D01*
X51370658Y-34689994D01*
X51363694Y-34610394D01*
X51350063Y-34454592D01*
X51303626Y-34281285D01*
X51288905Y-34226344D01*
X51288904Y-34226343D01*
X51288903Y-34226337D01*
X51189035Y-34012171D01*
X51053495Y-33818599D01*
X51053494Y-33818597D01*
X50886402Y-33651506D01*
X50886395Y-33651501D01*
X50692834Y-33515967D01*
X50692830Y-33515965D01*
X50640500Y-33491563D01*
X50478663Y-33416097D01*
X50478659Y-33416096D01*
X50478655Y-33416094D01*
X50250413Y-33354938D01*
X50250403Y-33354936D01*
X50015001Y-33334341D01*
X50014999Y-33334341D01*
X49779590Y-33354937D01*
X49779589Y-33354937D01*
X49696591Y-33377175D01*
X49626741Y-33375511D01*
X49568880Y-33336348D01*
X49541377Y-33272119D01*
X49540500Y-33257400D01*
X49540500Y-32014445D01*
X49560185Y-31947406D01*
X49612989Y-31901651D01*
X49682147Y-31891707D01*
X49713235Y-31900423D01*
X49847012Y-31957603D01*
X50066463Y-32007691D01*
X50291330Y-32017790D01*
X50514387Y-31987575D01*
X50728464Y-31918017D01*
X50926681Y-31811352D01*
X51102666Y-31671008D01*
X51250765Y-31501496D01*
X51366215Y-31308264D01*
X51445307Y-31097524D01*
X51467294Y-30976367D01*
X51485500Y-30876049D01*
X51485500Y-30307352D01*
X51485500Y-30307345D01*
X51470377Y-30139312D01*
X51463349Y-30113846D01*
X51410496Y-29922339D01*
X51410491Y-29922326D01*
X51312832Y-29719533D01*
X51312828Y-29719525D01*
X51180526Y-29537427D01*
X51180525Y-29537425D01*
X51149762Y-29508013D01*
X51017825Y-29381868D01*
X51017823Y-29381866D01*
X50829966Y-29257863D01*
X50622995Y-29169399D01*
X50622982Y-29169395D01*
X50403542Y-29119310D01*
X50403538Y-29119309D01*
X50403537Y-29119309D01*
X50403536Y-29119308D01*
X50403531Y-29119308D01*
X50178674Y-29109210D01*
X50178673Y-29109210D01*
X50178670Y-29109210D01*
X49955613Y-29139425D01*
X49955610Y-29139425D01*
X49955609Y-29139426D01*
X49741533Y-29208984D01*
X49741529Y-29208985D01*
X49723257Y-29218818D01*
X49654894Y-29233250D01*
X49589581Y-29208432D01*
X49548054Y-29152242D01*
X49540500Y-29109623D01*
X49540500Y-28014445D01*
X49560185Y-27947406D01*
X49612989Y-27901651D01*
X49682147Y-27891707D01*
X49713235Y-27900423D01*
X49847012Y-27957603D01*
X50066463Y-28007691D01*
X50291330Y-28017790D01*
X50514387Y-27987575D01*
X50728464Y-27918017D01*
X50926681Y-27811352D01*
X51102666Y-27671008D01*
X51250765Y-27501496D01*
X51366215Y-27308264D01*
X51445307Y-27097524D01*
X51467134Y-26977252D01*
X51485500Y-26876049D01*
X51485500Y-26307352D01*
X51485500Y-26307345D01*
X51470377Y-26139312D01*
X51464443Y-26117810D01*
X51410496Y-25922339D01*
X51410491Y-25922326D01*
X51312832Y-25719533D01*
X51312828Y-25719525D01*
X51180526Y-25537427D01*
X51180519Y-25537419D01*
X51120772Y-25480294D01*
X51085920Y-25419737D01*
X51089339Y-25349951D01*
X51113082Y-25309085D01*
X51250765Y-25151496D01*
X51366215Y-24958264D01*
X51445307Y-24747524D01*
X51485500Y-24526047D01*
X51485500Y-24057345D01*
X51470377Y-23889312D01*
X51470195Y-23888652D01*
X51410496Y-23672339D01*
X51410491Y-23672326D01*
X51312832Y-23469533D01*
X51312828Y-23469525D01*
X51180526Y-23287427D01*
X51180525Y-23287425D01*
X51169511Y-23276895D01*
X51017825Y-23131868D01*
X51017823Y-23131866D01*
X50829966Y-23007863D01*
X50622995Y-22919399D01*
X50622982Y-22919395D01*
X50403542Y-22869310D01*
X50403538Y-22869309D01*
X50403537Y-22869309D01*
X50403536Y-22869308D01*
X50403531Y-22869308D01*
X50178674Y-22859210D01*
X50178673Y-22859210D01*
X50178670Y-22859210D01*
X50051208Y-22876475D01*
X49955610Y-22889425D01*
X49937180Y-22895414D01*
X49867339Y-22897408D01*
X49807507Y-22861326D01*
X49776680Y-22798625D01*
X49782681Y-22734152D01*
X49859369Y-22528546D01*
X49920196Y-22248928D01*
X49940610Y-21963500D01*
X49920196Y-21678072D01*
X49859369Y-21398454D01*
X49759367Y-21130339D01*
X49622226Y-20879185D01*
X49622224Y-20879182D01*
X49450745Y-20650112D01*
X49450729Y-20650094D01*
X49248405Y-20447770D01*
X49248387Y-20447754D01*
X49019317Y-20276275D01*
X49019309Y-20276270D01*
X48768166Y-20139135D01*
X48768167Y-20139135D01*
X48660914Y-20099132D01*
X48500046Y-20039131D01*
X48500043Y-20039130D01*
X48500037Y-20039128D01*
X48220433Y-19978304D01*
X48006450Y-19963000D01*
X48006448Y-19963000D01*
X47863552Y-19963000D01*
X47863549Y-19963000D01*
X47649566Y-19978304D01*
X47369962Y-20039128D01*
X47101833Y-20139135D01*
X46850690Y-20276270D01*
X46850682Y-20276275D01*
X46621612Y-20447754D01*
X46621594Y-20447770D01*
X46419270Y-20650094D01*
X46419254Y-20650112D01*
X46247775Y-20879182D01*
X46247770Y-20879190D01*
X46110635Y-21130333D01*
X46010628Y-21398462D01*
X45949804Y-21678066D01*
X45929390Y-21963498D01*
X45929390Y-21963501D01*
X45949804Y-22248933D01*
X46010628Y-22528537D01*
X46110635Y-22796666D01*
X46247770Y-23047809D01*
X46247775Y-23047817D01*
X46419254Y-23276887D01*
X46419270Y-23276905D01*
X46621594Y-23479229D01*
X46621612Y-23479245D01*
X46850682Y-23650724D01*
X46850690Y-23650729D01*
X47101833Y-23787864D01*
X47101832Y-23787864D01*
X47101836Y-23787865D01*
X47101839Y-23787867D01*
X47369954Y-23887869D01*
X47369960Y-23887870D01*
X47369962Y-23887871D01*
X47649566Y-23948695D01*
X47649568Y-23948695D01*
X47649572Y-23948696D01*
X47863552Y-23964000D01*
X48006448Y-23964000D01*
X48220428Y-23948696D01*
X48500046Y-23887869D01*
X48768161Y-23787867D01*
X48823444Y-23757679D01*
X48891716Y-23742827D01*
X48957181Y-23767243D01*
X48999053Y-23823176D01*
X49004879Y-23888652D01*
X48984500Y-24000949D01*
X48984500Y-24469656D01*
X48992490Y-24558443D01*
X48978893Y-24626976D01*
X48956670Y-24657237D01*
X48531208Y-25082699D01*
X48518951Y-25092520D01*
X48519134Y-25092741D01*
X48513122Y-25097714D01*
X48466432Y-25147432D01*
X48465079Y-25148829D01*
X48444889Y-25169019D01*
X48444877Y-25169032D01*
X48440621Y-25174517D01*
X48436837Y-25178947D01*
X48404937Y-25212918D01*
X48404936Y-25212920D01*
X48395284Y-25230476D01*
X48384610Y-25246726D01*
X48372329Y-25262561D01*
X48372324Y-25262568D01*
X48353815Y-25305338D01*
X48351245Y-25310584D01*
X48328803Y-25351406D01*
X48323822Y-25370807D01*
X48317521Y-25389210D01*
X48309562Y-25407602D01*
X48309561Y-25407605D01*
X48302271Y-25453627D01*
X48301087Y-25459346D01*
X48289501Y-25504472D01*
X48289500Y-25504482D01*
X48289500Y-25524516D01*
X48287973Y-25543915D01*
X48284840Y-25563694D01*
X48284840Y-25563695D01*
X48289225Y-25610083D01*
X48289500Y-25615921D01*
X48289500Y-28223060D01*
X48269815Y-28290099D01*
X48217011Y-28335854D01*
X48147853Y-28345798D01*
X48134664Y-28343165D01*
X48077269Y-28328429D01*
X48017177Y-28313000D01*
X47894075Y-28313000D01*
X47894065Y-28313000D01*
X47771942Y-28328429D01*
X47771939Y-28328429D01*
X47619130Y-28388931D01*
X47619121Y-28388936D01*
X47486164Y-28485534D01*
X47486162Y-28485537D01*
X47381400Y-28612173D01*
X47311420Y-28760887D01*
X47311419Y-28760893D01*
X47302286Y-28808767D01*
X47270388Y-28870930D01*
X47209945Y-28905979D01*
X47140148Y-28902787D01*
X47092802Y-28873211D01*
X46195803Y-27976212D01*
X46185980Y-27963950D01*
X46185759Y-27964134D01*
X46180786Y-27958122D01*
X46131066Y-27911432D01*
X46129666Y-27910075D01*
X46109476Y-27889884D01*
X46103986Y-27885625D01*
X46099561Y-27881847D01*
X46065582Y-27849938D01*
X46065580Y-27849936D01*
X46065577Y-27849935D01*
X46048029Y-27840288D01*
X46031763Y-27829604D01*
X46015933Y-27817325D01*
X45973168Y-27798818D01*
X45967922Y-27796248D01*
X45927093Y-27773803D01*
X45927092Y-27773802D01*
X45907693Y-27768822D01*
X45889281Y-27762518D01*
X45870898Y-27754562D01*
X45870892Y-27754560D01*
X45824874Y-27747272D01*
X45819152Y-27746087D01*
X45774021Y-27734500D01*
X45774019Y-27734500D01*
X45753984Y-27734500D01*
X45734586Y-27732973D01*
X45727162Y-27731797D01*
X45714805Y-27729840D01*
X45714804Y-27729840D01*
X45668416Y-27734225D01*
X45662578Y-27734500D01*
X44003299Y-27734500D01*
X43936260Y-27714815D01*
X43890505Y-27662011D01*
X43879681Y-27600773D01*
X43881799Y-27573851D01*
X43881800Y-27573841D01*
X43881799Y-26566160D01*
X43875350Y-26484204D01*
X43824282Y-26293615D01*
X43745661Y-26139313D01*
X43734705Y-26117810D01*
X43610532Y-25964467D01*
X43457189Y-25840294D01*
X43392796Y-25807485D01*
X43342000Y-25759511D01*
X43325205Y-25691690D01*
X43347742Y-25625555D01*
X43372930Y-25599146D01*
X43440671Y-25546422D01*
X43440672Y-25546420D01*
X43440677Y-25546417D01*
X43595213Y-25378547D01*
X43720010Y-25187530D01*
X43811664Y-24978578D01*
X43867677Y-24757391D01*
X43875976Y-24657237D01*
X43886519Y-24530005D01*
X43886519Y-24529994D01*
X43867678Y-24302616D01*
X43867677Y-24302613D01*
X43867677Y-24302609D01*
X43811664Y-24081422D01*
X43720010Y-23872470D01*
X43687805Y-23823176D01*
X43595212Y-23681451D01*
X43440680Y-23513586D01*
X43440676Y-23513582D01*
X43260620Y-23373440D01*
X43260619Y-23373439D01*
X43059950Y-23264842D01*
X43059942Y-23264839D01*
X42844145Y-23190755D01*
X42619085Y-23153200D01*
X42390915Y-23153200D01*
X42165854Y-23190755D01*
X41950057Y-23264839D01*
X41950049Y-23264842D01*
X41749379Y-23373440D01*
X41569323Y-23513582D01*
X41569319Y-23513586D01*
X41414787Y-23681451D01*
X41289989Y-23872470D01*
X41198335Y-24081422D01*
X41142323Y-24302608D01*
X41142321Y-24302616D01*
X41123481Y-24529994D01*
X41123481Y-24530005D01*
X41142321Y-24757383D01*
X41142323Y-24757391D01*
X41198335Y-24978577D01*
X41289989Y-25187529D01*
X41414787Y-25378548D01*
X41569319Y-25546413D01*
X41569323Y-25546417D01*
X41637070Y-25599146D01*
X41677883Y-25655856D01*
X41681558Y-25725629D01*
X41646927Y-25786313D01*
X41617203Y-25807485D01*
X41552810Y-25840294D01*
X41399467Y-25964467D01*
X41275294Y-26117810D01*
X41185717Y-26293616D01*
X41134649Y-26484205D01*
X41128200Y-26566153D01*
X41128200Y-27573830D01*
X41128201Y-27573852D01*
X41130320Y-27600774D01*
X41115954Y-27669151D01*
X41066902Y-27718907D01*
X41006702Y-27734500D01*
X31405452Y-27734500D01*
X31338413Y-27714815D01*
X31317771Y-27698181D01*
X28626840Y-25007249D01*
X28593355Y-24945926D01*
X28594316Y-24889126D01*
X28627675Y-24757399D01*
X28627678Y-24757383D01*
X28646519Y-24530005D01*
X28646519Y-24529994D01*
X28627678Y-24302616D01*
X28627677Y-24302613D01*
X28627677Y-24302609D01*
X28571664Y-24081422D01*
X28480010Y-23872470D01*
X28447805Y-23823176D01*
X28355212Y-23681451D01*
X28200680Y-23513586D01*
X28200676Y-23513582D01*
X28020620Y-23373440D01*
X28020619Y-23373439D01*
X27819950Y-23264842D01*
X27819942Y-23264839D01*
X27604145Y-23190755D01*
X27379085Y-23153200D01*
X27150915Y-23153200D01*
X26925854Y-23190755D01*
X26710057Y-23264839D01*
X26710049Y-23264842D01*
X26509379Y-23373440D01*
X26329323Y-23513582D01*
X26329319Y-23513586D01*
X26174787Y-23681451D01*
X26049989Y-23872470D01*
X25958335Y-24081422D01*
X25902323Y-24302608D01*
X25902321Y-24302617D01*
X25884613Y-24516324D01*
X25859460Y-24581509D01*
X25803058Y-24622747D01*
X25733314Y-24626945D01*
X25673356Y-24593765D01*
X25441819Y-24362228D01*
X25408334Y-24300905D01*
X25405500Y-24274547D01*
X25405500Y-24057352D01*
X25405500Y-24057345D01*
X25390377Y-23889312D01*
X25390195Y-23888652D01*
X25330496Y-23672339D01*
X25330491Y-23672326D01*
X25232832Y-23469533D01*
X25232828Y-23469525D01*
X25100526Y-23287427D01*
X25100525Y-23287425D01*
X25089511Y-23276895D01*
X24937825Y-23131868D01*
X24937823Y-23131866D01*
X24749966Y-23007863D01*
X24542995Y-22919399D01*
X24542982Y-22919395D01*
X24323542Y-22869310D01*
X24323538Y-22869309D01*
X24323537Y-22869309D01*
X24323536Y-22869308D01*
X24323531Y-22869308D01*
X24098674Y-22859210D01*
X24098673Y-22859210D01*
X24098670Y-22859210D01*
X23971208Y-22876475D01*
X23875610Y-22889425D01*
X23857180Y-22895414D01*
X23787339Y-22897408D01*
X23727507Y-22861326D01*
X23696680Y-22798625D01*
X23702681Y-22734152D01*
X23779369Y-22528546D01*
X23840196Y-22248928D01*
X23860610Y-21963500D01*
X23840196Y-21678072D01*
X23779369Y-21398454D01*
X23679367Y-21130339D01*
X23542226Y-20879185D01*
X23542224Y-20879182D01*
X23370745Y-20650112D01*
X23370729Y-20650094D01*
X23168405Y-20447770D01*
X23168387Y-20447754D01*
X22939317Y-20276275D01*
X22939309Y-20276270D01*
X22688166Y-20139135D01*
X22688167Y-20139135D01*
X22580915Y-20099132D01*
X22420046Y-20039131D01*
X22420043Y-20039130D01*
X22420037Y-20039128D01*
X22140433Y-19978304D01*
X21926450Y-19963000D01*
X21926448Y-19963000D01*
X21783552Y-19963000D01*
X21783549Y-19963000D01*
X21569566Y-19978304D01*
X21289962Y-20039128D01*
X21021833Y-20139135D01*
X20770690Y-20276270D01*
X20770682Y-20276275D01*
X20541612Y-20447754D01*
X20541594Y-20447770D01*
X20339270Y-20650094D01*
X20339254Y-20650112D01*
X20167775Y-20879182D01*
X20167770Y-20879190D01*
X20030635Y-21130333D01*
X19930628Y-21398462D01*
X19869804Y-21678066D01*
X19849390Y-21963498D01*
X19849390Y-21963501D01*
X19869804Y-22248933D01*
X19930628Y-22528537D01*
X20030635Y-22796666D01*
X20167770Y-23047809D01*
X20167775Y-23047817D01*
X20339254Y-23276887D01*
X20339270Y-23276905D01*
X20541594Y-23479229D01*
X20541612Y-23479245D01*
X20770682Y-23650724D01*
X20770690Y-23650729D01*
X21021833Y-23787864D01*
X21021832Y-23787864D01*
X21021836Y-23787865D01*
X21021839Y-23787867D01*
X21289954Y-23887869D01*
X21289960Y-23887870D01*
X21289962Y-23887871D01*
X21569566Y-23948695D01*
X21569568Y-23948695D01*
X21569572Y-23948696D01*
X21783552Y-23964000D01*
X21926448Y-23964000D01*
X22140428Y-23948696D01*
X22420046Y-23887869D01*
X22688161Y-23787867D01*
X22743444Y-23757679D01*
X22811716Y-23742827D01*
X22877181Y-23767243D01*
X22919053Y-23823176D01*
X22924879Y-23888652D01*
X22904500Y-24000949D01*
X22904500Y-24469651D01*
X22919622Y-24637686D01*
X22919623Y-24637692D01*
X22979503Y-24854660D01*
X22979508Y-24854673D01*
X23077167Y-25057466D01*
X23077171Y-25057474D01*
X23209473Y-25239572D01*
X23209480Y-25239580D01*
X23269227Y-25296705D01*
X23304079Y-25357262D01*
X23300660Y-25427048D01*
X23276916Y-25467916D01*
X23139236Y-25625502D01*
X23043157Y-25786313D01*
X23023785Y-25818736D01*
X23007998Y-25860799D01*
X22944692Y-26029476D01*
X22904500Y-26250950D01*
X22904500Y-26250953D01*
X22904500Y-26819655D01*
X22906566Y-26842609D01*
X22919622Y-26987686D01*
X22919623Y-26987692D01*
X22979503Y-27204660D01*
X22979508Y-27204673D01*
X23077167Y-27407466D01*
X23077171Y-27407474D01*
X23209473Y-27589572D01*
X23209474Y-27589574D01*
X23209477Y-27589577D01*
X23209478Y-27589578D01*
X23372175Y-27745132D01*
X23530947Y-27849936D01*
X23557319Y-27867344D01*
X23602424Y-27920704D01*
X23611521Y-27989979D01*
X23581720Y-28053174D01*
X23552129Y-28077563D01*
X23538069Y-28085878D01*
X23520603Y-28094435D01*
X23501972Y-28101812D01*
X23501960Y-28101819D01*
X23464268Y-28129204D01*
X23459385Y-28132411D01*
X23419278Y-28156131D01*
X23405112Y-28170297D01*
X23390322Y-28182929D01*
X23374112Y-28194706D01*
X23374109Y-28194709D01*
X23344408Y-28230611D01*
X23340475Y-28234933D01*
X22699944Y-28875464D01*
X22638621Y-28908949D01*
X22568929Y-28903965D01*
X22512996Y-28862093D01*
X22494332Y-28826101D01*
X22448268Y-28684329D01*
X22360202Y-28545560D01*
X22296281Y-28485534D01*
X22240396Y-28433054D01*
X22240388Y-28433048D01*
X22096371Y-28353874D01*
X22096361Y-28353871D01*
X21937180Y-28313000D01*
X21937177Y-28313000D01*
X21814075Y-28313000D01*
X21814065Y-28313000D01*
X21691942Y-28328429D01*
X21691939Y-28328429D01*
X21539130Y-28388931D01*
X21539121Y-28388936D01*
X21406164Y-28485534D01*
X21406162Y-28485537D01*
X21301400Y-28612173D01*
X21231420Y-28760887D01*
X21218215Y-28830115D01*
X21200624Y-28922330D01*
X21200624Y-28922332D01*
X21200624Y-28922333D01*
X21210944Y-29086360D01*
X21261732Y-29242671D01*
X21261734Y-29242675D01*
X21349798Y-29381440D01*
X21469603Y-29493945D01*
X21469611Y-29493951D01*
X21580299Y-29554802D01*
X21613632Y-29573127D01*
X21729192Y-29602797D01*
X21789227Y-29638533D01*
X21820413Y-29701056D01*
X21812846Y-29770515D01*
X21796338Y-29798891D01*
X21792331Y-29804057D01*
X21792324Y-29804068D01*
X21773815Y-29846838D01*
X21771245Y-29852084D01*
X21748803Y-29892906D01*
X21743822Y-29912307D01*
X21737521Y-29930710D01*
X21729562Y-29949102D01*
X21729561Y-29949105D01*
X21722271Y-29995127D01*
X21721087Y-30000846D01*
X21709501Y-30045972D01*
X21709500Y-30045982D01*
X21709500Y-30066016D01*
X21707973Y-30085415D01*
X21704840Y-30105194D01*
X21704840Y-30105195D01*
X21709225Y-30151583D01*
X21709500Y-30157421D01*
X21709500Y-33414773D01*
X21689815Y-33481812D01*
X21656623Y-33516348D01*
X21463597Y-33651505D01*
X21296508Y-33818594D01*
X21166574Y-34004160D01*
X21111997Y-34047784D01*
X21042498Y-34054977D01*
X20980144Y-34023455D01*
X20963429Y-34004164D01*
X20833495Y-33818599D01*
X20833493Y-33818596D01*
X20666402Y-33651506D01*
X20666395Y-33651501D01*
X20472834Y-33515967D01*
X20472830Y-33515965D01*
X20420500Y-33491563D01*
X20258663Y-33416097D01*
X20258659Y-33416096D01*
X20258655Y-33416094D01*
X20030413Y-33354938D01*
X20030403Y-33354936D01*
X19820860Y-33336603D01*
X19755791Y-33311150D01*
X19714813Y-33254559D01*
X19710935Y-33184797D01*
X19745389Y-33124013D01*
X19807236Y-33091506D01*
X19815001Y-33090200D01*
X19834387Y-33087575D01*
X20048464Y-33018017D01*
X20246681Y-32911352D01*
X20422666Y-32771008D01*
X20570765Y-32601496D01*
X20686215Y-32408264D01*
X20765307Y-32197524D01*
X20785240Y-32087686D01*
X20805500Y-31976049D01*
X20805500Y-31407352D01*
X20805500Y-31407345D01*
X20790377Y-31239312D01*
X20786656Y-31225828D01*
X20730496Y-31022339D01*
X20730491Y-31022326D01*
X20632832Y-30819533D01*
X20632828Y-30819525D01*
X20500526Y-30637427D01*
X20500525Y-30637425D01*
X20337823Y-30481866D01*
X20149966Y-30357863D01*
X19942995Y-30269399D01*
X19942982Y-30269395D01*
X19723542Y-30219310D01*
X19723538Y-30219309D01*
X19723537Y-30219309D01*
X19723536Y-30219308D01*
X19723531Y-30219308D01*
X19498674Y-30209210D01*
X19498673Y-30209210D01*
X19498670Y-30209210D01*
X19275613Y-30239425D01*
X19275610Y-30239425D01*
X19275609Y-30239426D01*
X19061534Y-30308983D01*
X18863321Y-30415646D01*
X18863318Y-30415648D01*
X18687336Y-30555989D01*
X18616186Y-30637427D01*
X18539235Y-30725504D01*
X18524788Y-30749685D01*
X18423787Y-30918732D01*
X18423786Y-30918734D01*
X18344692Y-31129476D01*
X18304500Y-31350950D01*
X18304500Y-31350953D01*
X18304500Y-31919655D01*
X17853500Y-31919655D01*
X17853500Y-18728544D01*
X17853797Y-18722479D01*
X17856978Y-18690182D01*
X17869420Y-18579765D01*
X17873978Y-18557666D01*
X17873979Y-18557664D01*
X17889753Y-18505661D01*
X17890543Y-18503245D01*
X17917797Y-18425357D01*
X17925462Y-18407901D01*
X17953983Y-18354541D01*
X17956107Y-18350882D01*
X17999873Y-18281228D01*
X18004426Y-18274906D01*
X18046849Y-18223213D01*
X18050890Y-18218754D01*
X18108253Y-18161391D01*
X18112713Y-18157349D01*
X18164406Y-18114926D01*
X18170728Y-18110373D01*
X18240382Y-18066607D01*
X18244041Y-18064483D01*
X18297401Y-18035962D01*
X18314857Y-18028297D01*
X18392745Y-18001043D01*
X18395147Y-18000258D01*
X18447174Y-17984475D01*
X18469265Y-17979920D01*
X18579702Y-17967476D01*
X18611979Y-17964297D01*
X18618047Y-17964000D01*
X51171952Y-17964000D01*
X51178031Y-17964299D01*
G37*
G04 #@! TD.AperFunction*
G04 #@! TA.AperFunction,NonConductor*
G36*
X28245988Y-30896920D02*
G01*
X28244393Y-30849049D01*
X28255299Y-30830766D01*
X28245988Y-30896920D01*
G37*
G04 #@! TD.AperFunction*
G04 #@! TA.AperFunction,NonConductor*
G36*
X28856643Y-27006234D02*
G01*
X30594197Y-28743788D01*
X30604022Y-28756051D01*
X30604243Y-28755869D01*
X30609211Y-28761874D01*
X30658932Y-28808566D01*
X30660332Y-28809923D01*
X30680523Y-28830115D01*
X30680527Y-28830118D01*
X30680529Y-28830120D01*
X30686011Y-28834373D01*
X30690443Y-28838157D01*
X30724418Y-28870062D01*
X30741976Y-28879714D01*
X30758233Y-28890393D01*
X30774064Y-28902673D01*
X30793737Y-28911186D01*
X30816833Y-28921182D01*
X30822077Y-28923750D01*
X30862908Y-28946197D01*
X30875523Y-28949435D01*
X30882305Y-28951177D01*
X30900719Y-28957481D01*
X30919104Y-28965438D01*
X30965157Y-28972732D01*
X30970826Y-28973906D01*
X31015981Y-28985500D01*
X31036016Y-28985500D01*
X31055413Y-28987026D01*
X31075196Y-28990160D01*
X31121583Y-28985775D01*
X31127422Y-28985500D01*
X41085707Y-28985500D01*
X41152746Y-29005185D01*
X41198501Y-29057989D01*
X41208445Y-29127147D01*
X41199261Y-29159314D01*
X41198336Y-29161422D01*
X41142323Y-29382608D01*
X41142321Y-29382616D01*
X41123481Y-29609994D01*
X41123481Y-29610005D01*
X41142321Y-29837383D01*
X41142323Y-29837391D01*
X41198335Y-30058577D01*
X41289989Y-30267529D01*
X41414787Y-30458548D01*
X41537079Y-30591391D01*
X41568002Y-30654045D01*
X41560142Y-30723471D01*
X41515995Y-30777627D01*
X41489183Y-30791556D01*
X41386371Y-30829902D01*
X41386364Y-30829906D01*
X41271155Y-30916152D01*
X41271152Y-30916155D01*
X41184906Y-31031364D01*
X41184902Y-31031371D01*
X41134608Y-31166217D01*
X41128201Y-31225816D01*
X41128200Y-31225827D01*
X41128200Y-32010121D01*
X41128201Y-32670500D01*
X41108516Y-32737539D01*
X41055713Y-32783294D01*
X41004201Y-32794500D01*
X39391937Y-32794500D01*
X39324898Y-32774815D01*
X39279143Y-32722011D01*
X39268616Y-32657540D01*
X39270460Y-32640000D01*
X39250674Y-32451744D01*
X39192179Y-32271716D01*
X39097533Y-32107784D01*
X38970871Y-31967112D01*
X38970870Y-31967111D01*
X38817734Y-31855851D01*
X38817729Y-31855848D01*
X38644807Y-31778857D01*
X38644802Y-31778855D01*
X38486147Y-31745133D01*
X38459646Y-31739500D01*
X38270354Y-31739500D01*
X38243857Y-31745132D01*
X38085197Y-31778855D01*
X38085192Y-31778857D01*
X37912270Y-31855848D01*
X37912265Y-31855851D01*
X37759130Y-31967110D01*
X37759126Y-31967114D01*
X37753400Y-31973474D01*
X37693913Y-32010121D01*
X37661252Y-32014500D01*
X33145452Y-32014500D01*
X33078413Y-31994815D01*
X33057771Y-31978181D01*
X28626840Y-27547249D01*
X28593355Y-27485926D01*
X28594316Y-27429126D01*
X28627675Y-27297399D01*
X28627676Y-27297395D01*
X28627676Y-27297394D01*
X28627677Y-27297391D01*
X28645386Y-27083672D01*
X28670539Y-27018490D01*
X28726941Y-26977252D01*
X28796684Y-26973054D01*
X28856643Y-27006234D01*
G37*
G04 #@! TD.AperFunction*
G04 #@! TA.AperFunction,NonConductor*
G36*
X31814394Y-32794184D02*
G01*
X31805548Y-32794500D01*
X31484600Y-32794500D01*
X31874290Y-32771843D01*
X31814394Y-32794184D01*
G37*
G04 #@! TD.AperFunction*
G04 #@! TA.AperFunction,NonConductor*
G36*
X45451587Y-29005185D02*
G01*
X45472229Y-29021819D01*
X46813181Y-30362771D01*
X46846666Y-30424094D01*
X46849500Y-30450452D01*
X46849500Y-30626005D01*
X46829815Y-30693044D01*
X46777011Y-30738799D01*
X46707853Y-30748743D01*
X46644297Y-30719718D01*
X46625182Y-30698890D01*
X46580527Y-30637427D01*
X46580525Y-30637425D01*
X46417823Y-30481866D01*
X46229966Y-30357863D01*
X46022995Y-30269399D01*
X46022982Y-30269395D01*
X45803542Y-30219310D01*
X45803538Y-30219309D01*
X45803537Y-30219309D01*
X45803536Y-30219308D01*
X45803531Y-30219308D01*
X45578674Y-30209210D01*
X45578673Y-30209210D01*
X45578670Y-30209210D01*
X45355613Y-30239425D01*
X45355610Y-30239425D01*
X45355609Y-30239426D01*
X45141534Y-30308983D01*
X44943321Y-30415646D01*
X44943318Y-30415648D01*
X44767336Y-30555989D01*
X44696186Y-30637427D01*
X44619235Y-30725504D01*
X44604788Y-30749685D01*
X44503787Y-30918732D01*
X44503786Y-30918734D01*
X44424692Y-31129476D01*
X44384500Y-31350950D01*
X44384500Y-31350952D01*
X44384500Y-31350953D01*
X44384500Y-31919655D01*
X44388771Y-31967110D01*
X44399622Y-32087686D01*
X44399623Y-32087692D01*
X44459503Y-32304660D01*
X44459508Y-32304673D01*
X44557167Y-32507466D01*
X44557171Y-32507474D01*
X44689473Y-32689572D01*
X44689474Y-32689574D01*
X44689477Y-32689577D01*
X44689478Y-32689578D01*
X44798982Y-32794274D01*
X44852176Y-32845133D01*
X45040033Y-32969136D01*
X45247004Y-33057600D01*
X45247007Y-33057601D01*
X45247012Y-33057603D01*
X45466463Y-33107691D01*
X45691330Y-33117790D01*
X45914387Y-33087575D01*
X46128464Y-33018017D01*
X46326681Y-32911352D01*
X46502666Y-32771008D01*
X46632120Y-32622835D01*
X46691051Y-32585303D01*
X46760920Y-32585588D01*
X46819544Y-32623602D01*
X46848309Y-32687276D01*
X46849500Y-32704422D01*
X46849500Y-33414773D01*
X46829815Y-33481812D01*
X46796623Y-33516348D01*
X46603597Y-33651505D01*
X46436505Y-33818597D01*
X46300965Y-34012169D01*
X46300964Y-34012171D01*
X46201098Y-34226335D01*
X46201094Y-34226344D01*
X46139938Y-34454586D01*
X46139936Y-34454596D01*
X46131998Y-34545326D01*
X46106545Y-34610394D01*
X46049953Y-34651372D01*
X45980191Y-34655249D01*
X45920789Y-34622198D01*
X44334803Y-33036212D01*
X44324980Y-33023950D01*
X44324759Y-33024134D01*
X44319786Y-33018122D01*
X44270066Y-32971432D01*
X44268666Y-32970075D01*
X44248476Y-32949884D01*
X44242986Y-32945625D01*
X44238561Y-32941847D01*
X44204582Y-32909938D01*
X44204580Y-32909936D01*
X44204577Y-32909935D01*
X44187029Y-32900288D01*
X44170763Y-32889604D01*
X44154936Y-32877327D01*
X44154935Y-32877326D01*
X44154933Y-32877325D01*
X44112168Y-32858818D01*
X44106922Y-32856248D01*
X44066093Y-32833803D01*
X44066092Y-32833802D01*
X44046693Y-32828822D01*
X44028281Y-32822518D01*
X44009898Y-32814562D01*
X44009892Y-32814560D01*
X43986401Y-32810840D01*
X43923266Y-32780911D01*
X43886335Y-32721599D01*
X43881799Y-32688367D01*
X43881799Y-31225829D01*
X43881798Y-31225823D01*
X43881797Y-31225816D01*
X43875391Y-31166217D01*
X43864046Y-31135800D01*
X43825097Y-31031371D01*
X43825093Y-31031364D01*
X43738847Y-30916155D01*
X43738844Y-30916152D01*
X43623635Y-30829906D01*
X43623628Y-30829902D01*
X43520816Y-30791556D01*
X43464882Y-30749685D01*
X43440465Y-30684221D01*
X43455317Y-30615948D01*
X43472913Y-30591398D01*
X43595213Y-30458547D01*
X43720010Y-30267530D01*
X43811664Y-30058578D01*
X43867677Y-29837391D01*
X43867770Y-29836268D01*
X43886519Y-29610005D01*
X43886519Y-29609994D01*
X43867678Y-29382616D01*
X43867677Y-29382613D01*
X43867677Y-29382609D01*
X43811664Y-29161422D01*
X43810738Y-29159312D01*
X43810618Y-29158378D01*
X43810001Y-29156579D01*
X43810371Y-29156451D01*
X43801834Y-29090015D01*
X43831808Y-29026901D01*
X43891146Y-28990012D01*
X43924293Y-28985500D01*
X45384548Y-28985500D01*
X45451587Y-29005185D01*
G37*
G04 #@! TD.AperFunction*
G04 #@! TA.AperFunction,NonConductor*
G36*
X41161518Y-34065185D02*
G01*
X41207273Y-34117989D01*
X41217217Y-34187147D01*
X41208036Y-34219308D01*
X41198335Y-34241422D01*
X41142323Y-34462608D01*
X41142321Y-34462616D01*
X41123481Y-34689994D01*
X41123481Y-34690005D01*
X41142321Y-34917383D01*
X41142323Y-34917391D01*
X41198335Y-35138577D01*
X41203649Y-35150690D01*
X41212552Y-35219991D01*
X41182574Y-35283103D01*
X41123235Y-35319989D01*
X41090093Y-35324500D01*
X28679907Y-35324500D01*
X28612868Y-35304815D01*
X28567113Y-35252011D01*
X28557169Y-35182853D01*
X28566352Y-35150688D01*
X28571664Y-35138578D01*
X28627677Y-34917391D01*
X28646519Y-34690000D01*
X28643639Y-34655249D01*
X28627678Y-34462616D01*
X28627676Y-34462608D01*
X28625645Y-34454586D01*
X28594316Y-34330873D01*
X28596940Y-34261052D01*
X28626840Y-34212749D01*
X28652443Y-34187147D01*
X28757772Y-34081818D01*
X28819097Y-34048334D01*
X28845454Y-34045500D01*
X41094479Y-34045500D01*
X41161518Y-34065185D01*
G37*
G04 #@! TD.AperFunction*
G04 #@! TA.AperFunction,NonConductor*
G36*
X41165905Y-36595185D02*
G01*
X41211660Y-36647989D01*
X41221604Y-36717147D01*
X41212422Y-36749310D01*
X41198335Y-36781422D01*
X41142323Y-37002608D01*
X41142321Y-37002616D01*
X41123481Y-37229994D01*
X41123481Y-37230005D01*
X41142321Y-37457383D01*
X41142323Y-37457391D01*
X41198335Y-37678577D01*
X41203649Y-37690690D01*
X41212552Y-37759991D01*
X41182574Y-37823103D01*
X41123235Y-37859989D01*
X41090093Y-37864500D01*
X28679907Y-37864500D01*
X28612868Y-37844815D01*
X28567113Y-37792011D01*
X28557169Y-37722853D01*
X28566352Y-37690688D01*
X28571664Y-37678578D01*
X28627677Y-37457391D01*
X28646519Y-37230000D01*
X28643639Y-37195249D01*
X28627678Y-37002616D01*
X28627676Y-37002608D01*
X28625645Y-36994586D01*
X28594316Y-36870873D01*
X28596940Y-36801052D01*
X28626840Y-36752749D01*
X28767773Y-36611818D01*
X28829097Y-36578334D01*
X28855454Y-36575500D01*
X41098866Y-36575500D01*
X41165905Y-36595185D01*
G37*
G04 #@! TD.AperFunction*
G04 #@! TA.AperFunction,NonConductor*
G36*
X41165905Y-39135185D02*
G01*
X41211660Y-39187989D01*
X41221604Y-39257147D01*
X41212422Y-39289310D01*
X41198335Y-39321422D01*
X41142323Y-39542608D01*
X41142321Y-39542616D01*
X41123481Y-39769994D01*
X41123481Y-39770005D01*
X41142321Y-39997383D01*
X41142323Y-39997391D01*
X41198335Y-40218576D01*
X41198336Y-40218577D01*
X41199261Y-40220686D01*
X41199381Y-40221621D01*
X41199999Y-40223421D01*
X41199628Y-40223548D01*
X41208166Y-40289985D01*
X41178192Y-40353099D01*
X41118854Y-40389988D01*
X41085707Y-40394500D01*
X28684294Y-40394500D01*
X28617255Y-40374815D01*
X28571500Y-40322011D01*
X28561556Y-40252853D01*
X28570736Y-40220693D01*
X28570739Y-40220686D01*
X28571664Y-40218578D01*
X28627677Y-39997391D01*
X28646519Y-39770000D01*
X28643639Y-39735249D01*
X28627678Y-39542616D01*
X28627676Y-39542608D01*
X28625645Y-39534586D01*
X28594316Y-39410873D01*
X28596940Y-39341052D01*
X28626840Y-39292749D01*
X28660920Y-39258670D01*
X28731601Y-39187989D01*
X28767773Y-39151818D01*
X28829097Y-39118334D01*
X28855454Y-39115500D01*
X41098866Y-39115500D01*
X41165905Y-39135185D01*
G37*
G04 #@! TD.AperFunction*
G04 #@! TA.AperFunction,NonConductor*
G36*
X41170291Y-41665185D02*
G01*
X41216046Y-41717989D01*
X41225990Y-41787147D01*
X41216808Y-41819310D01*
X41198336Y-41861422D01*
X41142323Y-42082608D01*
X41142321Y-42082616D01*
X41123481Y-42309994D01*
X41123481Y-42310005D01*
X41142321Y-42537383D01*
X41142323Y-42537391D01*
X41198335Y-42758577D01*
X41203649Y-42770690D01*
X41212552Y-42839991D01*
X41182574Y-42903103D01*
X41123235Y-42939989D01*
X41090093Y-42944500D01*
X28679907Y-42944500D01*
X28612868Y-42924815D01*
X28567113Y-42872011D01*
X28557169Y-42802853D01*
X28566352Y-42770688D01*
X28571662Y-42758582D01*
X28571664Y-42758578D01*
X28627677Y-42537391D01*
X28646519Y-42310000D01*
X28643741Y-42276479D01*
X28627678Y-42082616D01*
X28627676Y-42082608D01*
X28625645Y-42074586D01*
X28594316Y-41950873D01*
X28596940Y-41881052D01*
X28626840Y-41832749D01*
X28640280Y-41819310D01*
X28735180Y-41724410D01*
X28777773Y-41681818D01*
X28839097Y-41648334D01*
X28865454Y-41645500D01*
X41103252Y-41645500D01*
X41170291Y-41665185D01*
G37*
G04 #@! TD.AperFunction*
G04 #@! TA.AperFunction,NonConductor*
G36*
X41165905Y-44215185D02*
G01*
X41211660Y-44267989D01*
X41221604Y-44337147D01*
X41212422Y-44369310D01*
X41198335Y-44401422D01*
X41142323Y-44622608D01*
X41142321Y-44622616D01*
X41123481Y-44849994D01*
X41123481Y-44850005D01*
X41142321Y-45077383D01*
X41142323Y-45077391D01*
X41198335Y-45298577D01*
X41203649Y-45310690D01*
X41212552Y-45379991D01*
X41182574Y-45443103D01*
X41123235Y-45479989D01*
X41090093Y-45484500D01*
X28679907Y-45484500D01*
X28612868Y-45464815D01*
X28567113Y-45412011D01*
X28557169Y-45342853D01*
X28566352Y-45310688D01*
X28571664Y-45298578D01*
X28627677Y-45077391D01*
X28640043Y-44928155D01*
X28646519Y-44850005D01*
X28646519Y-44849994D01*
X28627678Y-44622616D01*
X28627676Y-44622608D01*
X28625645Y-44614586D01*
X28594316Y-44490873D01*
X28596940Y-44421052D01*
X28626840Y-44372749D01*
X28659646Y-44339944D01*
X28731601Y-44267989D01*
X28767773Y-44231818D01*
X28829097Y-44198334D01*
X28855454Y-44195500D01*
X41098866Y-44195500D01*
X41165905Y-44215185D01*
G37*
G04 #@! TD.AperFunction*
G04 #@! TA.AperFunction,NonConductor*
G36*
X41165905Y-46755185D02*
G01*
X41211660Y-46807989D01*
X41221604Y-46877147D01*
X41212422Y-46909310D01*
X41198335Y-46941422D01*
X41142323Y-47162608D01*
X41142321Y-47162616D01*
X41123481Y-47389994D01*
X41123481Y-47390005D01*
X41142321Y-47617383D01*
X41142323Y-47617391D01*
X41198335Y-47838577D01*
X41203649Y-47850690D01*
X41212552Y-47919991D01*
X41182574Y-47983103D01*
X41123235Y-48019989D01*
X41090093Y-48024500D01*
X28679907Y-48024500D01*
X28612868Y-48004815D01*
X28567113Y-47952011D01*
X28557169Y-47882853D01*
X28566352Y-47850688D01*
X28571664Y-47838578D01*
X28627677Y-47617391D01*
X28646519Y-47390000D01*
X28643639Y-47355249D01*
X28627678Y-47162616D01*
X28627676Y-47162608D01*
X28625645Y-47154586D01*
X28594316Y-47030873D01*
X28596940Y-46961052D01*
X28626840Y-46912749D01*
X28638438Y-46901152D01*
X28767772Y-46771818D01*
X28829097Y-46738334D01*
X28855454Y-46735500D01*
X41098866Y-46735500D01*
X41165905Y-46755185D01*
G37*
G04 #@! TD.AperFunction*
G04 #@! TA.AperFunction,NonConductor*
G36*
X41165905Y-49295185D02*
G01*
X41211660Y-49347989D01*
X41221604Y-49417147D01*
X41212422Y-49449310D01*
X41198335Y-49481422D01*
X41142323Y-49702608D01*
X41142321Y-49702616D01*
X41123481Y-49929994D01*
X41123481Y-49930005D01*
X41142321Y-50157383D01*
X41142323Y-50157391D01*
X41198335Y-50378577D01*
X41212422Y-50410690D01*
X41221325Y-50479990D01*
X41191348Y-50543102D01*
X41132009Y-50579989D01*
X41098866Y-50584500D01*
X28671134Y-50584500D01*
X28604095Y-50564815D01*
X28558340Y-50512011D01*
X28548396Y-50442853D01*
X28557578Y-50410690D01*
X28561376Y-50402032D01*
X28571664Y-50378578D01*
X28627677Y-50157391D01*
X28646519Y-49930000D01*
X28643639Y-49895249D01*
X28627678Y-49702616D01*
X28627676Y-49702608D01*
X28625645Y-49694586D01*
X28594316Y-49570873D01*
X28596940Y-49501052D01*
X28626840Y-49452749D01*
X28767773Y-49311818D01*
X28829097Y-49278334D01*
X28855454Y-49275500D01*
X41098866Y-49275500D01*
X41165905Y-49295185D01*
G37*
G04 #@! TD.AperFunction*
G04 #@! TA.AperFunction,NonConductor*
G36*
X23665973Y-55710650D02*
G01*
X23668782Y-55713373D01*
X23707330Y-55751921D01*
X23721039Y-55765630D01*
X23754523Y-55826953D01*
X23756678Y-55840348D01*
X23760993Y-55881396D01*
X23774326Y-56008256D01*
X23774327Y-56008259D01*
X23832818Y-56188277D01*
X23832821Y-56188284D01*
X23927467Y-56352216D01*
X24033586Y-56470073D01*
X24054129Y-56492888D01*
X24207265Y-56604148D01*
X24207270Y-56604151D01*
X24380192Y-56681142D01*
X24380193Y-56681142D01*
X24380197Y-56681144D01*
X24535118Y-56714073D01*
X24596600Y-56747265D01*
X24630377Y-56808428D01*
X24632658Y-56822399D01*
X24634324Y-56838249D01*
X24634324Y-56838252D01*
X24692818Y-57018277D01*
X24692821Y-57018284D01*
X24787467Y-57182216D01*
X24893133Y-57299570D01*
X24914129Y-57322888D01*
X25067265Y-57434148D01*
X25067270Y-57434151D01*
X25240192Y-57511142D01*
X25240197Y-57511144D01*
X25425354Y-57550500D01*
X25425355Y-57550500D01*
X25614645Y-57550500D01*
X25614646Y-57550500D01*
X25629719Y-57547296D01*
X25699385Y-57552612D01*
X25755119Y-57594748D01*
X25779225Y-57660328D01*
X25779500Y-57668586D01*
X25779500Y-57733124D01*
X25759815Y-57800163D01*
X25709302Y-57844844D01*
X25611029Y-57892169D01*
X25611025Y-57892171D01*
X25428927Y-58024473D01*
X25428918Y-58024480D01*
X25371793Y-58084228D01*
X25311236Y-58119080D01*
X25241451Y-58115659D01*
X25200585Y-58091917D01*
X25042996Y-57954235D01*
X24849764Y-57838785D01*
X24727104Y-57792750D01*
X24639023Y-57759692D01*
X24417550Y-57719500D01*
X24417547Y-57719500D01*
X23948845Y-57719500D01*
X23910745Y-57722929D01*
X23780813Y-57734622D01*
X23780807Y-57734623D01*
X23563839Y-57794503D01*
X23563826Y-57794508D01*
X23373296Y-57886262D01*
X23304355Y-57897614D01*
X23240220Y-57869891D01*
X23231814Y-57862223D01*
X21900987Y-56531396D01*
X21867502Y-56470073D01*
X21872486Y-56400381D01*
X21914358Y-56344448D01*
X21979822Y-56320031D01*
X22020757Y-56323939D01*
X22099592Y-56345063D01*
X22287918Y-56361539D01*
X22334999Y-56365659D01*
X22335000Y-56365659D01*
X22335001Y-56365659D01*
X22374234Y-56362226D01*
X22570408Y-56345063D01*
X22798663Y-56283903D01*
X23012830Y-56184035D01*
X23206401Y-56048495D01*
X23373495Y-55881401D01*
X23479546Y-55729944D01*
X23534119Y-55686322D01*
X23603618Y-55679128D01*
X23665973Y-55710650D01*
G37*
G04 #@! TD.AperFunction*
M02*
