%TF.GenerationSoftware,KiCad,Pcbnew,7.0.5*%
%TF.CreationDate,2023-06-22T01:51:56+08:00*%
%TF.ProjectId,handwire microboard,68616e64-7769-4726-9520-6d6963726f62,rev?*%
%TF.SameCoordinates,Original*%
%TF.FileFunction,Drillmap*%
%TF.FilePolarity,Positive*%
%FSLAX45Y45*%
G04 Gerber Fmt 4.5, Leading zero omitted, Abs format (unit mm)*
G04 Created by KiCad (PCBNEW 7.0.5) date 2023-06-22 01:51:56*
%MOMM*%
%LPD*%
G01*
G04 APERTURE LIST*
%ADD10C,0.100000*%
%ADD11C,0.200000*%
%ADD12C,0.080000*%
%ADD13C,0.220000*%
G04 APERTURE END LIST*
D10*
X11543500Y-8161020D02*
X8293900Y-8161020D01*
X8217700Y-8237220D02*
X8217700Y-12783820D01*
X8217698Y-12783820D02*
G75*
G03*
X8294081Y-12860201I76382J0D01*
G01*
X11619700Y-12783820D02*
X11619700Y-8237220D01*
X11619700Y-8237220D02*
G75*
G03*
X11543500Y-8161020I-76200J0D01*
G01*
X11543500Y-12860020D02*
G75*
G03*
X11619700Y-12783820I0J76200D01*
G01*
X8294081Y-12860201D02*
X11543500Y-12860020D01*
X8293900Y-8161020D02*
G75*
G03*
X8217700Y-8237220I0J-76200D01*
G01*
D11*
D12*
X9287725Y-12439020D02*
X9367725Y-12519020D01*
X9367725Y-12439020D02*
X9287725Y-12519020D01*
X11156320Y-9246285D02*
X11236320Y-9326285D01*
X11236320Y-9246285D02*
X11156320Y-9326285D01*
D13*
X8736640Y-8584485D02*
G75*
G03*
X8736640Y-8584485I-110000J0D01*
G01*
X8736640Y-12479020D02*
G75*
G03*
X8736640Y-12479020I-110000J0D01*
G01*
X11306320Y-8584485D02*
G75*
G03*
X11306320Y-8584485I-110000J0D01*
G01*
X11306320Y-12479020D02*
G75*
G03*
X11306320Y-12479020I-110000J0D01*
G01*
D11*
X8473477Y-13176685D02*
X8473477Y-12976685D01*
X8473477Y-12976685D02*
X8521096Y-12976685D01*
X8521096Y-12976685D02*
X8549667Y-12986209D01*
X8549667Y-12986209D02*
X8568715Y-13005257D01*
X8568715Y-13005257D02*
X8578239Y-13024304D01*
X8578239Y-13024304D02*
X8587763Y-13062399D01*
X8587763Y-13062399D02*
X8587763Y-13090971D01*
X8587763Y-13090971D02*
X8578239Y-13129066D01*
X8578239Y-13129066D02*
X8568715Y-13148114D01*
X8568715Y-13148114D02*
X8549667Y-13167161D01*
X8549667Y-13167161D02*
X8521096Y-13176685D01*
X8521096Y-13176685D02*
X8473477Y-13176685D01*
X8673477Y-13176685D02*
X8673477Y-13043352D01*
X8673477Y-13081447D02*
X8683001Y-13062399D01*
X8683001Y-13062399D02*
X8692524Y-13052876D01*
X8692524Y-13052876D02*
X8711572Y-13043352D01*
X8711572Y-13043352D02*
X8730620Y-13043352D01*
X8797286Y-13176685D02*
X8797286Y-13043352D01*
X8797286Y-12976685D02*
X8787763Y-12986209D01*
X8787763Y-12986209D02*
X8797286Y-12995733D01*
X8797286Y-12995733D02*
X8806810Y-12986209D01*
X8806810Y-12986209D02*
X8797286Y-12976685D01*
X8797286Y-12976685D02*
X8797286Y-12995733D01*
X8921096Y-13176685D02*
X8902048Y-13167161D01*
X8902048Y-13167161D02*
X8892524Y-13148114D01*
X8892524Y-13148114D02*
X8892524Y-12976685D01*
X9025858Y-13176685D02*
X9006810Y-13167161D01*
X9006810Y-13167161D02*
X8997286Y-13148114D01*
X8997286Y-13148114D02*
X8997286Y-12976685D01*
X9254429Y-13176685D02*
X9254429Y-12976685D01*
X9254429Y-12976685D02*
X9321096Y-13119542D01*
X9321096Y-13119542D02*
X9387763Y-12976685D01*
X9387763Y-12976685D02*
X9387763Y-13176685D01*
X9568715Y-13176685D02*
X9568715Y-13071923D01*
X9568715Y-13071923D02*
X9559191Y-13052876D01*
X9559191Y-13052876D02*
X9540144Y-13043352D01*
X9540144Y-13043352D02*
X9502048Y-13043352D01*
X9502048Y-13043352D02*
X9483001Y-13052876D01*
X9568715Y-13167161D02*
X9549667Y-13176685D01*
X9549667Y-13176685D02*
X9502048Y-13176685D01*
X9502048Y-13176685D02*
X9483001Y-13167161D01*
X9483001Y-13167161D02*
X9473477Y-13148114D01*
X9473477Y-13148114D02*
X9473477Y-13129066D01*
X9473477Y-13129066D02*
X9483001Y-13110019D01*
X9483001Y-13110019D02*
X9502048Y-13100495D01*
X9502048Y-13100495D02*
X9549667Y-13100495D01*
X9549667Y-13100495D02*
X9568715Y-13090971D01*
X9663953Y-13043352D02*
X9663953Y-13243352D01*
X9663953Y-13052876D02*
X9683001Y-13043352D01*
X9683001Y-13043352D02*
X9721096Y-13043352D01*
X9721096Y-13043352D02*
X9740144Y-13052876D01*
X9740144Y-13052876D02*
X9749667Y-13062399D01*
X9749667Y-13062399D02*
X9759191Y-13081447D01*
X9759191Y-13081447D02*
X9759191Y-13138590D01*
X9759191Y-13138590D02*
X9749667Y-13157638D01*
X9749667Y-13157638D02*
X9740144Y-13167161D01*
X9740144Y-13167161D02*
X9721096Y-13176685D01*
X9721096Y-13176685D02*
X9683001Y-13176685D01*
X9683001Y-13176685D02*
X9663953Y-13167161D01*
X9844905Y-13157638D02*
X9854429Y-13167161D01*
X9854429Y-13167161D02*
X9844905Y-13176685D01*
X9844905Y-13176685D02*
X9835382Y-13167161D01*
X9835382Y-13167161D02*
X9844905Y-13157638D01*
X9844905Y-13157638D02*
X9844905Y-13176685D01*
X9844905Y-13052876D02*
X9854429Y-13062399D01*
X9854429Y-13062399D02*
X9844905Y-13071923D01*
X9844905Y-13071923D02*
X9835382Y-13062399D01*
X9835382Y-13062399D02*
X9844905Y-13052876D01*
X9844905Y-13052876D02*
X9844905Y-13071923D01*
D12*
X8132700Y-13465201D02*
X8212700Y-13545201D01*
X8212700Y-13465201D02*
X8132700Y-13545201D01*
D11*
X8511572Y-13396685D02*
X8530620Y-13396685D01*
X8530620Y-13396685D02*
X8549667Y-13406209D01*
X8549667Y-13406209D02*
X8559191Y-13415733D01*
X8559191Y-13415733D02*
X8568715Y-13434780D01*
X8568715Y-13434780D02*
X8578239Y-13472876D01*
X8578239Y-13472876D02*
X8578239Y-13520495D01*
X8578239Y-13520495D02*
X8568715Y-13558590D01*
X8568715Y-13558590D02*
X8559191Y-13577638D01*
X8559191Y-13577638D02*
X8549667Y-13587161D01*
X8549667Y-13587161D02*
X8530620Y-13596685D01*
X8530620Y-13596685D02*
X8511572Y-13596685D01*
X8511572Y-13596685D02*
X8492524Y-13587161D01*
X8492524Y-13587161D02*
X8483001Y-13577638D01*
X8483001Y-13577638D02*
X8473477Y-13558590D01*
X8473477Y-13558590D02*
X8463953Y-13520495D01*
X8463953Y-13520495D02*
X8463953Y-13472876D01*
X8463953Y-13472876D02*
X8473477Y-13434780D01*
X8473477Y-13434780D02*
X8483001Y-13415733D01*
X8483001Y-13415733D02*
X8492524Y-13406209D01*
X8492524Y-13406209D02*
X8511572Y-13396685D01*
X8663953Y-13577638D02*
X8673477Y-13587161D01*
X8673477Y-13587161D02*
X8663953Y-13596685D01*
X8663953Y-13596685D02*
X8654429Y-13587161D01*
X8654429Y-13587161D02*
X8663953Y-13577638D01*
X8663953Y-13577638D02*
X8663953Y-13596685D01*
X8787763Y-13482399D02*
X8768715Y-13472876D01*
X8768715Y-13472876D02*
X8759191Y-13463352D01*
X8759191Y-13463352D02*
X8749667Y-13444304D01*
X8749667Y-13444304D02*
X8749667Y-13434780D01*
X8749667Y-13434780D02*
X8759191Y-13415733D01*
X8759191Y-13415733D02*
X8768715Y-13406209D01*
X8768715Y-13406209D02*
X8787763Y-13396685D01*
X8787763Y-13396685D02*
X8825858Y-13396685D01*
X8825858Y-13396685D02*
X8844905Y-13406209D01*
X8844905Y-13406209D02*
X8854429Y-13415733D01*
X8854429Y-13415733D02*
X8863953Y-13434780D01*
X8863953Y-13434780D02*
X8863953Y-13444304D01*
X8863953Y-13444304D02*
X8854429Y-13463352D01*
X8854429Y-13463352D02*
X8844905Y-13472876D01*
X8844905Y-13472876D02*
X8825858Y-13482399D01*
X8825858Y-13482399D02*
X8787763Y-13482399D01*
X8787763Y-13482399D02*
X8768715Y-13491923D01*
X8768715Y-13491923D02*
X8759191Y-13501447D01*
X8759191Y-13501447D02*
X8749667Y-13520495D01*
X8749667Y-13520495D02*
X8749667Y-13558590D01*
X8749667Y-13558590D02*
X8759191Y-13577638D01*
X8759191Y-13577638D02*
X8768715Y-13587161D01*
X8768715Y-13587161D02*
X8787763Y-13596685D01*
X8787763Y-13596685D02*
X8825858Y-13596685D01*
X8825858Y-13596685D02*
X8844905Y-13587161D01*
X8844905Y-13587161D02*
X8854429Y-13577638D01*
X8854429Y-13577638D02*
X8863953Y-13558590D01*
X8863953Y-13558590D02*
X8863953Y-13520495D01*
X8863953Y-13520495D02*
X8854429Y-13501447D01*
X8854429Y-13501447D02*
X8844905Y-13491923D01*
X8844905Y-13491923D02*
X8825858Y-13482399D01*
X8987763Y-13396685D02*
X9006810Y-13396685D01*
X9006810Y-13396685D02*
X9025858Y-13406209D01*
X9025858Y-13406209D02*
X9035382Y-13415733D01*
X9035382Y-13415733D02*
X9044905Y-13434780D01*
X9044905Y-13434780D02*
X9054429Y-13472876D01*
X9054429Y-13472876D02*
X9054429Y-13520495D01*
X9054429Y-13520495D02*
X9044905Y-13558590D01*
X9044905Y-13558590D02*
X9035382Y-13577638D01*
X9035382Y-13577638D02*
X9025858Y-13587161D01*
X9025858Y-13587161D02*
X9006810Y-13596685D01*
X9006810Y-13596685D02*
X8987763Y-13596685D01*
X8987763Y-13596685D02*
X8968715Y-13587161D01*
X8968715Y-13587161D02*
X8959191Y-13577638D01*
X8959191Y-13577638D02*
X8949667Y-13558590D01*
X8949667Y-13558590D02*
X8940144Y-13520495D01*
X8940144Y-13520495D02*
X8940144Y-13472876D01*
X8940144Y-13472876D02*
X8949667Y-13434780D01*
X8949667Y-13434780D02*
X8959191Y-13415733D01*
X8959191Y-13415733D02*
X8968715Y-13406209D01*
X8968715Y-13406209D02*
X8987763Y-13396685D01*
X9178239Y-13396685D02*
X9197286Y-13396685D01*
X9197286Y-13396685D02*
X9216334Y-13406209D01*
X9216334Y-13406209D02*
X9225858Y-13415733D01*
X9225858Y-13415733D02*
X9235382Y-13434780D01*
X9235382Y-13434780D02*
X9244905Y-13472876D01*
X9244905Y-13472876D02*
X9244905Y-13520495D01*
X9244905Y-13520495D02*
X9235382Y-13558590D01*
X9235382Y-13558590D02*
X9225858Y-13577638D01*
X9225858Y-13577638D02*
X9216334Y-13587161D01*
X9216334Y-13587161D02*
X9197286Y-13596685D01*
X9197286Y-13596685D02*
X9178239Y-13596685D01*
X9178239Y-13596685D02*
X9159191Y-13587161D01*
X9159191Y-13587161D02*
X9149667Y-13577638D01*
X9149667Y-13577638D02*
X9140144Y-13558590D01*
X9140144Y-13558590D02*
X9130620Y-13520495D01*
X9130620Y-13520495D02*
X9130620Y-13472876D01*
X9130620Y-13472876D02*
X9140144Y-13434780D01*
X9140144Y-13434780D02*
X9149667Y-13415733D01*
X9149667Y-13415733D02*
X9159191Y-13406209D01*
X9159191Y-13406209D02*
X9178239Y-13396685D01*
X9330620Y-13596685D02*
X9330620Y-13463352D01*
X9330620Y-13482399D02*
X9340144Y-13472876D01*
X9340144Y-13472876D02*
X9359191Y-13463352D01*
X9359191Y-13463352D02*
X9387763Y-13463352D01*
X9387763Y-13463352D02*
X9406810Y-13472876D01*
X9406810Y-13472876D02*
X9416334Y-13491923D01*
X9416334Y-13491923D02*
X9416334Y-13596685D01*
X9416334Y-13491923D02*
X9425858Y-13472876D01*
X9425858Y-13472876D02*
X9444905Y-13463352D01*
X9444905Y-13463352D02*
X9473477Y-13463352D01*
X9473477Y-13463352D02*
X9492525Y-13472876D01*
X9492525Y-13472876D02*
X9502048Y-13491923D01*
X9502048Y-13491923D02*
X9502048Y-13596685D01*
X9597286Y-13596685D02*
X9597286Y-13463352D01*
X9597286Y-13482399D02*
X9606810Y-13472876D01*
X9606810Y-13472876D02*
X9625858Y-13463352D01*
X9625858Y-13463352D02*
X9654429Y-13463352D01*
X9654429Y-13463352D02*
X9673477Y-13472876D01*
X9673477Y-13472876D02*
X9683001Y-13491923D01*
X9683001Y-13491923D02*
X9683001Y-13596685D01*
X9683001Y-13491923D02*
X9692525Y-13472876D01*
X9692525Y-13472876D02*
X9711572Y-13463352D01*
X9711572Y-13463352D02*
X9740144Y-13463352D01*
X9740144Y-13463352D02*
X9759191Y-13472876D01*
X9759191Y-13472876D02*
X9768715Y-13491923D01*
X9768715Y-13491923D02*
X9768715Y-13596685D01*
X10159191Y-13387161D02*
X9987763Y-13644304D01*
X10416334Y-13396685D02*
X10435382Y-13396685D01*
X10435382Y-13396685D02*
X10454429Y-13406209D01*
X10454429Y-13406209D02*
X10463953Y-13415733D01*
X10463953Y-13415733D02*
X10473477Y-13434780D01*
X10473477Y-13434780D02*
X10483001Y-13472876D01*
X10483001Y-13472876D02*
X10483001Y-13520495D01*
X10483001Y-13520495D02*
X10473477Y-13558590D01*
X10473477Y-13558590D02*
X10463953Y-13577638D01*
X10463953Y-13577638D02*
X10454429Y-13587161D01*
X10454429Y-13587161D02*
X10435382Y-13596685D01*
X10435382Y-13596685D02*
X10416334Y-13596685D01*
X10416334Y-13596685D02*
X10397287Y-13587161D01*
X10397287Y-13587161D02*
X10387763Y-13577638D01*
X10387763Y-13577638D02*
X10378239Y-13558590D01*
X10378239Y-13558590D02*
X10368715Y-13520495D01*
X10368715Y-13520495D02*
X10368715Y-13472876D01*
X10368715Y-13472876D02*
X10378239Y-13434780D01*
X10378239Y-13434780D02*
X10387763Y-13415733D01*
X10387763Y-13415733D02*
X10397287Y-13406209D01*
X10397287Y-13406209D02*
X10416334Y-13396685D01*
X10568715Y-13577638D02*
X10578239Y-13587161D01*
X10578239Y-13587161D02*
X10568715Y-13596685D01*
X10568715Y-13596685D02*
X10559191Y-13587161D01*
X10559191Y-13587161D02*
X10568715Y-13577638D01*
X10568715Y-13577638D02*
X10568715Y-13596685D01*
X10702048Y-13396685D02*
X10721096Y-13396685D01*
X10721096Y-13396685D02*
X10740144Y-13406209D01*
X10740144Y-13406209D02*
X10749668Y-13415733D01*
X10749668Y-13415733D02*
X10759191Y-13434780D01*
X10759191Y-13434780D02*
X10768715Y-13472876D01*
X10768715Y-13472876D02*
X10768715Y-13520495D01*
X10768715Y-13520495D02*
X10759191Y-13558590D01*
X10759191Y-13558590D02*
X10749668Y-13577638D01*
X10749668Y-13577638D02*
X10740144Y-13587161D01*
X10740144Y-13587161D02*
X10721096Y-13596685D01*
X10721096Y-13596685D02*
X10702048Y-13596685D01*
X10702048Y-13596685D02*
X10683001Y-13587161D01*
X10683001Y-13587161D02*
X10673477Y-13577638D01*
X10673477Y-13577638D02*
X10663953Y-13558590D01*
X10663953Y-13558590D02*
X10654429Y-13520495D01*
X10654429Y-13520495D02*
X10654429Y-13472876D01*
X10654429Y-13472876D02*
X10663953Y-13434780D01*
X10663953Y-13434780D02*
X10673477Y-13415733D01*
X10673477Y-13415733D02*
X10683001Y-13406209D01*
X10683001Y-13406209D02*
X10702048Y-13396685D01*
X10835382Y-13396685D02*
X10959191Y-13396685D01*
X10959191Y-13396685D02*
X10892525Y-13472876D01*
X10892525Y-13472876D02*
X10921096Y-13472876D01*
X10921096Y-13472876D02*
X10940144Y-13482399D01*
X10940144Y-13482399D02*
X10949668Y-13491923D01*
X10949668Y-13491923D02*
X10959191Y-13510971D01*
X10959191Y-13510971D02*
X10959191Y-13558590D01*
X10959191Y-13558590D02*
X10949668Y-13577638D01*
X10949668Y-13577638D02*
X10940144Y-13587161D01*
X10940144Y-13587161D02*
X10921096Y-13596685D01*
X10921096Y-13596685D02*
X10863953Y-13596685D01*
X10863953Y-13596685D02*
X10844906Y-13587161D01*
X10844906Y-13587161D02*
X10835382Y-13577638D01*
X11149668Y-13596685D02*
X11035382Y-13596685D01*
X11092525Y-13596685D02*
X11092525Y-13396685D01*
X11092525Y-13396685D02*
X11073477Y-13425257D01*
X11073477Y-13425257D02*
X11054429Y-13444304D01*
X11054429Y-13444304D02*
X11035382Y-13453828D01*
X11330620Y-13396685D02*
X11235382Y-13396685D01*
X11235382Y-13396685D02*
X11225858Y-13491923D01*
X11225858Y-13491923D02*
X11235382Y-13482399D01*
X11235382Y-13482399D02*
X11254429Y-13472876D01*
X11254429Y-13472876D02*
X11302048Y-13472876D01*
X11302048Y-13472876D02*
X11321096Y-13482399D01*
X11321096Y-13482399D02*
X11330620Y-13491923D01*
X11330620Y-13491923D02*
X11340144Y-13510971D01*
X11340144Y-13510971D02*
X11340144Y-13558590D01*
X11340144Y-13558590D02*
X11330620Y-13577638D01*
X11330620Y-13577638D02*
X11321096Y-13587161D01*
X11321096Y-13587161D02*
X11302048Y-13596685D01*
X11302048Y-13596685D02*
X11254429Y-13596685D01*
X11254429Y-13596685D02*
X11235382Y-13587161D01*
X11235382Y-13587161D02*
X11225858Y-13577638D01*
X11416334Y-13396685D02*
X11416334Y-13434780D01*
X11492525Y-13396685D02*
X11492525Y-13434780D01*
X11787763Y-13672876D02*
X11778239Y-13663352D01*
X11778239Y-13663352D02*
X11759191Y-13634780D01*
X11759191Y-13634780D02*
X11749668Y-13615733D01*
X11749668Y-13615733D02*
X11740144Y-13587161D01*
X11740144Y-13587161D02*
X11730620Y-13539542D01*
X11730620Y-13539542D02*
X11730620Y-13501447D01*
X11730620Y-13501447D02*
X11740144Y-13453828D01*
X11740144Y-13453828D02*
X11749668Y-13425257D01*
X11749668Y-13425257D02*
X11759191Y-13406209D01*
X11759191Y-13406209D02*
X11778239Y-13377638D01*
X11778239Y-13377638D02*
X11787763Y-13368114D01*
X11854429Y-13415733D02*
X11863953Y-13406209D01*
X11863953Y-13406209D02*
X11883001Y-13396685D01*
X11883001Y-13396685D02*
X11930620Y-13396685D01*
X11930620Y-13396685D02*
X11949668Y-13406209D01*
X11949668Y-13406209D02*
X11959191Y-13415733D01*
X11959191Y-13415733D02*
X11968715Y-13434780D01*
X11968715Y-13434780D02*
X11968715Y-13453828D01*
X11968715Y-13453828D02*
X11959191Y-13482399D01*
X11959191Y-13482399D02*
X11844906Y-13596685D01*
X11844906Y-13596685D02*
X11968715Y-13596685D01*
X12206810Y-13596685D02*
X12206810Y-13396685D01*
X12292525Y-13596685D02*
X12292525Y-13491923D01*
X12292525Y-13491923D02*
X12283001Y-13472876D01*
X12283001Y-13472876D02*
X12263953Y-13463352D01*
X12263953Y-13463352D02*
X12235382Y-13463352D01*
X12235382Y-13463352D02*
X12216334Y-13472876D01*
X12216334Y-13472876D02*
X12206810Y-13482399D01*
X12416334Y-13596685D02*
X12397287Y-13587161D01*
X12397287Y-13587161D02*
X12387763Y-13577638D01*
X12387763Y-13577638D02*
X12378239Y-13558590D01*
X12378239Y-13558590D02*
X12378239Y-13501447D01*
X12378239Y-13501447D02*
X12387763Y-13482399D01*
X12387763Y-13482399D02*
X12397287Y-13472876D01*
X12397287Y-13472876D02*
X12416334Y-13463352D01*
X12416334Y-13463352D02*
X12444906Y-13463352D01*
X12444906Y-13463352D02*
X12463953Y-13472876D01*
X12463953Y-13472876D02*
X12473477Y-13482399D01*
X12473477Y-13482399D02*
X12483001Y-13501447D01*
X12483001Y-13501447D02*
X12483001Y-13558590D01*
X12483001Y-13558590D02*
X12473477Y-13577638D01*
X12473477Y-13577638D02*
X12463953Y-13587161D01*
X12463953Y-13587161D02*
X12444906Y-13596685D01*
X12444906Y-13596685D02*
X12416334Y-13596685D01*
X12597287Y-13596685D02*
X12578239Y-13587161D01*
X12578239Y-13587161D02*
X12568715Y-13568114D01*
X12568715Y-13568114D02*
X12568715Y-13396685D01*
X12749668Y-13587161D02*
X12730620Y-13596685D01*
X12730620Y-13596685D02*
X12692525Y-13596685D01*
X12692525Y-13596685D02*
X12673477Y-13587161D01*
X12673477Y-13587161D02*
X12663953Y-13568114D01*
X12663953Y-13568114D02*
X12663953Y-13491923D01*
X12663953Y-13491923D02*
X12673477Y-13472876D01*
X12673477Y-13472876D02*
X12692525Y-13463352D01*
X12692525Y-13463352D02*
X12730620Y-13463352D01*
X12730620Y-13463352D02*
X12749668Y-13472876D01*
X12749668Y-13472876D02*
X12759191Y-13491923D01*
X12759191Y-13491923D02*
X12759191Y-13510971D01*
X12759191Y-13510971D02*
X12663953Y-13530019D01*
X12835382Y-13587161D02*
X12854430Y-13596685D01*
X12854430Y-13596685D02*
X12892525Y-13596685D01*
X12892525Y-13596685D02*
X12911572Y-13587161D01*
X12911572Y-13587161D02*
X12921096Y-13568114D01*
X12921096Y-13568114D02*
X12921096Y-13558590D01*
X12921096Y-13558590D02*
X12911572Y-13539542D01*
X12911572Y-13539542D02*
X12892525Y-13530019D01*
X12892525Y-13530019D02*
X12863953Y-13530019D01*
X12863953Y-13530019D02*
X12844906Y-13520495D01*
X12844906Y-13520495D02*
X12835382Y-13501447D01*
X12835382Y-13501447D02*
X12835382Y-13491923D01*
X12835382Y-13491923D02*
X12844906Y-13472876D01*
X12844906Y-13472876D02*
X12863953Y-13463352D01*
X12863953Y-13463352D02*
X12892525Y-13463352D01*
X12892525Y-13463352D02*
X12911572Y-13472876D01*
X12987763Y-13672876D02*
X12997287Y-13663352D01*
X12997287Y-13663352D02*
X13016334Y-13634780D01*
X13016334Y-13634780D02*
X13025858Y-13615733D01*
X13025858Y-13615733D02*
X13035382Y-13587161D01*
X13035382Y-13587161D02*
X13044906Y-13539542D01*
X13044906Y-13539542D02*
X13044906Y-13501447D01*
X13044906Y-13501447D02*
X13035382Y-13453828D01*
X13035382Y-13453828D02*
X13025858Y-13425257D01*
X13025858Y-13425257D02*
X13016334Y-13406209D01*
X13016334Y-13406209D02*
X12997287Y-13377638D01*
X12997287Y-13377638D02*
X12987763Y-13368114D01*
X13349668Y-13672876D02*
X13340144Y-13663352D01*
X13340144Y-13663352D02*
X13321096Y-13634780D01*
X13321096Y-13634780D02*
X13311572Y-13615733D01*
X13311572Y-13615733D02*
X13302049Y-13587161D01*
X13302049Y-13587161D02*
X13292525Y-13539542D01*
X13292525Y-13539542D02*
X13292525Y-13501447D01*
X13292525Y-13501447D02*
X13302049Y-13453828D01*
X13302049Y-13453828D02*
X13311572Y-13425257D01*
X13311572Y-13425257D02*
X13321096Y-13406209D01*
X13321096Y-13406209D02*
X13340144Y-13377638D01*
X13340144Y-13377638D02*
X13349668Y-13368114D01*
X13425858Y-13463352D02*
X13425858Y-13596685D01*
X13425858Y-13482399D02*
X13435382Y-13472876D01*
X13435382Y-13472876D02*
X13454430Y-13463352D01*
X13454430Y-13463352D02*
X13483001Y-13463352D01*
X13483001Y-13463352D02*
X13502049Y-13472876D01*
X13502049Y-13472876D02*
X13511572Y-13491923D01*
X13511572Y-13491923D02*
X13511572Y-13596685D01*
X13635382Y-13596685D02*
X13616334Y-13587161D01*
X13616334Y-13587161D02*
X13606811Y-13577638D01*
X13606811Y-13577638D02*
X13597287Y-13558590D01*
X13597287Y-13558590D02*
X13597287Y-13501447D01*
X13597287Y-13501447D02*
X13606811Y-13482399D01*
X13606811Y-13482399D02*
X13616334Y-13472876D01*
X13616334Y-13472876D02*
X13635382Y-13463352D01*
X13635382Y-13463352D02*
X13663953Y-13463352D01*
X13663953Y-13463352D02*
X13683001Y-13472876D01*
X13683001Y-13472876D02*
X13692525Y-13482399D01*
X13692525Y-13482399D02*
X13702049Y-13501447D01*
X13702049Y-13501447D02*
X13702049Y-13558590D01*
X13702049Y-13558590D02*
X13692525Y-13577638D01*
X13692525Y-13577638D02*
X13683001Y-13587161D01*
X13683001Y-13587161D02*
X13663953Y-13596685D01*
X13663953Y-13596685D02*
X13635382Y-13596685D01*
X13759192Y-13463352D02*
X13835382Y-13463352D01*
X13787763Y-13396685D02*
X13787763Y-13568114D01*
X13787763Y-13568114D02*
X13797287Y-13587161D01*
X13797287Y-13587161D02*
X13816334Y-13596685D01*
X13816334Y-13596685D02*
X13835382Y-13596685D01*
X14054430Y-13463352D02*
X14054430Y-13663352D01*
X14054430Y-13472876D02*
X14073477Y-13463352D01*
X14073477Y-13463352D02*
X14111573Y-13463352D01*
X14111573Y-13463352D02*
X14130620Y-13472876D01*
X14130620Y-13472876D02*
X14140144Y-13482399D01*
X14140144Y-13482399D02*
X14149668Y-13501447D01*
X14149668Y-13501447D02*
X14149668Y-13558590D01*
X14149668Y-13558590D02*
X14140144Y-13577638D01*
X14140144Y-13577638D02*
X14130620Y-13587161D01*
X14130620Y-13587161D02*
X14111573Y-13596685D01*
X14111573Y-13596685D02*
X14073477Y-13596685D01*
X14073477Y-13596685D02*
X14054430Y-13587161D01*
X14263953Y-13596685D02*
X14244906Y-13587161D01*
X14244906Y-13587161D02*
X14235382Y-13568114D01*
X14235382Y-13568114D02*
X14235382Y-13396685D01*
X14425858Y-13596685D02*
X14425858Y-13491923D01*
X14425858Y-13491923D02*
X14416334Y-13472876D01*
X14416334Y-13472876D02*
X14397287Y-13463352D01*
X14397287Y-13463352D02*
X14359192Y-13463352D01*
X14359192Y-13463352D02*
X14340144Y-13472876D01*
X14425858Y-13587161D02*
X14406811Y-13596685D01*
X14406811Y-13596685D02*
X14359192Y-13596685D01*
X14359192Y-13596685D02*
X14340144Y-13587161D01*
X14340144Y-13587161D02*
X14330620Y-13568114D01*
X14330620Y-13568114D02*
X14330620Y-13549066D01*
X14330620Y-13549066D02*
X14340144Y-13530019D01*
X14340144Y-13530019D02*
X14359192Y-13520495D01*
X14359192Y-13520495D02*
X14406811Y-13520495D01*
X14406811Y-13520495D02*
X14425858Y-13510971D01*
X14492525Y-13463352D02*
X14568715Y-13463352D01*
X14521096Y-13396685D02*
X14521096Y-13568114D01*
X14521096Y-13568114D02*
X14530620Y-13587161D01*
X14530620Y-13587161D02*
X14549668Y-13596685D01*
X14549668Y-13596685D02*
X14568715Y-13596685D01*
X14711573Y-13587161D02*
X14692525Y-13596685D01*
X14692525Y-13596685D02*
X14654430Y-13596685D01*
X14654430Y-13596685D02*
X14635382Y-13587161D01*
X14635382Y-13587161D02*
X14625858Y-13568114D01*
X14625858Y-13568114D02*
X14625858Y-13491923D01*
X14625858Y-13491923D02*
X14635382Y-13472876D01*
X14635382Y-13472876D02*
X14654430Y-13463352D01*
X14654430Y-13463352D02*
X14692525Y-13463352D01*
X14692525Y-13463352D02*
X14711573Y-13472876D01*
X14711573Y-13472876D02*
X14721096Y-13491923D01*
X14721096Y-13491923D02*
X14721096Y-13510971D01*
X14721096Y-13510971D02*
X14625858Y-13530019D01*
X14892525Y-13596685D02*
X14892525Y-13396685D01*
X14892525Y-13587161D02*
X14873477Y-13596685D01*
X14873477Y-13596685D02*
X14835382Y-13596685D01*
X14835382Y-13596685D02*
X14816334Y-13587161D01*
X14816334Y-13587161D02*
X14806811Y-13577638D01*
X14806811Y-13577638D02*
X14797287Y-13558590D01*
X14797287Y-13558590D02*
X14797287Y-13501447D01*
X14797287Y-13501447D02*
X14806811Y-13482399D01*
X14806811Y-13482399D02*
X14816334Y-13472876D01*
X14816334Y-13472876D02*
X14835382Y-13463352D01*
X14835382Y-13463352D02*
X14873477Y-13463352D01*
X14873477Y-13463352D02*
X14892525Y-13472876D01*
X14968715Y-13672876D02*
X14978239Y-13663352D01*
X14978239Y-13663352D02*
X14997287Y-13634780D01*
X14997287Y-13634780D02*
X15006811Y-13615733D01*
X15006811Y-13615733D02*
X15016334Y-13587161D01*
X15016334Y-13587161D02*
X15025858Y-13539542D01*
X15025858Y-13539542D02*
X15025858Y-13501447D01*
X15025858Y-13501447D02*
X15016334Y-13453828D01*
X15016334Y-13453828D02*
X15006811Y-13425257D01*
X15006811Y-13425257D02*
X14997287Y-13406209D01*
X14997287Y-13406209D02*
X14978239Y-13377638D01*
X14978239Y-13377638D02*
X14968715Y-13368114D01*
X8212700Y-13769201D02*
G75*
G03*
X8212700Y-13769201I-100000J0D01*
G01*
X8463953Y-13679733D02*
X8473477Y-13670209D01*
X8473477Y-13670209D02*
X8492524Y-13660685D01*
X8492524Y-13660685D02*
X8540144Y-13660685D01*
X8540144Y-13660685D02*
X8559191Y-13670209D01*
X8559191Y-13670209D02*
X8568715Y-13679733D01*
X8568715Y-13679733D02*
X8578239Y-13698780D01*
X8578239Y-13698780D02*
X8578239Y-13717828D01*
X8578239Y-13717828D02*
X8568715Y-13746399D01*
X8568715Y-13746399D02*
X8454429Y-13860685D01*
X8454429Y-13860685D02*
X8578239Y-13860685D01*
X8663953Y-13841638D02*
X8673477Y-13851161D01*
X8673477Y-13851161D02*
X8663953Y-13860685D01*
X8663953Y-13860685D02*
X8654429Y-13851161D01*
X8654429Y-13851161D02*
X8663953Y-13841638D01*
X8663953Y-13841638D02*
X8663953Y-13860685D01*
X8749667Y-13679733D02*
X8759191Y-13670209D01*
X8759191Y-13670209D02*
X8778239Y-13660685D01*
X8778239Y-13660685D02*
X8825858Y-13660685D01*
X8825858Y-13660685D02*
X8844905Y-13670209D01*
X8844905Y-13670209D02*
X8854429Y-13679733D01*
X8854429Y-13679733D02*
X8863953Y-13698780D01*
X8863953Y-13698780D02*
X8863953Y-13717828D01*
X8863953Y-13717828D02*
X8854429Y-13746399D01*
X8854429Y-13746399D02*
X8740144Y-13860685D01*
X8740144Y-13860685D02*
X8863953Y-13860685D01*
X8987763Y-13660685D02*
X9006810Y-13660685D01*
X9006810Y-13660685D02*
X9025858Y-13670209D01*
X9025858Y-13670209D02*
X9035382Y-13679733D01*
X9035382Y-13679733D02*
X9044905Y-13698780D01*
X9044905Y-13698780D02*
X9054429Y-13736876D01*
X9054429Y-13736876D02*
X9054429Y-13784495D01*
X9054429Y-13784495D02*
X9044905Y-13822590D01*
X9044905Y-13822590D02*
X9035382Y-13841638D01*
X9035382Y-13841638D02*
X9025858Y-13851161D01*
X9025858Y-13851161D02*
X9006810Y-13860685D01*
X9006810Y-13860685D02*
X8987763Y-13860685D01*
X8987763Y-13860685D02*
X8968715Y-13851161D01*
X8968715Y-13851161D02*
X8959191Y-13841638D01*
X8959191Y-13841638D02*
X8949667Y-13822590D01*
X8949667Y-13822590D02*
X8940144Y-13784495D01*
X8940144Y-13784495D02*
X8940144Y-13736876D01*
X8940144Y-13736876D02*
X8949667Y-13698780D01*
X8949667Y-13698780D02*
X8959191Y-13679733D01*
X8959191Y-13679733D02*
X8968715Y-13670209D01*
X8968715Y-13670209D02*
X8987763Y-13660685D01*
X9178239Y-13660685D02*
X9197286Y-13660685D01*
X9197286Y-13660685D02*
X9216334Y-13670209D01*
X9216334Y-13670209D02*
X9225858Y-13679733D01*
X9225858Y-13679733D02*
X9235382Y-13698780D01*
X9235382Y-13698780D02*
X9244905Y-13736876D01*
X9244905Y-13736876D02*
X9244905Y-13784495D01*
X9244905Y-13784495D02*
X9235382Y-13822590D01*
X9235382Y-13822590D02*
X9225858Y-13841638D01*
X9225858Y-13841638D02*
X9216334Y-13851161D01*
X9216334Y-13851161D02*
X9197286Y-13860685D01*
X9197286Y-13860685D02*
X9178239Y-13860685D01*
X9178239Y-13860685D02*
X9159191Y-13851161D01*
X9159191Y-13851161D02*
X9149667Y-13841638D01*
X9149667Y-13841638D02*
X9140144Y-13822590D01*
X9140144Y-13822590D02*
X9130620Y-13784495D01*
X9130620Y-13784495D02*
X9130620Y-13736876D01*
X9130620Y-13736876D02*
X9140144Y-13698780D01*
X9140144Y-13698780D02*
X9149667Y-13679733D01*
X9149667Y-13679733D02*
X9159191Y-13670209D01*
X9159191Y-13670209D02*
X9178239Y-13660685D01*
X9330620Y-13860685D02*
X9330620Y-13727352D01*
X9330620Y-13746399D02*
X9340144Y-13736876D01*
X9340144Y-13736876D02*
X9359191Y-13727352D01*
X9359191Y-13727352D02*
X9387763Y-13727352D01*
X9387763Y-13727352D02*
X9406810Y-13736876D01*
X9406810Y-13736876D02*
X9416334Y-13755923D01*
X9416334Y-13755923D02*
X9416334Y-13860685D01*
X9416334Y-13755923D02*
X9425858Y-13736876D01*
X9425858Y-13736876D02*
X9444905Y-13727352D01*
X9444905Y-13727352D02*
X9473477Y-13727352D01*
X9473477Y-13727352D02*
X9492525Y-13736876D01*
X9492525Y-13736876D02*
X9502048Y-13755923D01*
X9502048Y-13755923D02*
X9502048Y-13860685D01*
X9597286Y-13860685D02*
X9597286Y-13727352D01*
X9597286Y-13746399D02*
X9606810Y-13736876D01*
X9606810Y-13736876D02*
X9625858Y-13727352D01*
X9625858Y-13727352D02*
X9654429Y-13727352D01*
X9654429Y-13727352D02*
X9673477Y-13736876D01*
X9673477Y-13736876D02*
X9683001Y-13755923D01*
X9683001Y-13755923D02*
X9683001Y-13860685D01*
X9683001Y-13755923D02*
X9692525Y-13736876D01*
X9692525Y-13736876D02*
X9711572Y-13727352D01*
X9711572Y-13727352D02*
X9740144Y-13727352D01*
X9740144Y-13727352D02*
X9759191Y-13736876D01*
X9759191Y-13736876D02*
X9768715Y-13755923D01*
X9768715Y-13755923D02*
X9768715Y-13860685D01*
X10159191Y-13651161D02*
X9987763Y-13908304D01*
X10416334Y-13660685D02*
X10435382Y-13660685D01*
X10435382Y-13660685D02*
X10454429Y-13670209D01*
X10454429Y-13670209D02*
X10463953Y-13679733D01*
X10463953Y-13679733D02*
X10473477Y-13698780D01*
X10473477Y-13698780D02*
X10483001Y-13736876D01*
X10483001Y-13736876D02*
X10483001Y-13784495D01*
X10483001Y-13784495D02*
X10473477Y-13822590D01*
X10473477Y-13822590D02*
X10463953Y-13841638D01*
X10463953Y-13841638D02*
X10454429Y-13851161D01*
X10454429Y-13851161D02*
X10435382Y-13860685D01*
X10435382Y-13860685D02*
X10416334Y-13860685D01*
X10416334Y-13860685D02*
X10397287Y-13851161D01*
X10397287Y-13851161D02*
X10387763Y-13841638D01*
X10387763Y-13841638D02*
X10378239Y-13822590D01*
X10378239Y-13822590D02*
X10368715Y-13784495D01*
X10368715Y-13784495D02*
X10368715Y-13736876D01*
X10368715Y-13736876D02*
X10378239Y-13698780D01*
X10378239Y-13698780D02*
X10387763Y-13679733D01*
X10387763Y-13679733D02*
X10397287Y-13670209D01*
X10397287Y-13670209D02*
X10416334Y-13660685D01*
X10568715Y-13841638D02*
X10578239Y-13851161D01*
X10578239Y-13851161D02*
X10568715Y-13860685D01*
X10568715Y-13860685D02*
X10559191Y-13851161D01*
X10559191Y-13851161D02*
X10568715Y-13841638D01*
X10568715Y-13841638D02*
X10568715Y-13860685D01*
X10702048Y-13660685D02*
X10721096Y-13660685D01*
X10721096Y-13660685D02*
X10740144Y-13670209D01*
X10740144Y-13670209D02*
X10749668Y-13679733D01*
X10749668Y-13679733D02*
X10759191Y-13698780D01*
X10759191Y-13698780D02*
X10768715Y-13736876D01*
X10768715Y-13736876D02*
X10768715Y-13784495D01*
X10768715Y-13784495D02*
X10759191Y-13822590D01*
X10759191Y-13822590D02*
X10749668Y-13841638D01*
X10749668Y-13841638D02*
X10740144Y-13851161D01*
X10740144Y-13851161D02*
X10721096Y-13860685D01*
X10721096Y-13860685D02*
X10702048Y-13860685D01*
X10702048Y-13860685D02*
X10683001Y-13851161D01*
X10683001Y-13851161D02*
X10673477Y-13841638D01*
X10673477Y-13841638D02*
X10663953Y-13822590D01*
X10663953Y-13822590D02*
X10654429Y-13784495D01*
X10654429Y-13784495D02*
X10654429Y-13736876D01*
X10654429Y-13736876D02*
X10663953Y-13698780D01*
X10663953Y-13698780D02*
X10673477Y-13679733D01*
X10673477Y-13679733D02*
X10683001Y-13670209D01*
X10683001Y-13670209D02*
X10702048Y-13660685D01*
X10883001Y-13746399D02*
X10863953Y-13736876D01*
X10863953Y-13736876D02*
X10854429Y-13727352D01*
X10854429Y-13727352D02*
X10844906Y-13708304D01*
X10844906Y-13708304D02*
X10844906Y-13698780D01*
X10844906Y-13698780D02*
X10854429Y-13679733D01*
X10854429Y-13679733D02*
X10863953Y-13670209D01*
X10863953Y-13670209D02*
X10883001Y-13660685D01*
X10883001Y-13660685D02*
X10921096Y-13660685D01*
X10921096Y-13660685D02*
X10940144Y-13670209D01*
X10940144Y-13670209D02*
X10949668Y-13679733D01*
X10949668Y-13679733D02*
X10959191Y-13698780D01*
X10959191Y-13698780D02*
X10959191Y-13708304D01*
X10959191Y-13708304D02*
X10949668Y-13727352D01*
X10949668Y-13727352D02*
X10940144Y-13736876D01*
X10940144Y-13736876D02*
X10921096Y-13746399D01*
X10921096Y-13746399D02*
X10883001Y-13746399D01*
X10883001Y-13746399D02*
X10863953Y-13755923D01*
X10863953Y-13755923D02*
X10854429Y-13765447D01*
X10854429Y-13765447D02*
X10844906Y-13784495D01*
X10844906Y-13784495D02*
X10844906Y-13822590D01*
X10844906Y-13822590D02*
X10854429Y-13841638D01*
X10854429Y-13841638D02*
X10863953Y-13851161D01*
X10863953Y-13851161D02*
X10883001Y-13860685D01*
X10883001Y-13860685D02*
X10921096Y-13860685D01*
X10921096Y-13860685D02*
X10940144Y-13851161D01*
X10940144Y-13851161D02*
X10949668Y-13841638D01*
X10949668Y-13841638D02*
X10959191Y-13822590D01*
X10959191Y-13822590D02*
X10959191Y-13784495D01*
X10959191Y-13784495D02*
X10949668Y-13765447D01*
X10949668Y-13765447D02*
X10940144Y-13755923D01*
X10940144Y-13755923D02*
X10921096Y-13746399D01*
X11130620Y-13660685D02*
X11092525Y-13660685D01*
X11092525Y-13660685D02*
X11073477Y-13670209D01*
X11073477Y-13670209D02*
X11063953Y-13679733D01*
X11063953Y-13679733D02*
X11044906Y-13708304D01*
X11044906Y-13708304D02*
X11035382Y-13746399D01*
X11035382Y-13746399D02*
X11035382Y-13822590D01*
X11035382Y-13822590D02*
X11044906Y-13841638D01*
X11044906Y-13841638D02*
X11054429Y-13851161D01*
X11054429Y-13851161D02*
X11073477Y-13860685D01*
X11073477Y-13860685D02*
X11111572Y-13860685D01*
X11111572Y-13860685D02*
X11130620Y-13851161D01*
X11130620Y-13851161D02*
X11140144Y-13841638D01*
X11140144Y-13841638D02*
X11149668Y-13822590D01*
X11149668Y-13822590D02*
X11149668Y-13774971D01*
X11149668Y-13774971D02*
X11140144Y-13755923D01*
X11140144Y-13755923D02*
X11130620Y-13746399D01*
X11130620Y-13746399D02*
X11111572Y-13736876D01*
X11111572Y-13736876D02*
X11073477Y-13736876D01*
X11073477Y-13736876D02*
X11054429Y-13746399D01*
X11054429Y-13746399D02*
X11044906Y-13755923D01*
X11044906Y-13755923D02*
X11035382Y-13774971D01*
X11321096Y-13660685D02*
X11283001Y-13660685D01*
X11283001Y-13660685D02*
X11263953Y-13670209D01*
X11263953Y-13670209D02*
X11254429Y-13679733D01*
X11254429Y-13679733D02*
X11235382Y-13708304D01*
X11235382Y-13708304D02*
X11225858Y-13746399D01*
X11225858Y-13746399D02*
X11225858Y-13822590D01*
X11225858Y-13822590D02*
X11235382Y-13841638D01*
X11235382Y-13841638D02*
X11244906Y-13851161D01*
X11244906Y-13851161D02*
X11263953Y-13860685D01*
X11263953Y-13860685D02*
X11302048Y-13860685D01*
X11302048Y-13860685D02*
X11321096Y-13851161D01*
X11321096Y-13851161D02*
X11330620Y-13841638D01*
X11330620Y-13841638D02*
X11340144Y-13822590D01*
X11340144Y-13822590D02*
X11340144Y-13774971D01*
X11340144Y-13774971D02*
X11330620Y-13755923D01*
X11330620Y-13755923D02*
X11321096Y-13746399D01*
X11321096Y-13746399D02*
X11302048Y-13736876D01*
X11302048Y-13736876D02*
X11263953Y-13736876D01*
X11263953Y-13736876D02*
X11244906Y-13746399D01*
X11244906Y-13746399D02*
X11235382Y-13755923D01*
X11235382Y-13755923D02*
X11225858Y-13774971D01*
X11416334Y-13660685D02*
X11416334Y-13698780D01*
X11492525Y-13660685D02*
X11492525Y-13698780D01*
X11787763Y-13936876D02*
X11778239Y-13927352D01*
X11778239Y-13927352D02*
X11759191Y-13898780D01*
X11759191Y-13898780D02*
X11749668Y-13879733D01*
X11749668Y-13879733D02*
X11740144Y-13851161D01*
X11740144Y-13851161D02*
X11730620Y-13803542D01*
X11730620Y-13803542D02*
X11730620Y-13765447D01*
X11730620Y-13765447D02*
X11740144Y-13717828D01*
X11740144Y-13717828D02*
X11749668Y-13689257D01*
X11749668Y-13689257D02*
X11759191Y-13670209D01*
X11759191Y-13670209D02*
X11778239Y-13641638D01*
X11778239Y-13641638D02*
X11787763Y-13632114D01*
X11949668Y-13727352D02*
X11949668Y-13860685D01*
X11902048Y-13651161D02*
X11854429Y-13794019D01*
X11854429Y-13794019D02*
X11978239Y-13794019D01*
X12206810Y-13860685D02*
X12206810Y-13660685D01*
X12292525Y-13860685D02*
X12292525Y-13755923D01*
X12292525Y-13755923D02*
X12283001Y-13736876D01*
X12283001Y-13736876D02*
X12263953Y-13727352D01*
X12263953Y-13727352D02*
X12235382Y-13727352D01*
X12235382Y-13727352D02*
X12216334Y-13736876D01*
X12216334Y-13736876D02*
X12206810Y-13746399D01*
X12416334Y-13860685D02*
X12397287Y-13851161D01*
X12397287Y-13851161D02*
X12387763Y-13841638D01*
X12387763Y-13841638D02*
X12378239Y-13822590D01*
X12378239Y-13822590D02*
X12378239Y-13765447D01*
X12378239Y-13765447D02*
X12387763Y-13746399D01*
X12387763Y-13746399D02*
X12397287Y-13736876D01*
X12397287Y-13736876D02*
X12416334Y-13727352D01*
X12416334Y-13727352D02*
X12444906Y-13727352D01*
X12444906Y-13727352D02*
X12463953Y-13736876D01*
X12463953Y-13736876D02*
X12473477Y-13746399D01*
X12473477Y-13746399D02*
X12483001Y-13765447D01*
X12483001Y-13765447D02*
X12483001Y-13822590D01*
X12483001Y-13822590D02*
X12473477Y-13841638D01*
X12473477Y-13841638D02*
X12463953Y-13851161D01*
X12463953Y-13851161D02*
X12444906Y-13860685D01*
X12444906Y-13860685D02*
X12416334Y-13860685D01*
X12597287Y-13860685D02*
X12578239Y-13851161D01*
X12578239Y-13851161D02*
X12568715Y-13832114D01*
X12568715Y-13832114D02*
X12568715Y-13660685D01*
X12749668Y-13851161D02*
X12730620Y-13860685D01*
X12730620Y-13860685D02*
X12692525Y-13860685D01*
X12692525Y-13860685D02*
X12673477Y-13851161D01*
X12673477Y-13851161D02*
X12663953Y-13832114D01*
X12663953Y-13832114D02*
X12663953Y-13755923D01*
X12663953Y-13755923D02*
X12673477Y-13736876D01*
X12673477Y-13736876D02*
X12692525Y-13727352D01*
X12692525Y-13727352D02*
X12730620Y-13727352D01*
X12730620Y-13727352D02*
X12749668Y-13736876D01*
X12749668Y-13736876D02*
X12759191Y-13755923D01*
X12759191Y-13755923D02*
X12759191Y-13774971D01*
X12759191Y-13774971D02*
X12663953Y-13794019D01*
X12835382Y-13851161D02*
X12854430Y-13860685D01*
X12854430Y-13860685D02*
X12892525Y-13860685D01*
X12892525Y-13860685D02*
X12911572Y-13851161D01*
X12911572Y-13851161D02*
X12921096Y-13832114D01*
X12921096Y-13832114D02*
X12921096Y-13822590D01*
X12921096Y-13822590D02*
X12911572Y-13803542D01*
X12911572Y-13803542D02*
X12892525Y-13794019D01*
X12892525Y-13794019D02*
X12863953Y-13794019D01*
X12863953Y-13794019D02*
X12844906Y-13784495D01*
X12844906Y-13784495D02*
X12835382Y-13765447D01*
X12835382Y-13765447D02*
X12835382Y-13755923D01*
X12835382Y-13755923D02*
X12844906Y-13736876D01*
X12844906Y-13736876D02*
X12863953Y-13727352D01*
X12863953Y-13727352D02*
X12892525Y-13727352D01*
X12892525Y-13727352D02*
X12911572Y-13736876D01*
X12987763Y-13936876D02*
X12997287Y-13927352D01*
X12997287Y-13927352D02*
X13016334Y-13898780D01*
X13016334Y-13898780D02*
X13025858Y-13879733D01*
X13025858Y-13879733D02*
X13035382Y-13851161D01*
X13035382Y-13851161D02*
X13044906Y-13803542D01*
X13044906Y-13803542D02*
X13044906Y-13765447D01*
X13044906Y-13765447D02*
X13035382Y-13717828D01*
X13035382Y-13717828D02*
X13025858Y-13689257D01*
X13025858Y-13689257D02*
X13016334Y-13670209D01*
X13016334Y-13670209D02*
X12997287Y-13641638D01*
X12997287Y-13641638D02*
X12987763Y-13632114D01*
X13349668Y-13936876D02*
X13340144Y-13927352D01*
X13340144Y-13927352D02*
X13321096Y-13898780D01*
X13321096Y-13898780D02*
X13311572Y-13879733D01*
X13311572Y-13879733D02*
X13302049Y-13851161D01*
X13302049Y-13851161D02*
X13292525Y-13803542D01*
X13292525Y-13803542D02*
X13292525Y-13765447D01*
X13292525Y-13765447D02*
X13302049Y-13717828D01*
X13302049Y-13717828D02*
X13311572Y-13689257D01*
X13311572Y-13689257D02*
X13321096Y-13670209D01*
X13321096Y-13670209D02*
X13340144Y-13641638D01*
X13340144Y-13641638D02*
X13349668Y-13632114D01*
X13425858Y-13727352D02*
X13425858Y-13860685D01*
X13425858Y-13746399D02*
X13435382Y-13736876D01*
X13435382Y-13736876D02*
X13454430Y-13727352D01*
X13454430Y-13727352D02*
X13483001Y-13727352D01*
X13483001Y-13727352D02*
X13502049Y-13736876D01*
X13502049Y-13736876D02*
X13511572Y-13755923D01*
X13511572Y-13755923D02*
X13511572Y-13860685D01*
X13635382Y-13860685D02*
X13616334Y-13851161D01*
X13616334Y-13851161D02*
X13606811Y-13841638D01*
X13606811Y-13841638D02*
X13597287Y-13822590D01*
X13597287Y-13822590D02*
X13597287Y-13765447D01*
X13597287Y-13765447D02*
X13606811Y-13746399D01*
X13606811Y-13746399D02*
X13616334Y-13736876D01*
X13616334Y-13736876D02*
X13635382Y-13727352D01*
X13635382Y-13727352D02*
X13663953Y-13727352D01*
X13663953Y-13727352D02*
X13683001Y-13736876D01*
X13683001Y-13736876D02*
X13692525Y-13746399D01*
X13692525Y-13746399D02*
X13702049Y-13765447D01*
X13702049Y-13765447D02*
X13702049Y-13822590D01*
X13702049Y-13822590D02*
X13692525Y-13841638D01*
X13692525Y-13841638D02*
X13683001Y-13851161D01*
X13683001Y-13851161D02*
X13663953Y-13860685D01*
X13663953Y-13860685D02*
X13635382Y-13860685D01*
X13759192Y-13727352D02*
X13835382Y-13727352D01*
X13787763Y-13660685D02*
X13787763Y-13832114D01*
X13787763Y-13832114D02*
X13797287Y-13851161D01*
X13797287Y-13851161D02*
X13816334Y-13860685D01*
X13816334Y-13860685D02*
X13835382Y-13860685D01*
X14054430Y-13727352D02*
X14054430Y-13927352D01*
X14054430Y-13736876D02*
X14073477Y-13727352D01*
X14073477Y-13727352D02*
X14111573Y-13727352D01*
X14111573Y-13727352D02*
X14130620Y-13736876D01*
X14130620Y-13736876D02*
X14140144Y-13746399D01*
X14140144Y-13746399D02*
X14149668Y-13765447D01*
X14149668Y-13765447D02*
X14149668Y-13822590D01*
X14149668Y-13822590D02*
X14140144Y-13841638D01*
X14140144Y-13841638D02*
X14130620Y-13851161D01*
X14130620Y-13851161D02*
X14111573Y-13860685D01*
X14111573Y-13860685D02*
X14073477Y-13860685D01*
X14073477Y-13860685D02*
X14054430Y-13851161D01*
X14263953Y-13860685D02*
X14244906Y-13851161D01*
X14244906Y-13851161D02*
X14235382Y-13832114D01*
X14235382Y-13832114D02*
X14235382Y-13660685D01*
X14425858Y-13860685D02*
X14425858Y-13755923D01*
X14425858Y-13755923D02*
X14416334Y-13736876D01*
X14416334Y-13736876D02*
X14397287Y-13727352D01*
X14397287Y-13727352D02*
X14359192Y-13727352D01*
X14359192Y-13727352D02*
X14340144Y-13736876D01*
X14425858Y-13851161D02*
X14406811Y-13860685D01*
X14406811Y-13860685D02*
X14359192Y-13860685D01*
X14359192Y-13860685D02*
X14340144Y-13851161D01*
X14340144Y-13851161D02*
X14330620Y-13832114D01*
X14330620Y-13832114D02*
X14330620Y-13813066D01*
X14330620Y-13813066D02*
X14340144Y-13794019D01*
X14340144Y-13794019D02*
X14359192Y-13784495D01*
X14359192Y-13784495D02*
X14406811Y-13784495D01*
X14406811Y-13784495D02*
X14425858Y-13774971D01*
X14492525Y-13727352D02*
X14568715Y-13727352D01*
X14521096Y-13660685D02*
X14521096Y-13832114D01*
X14521096Y-13832114D02*
X14530620Y-13851161D01*
X14530620Y-13851161D02*
X14549668Y-13860685D01*
X14549668Y-13860685D02*
X14568715Y-13860685D01*
X14711573Y-13851161D02*
X14692525Y-13860685D01*
X14692525Y-13860685D02*
X14654430Y-13860685D01*
X14654430Y-13860685D02*
X14635382Y-13851161D01*
X14635382Y-13851161D02*
X14625858Y-13832114D01*
X14625858Y-13832114D02*
X14625858Y-13755923D01*
X14625858Y-13755923D02*
X14635382Y-13736876D01*
X14635382Y-13736876D02*
X14654430Y-13727352D01*
X14654430Y-13727352D02*
X14692525Y-13727352D01*
X14692525Y-13727352D02*
X14711573Y-13736876D01*
X14711573Y-13736876D02*
X14721096Y-13755923D01*
X14721096Y-13755923D02*
X14721096Y-13774971D01*
X14721096Y-13774971D02*
X14625858Y-13794019D01*
X14892525Y-13860685D02*
X14892525Y-13660685D01*
X14892525Y-13851161D02*
X14873477Y-13860685D01*
X14873477Y-13860685D02*
X14835382Y-13860685D01*
X14835382Y-13860685D02*
X14816334Y-13851161D01*
X14816334Y-13851161D02*
X14806811Y-13841638D01*
X14806811Y-13841638D02*
X14797287Y-13822590D01*
X14797287Y-13822590D02*
X14797287Y-13765447D01*
X14797287Y-13765447D02*
X14806811Y-13746399D01*
X14806811Y-13746399D02*
X14816334Y-13736876D01*
X14816334Y-13736876D02*
X14835382Y-13727352D01*
X14835382Y-13727352D02*
X14873477Y-13727352D01*
X14873477Y-13727352D02*
X14892525Y-13736876D01*
X14968715Y-13936876D02*
X14978239Y-13927352D01*
X14978239Y-13927352D02*
X14997287Y-13898780D01*
X14997287Y-13898780D02*
X15006811Y-13879733D01*
X15006811Y-13879733D02*
X15016334Y-13851161D01*
X15016334Y-13851161D02*
X15025858Y-13803542D01*
X15025858Y-13803542D02*
X15025858Y-13765447D01*
X15025858Y-13765447D02*
X15016334Y-13717828D01*
X15016334Y-13717828D02*
X15006811Y-13689257D01*
X15006811Y-13689257D02*
X14997287Y-13670209D01*
X14997287Y-13670209D02*
X14978239Y-13641638D01*
X14978239Y-13641638D02*
X14968715Y-13632114D01*
M02*
