M48
; DRILL file {KiCad 7.0.5} date Tue Jun 20 10:51:43 2023
; FORMAT={-:-/ absolute / metric / decimal}
; #@! TF.CreationDate,2023-06-20T10:51:43+08:00
; #@! TF.GenerationSoftware,Kicad,Pcbnew,7.0.5
; #@! TF.FileFunction,Plated,1,2,PTH
FMAT,2
METRIC
; #@! TA.AperFunction,Plated,PTH,ComponentDrill
T1C0.900
; #@! TA.AperFunction,Plated,PTH,ComponentDrill
T2C1.000
; #@! TA.AperFunction,Plated,PTH,ComponentDrill
T3C1.092
; #@! TA.AperFunction,Plated,PTH,ComponentDrill
T4C1.100
%
G90
G05
T2
X84.057Y-99.898
X84.057Y-102.438
X84.057Y-104.978
X84.057Y-107.518
X84.057Y-110.058
X84.057Y-112.598
X84.057Y-115.138
X87.74Y-102.362
X87.74Y-104.902
X87.74Y-107.442
X87.74Y-109.982
X87.74Y-112.522
X87.74Y-115.062
X87.833Y-118.796
X90.373Y-118.796
X92.913Y-118.796
X95.453Y-118.796
X97.993Y-118.796
X100.533Y-118.796
X103.073Y-118.796
X105.613Y-118.796
X108.153Y-118.796
X110.634Y-102.387
X110.634Y-104.927
X110.634Y-107.467
X110.634Y-110.007
X110.634Y-112.547
X110.634Y-115.087
X110.693Y-118.796
X114.267Y-99.898
X114.267Y-102.438
X114.267Y-104.978
X114.267Y-107.518
X114.267Y-110.058
X114.267Y-112.598
X114.267Y-115.138
T3
X91.567Y-87.153
X91.567Y-89.693
X91.567Y-92.233
X91.567Y-94.773
X91.567Y-97.313
X91.567Y-99.853
X91.567Y-102.393
X91.567Y-104.933
X91.567Y-107.473
X91.567Y-110.013
X91.567Y-112.553
X91.567Y-115.093
X94.107Y-115.093
X96.647Y-115.093
X99.187Y-115.093
X101.727Y-115.093
X104.267Y-115.093
X106.807Y-87.153
X106.807Y-89.693
X106.807Y-92.233
X106.807Y-94.773
X106.807Y-97.313
X106.807Y-99.853
X106.807Y-102.393
X106.807Y-104.933
X106.807Y-107.473
X106.807Y-110.013
X106.807Y-112.553
X106.807Y-115.093
T4
X100.33Y-122.413
X100.33Y-126.913
X106.83Y-122.413
X106.83Y-126.913
T1
X87.652Y-127.076G85X88.052Y-127.076
G05
X87.677Y-122.49G85X88.077Y-122.49
G05
X90.677Y-122.49G85X91.077Y-122.49
G05
X90.7Y-127.076G85X91.1Y-127.076
G05
X94.772Y-127.09G85X96.172Y-127.09
G05
X94.777Y-122.49G85X96.177Y-122.49
G05
X109.663Y-94.358G85X109.663Y-95.758
G05
X109.677Y-87.238G85X109.677Y-87.638
G05
X109.677Y-90.286G85X109.677Y-90.686
G05
X114.263Y-87.263G85X114.263Y-87.663
G05
X114.263Y-90.263G85X114.263Y-90.663
G05
X114.263Y-94.363G85X114.263Y-95.763
G05
T0
M30
