G04 #@! TF.GenerationSoftware,KiCad,Pcbnew,7.0.5*
G04 #@! TF.CreationDate,2023-08-14T09:49:52+08:00*
G04 #@! TF.ProjectId,handwire microboard,68616e64-7769-4726-9520-6d6963726f62,rev?*
G04 #@! TF.SameCoordinates,Original*
G04 #@! TF.FileFunction,Copper,L1,Top*
G04 #@! TF.FilePolarity,Positive*
%FSLAX46Y46*%
G04 Gerber Fmt 4.6, Leading zero omitted, Abs format (unit mm)*
G04 Created by KiCad (PCBNEW 7.0.5) date 2023-08-14 09:49:52*
%MOMM*%
%LPD*%
G01*
G04 APERTURE LIST*
G04 Aperture macros list*
%AMRoundRect*
0 Rectangle with rounded corners*
0 $1 Rounding radius*
0 $2 $3 $4 $5 $6 $7 $8 $9 X,Y pos of 4 corners*
0 Add a 4 corners polygon primitive as box body*
4,1,4,$2,$3,$4,$5,$6,$7,$8,$9,$2,$3,0*
0 Add four circle primitives for the rounded corners*
1,1,$1+$1,$2,$3*
1,1,$1+$1,$4,$5*
1,1,$1+$1,$6,$7*
1,1,$1+$1,$8,$9*
0 Add four rect primitives between the rounded corners*
20,1,$1+$1,$2,$3,$4,$5,0*
20,1,$1+$1,$4,$5,$6,$7,0*
20,1,$1+$1,$6,$7,$8,$9,0*
20,1,$1+$1,$8,$9,$2,$3,0*%
%AMOutline4P*
0 Free polygon, 4 corners , with rotation*
0 The origin of the aperture is its center*
0 number of corners: always 4*
0 $1 to $8 corner X, Y*
0 $9 Rotation angle, in degrees counterclockwise*
0 create outline with 4 corners*
4,1,4,$1,$2,$3,$4,$5,$6,$7,$8,$1,$2,$9*%
G04 Aperture macros list end*
G04 #@! TA.AperFunction,ComponentPad*
%ADD10O,3.029000X1.576000*%
G04 #@! TD*
G04 #@! TA.AperFunction,ComponentPad*
%ADD11O,1.800000X1.500000*%
G04 #@! TD*
G04 #@! TA.AperFunction,ComponentPad*
%ADD12C,2.000000*%
G04 #@! TD*
G04 #@! TA.AperFunction,ComponentPad*
%ADD13C,1.752600*%
G04 #@! TD*
G04 #@! TA.AperFunction,ComponentPad*
%ADD14RoundRect,0.438150X-0.438150X0.438150X-0.438150X-0.438150X0.438150X-0.438150X0.438150X0.438150X0*%
G04 #@! TD*
G04 #@! TA.AperFunction,ComponentPad*
%ADD15Outline4P,-0.876300X-0.876300X0.876300X-0.876300X0.876300X0.876300X-0.876300X0.876300X270.000000*%
G04 #@! TD*
G04 #@! TA.AperFunction,ComponentPad*
%ADD16C,1.700000*%
G04 #@! TD*
G04 #@! TA.AperFunction,ComponentPad*
%ADD17O,1.700000X1.700000*%
G04 #@! TD*
G04 #@! TA.AperFunction,ComponentPad*
%ADD18O,1.576000X3.029000*%
G04 #@! TD*
G04 #@! TA.AperFunction,ComponentPad*
%ADD19O,1.500000X1.800000*%
G04 #@! TD*
G04 #@! TA.AperFunction,ComponentPad*
%ADD20RoundRect,0.425000X0.425000X-0.425000X0.425000X0.425000X-0.425000X0.425000X-0.425000X-0.425000X0*%
G04 #@! TD*
G04 #@! TA.AperFunction,ViaPad*
%ADD21C,0.800000*%
G04 #@! TD*
G04 #@! TA.AperFunction,Conductor*
%ADD22C,0.250000*%
G04 #@! TD*
G04 APERTURE END LIST*
D10*
X47505000Y-73576000D03*
X47510000Y-68970000D03*
D11*
X42933000Y-73576000D03*
X42910000Y-68970000D03*
X39885000Y-73576000D03*
X39910000Y-68970000D03*
D12*
X52320000Y-69180000D03*
X58820000Y-69180000D03*
X52320000Y-73680000D03*
X58820000Y-73680000D03*
D13*
X43720000Y-34530000D03*
X43720000Y-37070000D03*
D14*
X43720000Y-39610000D03*
X43720000Y-42150000D03*
D13*
X43720000Y-44690000D03*
X43720000Y-47230000D03*
X43720000Y-49770000D03*
X43720000Y-52310000D03*
X43720000Y-54850000D03*
X43720000Y-57390000D03*
X43720000Y-59930000D03*
X43720000Y-62470000D03*
X58960000Y-62470000D03*
X58960000Y-59930000D03*
X58960000Y-57390000D03*
X58960000Y-54850000D03*
X58960000Y-52310000D03*
X58960000Y-49770000D03*
X58960000Y-47230000D03*
X58960000Y-44690000D03*
D15*
X58960000Y-42150000D03*
D13*
X58960000Y-39610000D03*
D14*
X58960000Y-37070000D03*
D13*
X58960000Y-34530000D03*
X46260000Y-62470000D03*
X48800000Y-62470000D03*
X51340000Y-62470000D03*
X53880000Y-62470000D03*
X56420000Y-62470000D03*
D16*
X36250000Y-44690000D03*
D17*
X36250000Y-47230000D03*
X36250000Y-49770000D03*
X36250000Y-52310000D03*
X36250000Y-54850000D03*
X36250000Y-57390000D03*
X36250000Y-59930000D03*
X36250000Y-62470000D03*
X36250000Y-65010000D03*
X38790000Y-44690000D03*
X38790000Y-47230000D03*
X38790000Y-49770000D03*
X38790000Y-52310000D03*
X38790000Y-54850000D03*
X38790000Y-57390000D03*
X38790000Y-59930000D03*
X38790000Y-62470000D03*
X38790000Y-65010000D03*
X66470000Y-44690000D03*
X66470000Y-47230000D03*
X66470000Y-49770000D03*
X66470000Y-52310000D03*
X66470000Y-54850000D03*
X66470000Y-57390000D03*
X66470000Y-59930000D03*
X66470000Y-62470000D03*
X66470000Y-65010000D03*
D16*
X63930000Y-44690000D03*
D17*
X63930000Y-47230000D03*
X63930000Y-49770000D03*
X63930000Y-52310000D03*
X63930000Y-54850000D03*
X63930000Y-57390000D03*
X63930000Y-59930000D03*
X63930000Y-62470000D03*
X63930000Y-65010000D03*
D18*
X62084000Y-41158500D03*
X66690000Y-41163500D03*
D19*
X62084000Y-36586500D03*
X66690000Y-36563500D03*
X62084000Y-33538500D03*
X66690000Y-33563500D03*
D20*
X43705000Y-65820000D03*
D17*
X46245000Y-65820000D03*
X48785000Y-65820000D03*
X51325000Y-65820000D03*
X53865000Y-65820000D03*
X56405000Y-65820000D03*
D20*
X58945000Y-65820000D03*
D21*
X41430000Y-42180000D03*
X50150000Y-68650000D03*
X40660000Y-66020000D03*
X54820000Y-42640000D03*
X41410850Y-67754819D03*
X41430000Y-45235500D03*
D22*
X42450000Y-63740000D02*
X43720000Y-62470000D01*
X36250000Y-65010000D02*
X37520000Y-63740000D01*
X37520000Y-63740000D02*
X42450000Y-63740000D01*
X36250000Y-62470000D02*
X37520000Y-61200000D01*
X37520000Y-61200000D02*
X42450000Y-61200000D01*
X42450000Y-61200000D02*
X43720000Y-59930000D01*
X36250000Y-59930000D02*
X37510000Y-58670000D01*
X37510000Y-58670000D02*
X42440000Y-58670000D01*
X42440000Y-58670000D02*
X43720000Y-57390000D01*
X36250000Y-57390000D02*
X37530000Y-56110000D01*
X42460000Y-56110000D02*
X43720000Y-54850000D01*
X37530000Y-56110000D02*
X42460000Y-56110000D01*
X37530000Y-53570000D02*
X42460000Y-53570000D01*
X36250000Y-54850000D02*
X37530000Y-53570000D01*
X42460000Y-53570000D02*
X43720000Y-52310000D01*
X36250000Y-52310000D02*
X37520000Y-51040000D01*
X37520000Y-51040000D02*
X42450000Y-51040000D01*
X42450000Y-51040000D02*
X43720000Y-49770000D01*
X36250000Y-49770000D02*
X37520000Y-48500000D01*
X42450000Y-48500000D02*
X43720000Y-47230000D01*
X37520000Y-48500000D02*
X42450000Y-48500000D01*
X37520000Y-45960000D02*
X42450000Y-45960000D01*
X42450000Y-45960000D02*
X43720000Y-44690000D01*
X36250000Y-47230000D02*
X37520000Y-45960000D01*
X61500000Y-47230000D02*
X58960000Y-44690000D01*
X42021105Y-47230000D02*
X43301105Y-45950000D01*
X63930000Y-47230000D02*
X61500000Y-47230000D01*
X38790000Y-47230000D02*
X42021105Y-47230000D01*
X57700000Y-45950000D02*
X58960000Y-44690000D01*
X43301105Y-45950000D02*
X57700000Y-45950000D01*
X43096396Y-48490000D02*
X41816396Y-49770000D01*
X57700000Y-48490000D02*
X43096396Y-48490000D01*
X41816396Y-49770000D02*
X38790000Y-49770000D01*
X61500000Y-49770000D02*
X58960000Y-47230000D01*
X58960000Y-47230000D02*
X57700000Y-48490000D01*
X63930000Y-49770000D02*
X61500000Y-49770000D01*
X39340000Y-64460000D02*
X56970000Y-64460000D01*
X38790000Y-65010000D02*
X39340000Y-64460000D01*
X61500000Y-65010000D02*
X58960000Y-62470000D01*
X56970000Y-64460000D02*
X58960000Y-62470000D01*
X63930000Y-65010000D02*
X61500000Y-65010000D01*
X42021105Y-62470000D02*
X43281105Y-61210000D01*
X57680000Y-61210000D02*
X58960000Y-59930000D01*
X61500000Y-62470000D02*
X63930000Y-62470000D01*
X38790000Y-62470000D02*
X42021105Y-62470000D01*
X43281105Y-61210000D02*
X57680000Y-61210000D01*
X58960000Y-59930000D02*
X61500000Y-62470000D01*
X61500000Y-59930000D02*
X58960000Y-57390000D01*
X41830000Y-59930000D02*
X38790000Y-59930000D01*
X63930000Y-59930000D02*
X61500000Y-59930000D01*
X43110000Y-58650000D02*
X41830000Y-59930000D01*
X58960000Y-57390000D02*
X57700000Y-58650000D01*
X57700000Y-58650000D02*
X43110000Y-58650000D01*
X63930000Y-57390000D02*
X61500000Y-57390000D01*
X42021105Y-57390000D02*
X43301105Y-56110000D01*
X38790000Y-57390000D02*
X42021105Y-57390000D01*
X61500000Y-57390000D02*
X58960000Y-54850000D01*
X43301105Y-56110000D02*
X57700000Y-56110000D01*
X57700000Y-56110000D02*
X58960000Y-54850000D01*
X61500000Y-54850000D02*
X58960000Y-52310000D01*
X43096396Y-53570000D02*
X41816396Y-54850000D01*
X63930000Y-54850000D02*
X61500000Y-54850000D01*
X58960000Y-52310000D02*
X57700000Y-53570000D01*
X41816396Y-54850000D02*
X38790000Y-54850000D01*
X57700000Y-53570000D02*
X43096396Y-53570000D01*
X38790000Y-52310000D02*
X42021105Y-52310000D01*
X63930000Y-52310000D02*
X61500000Y-52310000D01*
X42021105Y-52310000D02*
X43311105Y-51020000D01*
X61500000Y-52310000D02*
X58960000Y-49770000D01*
X57710000Y-51020000D02*
X58960000Y-49770000D01*
X43311105Y-51020000D02*
X57710000Y-51020000D01*
X59443500Y-36586500D02*
X58960000Y-37070000D01*
X58960000Y-37070000D02*
X46260000Y-37070000D01*
X44120000Y-70180000D02*
X42910000Y-68970000D01*
X52320000Y-69180000D02*
X58820000Y-69180000D01*
X46260000Y-37070000D02*
X43720000Y-39610000D01*
X62127000Y-36563500D02*
X62104000Y-36586500D01*
X52320000Y-69180000D02*
X51320000Y-70180000D01*
X51320000Y-70180000D02*
X44120000Y-70180000D01*
X66690000Y-36563500D02*
X62127000Y-36563500D01*
X62104000Y-36586500D02*
X59443500Y-36586500D01*
X52320000Y-73680000D02*
X58820000Y-73680000D01*
X41440000Y-42180000D02*
X41440000Y-42170000D01*
X48620000Y-67120000D02*
X50150000Y-68650000D01*
X42730000Y-40880000D02*
X42740000Y-40880000D01*
X41760000Y-67120000D02*
X48620000Y-67120000D01*
X40660000Y-66020000D02*
X41760000Y-67120000D01*
X42740000Y-40880000D02*
X57690000Y-40880000D01*
X41440000Y-42170000D02*
X42730000Y-40880000D01*
X57690000Y-40880000D02*
X58960000Y-39610000D01*
X36250000Y-44690000D02*
X36250000Y-44540000D01*
X54820000Y-42640000D02*
X55600000Y-43420000D01*
X63015500Y-34450000D02*
X62104000Y-33538500D01*
X65200000Y-43420000D02*
X66470000Y-44690000D01*
X55600000Y-43420000D02*
X65200000Y-43420000D01*
X65803500Y-34450000D02*
X63015500Y-34450000D01*
X66690000Y-33563500D02*
X65803500Y-34450000D01*
X36250000Y-44540000D02*
X43720000Y-37070000D01*
X61098500Y-42150000D02*
X62090000Y-41158500D01*
X53044695Y-43390000D02*
X54519695Y-41915000D01*
X41430000Y-45235500D02*
X43265500Y-43400000D01*
X41410850Y-67754819D02*
X41410850Y-70730850D01*
X58725000Y-41915000D02*
X58960000Y-42150000D01*
X58960000Y-42150000D02*
X61098500Y-42150000D01*
X54519695Y-41915000D02*
X58725000Y-41915000D01*
X46235000Y-72300000D02*
X47505000Y-73570000D01*
X41410850Y-70730850D02*
X42980000Y-72300000D01*
X43265500Y-43400000D02*
X53044695Y-43400000D01*
X62090000Y-41158500D02*
X66685000Y-41158500D01*
X42980000Y-72300000D02*
X46235000Y-72300000D01*
X66685000Y-41158500D02*
X66690000Y-41163500D01*
G04 #@! TA.AperFunction,NonConductor*
G36*
X67631807Y-27964178D02*
G01*
X67665277Y-27967474D01*
X67780274Y-27980431D01*
X67793460Y-27983152D01*
X67822957Y-27992099D01*
X67850323Y-28000401D01*
X67851782Y-28000878D01*
X67933769Y-28029567D01*
X67944205Y-28034149D01*
X68001685Y-28064872D01*
X68003911Y-28066164D01*
X68075596Y-28111206D01*
X68079384Y-28113934D01*
X68133211Y-28158109D01*
X68135903Y-28160549D01*
X68194949Y-28219595D01*
X68197389Y-28222287D01*
X68241564Y-28276114D01*
X68244294Y-28279905D01*
X68289323Y-28351568D01*
X68290626Y-28353813D01*
X68321349Y-28411293D01*
X68325934Y-28421735D01*
X68354618Y-28503710D01*
X68355102Y-28505190D01*
X68372346Y-28562038D01*
X68375068Y-28575234D01*
X68388025Y-28690231D01*
X68391322Y-28723691D01*
X68391500Y-28727322D01*
X68391500Y-74518078D01*
X68391301Y-74521908D01*
X68387815Y-74555431D01*
X68374379Y-74669240D01*
X68371585Y-74682428D01*
X68353994Y-74739308D01*
X68353503Y-74740785D01*
X68324718Y-74821641D01*
X68320077Y-74832058D01*
X68289052Y-74889355D01*
X68287737Y-74891593D01*
X68242784Y-74962282D01*
X68240034Y-74966058D01*
X68195617Y-75019587D01*
X68193163Y-75022265D01*
X68134387Y-75080410D01*
X68131681Y-75082836D01*
X68077677Y-75126667D01*
X68073872Y-75129376D01*
X68002697Y-75173565D01*
X68000445Y-75174855D01*
X67942824Y-75205255D01*
X67932356Y-75209784D01*
X67851182Y-75237696D01*
X67849700Y-75238171D01*
X67792626Y-75255148D01*
X67779415Y-75257797D01*
X67666387Y-75269914D01*
X67631673Y-75273144D01*
X67628022Y-75273303D01*
X67602814Y-75273152D01*
X67598979Y-75273315D01*
X35073636Y-75273315D01*
X35070007Y-75273137D01*
X35036777Y-75269864D01*
X35008064Y-75266627D01*
X34921088Y-75256821D01*
X34907900Y-75254101D01*
X34863938Y-75240766D01*
X34851346Y-75236947D01*
X34849878Y-75236468D01*
X34767213Y-75207543D01*
X34756771Y-75202958D01*
X34699436Y-75172313D01*
X34697192Y-75171010D01*
X34625047Y-75125679D01*
X34621256Y-75122949D01*
X34567517Y-75078848D01*
X34564826Y-75076408D01*
X34505398Y-75016983D01*
X34502958Y-75014291D01*
X34493313Y-75002539D01*
X34458858Y-74960555D01*
X34456135Y-74956775D01*
X34410781Y-74884596D01*
X34409490Y-74882370D01*
X34403970Y-74872043D01*
X34378844Y-74825036D01*
X34374265Y-74814608D01*
X34345337Y-74731936D01*
X34344854Y-74730459D01*
X34327705Y-74673924D01*
X34324984Y-74660736D01*
X34311853Y-74544201D01*
X34308678Y-74511966D01*
X34308500Y-74508339D01*
X34308500Y-65010003D01*
X35144785Y-65010003D01*
X35163601Y-65213076D01*
X35163602Y-65213082D01*
X35217586Y-65402813D01*
X35219418Y-65409250D01*
X35310327Y-65591821D01*
X35310328Y-65591822D01*
X35310329Y-65591825D01*
X35433234Y-65754578D01*
X35433235Y-65754579D01*
X35552362Y-65863177D01*
X35583959Y-65891981D01*
X35757363Y-65999348D01*
X35947544Y-66073024D01*
X36148024Y-66110500D01*
X36148026Y-66110500D01*
X36351974Y-66110500D01*
X36351976Y-66110500D01*
X36552456Y-66073024D01*
X36742637Y-65999348D01*
X36916041Y-65891981D01*
X37066764Y-65754579D01*
X37096293Y-65715477D01*
X37189670Y-65591825D01*
X37189670Y-65591824D01*
X37189673Y-65591821D01*
X37280582Y-65409250D01*
X37336397Y-65213083D01*
X37355215Y-65010000D01*
X37350970Y-64964187D01*
X37336398Y-64806923D01*
X37336397Y-64806917D01*
X37327169Y-64774486D01*
X37280582Y-64610750D01*
X37270974Y-64591456D01*
X37265269Y-64541160D01*
X37284888Y-64506147D01*
X37653862Y-64137174D01*
X37699740Y-64115782D01*
X37706189Y-64115500D01*
X37946675Y-64115500D01*
X37994241Y-64132813D01*
X38019551Y-64176650D01*
X38010761Y-64226500D01*
X37996529Y-64244187D01*
X37973233Y-64265424D01*
X37850329Y-64428174D01*
X37850328Y-64428177D01*
X37759418Y-64610750D01*
X37759416Y-64610755D01*
X37703602Y-64806917D01*
X37703601Y-64806923D01*
X37684785Y-65009996D01*
X37684785Y-65010003D01*
X37703601Y-65213076D01*
X37703602Y-65213082D01*
X37757586Y-65402813D01*
X37759418Y-65409250D01*
X37850327Y-65591821D01*
X37850328Y-65591822D01*
X37850329Y-65591825D01*
X37973234Y-65754578D01*
X37973235Y-65754579D01*
X38092362Y-65863177D01*
X38123959Y-65891981D01*
X38297363Y-65999348D01*
X38487544Y-66073024D01*
X38688024Y-66110500D01*
X38688026Y-66110500D01*
X38891974Y-66110500D01*
X38891976Y-66110500D01*
X39092456Y-66073024D01*
X39282637Y-65999348D01*
X39456041Y-65891981D01*
X39606764Y-65754579D01*
X39636293Y-65715477D01*
X39729670Y-65591825D01*
X39729670Y-65591824D01*
X39729673Y-65591821D01*
X39820582Y-65409250D01*
X39876397Y-65213083D01*
X39895215Y-65010000D01*
X39895215Y-65009995D01*
X39886536Y-64916327D01*
X39899386Y-64867367D01*
X39940701Y-64838121D01*
X39960220Y-64835500D01*
X42705547Y-64835500D01*
X42753113Y-64852813D01*
X42778423Y-64896650D01*
X42769633Y-64946500D01*
X42757873Y-64961826D01*
X42744352Y-64975346D01*
X42659486Y-65115732D01*
X42610686Y-65272338D01*
X42610685Y-65272345D01*
X42604500Y-65340398D01*
X42604500Y-66299601D01*
X42610684Y-66367651D01*
X42610686Y-66367661D01*
X42659486Y-66524267D01*
X42724744Y-66632217D01*
X42734536Y-66681880D01*
X42710114Y-66726218D01*
X42662906Y-66744485D01*
X42661416Y-66744500D01*
X41946189Y-66744500D01*
X41898623Y-66727187D01*
X41893863Y-66722826D01*
X41327302Y-66156265D01*
X41305910Y-66110389D01*
X41306167Y-66095023D01*
X41314904Y-66023082D01*
X41315278Y-66020002D01*
X41315278Y-66019996D01*
X41296238Y-65863191D01*
X41296237Y-65863182D01*
X41288213Y-65842025D01*
X41240221Y-65715478D01*
X41150483Y-65585470D01*
X41150483Y-65585469D01*
X41032240Y-65480717D01*
X41020139Y-65474366D01*
X40892366Y-65407304D01*
X40738987Y-65369500D01*
X40738985Y-65369500D01*
X40581015Y-65369500D01*
X40581012Y-65369500D01*
X40427633Y-65407304D01*
X40287761Y-65480716D01*
X40169516Y-65585470D01*
X40079779Y-65715478D01*
X40079778Y-65715478D01*
X40023764Y-65863177D01*
X40023761Y-65863191D01*
X40004722Y-66019996D01*
X40004722Y-66020003D01*
X40023761Y-66176808D01*
X40023764Y-66176822D01*
X40079778Y-66324521D01*
X40169516Y-66454529D01*
X40169517Y-66454530D01*
X40287760Y-66559283D01*
X40427635Y-66632696D01*
X40581015Y-66670500D01*
X40581019Y-66670500D01*
X40738975Y-66670500D01*
X40738985Y-66670500D01*
X40738994Y-66670497D01*
X40739296Y-66670461D01*
X40739464Y-66670500D01*
X40743461Y-66670500D01*
X40743460Y-66671427D01*
X40788605Y-66681905D01*
X40800556Y-66691594D01*
X41154983Y-67046021D01*
X41176375Y-67091897D01*
X41163274Y-67140792D01*
X41137048Y-67163870D01*
X41038610Y-67215536D01*
X40920366Y-67320289D01*
X40830629Y-67450297D01*
X40830628Y-67450297D01*
X40774614Y-67597996D01*
X40774611Y-67598010D01*
X40755572Y-67754815D01*
X40755572Y-67754822D01*
X40774611Y-67911627D01*
X40774614Y-67911641D01*
X40830628Y-68059340D01*
X40889474Y-68144593D01*
X40920367Y-68189349D01*
X40953159Y-68218400D01*
X41010421Y-68269128D01*
X41034544Y-68313628D01*
X41035350Y-68324518D01*
X41035350Y-68384751D01*
X41018037Y-68432317D01*
X40974200Y-68457627D01*
X40924350Y-68448837D01*
X40898550Y-68423894D01*
X40855253Y-68354431D01*
X40855252Y-68354429D01*
X40715059Y-68206947D01*
X40548049Y-68090705D01*
X40474965Y-68059342D01*
X40361058Y-68010460D01*
X40361052Y-68010458D01*
X40161747Y-67969500D01*
X40161741Y-67969500D01*
X39709258Y-67969500D01*
X39709250Y-67969500D01*
X39557565Y-67984924D01*
X39557560Y-67984926D01*
X39363417Y-68045838D01*
X39363412Y-68045840D01*
X39185498Y-68144591D01*
X39185495Y-68144593D01*
X39031104Y-68277135D01*
X39031099Y-68277140D01*
X38906551Y-68438043D01*
X38816941Y-68620727D01*
X38816939Y-68620731D01*
X38765936Y-68817718D01*
X38758214Y-68970000D01*
X38755631Y-69020936D01*
X38786444Y-69222071D01*
X38786445Y-69222073D01*
X38802125Y-69264411D01*
X38802409Y-69315029D01*
X38770091Y-69353988D01*
X38720291Y-69363058D01*
X38717001Y-69362420D01*
X38588291Y-69334421D01*
X38379669Y-69319500D01*
X38379657Y-69319500D01*
X38240343Y-69319500D01*
X38240330Y-69319500D01*
X38031708Y-69334421D01*
X37759081Y-69393728D01*
X37759062Y-69393733D01*
X37497666Y-69491228D01*
X37252788Y-69624942D01*
X37029429Y-69792147D01*
X36832147Y-69989429D01*
X36664942Y-70212788D01*
X36531228Y-70457666D01*
X36433733Y-70719062D01*
X36433728Y-70719081D01*
X36374421Y-70991708D01*
X36354518Y-71269993D01*
X36354518Y-71270006D01*
X36374421Y-71548291D01*
X36433728Y-71820918D01*
X36433733Y-71820937D01*
X36531228Y-72082333D01*
X36664942Y-72327211D01*
X36737939Y-72424723D01*
X36832145Y-72550568D01*
X37029432Y-72747855D01*
X37108044Y-72806703D01*
X37252788Y-72915057D01*
X37497666Y-73048771D01*
X37759062Y-73146266D01*
X37759067Y-73146267D01*
X37759077Y-73146271D01*
X38031706Y-73205578D01*
X38240330Y-73220499D01*
X38240335Y-73220500D01*
X38240343Y-73220500D01*
X38379665Y-73220500D01*
X38379668Y-73220499D01*
X38462961Y-73214541D01*
X38588283Y-73205579D01*
X38588285Y-73205578D01*
X38588294Y-73205578D01*
X38692387Y-73182933D01*
X38742546Y-73189739D01*
X38776596Y-73227194D01*
X38779755Y-73273790D01*
X38740936Y-73423718D01*
X38735797Y-73525064D01*
X38730631Y-73626936D01*
X38761444Y-73828071D01*
X38832113Y-74018887D01*
X38832114Y-74018887D01*
X38917419Y-74155748D01*
X38939748Y-74191571D01*
X39079941Y-74339053D01*
X39246951Y-74455295D01*
X39433942Y-74535540D01*
X39433947Y-74535541D01*
X39633252Y-74576499D01*
X39633257Y-74576499D01*
X39633259Y-74576500D01*
X39633260Y-74576500D01*
X40085741Y-74576500D01*
X40085742Y-74576500D01*
X40135341Y-74571456D01*
X40237434Y-74561075D01*
X40237435Y-74561074D01*
X40237438Y-74561074D01*
X40403202Y-74509064D01*
X40431582Y-74500161D01*
X40431583Y-74500160D01*
X40431588Y-74500159D01*
X40609502Y-74401409D01*
X40763895Y-74268866D01*
X40888448Y-74107958D01*
X40978060Y-73925271D01*
X41029063Y-73728285D01*
X41039369Y-73525064D01*
X41008556Y-73323929D01*
X40937886Y-73133113D01*
X40830252Y-72960429D01*
X40690059Y-72812947D01*
X40686165Y-72810237D01*
X40580440Y-72736650D01*
X40523049Y-72696705D01*
X40336058Y-72616460D01*
X40336052Y-72616458D01*
X40136747Y-72575500D01*
X40136741Y-72575500D01*
X39917024Y-72575500D01*
X39869458Y-72558187D01*
X39844148Y-72514350D01*
X39852938Y-72464500D01*
X39857784Y-72457153D01*
X39955056Y-72327213D01*
X40088769Y-72082337D01*
X40088769Y-72082335D01*
X40088771Y-72082333D01*
X40186266Y-71820937D01*
X40186266Y-71820934D01*
X40186271Y-71820923D01*
X40245578Y-71548294D01*
X40256695Y-71392856D01*
X40265482Y-71270006D01*
X40265482Y-71269993D01*
X40245578Y-70991708D01*
X40245387Y-70990829D01*
X40186271Y-70719077D01*
X40186267Y-70719067D01*
X40186266Y-70719062D01*
X40088771Y-70457666D01*
X39955055Y-70212784D01*
X39862276Y-70088846D01*
X39847630Y-70040393D01*
X39867556Y-69993861D01*
X39912731Y-69971023D01*
X39921516Y-69970500D01*
X40110741Y-69970500D01*
X40110742Y-69970500D01*
X40160341Y-69965456D01*
X40262434Y-69955075D01*
X40262435Y-69955074D01*
X40262438Y-69955074D01*
X40456588Y-69894159D01*
X40634502Y-69795409D01*
X40788895Y-69662866D01*
X40902835Y-69515667D01*
X40945638Y-69488653D01*
X40995796Y-69495472D01*
X41029836Y-69532936D01*
X41035350Y-69560966D01*
X41035350Y-70684231D01*
X41033775Y-70699416D01*
X41030483Y-70715114D01*
X41030483Y-70715119D01*
X41035066Y-70751882D01*
X41035350Y-70756463D01*
X41035350Y-70761968D01*
X41039065Y-70784230D01*
X41039285Y-70785742D01*
X41045984Y-70839477D01*
X41047734Y-70845354D01*
X41047465Y-70845434D01*
X41048529Y-70848754D01*
X41048795Y-70848663D01*
X41050785Y-70854460D01*
X41076546Y-70902065D01*
X41077246Y-70903424D01*
X41101025Y-70952064D01*
X41104588Y-70957054D01*
X41104360Y-70957216D01*
X41106445Y-70960012D01*
X41106667Y-70959840D01*
X41110429Y-70964673D01*
X41110431Y-70964676D01*
X41150250Y-71001332D01*
X41151354Y-71002391D01*
X42615574Y-72466611D01*
X42636966Y-72512487D01*
X42623865Y-72561382D01*
X42583987Y-72589305D01*
X42584143Y-72589802D01*
X42582575Y-72590293D01*
X42582401Y-72590416D01*
X42581526Y-72590622D01*
X42386417Y-72651838D01*
X42386412Y-72651840D01*
X42208498Y-72750591D01*
X42208495Y-72750593D01*
X42135862Y-72812947D01*
X42065768Y-72873122D01*
X42054104Y-72883135D01*
X42054099Y-72883140D01*
X41929551Y-73044043D01*
X41839941Y-73226727D01*
X41839939Y-73226731D01*
X41788936Y-73423718D01*
X41783797Y-73525064D01*
X41778631Y-73626936D01*
X41809444Y-73828071D01*
X41880113Y-74018887D01*
X41880114Y-74018887D01*
X41965419Y-74155748D01*
X41987748Y-74191571D01*
X42127941Y-74339053D01*
X42294951Y-74455295D01*
X42481942Y-74535540D01*
X42481947Y-74535541D01*
X42681252Y-74576499D01*
X42681257Y-74576499D01*
X42681259Y-74576500D01*
X42681260Y-74576500D01*
X43133741Y-74576500D01*
X43133742Y-74576500D01*
X43183341Y-74571456D01*
X43285434Y-74561075D01*
X43285435Y-74561074D01*
X43285438Y-74561074D01*
X43451202Y-74509064D01*
X43479582Y-74500161D01*
X43479583Y-74500160D01*
X43479588Y-74500159D01*
X43657502Y-74401409D01*
X43811895Y-74268866D01*
X43936448Y-74107958D01*
X44026060Y-73925271D01*
X44077063Y-73728285D01*
X44087369Y-73525064D01*
X44056556Y-73323929D01*
X43985886Y-73133113D01*
X43878252Y-72960429D01*
X43738059Y-72812947D01*
X43734164Y-72810236D01*
X43705015Y-72768854D01*
X43709284Y-72718415D01*
X43744976Y-72682522D01*
X43776439Y-72675500D01*
X46031948Y-72675500D01*
X46079514Y-72692813D01*
X46104824Y-72736650D01*
X46096034Y-72786500D01*
X46078893Y-72806703D01*
X46040616Y-72838115D01*
X46040615Y-72838116D01*
X45910846Y-72996241D01*
X45910841Y-72996248D01*
X45910841Y-72996249D01*
X45814409Y-73176660D01*
X45801110Y-73220500D01*
X45755026Y-73372416D01*
X45739992Y-73525064D01*
X45734975Y-73576000D01*
X45755026Y-73779582D01*
X45814409Y-73975340D01*
X45910841Y-74155751D01*
X45910843Y-74155754D01*
X45910846Y-74155758D01*
X46040615Y-74313883D01*
X46040616Y-74313884D01*
X46198741Y-74443653D01*
X46198743Y-74443654D01*
X46198749Y-74443659D01*
X46379160Y-74540091D01*
X46574918Y-74599474D01*
X46727480Y-74614500D01*
X46727482Y-74614500D01*
X48282518Y-74614500D01*
X48282520Y-74614500D01*
X48435082Y-74599474D01*
X48630840Y-74540091D01*
X48811251Y-74443659D01*
X48969384Y-74313884D01*
X49099159Y-74155751D01*
X49195591Y-73975340D01*
X49254974Y-73779582D01*
X49264781Y-73680005D01*
X51064723Y-73680005D01*
X51083792Y-73897974D01*
X51083793Y-73897980D01*
X51140422Y-74109322D01*
X51140424Y-74109326D01*
X51140425Y-74109330D01*
X51232898Y-74307639D01*
X51358402Y-74486877D01*
X51513123Y-74641598D01*
X51692361Y-74767102D01*
X51890670Y-74859575D01*
X51890676Y-74859576D01*
X51890677Y-74859577D01*
X52102019Y-74916206D01*
X52102023Y-74916207D01*
X52164302Y-74921655D01*
X52319995Y-74935277D01*
X52320000Y-74935277D01*
X52320005Y-74935277D01*
X52456235Y-74923358D01*
X52537977Y-74916207D01*
X52749330Y-74859575D01*
X52947639Y-74767102D01*
X53126877Y-74641598D01*
X53281598Y-74486877D01*
X53407102Y-74307639D01*
X53499575Y-74109330D01*
X53499577Y-74109320D01*
X53500680Y-74106295D01*
X53501841Y-74106717D01*
X53528343Y-74068878D01*
X53570781Y-74055500D01*
X57569219Y-74055500D01*
X57616785Y-74072813D01*
X57638344Y-74106649D01*
X57639320Y-74106295D01*
X57640422Y-74109322D01*
X57640424Y-74109326D01*
X57640425Y-74109330D01*
X57732898Y-74307639D01*
X57858402Y-74486877D01*
X58013123Y-74641598D01*
X58192361Y-74767102D01*
X58390670Y-74859575D01*
X58390676Y-74859576D01*
X58390677Y-74859577D01*
X58602019Y-74916206D01*
X58602023Y-74916207D01*
X58664302Y-74921655D01*
X58819995Y-74935277D01*
X58820000Y-74935277D01*
X58820005Y-74935277D01*
X58956235Y-74923358D01*
X59037977Y-74916207D01*
X59249330Y-74859575D01*
X59447639Y-74767102D01*
X59626877Y-74641598D01*
X59781598Y-74486877D01*
X59907102Y-74307639D01*
X59999575Y-74109330D01*
X60056207Y-73897977D01*
X60075277Y-73680000D01*
X60075277Y-73679994D01*
X60056207Y-73462025D01*
X60056206Y-73462019D01*
X59999577Y-73250677D01*
X59999576Y-73250676D01*
X59999575Y-73250670D01*
X59907102Y-73052362D01*
X59781598Y-72873123D01*
X59626877Y-72718402D01*
X59626874Y-72718400D01*
X59626875Y-72718400D01*
X59531818Y-72651841D01*
X59447639Y-72592898D01*
X59249330Y-72500425D01*
X59249326Y-72500424D01*
X59249322Y-72500422D01*
X59037980Y-72443793D01*
X59037974Y-72443792D01*
X58820005Y-72424723D01*
X58819995Y-72424723D01*
X58602025Y-72443792D01*
X58602019Y-72443793D01*
X58390677Y-72500422D01*
X58390670Y-72500424D01*
X58390670Y-72500425D01*
X58192362Y-72592898D01*
X58165210Y-72611910D01*
X58013122Y-72718402D01*
X57858402Y-72873122D01*
X57772194Y-72996241D01*
X57732898Y-73052362D01*
X57654494Y-73220499D01*
X57640422Y-73250677D01*
X57639320Y-73253705D01*
X57638158Y-73253282D01*
X57611657Y-73291122D01*
X57569219Y-73304500D01*
X53570781Y-73304500D01*
X53523215Y-73287187D01*
X53501655Y-73253350D01*
X53500680Y-73253705D01*
X53499577Y-73250677D01*
X53499576Y-73250676D01*
X53499575Y-73250670D01*
X53407102Y-73052362D01*
X53281598Y-72873123D01*
X53126877Y-72718402D01*
X53126874Y-72718400D01*
X53126875Y-72718400D01*
X53031818Y-72651841D01*
X52947639Y-72592898D01*
X52749330Y-72500425D01*
X52749326Y-72500424D01*
X52749322Y-72500422D01*
X52537980Y-72443793D01*
X52537974Y-72443792D01*
X52320005Y-72424723D01*
X52319995Y-72424723D01*
X52102025Y-72443792D01*
X52102019Y-72443793D01*
X51890677Y-72500422D01*
X51890670Y-72500424D01*
X51890670Y-72500425D01*
X51692362Y-72592898D01*
X51665210Y-72611910D01*
X51513122Y-72718402D01*
X51358402Y-72873122D01*
X51272194Y-72996241D01*
X51232898Y-73052362D01*
X51154494Y-73220499D01*
X51140427Y-73250666D01*
X51140422Y-73250677D01*
X51083793Y-73462019D01*
X51083792Y-73462025D01*
X51064723Y-73679994D01*
X51064723Y-73680005D01*
X49264781Y-73680005D01*
X49275025Y-73576000D01*
X49254974Y-73372418D01*
X49195591Y-73176660D01*
X49099159Y-72996249D01*
X49099154Y-72996243D01*
X49099153Y-72996241D01*
X48969384Y-72838116D01*
X48969383Y-72838115D01*
X48811258Y-72708346D01*
X48811254Y-72708343D01*
X48811251Y-72708341D01*
X48630840Y-72611909D01*
X48494465Y-72570540D01*
X48435083Y-72552526D01*
X48384228Y-72547517D01*
X48282520Y-72537500D01*
X48282518Y-72537500D01*
X47034190Y-72537500D01*
X46986624Y-72520187D01*
X46981864Y-72515826D01*
X46533479Y-72067441D01*
X46523853Y-72055586D01*
X46515086Y-72042166D01*
X46515083Y-72042163D01*
X46485853Y-72019412D01*
X46482415Y-72016377D01*
X46478518Y-72012480D01*
X46469004Y-72005687D01*
X46460123Y-71999346D01*
X46458897Y-71998432D01*
X46444864Y-71987510D01*
X46416189Y-71965191D01*
X46416186Y-71965190D01*
X46416185Y-71965189D01*
X46410795Y-71962272D01*
X46410928Y-71962024D01*
X46407829Y-71960429D01*
X46407706Y-71960682D01*
X46402201Y-71957990D01*
X46350347Y-71942552D01*
X46348892Y-71942086D01*
X46297661Y-71924499D01*
X46291615Y-71923491D01*
X46291661Y-71923214D01*
X46288206Y-71922710D01*
X46288172Y-71922991D01*
X46282089Y-71922232D01*
X46282088Y-71922232D01*
X46282086Y-71922232D01*
X46228003Y-71924468D01*
X46226475Y-71924500D01*
X45743603Y-71924500D01*
X45696037Y-71907187D01*
X45670727Y-71863350D01*
X45679517Y-71813500D01*
X45700105Y-71790633D01*
X45758837Y-71747963D01*
X45863600Y-71621326D01*
X45933579Y-71472613D01*
X45933580Y-71472608D01*
X45964376Y-71311172D01*
X45964376Y-71311170D01*
X45961786Y-71270006D01*
X62434518Y-71270006D01*
X62454421Y-71548291D01*
X62513728Y-71820918D01*
X62513733Y-71820937D01*
X62611228Y-72082333D01*
X62744942Y-72327211D01*
X62817939Y-72424723D01*
X62912145Y-72550568D01*
X63109432Y-72747855D01*
X63188044Y-72806703D01*
X63332788Y-72915057D01*
X63577666Y-73048771D01*
X63839062Y-73146266D01*
X63839067Y-73146267D01*
X63839077Y-73146271D01*
X64111706Y-73205578D01*
X64320330Y-73220499D01*
X64320335Y-73220500D01*
X64320343Y-73220500D01*
X64459665Y-73220500D01*
X64459668Y-73220499D01*
X64668294Y-73205578D01*
X64940923Y-73146271D01*
X64940934Y-73146266D01*
X64940937Y-73146266D01*
X65202333Y-73048771D01*
X65210994Y-73044042D01*
X65447213Y-72915056D01*
X65670568Y-72747855D01*
X65867855Y-72550568D01*
X66035056Y-72327213D01*
X66168769Y-72082337D01*
X66168769Y-72082335D01*
X66168771Y-72082333D01*
X66266266Y-71820937D01*
X66266266Y-71820934D01*
X66266271Y-71820923D01*
X66325578Y-71548294D01*
X66336695Y-71392856D01*
X66345482Y-71270006D01*
X66345482Y-71269993D01*
X66325578Y-70991708D01*
X66325387Y-70990829D01*
X66266271Y-70719077D01*
X66266267Y-70719067D01*
X66266266Y-70719062D01*
X66168771Y-70457666D01*
X66035057Y-70212788D01*
X65942275Y-70088846D01*
X65867855Y-69989432D01*
X65670568Y-69792145D01*
X65538793Y-69693500D01*
X65447211Y-69624942D01*
X65202333Y-69491228D01*
X64940937Y-69393733D01*
X64940925Y-69393730D01*
X64940923Y-69393729D01*
X64828809Y-69369340D01*
X64668291Y-69334421D01*
X64459669Y-69319500D01*
X64459657Y-69319500D01*
X64320343Y-69319500D01*
X64320330Y-69319500D01*
X64111708Y-69334421D01*
X63839081Y-69393728D01*
X63839062Y-69393733D01*
X63577666Y-69491228D01*
X63332788Y-69624942D01*
X63109429Y-69792147D01*
X62912147Y-69989429D01*
X62744942Y-70212788D01*
X62611228Y-70457666D01*
X62513733Y-70719062D01*
X62513728Y-70719081D01*
X62454421Y-70991708D01*
X62434518Y-71269993D01*
X62434518Y-71270006D01*
X45961786Y-71270006D01*
X45961785Y-71269993D01*
X45954056Y-71147140D01*
X45903268Y-70990829D01*
X45878665Y-70952061D01*
X45815205Y-70852064D01*
X45815203Y-70852062D01*
X45815202Y-70852060D01*
X45695393Y-70739552D01*
X45695392Y-70739551D01*
X45613166Y-70694347D01*
X45579824Y-70656260D01*
X45578764Y-70605652D01*
X45610482Y-70566203D01*
X45648816Y-70555500D01*
X51273383Y-70555500D01*
X51288567Y-70557074D01*
X51304268Y-70560367D01*
X51341036Y-70555783D01*
X51345615Y-70555500D01*
X51351111Y-70555500D01*
X51351114Y-70555500D01*
X51373387Y-70551782D01*
X51374887Y-70551564D01*
X51380604Y-70550851D01*
X51428626Y-70544866D01*
X51428629Y-70544864D01*
X51434507Y-70543115D01*
X51434587Y-70543386D01*
X51437904Y-70542323D01*
X51437812Y-70542055D01*
X51443606Y-70540065D01*
X51443610Y-70540065D01*
X51491235Y-70514290D01*
X51492535Y-70513622D01*
X51541211Y-70489826D01*
X51541213Y-70489823D01*
X51546204Y-70486261D01*
X51546369Y-70486493D01*
X51549158Y-70484414D01*
X51548983Y-70484189D01*
X51553821Y-70480422D01*
X51553821Y-70480421D01*
X51553826Y-70480419D01*
X51590535Y-70440541D01*
X51591517Y-70439518D01*
X51704534Y-70326501D01*
X51750409Y-70305110D01*
X51788133Y-70311761D01*
X51890670Y-70359575D01*
X51890676Y-70359576D01*
X51890677Y-70359577D01*
X52102019Y-70416206D01*
X52102023Y-70416207D01*
X52164302Y-70421655D01*
X52319995Y-70435277D01*
X52320000Y-70435277D01*
X52320005Y-70435277D01*
X52456235Y-70423358D01*
X52537977Y-70416207D01*
X52749330Y-70359575D01*
X52947639Y-70267102D01*
X53126877Y-70141598D01*
X53281598Y-69986877D01*
X53407102Y-69807639D01*
X53499575Y-69609330D01*
X53499577Y-69609320D01*
X53500680Y-69606295D01*
X53501841Y-69606717D01*
X53528343Y-69568878D01*
X53570781Y-69555500D01*
X57569219Y-69555500D01*
X57616785Y-69572813D01*
X57638344Y-69606649D01*
X57639320Y-69606295D01*
X57640422Y-69609322D01*
X57640424Y-69609326D01*
X57640425Y-69609330D01*
X57732898Y-69807639D01*
X57858402Y-69986877D01*
X58013123Y-70141598D01*
X58192361Y-70267102D01*
X58390670Y-70359575D01*
X58390676Y-70359576D01*
X58390677Y-70359577D01*
X58602019Y-70416206D01*
X58602023Y-70416207D01*
X58664302Y-70421655D01*
X58819995Y-70435277D01*
X58820000Y-70435277D01*
X58820005Y-70435277D01*
X58956235Y-70423358D01*
X59037977Y-70416207D01*
X59249330Y-70359575D01*
X59447639Y-70267102D01*
X59626877Y-70141598D01*
X59781598Y-69986877D01*
X59907102Y-69807639D01*
X59999575Y-69609330D01*
X60056207Y-69397977D01*
X60071596Y-69222073D01*
X60075277Y-69180005D01*
X60075277Y-69179994D01*
X60056207Y-68962025D01*
X60056206Y-68962019D01*
X59999577Y-68750677D01*
X59999576Y-68750676D01*
X59999575Y-68750670D01*
X59907102Y-68552362D01*
X59781598Y-68373123D01*
X59626877Y-68218402D01*
X59626874Y-68218400D01*
X59626875Y-68218400D01*
X59521464Y-68144591D01*
X59447639Y-68092898D01*
X59249330Y-68000425D01*
X59249326Y-68000424D01*
X59249322Y-68000422D01*
X59037980Y-67943793D01*
X59037974Y-67943792D01*
X58820005Y-67924723D01*
X58819995Y-67924723D01*
X58602025Y-67943792D01*
X58602019Y-67943793D01*
X58390677Y-68000422D01*
X58390670Y-68000424D01*
X58390670Y-68000425D01*
X58192362Y-68092898D01*
X58178876Y-68102341D01*
X58013122Y-68218402D01*
X57858402Y-68373122D01*
X57805168Y-68449149D01*
X57732898Y-68552362D01*
X57650232Y-68729639D01*
X57640422Y-68750677D01*
X57639320Y-68753705D01*
X57638158Y-68753282D01*
X57611657Y-68791122D01*
X57569219Y-68804500D01*
X53570781Y-68804500D01*
X53523215Y-68787187D01*
X53501655Y-68753350D01*
X53500680Y-68753705D01*
X53499577Y-68750677D01*
X53499576Y-68750676D01*
X53499575Y-68750670D01*
X53407102Y-68552362D01*
X53281598Y-68373123D01*
X53126877Y-68218402D01*
X53126874Y-68218400D01*
X53126875Y-68218400D01*
X53021464Y-68144591D01*
X52947639Y-68092898D01*
X52749330Y-68000425D01*
X52749326Y-68000424D01*
X52749322Y-68000422D01*
X52537980Y-67943793D01*
X52537974Y-67943792D01*
X52320005Y-67924723D01*
X52319995Y-67924723D01*
X52102025Y-67943792D01*
X52102019Y-67943793D01*
X51890677Y-68000422D01*
X51890670Y-68000424D01*
X51890670Y-68000425D01*
X51692362Y-68092898D01*
X51678876Y-68102341D01*
X51513122Y-68218402D01*
X51358402Y-68373122D01*
X51305168Y-68449149D01*
X51232898Y-68552362D01*
X51150232Y-68729639D01*
X51140427Y-68750666D01*
X51140422Y-68750677D01*
X51083793Y-68962019D01*
X51083792Y-68962025D01*
X51064723Y-69179994D01*
X51064723Y-69180005D01*
X51083792Y-69397974D01*
X51083793Y-69397980D01*
X51140422Y-69609322D01*
X51140428Y-69609338D01*
X51182344Y-69699227D01*
X51186755Y-69749653D01*
X51157721Y-69791117D01*
X51115277Y-69804500D01*
X49051553Y-69804500D01*
X49003987Y-69787187D01*
X48978677Y-69743350D01*
X48987467Y-69693500D01*
X48994350Y-69683555D01*
X49011329Y-69662866D01*
X49104159Y-69549751D01*
X49200591Y-69369340D01*
X49259974Y-69173582D01*
X49280025Y-68970000D01*
X49259974Y-68766418D01*
X49200591Y-68570660D01*
X49104159Y-68390249D01*
X49104154Y-68390243D01*
X49104153Y-68390241D01*
X48974384Y-68232116D01*
X48974383Y-68232115D01*
X48816258Y-68102346D01*
X48816254Y-68102343D01*
X48816251Y-68102341D01*
X48635840Y-68005909D01*
X48499466Y-67964540D01*
X48440083Y-67946526D01*
X48389227Y-67941517D01*
X48287520Y-67931500D01*
X46732480Y-67931500D01*
X46656198Y-67939012D01*
X46579916Y-67946526D01*
X46504183Y-67969500D01*
X46384160Y-68005909D01*
X46384158Y-68005909D01*
X46384158Y-68005910D01*
X46203751Y-68102340D01*
X46203741Y-68102346D01*
X46045616Y-68232115D01*
X46045615Y-68232116D01*
X45915846Y-68390241D01*
X45915841Y-68390248D01*
X45915841Y-68390249D01*
X45888003Y-68442330D01*
X45829190Y-68552362D01*
X45819409Y-68570660D01*
X45804221Y-68620727D01*
X45760026Y-68766416D01*
X45754974Y-68817715D01*
X45739975Y-68970000D01*
X45760026Y-69173582D01*
X45819409Y-69369340D01*
X45915841Y-69549751D01*
X45915843Y-69549754D01*
X45915846Y-69549758D01*
X46025650Y-69683555D01*
X46042443Y-69731308D01*
X46024612Y-69778682D01*
X45980501Y-69803512D01*
X45968447Y-69804500D01*
X44306190Y-69804500D01*
X44258624Y-69787187D01*
X44253864Y-69782826D01*
X43970456Y-69499418D01*
X43949064Y-69453542D01*
X43956344Y-69414505D01*
X44003060Y-69319271D01*
X44054063Y-69122285D01*
X44064369Y-68919064D01*
X44033556Y-68717929D01*
X43962886Y-68527113D01*
X43855252Y-68354429D01*
X43715059Y-68206947D01*
X43548049Y-68090705D01*
X43474965Y-68059342D01*
X43361058Y-68010460D01*
X43361052Y-68010458D01*
X43161747Y-67969500D01*
X43161741Y-67969500D01*
X42709258Y-67969500D01*
X42709250Y-67969500D01*
X42557565Y-67984924D01*
X42557560Y-67984926D01*
X42363417Y-68045838D01*
X42363412Y-68045840D01*
X42185498Y-68144591D01*
X42185495Y-68144593D01*
X42031104Y-68277135D01*
X42031099Y-68277140D01*
X41918867Y-68422132D01*
X41876061Y-68449149D01*
X41825904Y-68442330D01*
X41791864Y-68404865D01*
X41786350Y-68376836D01*
X41786350Y-68324518D01*
X41803663Y-68276952D01*
X41811279Y-68269128D01*
X41901333Y-68189349D01*
X41991070Y-68059342D01*
X41996192Y-68045838D01*
X42021765Y-67978405D01*
X42047087Y-67911637D01*
X42066128Y-67754819D01*
X42047087Y-67598001D01*
X42046230Y-67595743D01*
X42046213Y-67594453D01*
X42046016Y-67593652D01*
X42046202Y-67593606D01*
X42045549Y-67545130D01*
X42077561Y-67505918D01*
X42115421Y-67495500D01*
X48433811Y-67495500D01*
X48481377Y-67512813D01*
X48486137Y-67517174D01*
X49482696Y-68513733D01*
X49504088Y-68559609D01*
X49503831Y-68574978D01*
X49494723Y-68649996D01*
X49494722Y-68650003D01*
X49513761Y-68806808D01*
X49513764Y-68806822D01*
X49569778Y-68954521D01*
X49615620Y-69020934D01*
X49659517Y-69084530D01*
X49777760Y-69189283D01*
X49917635Y-69262696D01*
X50071015Y-69300500D01*
X50071019Y-69300500D01*
X50228981Y-69300500D01*
X50228985Y-69300500D01*
X50382365Y-69262696D01*
X50522240Y-69189283D01*
X50640483Y-69084530D01*
X50730220Y-68954523D01*
X50786237Y-68806818D01*
X50805278Y-68650000D01*
X50801724Y-68620731D01*
X50786238Y-68493191D01*
X50786237Y-68493182D01*
X50769419Y-68448837D01*
X50730221Y-68345478D01*
X50640483Y-68215470D01*
X50610997Y-68189348D01*
X50522240Y-68110717D01*
X50484109Y-68090704D01*
X50382366Y-68037304D01*
X50228987Y-67999500D01*
X50228985Y-67999500D01*
X50071015Y-67999500D01*
X50071014Y-67999500D01*
X50070686Y-67999540D01*
X50070514Y-67999500D01*
X50066539Y-67999500D01*
X50066539Y-67998576D01*
X50021380Y-67988085D01*
X50009443Y-67978405D01*
X49040639Y-67009601D01*
X49019247Y-66963725D01*
X49032348Y-66914830D01*
X49073812Y-66885796D01*
X49079337Y-66884541D01*
X49087456Y-66883024D01*
X49277637Y-66809348D01*
X49451041Y-66701981D01*
X49601764Y-66564579D01*
X49605764Y-66559283D01*
X49724670Y-66401825D01*
X49724670Y-66401824D01*
X49724673Y-66401821D01*
X49815582Y-66219250D01*
X49871397Y-66023083D01*
X49871683Y-66020003D01*
X49890215Y-65820003D01*
X49890215Y-65819996D01*
X49871398Y-65616923D01*
X49871397Y-65616917D01*
X49815583Y-65420755D01*
X49815582Y-65420750D01*
X49724673Y-65238179D01*
X49724670Y-65238175D01*
X49724670Y-65238174D01*
X49601765Y-65075421D01*
X49601764Y-65075420D01*
X49479746Y-64964187D01*
X49456257Y-64919347D01*
X49467086Y-64869900D01*
X49507166Y-64838982D01*
X49529599Y-64835500D01*
X50580401Y-64835500D01*
X50627967Y-64852813D01*
X50653277Y-64896650D01*
X50644487Y-64946500D01*
X50630254Y-64964187D01*
X50508235Y-65075420D01*
X50508234Y-65075421D01*
X50385329Y-65238174D01*
X50385328Y-65238177D01*
X50294418Y-65420750D01*
X50294416Y-65420755D01*
X50238602Y-65616917D01*
X50238601Y-65616923D01*
X50219785Y-65819996D01*
X50219785Y-65820003D01*
X50238601Y-66023076D01*
X50238602Y-66023082D01*
X50269248Y-66130788D01*
X50294418Y-66219250D01*
X50385327Y-66401821D01*
X50385328Y-66401822D01*
X50385329Y-66401825D01*
X50508234Y-66564578D01*
X50508235Y-66564579D01*
X50613623Y-66660652D01*
X50658959Y-66701981D01*
X50832363Y-66809348D01*
X51022544Y-66883024D01*
X51223024Y-66920500D01*
X51223026Y-66920500D01*
X51426974Y-66920500D01*
X51426976Y-66920500D01*
X51627456Y-66883024D01*
X51817637Y-66809348D01*
X51991041Y-66701981D01*
X52141764Y-66564579D01*
X52145764Y-66559283D01*
X52264670Y-66401825D01*
X52264670Y-66401824D01*
X52264673Y-66401821D01*
X52355582Y-66219250D01*
X52411397Y-66023083D01*
X52411683Y-66020003D01*
X52430215Y-65820003D01*
X52430215Y-65819996D01*
X52411398Y-65616923D01*
X52411397Y-65616917D01*
X52355583Y-65420755D01*
X52355582Y-65420750D01*
X52264673Y-65238179D01*
X52264670Y-65238175D01*
X52264670Y-65238174D01*
X52141765Y-65075421D01*
X52141764Y-65075420D01*
X52019746Y-64964187D01*
X51996257Y-64919347D01*
X52007086Y-64869900D01*
X52047166Y-64838982D01*
X52069599Y-64835500D01*
X53120401Y-64835500D01*
X53167967Y-64852813D01*
X53193277Y-64896650D01*
X53184487Y-64946500D01*
X53170254Y-64964187D01*
X53048235Y-65075420D01*
X53048234Y-65075421D01*
X52925329Y-65238174D01*
X52925328Y-65238177D01*
X52834418Y-65420750D01*
X52834416Y-65420755D01*
X52778602Y-65616917D01*
X52778601Y-65616923D01*
X52759785Y-65819996D01*
X52759785Y-65820003D01*
X52778601Y-66023076D01*
X52778602Y-66023082D01*
X52809248Y-66130788D01*
X52834418Y-66219250D01*
X52925327Y-66401821D01*
X52925328Y-66401822D01*
X52925329Y-66401825D01*
X53048234Y-66564578D01*
X53048235Y-66564579D01*
X53153623Y-66660652D01*
X53198959Y-66701981D01*
X53372363Y-66809348D01*
X53562544Y-66883024D01*
X53763024Y-66920500D01*
X53763026Y-66920500D01*
X53966974Y-66920500D01*
X53966976Y-66920500D01*
X54167456Y-66883024D01*
X54357637Y-66809348D01*
X54531041Y-66701981D01*
X54681764Y-66564579D01*
X54685764Y-66559283D01*
X54804670Y-66401825D01*
X54804670Y-66401824D01*
X54804673Y-66401821D01*
X54895582Y-66219250D01*
X54951397Y-66023083D01*
X54951683Y-66020003D01*
X54970215Y-65820003D01*
X54970215Y-65819996D01*
X54951398Y-65616923D01*
X54951397Y-65616917D01*
X54895583Y-65420755D01*
X54895582Y-65420750D01*
X54804673Y-65238179D01*
X54804670Y-65238175D01*
X54804670Y-65238174D01*
X54681765Y-65075421D01*
X54681764Y-65075420D01*
X54559746Y-64964187D01*
X54536257Y-64919347D01*
X54547086Y-64869900D01*
X54587166Y-64838982D01*
X54609599Y-64835500D01*
X55660401Y-64835500D01*
X55707967Y-64852813D01*
X55733277Y-64896650D01*
X55724487Y-64946500D01*
X55710254Y-64964187D01*
X55588235Y-65075420D01*
X55588234Y-65075421D01*
X55465329Y-65238174D01*
X55465328Y-65238177D01*
X55374418Y-65420750D01*
X55374416Y-65420755D01*
X55318602Y-65616917D01*
X55318601Y-65616923D01*
X55299785Y-65819996D01*
X55299785Y-65820003D01*
X55318601Y-66023076D01*
X55318602Y-66023082D01*
X55349248Y-66130788D01*
X55374418Y-66219250D01*
X55465327Y-66401821D01*
X55465328Y-66401822D01*
X55465329Y-66401825D01*
X55588234Y-66564578D01*
X55588235Y-66564579D01*
X55693623Y-66660652D01*
X55738959Y-66701981D01*
X55912363Y-66809348D01*
X56102544Y-66883024D01*
X56303024Y-66920500D01*
X56303026Y-66920500D01*
X56506974Y-66920500D01*
X56506976Y-66920500D01*
X56707456Y-66883024D01*
X56897637Y-66809348D01*
X57071041Y-66701981D01*
X57221764Y-66564579D01*
X57225764Y-66559283D01*
X57344670Y-66401825D01*
X57344670Y-66401824D01*
X57344673Y-66401821D01*
X57395572Y-66299601D01*
X57844500Y-66299601D01*
X57850684Y-66367651D01*
X57850686Y-66367661D01*
X57899486Y-66524267D01*
X57954827Y-66615813D01*
X57984352Y-66664653D01*
X58100347Y-66780648D01*
X58147823Y-66809348D01*
X58240732Y-66865513D01*
X58301773Y-66884534D01*
X58397343Y-66914315D01*
X58465406Y-66920500D01*
X58465408Y-66920500D01*
X59424592Y-66920500D01*
X59424594Y-66920500D01*
X59492657Y-66914315D01*
X59649270Y-66865512D01*
X59789653Y-66780648D01*
X59905648Y-66664653D01*
X59990512Y-66524270D01*
X60039315Y-66367657D01*
X60045500Y-66299594D01*
X60045500Y-65340406D01*
X60039315Y-65272343D01*
X59990512Y-65115730D01*
X59905648Y-64975347D01*
X59789653Y-64859352D01*
X59755957Y-64838982D01*
X59649267Y-64774486D01*
X59492661Y-64725686D01*
X59492658Y-64725685D01*
X59492657Y-64725685D01*
X59492655Y-64725684D01*
X59492651Y-64725684D01*
X59424601Y-64719500D01*
X59424594Y-64719500D01*
X58465406Y-64719500D01*
X58465398Y-64719500D01*
X58397348Y-64725684D01*
X58397338Y-64725686D01*
X58240732Y-64774486D01*
X58100346Y-64859352D01*
X57984352Y-64975346D01*
X57899486Y-65115732D01*
X57850686Y-65272338D01*
X57850685Y-65272345D01*
X57844500Y-65340398D01*
X57844500Y-66299601D01*
X57395572Y-66299601D01*
X57435582Y-66219250D01*
X57491397Y-66023083D01*
X57491683Y-66020003D01*
X57510215Y-65820003D01*
X57510215Y-65819996D01*
X57491398Y-65616923D01*
X57491397Y-65616917D01*
X57435583Y-65420755D01*
X57435582Y-65420750D01*
X57344673Y-65238179D01*
X57344670Y-65238175D01*
X57344670Y-65238174D01*
X57221765Y-65075421D01*
X57221764Y-65075420D01*
X57075246Y-64941852D01*
X57051757Y-64897012D01*
X57062586Y-64847565D01*
X57089878Y-64822085D01*
X57098850Y-64817228D01*
X57141253Y-64794281D01*
X57142534Y-64793622D01*
X57191211Y-64769826D01*
X57191213Y-64769823D01*
X57196204Y-64766261D01*
X57196369Y-64766493D01*
X57199158Y-64764414D01*
X57198983Y-64764189D01*
X57203824Y-64760420D01*
X57203823Y-64760420D01*
X57203826Y-64760419D01*
X57240512Y-64720565D01*
X57241517Y-64719518D01*
X58437681Y-63523355D01*
X58483557Y-63501964D01*
X58516736Y-63506678D01*
X58584736Y-63533022D01*
X58650310Y-63558426D01*
X58650316Y-63558428D01*
X58855587Y-63596800D01*
X59064413Y-63596800D01*
X59269684Y-63558428D01*
X59403263Y-63506678D01*
X59453869Y-63505640D01*
X59482319Y-63523356D01*
X61201518Y-65242555D01*
X61211142Y-65254406D01*
X61219915Y-65267834D01*
X61219918Y-65267838D01*
X61249154Y-65290594D01*
X61252591Y-65293628D01*
X61256484Y-65297521D01*
X61274858Y-65310639D01*
X61276085Y-65311554D01*
X61294903Y-65326200D01*
X61318811Y-65344809D01*
X61318812Y-65344809D01*
X61318813Y-65344810D01*
X61324206Y-65347729D01*
X61324071Y-65347977D01*
X61327170Y-65349572D01*
X61327295Y-65349318D01*
X61332799Y-65352009D01*
X61332800Y-65352009D01*
X61332801Y-65352010D01*
X61361294Y-65360492D01*
X61384675Y-65367454D01*
X61386107Y-65367912D01*
X61409472Y-65375933D01*
X61437338Y-65385500D01*
X61443385Y-65386509D01*
X61443338Y-65386785D01*
X61446792Y-65387289D01*
X61446827Y-65387009D01*
X61452904Y-65387766D01*
X61452911Y-65387768D01*
X61485910Y-65386403D01*
X61506996Y-65385532D01*
X61508524Y-65385500D01*
X62841773Y-65385500D01*
X62889339Y-65402813D01*
X62908014Y-65426514D01*
X62990327Y-65591821D01*
X62990328Y-65591822D01*
X62990329Y-65591825D01*
X63113234Y-65754578D01*
X63113235Y-65754579D01*
X63232362Y-65863177D01*
X63263959Y-65891981D01*
X63437363Y-65999348D01*
X63627544Y-66073024D01*
X63828024Y-66110500D01*
X63828026Y-66110500D01*
X64031974Y-66110500D01*
X64031976Y-66110500D01*
X64232456Y-66073024D01*
X64422637Y-65999348D01*
X64596041Y-65891981D01*
X64746764Y-65754579D01*
X64776293Y-65715477D01*
X64869670Y-65591825D01*
X64869670Y-65591824D01*
X64869673Y-65591821D01*
X64960582Y-65409250D01*
X65016397Y-65213083D01*
X65035215Y-65010003D01*
X65364785Y-65010003D01*
X65383601Y-65213076D01*
X65383602Y-65213082D01*
X65437586Y-65402813D01*
X65439418Y-65409250D01*
X65530327Y-65591821D01*
X65530328Y-65591822D01*
X65530329Y-65591825D01*
X65653234Y-65754578D01*
X65653235Y-65754579D01*
X65772362Y-65863177D01*
X65803959Y-65891981D01*
X65977363Y-65999348D01*
X66167544Y-66073024D01*
X66368024Y-66110500D01*
X66368026Y-66110500D01*
X66571974Y-66110500D01*
X66571976Y-66110500D01*
X66772456Y-66073024D01*
X66962637Y-65999348D01*
X67136041Y-65891981D01*
X67286764Y-65754579D01*
X67316293Y-65715477D01*
X67409670Y-65591825D01*
X67409670Y-65591824D01*
X67409673Y-65591821D01*
X67500582Y-65409250D01*
X67556397Y-65213083D01*
X67575215Y-65010000D01*
X67570970Y-64964187D01*
X67556398Y-64806923D01*
X67556397Y-64806917D01*
X67547169Y-64774486D01*
X67500582Y-64610750D01*
X67409673Y-64428179D01*
X67409670Y-64428175D01*
X67409670Y-64428174D01*
X67286765Y-64265421D01*
X67286764Y-64265420D01*
X67136041Y-64128019D01*
X67136041Y-64128018D01*
X66962637Y-64020652D01*
X66772456Y-63946976D01*
X66684407Y-63930516D01*
X66571979Y-63909500D01*
X66571976Y-63909500D01*
X66368024Y-63909500D01*
X66368020Y-63909500D01*
X66218115Y-63937522D01*
X66167544Y-63946976D01*
X66167542Y-63946976D01*
X66167540Y-63946977D01*
X66030600Y-64000028D01*
X65977363Y-64020652D01*
X65977358Y-64020654D01*
X65977358Y-64020655D01*
X65803958Y-64128019D01*
X65803957Y-64128019D01*
X65653235Y-64265420D01*
X65653234Y-64265421D01*
X65530329Y-64428174D01*
X65530328Y-64428177D01*
X65439418Y-64610750D01*
X65439416Y-64610755D01*
X65383602Y-64806917D01*
X65383601Y-64806923D01*
X65364785Y-65009996D01*
X65364785Y-65010003D01*
X65035215Y-65010003D01*
X65035215Y-65010000D01*
X65030970Y-64964187D01*
X65016398Y-64806923D01*
X65016397Y-64806917D01*
X65007169Y-64774486D01*
X64960582Y-64610750D01*
X64869673Y-64428179D01*
X64869670Y-64428175D01*
X64869670Y-64428174D01*
X64746765Y-64265421D01*
X64746764Y-64265420D01*
X64596041Y-64128019D01*
X64596041Y-64128018D01*
X64422637Y-64020652D01*
X64232456Y-63946976D01*
X64144407Y-63930516D01*
X64031979Y-63909500D01*
X64031976Y-63909500D01*
X63828024Y-63909500D01*
X63828020Y-63909500D01*
X63678115Y-63937522D01*
X63627544Y-63946976D01*
X63627542Y-63946976D01*
X63627540Y-63946977D01*
X63490600Y-64000028D01*
X63437363Y-64020652D01*
X63437358Y-64020654D01*
X63437358Y-64020655D01*
X63263958Y-64128019D01*
X63263957Y-64128019D01*
X63113235Y-64265420D01*
X63113234Y-64265421D01*
X62990329Y-64428174D01*
X62990328Y-64428177D01*
X62990327Y-64428178D01*
X62990327Y-64428179D01*
X62934070Y-64541160D01*
X62908015Y-64593485D01*
X62871315Y-64628347D01*
X62841773Y-64634500D01*
X61686190Y-64634500D01*
X61638624Y-64617187D01*
X61633864Y-64612826D01*
X60014504Y-62993466D01*
X59993112Y-62947590D01*
X60000589Y-62908155D01*
X60015211Y-62878791D01*
X60072359Y-62677936D01*
X60091627Y-62470000D01*
X60072359Y-62262064D01*
X60015211Y-62061209D01*
X59922129Y-61874275D01*
X59922128Y-61874274D01*
X59922128Y-61874273D01*
X59922126Y-61874271D01*
X59918678Y-61869706D01*
X59796282Y-61707628D01*
X59793287Y-61704898D01*
X59718423Y-61636650D01*
X59641958Y-61566942D01*
X59464410Y-61457009D01*
X59269684Y-61381572D01*
X59179531Y-61364719D01*
X59064416Y-61343200D01*
X59064413Y-61343200D01*
X58855587Y-61343200D01*
X58855583Y-61343200D01*
X58714895Y-61369500D01*
X58650316Y-61381572D01*
X58650314Y-61381572D01*
X58650312Y-61381573D01*
X58507314Y-61436971D01*
X58455590Y-61457009D01*
X58455585Y-61457011D01*
X58455585Y-61457012D01*
X58278044Y-61566940D01*
X58123720Y-61707625D01*
X57997873Y-61874271D01*
X57997871Y-61874273D01*
X57904789Y-62061209D01*
X57904787Y-62061214D01*
X57847641Y-62262062D01*
X57847639Y-62262075D01*
X57828373Y-62469996D01*
X57828373Y-62470003D01*
X57847639Y-62677924D01*
X57847641Y-62677937D01*
X57904787Y-62878785D01*
X57904788Y-62878790D01*
X57919411Y-62908155D01*
X57925116Y-62958451D01*
X57905495Y-62993466D01*
X56836136Y-64062826D01*
X56790260Y-64084218D01*
X56783810Y-64084500D01*
X42815188Y-64084500D01*
X42767622Y-64067187D01*
X42742312Y-64023350D01*
X42751102Y-63973500D01*
X42762862Y-63958174D01*
X42811536Y-63909500D01*
X43197680Y-63523355D01*
X43243555Y-63501964D01*
X43276735Y-63506678D01*
X43410316Y-63558428D01*
X43615587Y-63596800D01*
X43824413Y-63596800D01*
X44029684Y-63558428D01*
X44224410Y-63482991D01*
X44401958Y-63373058D01*
X44556282Y-63232372D01*
X44682129Y-63065725D01*
X44775211Y-62878791D01*
X44832359Y-62677936D01*
X44851627Y-62470000D01*
X44832359Y-62262064D01*
X44775211Y-62061209D01*
X44682129Y-61874275D01*
X44682128Y-61874274D01*
X44682128Y-61874273D01*
X44682126Y-61874271D01*
X44569721Y-61725424D01*
X44556282Y-61707628D01*
X44556279Y-61707625D01*
X44554220Y-61704898D01*
X44555594Y-61703859D01*
X44538603Y-61662537D01*
X44553950Y-61614300D01*
X44596711Y-61587213D01*
X44612541Y-61585500D01*
X45367459Y-61585500D01*
X45415025Y-61602813D01*
X45440335Y-61646650D01*
X45431545Y-61696500D01*
X45425537Y-61704715D01*
X45425780Y-61704898D01*
X45297873Y-61874271D01*
X45297871Y-61874273D01*
X45204789Y-62061209D01*
X45204787Y-62061214D01*
X45147641Y-62262062D01*
X45147639Y-62262075D01*
X45128373Y-62469996D01*
X45128373Y-62470003D01*
X45147639Y-62677924D01*
X45147641Y-62677937D01*
X45202072Y-62869244D01*
X45204789Y-62878791D01*
X45219410Y-62908153D01*
X45297871Y-63065726D01*
X45297873Y-63065728D01*
X45410281Y-63214579D01*
X45423720Y-63232374D01*
X45446894Y-63253500D01*
X45578042Y-63373058D01*
X45755590Y-63482991D01*
X45950316Y-63558428D01*
X46155587Y-63596800D01*
X46364413Y-63596800D01*
X46569684Y-63558428D01*
X46764410Y-63482991D01*
X46941958Y-63373058D01*
X47096282Y-63232372D01*
X47222129Y-63065725D01*
X47315211Y-62878791D01*
X47372359Y-62677936D01*
X47391627Y-62470000D01*
X47372359Y-62262064D01*
X47315211Y-62061209D01*
X47222129Y-61874275D01*
X47222128Y-61874274D01*
X47222128Y-61874273D01*
X47222126Y-61874271D01*
X47109721Y-61725424D01*
X47096282Y-61707628D01*
X47096279Y-61707625D01*
X47094220Y-61704898D01*
X47095594Y-61703859D01*
X47078603Y-61662537D01*
X47093950Y-61614300D01*
X47136711Y-61587213D01*
X47152541Y-61585500D01*
X47907459Y-61585500D01*
X47955025Y-61602813D01*
X47980335Y-61646650D01*
X47971545Y-61696500D01*
X47965537Y-61704715D01*
X47965780Y-61704898D01*
X47837873Y-61874271D01*
X47837871Y-61874273D01*
X47744789Y-62061209D01*
X47744787Y-62061214D01*
X47687641Y-62262062D01*
X47687639Y-62262075D01*
X47668373Y-62469996D01*
X47668373Y-62470003D01*
X47687639Y-62677924D01*
X47687641Y-62677937D01*
X47742072Y-62869244D01*
X47744789Y-62878791D01*
X47759410Y-62908153D01*
X47837871Y-63065726D01*
X47837873Y-63065728D01*
X47950281Y-63214579D01*
X47963720Y-63232374D01*
X47986894Y-63253500D01*
X48118042Y-63373058D01*
X48295590Y-63482991D01*
X48490316Y-63558428D01*
X48695587Y-63596800D01*
X48904413Y-63596800D01*
X49109684Y-63558428D01*
X49304410Y-63482991D01*
X49481958Y-63373058D01*
X49636282Y-63232372D01*
X49762129Y-63065725D01*
X49855211Y-62878791D01*
X49912359Y-62677936D01*
X49931627Y-62470000D01*
X49912359Y-62262064D01*
X49855211Y-62061209D01*
X49762129Y-61874275D01*
X49762128Y-61874274D01*
X49762128Y-61874273D01*
X49762126Y-61874271D01*
X49649721Y-61725424D01*
X49636282Y-61707628D01*
X49636279Y-61707625D01*
X49634220Y-61704898D01*
X49635594Y-61703859D01*
X49618603Y-61662537D01*
X49633950Y-61614300D01*
X49676711Y-61587213D01*
X49692541Y-61585500D01*
X50447459Y-61585500D01*
X50495025Y-61602813D01*
X50520335Y-61646650D01*
X50511545Y-61696500D01*
X50505537Y-61704715D01*
X50505780Y-61704898D01*
X50377873Y-61874271D01*
X50377871Y-61874273D01*
X50284789Y-62061209D01*
X50284787Y-62061214D01*
X50227641Y-62262062D01*
X50227639Y-62262075D01*
X50208373Y-62469996D01*
X50208373Y-62470003D01*
X50227639Y-62677924D01*
X50227641Y-62677937D01*
X50282072Y-62869244D01*
X50284789Y-62878791D01*
X50299410Y-62908153D01*
X50377871Y-63065726D01*
X50377873Y-63065728D01*
X50490281Y-63214579D01*
X50503720Y-63232374D01*
X50526894Y-63253500D01*
X50658042Y-63373058D01*
X50835590Y-63482991D01*
X51030316Y-63558428D01*
X51235587Y-63596800D01*
X51444413Y-63596800D01*
X51649684Y-63558428D01*
X51844410Y-63482991D01*
X52021958Y-63373058D01*
X52176282Y-63232372D01*
X52302129Y-63065725D01*
X52395211Y-62878791D01*
X52452359Y-62677936D01*
X52471627Y-62470000D01*
X52452359Y-62262064D01*
X52395211Y-62061209D01*
X52302129Y-61874275D01*
X52302128Y-61874274D01*
X52302128Y-61874273D01*
X52302126Y-61874271D01*
X52189721Y-61725424D01*
X52176282Y-61707628D01*
X52176279Y-61707625D01*
X52174220Y-61704898D01*
X52175594Y-61703859D01*
X52158603Y-61662537D01*
X52173950Y-61614300D01*
X52216711Y-61587213D01*
X52232541Y-61585500D01*
X52987459Y-61585500D01*
X53035025Y-61602813D01*
X53060335Y-61646650D01*
X53051545Y-61696500D01*
X53045537Y-61704715D01*
X53045780Y-61704898D01*
X52917873Y-61874271D01*
X52917871Y-61874273D01*
X52824789Y-62061209D01*
X52824787Y-62061214D01*
X52767641Y-62262062D01*
X52767639Y-62262075D01*
X52748373Y-62469996D01*
X52748373Y-62470003D01*
X52767639Y-62677924D01*
X52767641Y-62677937D01*
X52822072Y-62869244D01*
X52824789Y-62878791D01*
X52839410Y-62908153D01*
X52917871Y-63065726D01*
X52917873Y-63065728D01*
X53030281Y-63214579D01*
X53043720Y-63232374D01*
X53066894Y-63253500D01*
X53198042Y-63373058D01*
X53375590Y-63482991D01*
X53570316Y-63558428D01*
X53775587Y-63596800D01*
X53984413Y-63596800D01*
X54189684Y-63558428D01*
X54384410Y-63482991D01*
X54561958Y-63373058D01*
X54716282Y-63232372D01*
X54842129Y-63065725D01*
X54935211Y-62878791D01*
X54992359Y-62677936D01*
X55011627Y-62470000D01*
X54992359Y-62262064D01*
X54935211Y-62061209D01*
X54842129Y-61874275D01*
X54842128Y-61874274D01*
X54842128Y-61874273D01*
X54842126Y-61874271D01*
X54729721Y-61725424D01*
X54716282Y-61707628D01*
X54716279Y-61707625D01*
X54714220Y-61704898D01*
X54715594Y-61703859D01*
X54698603Y-61662537D01*
X54713950Y-61614300D01*
X54756711Y-61587213D01*
X54772541Y-61585500D01*
X55527459Y-61585500D01*
X55575025Y-61602813D01*
X55600335Y-61646650D01*
X55591545Y-61696500D01*
X55585537Y-61704715D01*
X55585780Y-61704898D01*
X55457873Y-61874271D01*
X55457871Y-61874273D01*
X55364789Y-62061209D01*
X55364787Y-62061214D01*
X55307641Y-62262062D01*
X55307639Y-62262075D01*
X55288373Y-62469996D01*
X55288373Y-62470003D01*
X55307639Y-62677924D01*
X55307641Y-62677937D01*
X55362072Y-62869244D01*
X55364789Y-62878791D01*
X55379410Y-62908153D01*
X55457871Y-63065726D01*
X55457873Y-63065728D01*
X55570281Y-63214579D01*
X55583720Y-63232374D01*
X55606894Y-63253500D01*
X55738042Y-63373058D01*
X55915590Y-63482991D01*
X56110316Y-63558428D01*
X56315587Y-63596800D01*
X56524413Y-63596800D01*
X56729684Y-63558428D01*
X56924410Y-63482991D01*
X57101958Y-63373058D01*
X57256282Y-63232372D01*
X57382129Y-63065725D01*
X57475211Y-62878791D01*
X57532359Y-62677936D01*
X57551627Y-62470000D01*
X57532359Y-62262064D01*
X57475211Y-62061209D01*
X57382129Y-61874275D01*
X57382128Y-61874274D01*
X57382128Y-61874273D01*
X57382126Y-61874271D01*
X57269721Y-61725424D01*
X57256282Y-61707628D01*
X57256279Y-61707625D01*
X57254220Y-61704898D01*
X57255594Y-61703859D01*
X57238603Y-61662537D01*
X57253950Y-61614300D01*
X57296711Y-61587213D01*
X57312541Y-61585500D01*
X57633383Y-61585500D01*
X57648567Y-61587074D01*
X57664268Y-61590367D01*
X57701036Y-61585783D01*
X57705615Y-61585500D01*
X57711111Y-61585500D01*
X57711114Y-61585500D01*
X57733387Y-61581782D01*
X57734887Y-61581564D01*
X57740604Y-61580851D01*
X57788626Y-61574866D01*
X57788629Y-61574864D01*
X57794507Y-61573115D01*
X57794587Y-61573386D01*
X57797904Y-61572323D01*
X57797812Y-61572055D01*
X57803606Y-61570065D01*
X57803610Y-61570065D01*
X57851235Y-61544290D01*
X57852535Y-61543622D01*
X57901211Y-61519826D01*
X57901213Y-61519823D01*
X57906204Y-61516261D01*
X57906369Y-61516493D01*
X57909158Y-61514414D01*
X57908983Y-61514189D01*
X57913821Y-61510422D01*
X57913821Y-61510421D01*
X57913826Y-61510419D01*
X57950535Y-61470541D01*
X57951517Y-61469518D01*
X58437680Y-60983355D01*
X58483555Y-60961964D01*
X58516735Y-60966678D01*
X58650316Y-61018428D01*
X58855587Y-61056800D01*
X59064413Y-61056800D01*
X59269684Y-61018428D01*
X59403263Y-60966678D01*
X59453869Y-60965640D01*
X59482319Y-60983356D01*
X61201518Y-62702555D01*
X61211142Y-62714406D01*
X61219915Y-62727834D01*
X61219918Y-62727838D01*
X61249154Y-62750594D01*
X61252591Y-62753628D01*
X61256484Y-62757521D01*
X61274858Y-62770639D01*
X61276085Y-62771554D01*
X61279760Y-62774414D01*
X61318811Y-62804809D01*
X61318812Y-62804809D01*
X61318813Y-62804810D01*
X61324206Y-62807729D01*
X61324071Y-62807977D01*
X61327170Y-62809572D01*
X61327295Y-62809318D01*
X61332799Y-62812009D01*
X61332800Y-62812009D01*
X61332801Y-62812010D01*
X61361294Y-62820492D01*
X61384675Y-62827454D01*
X61386107Y-62827912D01*
X61402053Y-62833386D01*
X61437338Y-62845500D01*
X61443385Y-62846509D01*
X61443338Y-62846785D01*
X61446792Y-62847289D01*
X61446827Y-62847009D01*
X61452904Y-62847766D01*
X61452911Y-62847768D01*
X61485910Y-62846403D01*
X61506996Y-62845532D01*
X61508524Y-62845500D01*
X62841773Y-62845500D01*
X62889339Y-62862813D01*
X62908014Y-62886514D01*
X62990327Y-63051821D01*
X62990328Y-63051822D01*
X62990329Y-63051825D01*
X63113234Y-63214578D01*
X63113235Y-63214579D01*
X63210613Y-63303350D01*
X63263959Y-63351981D01*
X63437363Y-63459348D01*
X63627544Y-63533024D01*
X63828024Y-63570500D01*
X63828026Y-63570500D01*
X64031974Y-63570500D01*
X64031976Y-63570500D01*
X64232456Y-63533024D01*
X64422637Y-63459348D01*
X64596041Y-63351981D01*
X64746764Y-63214579D01*
X64869673Y-63051821D01*
X64960582Y-62869250D01*
X65016397Y-62673083D01*
X65028728Y-62540015D01*
X65035215Y-62470003D01*
X65364785Y-62470003D01*
X65383601Y-62673076D01*
X65383602Y-62673082D01*
X65434045Y-62850366D01*
X65439418Y-62869250D01*
X65530327Y-63051821D01*
X65530328Y-63051822D01*
X65530329Y-63051825D01*
X65653234Y-63214578D01*
X65653235Y-63214579D01*
X65750613Y-63303350D01*
X65803959Y-63351981D01*
X65977363Y-63459348D01*
X66167544Y-63533024D01*
X66368024Y-63570500D01*
X66368026Y-63570500D01*
X66571974Y-63570500D01*
X66571976Y-63570500D01*
X66772456Y-63533024D01*
X66962637Y-63459348D01*
X67136041Y-63351981D01*
X67286764Y-63214579D01*
X67409673Y-63051821D01*
X67500582Y-62869250D01*
X67556397Y-62673083D01*
X67568728Y-62540015D01*
X67575215Y-62470003D01*
X67575215Y-62469996D01*
X67556398Y-62266923D01*
X67556397Y-62266917D01*
X67555016Y-62262062D01*
X67500582Y-62070750D01*
X67409673Y-61888179D01*
X67409670Y-61888175D01*
X67409670Y-61888174D01*
X67286765Y-61725421D01*
X67286764Y-61725420D01*
X67136041Y-61588019D01*
X67121446Y-61578982D01*
X66962637Y-61480652D01*
X66772456Y-61406976D01*
X66684407Y-61390516D01*
X66571979Y-61369500D01*
X66571976Y-61369500D01*
X66368024Y-61369500D01*
X66368020Y-61369500D01*
X66218115Y-61397522D01*
X66167544Y-61406976D01*
X66167542Y-61406976D01*
X66167540Y-61406977D01*
X66006168Y-61469493D01*
X65977363Y-61480652D01*
X65977358Y-61480654D01*
X65977358Y-61480655D01*
X65803958Y-61588019D01*
X65803957Y-61588019D01*
X65653235Y-61725420D01*
X65653234Y-61725421D01*
X65530329Y-61888174D01*
X65530328Y-61888177D01*
X65439418Y-62070750D01*
X65439416Y-62070755D01*
X65383602Y-62266917D01*
X65383601Y-62266923D01*
X65364785Y-62469996D01*
X65364785Y-62470003D01*
X65035215Y-62470003D01*
X65035215Y-62469996D01*
X65016398Y-62266923D01*
X65016397Y-62266917D01*
X65015016Y-62262062D01*
X64960582Y-62070750D01*
X64869673Y-61888179D01*
X64869670Y-61888175D01*
X64869670Y-61888174D01*
X64746765Y-61725421D01*
X64746764Y-61725420D01*
X64596041Y-61588019D01*
X64581446Y-61578982D01*
X64422637Y-61480652D01*
X64232456Y-61406976D01*
X64144407Y-61390516D01*
X64031979Y-61369500D01*
X64031976Y-61369500D01*
X63828024Y-61369500D01*
X63828020Y-61369500D01*
X63678115Y-61397522D01*
X63627544Y-61406976D01*
X63627542Y-61406976D01*
X63627540Y-61406977D01*
X63466168Y-61469493D01*
X63437363Y-61480652D01*
X63437358Y-61480654D01*
X63437358Y-61480655D01*
X63263958Y-61588019D01*
X63263957Y-61588019D01*
X63113235Y-61725420D01*
X63113234Y-61725421D01*
X62990329Y-61888174D01*
X62990328Y-61888177D01*
X62990327Y-61888178D01*
X62990327Y-61888179D01*
X62934070Y-62001160D01*
X62908015Y-62053485D01*
X62871315Y-62088347D01*
X62841773Y-62094500D01*
X61686190Y-62094500D01*
X61638624Y-62077187D01*
X61633864Y-62072826D01*
X60014504Y-60453466D01*
X59993112Y-60407590D01*
X60000589Y-60368155D01*
X60015211Y-60338791D01*
X60072359Y-60137936D01*
X60091627Y-59930000D01*
X60081070Y-59816075D01*
X60072360Y-59722075D01*
X60072359Y-59722064D01*
X60015211Y-59521209D01*
X59922129Y-59334275D01*
X59922128Y-59334274D01*
X59922128Y-59334273D01*
X59922126Y-59334271D01*
X59918678Y-59329706D01*
X59796282Y-59167628D01*
X59641958Y-59026942D01*
X59639627Y-59025499D01*
X59571976Y-58983611D01*
X59464410Y-58917009D01*
X59269684Y-58841572D01*
X59179531Y-58824719D01*
X59064416Y-58803200D01*
X59064413Y-58803200D01*
X58855587Y-58803200D01*
X58855583Y-58803200D01*
X58714895Y-58829500D01*
X58650316Y-58841572D01*
X58650314Y-58841572D01*
X58650312Y-58841573D01*
X58507314Y-58896971D01*
X58455590Y-58917009D01*
X58455585Y-58917011D01*
X58455585Y-58917012D01*
X58278044Y-59026940D01*
X58123720Y-59167625D01*
X57997873Y-59334271D01*
X57997871Y-59334273D01*
X57904789Y-59521209D01*
X57904787Y-59521214D01*
X57847641Y-59722062D01*
X57847639Y-59722075D01*
X57828373Y-59929996D01*
X57828373Y-59930003D01*
X57847639Y-60137924D01*
X57847641Y-60137937D01*
X57904788Y-60338788D01*
X57904789Y-60338791D01*
X57919411Y-60368157D01*
X57925114Y-60418453D01*
X57905494Y-60453466D01*
X57546136Y-60812826D01*
X57500260Y-60834218D01*
X57493810Y-60834500D01*
X44591392Y-60834500D01*
X44543826Y-60817187D01*
X44518516Y-60773350D01*
X44527306Y-60723500D01*
X44541538Y-60705814D01*
X44556279Y-60692375D01*
X44556279Y-60692374D01*
X44556282Y-60692372D01*
X44682129Y-60525725D01*
X44775211Y-60338791D01*
X44832359Y-60137936D01*
X44851627Y-59930000D01*
X44841070Y-59816075D01*
X44832360Y-59722075D01*
X44832359Y-59722064D01*
X44775211Y-59521209D01*
X44682129Y-59334275D01*
X44682128Y-59334274D01*
X44682128Y-59334273D01*
X44682126Y-59334271D01*
X44556279Y-59167624D01*
X44541538Y-59154186D01*
X44518050Y-59109346D01*
X44528880Y-59059899D01*
X44568960Y-59028982D01*
X44591392Y-59025500D01*
X57653383Y-59025500D01*
X57668567Y-59027074D01*
X57684268Y-59030367D01*
X57721036Y-59025783D01*
X57725615Y-59025500D01*
X57731111Y-59025500D01*
X57731114Y-59025500D01*
X57753387Y-59021782D01*
X57754887Y-59021564D01*
X57760604Y-59020851D01*
X57808626Y-59014866D01*
X57808629Y-59014864D01*
X57814507Y-59013115D01*
X57814587Y-59013386D01*
X57817904Y-59012323D01*
X57817812Y-59012055D01*
X57823606Y-59010065D01*
X57823610Y-59010065D01*
X57871235Y-58984290D01*
X57872535Y-58983622D01*
X57921211Y-58959826D01*
X57921213Y-58959823D01*
X57926204Y-58956261D01*
X57926369Y-58956493D01*
X57929158Y-58954414D01*
X57928983Y-58954189D01*
X57933821Y-58950422D01*
X57933821Y-58950421D01*
X57933826Y-58950419D01*
X57970535Y-58910541D01*
X57971517Y-58909518D01*
X58437680Y-58443355D01*
X58483555Y-58421964D01*
X58516735Y-58426678D01*
X58650316Y-58478428D01*
X58855587Y-58516800D01*
X59064413Y-58516800D01*
X59269684Y-58478428D01*
X59403263Y-58426678D01*
X59453869Y-58425640D01*
X59482319Y-58443356D01*
X61201518Y-60162555D01*
X61211142Y-60174406D01*
X61219915Y-60187834D01*
X61219918Y-60187838D01*
X61249154Y-60210594D01*
X61252591Y-60213628D01*
X61256484Y-60217521D01*
X61274858Y-60230639D01*
X61276085Y-60231554D01*
X61279760Y-60234414D01*
X61318811Y-60264809D01*
X61318812Y-60264809D01*
X61318813Y-60264810D01*
X61324206Y-60267729D01*
X61324071Y-60267977D01*
X61327170Y-60269572D01*
X61327295Y-60269318D01*
X61332799Y-60272009D01*
X61332800Y-60272009D01*
X61332801Y-60272010D01*
X61361294Y-60280492D01*
X61384675Y-60287454D01*
X61386107Y-60287912D01*
X61402053Y-60293386D01*
X61437338Y-60305500D01*
X61443385Y-60306509D01*
X61443338Y-60306785D01*
X61446792Y-60307289D01*
X61446827Y-60307009D01*
X61452904Y-60307766D01*
X61452911Y-60307768D01*
X61485910Y-60306403D01*
X61506996Y-60305532D01*
X61508524Y-60305500D01*
X62841773Y-60305500D01*
X62889339Y-60322813D01*
X62908014Y-60346514D01*
X62990327Y-60511821D01*
X62990328Y-60511822D01*
X62990329Y-60511825D01*
X63113234Y-60674578D01*
X63113235Y-60674579D01*
X63210613Y-60763350D01*
X63263959Y-60811981D01*
X63437363Y-60919348D01*
X63627544Y-60993024D01*
X63828024Y-61030500D01*
X63828026Y-61030500D01*
X64031974Y-61030500D01*
X64031976Y-61030500D01*
X64232456Y-60993024D01*
X64422637Y-60919348D01*
X64596041Y-60811981D01*
X64746764Y-60674579D01*
X64869673Y-60511821D01*
X64960582Y-60329250D01*
X65016397Y-60133083D01*
X65035215Y-59930003D01*
X65364785Y-59930003D01*
X65383601Y-60133076D01*
X65383602Y-60133082D01*
X65434045Y-60310366D01*
X65439418Y-60329250D01*
X65530327Y-60511821D01*
X65530328Y-60511822D01*
X65530329Y-60511825D01*
X65653234Y-60674578D01*
X65653235Y-60674579D01*
X65750613Y-60763350D01*
X65803959Y-60811981D01*
X65977363Y-60919348D01*
X66167544Y-60993024D01*
X66368024Y-61030500D01*
X66368026Y-61030500D01*
X66571974Y-61030500D01*
X66571976Y-61030500D01*
X66772456Y-60993024D01*
X66962637Y-60919348D01*
X67136041Y-60811981D01*
X67286764Y-60674579D01*
X67409673Y-60511821D01*
X67500582Y-60329250D01*
X67556397Y-60133083D01*
X67575215Y-59930000D01*
X67556397Y-59726917D01*
X67500582Y-59530750D01*
X67409673Y-59348179D01*
X67409670Y-59348175D01*
X67409670Y-59348174D01*
X67286765Y-59185421D01*
X67286764Y-59185420D01*
X67136041Y-59048019D01*
X67099670Y-59025499D01*
X66962637Y-58940652D01*
X66772456Y-58866976D01*
X66684407Y-58850516D01*
X66571979Y-58829500D01*
X66571976Y-58829500D01*
X66368024Y-58829500D01*
X66368020Y-58829500D01*
X66218115Y-58857522D01*
X66167544Y-58866976D01*
X66167542Y-58866976D01*
X66167540Y-58866977D01*
X66002105Y-58931067D01*
X65977363Y-58940652D01*
X65977358Y-58940654D01*
X65977358Y-58940655D01*
X65803958Y-59048019D01*
X65803957Y-59048019D01*
X65653235Y-59185420D01*
X65653234Y-59185421D01*
X65530329Y-59348174D01*
X65530328Y-59348177D01*
X65439418Y-59530750D01*
X65439416Y-59530755D01*
X65383602Y-59726917D01*
X65383601Y-59726923D01*
X65364785Y-59929996D01*
X65364785Y-59930003D01*
X65035215Y-59930003D01*
X65035215Y-59930000D01*
X65016397Y-59726917D01*
X64960582Y-59530750D01*
X64869673Y-59348179D01*
X64869670Y-59348175D01*
X64869670Y-59348174D01*
X64746765Y-59185421D01*
X64746764Y-59185420D01*
X64596041Y-59048019D01*
X64559670Y-59025499D01*
X64422637Y-58940652D01*
X64232456Y-58866976D01*
X64144407Y-58850516D01*
X64031979Y-58829500D01*
X64031976Y-58829500D01*
X63828024Y-58829500D01*
X63828020Y-58829500D01*
X63678115Y-58857522D01*
X63627544Y-58866976D01*
X63627542Y-58866976D01*
X63627540Y-58866977D01*
X63462105Y-58931067D01*
X63437363Y-58940652D01*
X63437358Y-58940654D01*
X63437358Y-58940655D01*
X63263958Y-59048019D01*
X63263957Y-59048019D01*
X63113235Y-59185420D01*
X63113234Y-59185421D01*
X62990329Y-59348174D01*
X62990328Y-59348177D01*
X62990327Y-59348178D01*
X62990327Y-59348179D01*
X62934070Y-59461160D01*
X62908015Y-59513485D01*
X62871315Y-59548347D01*
X62841773Y-59554500D01*
X61686190Y-59554500D01*
X61638624Y-59537187D01*
X61633864Y-59532826D01*
X60014504Y-57913466D01*
X59993112Y-57867590D01*
X60000589Y-57828155D01*
X60015211Y-57798791D01*
X60072359Y-57597936D01*
X60091627Y-57390000D01*
X60072359Y-57182064D01*
X60015211Y-56981209D01*
X59922129Y-56794275D01*
X59922128Y-56794274D01*
X59922128Y-56794273D01*
X59922126Y-56794271D01*
X59918679Y-56789706D01*
X59796282Y-56627628D01*
X59762136Y-56596500D01*
X59707454Y-56546650D01*
X59641958Y-56486942D01*
X59639627Y-56485499D01*
X59571976Y-56443611D01*
X59464410Y-56377009D01*
X59269684Y-56301572D01*
X59179531Y-56284719D01*
X59064416Y-56263200D01*
X59064413Y-56263200D01*
X58855587Y-56263200D01*
X58855583Y-56263200D01*
X58714895Y-56289500D01*
X58650316Y-56301572D01*
X58650314Y-56301572D01*
X58650312Y-56301573D01*
X58474991Y-56369493D01*
X58455590Y-56377009D01*
X58455585Y-56377011D01*
X58455585Y-56377012D01*
X58278044Y-56486940D01*
X58123720Y-56627625D01*
X57997873Y-56794271D01*
X57997871Y-56794273D01*
X57904789Y-56981209D01*
X57904787Y-56981214D01*
X57847641Y-57182062D01*
X57847639Y-57182075D01*
X57828373Y-57389996D01*
X57828373Y-57390003D01*
X57847639Y-57597924D01*
X57847641Y-57597937D01*
X57904787Y-57798785D01*
X57904788Y-57798790D01*
X57919411Y-57828155D01*
X57925116Y-57878451D01*
X57905495Y-57913466D01*
X57566136Y-58252826D01*
X57520260Y-58274218D01*
X57513810Y-58274500D01*
X44612541Y-58274500D01*
X44564975Y-58257187D01*
X44539665Y-58213350D01*
X44548455Y-58163500D01*
X44554462Y-58155284D01*
X44554220Y-58155102D01*
X44556282Y-58152372D01*
X44682129Y-57985725D01*
X44775211Y-57798791D01*
X44832359Y-57597936D01*
X44851627Y-57390000D01*
X44832359Y-57182064D01*
X44775211Y-56981209D01*
X44682129Y-56794275D01*
X44682128Y-56794274D01*
X44682128Y-56794273D01*
X44682126Y-56794271D01*
X44556279Y-56627624D01*
X44541538Y-56614186D01*
X44518050Y-56569346D01*
X44528880Y-56519899D01*
X44568960Y-56488982D01*
X44591392Y-56485500D01*
X57653383Y-56485500D01*
X57668567Y-56487074D01*
X57684268Y-56490367D01*
X57721036Y-56485783D01*
X57725615Y-56485500D01*
X57731111Y-56485500D01*
X57731114Y-56485500D01*
X57753387Y-56481782D01*
X57754887Y-56481564D01*
X57760604Y-56480851D01*
X57808626Y-56474866D01*
X57808629Y-56474864D01*
X57814507Y-56473115D01*
X57814587Y-56473386D01*
X57817904Y-56472323D01*
X57817812Y-56472055D01*
X57823606Y-56470065D01*
X57823610Y-56470065D01*
X57871235Y-56444290D01*
X57872535Y-56443622D01*
X57921211Y-56419826D01*
X57921213Y-56419823D01*
X57926204Y-56416261D01*
X57926369Y-56416493D01*
X57929158Y-56414414D01*
X57928983Y-56414189D01*
X57933821Y-56410422D01*
X57933821Y-56410421D01*
X57933826Y-56410419D01*
X57970535Y-56370541D01*
X57971517Y-56369518D01*
X58437680Y-55903355D01*
X58483555Y-55881964D01*
X58516735Y-55886678D01*
X58650316Y-55938428D01*
X58855587Y-55976800D01*
X59064413Y-55976800D01*
X59269684Y-55938428D01*
X59403263Y-55886678D01*
X59453869Y-55885640D01*
X59482319Y-55903356D01*
X61201518Y-57622555D01*
X61211142Y-57634406D01*
X61219915Y-57647834D01*
X61219918Y-57647838D01*
X61249154Y-57670594D01*
X61252591Y-57673628D01*
X61256484Y-57677521D01*
X61274858Y-57690639D01*
X61276085Y-57691554D01*
X61279760Y-57694414D01*
X61318811Y-57724809D01*
X61318812Y-57724809D01*
X61318813Y-57724810D01*
X61324206Y-57727729D01*
X61324071Y-57727977D01*
X61327170Y-57729572D01*
X61327295Y-57729318D01*
X61332799Y-57732009D01*
X61332800Y-57732009D01*
X61332801Y-57732010D01*
X61361294Y-57740492D01*
X61384675Y-57747454D01*
X61386107Y-57747912D01*
X61402053Y-57753386D01*
X61437338Y-57765500D01*
X61443385Y-57766509D01*
X61443338Y-57766785D01*
X61446792Y-57767289D01*
X61446827Y-57767009D01*
X61452904Y-57767766D01*
X61452911Y-57767768D01*
X61485910Y-57766403D01*
X61506996Y-57765532D01*
X61508524Y-57765500D01*
X62841773Y-57765500D01*
X62889339Y-57782813D01*
X62908014Y-57806514D01*
X62990327Y-57971821D01*
X62990328Y-57971822D01*
X62990329Y-57971825D01*
X63113234Y-58134578D01*
X63113235Y-58134579D01*
X63221583Y-58233350D01*
X63263959Y-58271981D01*
X63437363Y-58379348D01*
X63627544Y-58453024D01*
X63828024Y-58490500D01*
X63828026Y-58490500D01*
X64031974Y-58490500D01*
X64031976Y-58490500D01*
X64232456Y-58453024D01*
X64422637Y-58379348D01*
X64596041Y-58271981D01*
X64746764Y-58134579D01*
X64869673Y-57971821D01*
X64960582Y-57789250D01*
X65016397Y-57593083D01*
X65028728Y-57460015D01*
X65035215Y-57390003D01*
X65364785Y-57390003D01*
X65383601Y-57593076D01*
X65383602Y-57593082D01*
X65434045Y-57770366D01*
X65439418Y-57789250D01*
X65530327Y-57971821D01*
X65530328Y-57971822D01*
X65530329Y-57971825D01*
X65653234Y-58134578D01*
X65653235Y-58134579D01*
X65761583Y-58233350D01*
X65803959Y-58271981D01*
X65977363Y-58379348D01*
X66167544Y-58453024D01*
X66368024Y-58490500D01*
X66368026Y-58490500D01*
X66571974Y-58490500D01*
X66571976Y-58490500D01*
X66772456Y-58453024D01*
X66962637Y-58379348D01*
X67136041Y-58271981D01*
X67286764Y-58134579D01*
X67409673Y-57971821D01*
X67500582Y-57789250D01*
X67556397Y-57593083D01*
X67568728Y-57460015D01*
X67575215Y-57390003D01*
X67575215Y-57389996D01*
X67556398Y-57186923D01*
X67556397Y-57186917D01*
X67555016Y-57182062D01*
X67500582Y-56990750D01*
X67409673Y-56808179D01*
X67409670Y-56808175D01*
X67409670Y-56808174D01*
X67286765Y-56645421D01*
X67286764Y-56645420D01*
X67136041Y-56508019D01*
X67099670Y-56485499D01*
X66962637Y-56400652D01*
X66772456Y-56326976D01*
X66684407Y-56310516D01*
X66571979Y-56289500D01*
X66571976Y-56289500D01*
X66368024Y-56289500D01*
X66368020Y-56289500D01*
X66218115Y-56317522D01*
X66167544Y-56326976D01*
X66167542Y-56326976D01*
X66167540Y-56326977D01*
X66002107Y-56391066D01*
X65977363Y-56400652D01*
X65977358Y-56400654D01*
X65977358Y-56400655D01*
X65803958Y-56508019D01*
X65803957Y-56508019D01*
X65653235Y-56645420D01*
X65653234Y-56645421D01*
X65530329Y-56808174D01*
X65530328Y-56808177D01*
X65439418Y-56990750D01*
X65439416Y-56990755D01*
X65383602Y-57186917D01*
X65383601Y-57186923D01*
X65364785Y-57389996D01*
X65364785Y-57390003D01*
X65035215Y-57390003D01*
X65035215Y-57389996D01*
X65016398Y-57186923D01*
X65016397Y-57186917D01*
X65015016Y-57182062D01*
X64960582Y-56990750D01*
X64869673Y-56808179D01*
X64869670Y-56808175D01*
X64869670Y-56808174D01*
X64746765Y-56645421D01*
X64746764Y-56645420D01*
X64596041Y-56508019D01*
X64559670Y-56485499D01*
X64422637Y-56400652D01*
X64232456Y-56326976D01*
X64144407Y-56310516D01*
X64031979Y-56289500D01*
X64031976Y-56289500D01*
X63828024Y-56289500D01*
X63828020Y-56289500D01*
X63678115Y-56317522D01*
X63627544Y-56326976D01*
X63627542Y-56326976D01*
X63627540Y-56326977D01*
X63462107Y-56391066D01*
X63437363Y-56400652D01*
X63437358Y-56400654D01*
X63437358Y-56400655D01*
X63263958Y-56508019D01*
X63263957Y-56508019D01*
X63113235Y-56645420D01*
X63113234Y-56645421D01*
X62990329Y-56808174D01*
X62990328Y-56808177D01*
X62990327Y-56808178D01*
X62990327Y-56808179D01*
X62934070Y-56921160D01*
X62908015Y-56973485D01*
X62871315Y-57008347D01*
X62841773Y-57014500D01*
X61686190Y-57014500D01*
X61638624Y-56997187D01*
X61633864Y-56992826D01*
X60014504Y-55373466D01*
X59993112Y-55327590D01*
X60000589Y-55288155D01*
X60015211Y-55258791D01*
X60072359Y-55057936D01*
X60091627Y-54850000D01*
X60072359Y-54642064D01*
X60015211Y-54441209D01*
X59922129Y-54254275D01*
X59922128Y-54254274D01*
X59922128Y-54254273D01*
X59922126Y-54254271D01*
X59918678Y-54249706D01*
X59796282Y-54087628D01*
X59762136Y-54056500D01*
X59707454Y-54006650D01*
X59641958Y-53946942D01*
X59639627Y-53945499D01*
X59571976Y-53903611D01*
X59464410Y-53837009D01*
X59269684Y-53761572D01*
X59179531Y-53744719D01*
X59064416Y-53723200D01*
X59064413Y-53723200D01*
X58855587Y-53723200D01*
X58855583Y-53723200D01*
X58714895Y-53749500D01*
X58650316Y-53761572D01*
X58650314Y-53761572D01*
X58650312Y-53761573D01*
X58474991Y-53829493D01*
X58455590Y-53837009D01*
X58455585Y-53837011D01*
X58455585Y-53837012D01*
X58278044Y-53946940D01*
X58123720Y-54087625D01*
X57997873Y-54254271D01*
X57997871Y-54254273D01*
X57904789Y-54441209D01*
X57904787Y-54441214D01*
X57847641Y-54642062D01*
X57847639Y-54642075D01*
X57828373Y-54849996D01*
X57828373Y-54850003D01*
X57847639Y-55057924D01*
X57847641Y-55057937D01*
X57904787Y-55258785D01*
X57904788Y-55258790D01*
X57919411Y-55288155D01*
X57925116Y-55338451D01*
X57905495Y-55373466D01*
X57566136Y-55712826D01*
X57520260Y-55734218D01*
X57513810Y-55734500D01*
X44612541Y-55734500D01*
X44564975Y-55717187D01*
X44539665Y-55673350D01*
X44548455Y-55623500D01*
X44554462Y-55615284D01*
X44554220Y-55615102D01*
X44561235Y-55605813D01*
X44682129Y-55445725D01*
X44775211Y-55258791D01*
X44832359Y-55057936D01*
X44851627Y-54850000D01*
X44832359Y-54642064D01*
X44775211Y-54441209D01*
X44682129Y-54254275D01*
X44682128Y-54254274D01*
X44682128Y-54254273D01*
X44682126Y-54254271D01*
X44556279Y-54087624D01*
X44541538Y-54074186D01*
X44518050Y-54029346D01*
X44528880Y-53979899D01*
X44568960Y-53948982D01*
X44591392Y-53945500D01*
X57653383Y-53945500D01*
X57668567Y-53947074D01*
X57684268Y-53950367D01*
X57721036Y-53945783D01*
X57725615Y-53945500D01*
X57731111Y-53945500D01*
X57731114Y-53945500D01*
X57753387Y-53941782D01*
X57754887Y-53941564D01*
X57760604Y-53940851D01*
X57808626Y-53934866D01*
X57808629Y-53934864D01*
X57814507Y-53933115D01*
X57814587Y-53933386D01*
X57817904Y-53932323D01*
X57817812Y-53932055D01*
X57823606Y-53930065D01*
X57823610Y-53930065D01*
X57871235Y-53904290D01*
X57872535Y-53903622D01*
X57921211Y-53879826D01*
X57921213Y-53879823D01*
X57926204Y-53876261D01*
X57926369Y-53876493D01*
X57929158Y-53874414D01*
X57928983Y-53874189D01*
X57933821Y-53870422D01*
X57933821Y-53870421D01*
X57933826Y-53870419D01*
X57970535Y-53830541D01*
X57971517Y-53829518D01*
X58437680Y-53363355D01*
X58483555Y-53341964D01*
X58516735Y-53346678D01*
X58650316Y-53398428D01*
X58855587Y-53436800D01*
X59064413Y-53436800D01*
X59269684Y-53398428D01*
X59403263Y-53346678D01*
X59453869Y-53345640D01*
X59482319Y-53363356D01*
X61201518Y-55082555D01*
X61211142Y-55094406D01*
X61219915Y-55107834D01*
X61219918Y-55107838D01*
X61249154Y-55130594D01*
X61252591Y-55133628D01*
X61256484Y-55137521D01*
X61274858Y-55150639D01*
X61276085Y-55151554D01*
X61279760Y-55154414D01*
X61318811Y-55184809D01*
X61318812Y-55184809D01*
X61318813Y-55184810D01*
X61324206Y-55187729D01*
X61324071Y-55187977D01*
X61327170Y-55189572D01*
X61327295Y-55189318D01*
X61332799Y-55192009D01*
X61332800Y-55192009D01*
X61332801Y-55192010D01*
X61361294Y-55200492D01*
X61384675Y-55207454D01*
X61386107Y-55207912D01*
X61402053Y-55213386D01*
X61437338Y-55225500D01*
X61443385Y-55226509D01*
X61443338Y-55226785D01*
X61446792Y-55227289D01*
X61446827Y-55227009D01*
X61452904Y-55227766D01*
X61452911Y-55227768D01*
X61485910Y-55226403D01*
X61506996Y-55225532D01*
X61508524Y-55225500D01*
X62841773Y-55225500D01*
X62889339Y-55242813D01*
X62908014Y-55266514D01*
X62990327Y-55431821D01*
X62990328Y-55431822D01*
X62990329Y-55431825D01*
X63113234Y-55594578D01*
X63113235Y-55594579D01*
X63228986Y-55700099D01*
X63263959Y-55731981D01*
X63437363Y-55839348D01*
X63627544Y-55913024D01*
X63828024Y-55950500D01*
X63828026Y-55950500D01*
X64031974Y-55950500D01*
X64031976Y-55950500D01*
X64232456Y-55913024D01*
X64422637Y-55839348D01*
X64596041Y-55731981D01*
X64746764Y-55594579D01*
X64869673Y-55431821D01*
X64960582Y-55249250D01*
X65016397Y-55053083D01*
X65035215Y-54850003D01*
X65364785Y-54850003D01*
X65383601Y-55053076D01*
X65383602Y-55053082D01*
X65434045Y-55230366D01*
X65439418Y-55249250D01*
X65530327Y-55431821D01*
X65530328Y-55431822D01*
X65530329Y-55431825D01*
X65653234Y-55594578D01*
X65653235Y-55594579D01*
X65768986Y-55700099D01*
X65803959Y-55731981D01*
X65977363Y-55839348D01*
X66167544Y-55913024D01*
X66368024Y-55950500D01*
X66368026Y-55950500D01*
X66571974Y-55950500D01*
X66571976Y-55950500D01*
X66772456Y-55913024D01*
X66962637Y-55839348D01*
X67136041Y-55731981D01*
X67286764Y-55594579D01*
X67409673Y-55431821D01*
X67500582Y-55249250D01*
X67556397Y-55053083D01*
X67575215Y-54850000D01*
X67569519Y-54788526D01*
X67556398Y-54646923D01*
X67556397Y-54646917D01*
X67555016Y-54642062D01*
X67500582Y-54450750D01*
X67409673Y-54268179D01*
X67409670Y-54268175D01*
X67409670Y-54268174D01*
X67286765Y-54105421D01*
X67286764Y-54105420D01*
X67136041Y-53968019D01*
X67099670Y-53945499D01*
X66962637Y-53860652D01*
X66772456Y-53786976D01*
X66684407Y-53770516D01*
X66571979Y-53749500D01*
X66571976Y-53749500D01*
X66368024Y-53749500D01*
X66368020Y-53749500D01*
X66218115Y-53777522D01*
X66167544Y-53786976D01*
X66167542Y-53786976D01*
X66167540Y-53786977D01*
X66002107Y-53851066D01*
X65977363Y-53860652D01*
X65977358Y-53860654D01*
X65977358Y-53860655D01*
X65803958Y-53968019D01*
X65803957Y-53968019D01*
X65653235Y-54105420D01*
X65653234Y-54105421D01*
X65530329Y-54268174D01*
X65530328Y-54268177D01*
X65439418Y-54450750D01*
X65439416Y-54450755D01*
X65383602Y-54646917D01*
X65383601Y-54646923D01*
X65364785Y-54849996D01*
X65364785Y-54850003D01*
X65035215Y-54850003D01*
X65035215Y-54850000D01*
X65029519Y-54788526D01*
X65016398Y-54646923D01*
X65016397Y-54646917D01*
X65015016Y-54642062D01*
X64960582Y-54450750D01*
X64869673Y-54268179D01*
X64869670Y-54268175D01*
X64869670Y-54268174D01*
X64746765Y-54105421D01*
X64746764Y-54105420D01*
X64596041Y-53968019D01*
X64559670Y-53945499D01*
X64422637Y-53860652D01*
X64232456Y-53786976D01*
X64144407Y-53770516D01*
X64031979Y-53749500D01*
X64031976Y-53749500D01*
X63828024Y-53749500D01*
X63828020Y-53749500D01*
X63678115Y-53777522D01*
X63627544Y-53786976D01*
X63627542Y-53786976D01*
X63627540Y-53786977D01*
X63462107Y-53851066D01*
X63437363Y-53860652D01*
X63437358Y-53860654D01*
X63437358Y-53860655D01*
X63263958Y-53968019D01*
X63263957Y-53968019D01*
X63113235Y-54105420D01*
X63113234Y-54105421D01*
X62990329Y-54268174D01*
X62990328Y-54268177D01*
X62990327Y-54268178D01*
X62990327Y-54268179D01*
X62934070Y-54381160D01*
X62908015Y-54433485D01*
X62871315Y-54468347D01*
X62841773Y-54474500D01*
X61686190Y-54474500D01*
X61638624Y-54457187D01*
X61633864Y-54452826D01*
X60014504Y-52833466D01*
X59993112Y-52787590D01*
X60000589Y-52748155D01*
X60015211Y-52718791D01*
X60072359Y-52517936D01*
X60091627Y-52310000D01*
X60072359Y-52102064D01*
X60015211Y-51901209D01*
X59922129Y-51714275D01*
X59922128Y-51714274D01*
X59922128Y-51714273D01*
X59922126Y-51714271D01*
X59918679Y-51709706D01*
X59796282Y-51547628D01*
X59792507Y-51544187D01*
X59689080Y-51449900D01*
X59641958Y-51406942D01*
X59631337Y-51400366D01*
X59598550Y-51380065D01*
X59464410Y-51297009D01*
X59269684Y-51221572D01*
X59179531Y-51204719D01*
X59064416Y-51183200D01*
X59064413Y-51183200D01*
X58855587Y-51183200D01*
X58855583Y-51183200D01*
X58714895Y-51209500D01*
X58650316Y-51221572D01*
X58650314Y-51221572D01*
X58650312Y-51221573D01*
X58497949Y-51280599D01*
X58455590Y-51297009D01*
X58455585Y-51297011D01*
X58455585Y-51297012D01*
X58278044Y-51406940D01*
X58123720Y-51547625D01*
X57997873Y-51714271D01*
X57997871Y-51714273D01*
X57904789Y-51901209D01*
X57904787Y-51901214D01*
X57847641Y-52102062D01*
X57847639Y-52102075D01*
X57828373Y-52309996D01*
X57828373Y-52310003D01*
X57847639Y-52517924D01*
X57847641Y-52517937D01*
X57904787Y-52718785D01*
X57904788Y-52718790D01*
X57919411Y-52748155D01*
X57925116Y-52798451D01*
X57905495Y-52833466D01*
X57566136Y-53172826D01*
X57520260Y-53194218D01*
X57513810Y-53194500D01*
X44612541Y-53194500D01*
X44564975Y-53177187D01*
X44539665Y-53133350D01*
X44548455Y-53083500D01*
X44554462Y-53075284D01*
X44554220Y-53075102D01*
X44561235Y-53065813D01*
X44682129Y-52905725D01*
X44775211Y-52718791D01*
X44832359Y-52517936D01*
X44851627Y-52310000D01*
X44832359Y-52102064D01*
X44775211Y-51901209D01*
X44682129Y-51714275D01*
X44682128Y-51714274D01*
X44682128Y-51714273D01*
X44682126Y-51714271D01*
X44678678Y-51709706D01*
X44556282Y-51547628D01*
X44556279Y-51547625D01*
X44530569Y-51524187D01*
X44507080Y-51479347D01*
X44517909Y-51429900D01*
X44557989Y-51398982D01*
X44580422Y-51395500D01*
X57663383Y-51395500D01*
X57678567Y-51397074D01*
X57694268Y-51400367D01*
X57731036Y-51395783D01*
X57735615Y-51395500D01*
X57741111Y-51395500D01*
X57741114Y-51395500D01*
X57763387Y-51391782D01*
X57764887Y-51391564D01*
X57770604Y-51390851D01*
X57818626Y-51384866D01*
X57818629Y-51384864D01*
X57824507Y-51383115D01*
X57824587Y-51383386D01*
X57827904Y-51382323D01*
X57827812Y-51382055D01*
X57833606Y-51380065D01*
X57833610Y-51380065D01*
X57881235Y-51354290D01*
X57882535Y-51353622D01*
X57931211Y-51329826D01*
X57931213Y-51329823D01*
X57936204Y-51326261D01*
X57936369Y-51326493D01*
X57939158Y-51324414D01*
X57938983Y-51324189D01*
X57943824Y-51320420D01*
X57943823Y-51320420D01*
X57943826Y-51320419D01*
X57980512Y-51280565D01*
X57981517Y-51279518D01*
X58437680Y-50823355D01*
X58483555Y-50801964D01*
X58516735Y-50806678D01*
X58650316Y-50858428D01*
X58855587Y-50896800D01*
X59064413Y-50896800D01*
X59269684Y-50858428D01*
X59403263Y-50806678D01*
X59453869Y-50805640D01*
X59482319Y-50823356D01*
X61201518Y-52542555D01*
X61211142Y-52554406D01*
X61219915Y-52567834D01*
X61219918Y-52567838D01*
X61249154Y-52590594D01*
X61252591Y-52593628D01*
X61256484Y-52597521D01*
X61274858Y-52610639D01*
X61276085Y-52611554D01*
X61279760Y-52614414D01*
X61318811Y-52644809D01*
X61318812Y-52644809D01*
X61318813Y-52644810D01*
X61324206Y-52647729D01*
X61324071Y-52647977D01*
X61327170Y-52649572D01*
X61327295Y-52649318D01*
X61332799Y-52652009D01*
X61332800Y-52652009D01*
X61332801Y-52652010D01*
X61361294Y-52660492D01*
X61384675Y-52667454D01*
X61386107Y-52667912D01*
X61402053Y-52673386D01*
X61437338Y-52685500D01*
X61443385Y-52686509D01*
X61443338Y-52686785D01*
X61446792Y-52687289D01*
X61446827Y-52687009D01*
X61452904Y-52687766D01*
X61452911Y-52687768D01*
X61485910Y-52686403D01*
X61506996Y-52685532D01*
X61508524Y-52685500D01*
X62841773Y-52685500D01*
X62889339Y-52702813D01*
X62908014Y-52726514D01*
X62990327Y-52891821D01*
X62990328Y-52891822D01*
X62990329Y-52891825D01*
X63113234Y-53054578D01*
X63113235Y-53054579D01*
X63228986Y-53160099D01*
X63263959Y-53191981D01*
X63437363Y-53299348D01*
X63627544Y-53373024D01*
X63828024Y-53410500D01*
X63828026Y-53410500D01*
X64031974Y-53410500D01*
X64031976Y-53410500D01*
X64232456Y-53373024D01*
X64422637Y-53299348D01*
X64596041Y-53191981D01*
X64746764Y-53054579D01*
X64869673Y-52891821D01*
X64960582Y-52709250D01*
X65016397Y-52513083D01*
X65028728Y-52380015D01*
X65035215Y-52310003D01*
X65364785Y-52310003D01*
X65383601Y-52513076D01*
X65383602Y-52513082D01*
X65434045Y-52690366D01*
X65439418Y-52709250D01*
X65530327Y-52891821D01*
X65530328Y-52891822D01*
X65530329Y-52891825D01*
X65653234Y-53054578D01*
X65653235Y-53054579D01*
X65768986Y-53160099D01*
X65803959Y-53191981D01*
X65977363Y-53299348D01*
X66167544Y-53373024D01*
X66368024Y-53410500D01*
X66368026Y-53410500D01*
X66571974Y-53410500D01*
X66571976Y-53410500D01*
X66772456Y-53373024D01*
X66962637Y-53299348D01*
X67136041Y-53191981D01*
X67286764Y-53054579D01*
X67409673Y-52891821D01*
X67500582Y-52709250D01*
X67556397Y-52513083D01*
X67568728Y-52380015D01*
X67575215Y-52310003D01*
X67575215Y-52309996D01*
X67556398Y-52106923D01*
X67556397Y-52106917D01*
X67555016Y-52102062D01*
X67500582Y-51910750D01*
X67409673Y-51728179D01*
X67409670Y-51728175D01*
X67409670Y-51728174D01*
X67286765Y-51565421D01*
X67286764Y-51565420D01*
X67136041Y-51428019D01*
X67121446Y-51418982D01*
X66962637Y-51320652D01*
X66772456Y-51246976D01*
X66684407Y-51230516D01*
X66571979Y-51209500D01*
X66571976Y-51209500D01*
X66368024Y-51209500D01*
X66368020Y-51209500D01*
X66218115Y-51237522D01*
X66167544Y-51246976D01*
X66167542Y-51246976D01*
X66167540Y-51246977D01*
X66002105Y-51311067D01*
X65977363Y-51320652D01*
X65977358Y-51320654D01*
X65977358Y-51320655D01*
X65803958Y-51428019D01*
X65803957Y-51428019D01*
X65653235Y-51565420D01*
X65653234Y-51565421D01*
X65530329Y-51728174D01*
X65530328Y-51728177D01*
X65439418Y-51910750D01*
X65439416Y-51910755D01*
X65383602Y-52106917D01*
X65383601Y-52106923D01*
X65364785Y-52309996D01*
X65364785Y-52310003D01*
X65035215Y-52310003D01*
X65035215Y-52309996D01*
X65016398Y-52106923D01*
X65016397Y-52106917D01*
X65015016Y-52102062D01*
X64960582Y-51910750D01*
X64869673Y-51728179D01*
X64869670Y-51728175D01*
X64869670Y-51728174D01*
X64746765Y-51565421D01*
X64746764Y-51565420D01*
X64596041Y-51428019D01*
X64581446Y-51418982D01*
X64422637Y-51320652D01*
X64232456Y-51246976D01*
X64144407Y-51230516D01*
X64031979Y-51209500D01*
X64031976Y-51209500D01*
X63828024Y-51209500D01*
X63828020Y-51209500D01*
X63678115Y-51237522D01*
X63627544Y-51246976D01*
X63627542Y-51246976D01*
X63627540Y-51246977D01*
X63462105Y-51311067D01*
X63437363Y-51320652D01*
X63437358Y-51320654D01*
X63437358Y-51320655D01*
X63263958Y-51428019D01*
X63263957Y-51428019D01*
X63113235Y-51565420D01*
X63113234Y-51565421D01*
X62990329Y-51728174D01*
X62990328Y-51728177D01*
X62990327Y-51728178D01*
X62990327Y-51728179D01*
X62934070Y-51841160D01*
X62908015Y-51893485D01*
X62871315Y-51928347D01*
X62841773Y-51934500D01*
X61686190Y-51934500D01*
X61638624Y-51917187D01*
X61633864Y-51912826D01*
X60014504Y-50293466D01*
X59993112Y-50247590D01*
X60000589Y-50208155D01*
X60015211Y-50178791D01*
X60072359Y-49977936D01*
X60091627Y-49770000D01*
X60072359Y-49562064D01*
X60015211Y-49361209D01*
X59922129Y-49174275D01*
X59922128Y-49174274D01*
X59922128Y-49174273D01*
X59922126Y-49174271D01*
X59918678Y-49169706D01*
X59796282Y-49007628D01*
X59792507Y-49004187D01*
X59689080Y-48909900D01*
X59641958Y-48866942D01*
X59639627Y-48865499D01*
X59571976Y-48823611D01*
X59464410Y-48757009D01*
X59269684Y-48681572D01*
X59179531Y-48664719D01*
X59064416Y-48643200D01*
X59064413Y-48643200D01*
X58855587Y-48643200D01*
X58855583Y-48643200D01*
X58714895Y-48669500D01*
X58650316Y-48681572D01*
X58650314Y-48681572D01*
X58650312Y-48681573D01*
X58507314Y-48736971D01*
X58455590Y-48757009D01*
X58455585Y-48757011D01*
X58455585Y-48757012D01*
X58278044Y-48866940D01*
X58123720Y-49007625D01*
X57997873Y-49174271D01*
X57997871Y-49174273D01*
X57904789Y-49361209D01*
X57904787Y-49361214D01*
X57847641Y-49562062D01*
X57847639Y-49562075D01*
X57828373Y-49769996D01*
X57828373Y-49770003D01*
X57847639Y-49977924D01*
X57847641Y-49977937D01*
X57904787Y-50178785D01*
X57904788Y-50178790D01*
X57919411Y-50208155D01*
X57925116Y-50258451D01*
X57905495Y-50293466D01*
X57576136Y-50622826D01*
X57530260Y-50644218D01*
X57523810Y-50644500D01*
X44620218Y-50644500D01*
X44572652Y-50627187D01*
X44547342Y-50583350D01*
X44556132Y-50533500D01*
X44561160Y-50525912D01*
X44682129Y-50365725D01*
X44775211Y-50178791D01*
X44832359Y-49977936D01*
X44851627Y-49770000D01*
X44832359Y-49562064D01*
X44775211Y-49361209D01*
X44682129Y-49174275D01*
X44682128Y-49174274D01*
X44682128Y-49174273D01*
X44682126Y-49174271D01*
X44556279Y-49007624D01*
X44541538Y-48994186D01*
X44518050Y-48949346D01*
X44528880Y-48899899D01*
X44568960Y-48868982D01*
X44591392Y-48865500D01*
X57653383Y-48865500D01*
X57668567Y-48867074D01*
X57684268Y-48870367D01*
X57721036Y-48865783D01*
X57725615Y-48865500D01*
X57731111Y-48865500D01*
X57731114Y-48865500D01*
X57753387Y-48861782D01*
X57754887Y-48861564D01*
X57760604Y-48860851D01*
X57808626Y-48854866D01*
X57808629Y-48854864D01*
X57814507Y-48853115D01*
X57814587Y-48853386D01*
X57817904Y-48852323D01*
X57817812Y-48852055D01*
X57823606Y-48850065D01*
X57823610Y-48850065D01*
X57871235Y-48824290D01*
X57872535Y-48823622D01*
X57921211Y-48799826D01*
X57921213Y-48799823D01*
X57926204Y-48796261D01*
X57926369Y-48796493D01*
X57929158Y-48794414D01*
X57928983Y-48794189D01*
X57933821Y-48790422D01*
X57933821Y-48790421D01*
X57933826Y-48790419D01*
X57970535Y-48750541D01*
X57971517Y-48749518D01*
X58437680Y-48283355D01*
X58483555Y-48261964D01*
X58516735Y-48266678D01*
X58650316Y-48318428D01*
X58855587Y-48356800D01*
X59064413Y-48356800D01*
X59269684Y-48318428D01*
X59403263Y-48266678D01*
X59453869Y-48265640D01*
X59482319Y-48283356D01*
X61201518Y-50002555D01*
X61211142Y-50014406D01*
X61219915Y-50027834D01*
X61219918Y-50027838D01*
X61249154Y-50050594D01*
X61252591Y-50053628D01*
X61256484Y-50057521D01*
X61274858Y-50070639D01*
X61276085Y-50071554D01*
X61279760Y-50074414D01*
X61318811Y-50104809D01*
X61318812Y-50104809D01*
X61318813Y-50104810D01*
X61324206Y-50107729D01*
X61324071Y-50107977D01*
X61327170Y-50109572D01*
X61327295Y-50109318D01*
X61332799Y-50112009D01*
X61332800Y-50112009D01*
X61332801Y-50112010D01*
X61361294Y-50120492D01*
X61384675Y-50127454D01*
X61386107Y-50127912D01*
X61402053Y-50133386D01*
X61437338Y-50145500D01*
X61443385Y-50146509D01*
X61443338Y-50146785D01*
X61446792Y-50147289D01*
X61446827Y-50147009D01*
X61452904Y-50147766D01*
X61452911Y-50147768D01*
X61485910Y-50146403D01*
X61506996Y-50145532D01*
X61508524Y-50145500D01*
X62841773Y-50145500D01*
X62889339Y-50162813D01*
X62908014Y-50186514D01*
X62990327Y-50351821D01*
X62990328Y-50351822D01*
X62990329Y-50351825D01*
X63113234Y-50514578D01*
X63113235Y-50514579D01*
X63188674Y-50583350D01*
X63263959Y-50651981D01*
X63437363Y-50759348D01*
X63627544Y-50833024D01*
X63828024Y-50870500D01*
X63828026Y-50870500D01*
X64031974Y-50870500D01*
X64031976Y-50870500D01*
X64232456Y-50833024D01*
X64422637Y-50759348D01*
X64596041Y-50651981D01*
X64746764Y-50514579D01*
X64869673Y-50351821D01*
X64960582Y-50169250D01*
X65016397Y-49973083D01*
X65035215Y-49770003D01*
X65364785Y-49770003D01*
X65383601Y-49973076D01*
X65383602Y-49973082D01*
X65434045Y-50150366D01*
X65439418Y-50169250D01*
X65530327Y-50351821D01*
X65530328Y-50351822D01*
X65530329Y-50351825D01*
X65653234Y-50514578D01*
X65653235Y-50514579D01*
X65728674Y-50583350D01*
X65803959Y-50651981D01*
X65977363Y-50759348D01*
X66167544Y-50833024D01*
X66368024Y-50870500D01*
X66368026Y-50870500D01*
X66571974Y-50870500D01*
X66571976Y-50870500D01*
X66772456Y-50833024D01*
X66962637Y-50759348D01*
X67136041Y-50651981D01*
X67286764Y-50514579D01*
X67409673Y-50351821D01*
X67500582Y-50169250D01*
X67556397Y-49973083D01*
X67575215Y-49770000D01*
X67569519Y-49708526D01*
X67556398Y-49566923D01*
X67556397Y-49566917D01*
X67555016Y-49562062D01*
X67500582Y-49370750D01*
X67409673Y-49188179D01*
X67409670Y-49188175D01*
X67409670Y-49188174D01*
X67286765Y-49025421D01*
X67286764Y-49025420D01*
X67136041Y-48888019D01*
X67121446Y-48878982D01*
X66962637Y-48780652D01*
X66772456Y-48706976D01*
X66684407Y-48690516D01*
X66571979Y-48669500D01*
X66571976Y-48669500D01*
X66368024Y-48669500D01*
X66368020Y-48669500D01*
X66218115Y-48697522D01*
X66167544Y-48706976D01*
X66167542Y-48706976D01*
X66167540Y-48706977D01*
X66002105Y-48771067D01*
X65977363Y-48780652D01*
X65977358Y-48780654D01*
X65977358Y-48780655D01*
X65803958Y-48888019D01*
X65803957Y-48888019D01*
X65653235Y-49025420D01*
X65653234Y-49025421D01*
X65530329Y-49188174D01*
X65530328Y-49188177D01*
X65439418Y-49370750D01*
X65439416Y-49370755D01*
X65383602Y-49566917D01*
X65383601Y-49566923D01*
X65364785Y-49769996D01*
X65364785Y-49770003D01*
X65035215Y-49770003D01*
X65035215Y-49770000D01*
X65029519Y-49708526D01*
X65016398Y-49566923D01*
X65016397Y-49566917D01*
X65015016Y-49562062D01*
X64960582Y-49370750D01*
X64869673Y-49188179D01*
X64869670Y-49188175D01*
X64869670Y-49188174D01*
X64746765Y-49025421D01*
X64746764Y-49025420D01*
X64596041Y-48888019D01*
X64581446Y-48878982D01*
X64422637Y-48780652D01*
X64232456Y-48706976D01*
X64144407Y-48690516D01*
X64031979Y-48669500D01*
X64031976Y-48669500D01*
X63828024Y-48669500D01*
X63828020Y-48669500D01*
X63678115Y-48697522D01*
X63627544Y-48706976D01*
X63627542Y-48706976D01*
X63627540Y-48706977D01*
X63462105Y-48771067D01*
X63437363Y-48780652D01*
X63437358Y-48780654D01*
X63437358Y-48780655D01*
X63263958Y-48888019D01*
X63263957Y-48888019D01*
X63113235Y-49025420D01*
X63113234Y-49025421D01*
X62990329Y-49188174D01*
X62990328Y-49188177D01*
X62990327Y-49188178D01*
X62990327Y-49188179D01*
X62934070Y-49301160D01*
X62908015Y-49353485D01*
X62871315Y-49388347D01*
X62841773Y-49394500D01*
X61686190Y-49394500D01*
X61638624Y-49377187D01*
X61633864Y-49372826D01*
X60014504Y-47753466D01*
X59993112Y-47707590D01*
X60000589Y-47668155D01*
X60015211Y-47638791D01*
X60072359Y-47437936D01*
X60091627Y-47230000D01*
X60072359Y-47022064D01*
X60015211Y-46821209D01*
X59922129Y-46634275D01*
X59922128Y-46634274D01*
X59922128Y-46634273D01*
X59922126Y-46634271D01*
X59918679Y-46629706D01*
X59796282Y-46467628D01*
X59792507Y-46464187D01*
X59689080Y-46369900D01*
X59641958Y-46326942D01*
X59639627Y-46325499D01*
X59571976Y-46283611D01*
X59464410Y-46217009D01*
X59269684Y-46141572D01*
X59179531Y-46124719D01*
X59064416Y-46103200D01*
X59064413Y-46103200D01*
X58855587Y-46103200D01*
X58855583Y-46103200D01*
X58714895Y-46129500D01*
X58650316Y-46141572D01*
X58650314Y-46141572D01*
X58650312Y-46141573D01*
X58507314Y-46196971D01*
X58455590Y-46217009D01*
X58455585Y-46217011D01*
X58455585Y-46217012D01*
X58278044Y-46326940D01*
X58123720Y-46467625D01*
X57997873Y-46634271D01*
X57997871Y-46634273D01*
X57904789Y-46821209D01*
X57904787Y-46821214D01*
X57847641Y-47022062D01*
X57847639Y-47022075D01*
X57828373Y-47229996D01*
X57828373Y-47230003D01*
X57847639Y-47437924D01*
X57847641Y-47437937D01*
X57904787Y-47638785D01*
X57904788Y-47638790D01*
X57919411Y-47668155D01*
X57925116Y-47718451D01*
X57905495Y-47753466D01*
X57566136Y-48092826D01*
X57520260Y-48114218D01*
X57513810Y-48114500D01*
X44612541Y-48114500D01*
X44564975Y-48097187D01*
X44539665Y-48053350D01*
X44548455Y-48003500D01*
X44554462Y-47995284D01*
X44554220Y-47995102D01*
X44556282Y-47992372D01*
X44682129Y-47825725D01*
X44775211Y-47638791D01*
X44832359Y-47437936D01*
X44851627Y-47230000D01*
X44832359Y-47022064D01*
X44775211Y-46821209D01*
X44682129Y-46634275D01*
X44682128Y-46634274D01*
X44682128Y-46634273D01*
X44682126Y-46634271D01*
X44556279Y-46467624D01*
X44541538Y-46454186D01*
X44518050Y-46409346D01*
X44528880Y-46359899D01*
X44568960Y-46328982D01*
X44591392Y-46325500D01*
X57653383Y-46325500D01*
X57668567Y-46327074D01*
X57684268Y-46330367D01*
X57721036Y-46325783D01*
X57725615Y-46325500D01*
X57731111Y-46325500D01*
X57731114Y-46325500D01*
X57753387Y-46321782D01*
X57754887Y-46321564D01*
X57760604Y-46320851D01*
X57808626Y-46314866D01*
X57808629Y-46314864D01*
X57814507Y-46313115D01*
X57814587Y-46313386D01*
X57817904Y-46312323D01*
X57817812Y-46312055D01*
X57823606Y-46310065D01*
X57823610Y-46310065D01*
X57871235Y-46284290D01*
X57872535Y-46283622D01*
X57921211Y-46259826D01*
X57921213Y-46259823D01*
X57926204Y-46256261D01*
X57926369Y-46256493D01*
X57929158Y-46254414D01*
X57928983Y-46254189D01*
X57933821Y-46250422D01*
X57933821Y-46250421D01*
X57933826Y-46250419D01*
X57970535Y-46210541D01*
X57971517Y-46209518D01*
X58437680Y-45743355D01*
X58483555Y-45721964D01*
X58516735Y-45726678D01*
X58650316Y-45778428D01*
X58855587Y-45816800D01*
X59064413Y-45816800D01*
X59269684Y-45778428D01*
X59403263Y-45726678D01*
X59453869Y-45725640D01*
X59482319Y-45743356D01*
X61201518Y-47462555D01*
X61211142Y-47474406D01*
X61219915Y-47487834D01*
X61219918Y-47487838D01*
X61249154Y-47510594D01*
X61252591Y-47513628D01*
X61256484Y-47517521D01*
X61274858Y-47530639D01*
X61276085Y-47531554D01*
X61279760Y-47534414D01*
X61318811Y-47564809D01*
X61318812Y-47564809D01*
X61318813Y-47564810D01*
X61324206Y-47567729D01*
X61324071Y-47567977D01*
X61327170Y-47569572D01*
X61327295Y-47569318D01*
X61332799Y-47572009D01*
X61332800Y-47572009D01*
X61332801Y-47572010D01*
X61361294Y-47580492D01*
X61384675Y-47587454D01*
X61386107Y-47587912D01*
X61402053Y-47593386D01*
X61437338Y-47605500D01*
X61443385Y-47606509D01*
X61443338Y-47606785D01*
X61446792Y-47607289D01*
X61446827Y-47607009D01*
X61452904Y-47607766D01*
X61452911Y-47607768D01*
X61485910Y-47606403D01*
X61506996Y-47605532D01*
X61508524Y-47605500D01*
X62841773Y-47605500D01*
X62889339Y-47622813D01*
X62908014Y-47646514D01*
X62990327Y-47811821D01*
X62990328Y-47811822D01*
X62990329Y-47811825D01*
X63113234Y-47974578D01*
X63113235Y-47974579D01*
X63210613Y-48063350D01*
X63263959Y-48111981D01*
X63437363Y-48219348D01*
X63627544Y-48293024D01*
X63828024Y-48330500D01*
X63828026Y-48330500D01*
X64031974Y-48330500D01*
X64031976Y-48330500D01*
X64232456Y-48293024D01*
X64422637Y-48219348D01*
X64596041Y-48111981D01*
X64746764Y-47974579D01*
X64869673Y-47811821D01*
X64960582Y-47629250D01*
X65016397Y-47433083D01*
X65028728Y-47300015D01*
X65035215Y-47230003D01*
X65364785Y-47230003D01*
X65383601Y-47433076D01*
X65383602Y-47433082D01*
X65434045Y-47610366D01*
X65439418Y-47629250D01*
X65530327Y-47811821D01*
X65530328Y-47811822D01*
X65530329Y-47811825D01*
X65653234Y-47974578D01*
X65653235Y-47974579D01*
X65750613Y-48063350D01*
X65803959Y-48111981D01*
X65977363Y-48219348D01*
X66167544Y-48293024D01*
X66368024Y-48330500D01*
X66368026Y-48330500D01*
X66571974Y-48330500D01*
X66571976Y-48330500D01*
X66772456Y-48293024D01*
X66962637Y-48219348D01*
X67136041Y-48111981D01*
X67286764Y-47974579D01*
X67409673Y-47811821D01*
X67500582Y-47629250D01*
X67556397Y-47433083D01*
X67568728Y-47300015D01*
X67575215Y-47230003D01*
X67575215Y-47229996D01*
X67556398Y-47026923D01*
X67556397Y-47026917D01*
X67555016Y-47022062D01*
X67500582Y-46830750D01*
X67409673Y-46648179D01*
X67409670Y-46648175D01*
X67409670Y-46648174D01*
X67286765Y-46485421D01*
X67286764Y-46485420D01*
X67136041Y-46348019D01*
X67121446Y-46338982D01*
X66962637Y-46240652D01*
X66772456Y-46166976D01*
X66684407Y-46150516D01*
X66571979Y-46129500D01*
X66571976Y-46129500D01*
X66368024Y-46129500D01*
X66368020Y-46129500D01*
X66218115Y-46157522D01*
X66167544Y-46166976D01*
X66167542Y-46166976D01*
X66167540Y-46166977D01*
X66002105Y-46231067D01*
X65977363Y-46240652D01*
X65977358Y-46240654D01*
X65977358Y-46240655D01*
X65803958Y-46348019D01*
X65803957Y-46348019D01*
X65653235Y-46485420D01*
X65653234Y-46485421D01*
X65530329Y-46648174D01*
X65530328Y-46648177D01*
X65439418Y-46830750D01*
X65439416Y-46830755D01*
X65383602Y-47026917D01*
X65383601Y-47026923D01*
X65364785Y-47229996D01*
X65364785Y-47230003D01*
X65035215Y-47230003D01*
X65035215Y-47229996D01*
X65016398Y-47026923D01*
X65016397Y-47026917D01*
X65015016Y-47022062D01*
X64960582Y-46830750D01*
X64869673Y-46648179D01*
X64869670Y-46648175D01*
X64869670Y-46648174D01*
X64746765Y-46485421D01*
X64746764Y-46485420D01*
X64596041Y-46348019D01*
X64581446Y-46338982D01*
X64422637Y-46240652D01*
X64232456Y-46166976D01*
X64144407Y-46150516D01*
X64031979Y-46129500D01*
X64031976Y-46129500D01*
X63828024Y-46129500D01*
X63828020Y-46129500D01*
X63678115Y-46157522D01*
X63627544Y-46166976D01*
X63627542Y-46166976D01*
X63627540Y-46166977D01*
X63462105Y-46231067D01*
X63437363Y-46240652D01*
X63437358Y-46240654D01*
X63437358Y-46240655D01*
X63263958Y-46348019D01*
X63263957Y-46348019D01*
X63113235Y-46485420D01*
X63113234Y-46485421D01*
X62990329Y-46648174D01*
X62990328Y-46648177D01*
X62990327Y-46648178D01*
X62990327Y-46648179D01*
X62934070Y-46761160D01*
X62908015Y-46813485D01*
X62871315Y-46848347D01*
X62841773Y-46854500D01*
X61686190Y-46854500D01*
X61638624Y-46837187D01*
X61633864Y-46832826D01*
X60014504Y-45213466D01*
X59993112Y-45167590D01*
X60000589Y-45128155D01*
X60015211Y-45098791D01*
X60072359Y-44897936D01*
X60085165Y-44759741D01*
X60091627Y-44690003D01*
X60091627Y-44689996D01*
X60072360Y-44482075D01*
X60072359Y-44482064D01*
X60015211Y-44281209D01*
X59922129Y-44094275D01*
X59922128Y-44094274D01*
X59922128Y-44094273D01*
X59922126Y-44094271D01*
X59796279Y-43927624D01*
X59792507Y-43924186D01*
X59769019Y-43879347D01*
X59779848Y-43829900D01*
X59819928Y-43798982D01*
X59842361Y-43795500D01*
X63086675Y-43795500D01*
X63134241Y-43812813D01*
X63159551Y-43856650D01*
X63150761Y-43906500D01*
X63136530Y-43924185D01*
X63132754Y-43927628D01*
X63113233Y-43945424D01*
X62990329Y-44108174D01*
X62990328Y-44108177D01*
X62899418Y-44290750D01*
X62899416Y-44290755D01*
X62843602Y-44486917D01*
X62843601Y-44486923D01*
X62824785Y-44689996D01*
X62824785Y-44690003D01*
X62843601Y-44893076D01*
X62843602Y-44893082D01*
X62899416Y-45089244D01*
X62899418Y-45089250D01*
X62990327Y-45271821D01*
X62990328Y-45271822D01*
X62990329Y-45271825D01*
X63113234Y-45434578D01*
X63113235Y-45434579D01*
X63228903Y-45540023D01*
X63263959Y-45571981D01*
X63437363Y-45679348D01*
X63627544Y-45753024D01*
X63828024Y-45790500D01*
X63828026Y-45790500D01*
X64031974Y-45790500D01*
X64031976Y-45790500D01*
X64232456Y-45753024D01*
X64422637Y-45679348D01*
X64596041Y-45571981D01*
X64746764Y-45434579D01*
X64869673Y-45271821D01*
X64960582Y-45089250D01*
X65016397Y-44893083D01*
X65024933Y-44800970D01*
X65035215Y-44690003D01*
X65035215Y-44689996D01*
X65016398Y-44486923D01*
X65016397Y-44486917D01*
X64960583Y-44290755D01*
X64960582Y-44290750D01*
X64869673Y-44108179D01*
X64869670Y-44108175D01*
X64869670Y-44108174D01*
X64746766Y-43945424D01*
X64746764Y-43945421D01*
X64723470Y-43924186D01*
X64699983Y-43879347D01*
X64710812Y-43829900D01*
X64750892Y-43798982D01*
X64773325Y-43795500D01*
X65013811Y-43795500D01*
X65061377Y-43812813D01*
X65066137Y-43817174D01*
X65435108Y-44186145D01*
X65456500Y-44232021D01*
X65449026Y-44271451D01*
X65439417Y-44290750D01*
X65439416Y-44290752D01*
X65383602Y-44486917D01*
X65383601Y-44486923D01*
X65364785Y-44689996D01*
X65364785Y-44690003D01*
X65383601Y-44893076D01*
X65383602Y-44893082D01*
X65439416Y-45089244D01*
X65439418Y-45089250D01*
X65530327Y-45271821D01*
X65530328Y-45271822D01*
X65530329Y-45271825D01*
X65653234Y-45434578D01*
X65653235Y-45434579D01*
X65768903Y-45540023D01*
X65803959Y-45571981D01*
X65977363Y-45679348D01*
X66167544Y-45753024D01*
X66368024Y-45790500D01*
X66368026Y-45790500D01*
X66571974Y-45790500D01*
X66571976Y-45790500D01*
X66772456Y-45753024D01*
X66962637Y-45679348D01*
X67136041Y-45571981D01*
X67286764Y-45434579D01*
X67409673Y-45271821D01*
X67500582Y-45089250D01*
X67556397Y-44893083D01*
X67564933Y-44800970D01*
X67575215Y-44690003D01*
X67575215Y-44689996D01*
X67556398Y-44486923D01*
X67556397Y-44486917D01*
X67500583Y-44290755D01*
X67500582Y-44290750D01*
X67409673Y-44108179D01*
X67409670Y-44108175D01*
X67409670Y-44108174D01*
X67286765Y-43945421D01*
X67286764Y-43945420D01*
X67136041Y-43808019D01*
X67102000Y-43786942D01*
X66962637Y-43700652D01*
X66796986Y-43636479D01*
X66772459Y-43626977D01*
X66772458Y-43626976D01*
X66772456Y-43626976D01*
X66684407Y-43610516D01*
X66571979Y-43589500D01*
X66571976Y-43589500D01*
X66368024Y-43589500D01*
X66368020Y-43589500D01*
X66231145Y-43615087D01*
X66167544Y-43626976D01*
X66167542Y-43626976D01*
X66167540Y-43626977D01*
X66047065Y-43673648D01*
X65996457Y-43674687D01*
X65968008Y-43656971D01*
X65498479Y-43187441D01*
X65488853Y-43175586D01*
X65480086Y-43162166D01*
X65480083Y-43162163D01*
X65450853Y-43139412D01*
X65447415Y-43136377D01*
X65443518Y-43132480D01*
X65434004Y-43125687D01*
X65425123Y-43119346D01*
X65423897Y-43118432D01*
X65409864Y-43107510D01*
X65381189Y-43085191D01*
X65381186Y-43085190D01*
X65381185Y-43085189D01*
X65375795Y-43082272D01*
X65375928Y-43082024D01*
X65372829Y-43080429D01*
X65372706Y-43080682D01*
X65367201Y-43077990D01*
X65315347Y-43062552D01*
X65313892Y-43062086D01*
X65262661Y-43044499D01*
X65256615Y-43043491D01*
X65256661Y-43043214D01*
X65253206Y-43042710D01*
X65253172Y-43042991D01*
X65247089Y-43042232D01*
X65247088Y-43042232D01*
X65247086Y-43042232D01*
X65193003Y-43044468D01*
X65191475Y-43044500D01*
X62338032Y-43044500D01*
X62290466Y-43027187D01*
X62265156Y-42983350D01*
X62273946Y-42933500D01*
X62312723Y-42900963D01*
X62316551Y-42899687D01*
X62483337Y-42849092D01*
X62483337Y-42849091D01*
X62483340Y-42849091D01*
X62663751Y-42752659D01*
X62821884Y-42622884D01*
X62951659Y-42464751D01*
X63048091Y-42284340D01*
X63107474Y-42088582D01*
X63122500Y-41936020D01*
X63122500Y-41608000D01*
X63139813Y-41560434D01*
X63183650Y-41535124D01*
X63196500Y-41534000D01*
X65577500Y-41534000D01*
X65625066Y-41551313D01*
X65650376Y-41595150D01*
X65651500Y-41608000D01*
X65651500Y-41941018D01*
X65666526Y-42093583D01*
X65684540Y-42152965D01*
X65725909Y-42289340D01*
X65822341Y-42469751D01*
X65822343Y-42469754D01*
X65822346Y-42469758D01*
X65952115Y-42627883D01*
X65952116Y-42627884D01*
X66110241Y-42757653D01*
X66110243Y-42757654D01*
X66110249Y-42757659D01*
X66290660Y-42854091D01*
X66486418Y-42913474D01*
X66690000Y-42933525D01*
X66893582Y-42913474D01*
X67089340Y-42854091D01*
X67269751Y-42757659D01*
X67427884Y-42627884D01*
X67557659Y-42469751D01*
X67654091Y-42289340D01*
X67713474Y-42093582D01*
X67728500Y-41941020D01*
X67728500Y-40385980D01*
X67713474Y-40233418D01*
X67654091Y-40037660D01*
X67557659Y-39857249D01*
X67557654Y-39857243D01*
X67557653Y-39857241D01*
X67427884Y-39699116D01*
X67427883Y-39699115D01*
X67269758Y-39569346D01*
X67269754Y-39569343D01*
X67269751Y-39569341D01*
X67089340Y-39472909D01*
X66952965Y-39431540D01*
X66893583Y-39413526D01*
X66690000Y-39393475D01*
X66486416Y-39413526D01*
X66367649Y-39449554D01*
X66290660Y-39472909D01*
X66168757Y-39538068D01*
X66110251Y-39569340D01*
X66110241Y-39569346D01*
X65952116Y-39699115D01*
X65952115Y-39699116D01*
X65822346Y-39857241D01*
X65822340Y-39857251D01*
X65728582Y-40032660D01*
X65725909Y-40037660D01*
X65705842Y-40103811D01*
X65666526Y-40233416D01*
X65666525Y-40233418D01*
X65666526Y-40233418D01*
X65651993Y-40380980D01*
X65651500Y-40385981D01*
X65651500Y-40709000D01*
X65634187Y-40756566D01*
X65590350Y-40781876D01*
X65577500Y-40783000D01*
X63196500Y-40783000D01*
X63148934Y-40765687D01*
X63123624Y-40721850D01*
X63122500Y-40709000D01*
X63122500Y-40545694D01*
X63122500Y-40380980D01*
X63107474Y-40228418D01*
X63048091Y-40032660D01*
X62951659Y-39852249D01*
X62951654Y-39852243D01*
X62951653Y-39852241D01*
X62821884Y-39694116D01*
X62821883Y-39694115D01*
X62663758Y-39564346D01*
X62663754Y-39564343D01*
X62663751Y-39564341D01*
X62483340Y-39467909D01*
X62304065Y-39413526D01*
X62287583Y-39408526D01*
X62084000Y-39388475D01*
X61880416Y-39408526D01*
X61771843Y-39441462D01*
X61684660Y-39467909D01*
X61684658Y-39467909D01*
X61684658Y-39467910D01*
X61504251Y-39564340D01*
X61504241Y-39564346D01*
X61346116Y-39694115D01*
X61346115Y-39694116D01*
X61216346Y-39852241D01*
X61216341Y-39852248D01*
X61216341Y-39852249D01*
X61119909Y-40032660D01*
X61115209Y-40048155D01*
X61060526Y-40228416D01*
X61045499Y-40380981D01*
X61045499Y-41641310D01*
X61028186Y-41688876D01*
X61023825Y-41693635D01*
X60964636Y-41752825D01*
X60918760Y-41774218D01*
X60912310Y-41774500D01*
X60160800Y-41774500D01*
X60113234Y-41757187D01*
X60087924Y-41713350D01*
X60086800Y-41700500D01*
X60086800Y-41249027D01*
X60086800Y-41249026D01*
X60072266Y-41175960D01*
X60016901Y-41093099D01*
X59934040Y-41037734D01*
X59860974Y-41023200D01*
X59860972Y-41023200D01*
X58256489Y-41023200D01*
X58208923Y-41005887D01*
X58183613Y-40962050D01*
X58192403Y-40912200D01*
X58204163Y-40896874D01*
X58379186Y-40721850D01*
X58437681Y-40663355D01*
X58483555Y-40641964D01*
X58516735Y-40646678D01*
X58650316Y-40698428D01*
X58855587Y-40736800D01*
X59064413Y-40736800D01*
X59269684Y-40698428D01*
X59464410Y-40622991D01*
X59641958Y-40513058D01*
X59796282Y-40372372D01*
X59922129Y-40205725D01*
X60015211Y-40018791D01*
X60072359Y-39817936D01*
X60083833Y-39694115D01*
X60091627Y-39610003D01*
X60091627Y-39609996D01*
X60072360Y-39402075D01*
X60072359Y-39402064D01*
X60015211Y-39201209D01*
X59922129Y-39014275D01*
X59922128Y-39014274D01*
X59922128Y-39014273D01*
X59922126Y-39014271D01*
X59910006Y-38998222D01*
X59852692Y-38922326D01*
X63735624Y-38922326D01*
X63745943Y-39086356D01*
X63745944Y-39086362D01*
X63796729Y-39242665D01*
X63796733Y-39242673D01*
X63884794Y-39381435D01*
X63884796Y-39381437D01*
X63884798Y-39381440D01*
X64004607Y-39493948D01*
X64148632Y-39573127D01*
X64307823Y-39614000D01*
X64307826Y-39614000D01*
X64430924Y-39614000D01*
X64430925Y-39614000D01*
X64470428Y-39609009D01*
X64553052Y-39598572D01*
X64553052Y-39598571D01*
X64553058Y-39598571D01*
X64705871Y-39538068D01*
X64838837Y-39441463D01*
X64943600Y-39314826D01*
X65013579Y-39166113D01*
X65023102Y-39116193D01*
X65044376Y-39004672D01*
X65044376Y-39004670D01*
X65043970Y-38998222D01*
X65034056Y-38840640D01*
X65012246Y-38773516D01*
X64983270Y-38684334D01*
X64983266Y-38684326D01*
X64895205Y-38545564D01*
X64895203Y-38545562D01*
X64895202Y-38545560D01*
X64775393Y-38433052D01*
X64775392Y-38433051D01*
X64631368Y-38353873D01*
X64631369Y-38353873D01*
X64472181Y-38313001D01*
X64472180Y-38313000D01*
X64472177Y-38313000D01*
X64349075Y-38313000D01*
X64349067Y-38313000D01*
X64226947Y-38328427D01*
X64074131Y-38388931D01*
X64074130Y-38388931D01*
X64074129Y-38388932D01*
X64023059Y-38426036D01*
X63941162Y-38485537D01*
X63836402Y-38612169D01*
X63836397Y-38612178D01*
X63766421Y-38760884D01*
X63766419Y-38760891D01*
X63735624Y-38922326D01*
X59852692Y-38922326D01*
X59796282Y-38847628D01*
X59788613Y-38840637D01*
X59751374Y-38806689D01*
X59641958Y-38706942D01*
X59464410Y-38597009D01*
X59269684Y-38521572D01*
X59179531Y-38504719D01*
X59064416Y-38483200D01*
X59064413Y-38483200D01*
X58855587Y-38483200D01*
X58855583Y-38483200D01*
X58702095Y-38511892D01*
X58650316Y-38521572D01*
X58650314Y-38521572D01*
X58650312Y-38521573D01*
X58455595Y-38597007D01*
X58455590Y-38597009D01*
X58455585Y-38597011D01*
X58455585Y-38597012D01*
X58278044Y-38706940D01*
X58123720Y-38847625D01*
X57997873Y-39014271D01*
X57997871Y-39014273D01*
X57904789Y-39201209D01*
X57904787Y-39201214D01*
X57847641Y-39402062D01*
X57847639Y-39402075D01*
X57828373Y-39609996D01*
X57828373Y-39610003D01*
X57847639Y-39817924D01*
X57847641Y-39817937D01*
X57904787Y-40018785D01*
X57904788Y-40018790D01*
X57919411Y-40048155D01*
X57925116Y-40098451D01*
X57905495Y-40133466D01*
X57556136Y-40482826D01*
X57510260Y-40504218D01*
X57503810Y-40504500D01*
X44818185Y-40504500D01*
X44770619Y-40487187D01*
X44745309Y-40443350D01*
X44754099Y-40393500D01*
X44754857Y-40392217D01*
X44758627Y-40385981D01*
X44790742Y-40332857D01*
X44840495Y-40173194D01*
X44846800Y-40103811D01*
X44846799Y-39116190D01*
X44841443Y-39057243D01*
X44854380Y-39008307D01*
X44862807Y-38998228D01*
X46393862Y-37467174D01*
X46439740Y-37445782D01*
X46446189Y-37445500D01*
X57759201Y-37445500D01*
X57806767Y-37462813D01*
X57832077Y-37506650D01*
X57833201Y-37519500D01*
X57833201Y-37563819D01*
X57839504Y-37633188D01*
X57839506Y-37633198D01*
X57889255Y-37792851D01*
X57889257Y-37792854D01*
X57889258Y-37792857D01*
X57975775Y-37935973D01*
X58094027Y-38054225D01*
X58237143Y-38140742D01*
X58237146Y-38140743D01*
X58237148Y-38140744D01*
X58293893Y-38158426D01*
X58396806Y-38190495D01*
X58466189Y-38196800D01*
X59453810Y-38196799D01*
X59523194Y-38190495D01*
X59682857Y-38140742D01*
X59825973Y-38054225D01*
X59944225Y-37935973D01*
X60030742Y-37792857D01*
X60080495Y-37633194D01*
X60086800Y-37563811D01*
X60086799Y-37035999D01*
X60104112Y-36988434D01*
X60147949Y-36963124D01*
X60160799Y-36962000D01*
X61051823Y-36962000D01*
X61099389Y-36979313D01*
X61122429Y-37013847D01*
X61159838Y-37133082D01*
X61159840Y-37133087D01*
X61159841Y-37133088D01*
X61258591Y-37311002D01*
X61391134Y-37465395D01*
X61391138Y-37465398D01*
X61391140Y-37465400D01*
X61408440Y-37478791D01*
X61552042Y-37589948D01*
X61734729Y-37679560D01*
X61931715Y-37730563D01*
X62134936Y-37740869D01*
X62336071Y-37710056D01*
X62526887Y-37639386D01*
X62699571Y-37531752D01*
X62847053Y-37391559D01*
X62963295Y-37224549D01*
X63043540Y-37037558D01*
X63043861Y-37036000D01*
X63051648Y-36998105D01*
X63078181Y-36954997D01*
X63124133Y-36939000D01*
X65657823Y-36939000D01*
X65705389Y-36956313D01*
X65728429Y-36990847D01*
X65765838Y-37110082D01*
X65765840Y-37110087D01*
X65778606Y-37133087D01*
X65864591Y-37288002D01*
X65997134Y-37442395D01*
X65997138Y-37442398D01*
X65997140Y-37442400D01*
X66044152Y-37478790D01*
X66158042Y-37566948D01*
X66340729Y-37656560D01*
X66537715Y-37707563D01*
X66740936Y-37717869D01*
X66942071Y-37687056D01*
X67132887Y-37616386D01*
X67305571Y-37508752D01*
X67453053Y-37368559D01*
X67569295Y-37201549D01*
X67649540Y-37014558D01*
X67690500Y-36815241D01*
X67690500Y-36362758D01*
X67684894Y-36307625D01*
X67675075Y-36211065D01*
X67675073Y-36211060D01*
X67675054Y-36211000D01*
X67635765Y-36085775D01*
X67614161Y-36016917D01*
X67614159Y-36016912D01*
X67604360Y-35999258D01*
X67515409Y-35838998D01*
X67382866Y-35684605D01*
X67382861Y-35684601D01*
X67382859Y-35684599D01*
X67251670Y-35583051D01*
X67221958Y-35560052D01*
X67039271Y-35470440D01*
X67039268Y-35470439D01*
X66954342Y-35448450D01*
X66842285Y-35419437D01*
X66842283Y-35419436D01*
X66842282Y-35419436D01*
X66639065Y-35409131D01*
X66639064Y-35409131D01*
X66437929Y-35439944D01*
X66437926Y-35439944D01*
X66437926Y-35439945D01*
X66247112Y-35510614D01*
X66074431Y-35618246D01*
X65926946Y-35758441D01*
X65810704Y-35925452D01*
X65730460Y-36112441D01*
X65730458Y-36112446D01*
X65727078Y-36128897D01*
X65700544Y-36172004D01*
X65654593Y-36188000D01*
X63108961Y-36188000D01*
X63061395Y-36170687D01*
X63038355Y-36136153D01*
X63008161Y-36039917D01*
X63008159Y-36039912D01*
X62985594Y-35999258D01*
X62909409Y-35861998D01*
X62776866Y-35707605D01*
X62776861Y-35707601D01*
X62776859Y-35707599D01*
X62691138Y-35641246D01*
X62615958Y-35583052D01*
X62433271Y-35493440D01*
X62433268Y-35493439D01*
X62344439Y-35470440D01*
X62236285Y-35442437D01*
X62236283Y-35442436D01*
X62236282Y-35442436D01*
X62033065Y-35432131D01*
X62033064Y-35432131D01*
X61831929Y-35462944D01*
X61831926Y-35462944D01*
X61831926Y-35462945D01*
X61641112Y-35533614D01*
X61468431Y-35641246D01*
X61320946Y-35781441D01*
X61204704Y-35948452D01*
X61124460Y-36135441D01*
X61124458Y-36135446D01*
X61121078Y-36151897D01*
X61094544Y-36195004D01*
X61048593Y-36211000D01*
X59981849Y-36211000D01*
X59934283Y-36193687D01*
X59929534Y-36189336D01*
X59825973Y-36085775D01*
X59682857Y-35999258D01*
X59682854Y-35999257D01*
X59682851Y-35999255D01*
X59523198Y-35949506D01*
X59523195Y-35949505D01*
X59523194Y-35949505D01*
X59523192Y-35949504D01*
X59523188Y-35949504D01*
X59453813Y-35943200D01*
X58466193Y-35943200D01*
X58466180Y-35943201D01*
X58396811Y-35949504D01*
X58396801Y-35949506D01*
X58237148Y-35999255D01*
X58094026Y-36085775D01*
X57975775Y-36204026D01*
X57889255Y-36347148D01*
X57839506Y-36506801D01*
X57839504Y-36506811D01*
X57833200Y-36576181D01*
X57833200Y-36620500D01*
X57815887Y-36668066D01*
X57772050Y-36693376D01*
X57759200Y-36694500D01*
X46306617Y-36694500D01*
X46291432Y-36692925D01*
X46275731Y-36689633D01*
X46238965Y-36694216D01*
X46234386Y-36694500D01*
X46228879Y-36694500D01*
X46206613Y-36698216D01*
X46205102Y-36698436D01*
X46151374Y-36705134D01*
X46145498Y-36706884D01*
X46145417Y-36706615D01*
X46142102Y-36707677D01*
X46142193Y-36707942D01*
X46136392Y-36709933D01*
X46088789Y-36735694D01*
X46087431Y-36736393D01*
X46038787Y-36760174D01*
X46033797Y-36763737D01*
X46033636Y-36763511D01*
X46030837Y-36765598D01*
X46031008Y-36765818D01*
X46026175Y-36769578D01*
X45989515Y-36809400D01*
X45988457Y-36810503D01*
X44331775Y-38467185D01*
X44285899Y-38488577D01*
X44272753Y-38488555D01*
X44213814Y-38483200D01*
X43226193Y-38483200D01*
X43226180Y-38483201D01*
X43156811Y-38489504D01*
X43156801Y-38489506D01*
X42997149Y-38539255D01*
X42997145Y-38539257D01*
X42997143Y-38539258D01*
X42974122Y-38553174D01*
X42924461Y-38562965D01*
X42880123Y-38538542D01*
X42861857Y-38491334D01*
X42878209Y-38443429D01*
X42883507Y-38437528D01*
X43197680Y-38123355D01*
X43243555Y-38101964D01*
X43276735Y-38106678D01*
X43410316Y-38158428D01*
X43615587Y-38196800D01*
X43824413Y-38196800D01*
X44029684Y-38158428D01*
X44224410Y-38082991D01*
X44401958Y-37973058D01*
X44556282Y-37832372D01*
X44682129Y-37665725D01*
X44775211Y-37478791D01*
X44832359Y-37277936D01*
X44845782Y-37133082D01*
X44851627Y-37070003D01*
X44851627Y-37069996D01*
X44832360Y-36862075D01*
X44832359Y-36862064D01*
X44775211Y-36661209D01*
X44682129Y-36474275D01*
X44682128Y-36474274D01*
X44682128Y-36474273D01*
X44682126Y-36474271D01*
X44597915Y-36362759D01*
X44556282Y-36307628D01*
X44401958Y-36166942D01*
X44377659Y-36151897D01*
X44313936Y-36112441D01*
X44224410Y-36057009D01*
X44029684Y-35981572D01*
X43939531Y-35964719D01*
X43824416Y-35943200D01*
X43824413Y-35943200D01*
X43615587Y-35943200D01*
X43615583Y-35943200D01*
X43462095Y-35971892D01*
X43410316Y-35981572D01*
X43410314Y-35981572D01*
X43410312Y-35981573D01*
X43215595Y-36057007D01*
X43215590Y-36057009D01*
X43215585Y-36057011D01*
X43215585Y-36057012D01*
X43038044Y-36166940D01*
X42883720Y-36307625D01*
X42757873Y-36474271D01*
X42757871Y-36474273D01*
X42664789Y-36661209D01*
X42664787Y-36661214D01*
X42607641Y-36862062D01*
X42607639Y-36862075D01*
X42588373Y-37069996D01*
X42588373Y-37070003D01*
X42607639Y-37277924D01*
X42607641Y-37277937D01*
X42664788Y-37478788D01*
X42664789Y-37478791D01*
X42679411Y-37508157D01*
X42685114Y-37558453D01*
X42665494Y-37593466D01*
X36643873Y-43615087D01*
X36597997Y-43636479D01*
X36564816Y-43631764D01*
X36552459Y-43626977D01*
X36552458Y-43626976D01*
X36552456Y-43626976D01*
X36464407Y-43610516D01*
X36351979Y-43589500D01*
X36351976Y-43589500D01*
X36148024Y-43589500D01*
X36148020Y-43589500D01*
X36011145Y-43615087D01*
X35947544Y-43626976D01*
X35947542Y-43626976D01*
X35947540Y-43626977D01*
X35816263Y-43677834D01*
X35757363Y-43700652D01*
X35757358Y-43700654D01*
X35757358Y-43700655D01*
X35583958Y-43808019D01*
X35583957Y-43808019D01*
X35433235Y-43945420D01*
X35433234Y-43945421D01*
X35310329Y-44108174D01*
X35310328Y-44108177D01*
X35219418Y-44290750D01*
X35219416Y-44290755D01*
X35163602Y-44486917D01*
X35163601Y-44486923D01*
X35144785Y-44689996D01*
X35144785Y-44690003D01*
X35163601Y-44893076D01*
X35163602Y-44893082D01*
X35219416Y-45089244D01*
X35219418Y-45089250D01*
X35310327Y-45271821D01*
X35310328Y-45271822D01*
X35310329Y-45271825D01*
X35433234Y-45434578D01*
X35433235Y-45434579D01*
X35548903Y-45540023D01*
X35583959Y-45571981D01*
X35757363Y-45679348D01*
X35947544Y-45753024D01*
X36148024Y-45790500D01*
X36148026Y-45790500D01*
X36351974Y-45790500D01*
X36351976Y-45790500D01*
X36552456Y-45753024D01*
X36742637Y-45679348D01*
X36916041Y-45571981D01*
X37066764Y-45434579D01*
X37189673Y-45271821D01*
X37280582Y-45089250D01*
X37336397Y-44893083D01*
X37344933Y-44800970D01*
X37355215Y-44690003D01*
X37355215Y-44689996D01*
X37336398Y-44486923D01*
X37336397Y-44486917D01*
X37280583Y-44290755D01*
X37280582Y-44290750D01*
X37221111Y-44171316D01*
X37215408Y-44121021D01*
X37235026Y-44086009D01*
X42547520Y-38773515D01*
X42593395Y-38752124D01*
X42642290Y-38765225D01*
X42671324Y-38806689D01*
X42666912Y-38857116D01*
X42663177Y-38864117D01*
X42649258Y-38887143D01*
X42649257Y-38887145D01*
X42649255Y-38887149D01*
X42599506Y-39046801D01*
X42599504Y-39046811D01*
X42593200Y-39116181D01*
X42593200Y-40103806D01*
X42593201Y-40103819D01*
X42599504Y-40173188D01*
X42599506Y-40173198D01*
X42649255Y-40332851D01*
X42649257Y-40332854D01*
X42649258Y-40332857D01*
X42690768Y-40401522D01*
X42700560Y-40451185D01*
X42676138Y-40495523D01*
X42636598Y-40513236D01*
X42621374Y-40515134D01*
X42615498Y-40516884D01*
X42615417Y-40516615D01*
X42612102Y-40517677D01*
X42612193Y-40517942D01*
X42606392Y-40519933D01*
X42558789Y-40545694D01*
X42557431Y-40546393D01*
X42508787Y-40570174D01*
X42503797Y-40573737D01*
X42503636Y-40573511D01*
X42500837Y-40575598D01*
X42501008Y-40575818D01*
X42496175Y-40579578D01*
X42459515Y-40619400D01*
X42458457Y-40620503D01*
X41570555Y-41508405D01*
X41524679Y-41529797D01*
X41509308Y-41529539D01*
X41508987Y-41529500D01*
X41508985Y-41529500D01*
X41351015Y-41529500D01*
X41351012Y-41529500D01*
X41197633Y-41567304D01*
X41057761Y-41640716D01*
X40939516Y-41745470D01*
X40849779Y-41875478D01*
X40849778Y-41875478D01*
X40793764Y-42023177D01*
X40793761Y-42023191D01*
X40774722Y-42179996D01*
X40774722Y-42180003D01*
X40793761Y-42336808D01*
X40793764Y-42336822D01*
X40849778Y-42484521D01*
X40939516Y-42614529D01*
X40939517Y-42614530D01*
X41057760Y-42719283D01*
X41197635Y-42792696D01*
X41351015Y-42830500D01*
X41351019Y-42830500D01*
X41508981Y-42830500D01*
X41508985Y-42830500D01*
X41662365Y-42792696D01*
X41802240Y-42719283D01*
X41920483Y-42614530D01*
X42010220Y-42484523D01*
X42010731Y-42483177D01*
X42045787Y-42390740D01*
X42066237Y-42336818D01*
X42085278Y-42180000D01*
X42076168Y-42104978D01*
X42087620Y-42055673D01*
X42097297Y-42043738D01*
X42466875Y-41674160D01*
X42512750Y-41652769D01*
X42561645Y-41665870D01*
X42590679Y-41707334D01*
X42593200Y-41726487D01*
X42593200Y-42643806D01*
X42593201Y-42643819D01*
X42599504Y-42713188D01*
X42599506Y-42713198D01*
X42649255Y-42872851D01*
X42649257Y-42872854D01*
X42649258Y-42872857D01*
X42735775Y-43015973D01*
X42854027Y-43134225D01*
X42864320Y-43140447D01*
X42896069Y-43179872D01*
X42895048Y-43230481D01*
X42878361Y-43256100D01*
X41570555Y-44563905D01*
X41524678Y-44585297D01*
X41509308Y-44585039D01*
X41508987Y-44585000D01*
X41508985Y-44585000D01*
X41351015Y-44585000D01*
X41351012Y-44585000D01*
X41197633Y-44622804D01*
X41057761Y-44696216D01*
X40939516Y-44800970D01*
X40849779Y-44930978D01*
X40849778Y-44930978D01*
X40793764Y-45078677D01*
X40793761Y-45078691D01*
X40774722Y-45235496D01*
X40774722Y-45235503D01*
X40793761Y-45392308D01*
X40793762Y-45392313D01*
X40793763Y-45392318D01*
X40828632Y-45484259D01*
X40829312Y-45534874D01*
X40797298Y-45574083D01*
X40759441Y-45584500D01*
X39633325Y-45584500D01*
X39585759Y-45567187D01*
X39560449Y-45523350D01*
X39569239Y-45473500D01*
X39583471Y-45455813D01*
X39606764Y-45434579D01*
X39729673Y-45271821D01*
X39820582Y-45089250D01*
X39876397Y-44893083D01*
X39884933Y-44800970D01*
X39895215Y-44690003D01*
X39895215Y-44689996D01*
X39876398Y-44486923D01*
X39876397Y-44486917D01*
X39820583Y-44290755D01*
X39820582Y-44290750D01*
X39729673Y-44108179D01*
X39729670Y-44108175D01*
X39729670Y-44108174D01*
X39606765Y-43945421D01*
X39606764Y-43945420D01*
X39456041Y-43808019D01*
X39422000Y-43786942D01*
X39282637Y-43700652D01*
X39116986Y-43636479D01*
X39092459Y-43626977D01*
X39092458Y-43626976D01*
X39092456Y-43626976D01*
X39004407Y-43610516D01*
X38891979Y-43589500D01*
X38891976Y-43589500D01*
X38688024Y-43589500D01*
X38688020Y-43589500D01*
X38551145Y-43615087D01*
X38487544Y-43626976D01*
X38487542Y-43626976D01*
X38487540Y-43626977D01*
X38356263Y-43677834D01*
X38297363Y-43700652D01*
X38297358Y-43700654D01*
X38297358Y-43700655D01*
X38123958Y-43808019D01*
X38123957Y-43808019D01*
X37973235Y-43945420D01*
X37973234Y-43945421D01*
X37850329Y-44108174D01*
X37850328Y-44108177D01*
X37759418Y-44290750D01*
X37759416Y-44290755D01*
X37703602Y-44486917D01*
X37703601Y-44486923D01*
X37684785Y-44689996D01*
X37684785Y-44690003D01*
X37703601Y-44893076D01*
X37703602Y-44893082D01*
X37759416Y-45089244D01*
X37759418Y-45089250D01*
X37850327Y-45271821D01*
X37850328Y-45271822D01*
X37850329Y-45271825D01*
X37941314Y-45392308D01*
X37973236Y-45434579D01*
X37996529Y-45455813D01*
X38020017Y-45500653D01*
X38009188Y-45550100D01*
X37969108Y-45581018D01*
X37946675Y-45584500D01*
X37566617Y-45584500D01*
X37551432Y-45582925D01*
X37535732Y-45579633D01*
X37498963Y-45584216D01*
X37494385Y-45584500D01*
X37488877Y-45584500D01*
X37466621Y-45588214D01*
X37465110Y-45588434D01*
X37411373Y-45595133D01*
X37405497Y-45596883D01*
X37405418Y-45596618D01*
X37402097Y-45597681D01*
X37402188Y-45597944D01*
X37396389Y-45599935D01*
X37348782Y-45625697D01*
X37347424Y-45626396D01*
X37298785Y-45650175D01*
X37293797Y-45653737D01*
X37293635Y-45653510D01*
X37290836Y-45655597D01*
X37291008Y-45655818D01*
X37286175Y-45659578D01*
X37249504Y-45699412D01*
X37248446Y-45700515D01*
X36751990Y-46196971D01*
X36706114Y-46218363D01*
X36672932Y-46213648D01*
X36552459Y-46166977D01*
X36552458Y-46166976D01*
X36552456Y-46166976D01*
X36464407Y-46150516D01*
X36351979Y-46129500D01*
X36351976Y-46129500D01*
X36148024Y-46129500D01*
X36148020Y-46129500D01*
X35998115Y-46157522D01*
X35947544Y-46166976D01*
X35947542Y-46166976D01*
X35947540Y-46166977D01*
X35782105Y-46231067D01*
X35757363Y-46240652D01*
X35757358Y-46240654D01*
X35757358Y-46240655D01*
X35583958Y-46348019D01*
X35583957Y-46348019D01*
X35433235Y-46485420D01*
X35433234Y-46485421D01*
X35310329Y-46648174D01*
X35310328Y-46648177D01*
X35219418Y-46830750D01*
X35219416Y-46830755D01*
X35163602Y-47026917D01*
X35163601Y-47026923D01*
X35144785Y-47229996D01*
X35144785Y-47230003D01*
X35163601Y-47433076D01*
X35163602Y-47433082D01*
X35214045Y-47610366D01*
X35219418Y-47629250D01*
X35310327Y-47811821D01*
X35310328Y-47811822D01*
X35310329Y-47811825D01*
X35433234Y-47974578D01*
X35433235Y-47974579D01*
X35530613Y-48063350D01*
X35583959Y-48111981D01*
X35757363Y-48219348D01*
X35947544Y-48293024D01*
X36148024Y-48330500D01*
X36148026Y-48330500D01*
X36351974Y-48330500D01*
X36351976Y-48330500D01*
X36552456Y-48293024D01*
X36742637Y-48219348D01*
X36916041Y-48111981D01*
X37066764Y-47974579D01*
X37189673Y-47811821D01*
X37280582Y-47629250D01*
X37336397Y-47433083D01*
X37348728Y-47300015D01*
X37355215Y-47230003D01*
X37355215Y-47229996D01*
X37336398Y-47026923D01*
X37336397Y-47026917D01*
X37335016Y-47022062D01*
X37280582Y-46830750D01*
X37270974Y-46811456D01*
X37265269Y-46761160D01*
X37284888Y-46726147D01*
X37653862Y-46357174D01*
X37699740Y-46335782D01*
X37706189Y-46335500D01*
X37946675Y-46335500D01*
X37994241Y-46352813D01*
X38019551Y-46396650D01*
X38010761Y-46446500D01*
X37996530Y-46464185D01*
X37992754Y-46467628D01*
X37973233Y-46485424D01*
X37850329Y-46648174D01*
X37850328Y-46648177D01*
X37759418Y-46830750D01*
X37759416Y-46830755D01*
X37703602Y-47026917D01*
X37703601Y-47026923D01*
X37684785Y-47229996D01*
X37684785Y-47230003D01*
X37703601Y-47433076D01*
X37703602Y-47433082D01*
X37754045Y-47610366D01*
X37759418Y-47629250D01*
X37850327Y-47811821D01*
X37850328Y-47811822D01*
X37850329Y-47811825D01*
X37970794Y-47971346D01*
X37973236Y-47974579D01*
X37996529Y-47995813D01*
X38020017Y-48040653D01*
X38009188Y-48090100D01*
X37969108Y-48121018D01*
X37946675Y-48124500D01*
X37566617Y-48124500D01*
X37551432Y-48122925D01*
X37535732Y-48119633D01*
X37498963Y-48124216D01*
X37494385Y-48124500D01*
X37488877Y-48124500D01*
X37466621Y-48128214D01*
X37465110Y-48128434D01*
X37411373Y-48135133D01*
X37405497Y-48136883D01*
X37405418Y-48136618D01*
X37402097Y-48137681D01*
X37402188Y-48137944D01*
X37396389Y-48139935D01*
X37348782Y-48165697D01*
X37347424Y-48166396D01*
X37298785Y-48190175D01*
X37293797Y-48193737D01*
X37293635Y-48193510D01*
X37290836Y-48195597D01*
X37291008Y-48195818D01*
X37286175Y-48199578D01*
X37249504Y-48239412D01*
X37248446Y-48240515D01*
X36751990Y-48736971D01*
X36706114Y-48758363D01*
X36672932Y-48753648D01*
X36552459Y-48706977D01*
X36552458Y-48706976D01*
X36552456Y-48706976D01*
X36464407Y-48690516D01*
X36351979Y-48669500D01*
X36351976Y-48669500D01*
X36148024Y-48669500D01*
X36148020Y-48669500D01*
X35998115Y-48697522D01*
X35947544Y-48706976D01*
X35947542Y-48706976D01*
X35947540Y-48706977D01*
X35782105Y-48771067D01*
X35757363Y-48780652D01*
X35757358Y-48780654D01*
X35757358Y-48780655D01*
X35583958Y-48888019D01*
X35583957Y-48888019D01*
X35433235Y-49025420D01*
X35433234Y-49025421D01*
X35310329Y-49188174D01*
X35310328Y-49188177D01*
X35219418Y-49370750D01*
X35219416Y-49370755D01*
X35163602Y-49566917D01*
X35163601Y-49566923D01*
X35144785Y-49769996D01*
X35144785Y-49770003D01*
X35163601Y-49973076D01*
X35163602Y-49973082D01*
X35214045Y-50150366D01*
X35219418Y-50169250D01*
X35310327Y-50351821D01*
X35310328Y-50351822D01*
X35310329Y-50351825D01*
X35433234Y-50514578D01*
X35433235Y-50514579D01*
X35508674Y-50583350D01*
X35583959Y-50651981D01*
X35757363Y-50759348D01*
X35947544Y-50833024D01*
X36148024Y-50870500D01*
X36148026Y-50870500D01*
X36351974Y-50870500D01*
X36351976Y-50870500D01*
X36552456Y-50833024D01*
X36742637Y-50759348D01*
X36916041Y-50651981D01*
X37066764Y-50514579D01*
X37189673Y-50351821D01*
X37280582Y-50169250D01*
X37336397Y-49973083D01*
X37355215Y-49770000D01*
X37349519Y-49708526D01*
X37336398Y-49566923D01*
X37336397Y-49566917D01*
X37335016Y-49562062D01*
X37280582Y-49370750D01*
X37270974Y-49351456D01*
X37265269Y-49301160D01*
X37284888Y-49266147D01*
X37653862Y-48897174D01*
X37699740Y-48875782D01*
X37706189Y-48875500D01*
X37946675Y-48875500D01*
X37994241Y-48892813D01*
X38019551Y-48936650D01*
X38010761Y-48986500D01*
X37996530Y-49004185D01*
X37992754Y-49007628D01*
X37973233Y-49025424D01*
X37850329Y-49188174D01*
X37850328Y-49188177D01*
X37759418Y-49370750D01*
X37759416Y-49370755D01*
X37703602Y-49566917D01*
X37703601Y-49566923D01*
X37684785Y-49769996D01*
X37684785Y-49770003D01*
X37703601Y-49973076D01*
X37703602Y-49973082D01*
X37754045Y-50150366D01*
X37759418Y-50169250D01*
X37850327Y-50351821D01*
X37850328Y-50351822D01*
X37850329Y-50351825D01*
X37970794Y-50511346D01*
X37973236Y-50514579D01*
X37996529Y-50535813D01*
X38020017Y-50580653D01*
X38009188Y-50630100D01*
X37969108Y-50661018D01*
X37946675Y-50664500D01*
X37566617Y-50664500D01*
X37551432Y-50662925D01*
X37535732Y-50659633D01*
X37498963Y-50664216D01*
X37494385Y-50664500D01*
X37488877Y-50664500D01*
X37466621Y-50668214D01*
X37465110Y-50668434D01*
X37411373Y-50675133D01*
X37405497Y-50676883D01*
X37405418Y-50676618D01*
X37402097Y-50677681D01*
X37402188Y-50677944D01*
X37396389Y-50679935D01*
X37348782Y-50705697D01*
X37347424Y-50706396D01*
X37298785Y-50730175D01*
X37293797Y-50733737D01*
X37293635Y-50733510D01*
X37290836Y-50735597D01*
X37291008Y-50735818D01*
X37286175Y-50739578D01*
X37249504Y-50779412D01*
X37248446Y-50780515D01*
X36751990Y-51276971D01*
X36706114Y-51298363D01*
X36672932Y-51293648D01*
X36552459Y-51246977D01*
X36552458Y-51246976D01*
X36552456Y-51246976D01*
X36464407Y-51230516D01*
X36351979Y-51209500D01*
X36351976Y-51209500D01*
X36148024Y-51209500D01*
X36148020Y-51209500D01*
X35998115Y-51237522D01*
X35947544Y-51246976D01*
X35947542Y-51246976D01*
X35947540Y-51246977D01*
X35782105Y-51311067D01*
X35757363Y-51320652D01*
X35757358Y-51320654D01*
X35757358Y-51320655D01*
X35583958Y-51428019D01*
X35583957Y-51428019D01*
X35433235Y-51565420D01*
X35433234Y-51565421D01*
X35310329Y-51728174D01*
X35310328Y-51728177D01*
X35219418Y-51910750D01*
X35219416Y-51910755D01*
X35163602Y-52106917D01*
X35163601Y-52106923D01*
X35144785Y-52309996D01*
X35144785Y-52310003D01*
X35163601Y-52513076D01*
X35163602Y-52513082D01*
X35214045Y-52690366D01*
X35219418Y-52709250D01*
X35310327Y-52891821D01*
X35310328Y-52891822D01*
X35310329Y-52891825D01*
X35433234Y-53054578D01*
X35433235Y-53054579D01*
X35548986Y-53160099D01*
X35583959Y-53191981D01*
X35757363Y-53299348D01*
X35947544Y-53373024D01*
X36148024Y-53410500D01*
X36148026Y-53410500D01*
X36351974Y-53410500D01*
X36351976Y-53410500D01*
X36552456Y-53373024D01*
X36742637Y-53299348D01*
X36916041Y-53191981D01*
X37066764Y-53054579D01*
X37189673Y-52891821D01*
X37280582Y-52709250D01*
X37336397Y-52513083D01*
X37348728Y-52380015D01*
X37355215Y-52310003D01*
X37355215Y-52309996D01*
X37336398Y-52106923D01*
X37336397Y-52106917D01*
X37335016Y-52102062D01*
X37280582Y-51910750D01*
X37270974Y-51891456D01*
X37265269Y-51841160D01*
X37284888Y-51806147D01*
X37653862Y-51437174D01*
X37699740Y-51415782D01*
X37706189Y-51415500D01*
X37946675Y-51415500D01*
X37994241Y-51432813D01*
X38019551Y-51476650D01*
X38010761Y-51526500D01*
X37996530Y-51544185D01*
X37992754Y-51547628D01*
X37973233Y-51565424D01*
X37850329Y-51728174D01*
X37850328Y-51728177D01*
X37759418Y-51910750D01*
X37759416Y-51910755D01*
X37703602Y-52106917D01*
X37703601Y-52106923D01*
X37684785Y-52309996D01*
X37684785Y-52310003D01*
X37703601Y-52513076D01*
X37703602Y-52513082D01*
X37754045Y-52690366D01*
X37759418Y-52709250D01*
X37850327Y-52891821D01*
X37850328Y-52891822D01*
X37850329Y-52891825D01*
X37973234Y-53054578D01*
X37973235Y-53054579D01*
X37985559Y-53065813D01*
X38009048Y-53110652D01*
X37998219Y-53160099D01*
X37958140Y-53191017D01*
X37935706Y-53194500D01*
X37576617Y-53194500D01*
X37561432Y-53192925D01*
X37545731Y-53189633D01*
X37508965Y-53194216D01*
X37504386Y-53194500D01*
X37498879Y-53194500D01*
X37476613Y-53198216D01*
X37475102Y-53198436D01*
X37421374Y-53205134D01*
X37415498Y-53206884D01*
X37415417Y-53206615D01*
X37412102Y-53207677D01*
X37412193Y-53207942D01*
X37406392Y-53209933D01*
X37358789Y-53235694D01*
X37357431Y-53236393D01*
X37308787Y-53260174D01*
X37303797Y-53263737D01*
X37303636Y-53263511D01*
X37300837Y-53265598D01*
X37301008Y-53265818D01*
X37296175Y-53269578D01*
X37259515Y-53309400D01*
X37258457Y-53310503D01*
X36751990Y-53816970D01*
X36706114Y-53838362D01*
X36672933Y-53833647D01*
X36552459Y-53786977D01*
X36552458Y-53786976D01*
X36552456Y-53786976D01*
X36464407Y-53770516D01*
X36351979Y-53749500D01*
X36351976Y-53749500D01*
X36148024Y-53749500D01*
X36148020Y-53749500D01*
X35998115Y-53777522D01*
X35947544Y-53786976D01*
X35947542Y-53786976D01*
X35947540Y-53786977D01*
X35782107Y-53851066D01*
X35757363Y-53860652D01*
X35757358Y-53860654D01*
X35757358Y-53860655D01*
X35583958Y-53968019D01*
X35583957Y-53968019D01*
X35433235Y-54105420D01*
X35433234Y-54105421D01*
X35310329Y-54268174D01*
X35310328Y-54268177D01*
X35219418Y-54450750D01*
X35219416Y-54450755D01*
X35163602Y-54646917D01*
X35163601Y-54646923D01*
X35144785Y-54849996D01*
X35144785Y-54850003D01*
X35163601Y-55053076D01*
X35163602Y-55053082D01*
X35214045Y-55230366D01*
X35219418Y-55249250D01*
X35310327Y-55431821D01*
X35310328Y-55431822D01*
X35310329Y-55431825D01*
X35433234Y-55594578D01*
X35433235Y-55594579D01*
X35548986Y-55700099D01*
X35583959Y-55731981D01*
X35757363Y-55839348D01*
X35947544Y-55913024D01*
X36148024Y-55950500D01*
X36148026Y-55950500D01*
X36351974Y-55950500D01*
X36351976Y-55950500D01*
X36552456Y-55913024D01*
X36742637Y-55839348D01*
X36916041Y-55731981D01*
X37066764Y-55594579D01*
X37189673Y-55431821D01*
X37280582Y-55249250D01*
X37336397Y-55053083D01*
X37355215Y-54850000D01*
X37349519Y-54788526D01*
X37336398Y-54646923D01*
X37336397Y-54646917D01*
X37335016Y-54642062D01*
X37280582Y-54450750D01*
X37270974Y-54431456D01*
X37265269Y-54381160D01*
X37284888Y-54346147D01*
X37663862Y-53967174D01*
X37709740Y-53945782D01*
X37716189Y-53945500D01*
X37957645Y-53945500D01*
X38005211Y-53962813D01*
X38030521Y-54006650D01*
X38021731Y-54056500D01*
X38007498Y-54074187D01*
X37973235Y-54105420D01*
X37973234Y-54105421D01*
X37850329Y-54268174D01*
X37850328Y-54268177D01*
X37759418Y-54450750D01*
X37759416Y-54450755D01*
X37703602Y-54646917D01*
X37703601Y-54646923D01*
X37684785Y-54849996D01*
X37684785Y-54850003D01*
X37703601Y-55053076D01*
X37703602Y-55053082D01*
X37754045Y-55230366D01*
X37759418Y-55249250D01*
X37850327Y-55431821D01*
X37850328Y-55431822D01*
X37850329Y-55431825D01*
X37973234Y-55594578D01*
X37973235Y-55594579D01*
X37985559Y-55605813D01*
X38009048Y-55650652D01*
X37998219Y-55700099D01*
X37958140Y-55731017D01*
X37935706Y-55734500D01*
X37576617Y-55734500D01*
X37561432Y-55732925D01*
X37545731Y-55729633D01*
X37508965Y-55734216D01*
X37504386Y-55734500D01*
X37498879Y-55734500D01*
X37476613Y-55738216D01*
X37475102Y-55738436D01*
X37421374Y-55745134D01*
X37415498Y-55746884D01*
X37415417Y-55746615D01*
X37412102Y-55747677D01*
X37412193Y-55747942D01*
X37406392Y-55749933D01*
X37358789Y-55775694D01*
X37357431Y-55776393D01*
X37308787Y-55800174D01*
X37303797Y-55803737D01*
X37303636Y-55803511D01*
X37300837Y-55805598D01*
X37301008Y-55805818D01*
X37296175Y-55809578D01*
X37259515Y-55849400D01*
X37258457Y-55850503D01*
X36751990Y-56356970D01*
X36706114Y-56378362D01*
X36672933Y-56373647D01*
X36552459Y-56326977D01*
X36552458Y-56326976D01*
X36552456Y-56326976D01*
X36464407Y-56310516D01*
X36351979Y-56289500D01*
X36351976Y-56289500D01*
X36148024Y-56289500D01*
X36148020Y-56289500D01*
X35998115Y-56317522D01*
X35947544Y-56326976D01*
X35947542Y-56326976D01*
X35947540Y-56326977D01*
X35782107Y-56391066D01*
X35757363Y-56400652D01*
X35757358Y-56400654D01*
X35757358Y-56400655D01*
X35583958Y-56508019D01*
X35583957Y-56508019D01*
X35433235Y-56645420D01*
X35433234Y-56645421D01*
X35310329Y-56808174D01*
X35310328Y-56808177D01*
X35219418Y-56990750D01*
X35219416Y-56990755D01*
X35163602Y-57186917D01*
X35163601Y-57186923D01*
X35144785Y-57389996D01*
X35144785Y-57390003D01*
X35163601Y-57593076D01*
X35163602Y-57593082D01*
X35214045Y-57770366D01*
X35219418Y-57789250D01*
X35310327Y-57971821D01*
X35310328Y-57971822D01*
X35310329Y-57971825D01*
X35433234Y-58134578D01*
X35433235Y-58134579D01*
X35541583Y-58233350D01*
X35583959Y-58271981D01*
X35757363Y-58379348D01*
X35947544Y-58453024D01*
X36148024Y-58490500D01*
X36148026Y-58490500D01*
X36351974Y-58490500D01*
X36351976Y-58490500D01*
X36552456Y-58453024D01*
X36742637Y-58379348D01*
X36916041Y-58271981D01*
X37066764Y-58134579D01*
X37189673Y-57971821D01*
X37280582Y-57789250D01*
X37336397Y-57593083D01*
X37348728Y-57460015D01*
X37355215Y-57390003D01*
X37355215Y-57389996D01*
X37336398Y-57186923D01*
X37336397Y-57186917D01*
X37335016Y-57182062D01*
X37280582Y-56990750D01*
X37270974Y-56971456D01*
X37265269Y-56921160D01*
X37284888Y-56886147D01*
X37663862Y-56507174D01*
X37709740Y-56485782D01*
X37716189Y-56485500D01*
X37957645Y-56485500D01*
X38005211Y-56502813D01*
X38030521Y-56546650D01*
X38021731Y-56596500D01*
X38007498Y-56614187D01*
X37973235Y-56645420D01*
X37973234Y-56645421D01*
X37850329Y-56808174D01*
X37850328Y-56808177D01*
X37759418Y-56990750D01*
X37759416Y-56990755D01*
X37703602Y-57186917D01*
X37703601Y-57186923D01*
X37684785Y-57389996D01*
X37684785Y-57390003D01*
X37703601Y-57593076D01*
X37703602Y-57593082D01*
X37754045Y-57770366D01*
X37759418Y-57789250D01*
X37850327Y-57971821D01*
X37850328Y-57971822D01*
X37850329Y-57971825D01*
X37973234Y-58134578D01*
X37973235Y-58134579D01*
X38007498Y-58165813D01*
X38030987Y-58210652D01*
X38020158Y-58260099D01*
X37980079Y-58291018D01*
X37957645Y-58294500D01*
X37556617Y-58294500D01*
X37541432Y-58292925D01*
X37525732Y-58289633D01*
X37488963Y-58294216D01*
X37484385Y-58294500D01*
X37478877Y-58294500D01*
X37456621Y-58298214D01*
X37455110Y-58298434D01*
X37401373Y-58305133D01*
X37395497Y-58306883D01*
X37395418Y-58306618D01*
X37392097Y-58307681D01*
X37392188Y-58307944D01*
X37386389Y-58309935D01*
X37338782Y-58335697D01*
X37337424Y-58336396D01*
X37288785Y-58360175D01*
X37283797Y-58363737D01*
X37283635Y-58363510D01*
X37280836Y-58365597D01*
X37281008Y-58365818D01*
X37276175Y-58369578D01*
X37239504Y-58409412D01*
X37238446Y-58410515D01*
X36751990Y-58896971D01*
X36706114Y-58918363D01*
X36672932Y-58913648D01*
X36552459Y-58866977D01*
X36552458Y-58866976D01*
X36552456Y-58866976D01*
X36464407Y-58850516D01*
X36351979Y-58829500D01*
X36351976Y-58829500D01*
X36148024Y-58829500D01*
X36148020Y-58829500D01*
X35998115Y-58857522D01*
X35947544Y-58866976D01*
X35947542Y-58866976D01*
X35947540Y-58866977D01*
X35782105Y-58931067D01*
X35757363Y-58940652D01*
X35757358Y-58940654D01*
X35757358Y-58940655D01*
X35583958Y-59048019D01*
X35583957Y-59048019D01*
X35433235Y-59185420D01*
X35433234Y-59185421D01*
X35310329Y-59348174D01*
X35310328Y-59348177D01*
X35219418Y-59530750D01*
X35219416Y-59530755D01*
X35163602Y-59726917D01*
X35163601Y-59726923D01*
X35144785Y-59929996D01*
X35144785Y-59930003D01*
X35163601Y-60133076D01*
X35163602Y-60133082D01*
X35214045Y-60310366D01*
X35219418Y-60329250D01*
X35310327Y-60511821D01*
X35310328Y-60511822D01*
X35310329Y-60511825D01*
X35433234Y-60674578D01*
X35433235Y-60674579D01*
X35530613Y-60763350D01*
X35583959Y-60811981D01*
X35757363Y-60919348D01*
X35947544Y-60993024D01*
X36148024Y-61030500D01*
X36148026Y-61030500D01*
X36351974Y-61030500D01*
X36351976Y-61030500D01*
X36552456Y-60993024D01*
X36742637Y-60919348D01*
X36916041Y-60811981D01*
X37066764Y-60674579D01*
X37189673Y-60511821D01*
X37280582Y-60329250D01*
X37336397Y-60133083D01*
X37355215Y-59930000D01*
X37336397Y-59726917D01*
X37280582Y-59530750D01*
X37270974Y-59511456D01*
X37265269Y-59461160D01*
X37284888Y-59426147D01*
X37643862Y-59067174D01*
X37689740Y-59045782D01*
X37696189Y-59045500D01*
X37935706Y-59045500D01*
X37983272Y-59062813D01*
X38008582Y-59106650D01*
X37999792Y-59156500D01*
X37985559Y-59174187D01*
X37973235Y-59185420D01*
X37973234Y-59185421D01*
X37850329Y-59348174D01*
X37850328Y-59348177D01*
X37759418Y-59530750D01*
X37759416Y-59530755D01*
X37703602Y-59726917D01*
X37703601Y-59726923D01*
X37684785Y-59929996D01*
X37684785Y-59930003D01*
X37703601Y-60133076D01*
X37703602Y-60133082D01*
X37754045Y-60310366D01*
X37759418Y-60329250D01*
X37850327Y-60511821D01*
X37850328Y-60511822D01*
X37850329Y-60511825D01*
X37970794Y-60671346D01*
X37973236Y-60674579D01*
X37996529Y-60695813D01*
X38020017Y-60740653D01*
X38009188Y-60790100D01*
X37969108Y-60821018D01*
X37946675Y-60824500D01*
X37566617Y-60824500D01*
X37551432Y-60822925D01*
X37535732Y-60819633D01*
X37498963Y-60824216D01*
X37494385Y-60824500D01*
X37488877Y-60824500D01*
X37466621Y-60828214D01*
X37465110Y-60828434D01*
X37411373Y-60835133D01*
X37405497Y-60836883D01*
X37405418Y-60836618D01*
X37402097Y-60837681D01*
X37402188Y-60837944D01*
X37396389Y-60839935D01*
X37348782Y-60865697D01*
X37347424Y-60866396D01*
X37298785Y-60890175D01*
X37293797Y-60893737D01*
X37293635Y-60893510D01*
X37290836Y-60895597D01*
X37291008Y-60895818D01*
X37286175Y-60899578D01*
X37249504Y-60939412D01*
X37248446Y-60940515D01*
X36751990Y-61436971D01*
X36706114Y-61458363D01*
X36672932Y-61453648D01*
X36552459Y-61406977D01*
X36552458Y-61406976D01*
X36552456Y-61406976D01*
X36464407Y-61390516D01*
X36351979Y-61369500D01*
X36351976Y-61369500D01*
X36148024Y-61369500D01*
X36148020Y-61369500D01*
X35998115Y-61397522D01*
X35947544Y-61406976D01*
X35947542Y-61406976D01*
X35947540Y-61406977D01*
X35786168Y-61469493D01*
X35757363Y-61480652D01*
X35757358Y-61480654D01*
X35757358Y-61480655D01*
X35583958Y-61588019D01*
X35583957Y-61588019D01*
X35433235Y-61725420D01*
X35433234Y-61725421D01*
X35310329Y-61888174D01*
X35310328Y-61888177D01*
X35219418Y-62070750D01*
X35219416Y-62070755D01*
X35163602Y-62266917D01*
X35163601Y-62266923D01*
X35144785Y-62469996D01*
X35144785Y-62470003D01*
X35163601Y-62673076D01*
X35163602Y-62673082D01*
X35214045Y-62850366D01*
X35219418Y-62869250D01*
X35310327Y-63051821D01*
X35310328Y-63051822D01*
X35310329Y-63051825D01*
X35433234Y-63214578D01*
X35433235Y-63214579D01*
X35530613Y-63303350D01*
X35583959Y-63351981D01*
X35757363Y-63459348D01*
X35947544Y-63533024D01*
X36148024Y-63570500D01*
X36148026Y-63570500D01*
X36351974Y-63570500D01*
X36351976Y-63570500D01*
X36552456Y-63533024D01*
X36742637Y-63459348D01*
X36916041Y-63351981D01*
X37066764Y-63214579D01*
X37189673Y-63051821D01*
X37280582Y-62869250D01*
X37336397Y-62673083D01*
X37348728Y-62540015D01*
X37355215Y-62470003D01*
X37355215Y-62469996D01*
X37336398Y-62266923D01*
X37336397Y-62266917D01*
X37335016Y-62262062D01*
X37280582Y-62070750D01*
X37270974Y-62051456D01*
X37265269Y-62001160D01*
X37284888Y-61966147D01*
X37653862Y-61597174D01*
X37699740Y-61575782D01*
X37706189Y-61575500D01*
X37946675Y-61575500D01*
X37994241Y-61592813D01*
X38019551Y-61636650D01*
X38010761Y-61686500D01*
X37996530Y-61704185D01*
X37992754Y-61707628D01*
X37973233Y-61725424D01*
X37850329Y-61888174D01*
X37850328Y-61888177D01*
X37759418Y-62070750D01*
X37759416Y-62070755D01*
X37703602Y-62266917D01*
X37703601Y-62266923D01*
X37684785Y-62469996D01*
X37684785Y-62470003D01*
X37703601Y-62673076D01*
X37703602Y-62673082D01*
X37754045Y-62850366D01*
X37759418Y-62869250D01*
X37850327Y-63051821D01*
X37850328Y-63051822D01*
X37850329Y-63051825D01*
X37970794Y-63211346D01*
X37973236Y-63214579D01*
X37996529Y-63235813D01*
X38020017Y-63280653D01*
X38009188Y-63330100D01*
X37969108Y-63361018D01*
X37946675Y-63364500D01*
X37566617Y-63364500D01*
X37551432Y-63362925D01*
X37535732Y-63359633D01*
X37498963Y-63364216D01*
X37494385Y-63364500D01*
X37488877Y-63364500D01*
X37466621Y-63368214D01*
X37465110Y-63368434D01*
X37411373Y-63375133D01*
X37405497Y-63376883D01*
X37405418Y-63376618D01*
X37402097Y-63377681D01*
X37402188Y-63377944D01*
X37396389Y-63379935D01*
X37348782Y-63405697D01*
X37347424Y-63406396D01*
X37298785Y-63430175D01*
X37293797Y-63433737D01*
X37293635Y-63433510D01*
X37290836Y-63435597D01*
X37291008Y-63435818D01*
X37286175Y-63439578D01*
X37249504Y-63479412D01*
X37248446Y-63480515D01*
X36751990Y-63976971D01*
X36706114Y-63998363D01*
X36672932Y-63993648D01*
X36552459Y-63946977D01*
X36552458Y-63946976D01*
X36552456Y-63946976D01*
X36464407Y-63930516D01*
X36351979Y-63909500D01*
X36351976Y-63909500D01*
X36148024Y-63909500D01*
X36148020Y-63909500D01*
X35998115Y-63937522D01*
X35947544Y-63946976D01*
X35947542Y-63946976D01*
X35947540Y-63946977D01*
X35810600Y-64000028D01*
X35757363Y-64020652D01*
X35757358Y-64020654D01*
X35757358Y-64020655D01*
X35583958Y-64128019D01*
X35583957Y-64128019D01*
X35433235Y-64265420D01*
X35433234Y-64265421D01*
X35310329Y-64428174D01*
X35310328Y-64428177D01*
X35219418Y-64610750D01*
X35219416Y-64610755D01*
X35163602Y-64806917D01*
X35163601Y-64806923D01*
X35144785Y-65009996D01*
X35144785Y-65010003D01*
X34308500Y-65010003D01*
X34308500Y-34530003D01*
X42588373Y-34530003D01*
X42607639Y-34737924D01*
X42607641Y-34737937D01*
X42664787Y-34938785D01*
X42664789Y-34938790D01*
X42757871Y-35125726D01*
X42757873Y-35125728D01*
X42883718Y-35292372D01*
X43038042Y-35433058D01*
X43215590Y-35542991D01*
X43410316Y-35618428D01*
X43615587Y-35656800D01*
X43824413Y-35656800D01*
X44029684Y-35618428D01*
X44224410Y-35542991D01*
X44401958Y-35433058D01*
X44556282Y-35292372D01*
X44682129Y-35125725D01*
X44775211Y-34938791D01*
X44832359Y-34737936D01*
X44845939Y-34591383D01*
X44851627Y-34530003D01*
X57828373Y-34530003D01*
X57847639Y-34737924D01*
X57847641Y-34737937D01*
X57904787Y-34938785D01*
X57904789Y-34938790D01*
X57997871Y-35125726D01*
X57997873Y-35125728D01*
X58123718Y-35292372D01*
X58278042Y-35433058D01*
X58455590Y-35542991D01*
X58650316Y-35618428D01*
X58855587Y-35656800D01*
X59064413Y-35656800D01*
X59269684Y-35618428D01*
X59464410Y-35542991D01*
X59641958Y-35433058D01*
X59796282Y-35292372D01*
X59922129Y-35125725D01*
X60015211Y-34938791D01*
X60072359Y-34737936D01*
X60085939Y-34591383D01*
X60091627Y-34530003D01*
X60091627Y-34529996D01*
X60072360Y-34322075D01*
X60072359Y-34322064D01*
X60015211Y-34121209D01*
X59922129Y-33934275D01*
X59922128Y-33934274D01*
X59922128Y-33934273D01*
X59922126Y-33934271D01*
X59850762Y-33839771D01*
X59796282Y-33767628D01*
X59792575Y-33764249D01*
X59765153Y-33739249D01*
X61083500Y-33739249D01*
X61098924Y-33890934D01*
X61098926Y-33890939D01*
X61159838Y-34085082D01*
X61159840Y-34085087D01*
X61179892Y-34121214D01*
X61258591Y-34263002D01*
X61391134Y-34417395D01*
X61552042Y-34541948D01*
X61734729Y-34631560D01*
X61931715Y-34682563D01*
X62134936Y-34692869D01*
X62336071Y-34662056D01*
X62526887Y-34591386D01*
X62526892Y-34591383D01*
X62526893Y-34591383D01*
X62537953Y-34584489D01*
X62587477Y-34574018D01*
X62629424Y-34594961D01*
X62717018Y-34682555D01*
X62726640Y-34694404D01*
X62735416Y-34707836D01*
X62758503Y-34725805D01*
X62764654Y-34730593D01*
X62768093Y-34733631D01*
X62771982Y-34737519D01*
X62771981Y-34737519D01*
X62777909Y-34741751D01*
X62790384Y-34750658D01*
X62791583Y-34751553D01*
X62834307Y-34784807D01*
X62839702Y-34787726D01*
X62839567Y-34787974D01*
X62842670Y-34789572D01*
X62842795Y-34789318D01*
X62848298Y-34792008D01*
X62848301Y-34792010D01*
X62900232Y-34807470D01*
X62901592Y-34807906D01*
X62952840Y-34825500D01*
X62952841Y-34825500D01*
X62958891Y-34826510D01*
X62958844Y-34826787D01*
X62962291Y-34827289D01*
X62962326Y-34827010D01*
X62968406Y-34827767D01*
X62968412Y-34827769D01*
X63002093Y-34826375D01*
X63022510Y-34825532D01*
X63024039Y-34825500D01*
X65756883Y-34825500D01*
X65772067Y-34827074D01*
X65787768Y-34830367D01*
X65824536Y-34825783D01*
X65829115Y-34825500D01*
X65834611Y-34825500D01*
X65834614Y-34825500D01*
X65856887Y-34821782D01*
X65858387Y-34821564D01*
X65864104Y-34820851D01*
X65912126Y-34814866D01*
X65912129Y-34814864D01*
X65918007Y-34813115D01*
X65918087Y-34813386D01*
X65921404Y-34812323D01*
X65921312Y-34812055D01*
X65927106Y-34810065D01*
X65927110Y-34810065D01*
X65974735Y-34784290D01*
X65976035Y-34783622D01*
X66024711Y-34759826D01*
X66024713Y-34759823D01*
X66029704Y-34756261D01*
X66029869Y-34756493D01*
X66032658Y-34754414D01*
X66032483Y-34754189D01*
X66037321Y-34750422D01*
X66037321Y-34750421D01*
X66037326Y-34750419D01*
X66074035Y-34710541D01*
X66075017Y-34709518D01*
X66160580Y-34623955D01*
X66206455Y-34602564D01*
X66245494Y-34609845D01*
X66340729Y-34656560D01*
X66537715Y-34707563D01*
X66740936Y-34717869D01*
X66942071Y-34687056D01*
X67132887Y-34616386D01*
X67305571Y-34508752D01*
X67453053Y-34368559D01*
X67569295Y-34201549D01*
X67649540Y-34014558D01*
X67690500Y-33815241D01*
X67690500Y-33362758D01*
X67678431Y-33244070D01*
X67675075Y-33211065D01*
X67675073Y-33211060D01*
X67614161Y-33016917D01*
X67614159Y-33016912D01*
X67614158Y-33016911D01*
X67515409Y-32838998D01*
X67382866Y-32684605D01*
X67382861Y-32684601D01*
X67382859Y-32684599D01*
X67264843Y-32593248D01*
X67221958Y-32560052D01*
X67039271Y-32470440D01*
X67039268Y-32470439D01*
X66895653Y-32433255D01*
X66842285Y-32419437D01*
X66842283Y-32419436D01*
X66842282Y-32419436D01*
X66639065Y-32409131D01*
X66639064Y-32409131D01*
X66437929Y-32439944D01*
X66437926Y-32439944D01*
X66437926Y-32439945D01*
X66395588Y-32455625D01*
X66344970Y-32455909D01*
X66306011Y-32423590D01*
X66296941Y-32373791D01*
X66297579Y-32370501D01*
X66302933Y-32345887D01*
X66325578Y-32241794D01*
X66345482Y-31963500D01*
X66345482Y-31963493D01*
X66325578Y-31685208D01*
X66325578Y-31685206D01*
X66266271Y-31412577D01*
X66266267Y-31412567D01*
X66266266Y-31412562D01*
X66168771Y-31151166D01*
X66035057Y-30906288D01*
X65993255Y-30850448D01*
X65867855Y-30682932D01*
X65670568Y-30485645D01*
X65558890Y-30402044D01*
X65447211Y-30318442D01*
X65202333Y-30184728D01*
X64940937Y-30087233D01*
X64940925Y-30087230D01*
X64940923Y-30087229D01*
X64885971Y-30075274D01*
X64668291Y-30027921D01*
X64459669Y-30013000D01*
X64459657Y-30013000D01*
X64320343Y-30013000D01*
X64320330Y-30013000D01*
X64111708Y-30027921D01*
X63839081Y-30087228D01*
X63839062Y-30087233D01*
X63577666Y-30184728D01*
X63332788Y-30318442D01*
X63109429Y-30485647D01*
X62912147Y-30682929D01*
X62744942Y-30906288D01*
X62611228Y-31151166D01*
X62513733Y-31412562D01*
X62513728Y-31412581D01*
X62454421Y-31685208D01*
X62434518Y-31963493D01*
X62434518Y-31963506D01*
X62454421Y-32241791D01*
X62477066Y-32345887D01*
X62470260Y-32396046D01*
X62432804Y-32430096D01*
X62386209Y-32433254D01*
X62236285Y-32394437D01*
X62236283Y-32394436D01*
X62236282Y-32394436D01*
X62033065Y-32384131D01*
X62033064Y-32384131D01*
X61831929Y-32414944D01*
X61831926Y-32414944D01*
X61831926Y-32414945D01*
X61641112Y-32485614D01*
X61468431Y-32593246D01*
X61320946Y-32733441D01*
X61204704Y-32900452D01*
X61124460Y-33087441D01*
X61124458Y-33087447D01*
X61083500Y-33286752D01*
X61083500Y-33739249D01*
X59765153Y-33739249D01*
X59755365Y-33730326D01*
X59641958Y-33626942D01*
X59464410Y-33517009D01*
X59269684Y-33441572D01*
X59179531Y-33424719D01*
X59064416Y-33403200D01*
X59064413Y-33403200D01*
X58855587Y-33403200D01*
X58855583Y-33403200D01*
X58702095Y-33431892D01*
X58650316Y-33441572D01*
X58650314Y-33441572D01*
X58650312Y-33441573D01*
X58458775Y-33515775D01*
X58455590Y-33517009D01*
X58455585Y-33517011D01*
X58455585Y-33517012D01*
X58278044Y-33626940D01*
X58123720Y-33767625D01*
X57997873Y-33934271D01*
X57997871Y-33934273D01*
X57904789Y-34121209D01*
X57904787Y-34121214D01*
X57847641Y-34322062D01*
X57847639Y-34322075D01*
X57828373Y-34529996D01*
X57828373Y-34530003D01*
X44851627Y-34530003D01*
X44851627Y-34529996D01*
X44832360Y-34322075D01*
X44832359Y-34322064D01*
X44775211Y-34121209D01*
X44682129Y-33934275D01*
X44682128Y-33934274D01*
X44682128Y-33934273D01*
X44682126Y-33934271D01*
X44610762Y-33839771D01*
X44556282Y-33767628D01*
X44552575Y-33764249D01*
X44515365Y-33730326D01*
X44401958Y-33626942D01*
X44224410Y-33517009D01*
X44029684Y-33441572D01*
X43939531Y-33424719D01*
X43824416Y-33403200D01*
X43824413Y-33403200D01*
X43615587Y-33403200D01*
X43615583Y-33403200D01*
X43462095Y-33431892D01*
X43410316Y-33441572D01*
X43410314Y-33441572D01*
X43410312Y-33441573D01*
X43218775Y-33515775D01*
X43215590Y-33517009D01*
X43215585Y-33517011D01*
X43215585Y-33517012D01*
X43038044Y-33626940D01*
X42883720Y-33767625D01*
X42757873Y-33934271D01*
X42757871Y-33934273D01*
X42664789Y-34121209D01*
X42664787Y-34121214D01*
X42607641Y-34322062D01*
X42607639Y-34322075D01*
X42588373Y-34529996D01*
X42588373Y-34530003D01*
X34308500Y-34530003D01*
X34308500Y-31963506D01*
X36354518Y-31963506D01*
X36374421Y-32241791D01*
X36433728Y-32514418D01*
X36433733Y-32514437D01*
X36531228Y-32775833D01*
X36664942Y-33020711D01*
X36714900Y-33087447D01*
X36832145Y-33244068D01*
X37029432Y-33441355D01*
X37135899Y-33521055D01*
X37252788Y-33608557D01*
X37497666Y-33742271D01*
X37759062Y-33839766D01*
X37759067Y-33839767D01*
X37759077Y-33839771D01*
X38031706Y-33899078D01*
X38240330Y-33913999D01*
X38240335Y-33914000D01*
X38240343Y-33914000D01*
X38379665Y-33914000D01*
X38379668Y-33913999D01*
X38588294Y-33899078D01*
X38860923Y-33839771D01*
X38860934Y-33839766D01*
X38860937Y-33839766D01*
X39122333Y-33742271D01*
X39127868Y-33739249D01*
X39367213Y-33608556D01*
X39590568Y-33441355D01*
X39787855Y-33244068D01*
X39955056Y-33020713D01*
X40088769Y-32775837D01*
X40088769Y-32775835D01*
X40088771Y-32775833D01*
X40186266Y-32514437D01*
X40186266Y-32514434D01*
X40186271Y-32514423D01*
X40245578Y-32241794D01*
X40265482Y-31963500D01*
X40265482Y-31963493D01*
X40245578Y-31685208D01*
X40245578Y-31685206D01*
X40186271Y-31412577D01*
X40186267Y-31412567D01*
X40186266Y-31412562D01*
X40088771Y-31151166D01*
X39955057Y-30906288D01*
X39913255Y-30850448D01*
X39787855Y-30682932D01*
X39590568Y-30485645D01*
X39478890Y-30402044D01*
X39367211Y-30318442D01*
X39122333Y-30184728D01*
X38860937Y-30087233D01*
X38860925Y-30087230D01*
X38860923Y-30087229D01*
X38805971Y-30075275D01*
X38588291Y-30027921D01*
X38379669Y-30013000D01*
X38379657Y-30013000D01*
X38240343Y-30013000D01*
X38240330Y-30013000D01*
X38031708Y-30027921D01*
X37759081Y-30087228D01*
X37759062Y-30087233D01*
X37497666Y-30184728D01*
X37252788Y-30318442D01*
X37029429Y-30485647D01*
X36832147Y-30682929D01*
X36664942Y-30906288D01*
X36531228Y-31151166D01*
X36433733Y-31412562D01*
X36433728Y-31412581D01*
X36374421Y-31685208D01*
X36354518Y-31963493D01*
X36354518Y-31963506D01*
X34308500Y-31963506D01*
X34308500Y-28727318D01*
X34308678Y-28723690D01*
X34311976Y-28690205D01*
X34324932Y-28575221D01*
X34327652Y-28562038D01*
X34344896Y-28505190D01*
X34345368Y-28503745D01*
X34374070Y-28421720D01*
X34378646Y-28411298D01*
X34409385Y-28353790D01*
X34410649Y-28351612D01*
X34455716Y-28279887D01*
X34458423Y-28276127D01*
X34502619Y-28222275D01*
X34505039Y-28219605D01*
X34564105Y-28160539D01*
X34566775Y-28158119D01*
X34620627Y-28113923D01*
X34624387Y-28111216D01*
X34696112Y-28066149D01*
X34698290Y-28064885D01*
X34755798Y-28034146D01*
X34766220Y-28029570D01*
X34848246Y-28000868D01*
X34849648Y-28000409D01*
X34906540Y-27983151D01*
X34919721Y-27980432D01*
X35034699Y-27967476D01*
X35065962Y-27964397D01*
X35068194Y-27964178D01*
X35071821Y-27964000D01*
X67628179Y-27964000D01*
X67631807Y-27964178D01*
G37*
G04 #@! TD.AperFunction*
G04 #@! TA.AperFunction,NonConductor*
G36*
X63195500Y-33506437D02*
G01*
X63202831Y-33511272D01*
X63313020Y-33593759D01*
X63332788Y-33608557D01*
X63577666Y-33742271D01*
X63839062Y-33839766D01*
X63839067Y-33839767D01*
X63839077Y-33839771D01*
X64111706Y-33899078D01*
X64320330Y-33913999D01*
X64320335Y-33914000D01*
X64320343Y-33914000D01*
X64459665Y-33914000D01*
X64459668Y-33913999D01*
X64668294Y-33899078D01*
X64940923Y-33839771D01*
X64940934Y-33839766D01*
X64940937Y-33839766D01*
X65202333Y-33742271D01*
X65207868Y-33739249D01*
X65447213Y-33608556D01*
X65571155Y-33515774D01*
X65619607Y-33501129D01*
X65666139Y-33521055D01*
X65688977Y-33566230D01*
X65689500Y-33575015D01*
X65689500Y-33764249D01*
X65704924Y-33915933D01*
X65715768Y-33950495D01*
X65713488Y-34001063D01*
X65697489Y-34024971D01*
X65669638Y-34052824D01*
X65623762Y-34074218D01*
X65617310Y-34074500D01*
X63201689Y-34074500D01*
X63154123Y-34057187D01*
X63149363Y-34052826D01*
X63078976Y-33982439D01*
X63057584Y-33936563D01*
X63058817Y-33915217D01*
X63084499Y-33790247D01*
X63084500Y-33790239D01*
X63084500Y-33570523D01*
X63101813Y-33522957D01*
X63145650Y-33497647D01*
X63195500Y-33506437D01*
G37*
G04 #@! TD.AperFunction*
G04 #@! TA.AperFunction,NonConductor*
G36*
X57799383Y-41262213D02*
G01*
X57829925Y-41302580D01*
X57833200Y-41324352D01*
X57833200Y-41465500D01*
X57815887Y-41513066D01*
X57772050Y-41538376D01*
X57759200Y-41539500D01*
X54566312Y-41539500D01*
X54551127Y-41537925D01*
X54535427Y-41534633D01*
X54498658Y-41539216D01*
X54494080Y-41539500D01*
X54488572Y-41539500D01*
X54466316Y-41543214D01*
X54464805Y-41543434D01*
X54411068Y-41550133D01*
X54405192Y-41551883D01*
X54405113Y-41551618D01*
X54401792Y-41552681D01*
X54401883Y-41552944D01*
X54396084Y-41554935D01*
X54348477Y-41580697D01*
X54347119Y-41581396D01*
X54298480Y-41605175D01*
X54293492Y-41608737D01*
X54293330Y-41608510D01*
X54290531Y-41610597D01*
X54290703Y-41610818D01*
X54285870Y-41614578D01*
X54249199Y-41654412D01*
X54248141Y-41655515D01*
X52900831Y-43002826D01*
X52854955Y-43024218D01*
X52848505Y-43024500D01*
X44830275Y-43024500D01*
X44782709Y-43007187D01*
X44757399Y-42963350D01*
X44766189Y-42913500D01*
X44766906Y-42912286D01*
X44790742Y-42872857D01*
X44792573Y-42866983D01*
X44803941Y-42830499D01*
X44840495Y-42713194D01*
X44846800Y-42643811D01*
X44846799Y-41656190D01*
X44840495Y-41586806D01*
X44790742Y-41427143D01*
X44754856Y-41367781D01*
X44745065Y-41318120D01*
X44769487Y-41273782D01*
X44816695Y-41255515D01*
X44818185Y-41255500D01*
X57643383Y-41255500D01*
X57658567Y-41257074D01*
X57674268Y-41260367D01*
X57711036Y-41255783D01*
X57715615Y-41255500D01*
X57721111Y-41255500D01*
X57721114Y-41255500D01*
X57743400Y-41251780D01*
X57744881Y-41251565D01*
X57746728Y-41251334D01*
X57750041Y-41250921D01*
X57799383Y-41262213D01*
G37*
G04 #@! TD.AperFunction*
G04 #@! TA.AperFunction,NonConductor*
G36*
X61261660Y-42525515D02*
G01*
X61278674Y-42540705D01*
X61346115Y-42622883D01*
X61346116Y-42622884D01*
X61504241Y-42752653D01*
X61504243Y-42752654D01*
X61504249Y-42752659D01*
X61684660Y-42849091D01*
X61684661Y-42849091D01*
X61684662Y-42849092D01*
X61851449Y-42899687D01*
X61891942Y-42930062D01*
X61903436Y-42979358D01*
X61880554Y-43024510D01*
X61834002Y-43044390D01*
X61829968Y-43044500D01*
X60160800Y-43044500D01*
X60113234Y-43027187D01*
X60087924Y-42983350D01*
X60086800Y-42970500D01*
X60086800Y-42599500D01*
X60104113Y-42551934D01*
X60147950Y-42526624D01*
X60160800Y-42525500D01*
X61051883Y-42525500D01*
X61067067Y-42527074D01*
X61082768Y-42530367D01*
X61119536Y-42525783D01*
X61124115Y-42525500D01*
X61129611Y-42525500D01*
X61129614Y-42525500D01*
X61151887Y-42521782D01*
X61153386Y-42521564D01*
X61207126Y-42514866D01*
X61207128Y-42514864D01*
X61212318Y-42514218D01*
X61261660Y-42525515D01*
G37*
G04 #@! TD.AperFunction*
G04 #@! TA.AperFunction,NonConductor*
G36*
X57806766Y-42307813D02*
G01*
X57832076Y-42351650D01*
X57833200Y-42364500D01*
X57833200Y-42970500D01*
X57815887Y-43018066D01*
X57772050Y-43043376D01*
X57759200Y-43044500D01*
X55786189Y-43044500D01*
X55738623Y-43027187D01*
X55733863Y-43022826D01*
X55487302Y-42776265D01*
X55465910Y-42730389D01*
X55466167Y-42715023D01*
X55474814Y-42643819D01*
X55475278Y-42640002D01*
X55475278Y-42639996D01*
X55456400Y-42484523D01*
X55456237Y-42483182D01*
X55449246Y-42464748D01*
X55421179Y-42390740D01*
X55420499Y-42340126D01*
X55452513Y-42300916D01*
X55490370Y-42290500D01*
X57759200Y-42290500D01*
X57806766Y-42307813D01*
G37*
G04 #@! TD.AperFunction*
G04 #@! TA.AperFunction,NonConductor*
G36*
X54193519Y-42858692D02*
G01*
X54220265Y-42893068D01*
X54239779Y-42944522D01*
X54320928Y-43062086D01*
X54329517Y-43074530D01*
X54447760Y-43179283D01*
X54587635Y-43252696D01*
X54741015Y-43290500D01*
X54741019Y-43290500D01*
X54898978Y-43290500D01*
X54898985Y-43290500D01*
X54898991Y-43290498D01*
X54899299Y-43290461D01*
X54899467Y-43290500D01*
X54903461Y-43290500D01*
X54903461Y-43291427D01*
X54948607Y-43301906D01*
X54960557Y-43311594D01*
X55301518Y-43652555D01*
X55311140Y-43664404D01*
X55319916Y-43677836D01*
X55343003Y-43695805D01*
X55349154Y-43700593D01*
X55352593Y-43703631D01*
X55356482Y-43707519D01*
X55356481Y-43707519D01*
X55362409Y-43711751D01*
X55374884Y-43720658D01*
X55376083Y-43721553D01*
X55418807Y-43754807D01*
X55424202Y-43757726D01*
X55424067Y-43757974D01*
X55427170Y-43759572D01*
X55427295Y-43759318D01*
X55432798Y-43762008D01*
X55432801Y-43762010D01*
X55484732Y-43777470D01*
X55486092Y-43777906D01*
X55537340Y-43795500D01*
X55537341Y-43795500D01*
X55543391Y-43796510D01*
X55543344Y-43796787D01*
X55546791Y-43797289D01*
X55546826Y-43797010D01*
X55552906Y-43797767D01*
X55552912Y-43797769D01*
X55586593Y-43796375D01*
X55607010Y-43795532D01*
X55608539Y-43795500D01*
X58077639Y-43795500D01*
X58125205Y-43812813D01*
X58150515Y-43856650D01*
X58141725Y-43906500D01*
X58127493Y-43924186D01*
X58123720Y-43927624D01*
X57997873Y-44094271D01*
X57997871Y-44094273D01*
X57904789Y-44281209D01*
X57904787Y-44281214D01*
X57847641Y-44482062D01*
X57847639Y-44482075D01*
X57828373Y-44689996D01*
X57828373Y-44690003D01*
X57847639Y-44897924D01*
X57847641Y-44897937D01*
X57904787Y-45098785D01*
X57904788Y-45098790D01*
X57919411Y-45128155D01*
X57925116Y-45178451D01*
X57905495Y-45213466D01*
X57566136Y-45552826D01*
X57520260Y-45574218D01*
X57513810Y-45574500D01*
X44612541Y-45574500D01*
X44564975Y-45557187D01*
X44539665Y-45513350D01*
X44548455Y-45463500D01*
X44554462Y-45455284D01*
X44554220Y-45455102D01*
X44556282Y-45452372D01*
X44682129Y-45285725D01*
X44775211Y-45098791D01*
X44832359Y-44897936D01*
X44845165Y-44759741D01*
X44851627Y-44690003D01*
X44851627Y-44689996D01*
X44832360Y-44482075D01*
X44832359Y-44482064D01*
X44775211Y-44281209D01*
X44682129Y-44094275D01*
X44682128Y-44094274D01*
X44682128Y-44094273D01*
X44682126Y-44094271D01*
X44675885Y-44086007D01*
X44556282Y-43927628D01*
X44556278Y-43927624D01*
X44530569Y-43904187D01*
X44507080Y-43859347D01*
X44517909Y-43809900D01*
X44557989Y-43778982D01*
X44580422Y-43775500D01*
X53075803Y-43775500D01*
X53075809Y-43775500D01*
X53168305Y-43760065D01*
X53278521Y-43700419D01*
X53363398Y-43608219D01*
X53363400Y-43608214D01*
X53366753Y-43603083D01*
X53367244Y-43603403D01*
X53377842Y-43587888D01*
X54098749Y-42866982D01*
X54144625Y-42845591D01*
X54193519Y-42858692D01*
G37*
G04 #@! TD.AperFunction*
G04 #@! TA.AperFunction,NonConductor*
G36*
X42564738Y-44718277D02*
G01*
X42593772Y-44759741D01*
X42595977Y-44772066D01*
X42607639Y-44897924D01*
X42607641Y-44897937D01*
X42664787Y-45098785D01*
X42664788Y-45098790D01*
X42679411Y-45128155D01*
X42685116Y-45178451D01*
X42665495Y-45213466D01*
X42316136Y-45562826D01*
X42270260Y-45584218D01*
X42263810Y-45584500D01*
X42100559Y-45584500D01*
X42052993Y-45567187D01*
X42027683Y-45523350D01*
X42031368Y-45484259D01*
X42066237Y-45392318D01*
X42079180Y-45285725D01*
X42085278Y-45235503D01*
X42085278Y-45235497D01*
X42080905Y-45199492D01*
X42076168Y-45160478D01*
X42087620Y-45111173D01*
X42097297Y-45099238D01*
X42469968Y-44726567D01*
X42515843Y-44705176D01*
X42564738Y-44718277D01*
G37*
G04 #@! TD.AperFunction*
G04 #@! TA.AperFunction,NonConductor*
G36*
X42253481Y-46352813D02*
G01*
X42278791Y-46396650D01*
X42270001Y-46446500D01*
X42258241Y-46461826D01*
X41887241Y-46832826D01*
X41841365Y-46854218D01*
X41834915Y-46854500D01*
X39878227Y-46854500D01*
X39830661Y-46837187D01*
X39811985Y-46813485D01*
X39787242Y-46763794D01*
X39729673Y-46648179D01*
X39729670Y-46648175D01*
X39729670Y-46648174D01*
X39606766Y-46485424D01*
X39606764Y-46485421D01*
X39583470Y-46464186D01*
X39559983Y-46419347D01*
X39570812Y-46369900D01*
X39610892Y-46338982D01*
X39633325Y-46335500D01*
X42205915Y-46335500D01*
X42253481Y-46352813D01*
G37*
G04 #@! TD.AperFunction*
G04 #@! TA.AperFunction,NonConductor*
G36*
X42568605Y-47300015D02*
G01*
X42597639Y-47341479D01*
X42599844Y-47353804D01*
X42607639Y-47437924D01*
X42607641Y-47437937D01*
X42664787Y-47638785D01*
X42664788Y-47638790D01*
X42679411Y-47668155D01*
X42685116Y-47718451D01*
X42665495Y-47753466D01*
X42316136Y-48102826D01*
X42270260Y-48124218D01*
X42263810Y-48124500D01*
X39633325Y-48124500D01*
X39585759Y-48107187D01*
X39560449Y-48063350D01*
X39569239Y-48013500D01*
X39583471Y-47995813D01*
X39606764Y-47974579D01*
X39729673Y-47811821D01*
X39811985Y-47646514D01*
X39848685Y-47611653D01*
X39878227Y-47605500D01*
X41974488Y-47605500D01*
X41989672Y-47607074D01*
X42005373Y-47610367D01*
X42042141Y-47605783D01*
X42046720Y-47605500D01*
X42052216Y-47605500D01*
X42052219Y-47605500D01*
X42074492Y-47601782D01*
X42075992Y-47601564D01*
X42081709Y-47600851D01*
X42129731Y-47594866D01*
X42129734Y-47594864D01*
X42135612Y-47593115D01*
X42135692Y-47593386D01*
X42139009Y-47592323D01*
X42138917Y-47592055D01*
X42144711Y-47590065D01*
X42144715Y-47590065D01*
X42192340Y-47564290D01*
X42193640Y-47563622D01*
X42242316Y-47539826D01*
X42242318Y-47539823D01*
X42247309Y-47536261D01*
X42247474Y-47536493D01*
X42250263Y-47534414D01*
X42250088Y-47534189D01*
X42254926Y-47530422D01*
X42254926Y-47530421D01*
X42254931Y-47530419D01*
X42291640Y-47490541D01*
X42292622Y-47489518D01*
X42473835Y-47308305D01*
X42519710Y-47286914D01*
X42568605Y-47300015D01*
G37*
G04 #@! TD.AperFunction*
G04 #@! TA.AperFunction,NonConductor*
G36*
X42048772Y-48892813D02*
G01*
X42074082Y-48936650D01*
X42065292Y-48986500D01*
X42053532Y-49001826D01*
X41682532Y-49372826D01*
X41636656Y-49394218D01*
X41630206Y-49394500D01*
X39878227Y-49394500D01*
X39830661Y-49377187D01*
X39811985Y-49353485D01*
X39787242Y-49303794D01*
X39729673Y-49188179D01*
X39729670Y-49188175D01*
X39729670Y-49188174D01*
X39606766Y-49025424D01*
X39606764Y-49025421D01*
X39583470Y-49004186D01*
X39559983Y-48959347D01*
X39570812Y-48909900D01*
X39610892Y-48878982D01*
X39633325Y-48875500D01*
X42001206Y-48875500D01*
X42048772Y-48892813D01*
G37*
G04 #@! TD.AperFunction*
G04 #@! TA.AperFunction,NonConductor*
G36*
X42562829Y-49641082D02*
G01*
X42591863Y-49682546D01*
X42594068Y-49708526D01*
X42588373Y-49769995D01*
X42588373Y-49770003D01*
X42607639Y-49977924D01*
X42607641Y-49977937D01*
X42664787Y-50178785D01*
X42664788Y-50178790D01*
X42679411Y-50208155D01*
X42685116Y-50258451D01*
X42665495Y-50293466D01*
X42316136Y-50642826D01*
X42270260Y-50664218D01*
X42263810Y-50664500D01*
X39633325Y-50664500D01*
X39585759Y-50647187D01*
X39560449Y-50603350D01*
X39569239Y-50553500D01*
X39583471Y-50535813D01*
X39606764Y-50514579D01*
X39729673Y-50351821D01*
X39811985Y-50186514D01*
X39848685Y-50151653D01*
X39878227Y-50145500D01*
X41769779Y-50145500D01*
X41784963Y-50147074D01*
X41800664Y-50150367D01*
X41837432Y-50145783D01*
X41842011Y-50145500D01*
X41847507Y-50145500D01*
X41847510Y-50145500D01*
X41869783Y-50141782D01*
X41871283Y-50141564D01*
X41877000Y-50140851D01*
X41925022Y-50134866D01*
X41925025Y-50134864D01*
X41930903Y-50133115D01*
X41930983Y-50133386D01*
X41934300Y-50132323D01*
X41934208Y-50132055D01*
X41940002Y-50130065D01*
X41940006Y-50130065D01*
X41987631Y-50104290D01*
X41988931Y-50103622D01*
X42037607Y-50079826D01*
X42037609Y-50079823D01*
X42042600Y-50076261D01*
X42042765Y-50076493D01*
X42045554Y-50074414D01*
X42045379Y-50074189D01*
X42050217Y-50070422D01*
X42050217Y-50070421D01*
X42050222Y-50070419D01*
X42086931Y-50030541D01*
X42087913Y-50029518D01*
X42468059Y-49649372D01*
X42513934Y-49627981D01*
X42562829Y-49641082D01*
G37*
G04 #@! TD.AperFunction*
G04 #@! TA.AperFunction,NonConductor*
G36*
X42253481Y-51432813D02*
G01*
X42278791Y-51476650D01*
X42270001Y-51526500D01*
X42258241Y-51541826D01*
X41887241Y-51912826D01*
X41841365Y-51934218D01*
X41834915Y-51934500D01*
X39878227Y-51934500D01*
X39830661Y-51917187D01*
X39811985Y-51893485D01*
X39787242Y-51843794D01*
X39729673Y-51728179D01*
X39729670Y-51728175D01*
X39729670Y-51728174D01*
X39606766Y-51565424D01*
X39606764Y-51565421D01*
X39583470Y-51544186D01*
X39559983Y-51499347D01*
X39570812Y-51449900D01*
X39610892Y-51418982D01*
X39633325Y-51415500D01*
X42205915Y-51415500D01*
X42253481Y-51432813D01*
G37*
G04 #@! TD.AperFunction*
G04 #@! TA.AperFunction,NonConductor*
G36*
X42568605Y-52380015D02*
G01*
X42597639Y-52421479D01*
X42599844Y-52433804D01*
X42607639Y-52517924D01*
X42607641Y-52517937D01*
X42664787Y-52718785D01*
X42664788Y-52718790D01*
X42679411Y-52748155D01*
X42685116Y-52798451D01*
X42665495Y-52833466D01*
X42326136Y-53172826D01*
X42280260Y-53194218D01*
X42273810Y-53194500D01*
X39644294Y-53194500D01*
X39596728Y-53177187D01*
X39571418Y-53133350D01*
X39580208Y-53083500D01*
X39594441Y-53065813D01*
X39606764Y-53054579D01*
X39606765Y-53054578D01*
X39729670Y-52891825D01*
X39729670Y-52891824D01*
X39729673Y-52891821D01*
X39811985Y-52726514D01*
X39848685Y-52691653D01*
X39878227Y-52685500D01*
X41974488Y-52685500D01*
X41989672Y-52687074D01*
X42005373Y-52690367D01*
X42042141Y-52685783D01*
X42046720Y-52685500D01*
X42052216Y-52685500D01*
X42052219Y-52685500D01*
X42074492Y-52681782D01*
X42075992Y-52681564D01*
X42081709Y-52680851D01*
X42129731Y-52674866D01*
X42129734Y-52674864D01*
X42135612Y-52673115D01*
X42135692Y-52673386D01*
X42139009Y-52672323D01*
X42138917Y-52672055D01*
X42144711Y-52670065D01*
X42144715Y-52670065D01*
X42192340Y-52644290D01*
X42193640Y-52643622D01*
X42242316Y-52619826D01*
X42242318Y-52619823D01*
X42247309Y-52616261D01*
X42247474Y-52616493D01*
X42250263Y-52614414D01*
X42250088Y-52614189D01*
X42254926Y-52610422D01*
X42254926Y-52610421D01*
X42254931Y-52610419D01*
X42291640Y-52570541D01*
X42292622Y-52569518D01*
X42473835Y-52388305D01*
X42519710Y-52366914D01*
X42568605Y-52380015D01*
G37*
G04 #@! TD.AperFunction*
G04 #@! TA.AperFunction,NonConductor*
G36*
X42058772Y-53962813D02*
G01*
X42084082Y-54006650D01*
X42075292Y-54056500D01*
X42063532Y-54071826D01*
X41682532Y-54452826D01*
X41636656Y-54474218D01*
X41630206Y-54474500D01*
X39878227Y-54474500D01*
X39830661Y-54457187D01*
X39811985Y-54433485D01*
X39787242Y-54383794D01*
X39729673Y-54268179D01*
X39729670Y-54268175D01*
X39729670Y-54268174D01*
X39606765Y-54105421D01*
X39606764Y-54105420D01*
X39572502Y-54074187D01*
X39549013Y-54029348D01*
X39559842Y-53979901D01*
X39599921Y-53948982D01*
X39622355Y-53945500D01*
X42011206Y-53945500D01*
X42058772Y-53962813D01*
G37*
G04 #@! TD.AperFunction*
G04 #@! TA.AperFunction,NonConductor*
G36*
X42562829Y-54721082D02*
G01*
X42591863Y-54762546D01*
X42594068Y-54788526D01*
X42588373Y-54849995D01*
X42588373Y-54850003D01*
X42607639Y-55057924D01*
X42607641Y-55057937D01*
X42664787Y-55258785D01*
X42664788Y-55258790D01*
X42679411Y-55288155D01*
X42685116Y-55338451D01*
X42665495Y-55373466D01*
X42326136Y-55712826D01*
X42280260Y-55734218D01*
X42273810Y-55734500D01*
X39644294Y-55734500D01*
X39596728Y-55717187D01*
X39571418Y-55673350D01*
X39580208Y-55623500D01*
X39594441Y-55605813D01*
X39606764Y-55594579D01*
X39606765Y-55594578D01*
X39729670Y-55431825D01*
X39729670Y-55431824D01*
X39729673Y-55431821D01*
X39811985Y-55266514D01*
X39848685Y-55231653D01*
X39878227Y-55225500D01*
X41769779Y-55225500D01*
X41784963Y-55227074D01*
X41800664Y-55230367D01*
X41837432Y-55225783D01*
X41842011Y-55225500D01*
X41847507Y-55225500D01*
X41847510Y-55225500D01*
X41869783Y-55221782D01*
X41871283Y-55221564D01*
X41877000Y-55220851D01*
X41925022Y-55214866D01*
X41925025Y-55214864D01*
X41930903Y-55213115D01*
X41930983Y-55213386D01*
X41934300Y-55212323D01*
X41934208Y-55212055D01*
X41940002Y-55210065D01*
X41940006Y-55210065D01*
X41987631Y-55184290D01*
X41988931Y-55183622D01*
X42037607Y-55159826D01*
X42037609Y-55159823D01*
X42042600Y-55156261D01*
X42042765Y-55156493D01*
X42045554Y-55154414D01*
X42045379Y-55154189D01*
X42050217Y-55150422D01*
X42050217Y-55150421D01*
X42050222Y-55150419D01*
X42086931Y-55110541D01*
X42087913Y-55109518D01*
X42468059Y-54729372D01*
X42513934Y-54707981D01*
X42562829Y-54721082D01*
G37*
G04 #@! TD.AperFunction*
G04 #@! TA.AperFunction,NonConductor*
G36*
X42263481Y-56502813D02*
G01*
X42288791Y-56546650D01*
X42280001Y-56596500D01*
X42268241Y-56611826D01*
X41887241Y-56992826D01*
X41841365Y-57014218D01*
X41834915Y-57014500D01*
X39878227Y-57014500D01*
X39830661Y-56997187D01*
X39811985Y-56973485D01*
X39787242Y-56923794D01*
X39729673Y-56808179D01*
X39729670Y-56808175D01*
X39729670Y-56808174D01*
X39606765Y-56645421D01*
X39606764Y-56645420D01*
X39572502Y-56614187D01*
X39549013Y-56569348D01*
X39559842Y-56519901D01*
X39599921Y-56488982D01*
X39622355Y-56485500D01*
X42215915Y-56485500D01*
X42263481Y-56502813D01*
G37*
G04 #@! TD.AperFunction*
G04 #@! TA.AperFunction,NonConductor*
G36*
X42568605Y-57460015D02*
G01*
X42597639Y-57501479D01*
X42599844Y-57513804D01*
X42607639Y-57597924D01*
X42607641Y-57597937D01*
X42664788Y-57798788D01*
X42664789Y-57798791D01*
X42679411Y-57828157D01*
X42685114Y-57878453D01*
X42665494Y-57913466D01*
X42306136Y-58272826D01*
X42260260Y-58294218D01*
X42253810Y-58294500D01*
X39622355Y-58294500D01*
X39574789Y-58277187D01*
X39549479Y-58233350D01*
X39558269Y-58183500D01*
X39572502Y-58165813D01*
X39606764Y-58134579D01*
X39606765Y-58134578D01*
X39729670Y-57971825D01*
X39729670Y-57971824D01*
X39729673Y-57971821D01*
X39811985Y-57806514D01*
X39848685Y-57771653D01*
X39878227Y-57765500D01*
X41974488Y-57765500D01*
X41989672Y-57767074D01*
X42005373Y-57770367D01*
X42042141Y-57765783D01*
X42046720Y-57765500D01*
X42052216Y-57765500D01*
X42052219Y-57765500D01*
X42074492Y-57761782D01*
X42075992Y-57761564D01*
X42081709Y-57760851D01*
X42129731Y-57754866D01*
X42129734Y-57754864D01*
X42135612Y-57753115D01*
X42135692Y-57753386D01*
X42139009Y-57752323D01*
X42138917Y-57752055D01*
X42144711Y-57750065D01*
X42144715Y-57750065D01*
X42192340Y-57724290D01*
X42193640Y-57723622D01*
X42242316Y-57699826D01*
X42242318Y-57699823D01*
X42247309Y-57696261D01*
X42247474Y-57696493D01*
X42250263Y-57694414D01*
X42250088Y-57694189D01*
X42254926Y-57690422D01*
X42254926Y-57690421D01*
X42254931Y-57690419D01*
X42291640Y-57650541D01*
X42292622Y-57649518D01*
X42473835Y-57468305D01*
X42519710Y-57446914D01*
X42568605Y-57460015D01*
G37*
G04 #@! TD.AperFunction*
G04 #@! TA.AperFunction,NonConductor*
G36*
X42052376Y-59062813D02*
G01*
X42077686Y-59106650D01*
X42068896Y-59156500D01*
X42057136Y-59171826D01*
X41696136Y-59532826D01*
X41650260Y-59554218D01*
X41643810Y-59554500D01*
X39878227Y-59554500D01*
X39830661Y-59537187D01*
X39811985Y-59513485D01*
X39787242Y-59463794D01*
X39729673Y-59348179D01*
X39729670Y-59348175D01*
X39729670Y-59348174D01*
X39606765Y-59185421D01*
X39606764Y-59185420D01*
X39594441Y-59174187D01*
X39570952Y-59129348D01*
X39581781Y-59079901D01*
X39621860Y-59048983D01*
X39644294Y-59045500D01*
X42004810Y-59045500D01*
X42052376Y-59062813D01*
G37*
G04 #@! TD.AperFunction*
G04 #@! TA.AperFunction,NonConductor*
G36*
X42561440Y-59816075D02*
G01*
X42590474Y-59857539D01*
X42592679Y-59883519D01*
X42588373Y-59929995D01*
X42588373Y-59930003D01*
X42607639Y-60137924D01*
X42607641Y-60137937D01*
X42664787Y-60338785D01*
X42664788Y-60338790D01*
X42679411Y-60368155D01*
X42685116Y-60418451D01*
X42665495Y-60453466D01*
X42316136Y-60802826D01*
X42270260Y-60824218D01*
X42263810Y-60824500D01*
X39633325Y-60824500D01*
X39585759Y-60807187D01*
X39560449Y-60763350D01*
X39569239Y-60713500D01*
X39583471Y-60695813D01*
X39606764Y-60674579D01*
X39729673Y-60511821D01*
X39811985Y-60346514D01*
X39848685Y-60311653D01*
X39878227Y-60305500D01*
X41783383Y-60305500D01*
X41798567Y-60307074D01*
X41814268Y-60310367D01*
X41851036Y-60305783D01*
X41855615Y-60305500D01*
X41861111Y-60305500D01*
X41861114Y-60305500D01*
X41883387Y-60301782D01*
X41884887Y-60301564D01*
X41890604Y-60300851D01*
X41938626Y-60294866D01*
X41938629Y-60294864D01*
X41944507Y-60293115D01*
X41944587Y-60293386D01*
X41947904Y-60292323D01*
X41947812Y-60292055D01*
X41953606Y-60290065D01*
X41953610Y-60290065D01*
X42001235Y-60264290D01*
X42002535Y-60263622D01*
X42051211Y-60239826D01*
X42051213Y-60239823D01*
X42056204Y-60236261D01*
X42056369Y-60236493D01*
X42059158Y-60234414D01*
X42058983Y-60234189D01*
X42063821Y-60230422D01*
X42063821Y-60230421D01*
X42063826Y-60230419D01*
X42100535Y-60190541D01*
X42101517Y-60189518D01*
X42466670Y-59824365D01*
X42512545Y-59802974D01*
X42561440Y-59816075D01*
G37*
G04 #@! TD.AperFunction*
G04 #@! TA.AperFunction,NonConductor*
G36*
X42253481Y-61592813D02*
G01*
X42278791Y-61636650D01*
X42270001Y-61686500D01*
X42258241Y-61701826D01*
X41887241Y-62072826D01*
X41841365Y-62094218D01*
X41834915Y-62094500D01*
X39878227Y-62094500D01*
X39830661Y-62077187D01*
X39811985Y-62053485D01*
X39787242Y-62003794D01*
X39729673Y-61888179D01*
X39729670Y-61888175D01*
X39729670Y-61888174D01*
X39606766Y-61725424D01*
X39606764Y-61725421D01*
X39583470Y-61704186D01*
X39559983Y-61659347D01*
X39570812Y-61609900D01*
X39610892Y-61578982D01*
X39633325Y-61575500D01*
X42205915Y-61575500D01*
X42253481Y-61592813D01*
G37*
G04 #@! TD.AperFunction*
G04 #@! TA.AperFunction,NonConductor*
G36*
X42568605Y-62540015D02*
G01*
X42597639Y-62581479D01*
X42599844Y-62593804D01*
X42607639Y-62677924D01*
X42607641Y-62677937D01*
X42664787Y-62878785D01*
X42664788Y-62878790D01*
X42679411Y-62908155D01*
X42685116Y-62958451D01*
X42665495Y-62993466D01*
X42316136Y-63342826D01*
X42270260Y-63364218D01*
X42263810Y-63364500D01*
X39633325Y-63364500D01*
X39585759Y-63347187D01*
X39560449Y-63303350D01*
X39569239Y-63253500D01*
X39583471Y-63235813D01*
X39606764Y-63214579D01*
X39729673Y-63051821D01*
X39811985Y-62886514D01*
X39848685Y-62851653D01*
X39878227Y-62845500D01*
X41974488Y-62845500D01*
X41989672Y-62847074D01*
X42005373Y-62850367D01*
X42042141Y-62845783D01*
X42046720Y-62845500D01*
X42052216Y-62845500D01*
X42052219Y-62845500D01*
X42074492Y-62841782D01*
X42075992Y-62841564D01*
X42081709Y-62840851D01*
X42129731Y-62834866D01*
X42129734Y-62834864D01*
X42135612Y-62833115D01*
X42135692Y-62833386D01*
X42139009Y-62832323D01*
X42138917Y-62832055D01*
X42144711Y-62830065D01*
X42144715Y-62830065D01*
X42192340Y-62804290D01*
X42193640Y-62803622D01*
X42242316Y-62779826D01*
X42242318Y-62779823D01*
X42247309Y-62776261D01*
X42247474Y-62776493D01*
X42250263Y-62774414D01*
X42250088Y-62774189D01*
X42254926Y-62770422D01*
X42254926Y-62770421D01*
X42254931Y-62770419D01*
X42291640Y-62730541D01*
X42292622Y-62729518D01*
X42473835Y-62548305D01*
X42519710Y-62526914D01*
X42568605Y-62540015D01*
G37*
G04 #@! TD.AperFunction*
G04 #@! TA.AperFunction,NonConductor*
G36*
X48087967Y-64852813D02*
G01*
X48113277Y-64896650D01*
X48104487Y-64946500D01*
X48090254Y-64964187D01*
X47968235Y-65075420D01*
X47968234Y-65075421D01*
X47845329Y-65238174D01*
X47845328Y-65238177D01*
X47754418Y-65420750D01*
X47754416Y-65420755D01*
X47698602Y-65616917D01*
X47698601Y-65616923D01*
X47679785Y-65819996D01*
X47679785Y-65820003D01*
X47698601Y-66023076D01*
X47698602Y-66023082D01*
X47729248Y-66130788D01*
X47754418Y-66219250D01*
X47845327Y-66401821D01*
X47845328Y-66401822D01*
X47845329Y-66401825D01*
X47968234Y-66564578D01*
X47968235Y-66564579D01*
X48024437Y-66615813D01*
X48047926Y-66660652D01*
X48037097Y-66710100D01*
X47997018Y-66741018D01*
X47974584Y-66744500D01*
X47055416Y-66744500D01*
X47007850Y-66727187D01*
X46982540Y-66683350D01*
X46991330Y-66633500D01*
X47005563Y-66615813D01*
X47061764Y-66564579D01*
X47061765Y-66564578D01*
X47184670Y-66401825D01*
X47184670Y-66401824D01*
X47184673Y-66401821D01*
X47275582Y-66219250D01*
X47331397Y-66023083D01*
X47331683Y-66020003D01*
X47350215Y-65820003D01*
X47350215Y-65819996D01*
X47331398Y-65616923D01*
X47331397Y-65616917D01*
X47275583Y-65420755D01*
X47275582Y-65420750D01*
X47184673Y-65238179D01*
X47184670Y-65238175D01*
X47184670Y-65238174D01*
X47061765Y-65075421D01*
X47061764Y-65075420D01*
X46939746Y-64964187D01*
X46916257Y-64919347D01*
X46927086Y-64869900D01*
X46967166Y-64838982D01*
X46989599Y-64835500D01*
X48040401Y-64835500D01*
X48087967Y-64852813D01*
G37*
G04 #@! TD.AperFunction*
G04 #@! TA.AperFunction,NonConductor*
G36*
X45547967Y-64852813D02*
G01*
X45573277Y-64896650D01*
X45564487Y-64946500D01*
X45550254Y-64964187D01*
X45428235Y-65075420D01*
X45428234Y-65075421D01*
X45305329Y-65238174D01*
X45305328Y-65238177D01*
X45214418Y-65420750D01*
X45214416Y-65420755D01*
X45158602Y-65616917D01*
X45158601Y-65616923D01*
X45139785Y-65819996D01*
X45139785Y-65820003D01*
X45158601Y-66023076D01*
X45158602Y-66023082D01*
X45189248Y-66130788D01*
X45214418Y-66219250D01*
X45305327Y-66401821D01*
X45305328Y-66401822D01*
X45305329Y-66401825D01*
X45428234Y-66564578D01*
X45428235Y-66564579D01*
X45484437Y-66615813D01*
X45507926Y-66660652D01*
X45497097Y-66710100D01*
X45457018Y-66741018D01*
X45434584Y-66744500D01*
X44748584Y-66744500D01*
X44701018Y-66727187D01*
X44675708Y-66683350D01*
X44684498Y-66633500D01*
X44685256Y-66632217D01*
X44750512Y-66524270D01*
X44799315Y-66367657D01*
X44805500Y-66299594D01*
X44805500Y-65340406D01*
X44799315Y-65272343D01*
X44750512Y-65115730D01*
X44665648Y-64975347D01*
X44652127Y-64961825D01*
X44630735Y-64915950D01*
X44643836Y-64867055D01*
X44685300Y-64838021D01*
X44704453Y-64835500D01*
X45500401Y-64835500D01*
X45547967Y-64852813D01*
G37*
G04 #@! TD.AperFunction*
G04 #@! TA.AperFunction,NonConductor*
G36*
X41897350Y-69493889D02*
G01*
X41923148Y-69518830D01*
X41964748Y-69585571D01*
X42104941Y-69733053D01*
X42271951Y-69849295D01*
X42458942Y-69929540D01*
X42458947Y-69929541D01*
X42658252Y-69970499D01*
X42658257Y-69970499D01*
X42658259Y-69970500D01*
X42658260Y-69970500D01*
X43110741Y-69970500D01*
X43110742Y-69970500D01*
X43160341Y-69965456D01*
X43262434Y-69955075D01*
X43262436Y-69955074D01*
X43262438Y-69955074D01*
X43296994Y-69944231D01*
X43347560Y-69946509D01*
X43371474Y-69962511D01*
X43821518Y-70412555D01*
X43831142Y-70424406D01*
X43839915Y-70437834D01*
X43839918Y-70437838D01*
X43869154Y-70460594D01*
X43872591Y-70463628D01*
X43876484Y-70467521D01*
X43894858Y-70480639D01*
X43896085Y-70481554D01*
X43899760Y-70484414D01*
X43938811Y-70514809D01*
X43938812Y-70514809D01*
X43938813Y-70514810D01*
X43944206Y-70517729D01*
X43944071Y-70517977D01*
X43947170Y-70519572D01*
X43947295Y-70519318D01*
X43952799Y-70522009D01*
X43952800Y-70522009D01*
X43952801Y-70522010D01*
X43981294Y-70530492D01*
X44004675Y-70537454D01*
X44006107Y-70537912D01*
X44022053Y-70543386D01*
X44057338Y-70555500D01*
X44063385Y-70556509D01*
X44063338Y-70556785D01*
X44066792Y-70557289D01*
X44066827Y-70557009D01*
X44072904Y-70557766D01*
X44072911Y-70557768D01*
X44105910Y-70556403D01*
X44126996Y-70555532D01*
X44128524Y-70555500D01*
X44960453Y-70555500D01*
X45008019Y-70572813D01*
X45033329Y-70616650D01*
X45024539Y-70666500D01*
X44997851Y-70692635D01*
X44997896Y-70692696D01*
X44997484Y-70692994D01*
X44996106Y-70694345D01*
X44994133Y-70695429D01*
X44861162Y-70792037D01*
X44756402Y-70918669D01*
X44756397Y-70918678D01*
X44686421Y-71067384D01*
X44686419Y-71067391D01*
X44655624Y-71228826D01*
X44665943Y-71392856D01*
X44665944Y-71392862D01*
X44716729Y-71549165D01*
X44716733Y-71549173D01*
X44804794Y-71687935D01*
X44804796Y-71687937D01*
X44804798Y-71687940D01*
X44920463Y-71796557D01*
X44943285Y-71841738D01*
X44931727Y-71891020D01*
X44891194Y-71921342D01*
X44869806Y-71924500D01*
X43166189Y-71924500D01*
X43118623Y-71907187D01*
X43113863Y-71902826D01*
X41808024Y-70596986D01*
X41786632Y-70551109D01*
X41786350Y-70544660D01*
X41786350Y-69557975D01*
X41803663Y-69510409D01*
X41847500Y-69485099D01*
X41897350Y-69493889D01*
G37*
G04 #@! TD.AperFunction*
M02*
