G04 #@! TF.GenerationSoftware,KiCad,Pcbnew,7.0.5*
G04 #@! TF.CreationDate,2023-06-22T10:07:33+08:00*
G04 #@! TF.ProjectId,handwire microboard,68616e64-7769-4726-9520-6d6963726f62,rev?*
G04 #@! TF.SameCoordinates,Original*
G04 #@! TF.FileFunction,Copper,L1,Top*
G04 #@! TF.FilePolarity,Positive*
%FSLAX46Y46*%
G04 Gerber Fmt 4.6, Leading zero omitted, Abs format (unit mm)*
G04 Created by KiCad (PCBNEW 7.0.5) date 2023-06-22 10:07:33*
%MOMM*%
%LPD*%
G01*
G04 APERTURE LIST*
G04 Aperture macros list*
%AMRoundRect*
0 Rectangle with rounded corners*
0 $1 Rounding radius*
0 $2 $3 $4 $5 $6 $7 $8 $9 X,Y pos of 4 corners*
0 Add a 4 corners polygon primitive as box body*
4,1,4,$2,$3,$4,$5,$6,$7,$8,$9,$2,$3,0*
0 Add four circle primitives for the rounded corners*
1,1,$1+$1,$2,$3*
1,1,$1+$1,$4,$5*
1,1,$1+$1,$6,$7*
1,1,$1+$1,$8,$9*
0 Add four rect primitives between the rounded corners*
20,1,$1+$1,$2,$3,$4,$5,0*
20,1,$1+$1,$4,$5,$6,$7,0*
20,1,$1+$1,$6,$7,$8,$9,0*
20,1,$1+$1,$8,$9,$2,$3,0*%
%AMOutline4P*
0 Free polygon, 4 corners , with rotation*
0 The origin of the aperture is its center*
0 number of corners: always 4*
0 $1 to $8 corner X, Y*
0 $9 Rotation angle, in degrees counterclockwise*
0 create outline with 4 corners*
4,1,4,$1,$2,$3,$4,$5,$6,$7,$8,$1,$2,$9*%
G04 Aperture macros list end*
G04 #@! TA.AperFunction,ComponentPad*
%ADD10C,1.700000*%
G04 #@! TD*
G04 #@! TA.AperFunction,ComponentPad*
%ADD11O,1.700000X1.700000*%
G04 #@! TD*
G04 #@! TA.AperFunction,ComponentPad*
%ADD12Outline4P,-0.850000X-0.850000X0.850000X-0.850000X0.850000X0.850000X-0.850000X0.850000X90.000000*%
G04 #@! TD*
G04 #@! TA.AperFunction,ComponentPad*
%ADD13O,1.576000X3.029000*%
G04 #@! TD*
G04 #@! TA.AperFunction,ComponentPad*
%ADD14O,1.600000X2.000000*%
G04 #@! TD*
G04 #@! TA.AperFunction,ComponentPad*
%ADD15C,2.000000*%
G04 #@! TD*
G04 #@! TA.AperFunction,ComponentPad*
%ADD16C,1.752600*%
G04 #@! TD*
G04 #@! TA.AperFunction,ComponentPad*
%ADD17Outline4P,-0.876300X-0.876300X0.876300X-0.876300X0.876300X0.876300X-0.876300X0.876300X270.000000*%
G04 #@! TD*
G04 #@! TA.AperFunction,ComponentPad*
%ADD18R,1.752600X1.752600*%
G04 #@! TD*
G04 #@! TA.AperFunction,ComponentPad*
%ADD19RoundRect,0.438150X-0.438150X0.438150X-0.438150X-0.438150X0.438150X-0.438150X0.438150X0.438150X0*%
G04 #@! TD*
G04 #@! TA.AperFunction,ComponentPad*
%ADD20O,3.029000X1.576000*%
G04 #@! TD*
G04 #@! TA.AperFunction,ComponentPad*
%ADD21O,2.000000X1.600000*%
G04 #@! TD*
G04 #@! TA.AperFunction,ViaPad*
%ADD22C,0.800000*%
G04 #@! TD*
G04 #@! TA.AperFunction,Conductor*
%ADD23C,0.250000*%
G04 #@! TD*
G04 APERTURE END LIST*
D10*
X86490000Y-118910000D03*
D11*
X89030000Y-118910000D03*
X91570000Y-118910000D03*
X94110000Y-118910000D03*
X96650000Y-118910000D03*
X99190000Y-118910000D03*
X101730000Y-118910000D03*
X104270000Y-118910000D03*
X106810000Y-118910000D03*
X109350000Y-118910000D03*
D12*
X111890000Y-118910000D03*
D13*
X109663200Y-95057850D03*
X114263200Y-95062850D03*
D14*
X109677200Y-90485850D03*
X114263200Y-90462850D03*
X109677200Y-87437850D03*
X114263200Y-87462850D03*
D10*
X110634400Y-102387400D03*
D11*
X110634400Y-104927400D03*
X110634400Y-107467400D03*
X110634400Y-110007400D03*
X110634400Y-112547400D03*
X110634400Y-115087400D03*
D15*
X106830000Y-126913200D03*
X100330000Y-126913200D03*
X106830000Y-122413200D03*
X100330000Y-122413200D03*
D16*
X91567000Y-87152950D03*
X91567000Y-89692950D03*
D17*
X91567000Y-92232950D03*
D18*
X91567000Y-94772950D03*
D16*
X91567000Y-97312950D03*
X91567000Y-99852950D03*
X91567000Y-102392950D03*
X91567000Y-104932950D03*
X91567000Y-107472950D03*
X91567000Y-110012950D03*
X91567000Y-112552950D03*
X91567000Y-115092950D03*
X106807000Y-115092950D03*
X106807000Y-112552950D03*
X106807000Y-110012950D03*
X106807000Y-107472950D03*
X106807000Y-104932950D03*
X106807000Y-102392950D03*
X106807000Y-99852950D03*
X106807000Y-97312950D03*
D19*
X106807000Y-94772950D03*
D16*
X106807000Y-92232950D03*
D17*
X106807000Y-89692950D03*
D16*
X106807000Y-87152950D03*
X94107000Y-115092950D03*
X96647000Y-115092950D03*
X99187000Y-115092950D03*
X101727000Y-115092950D03*
X104267000Y-115092950D03*
D10*
X84050000Y-115090000D03*
D11*
X84050000Y-112550000D03*
X84050000Y-110010000D03*
X84050000Y-107470000D03*
X84050000Y-104930000D03*
X84050000Y-102390000D03*
X84050000Y-99850000D03*
D10*
X114266600Y-115110000D03*
D11*
X114266600Y-112570000D03*
X114266600Y-110030000D03*
X114266600Y-107490000D03*
X114266600Y-104950000D03*
X114266600Y-102410000D03*
X114266600Y-99870000D03*
D20*
X95472250Y-127090200D03*
X95477250Y-122490200D03*
D21*
X90900250Y-127076200D03*
X90877250Y-122490200D03*
X87852250Y-127076200D03*
X87877250Y-122490200D03*
D10*
X87739600Y-102362000D03*
D11*
X87739600Y-104902000D03*
X87739600Y-107442000D03*
X87739600Y-109982000D03*
X87739600Y-112522000D03*
X87739600Y-115062000D03*
D22*
X86502475Y-94757475D03*
D23*
X85250400Y-116332000D02*
X84056600Y-115138200D01*
X90327950Y-116332000D02*
X85250400Y-116332000D01*
X114266600Y-115138200D02*
X113047400Y-116357400D01*
X91567000Y-115092950D02*
X90327950Y-116332000D01*
X92831450Y-116357400D02*
X91567000Y-115092950D01*
X113047400Y-116357400D02*
X92831450Y-116357400D01*
X106172000Y-113817400D02*
X104907550Y-112552950D01*
X90327950Y-113792000D02*
X85250400Y-113792000D01*
X113047400Y-113817400D02*
X106172000Y-113817400D01*
X104907550Y-112552950D02*
X91567000Y-112552950D01*
X114266600Y-112598200D02*
X113047400Y-113817400D01*
X91567000Y-112552950D02*
X90327950Y-113792000D01*
X85250400Y-113792000D02*
X84056600Y-112598200D01*
X114266600Y-110058200D02*
X113047400Y-111277400D01*
X113047400Y-111277400D02*
X106167846Y-111277400D01*
X104903396Y-110012950D02*
X91567000Y-110012950D01*
X85250400Y-111252000D02*
X84056600Y-110058200D01*
X90327950Y-111252000D02*
X85250400Y-111252000D01*
X91567000Y-110012950D02*
X90327950Y-111252000D01*
X106167846Y-111277400D02*
X104903396Y-110012950D01*
X114266600Y-107518200D02*
X113047400Y-108737400D01*
X91567000Y-107472950D02*
X90327950Y-108712000D01*
X113047400Y-108737400D02*
X106167846Y-108737400D01*
X106167846Y-108737400D02*
X104903396Y-107472950D01*
X104903396Y-107472950D02*
X91567000Y-107472950D01*
X84785200Y-107518200D02*
X84056600Y-107518200D01*
X85979000Y-108712000D02*
X84785200Y-107518200D01*
X90327950Y-108712000D02*
X85979000Y-108712000D01*
X106167846Y-106197400D02*
X104903396Y-104932950D01*
X85250400Y-106172000D02*
X84056600Y-104978200D01*
X114266600Y-104978200D02*
X113047400Y-106197400D01*
X90327950Y-106172000D02*
X85250400Y-106172000D01*
X113047400Y-106197400D02*
X106167846Y-106197400D01*
X91567000Y-104932950D02*
X90327950Y-106172000D01*
X104903396Y-104932950D02*
X91567000Y-104932950D01*
X104903396Y-102392950D02*
X91567000Y-102392950D01*
X106167846Y-103657400D02*
X104903396Y-102392950D01*
X113047400Y-103657400D02*
X106167846Y-103657400D01*
X85250400Y-103632000D02*
X84056600Y-102438200D01*
X114266600Y-102438200D02*
X113047400Y-103657400D01*
X91567000Y-102392950D02*
X90327950Y-103632000D01*
X90327950Y-103632000D02*
X85250400Y-103632000D01*
X92842550Y-98577400D02*
X112974000Y-98577400D01*
X84056600Y-99898200D02*
X91521750Y-99898200D01*
X91567000Y-99852950D02*
X92842550Y-98577400D01*
X91521750Y-99898200D02*
X91567000Y-99852950D01*
X112974000Y-98577400D02*
X114266600Y-99870000D01*
X87739600Y-115062000D02*
X89763600Y-115062000D01*
X106807000Y-115092950D02*
X110628850Y-115092950D01*
X110628850Y-115092950D02*
X110634400Y-115087400D01*
X89763600Y-115062000D02*
X90982800Y-113842800D01*
X105556850Y-113842800D02*
X106807000Y-115092950D01*
X90982800Y-113842800D02*
X105556850Y-113842800D01*
X106807000Y-112552950D02*
X110628850Y-112552950D01*
X110628850Y-112552950D02*
X110634400Y-112547400D01*
X91008200Y-111302800D02*
X105556850Y-111302800D01*
X87739600Y-112522000D02*
X89789000Y-112522000D01*
X89789000Y-112522000D02*
X91008200Y-111302800D01*
X105556850Y-111302800D02*
X106807000Y-112552950D01*
X87739600Y-109982000D02*
X89712800Y-109982000D01*
X105531450Y-108737400D02*
X106807000Y-110012950D01*
X89712800Y-109982000D02*
X90957400Y-108737400D01*
X110628850Y-110012950D02*
X110634400Y-110007400D01*
X90957400Y-108737400D02*
X105531450Y-108737400D01*
X106807000Y-110012950D02*
X110628850Y-110012950D01*
X87739600Y-107442000D02*
X89763600Y-107442000D01*
X106807000Y-107472950D02*
X110628850Y-107472950D01*
X91008200Y-106197400D02*
X105531450Y-106197400D01*
X89763600Y-107442000D02*
X91008200Y-106197400D01*
X110628850Y-107472950D02*
X110634400Y-107467400D01*
X105531450Y-106197400D02*
X106807000Y-107472950D01*
X87739600Y-104902000D02*
X89763600Y-104902000D01*
X105531450Y-103657400D02*
X106807000Y-104932950D01*
X110628850Y-104932950D02*
X110634400Y-104927400D01*
X91008200Y-103657400D02*
X105531450Y-103657400D01*
X106807000Y-104932950D02*
X110628850Y-104932950D01*
X89763600Y-104902000D02*
X91008200Y-103657400D01*
X110628850Y-102392950D02*
X110634400Y-102387400D01*
X87739600Y-102362000D02*
X88984200Y-101117400D01*
X105531450Y-101117400D02*
X106807000Y-102392950D01*
X106807000Y-102392950D02*
X110628850Y-102392950D01*
X88984200Y-101117400D02*
X105531450Y-101117400D01*
X109677200Y-90485850D02*
X107599900Y-90485850D01*
X109677200Y-90485850D02*
X114240200Y-90485850D01*
X107599900Y-90485850D02*
X106807000Y-89692950D01*
X90900250Y-127076200D02*
X92094050Y-125882400D01*
X114240200Y-90485850D02*
X114263200Y-90462850D01*
X100330000Y-126913200D02*
X106830000Y-126913200D01*
X106807000Y-89692950D02*
X94107000Y-89692950D01*
X99299200Y-125882400D02*
X100330000Y-126913200D01*
X92094050Y-125882400D02*
X99299200Y-125882400D01*
X94107000Y-89692950D02*
X91567000Y-92232950D01*
X100330000Y-122413200D02*
X106830000Y-122413200D01*
X113665000Y-88976200D02*
X114263200Y-88378000D01*
X114263200Y-88378000D02*
X114263200Y-87462850D01*
X86502475Y-94757475D02*
X91567000Y-89692950D01*
X108697650Y-88417400D02*
X109677200Y-87437850D01*
X109677200Y-87437850D02*
X109677200Y-88290400D01*
X109677200Y-88290400D02*
X110363000Y-88976200D01*
X92842550Y-88417400D02*
X108697650Y-88417400D01*
X110363000Y-88976200D02*
X113665000Y-88976200D01*
X91567000Y-89692950D02*
X92842550Y-88417400D01*
X107091900Y-95057850D02*
X106807000Y-94772950D01*
X109663200Y-95057850D02*
X107091900Y-95057850D01*
X114258200Y-95057850D02*
X114263200Y-95062850D01*
X109663200Y-95057850D02*
X114258200Y-95057850D01*
M02*
