G04 #@! TF.GenerationSoftware,KiCad,Pcbnew,7.0.5*
G04 #@! TF.CreationDate,2023-08-14T09:49:52+08:00*
G04 #@! TF.ProjectId,handwire microboard,68616e64-7769-4726-9520-6d6963726f62,rev?*
G04 #@! TF.SameCoordinates,Original*
G04 #@! TF.FileFunction,Copper,L2,Bot*
G04 #@! TF.FilePolarity,Positive*
%FSLAX46Y46*%
G04 Gerber Fmt 4.6, Leading zero omitted, Abs format (unit mm)*
G04 Created by KiCad (PCBNEW 7.0.5) date 2023-08-14 09:49:52*
%MOMM*%
%LPD*%
G01*
G04 APERTURE LIST*
G04 Aperture macros list*
%AMRoundRect*
0 Rectangle with rounded corners*
0 $1 Rounding radius*
0 $2 $3 $4 $5 $6 $7 $8 $9 X,Y pos of 4 corners*
0 Add a 4 corners polygon primitive as box body*
4,1,4,$2,$3,$4,$5,$6,$7,$8,$9,$2,$3,0*
0 Add four circle primitives for the rounded corners*
1,1,$1+$1,$2,$3*
1,1,$1+$1,$4,$5*
1,1,$1+$1,$6,$7*
1,1,$1+$1,$8,$9*
0 Add four rect primitives between the rounded corners*
20,1,$1+$1,$2,$3,$4,$5,0*
20,1,$1+$1,$4,$5,$6,$7,0*
20,1,$1+$1,$6,$7,$8,$9,0*
20,1,$1+$1,$8,$9,$2,$3,0*%
%AMOutline4P*
0 Free polygon, 4 corners , with rotation*
0 The origin of the aperture is its center*
0 number of corners: always 4*
0 $1 to $8 corner X, Y*
0 $9 Rotation angle, in degrees counterclockwise*
0 create outline with 4 corners*
4,1,4,$1,$2,$3,$4,$5,$6,$7,$8,$1,$2,$9*%
G04 Aperture macros list end*
G04 #@! TA.AperFunction,ComponentPad*
%ADD10O,3.029000X1.576000*%
G04 #@! TD*
G04 #@! TA.AperFunction,ComponentPad*
%ADD11O,1.800000X1.500000*%
G04 #@! TD*
G04 #@! TA.AperFunction,ComponentPad*
%ADD12C,2.000000*%
G04 #@! TD*
G04 #@! TA.AperFunction,ComponentPad*
%ADD13C,1.752600*%
G04 #@! TD*
G04 #@! TA.AperFunction,ComponentPad*
%ADD14RoundRect,0.438150X-0.438150X0.438150X-0.438150X-0.438150X0.438150X-0.438150X0.438150X0.438150X0*%
G04 #@! TD*
G04 #@! TA.AperFunction,ComponentPad*
%ADD15Outline4P,-0.876300X-0.876300X0.876300X-0.876300X0.876300X0.876300X-0.876300X0.876300X270.000000*%
G04 #@! TD*
G04 #@! TA.AperFunction,ComponentPad*
%ADD16C,1.700000*%
G04 #@! TD*
G04 #@! TA.AperFunction,ComponentPad*
%ADD17O,1.700000X1.700000*%
G04 #@! TD*
G04 #@! TA.AperFunction,ComponentPad*
%ADD18O,1.576000X3.029000*%
G04 #@! TD*
G04 #@! TA.AperFunction,ComponentPad*
%ADD19O,1.500000X1.800000*%
G04 #@! TD*
G04 #@! TA.AperFunction,ComponentPad*
%ADD20RoundRect,0.425000X0.425000X-0.425000X0.425000X0.425000X-0.425000X0.425000X-0.425000X-0.425000X0*%
G04 #@! TD*
G04 #@! TA.AperFunction,ViaPad*
%ADD21C,0.800000*%
G04 #@! TD*
G04 #@! TA.AperFunction,Conductor*
%ADD22C,0.250000*%
G04 #@! TD*
G04 APERTURE END LIST*
D10*
X47505000Y-73576000D03*
X47510000Y-68970000D03*
D11*
X42933000Y-73576000D03*
X42910000Y-68970000D03*
X39885000Y-73576000D03*
X39910000Y-68970000D03*
D12*
X52320000Y-69180000D03*
X58820000Y-69180000D03*
X52320000Y-73680000D03*
X58820000Y-73680000D03*
D13*
X43720000Y-34530000D03*
X43720000Y-37070000D03*
D14*
X43720000Y-39610000D03*
X43720000Y-42150000D03*
D13*
X43720000Y-44690000D03*
X43720000Y-47230000D03*
X43720000Y-49770000D03*
X43720000Y-52310000D03*
X43720000Y-54850000D03*
X43720000Y-57390000D03*
X43720000Y-59930000D03*
X43720000Y-62470000D03*
X58960000Y-62470000D03*
X58960000Y-59930000D03*
X58960000Y-57390000D03*
X58960000Y-54850000D03*
X58960000Y-52310000D03*
X58960000Y-49770000D03*
X58960000Y-47230000D03*
X58960000Y-44690000D03*
D15*
X58960000Y-42150000D03*
D13*
X58960000Y-39610000D03*
D14*
X58960000Y-37070000D03*
D13*
X58960000Y-34530000D03*
X46260000Y-62470000D03*
X48800000Y-62470000D03*
X51340000Y-62470000D03*
X53880000Y-62470000D03*
X56420000Y-62470000D03*
D16*
X36250000Y-44690000D03*
D17*
X36250000Y-47230000D03*
X36250000Y-49770000D03*
X36250000Y-52310000D03*
X36250000Y-54850000D03*
X36250000Y-57390000D03*
X36250000Y-59930000D03*
X36250000Y-62470000D03*
X36250000Y-65010000D03*
X38790000Y-44690000D03*
X38790000Y-47230000D03*
X38790000Y-49770000D03*
X38790000Y-52310000D03*
X38790000Y-54850000D03*
X38790000Y-57390000D03*
X38790000Y-59930000D03*
X38790000Y-62470000D03*
X38790000Y-65010000D03*
X66470000Y-44690000D03*
X66470000Y-47230000D03*
X66470000Y-49770000D03*
X66470000Y-52310000D03*
X66470000Y-54850000D03*
X66470000Y-57390000D03*
X66470000Y-59930000D03*
X66470000Y-62470000D03*
X66470000Y-65010000D03*
D16*
X63930000Y-44690000D03*
D17*
X63930000Y-47230000D03*
X63930000Y-49770000D03*
X63930000Y-52310000D03*
X63930000Y-54850000D03*
X63930000Y-57390000D03*
X63930000Y-59930000D03*
X63930000Y-62470000D03*
X63930000Y-65010000D03*
D18*
X62084000Y-41158500D03*
X66690000Y-41163500D03*
D19*
X62084000Y-36586500D03*
X66690000Y-36563500D03*
X62084000Y-33538500D03*
X66690000Y-33563500D03*
D20*
X43705000Y-65820000D03*
D17*
X46245000Y-65820000D03*
X48785000Y-65820000D03*
X51325000Y-65820000D03*
X53865000Y-65820000D03*
X56405000Y-65820000D03*
D20*
X58945000Y-65820000D03*
D21*
X41430000Y-42180000D03*
X50150000Y-68650000D03*
X40660000Y-66020000D03*
X54820000Y-42640000D03*
X41410850Y-67754819D03*
X41430000Y-45235500D03*
D22*
X65190000Y-63730000D02*
X61918895Y-63730000D01*
X44980000Y-61210000D02*
X43720000Y-62470000D01*
X59398895Y-61210000D02*
X44980000Y-61210000D01*
X61918895Y-63730000D02*
X59398895Y-61210000D01*
X66470000Y-65010000D02*
X65190000Y-63730000D01*
X63528299Y-61190000D02*
X65190000Y-61190000D01*
X60988299Y-58650000D02*
X63528299Y-61190000D01*
X65190000Y-61190000D02*
X66470000Y-62470000D01*
X43720000Y-59930000D02*
X45000000Y-58650000D01*
X45000000Y-58650000D02*
X60988299Y-58650000D01*
X65190000Y-58650000D02*
X61918895Y-58650000D01*
X59378895Y-56110000D02*
X45000000Y-56110000D01*
X66470000Y-59930000D02*
X65190000Y-58650000D01*
X61918895Y-58650000D02*
X59378895Y-56110000D01*
X45000000Y-56110000D02*
X43720000Y-57390000D01*
X60988299Y-53570000D02*
X63528299Y-56110000D01*
X65190000Y-56110000D02*
X66470000Y-57390000D01*
X45000000Y-53570000D02*
X60988299Y-53570000D01*
X43720000Y-54850000D02*
X45000000Y-53570000D01*
X63528299Y-56110000D02*
X65190000Y-56110000D01*
X65200000Y-53580000D02*
X61928895Y-53580000D01*
X61928895Y-53580000D02*
X59368895Y-51020000D01*
X45010000Y-51020000D02*
X43720000Y-52310000D01*
X59368895Y-51020000D02*
X45010000Y-51020000D01*
X66470000Y-54850000D02*
X65200000Y-53580000D01*
X45000000Y-48490000D02*
X60670000Y-48490000D01*
X63220000Y-51040000D02*
X65200000Y-51040000D01*
X43720000Y-49770000D02*
X45000000Y-48490000D01*
X60670000Y-48490000D02*
X63220000Y-51040000D01*
X65200000Y-51040000D02*
X66470000Y-52310000D01*
X65200000Y-48500000D02*
X61928895Y-48500000D01*
X45000000Y-45950000D02*
X43720000Y-47230000D01*
X66470000Y-49770000D02*
X65200000Y-48500000D01*
X61928895Y-48500000D02*
X59378895Y-45950000D01*
X59378895Y-45950000D02*
X45000000Y-45950000D01*
X63930000Y-40140000D02*
X62150000Y-38360000D01*
X47550000Y-38360000D02*
X43720000Y-34530000D01*
X62150000Y-38360000D02*
X47550000Y-38360000D01*
X43720000Y-34530000D02*
X38790000Y-39460000D01*
X63930000Y-44690000D02*
X63930000Y-40140000D01*
X38790000Y-39460000D02*
X38790000Y-44690000D01*
X43720000Y-44690000D02*
X44990000Y-43420000D01*
X65180000Y-45940000D02*
X66470000Y-47230000D01*
X60998299Y-43420000D02*
X63518299Y-45940000D01*
X63518299Y-45940000D02*
X65180000Y-45940000D01*
X45020000Y-43400000D02*
X61028299Y-43400000D01*
X46260000Y-62470000D02*
X46260000Y-65805000D01*
X46260000Y-65805000D02*
X46245000Y-65820000D01*
X48800000Y-65805000D02*
X48785000Y-65820000D01*
X48800000Y-62470000D02*
X48800000Y-65805000D01*
X51340000Y-65805000D02*
X51325000Y-65820000D01*
X51340000Y-62470000D02*
X51340000Y-65805000D01*
X53880000Y-62470000D02*
X53880000Y-65805000D01*
X53880000Y-65805000D02*
X53865000Y-65820000D01*
X56405000Y-65820000D02*
X56405000Y-62485000D01*
X56405000Y-62485000D02*
X56420000Y-62470000D01*
X42910000Y-73533000D02*
X42933000Y-73556000D01*
X42933000Y-73510000D02*
X42910000Y-73533000D01*
X42910000Y-66615000D02*
X43705000Y-65820000D01*
X42155000Y-43715000D02*
X42155000Y-64270000D01*
X42910000Y-68970000D02*
X42933000Y-68993000D01*
X42910000Y-68970000D02*
X42910000Y-66615000D01*
X42933000Y-68993000D02*
X42933000Y-73510000D01*
X58945000Y-69055000D02*
X58820000Y-69180000D01*
X43720000Y-42150000D02*
X42155000Y-43715000D01*
X42155000Y-64270000D02*
X43705000Y-65820000D01*
X58945000Y-65820000D02*
X58945000Y-69055000D01*
X43720000Y-39610000D02*
X43720000Y-42150000D01*
X41440000Y-42180000D02*
X40660000Y-42960000D01*
X40660000Y-42960000D02*
X40660000Y-66020000D01*
X50150000Y-71510000D02*
X52320000Y-73680000D01*
X50150000Y-68650000D02*
X50150000Y-71510000D01*
X36250000Y-44690000D02*
X37520000Y-45960000D01*
X39930000Y-73531000D02*
X39910000Y-73531000D01*
X39910000Y-73531000D02*
X39885000Y-73556000D01*
X43720000Y-37070000D02*
X49290000Y-42640000D01*
X40770000Y-72691000D02*
X39930000Y-73531000D01*
X65370000Y-43590000D02*
X65370000Y-36804500D01*
X66470000Y-44690000D02*
X65370000Y-43590000D01*
X37520000Y-45960000D02*
X37520000Y-66580000D01*
X49290000Y-42640000D02*
X54820000Y-42640000D01*
X37520000Y-66580000D02*
X39910000Y-68970000D01*
X65370000Y-36804500D02*
X62104000Y-33538500D01*
X40770000Y-69830000D02*
X40770000Y-72691000D01*
X39910000Y-68970000D02*
X40770000Y-69830000D01*
X41430000Y-45235500D02*
X41430000Y-67735669D01*
X47510000Y-73565000D02*
X47505000Y-73570000D01*
X47510000Y-68970000D02*
X47510000Y-73565000D01*
X41430000Y-67735669D02*
X41410850Y-67754819D01*
G04 #@! TA.AperFunction,NonConductor*
G36*
X67631807Y-27964178D02*
G01*
X67665277Y-27967474D01*
X67780274Y-27980431D01*
X67793460Y-27983152D01*
X67822957Y-27992099D01*
X67850323Y-28000401D01*
X67851782Y-28000878D01*
X67933769Y-28029567D01*
X67944205Y-28034149D01*
X68001685Y-28064872D01*
X68003911Y-28066164D01*
X68075596Y-28111206D01*
X68079384Y-28113934D01*
X68133211Y-28158109D01*
X68135903Y-28160549D01*
X68194949Y-28219595D01*
X68197389Y-28222287D01*
X68241564Y-28276114D01*
X68244294Y-28279905D01*
X68289323Y-28351568D01*
X68290626Y-28353813D01*
X68321349Y-28411293D01*
X68325934Y-28421735D01*
X68354618Y-28503710D01*
X68355102Y-28505190D01*
X68372346Y-28562038D01*
X68375068Y-28575234D01*
X68388025Y-28690231D01*
X68391322Y-28723691D01*
X68391500Y-28727322D01*
X68391500Y-74518078D01*
X68391301Y-74521908D01*
X68387815Y-74555431D01*
X68374379Y-74669240D01*
X68371585Y-74682428D01*
X68353994Y-74739308D01*
X68353503Y-74740785D01*
X68324718Y-74821641D01*
X68320077Y-74832058D01*
X68289052Y-74889355D01*
X68287737Y-74891593D01*
X68242784Y-74962282D01*
X68240034Y-74966058D01*
X68195617Y-75019587D01*
X68193163Y-75022265D01*
X68134387Y-75080410D01*
X68131681Y-75082836D01*
X68077677Y-75126667D01*
X68073872Y-75129376D01*
X68002697Y-75173565D01*
X68000445Y-75174855D01*
X67942824Y-75205255D01*
X67932356Y-75209784D01*
X67851182Y-75237696D01*
X67849700Y-75238171D01*
X67792626Y-75255148D01*
X67779415Y-75257797D01*
X67666387Y-75269914D01*
X67631673Y-75273144D01*
X67628022Y-75273303D01*
X67602814Y-75273152D01*
X67598979Y-75273315D01*
X35073636Y-75273315D01*
X35070007Y-75273137D01*
X35036777Y-75269864D01*
X35008064Y-75266627D01*
X34921088Y-75256821D01*
X34907900Y-75254101D01*
X34863938Y-75240766D01*
X34851346Y-75236947D01*
X34849878Y-75236468D01*
X34767213Y-75207543D01*
X34756771Y-75202958D01*
X34699436Y-75172313D01*
X34697192Y-75171010D01*
X34625047Y-75125679D01*
X34621256Y-75122949D01*
X34567517Y-75078848D01*
X34564826Y-75076408D01*
X34505398Y-75016983D01*
X34502958Y-75014291D01*
X34493313Y-75002539D01*
X34458858Y-74960555D01*
X34456135Y-74956775D01*
X34410781Y-74884596D01*
X34409490Y-74882370D01*
X34403970Y-74872043D01*
X34378844Y-74825036D01*
X34374265Y-74814608D01*
X34345337Y-74731936D01*
X34344854Y-74730459D01*
X34327705Y-74673924D01*
X34324984Y-74660736D01*
X34311853Y-74544201D01*
X34308678Y-74511966D01*
X34308500Y-74508339D01*
X34308500Y-65010003D01*
X35144785Y-65010003D01*
X35163601Y-65213076D01*
X35163602Y-65213082D01*
X35219416Y-65409244D01*
X35219418Y-65409250D01*
X35310327Y-65591821D01*
X35310328Y-65591822D01*
X35310329Y-65591825D01*
X35433234Y-65754578D01*
X35433235Y-65754579D01*
X35552362Y-65863177D01*
X35583959Y-65891981D01*
X35757363Y-65999348D01*
X35947544Y-66073024D01*
X36148024Y-66110500D01*
X36148026Y-66110500D01*
X36351974Y-66110500D01*
X36351976Y-66110500D01*
X36552456Y-66073024D01*
X36742637Y-65999348D01*
X36916041Y-65891981D01*
X37020648Y-65796619D01*
X37067462Y-65777369D01*
X37115699Y-65792715D01*
X37142787Y-65835476D01*
X37144500Y-65851307D01*
X37144500Y-66533381D01*
X37142925Y-66548566D01*
X37139633Y-66564264D01*
X37139633Y-66564269D01*
X37144216Y-66601032D01*
X37144500Y-66605613D01*
X37144500Y-66611118D01*
X37148215Y-66633380D01*
X37148435Y-66634892D01*
X37155134Y-66688627D01*
X37156884Y-66694504D01*
X37156615Y-66694584D01*
X37157679Y-66697904D01*
X37157945Y-66697813D01*
X37159935Y-66703610D01*
X37185696Y-66751215D01*
X37186396Y-66752574D01*
X37210175Y-66801214D01*
X37213738Y-66806204D01*
X37213510Y-66806366D01*
X37215595Y-66809162D01*
X37215817Y-66808990D01*
X37219579Y-66813823D01*
X37219581Y-66813826D01*
X37259400Y-66850482D01*
X37260504Y-66851541D01*
X38849542Y-68440579D01*
X38870934Y-68486455D01*
X38863654Y-68525493D01*
X38816942Y-68620723D01*
X38816939Y-68620731D01*
X38765936Y-68817718D01*
X38758214Y-68970000D01*
X38755631Y-69020936D01*
X38786444Y-69222071D01*
X38786445Y-69222073D01*
X38802125Y-69264411D01*
X38802409Y-69315029D01*
X38770091Y-69353988D01*
X38720291Y-69363058D01*
X38717001Y-69362420D01*
X38588291Y-69334421D01*
X38379669Y-69319500D01*
X38379657Y-69319500D01*
X38240343Y-69319500D01*
X38240330Y-69319500D01*
X38031708Y-69334421D01*
X37759081Y-69393728D01*
X37759062Y-69393733D01*
X37497666Y-69491228D01*
X37252788Y-69624942D01*
X37029429Y-69792147D01*
X36832147Y-69989429D01*
X36664942Y-70212788D01*
X36531228Y-70457666D01*
X36433733Y-70719062D01*
X36433728Y-70719081D01*
X36374421Y-70991708D01*
X36354518Y-71269993D01*
X36354518Y-71270006D01*
X36374421Y-71548291D01*
X36433728Y-71820918D01*
X36433733Y-71820937D01*
X36531228Y-72082333D01*
X36664942Y-72327211D01*
X36737939Y-72424723D01*
X36832145Y-72550568D01*
X37029432Y-72747855D01*
X37107518Y-72806309D01*
X37252788Y-72915057D01*
X37497666Y-73048771D01*
X37759062Y-73146266D01*
X37759067Y-73146267D01*
X37759077Y-73146271D01*
X38031706Y-73205578D01*
X38240330Y-73220499D01*
X38240335Y-73220500D01*
X38240343Y-73220500D01*
X38379665Y-73220500D01*
X38379668Y-73220499D01*
X38462961Y-73214541D01*
X38588283Y-73205579D01*
X38588285Y-73205578D01*
X38588294Y-73205578D01*
X38692387Y-73182933D01*
X38742546Y-73189739D01*
X38776596Y-73227194D01*
X38779755Y-73273790D01*
X38740936Y-73423718D01*
X38735797Y-73525064D01*
X38730631Y-73626936D01*
X38761444Y-73828071D01*
X38832113Y-74018887D01*
X38832114Y-74018887D01*
X38917419Y-74155748D01*
X38939748Y-74191571D01*
X39079941Y-74339053D01*
X39246951Y-74455295D01*
X39433942Y-74535540D01*
X39433947Y-74535541D01*
X39633252Y-74576499D01*
X39633257Y-74576499D01*
X39633259Y-74576500D01*
X39633260Y-74576500D01*
X40085741Y-74576500D01*
X40085742Y-74576500D01*
X40135341Y-74571456D01*
X40237434Y-74561075D01*
X40237435Y-74561074D01*
X40237438Y-74561074D01*
X40403202Y-74509064D01*
X40431582Y-74500161D01*
X40431583Y-74500160D01*
X40431588Y-74500159D01*
X40609502Y-74401409D01*
X40763895Y-74268866D01*
X40888448Y-74107958D01*
X40978060Y-73925271D01*
X41029063Y-73728285D01*
X41039369Y-73525064D01*
X41008556Y-73323929D01*
X40937886Y-73133113D01*
X40937883Y-73133108D01*
X40936231Y-73129738D01*
X40937552Y-73129089D01*
X40928197Y-73084844D01*
X40949139Y-73042896D01*
X41002558Y-72989477D01*
X41014400Y-72979861D01*
X41027836Y-72971084D01*
X41050594Y-72941843D01*
X41053631Y-72938405D01*
X41057519Y-72934518D01*
X41070636Y-72916145D01*
X41071552Y-72914916D01*
X41104809Y-72872189D01*
X41104810Y-72872183D01*
X41107729Y-72866792D01*
X41107978Y-72866926D01*
X41109571Y-72863832D01*
X41109316Y-72863708D01*
X41112009Y-72858200D01*
X41112008Y-72858200D01*
X41112010Y-72858199D01*
X41127459Y-72806302D01*
X41127900Y-72804925D01*
X41145500Y-72753660D01*
X41145500Y-72753656D01*
X41146510Y-72747609D01*
X41146786Y-72747655D01*
X41147289Y-72744207D01*
X41147009Y-72744173D01*
X41147765Y-72738096D01*
X41147768Y-72738089D01*
X41146057Y-72696704D01*
X41145532Y-72684002D01*
X41145500Y-72682473D01*
X41145500Y-69876618D01*
X41147075Y-69861433D01*
X41150366Y-69845735D01*
X41150367Y-69845732D01*
X41145783Y-69808963D01*
X41145500Y-69804385D01*
X41145500Y-69798890D01*
X41145499Y-69798881D01*
X41144920Y-69795409D01*
X41141784Y-69776624D01*
X41141565Y-69775119D01*
X41140154Y-69763802D01*
X41134866Y-69721374D01*
X41134864Y-69721370D01*
X41133115Y-69715493D01*
X41133386Y-69715412D01*
X41132324Y-69712096D01*
X41132056Y-69712189D01*
X41130065Y-69706389D01*
X41104312Y-69658802D01*
X41103612Y-69657442D01*
X41079826Y-69608788D01*
X41076264Y-69603800D01*
X41076493Y-69603636D01*
X41074407Y-69600839D01*
X41074185Y-69601013D01*
X41070419Y-69596174D01*
X41030599Y-69559517D01*
X41029495Y-69558458D01*
X40970456Y-69499419D01*
X40949064Y-69453543D01*
X40956344Y-69414506D01*
X41003060Y-69319271D01*
X41054063Y-69122285D01*
X41064369Y-68919064D01*
X41033556Y-68717929D01*
X40962886Y-68527113D01*
X40855252Y-68354429D01*
X40715059Y-68206947D01*
X40548049Y-68090705D01*
X40474965Y-68059342D01*
X40361058Y-68010460D01*
X40361052Y-68010458D01*
X40161747Y-67969500D01*
X40161741Y-67969500D01*
X39709258Y-67969500D01*
X39709250Y-67969500D01*
X39557570Y-67984924D01*
X39557557Y-67984927D01*
X39523001Y-67995768D01*
X39472434Y-67993487D01*
X39448525Y-67977487D01*
X37917174Y-66446136D01*
X37895782Y-66400260D01*
X37895500Y-66393810D01*
X37895500Y-65851307D01*
X37912813Y-65803741D01*
X37956650Y-65778431D01*
X38006500Y-65787221D01*
X38019348Y-65796615D01*
X38123959Y-65891981D01*
X38297363Y-65999348D01*
X38487544Y-66073024D01*
X38688024Y-66110500D01*
X38688026Y-66110500D01*
X38891974Y-66110500D01*
X38891976Y-66110500D01*
X39092456Y-66073024D01*
X39282637Y-65999348D01*
X39456041Y-65891981D01*
X39606764Y-65754579D01*
X39636293Y-65715477D01*
X39729670Y-65591825D01*
X39729670Y-65591824D01*
X39729673Y-65591821D01*
X39820582Y-65409250D01*
X39876397Y-65213083D01*
X39895215Y-65010000D01*
X39892004Y-64975346D01*
X39876398Y-64806923D01*
X39876397Y-64806917D01*
X39854162Y-64728770D01*
X39820582Y-64610750D01*
X39729673Y-64428179D01*
X39729670Y-64428175D01*
X39729670Y-64428174D01*
X39606765Y-64265421D01*
X39606764Y-64265420D01*
X39456041Y-64128019D01*
X39422561Y-64107289D01*
X39282637Y-64020652D01*
X39092456Y-63946976D01*
X39004407Y-63930516D01*
X38891979Y-63909500D01*
X38891976Y-63909500D01*
X38688024Y-63909500D01*
X38688020Y-63909500D01*
X38538115Y-63937522D01*
X38487544Y-63946976D01*
X38487542Y-63946976D01*
X38487540Y-63946977D01*
X38315494Y-64013628D01*
X38297363Y-64020652D01*
X38297358Y-64020654D01*
X38297358Y-64020655D01*
X38123958Y-64128019D01*
X38123957Y-64128019D01*
X38019353Y-64223379D01*
X37972538Y-64242630D01*
X37924301Y-64227284D01*
X37897213Y-64184523D01*
X37895500Y-64168692D01*
X37895500Y-63311307D01*
X37912813Y-63263741D01*
X37956650Y-63238431D01*
X38006500Y-63247221D01*
X38019348Y-63256615D01*
X38123959Y-63351981D01*
X38297363Y-63459348D01*
X38487544Y-63533024D01*
X38688024Y-63570500D01*
X38688026Y-63570500D01*
X38891974Y-63570500D01*
X38891976Y-63570500D01*
X39092456Y-63533024D01*
X39282637Y-63459348D01*
X39456041Y-63351981D01*
X39456042Y-63351979D01*
X39456044Y-63351979D01*
X39606764Y-63214579D01*
X39606765Y-63214578D01*
X39729670Y-63051825D01*
X39729670Y-63051824D01*
X39729673Y-63051821D01*
X39820582Y-62869250D01*
X39876397Y-62673083D01*
X39889945Y-62526882D01*
X39895215Y-62470003D01*
X39895215Y-62469996D01*
X39876398Y-62266923D01*
X39876397Y-62266917D01*
X39875016Y-62262062D01*
X39820582Y-62070750D01*
X39729673Y-61888179D01*
X39729670Y-61888175D01*
X39729670Y-61888174D01*
X39606765Y-61725421D01*
X39606764Y-61725420D01*
X39456041Y-61588019D01*
X39409227Y-61559033D01*
X39282637Y-61480652D01*
X39092456Y-61406976D01*
X39004407Y-61390516D01*
X38891979Y-61369500D01*
X38891976Y-61369500D01*
X38688024Y-61369500D01*
X38688020Y-61369500D01*
X38538115Y-61397522D01*
X38487544Y-61406976D01*
X38487542Y-61406976D01*
X38487540Y-61406977D01*
X38305450Y-61477519D01*
X38297363Y-61480652D01*
X38297358Y-61480654D01*
X38297358Y-61480655D01*
X38123958Y-61588019D01*
X38123957Y-61588019D01*
X38019353Y-61683379D01*
X37972538Y-61702630D01*
X37924301Y-61687284D01*
X37897213Y-61644523D01*
X37895500Y-61628692D01*
X37895500Y-60771307D01*
X37912813Y-60723741D01*
X37956650Y-60698431D01*
X38006500Y-60707221D01*
X38019348Y-60716615D01*
X38123959Y-60811981D01*
X38297363Y-60919348D01*
X38487544Y-60993024D01*
X38688024Y-61030500D01*
X38688026Y-61030500D01*
X38891974Y-61030500D01*
X38891976Y-61030500D01*
X39092456Y-60993024D01*
X39282637Y-60919348D01*
X39456041Y-60811981D01*
X39456042Y-60811979D01*
X39456044Y-60811979D01*
X39606764Y-60674579D01*
X39606765Y-60674578D01*
X39729670Y-60511825D01*
X39729670Y-60511824D01*
X39729673Y-60511821D01*
X39820582Y-60329250D01*
X39876397Y-60133083D01*
X39892617Y-59958046D01*
X39895215Y-59930003D01*
X39895215Y-59929996D01*
X39876398Y-59726923D01*
X39876397Y-59726917D01*
X39875016Y-59722062D01*
X39820582Y-59530750D01*
X39729673Y-59348179D01*
X39729670Y-59348175D01*
X39729670Y-59348174D01*
X39606765Y-59185421D01*
X39606764Y-59185420D01*
X39456041Y-59048019D01*
X39419671Y-59025500D01*
X39282637Y-58940652D01*
X39092456Y-58866976D01*
X39004407Y-58850516D01*
X38891979Y-58829500D01*
X38891976Y-58829500D01*
X38688024Y-58829500D01*
X38688020Y-58829500D01*
X38538115Y-58857522D01*
X38487544Y-58866976D01*
X38487542Y-58866976D01*
X38487540Y-58866977D01*
X38358385Y-58917012D01*
X38297363Y-58940652D01*
X38297358Y-58940654D01*
X38297358Y-58940655D01*
X38123958Y-59048019D01*
X38123957Y-59048019D01*
X38019353Y-59143379D01*
X37972538Y-59162630D01*
X37924301Y-59147284D01*
X37897213Y-59104523D01*
X37895500Y-59088692D01*
X37895500Y-58231307D01*
X37912813Y-58183741D01*
X37956650Y-58158431D01*
X38006500Y-58167221D01*
X38019348Y-58176615D01*
X38123959Y-58271981D01*
X38297363Y-58379348D01*
X38487544Y-58453024D01*
X38688024Y-58490500D01*
X38688026Y-58490500D01*
X38891974Y-58490500D01*
X38891976Y-58490500D01*
X39092456Y-58453024D01*
X39282637Y-58379348D01*
X39456041Y-58271981D01*
X39456042Y-58271979D01*
X39456044Y-58271979D01*
X39606764Y-58134579D01*
X39606765Y-58134578D01*
X39729670Y-57971825D01*
X39729670Y-57971824D01*
X39729673Y-57971821D01*
X39820582Y-57789250D01*
X39876397Y-57593083D01*
X39889945Y-57446882D01*
X39895215Y-57390003D01*
X39895215Y-57389996D01*
X39876398Y-57186923D01*
X39876397Y-57186917D01*
X39875016Y-57182062D01*
X39820582Y-56990750D01*
X39729673Y-56808179D01*
X39729670Y-56808175D01*
X39729670Y-56808174D01*
X39606765Y-56645421D01*
X39606764Y-56645420D01*
X39456041Y-56508019D01*
X39409227Y-56479033D01*
X39282637Y-56400652D01*
X39092456Y-56326976D01*
X39004407Y-56310516D01*
X38891979Y-56289500D01*
X38891976Y-56289500D01*
X38688024Y-56289500D01*
X38688020Y-56289500D01*
X38538115Y-56317522D01*
X38487544Y-56326976D01*
X38487542Y-56326976D01*
X38487540Y-56326977D01*
X38305450Y-56397519D01*
X38297363Y-56400652D01*
X38297358Y-56400654D01*
X38297358Y-56400655D01*
X38123958Y-56508019D01*
X38123957Y-56508019D01*
X38019353Y-56603379D01*
X37972538Y-56622630D01*
X37924301Y-56607284D01*
X37897213Y-56564523D01*
X37895500Y-56548692D01*
X37895500Y-55691307D01*
X37912813Y-55643741D01*
X37956650Y-55618431D01*
X38006500Y-55627221D01*
X38019348Y-55636615D01*
X38123959Y-55731981D01*
X38297363Y-55839348D01*
X38487544Y-55913024D01*
X38688024Y-55950500D01*
X38688026Y-55950500D01*
X38891974Y-55950500D01*
X38891976Y-55950500D01*
X39092456Y-55913024D01*
X39282637Y-55839348D01*
X39456041Y-55731981D01*
X39456042Y-55731979D01*
X39456044Y-55731979D01*
X39606764Y-55594579D01*
X39606765Y-55594578D01*
X39729670Y-55431825D01*
X39729670Y-55431824D01*
X39729673Y-55431821D01*
X39820582Y-55249250D01*
X39876397Y-55053083D01*
X39892617Y-54878046D01*
X39895215Y-54850003D01*
X39895215Y-54849996D01*
X39876398Y-54646923D01*
X39876397Y-54646917D01*
X39875016Y-54642062D01*
X39820582Y-54450750D01*
X39729673Y-54268179D01*
X39729670Y-54268175D01*
X39729670Y-54268174D01*
X39606765Y-54105421D01*
X39606764Y-54105420D01*
X39456041Y-53968019D01*
X39419671Y-53945500D01*
X39282637Y-53860652D01*
X39092456Y-53786976D01*
X39004407Y-53770516D01*
X38891979Y-53749500D01*
X38891976Y-53749500D01*
X38688024Y-53749500D01*
X38688020Y-53749500D01*
X38538115Y-53777522D01*
X38487544Y-53786976D01*
X38487542Y-53786976D01*
X38487540Y-53786977D01*
X38358385Y-53837012D01*
X38297363Y-53860652D01*
X38297358Y-53860654D01*
X38297358Y-53860655D01*
X38123958Y-53968019D01*
X38123957Y-53968019D01*
X38019353Y-54063379D01*
X37972538Y-54082630D01*
X37924301Y-54067284D01*
X37897213Y-54024523D01*
X37895500Y-54008692D01*
X37895500Y-53151307D01*
X37912813Y-53103741D01*
X37956650Y-53078431D01*
X38006500Y-53087221D01*
X38019348Y-53096615D01*
X38123959Y-53191981D01*
X38297363Y-53299348D01*
X38487544Y-53373024D01*
X38688024Y-53410500D01*
X38688026Y-53410500D01*
X38891974Y-53410500D01*
X38891976Y-53410500D01*
X39092456Y-53373024D01*
X39282637Y-53299348D01*
X39456041Y-53191981D01*
X39456042Y-53191979D01*
X39456044Y-53191979D01*
X39606764Y-53054579D01*
X39606765Y-53054578D01*
X39729670Y-52891825D01*
X39729670Y-52891824D01*
X39729673Y-52891821D01*
X39820582Y-52709250D01*
X39876397Y-52513083D01*
X39889945Y-52366882D01*
X39895215Y-52310003D01*
X39895215Y-52309996D01*
X39876398Y-52106923D01*
X39876397Y-52106917D01*
X39875016Y-52102062D01*
X39820582Y-51910750D01*
X39729673Y-51728179D01*
X39729670Y-51728175D01*
X39729670Y-51728174D01*
X39606765Y-51565421D01*
X39606764Y-51565420D01*
X39456041Y-51428019D01*
X39418809Y-51404966D01*
X39282637Y-51320652D01*
X39092456Y-51246976D01*
X39004407Y-51230516D01*
X38891979Y-51209500D01*
X38891976Y-51209500D01*
X38688024Y-51209500D01*
X38688020Y-51209500D01*
X38538115Y-51237522D01*
X38487544Y-51246976D01*
X38487542Y-51246976D01*
X38487540Y-51246977D01*
X38358385Y-51297012D01*
X38297363Y-51320652D01*
X38297358Y-51320654D01*
X38297358Y-51320655D01*
X38123958Y-51428019D01*
X38123957Y-51428019D01*
X38019353Y-51523379D01*
X37972538Y-51542630D01*
X37924301Y-51527284D01*
X37897213Y-51484523D01*
X37895500Y-51468692D01*
X37895500Y-50611307D01*
X37912813Y-50563741D01*
X37956650Y-50538431D01*
X38006500Y-50547221D01*
X38019348Y-50556615D01*
X38123959Y-50651981D01*
X38297363Y-50759348D01*
X38487544Y-50833024D01*
X38688024Y-50870500D01*
X38688026Y-50870500D01*
X38891974Y-50870500D01*
X38891976Y-50870500D01*
X39092456Y-50833024D01*
X39282637Y-50759348D01*
X39456041Y-50651981D01*
X39606764Y-50514579D01*
X39729673Y-50351821D01*
X39820582Y-50169250D01*
X39876397Y-49973083D01*
X39895215Y-49770000D01*
X39876397Y-49566917D01*
X39820582Y-49370750D01*
X39729673Y-49188179D01*
X39729670Y-49188175D01*
X39729670Y-49188174D01*
X39606765Y-49025421D01*
X39606764Y-49025420D01*
X39456041Y-48888019D01*
X39406685Y-48857459D01*
X39282637Y-48780652D01*
X39092456Y-48706976D01*
X39004407Y-48690516D01*
X38891979Y-48669500D01*
X38891976Y-48669500D01*
X38688024Y-48669500D01*
X38688020Y-48669500D01*
X38538115Y-48697522D01*
X38487544Y-48706976D01*
X38487542Y-48706976D01*
X38487540Y-48706977D01*
X38358385Y-48757012D01*
X38297363Y-48780652D01*
X38297358Y-48780654D01*
X38297358Y-48780655D01*
X38123958Y-48888019D01*
X38123957Y-48888019D01*
X38019353Y-48983379D01*
X37972538Y-49002630D01*
X37924301Y-48987284D01*
X37897213Y-48944523D01*
X37895500Y-48928692D01*
X37895500Y-48071307D01*
X37912813Y-48023741D01*
X37956650Y-47998431D01*
X38006500Y-48007221D01*
X38019348Y-48016615D01*
X38123959Y-48111981D01*
X38297363Y-48219348D01*
X38487544Y-48293024D01*
X38688024Y-48330500D01*
X38688026Y-48330500D01*
X38891974Y-48330500D01*
X38891976Y-48330500D01*
X39092456Y-48293024D01*
X39282637Y-48219348D01*
X39456041Y-48111981D01*
X39456042Y-48111979D01*
X39456044Y-48111979D01*
X39606764Y-47974579D01*
X39606765Y-47974578D01*
X39729670Y-47811825D01*
X39729670Y-47811824D01*
X39729673Y-47811821D01*
X39820582Y-47629250D01*
X39876397Y-47433083D01*
X39889945Y-47286882D01*
X39895215Y-47230003D01*
X39895215Y-47229996D01*
X39876398Y-47026923D01*
X39876397Y-47026917D01*
X39875016Y-47022062D01*
X39820582Y-46830750D01*
X39729673Y-46648179D01*
X39729670Y-46648175D01*
X39729670Y-46648174D01*
X39606765Y-46485421D01*
X39606764Y-46485420D01*
X39456041Y-46348019D01*
X39412785Y-46321236D01*
X39282637Y-46240652D01*
X39137448Y-46184406D01*
X39092459Y-46166977D01*
X39092458Y-46166976D01*
X39092456Y-46166976D01*
X38981255Y-46146189D01*
X38891979Y-46129500D01*
X38891976Y-46129500D01*
X38688024Y-46129500D01*
X38688020Y-46129500D01*
X38538115Y-46157522D01*
X38487544Y-46166976D01*
X38487542Y-46166976D01*
X38487540Y-46166977D01*
X38341307Y-46223628D01*
X38297363Y-46240652D01*
X38297358Y-46240654D01*
X38297358Y-46240655D01*
X38123958Y-46348019D01*
X38123957Y-46348019D01*
X38019353Y-46443379D01*
X37972538Y-46462630D01*
X37924301Y-46447284D01*
X37897213Y-46404523D01*
X37895500Y-46388692D01*
X37895500Y-46006617D01*
X37897075Y-45991431D01*
X37900367Y-45975732D01*
X37895783Y-45938963D01*
X37895500Y-45934385D01*
X37895500Y-45928890D01*
X37895499Y-45928881D01*
X37891786Y-45906633D01*
X37891565Y-45905119D01*
X37890154Y-45893802D01*
X37884866Y-45851374D01*
X37884864Y-45851370D01*
X37883115Y-45845493D01*
X37883386Y-45845412D01*
X37882324Y-45842096D01*
X37882056Y-45842189D01*
X37880065Y-45836389D01*
X37854312Y-45788802D01*
X37853612Y-45787442D01*
X37829826Y-45738788D01*
X37826264Y-45733800D01*
X37826493Y-45733636D01*
X37824407Y-45730839D01*
X37824185Y-45731013D01*
X37820419Y-45726174D01*
X37817000Y-45723027D01*
X37780591Y-45689510D01*
X37779495Y-45688458D01*
X37284890Y-45193853D01*
X37263498Y-45147977D01*
X37270975Y-45108542D01*
X37280582Y-45089250D01*
X37336397Y-44893083D01*
X37355215Y-44690003D01*
X37684785Y-44690003D01*
X37703601Y-44893076D01*
X37703602Y-44893082D01*
X37756685Y-45079644D01*
X37759418Y-45089250D01*
X37850327Y-45271821D01*
X37850328Y-45271822D01*
X37850329Y-45271825D01*
X37973234Y-45434578D01*
X37973235Y-45434579D01*
X38048674Y-45503350D01*
X38123959Y-45571981D01*
X38297363Y-45679348D01*
X38487544Y-45753024D01*
X38688024Y-45790500D01*
X38688026Y-45790500D01*
X38891974Y-45790500D01*
X38891976Y-45790500D01*
X39092456Y-45753024D01*
X39282637Y-45679348D01*
X39456041Y-45571981D01*
X39606764Y-45434579D01*
X39729673Y-45271821D01*
X39820582Y-45089250D01*
X39876397Y-44893083D01*
X39895215Y-44690000D01*
X39892230Y-44657787D01*
X39876398Y-44486923D01*
X39876397Y-44486917D01*
X39875016Y-44482062D01*
X39820582Y-44290750D01*
X39729673Y-44108179D01*
X39729670Y-44108175D01*
X39729670Y-44108174D01*
X39606765Y-43945421D01*
X39606764Y-43945420D01*
X39456041Y-43808019D01*
X39421997Y-43786940D01*
X39282637Y-43700652D01*
X39282635Y-43700651D01*
X39212767Y-43673584D01*
X39174668Y-43640257D01*
X39165500Y-43604581D01*
X39165500Y-39646189D01*
X39182813Y-39598623D01*
X39187174Y-39593863D01*
X41191089Y-37589948D01*
X43197681Y-35583355D01*
X43243556Y-35561964D01*
X43276736Y-35566678D01*
X43373781Y-35604274D01*
X43410310Y-35618426D01*
X43410316Y-35618428D01*
X43615587Y-35656800D01*
X43824413Y-35656800D01*
X44029684Y-35618428D01*
X44163263Y-35566678D01*
X44213869Y-35565640D01*
X44242319Y-35583356D01*
X47251518Y-38592556D01*
X47261141Y-38604406D01*
X47266219Y-38612178D01*
X47269916Y-38617836D01*
X47299152Y-38640591D01*
X47302585Y-38643623D01*
X47306481Y-38647519D01*
X47324873Y-38660650D01*
X47326088Y-38661555D01*
X47368811Y-38694809D01*
X47368813Y-38694809D01*
X47368816Y-38694812D01*
X47374206Y-38697729D01*
X47374071Y-38697978D01*
X47377163Y-38699569D01*
X47377288Y-38699315D01*
X47382798Y-38702008D01*
X47382801Y-38702010D01*
X47434710Y-38717463D01*
X47436083Y-38717903D01*
X47487340Y-38735500D01*
X47487341Y-38735500D01*
X47493391Y-38736510D01*
X47493344Y-38736786D01*
X47496793Y-38737289D01*
X47496828Y-38737009D01*
X47502905Y-38737766D01*
X47502912Y-38737768D01*
X47535911Y-38736403D01*
X47556997Y-38735532D01*
X47558525Y-38735500D01*
X58059782Y-38735500D01*
X58107348Y-38752813D01*
X58132658Y-38796650D01*
X58123868Y-38846500D01*
X58118839Y-38854087D01*
X58093874Y-38887148D01*
X57997873Y-39014271D01*
X57997871Y-39014273D01*
X57904789Y-39201209D01*
X57904787Y-39201214D01*
X57847641Y-39402062D01*
X57847639Y-39402075D01*
X57828373Y-39609996D01*
X57828373Y-39610003D01*
X57847639Y-39817924D01*
X57847641Y-39817937D01*
X57904105Y-40016389D01*
X57904789Y-40018791D01*
X57911055Y-40031374D01*
X57997871Y-40205726D01*
X57997873Y-40205728D01*
X58015008Y-40228418D01*
X58093877Y-40332857D01*
X58123720Y-40372374D01*
X58138645Y-40385980D01*
X58278042Y-40513058D01*
X58455590Y-40622991D01*
X58650316Y-40698428D01*
X58855587Y-40736800D01*
X59064413Y-40736800D01*
X59269684Y-40698428D01*
X59464410Y-40622991D01*
X59641958Y-40513058D01*
X59796282Y-40372372D01*
X59922129Y-40205725D01*
X60015211Y-40018791D01*
X60072359Y-39817936D01*
X60088274Y-39646189D01*
X60091627Y-39610003D01*
X60091627Y-39609996D01*
X60072658Y-39405293D01*
X60072359Y-39402064D01*
X60015211Y-39201209D01*
X59922129Y-39014275D01*
X59922128Y-39014274D01*
X59922128Y-39014273D01*
X59922126Y-39014271D01*
X59918613Y-39009619D01*
X59801164Y-38854093D01*
X59786315Y-38805704D01*
X59806046Y-38759088D01*
X59851124Y-38736061D01*
X59860218Y-38735500D01*
X61963811Y-38735500D01*
X62011377Y-38752813D01*
X62016137Y-38757174D01*
X62653762Y-39394799D01*
X62675154Y-39440675D01*
X62662053Y-39489570D01*
X62620589Y-39518604D01*
X62570162Y-39514192D01*
X62566553Y-39512387D01*
X62483344Y-39467910D01*
X62287583Y-39408526D01*
X62084000Y-39388475D01*
X61880416Y-39408526D01*
X61774438Y-39440675D01*
X61684660Y-39467909D01*
X61684658Y-39467909D01*
X61684658Y-39467910D01*
X61504251Y-39564340D01*
X61504241Y-39564346D01*
X61346116Y-39694115D01*
X61346115Y-39694116D01*
X61216346Y-39852241D01*
X61216341Y-39852248D01*
X61216341Y-39852249D01*
X61213667Y-39857251D01*
X61128606Y-40016390D01*
X61119909Y-40032660D01*
X61103996Y-40085118D01*
X61060526Y-40228416D01*
X61045499Y-40380981D01*
X61045499Y-41936018D01*
X61060526Y-42088583D01*
X61062043Y-42093583D01*
X61119909Y-42284340D01*
X61216341Y-42464751D01*
X61216343Y-42464754D01*
X61216346Y-42464758D01*
X61346115Y-42622883D01*
X61346116Y-42622884D01*
X61504241Y-42752653D01*
X61504243Y-42752654D01*
X61504249Y-42752659D01*
X61684660Y-42849091D01*
X61880418Y-42908474D01*
X62084000Y-42928525D01*
X62287582Y-42908474D01*
X62483340Y-42849091D01*
X62663751Y-42752659D01*
X62821884Y-42622884D01*
X62951659Y-42464751D01*
X63048091Y-42284340D01*
X63107474Y-42088582D01*
X63122500Y-41936020D01*
X63122500Y-40380980D01*
X63107474Y-40228418D01*
X63048091Y-40032660D01*
X63003611Y-39949445D01*
X62996458Y-39899336D01*
X63023188Y-39856350D01*
X63071295Y-39840603D01*
X63118269Y-39859462D01*
X63121200Y-39862237D01*
X63532825Y-40273862D01*
X63554217Y-40319738D01*
X63554499Y-40326188D01*
X63554499Y-43604581D01*
X63537186Y-43652147D01*
X63507232Y-43673584D01*
X63437365Y-43700651D01*
X63437358Y-43700655D01*
X63263958Y-43808019D01*
X63263957Y-43808019D01*
X63113235Y-43945420D01*
X63113234Y-43945421D01*
X62990329Y-44108174D01*
X62990328Y-44108177D01*
X62899418Y-44290750D01*
X62899416Y-44290755D01*
X62843602Y-44486917D01*
X62843601Y-44486923D01*
X62837170Y-44556327D01*
X62815542Y-44602092D01*
X62769556Y-44623249D01*
X62720730Y-44609896D01*
X62711160Y-44601824D01*
X62054757Y-43945421D01*
X61398290Y-43288953D01*
X61378880Y-43254790D01*
X61378285Y-43252442D01*
X61376927Y-43247078D01*
X61308383Y-43142164D01*
X61233703Y-43084038D01*
X61209491Y-43065193D01*
X61209489Y-43065192D01*
X61209488Y-43065191D01*
X61090959Y-43024500D01*
X60160800Y-43024500D01*
X60113234Y-43007187D01*
X60087924Y-42963350D01*
X60086800Y-42950500D01*
X60086800Y-41249027D01*
X60086800Y-41249026D01*
X60072266Y-41175960D01*
X60016901Y-41093099D01*
X59934040Y-41037734D01*
X59860974Y-41023200D01*
X58059026Y-41023200D01*
X58010315Y-41032889D01*
X57985959Y-41037734D01*
X57903099Y-41093098D01*
X57903098Y-41093099D01*
X57847734Y-41175959D01*
X57833200Y-41249027D01*
X57833200Y-42950500D01*
X57815887Y-42998066D01*
X57772050Y-43023376D01*
X57759200Y-43024500D01*
X55477096Y-43024500D01*
X55429530Y-43007187D01*
X55404220Y-42963350D01*
X55407905Y-42924259D01*
X55411995Y-42913474D01*
X55456237Y-42796818D01*
X55463759Y-42734867D01*
X55475278Y-42640003D01*
X55475278Y-42639996D01*
X55456400Y-42484523D01*
X55456237Y-42483182D01*
X55448213Y-42462025D01*
X55400221Y-42335478D01*
X55310483Y-42205470D01*
X55281728Y-42179996D01*
X55192240Y-42100717D01*
X55169119Y-42088582D01*
X55052366Y-42027304D01*
X54898987Y-41989500D01*
X54898985Y-41989500D01*
X54741015Y-41989500D01*
X54741012Y-41989500D01*
X54587633Y-42027304D01*
X54447761Y-42100716D01*
X54329519Y-42205467D01*
X54329517Y-42205469D01*
X54329517Y-42205470D01*
X54310833Y-42232538D01*
X54269566Y-42261848D01*
X54249934Y-42264500D01*
X49476189Y-42264500D01*
X49428623Y-42247187D01*
X49423863Y-42242826D01*
X44774504Y-37593466D01*
X44753112Y-37547590D01*
X44760588Y-37508157D01*
X44775211Y-37478791D01*
X44832359Y-37277936D01*
X44845782Y-37133082D01*
X44851627Y-37070003D01*
X44851627Y-37069996D01*
X44832360Y-36862075D01*
X44832359Y-36862064D01*
X44775211Y-36661209D01*
X44682129Y-36474275D01*
X44682128Y-36474274D01*
X44682128Y-36474273D01*
X44682126Y-36474271D01*
X44615284Y-36385759D01*
X44556282Y-36307628D01*
X44401958Y-36166942D01*
X44224410Y-36057009D01*
X44029684Y-35981572D01*
X43939531Y-35964719D01*
X43824416Y-35943200D01*
X43824413Y-35943200D01*
X43615587Y-35943200D01*
X43615583Y-35943200D01*
X43462095Y-35971892D01*
X43410316Y-35981572D01*
X43410314Y-35981572D01*
X43410312Y-35981573D01*
X43215595Y-36057007D01*
X43215590Y-36057009D01*
X43215585Y-36057011D01*
X43215585Y-36057012D01*
X43038044Y-36166940D01*
X42883720Y-36307625D01*
X42757873Y-36474271D01*
X42757871Y-36474273D01*
X42664789Y-36661209D01*
X42664787Y-36661214D01*
X42607641Y-36862062D01*
X42607639Y-36862075D01*
X42588373Y-37069996D01*
X42588373Y-37070003D01*
X42607639Y-37277924D01*
X42607641Y-37277937D01*
X42660977Y-37465395D01*
X42664789Y-37478791D01*
X42691161Y-37531753D01*
X42757871Y-37665726D01*
X42757873Y-37665728D01*
X42789466Y-37707563D01*
X42883718Y-37832372D01*
X43038042Y-37973058D01*
X43215590Y-38082991D01*
X43410316Y-38158428D01*
X43615587Y-38196800D01*
X43824413Y-38196800D01*
X44029684Y-38158428D01*
X44163263Y-38106678D01*
X44213869Y-38105640D01*
X44242319Y-38123356D01*
X44556480Y-38437517D01*
X44577872Y-38483393D01*
X44564771Y-38532288D01*
X44523307Y-38561322D01*
X44472880Y-38556910D01*
X44465872Y-38553171D01*
X44442854Y-38539256D01*
X44442852Y-38539255D01*
X44283198Y-38489506D01*
X44283195Y-38489505D01*
X44283194Y-38489505D01*
X44283192Y-38489504D01*
X44283188Y-38489504D01*
X44213813Y-38483200D01*
X43226193Y-38483200D01*
X43226180Y-38483201D01*
X43156811Y-38489504D01*
X43156801Y-38489506D01*
X42997148Y-38539255D01*
X42854026Y-38625775D01*
X42735775Y-38744026D01*
X42649255Y-38887148D01*
X42599506Y-39046801D01*
X42599504Y-39046811D01*
X42593200Y-39116181D01*
X42593200Y-40103806D01*
X42593201Y-40103819D01*
X42599504Y-40173188D01*
X42599506Y-40173198D01*
X42649255Y-40332851D01*
X42649257Y-40332854D01*
X42649258Y-40332857D01*
X42735775Y-40475973D01*
X42854027Y-40594225D01*
X42997143Y-40680742D01*
X42997146Y-40680743D01*
X42997148Y-40680744D01*
X43053893Y-40698426D01*
X43156806Y-40730495D01*
X43226189Y-40736800D01*
X43270499Y-40736799D01*
X43318065Y-40754111D01*
X43343375Y-40797947D01*
X43344500Y-40810799D01*
X43344500Y-40949200D01*
X43327187Y-40996766D01*
X43283350Y-41022076D01*
X43270502Y-41023200D01*
X43226194Y-41023200D01*
X43226180Y-41023201D01*
X43156811Y-41029504D01*
X43156801Y-41029506D01*
X42997148Y-41079255D01*
X42854026Y-41165775D01*
X42735775Y-41284026D01*
X42649255Y-41427148D01*
X42599506Y-41586801D01*
X42599504Y-41586811D01*
X42593200Y-41656181D01*
X42593200Y-42643806D01*
X42593201Y-42643819D01*
X42598556Y-42702752D01*
X42585619Y-42751690D01*
X42577186Y-42761774D01*
X41922440Y-43416520D01*
X41910592Y-43426142D01*
X41897163Y-43434916D01*
X41874408Y-43464150D01*
X41871377Y-43467583D01*
X41867484Y-43471477D01*
X41867478Y-43471484D01*
X41854353Y-43489867D01*
X41853440Y-43491092D01*
X41820194Y-43533806D01*
X41817273Y-43539204D01*
X41817026Y-43539070D01*
X41815430Y-43542171D01*
X41815682Y-43542295D01*
X41812988Y-43547804D01*
X41797550Y-43599658D01*
X41797084Y-43601113D01*
X41779499Y-43652339D01*
X41778491Y-43658386D01*
X41778213Y-43658339D01*
X41777711Y-43661790D01*
X41777990Y-43661825D01*
X41777232Y-43667908D01*
X41779468Y-43721996D01*
X41779500Y-43723524D01*
X41779500Y-44561870D01*
X41762187Y-44609436D01*
X41718350Y-44634746D01*
X41671111Y-44627394D01*
X41662364Y-44622803D01*
X41508987Y-44585000D01*
X41508985Y-44585000D01*
X41351015Y-44585000D01*
X41351012Y-44585000D01*
X41197635Y-44622803D01*
X41143889Y-44651012D01*
X41093726Y-44657787D01*
X41050943Y-44630733D01*
X41035500Y-44585488D01*
X41035500Y-43146188D01*
X41052813Y-43098622D01*
X41057163Y-43093873D01*
X41298862Y-42852173D01*
X41344738Y-42830782D01*
X41351188Y-42830500D01*
X41508981Y-42830500D01*
X41508985Y-42830500D01*
X41662365Y-42792696D01*
X41802240Y-42719283D01*
X41920483Y-42614530D01*
X42010220Y-42484523D01*
X42010731Y-42483177D01*
X42066235Y-42336822D01*
X42066237Y-42336818D01*
X42078899Y-42232537D01*
X42085278Y-42180003D01*
X42085278Y-42179996D01*
X42066238Y-42023191D01*
X42066237Y-42023182D01*
X42035077Y-41941020D01*
X42010221Y-41875478D01*
X41920483Y-41745470D01*
X41920483Y-41745469D01*
X41802240Y-41640717D01*
X41790139Y-41634366D01*
X41662366Y-41567304D01*
X41508987Y-41529500D01*
X41508985Y-41529500D01*
X41351015Y-41529500D01*
X41351012Y-41529500D01*
X41197633Y-41567304D01*
X41057761Y-41640716D01*
X40939516Y-41745470D01*
X40849779Y-41875478D01*
X40849778Y-41875478D01*
X40793764Y-42023177D01*
X40793761Y-42023191D01*
X40774722Y-42179996D01*
X40774722Y-42180000D01*
X40781101Y-42232537D01*
X40784913Y-42263937D01*
X40773459Y-42313243D01*
X40763778Y-42325182D01*
X40427440Y-42661520D01*
X40415592Y-42671142D01*
X40402163Y-42679916D01*
X40379408Y-42709150D01*
X40376377Y-42712583D01*
X40372484Y-42716477D01*
X40372478Y-42716484D01*
X40359353Y-42734867D01*
X40358440Y-42736092D01*
X40325194Y-42778806D01*
X40322273Y-42784204D01*
X40322026Y-42784070D01*
X40320430Y-42787171D01*
X40320682Y-42787295D01*
X40317988Y-42792804D01*
X40302550Y-42844658D01*
X40302084Y-42846113D01*
X40284499Y-42897339D01*
X40283491Y-42903386D01*
X40283213Y-42903339D01*
X40282711Y-42906790D01*
X40282990Y-42906825D01*
X40282232Y-42912908D01*
X40284468Y-42966996D01*
X40284500Y-42968524D01*
X40284500Y-65450299D01*
X40267187Y-65497865D01*
X40259571Y-65505689D01*
X40169517Y-65585470D01*
X40079779Y-65715478D01*
X40079778Y-65715478D01*
X40023764Y-65863177D01*
X40023761Y-65863191D01*
X40004722Y-66019996D01*
X40004722Y-66020003D01*
X40023761Y-66176808D01*
X40023764Y-66176822D01*
X40079778Y-66324521D01*
X40163723Y-66446136D01*
X40169517Y-66454530D01*
X40287760Y-66559283D01*
X40427635Y-66632696D01*
X40581015Y-66670500D01*
X40581019Y-66670500D01*
X40738981Y-66670500D01*
X40738985Y-66670500D01*
X40892365Y-66632696D01*
X40946110Y-66604487D01*
X40996273Y-66597712D01*
X41039056Y-66624765D01*
X41054500Y-66670011D01*
X41054500Y-67168153D01*
X41037187Y-67215719D01*
X41029571Y-67223543D01*
X40920367Y-67320289D01*
X40830629Y-67450297D01*
X40830628Y-67450297D01*
X40774614Y-67597996D01*
X40774611Y-67598010D01*
X40755572Y-67754815D01*
X40755572Y-67754822D01*
X40774611Y-67911627D01*
X40774614Y-67911641D01*
X40830628Y-68059340D01*
X40889474Y-68144593D01*
X40920367Y-68189349D01*
X41038610Y-68294102D01*
X41178485Y-68367515D01*
X41331865Y-68405319D01*
X41331869Y-68405319D01*
X41489831Y-68405319D01*
X41489835Y-68405319D01*
X41643215Y-68367515D01*
X41783090Y-68294102D01*
X41901333Y-68189349D01*
X41991070Y-68059342D01*
X41996192Y-68045838D01*
X42022113Y-67977487D01*
X42047087Y-67911637D01*
X42066128Y-67754819D01*
X42047087Y-67598001D01*
X42039063Y-67576844D01*
X41991071Y-67450297D01*
X41969847Y-67419550D01*
X41901333Y-67320289D01*
X41830429Y-67257474D01*
X41806306Y-67212973D01*
X41805500Y-67202084D01*
X41805500Y-64630189D01*
X41822813Y-64582623D01*
X41866650Y-64557313D01*
X41916500Y-64566103D01*
X41931826Y-64577863D01*
X42587479Y-65233516D01*
X42608871Y-65279392D01*
X42608849Y-65292538D01*
X42604500Y-65340396D01*
X42604500Y-66299601D01*
X42609713Y-66356964D01*
X42596776Y-66405902D01*
X42594415Y-66409111D01*
X42575192Y-66433809D01*
X42572273Y-66439204D01*
X42572026Y-66439070D01*
X42570430Y-66442171D01*
X42570682Y-66442295D01*
X42567988Y-66447804D01*
X42552550Y-66499658D01*
X42552084Y-66501113D01*
X42534499Y-66552339D01*
X42533491Y-66558386D01*
X42533213Y-66558339D01*
X42532711Y-66561790D01*
X42532990Y-66561825D01*
X42532232Y-66567908D01*
X42534468Y-66621996D01*
X42534500Y-66623524D01*
X42534500Y-67937822D01*
X42517187Y-67985388D01*
X42482653Y-68008428D01*
X42363417Y-68045838D01*
X42363412Y-68045840D01*
X42185498Y-68144591D01*
X42185495Y-68144593D01*
X42031104Y-68277135D01*
X42031099Y-68277140D01*
X41906551Y-68438043D01*
X41816941Y-68620727D01*
X41816939Y-68620731D01*
X41765936Y-68817718D01*
X41758214Y-68970000D01*
X41755631Y-69020936D01*
X41786444Y-69222071D01*
X41849063Y-69391149D01*
X41857114Y-69412887D01*
X41948508Y-69559517D01*
X41964748Y-69585571D01*
X42104941Y-69733053D01*
X42271951Y-69849295D01*
X42458942Y-69929540D01*
X42498396Y-69937647D01*
X42541502Y-69964178D01*
X42557500Y-70010132D01*
X42557499Y-72543822D01*
X42540186Y-72591388D01*
X42505652Y-72614428D01*
X42386417Y-72651838D01*
X42386412Y-72651840D01*
X42208498Y-72750591D01*
X42208495Y-72750593D01*
X42135862Y-72812947D01*
X42065768Y-72873122D01*
X42054104Y-72883135D01*
X42054099Y-72883140D01*
X41929551Y-73044043D01*
X41839941Y-73226727D01*
X41839939Y-73226731D01*
X41788936Y-73423718D01*
X41783797Y-73525064D01*
X41778631Y-73626936D01*
X41809444Y-73828071D01*
X41880113Y-74018887D01*
X41880114Y-74018887D01*
X41965419Y-74155748D01*
X41987748Y-74191571D01*
X42127941Y-74339053D01*
X42294951Y-74455295D01*
X42481942Y-74535540D01*
X42481947Y-74535541D01*
X42681252Y-74576499D01*
X42681257Y-74576499D01*
X42681259Y-74576500D01*
X42681260Y-74576500D01*
X43133741Y-74576500D01*
X43133742Y-74576500D01*
X43183341Y-74571456D01*
X43285434Y-74561075D01*
X43285435Y-74561074D01*
X43285438Y-74561074D01*
X43451202Y-74509064D01*
X43479582Y-74500161D01*
X43479583Y-74500160D01*
X43479588Y-74500159D01*
X43657502Y-74401409D01*
X43811895Y-74268866D01*
X43936448Y-74107958D01*
X44026060Y-73925271D01*
X44077063Y-73728285D01*
X44084786Y-73576000D01*
X45734975Y-73576000D01*
X45755026Y-73779582D01*
X45814409Y-73975340D01*
X45910841Y-74155751D01*
X45910843Y-74155754D01*
X45910846Y-74155758D01*
X46040615Y-74313883D01*
X46040616Y-74313884D01*
X46198741Y-74443653D01*
X46198743Y-74443654D01*
X46198749Y-74443659D01*
X46379160Y-74540091D01*
X46574918Y-74599474D01*
X46727480Y-74614500D01*
X46727482Y-74614500D01*
X48282518Y-74614500D01*
X48282520Y-74614500D01*
X48435082Y-74599474D01*
X48630840Y-74540091D01*
X48811251Y-74443659D01*
X48969384Y-74313884D01*
X49099159Y-74155751D01*
X49195591Y-73975340D01*
X49254974Y-73779582D01*
X49275025Y-73576000D01*
X49254974Y-73372418D01*
X49195591Y-73176660D01*
X49099159Y-72996249D01*
X49099154Y-72996243D01*
X49099153Y-72996241D01*
X48969384Y-72838116D01*
X48969383Y-72838115D01*
X48811258Y-72708346D01*
X48811254Y-72708343D01*
X48811251Y-72708341D01*
X48630840Y-72611909D01*
X48450276Y-72557135D01*
X48435083Y-72552526D01*
X48384228Y-72547517D01*
X48282520Y-72537500D01*
X48282518Y-72537500D01*
X47959500Y-72537500D01*
X47911934Y-72520187D01*
X47886624Y-72476350D01*
X47885500Y-72463500D01*
X47885500Y-70082500D01*
X47902813Y-70034934D01*
X47946650Y-70009624D01*
X47959500Y-70008500D01*
X48287518Y-70008500D01*
X48287520Y-70008500D01*
X48440082Y-69993474D01*
X48635840Y-69934091D01*
X48816251Y-69837659D01*
X48974384Y-69707884D01*
X49104159Y-69549751D01*
X49200591Y-69369340D01*
X49259974Y-69173582D01*
X49280025Y-68970000D01*
X49259974Y-68766418D01*
X49224660Y-68650003D01*
X49494722Y-68650003D01*
X49513761Y-68806808D01*
X49513764Y-68806822D01*
X49569778Y-68954521D01*
X49615620Y-69020934D01*
X49659517Y-69084530D01*
X49702134Y-69122285D01*
X49749571Y-69164309D01*
X49773694Y-69208809D01*
X49774500Y-69219699D01*
X49774500Y-71463381D01*
X49772925Y-71478566D01*
X49769633Y-71494264D01*
X49769633Y-71494269D01*
X49774216Y-71531032D01*
X49774500Y-71535613D01*
X49774500Y-71541118D01*
X49778215Y-71563380D01*
X49778435Y-71564892D01*
X49785134Y-71618627D01*
X49786884Y-71624504D01*
X49786615Y-71624584D01*
X49787679Y-71627904D01*
X49787945Y-71627813D01*
X49789935Y-71633610D01*
X49815696Y-71681215D01*
X49816396Y-71682574D01*
X49840175Y-71731214D01*
X49843738Y-71736204D01*
X49843510Y-71736366D01*
X49845595Y-71739162D01*
X49845817Y-71738990D01*
X49849579Y-71743823D01*
X49849581Y-71743826D01*
X49889400Y-71780482D01*
X49890504Y-71781541D01*
X51173497Y-73064534D01*
X51194889Y-73110410D01*
X51188238Y-73148133D01*
X51140424Y-73250671D01*
X51083793Y-73462019D01*
X51083792Y-73462025D01*
X51064723Y-73679994D01*
X51064723Y-73680005D01*
X51083792Y-73897974D01*
X51083793Y-73897980D01*
X51140422Y-74109322D01*
X51140424Y-74109326D01*
X51140425Y-74109330D01*
X51232898Y-74307639D01*
X51358402Y-74486877D01*
X51513123Y-74641598D01*
X51692361Y-74767102D01*
X51890670Y-74859575D01*
X51890676Y-74859576D01*
X51890677Y-74859577D01*
X52102019Y-74916206D01*
X52102023Y-74916207D01*
X52164302Y-74921655D01*
X52319995Y-74935277D01*
X52320000Y-74935277D01*
X52320005Y-74935277D01*
X52456235Y-74923358D01*
X52537977Y-74916207D01*
X52749330Y-74859575D01*
X52947639Y-74767102D01*
X53126877Y-74641598D01*
X53281598Y-74486877D01*
X53407102Y-74307639D01*
X53499575Y-74109330D01*
X53556207Y-73897977D01*
X53575277Y-73680005D01*
X57564723Y-73680005D01*
X57583792Y-73897974D01*
X57583793Y-73897980D01*
X57640422Y-74109322D01*
X57640424Y-74109326D01*
X57640425Y-74109330D01*
X57732898Y-74307639D01*
X57858402Y-74486877D01*
X58013123Y-74641598D01*
X58192361Y-74767102D01*
X58390670Y-74859575D01*
X58390676Y-74859576D01*
X58390677Y-74859577D01*
X58602019Y-74916206D01*
X58602023Y-74916207D01*
X58664302Y-74921655D01*
X58819995Y-74935277D01*
X58820000Y-74935277D01*
X58820005Y-74935277D01*
X58956235Y-74923358D01*
X59037977Y-74916207D01*
X59249330Y-74859575D01*
X59447639Y-74767102D01*
X59626877Y-74641598D01*
X59781598Y-74486877D01*
X59907102Y-74307639D01*
X59999575Y-74109330D01*
X60056207Y-73897977D01*
X60075277Y-73680000D01*
X60075277Y-73679994D01*
X60056207Y-73462025D01*
X60056206Y-73462019D01*
X59999577Y-73250677D01*
X59999576Y-73250676D01*
X59999575Y-73250670D01*
X59907102Y-73052362D01*
X59781598Y-72873123D01*
X59626877Y-72718402D01*
X59626874Y-72718400D01*
X59626875Y-72718400D01*
X59531818Y-72651841D01*
X59447639Y-72592898D01*
X59249330Y-72500425D01*
X59249326Y-72500424D01*
X59249322Y-72500422D01*
X59037980Y-72443793D01*
X59037974Y-72443792D01*
X58820005Y-72424723D01*
X58819995Y-72424723D01*
X58602025Y-72443792D01*
X58602019Y-72443793D01*
X58390677Y-72500422D01*
X58390670Y-72500424D01*
X58390670Y-72500425D01*
X58192362Y-72592898D01*
X58165210Y-72611910D01*
X58013122Y-72718402D01*
X57858402Y-72873122D01*
X57789809Y-72971084D01*
X57732898Y-73052362D01*
X57654494Y-73220499D01*
X57640427Y-73250666D01*
X57640422Y-73250677D01*
X57583793Y-73462019D01*
X57583792Y-73462025D01*
X57564723Y-73679994D01*
X57564723Y-73680005D01*
X53575277Y-73680005D01*
X53575277Y-73680000D01*
X53575277Y-73679994D01*
X53556207Y-73462025D01*
X53556206Y-73462019D01*
X53499577Y-73250677D01*
X53499576Y-73250676D01*
X53499575Y-73250670D01*
X53407102Y-73052362D01*
X53281598Y-72873123D01*
X53126877Y-72718402D01*
X53126874Y-72718400D01*
X53126875Y-72718400D01*
X53031818Y-72651841D01*
X52947639Y-72592898D01*
X52749330Y-72500425D01*
X52749326Y-72500424D01*
X52749322Y-72500422D01*
X52537980Y-72443793D01*
X52537974Y-72443792D01*
X52320005Y-72424723D01*
X52319995Y-72424723D01*
X52102025Y-72443792D01*
X52102019Y-72443793D01*
X51890677Y-72500422D01*
X51890661Y-72500428D01*
X51788133Y-72548237D01*
X51737706Y-72552648D01*
X51704534Y-72533496D01*
X50547174Y-71376136D01*
X50525782Y-71330260D01*
X50525500Y-71323810D01*
X50525500Y-71270006D01*
X62434518Y-71270006D01*
X62454421Y-71548291D01*
X62513728Y-71820918D01*
X62513733Y-71820937D01*
X62611228Y-72082333D01*
X62744942Y-72327211D01*
X62817939Y-72424723D01*
X62912145Y-72550568D01*
X63109432Y-72747855D01*
X63187518Y-72806309D01*
X63332788Y-72915057D01*
X63577666Y-73048771D01*
X63839062Y-73146266D01*
X63839067Y-73146267D01*
X63839077Y-73146271D01*
X64111706Y-73205578D01*
X64320330Y-73220499D01*
X64320335Y-73220500D01*
X64320343Y-73220500D01*
X64459665Y-73220500D01*
X64459668Y-73220499D01*
X64668294Y-73205578D01*
X64940923Y-73146271D01*
X64940934Y-73146266D01*
X64940937Y-73146266D01*
X65202333Y-73048771D01*
X65210994Y-73044042D01*
X65447213Y-72915056D01*
X65670568Y-72747855D01*
X65867855Y-72550568D01*
X66035056Y-72327213D01*
X66168769Y-72082337D01*
X66168769Y-72082335D01*
X66168771Y-72082333D01*
X66266266Y-71820937D01*
X66266266Y-71820934D01*
X66266271Y-71820923D01*
X66325578Y-71548294D01*
X66341172Y-71330260D01*
X66345482Y-71270006D01*
X66345482Y-71269993D01*
X66325578Y-70991708D01*
X66325387Y-70990829D01*
X66266271Y-70719077D01*
X66266267Y-70719067D01*
X66266266Y-70719062D01*
X66168771Y-70457666D01*
X66035057Y-70212788D01*
X65942275Y-70088846D01*
X65867855Y-69989432D01*
X65670568Y-69792145D01*
X65497871Y-69662866D01*
X65447211Y-69624942D01*
X65202333Y-69491228D01*
X64940937Y-69393733D01*
X64940925Y-69393730D01*
X64940923Y-69393729D01*
X64828809Y-69369340D01*
X64668291Y-69334421D01*
X64459669Y-69319500D01*
X64459657Y-69319500D01*
X64320343Y-69319500D01*
X64320330Y-69319500D01*
X64111708Y-69334421D01*
X63839081Y-69393728D01*
X63839062Y-69393733D01*
X63577666Y-69491228D01*
X63332788Y-69624942D01*
X63109429Y-69792147D01*
X62912147Y-69989429D01*
X62744942Y-70212788D01*
X62611228Y-70457666D01*
X62513733Y-70719062D01*
X62513728Y-70719081D01*
X62454421Y-70991708D01*
X62434518Y-71269993D01*
X62434518Y-71270006D01*
X50525500Y-71270006D01*
X50525500Y-69219699D01*
X50539948Y-69180005D01*
X51064723Y-69180005D01*
X51083792Y-69397974D01*
X51083793Y-69397980D01*
X51140422Y-69609322D01*
X51140424Y-69609326D01*
X51140425Y-69609330D01*
X51232898Y-69807639D01*
X51358402Y-69986877D01*
X51513123Y-70141598D01*
X51692361Y-70267102D01*
X51890670Y-70359575D01*
X52102023Y-70416207D01*
X52164302Y-70421655D01*
X52319995Y-70435277D01*
X52320000Y-70435277D01*
X52320005Y-70435277D01*
X52456235Y-70423358D01*
X52537977Y-70416207D01*
X52749330Y-70359575D01*
X52947639Y-70267102D01*
X53126877Y-70141598D01*
X53281598Y-69986877D01*
X53407102Y-69807639D01*
X53499575Y-69609330D01*
X53556207Y-69397977D01*
X53571596Y-69222073D01*
X53575277Y-69180005D01*
X57564723Y-69180005D01*
X57583792Y-69397974D01*
X57583793Y-69397980D01*
X57640422Y-69609322D01*
X57640424Y-69609326D01*
X57640425Y-69609330D01*
X57732898Y-69807639D01*
X57858402Y-69986877D01*
X58013123Y-70141598D01*
X58192361Y-70267102D01*
X58390670Y-70359575D01*
X58602023Y-70416207D01*
X58664302Y-70421655D01*
X58819995Y-70435277D01*
X58820000Y-70435277D01*
X58820005Y-70435277D01*
X58956235Y-70423358D01*
X59037977Y-70416207D01*
X59249330Y-70359575D01*
X59447639Y-70267102D01*
X59626877Y-70141598D01*
X59781598Y-69986877D01*
X59907102Y-69807639D01*
X59999575Y-69609330D01*
X60056207Y-69397977D01*
X60071596Y-69222073D01*
X60075277Y-69180005D01*
X60075277Y-69179994D01*
X60056207Y-68962025D01*
X60056206Y-68962019D01*
X59999577Y-68750677D01*
X59999576Y-68750676D01*
X59999575Y-68750670D01*
X59907102Y-68552362D01*
X59781598Y-68373123D01*
X59626877Y-68218402D01*
X59626874Y-68218400D01*
X59626875Y-68218400D01*
X59473087Y-68110717D01*
X59447639Y-68092898D01*
X59442934Y-68090704D01*
X59363225Y-68053534D01*
X59327433Y-68017741D01*
X59320500Y-67986468D01*
X59320500Y-66994500D01*
X59337813Y-66946934D01*
X59381650Y-66921624D01*
X59394500Y-66920500D01*
X59424592Y-66920500D01*
X59424594Y-66920500D01*
X59492657Y-66914315D01*
X59649270Y-66865512D01*
X59789653Y-66780648D01*
X59905648Y-66664653D01*
X59990512Y-66524270D01*
X60039315Y-66367657D01*
X60045500Y-66299594D01*
X60045500Y-65340406D01*
X60039315Y-65272343D01*
X59990512Y-65115730D01*
X59905648Y-64975347D01*
X59789653Y-64859352D01*
X59742177Y-64830652D01*
X59649267Y-64774486D01*
X59492661Y-64725686D01*
X59492658Y-64725685D01*
X59492657Y-64725685D01*
X59492655Y-64725684D01*
X59492651Y-64725684D01*
X59424601Y-64719500D01*
X59424594Y-64719500D01*
X58465406Y-64719500D01*
X58465398Y-64719500D01*
X58397348Y-64725684D01*
X58397338Y-64725686D01*
X58240732Y-64774486D01*
X58100346Y-64859352D01*
X57984352Y-64975346D01*
X57899486Y-65115732D01*
X57850686Y-65272338D01*
X57850684Y-65272348D01*
X57844500Y-65340398D01*
X57844500Y-66299601D01*
X57850684Y-66367651D01*
X57850686Y-66367661D01*
X57899486Y-66524267D01*
X57925868Y-66567908D01*
X57984352Y-66664653D01*
X58100347Y-66780648D01*
X58217619Y-66851541D01*
X58240732Y-66865513D01*
X58312803Y-66887971D01*
X58397343Y-66914315D01*
X58465406Y-66920500D01*
X58495500Y-66920500D01*
X58543066Y-66937813D01*
X58568376Y-66981650D01*
X58569500Y-66994500D01*
X58569500Y-67895725D01*
X58552187Y-67943291D01*
X58514653Y-67967203D01*
X58390673Y-68000423D01*
X58285629Y-68049406D01*
X58192362Y-68092898D01*
X58178876Y-68102341D01*
X58013122Y-68218402D01*
X57858402Y-68373122D01*
X57811169Y-68440579D01*
X57732898Y-68552362D01*
X57640427Y-68750666D01*
X57640422Y-68750677D01*
X57583793Y-68962019D01*
X57583792Y-68962025D01*
X57564723Y-69179994D01*
X57564723Y-69180005D01*
X53575277Y-69180005D01*
X53575277Y-69179994D01*
X53556207Y-68962025D01*
X53556206Y-68962019D01*
X53499577Y-68750677D01*
X53499576Y-68750676D01*
X53499575Y-68750670D01*
X53407102Y-68552362D01*
X53281598Y-68373123D01*
X53126877Y-68218402D01*
X53126874Y-68218400D01*
X53126875Y-68218400D01*
X53021464Y-68144591D01*
X52947639Y-68092898D01*
X52749330Y-68000425D01*
X52749326Y-68000424D01*
X52749322Y-68000422D01*
X52537980Y-67943793D01*
X52537974Y-67943792D01*
X52320005Y-67924723D01*
X52319995Y-67924723D01*
X52102025Y-67943792D01*
X52102019Y-67943793D01*
X51890677Y-68000422D01*
X51890670Y-68000424D01*
X51890670Y-68000425D01*
X51692362Y-68092898D01*
X51678876Y-68102341D01*
X51513122Y-68218402D01*
X51358402Y-68373122D01*
X51311169Y-68440579D01*
X51232898Y-68552362D01*
X51140427Y-68750666D01*
X51140422Y-68750677D01*
X51083793Y-68962019D01*
X51083792Y-68962025D01*
X51064723Y-69179994D01*
X51064723Y-69180005D01*
X50539948Y-69180005D01*
X50542813Y-69172133D01*
X50550429Y-69164309D01*
X50640483Y-69084530D01*
X50730220Y-68954523D01*
X50786237Y-68806818D01*
X50805278Y-68650000D01*
X50801724Y-68620731D01*
X50786238Y-68493191D01*
X50786237Y-68493182D01*
X50778213Y-68472025D01*
X50730221Y-68345478D01*
X50640483Y-68215470D01*
X50610997Y-68189348D01*
X50522240Y-68110717D01*
X50484109Y-68090704D01*
X50382366Y-68037304D01*
X50228987Y-67999500D01*
X50228985Y-67999500D01*
X50071015Y-67999500D01*
X50071012Y-67999500D01*
X49917633Y-68037304D01*
X49777761Y-68110716D01*
X49659516Y-68215470D01*
X49569779Y-68345478D01*
X49569778Y-68345478D01*
X49513764Y-68493177D01*
X49513761Y-68493191D01*
X49494722Y-68649996D01*
X49494722Y-68650003D01*
X49224660Y-68650003D01*
X49200591Y-68570660D01*
X49104159Y-68390249D01*
X49104154Y-68390243D01*
X49104153Y-68390241D01*
X48974384Y-68232116D01*
X48974383Y-68232115D01*
X48816258Y-68102346D01*
X48816254Y-68102343D01*
X48816251Y-68102341D01*
X48635840Y-68005909D01*
X48459799Y-67952507D01*
X48440083Y-67946526D01*
X48389227Y-67941517D01*
X48287520Y-67931500D01*
X46732480Y-67931500D01*
X46656198Y-67939012D01*
X46579916Y-67946526D01*
X46461149Y-67982554D01*
X46384160Y-68005909D01*
X46384158Y-68005909D01*
X46384158Y-68005910D01*
X46375649Y-68010458D01*
X46221418Y-68092897D01*
X46203751Y-68102340D01*
X46203741Y-68102346D01*
X46045616Y-68232115D01*
X46045615Y-68232116D01*
X45915846Y-68390241D01*
X45915841Y-68390248D01*
X45915841Y-68390249D01*
X45888939Y-68440579D01*
X45829190Y-68552362D01*
X45819409Y-68570660D01*
X45804221Y-68620727D01*
X45760026Y-68766416D01*
X45739975Y-68970000D01*
X45760026Y-69173583D01*
X45774735Y-69222071D01*
X45819409Y-69369340D01*
X45915841Y-69549751D01*
X45915843Y-69549754D01*
X45915846Y-69549758D01*
X46045615Y-69707883D01*
X46045616Y-69707884D01*
X46203741Y-69837653D01*
X46203743Y-69837654D01*
X46203749Y-69837659D01*
X46384160Y-69934091D01*
X46579918Y-69993474D01*
X46732480Y-70008500D01*
X47060500Y-70008500D01*
X47108066Y-70025813D01*
X47133376Y-70069650D01*
X47134500Y-70082500D01*
X47134500Y-72463500D01*
X47117187Y-72511066D01*
X47073350Y-72536376D01*
X47060500Y-72537500D01*
X46727480Y-72537500D01*
X46651198Y-72545013D01*
X46574916Y-72552526D01*
X46456149Y-72588554D01*
X46379160Y-72611909D01*
X46247145Y-72682473D01*
X46198751Y-72708340D01*
X46198741Y-72708346D01*
X46040616Y-72838115D01*
X46040615Y-72838116D01*
X45910846Y-72996241D01*
X45910841Y-72996248D01*
X45910841Y-72996249D01*
X45814409Y-73176660D01*
X45801110Y-73220500D01*
X45755026Y-73372416D01*
X45739992Y-73525064D01*
X45734975Y-73576000D01*
X44084786Y-73576000D01*
X44087369Y-73525064D01*
X44056556Y-73323929D01*
X43985886Y-73133113D01*
X43878252Y-72960429D01*
X43738059Y-72812947D01*
X43571049Y-72696705D01*
X43539681Y-72683244D01*
X43384058Y-72616460D01*
X43384053Y-72616458D01*
X43367603Y-72613078D01*
X43324496Y-72586544D01*
X43308500Y-72540593D01*
X43308500Y-71228826D01*
X44655624Y-71228826D01*
X44665943Y-71392856D01*
X44665944Y-71392862D01*
X44716729Y-71549165D01*
X44716733Y-71549173D01*
X44804794Y-71687935D01*
X44804796Y-71687937D01*
X44804798Y-71687940D01*
X44924607Y-71800448D01*
X45068632Y-71879627D01*
X45227823Y-71920500D01*
X45227826Y-71920500D01*
X45350924Y-71920500D01*
X45350925Y-71920500D01*
X45390428Y-71915509D01*
X45473052Y-71905072D01*
X45473052Y-71905071D01*
X45473058Y-71905071D01*
X45625871Y-71844568D01*
X45758837Y-71747963D01*
X45858158Y-71627904D01*
X45863597Y-71621330D01*
X45863597Y-71621328D01*
X45863600Y-71621326D01*
X45933579Y-71472613D01*
X45935340Y-71463381D01*
X45964376Y-71311172D01*
X45964376Y-71311170D01*
X45961785Y-71269993D01*
X45954056Y-71147140D01*
X45927705Y-71066039D01*
X45903270Y-70990834D01*
X45903266Y-70990826D01*
X45815205Y-70852064D01*
X45815203Y-70852062D01*
X45815202Y-70852060D01*
X45695393Y-70739552D01*
X45695392Y-70739551D01*
X45551368Y-70660373D01*
X45551369Y-70660373D01*
X45392181Y-70619501D01*
X45392180Y-70619500D01*
X45392177Y-70619500D01*
X45269075Y-70619500D01*
X45269067Y-70619500D01*
X45146947Y-70634927D01*
X44994131Y-70695431D01*
X44994130Y-70695431D01*
X44994129Y-70695432D01*
X44961579Y-70719081D01*
X44861162Y-70792037D01*
X44756402Y-70918669D01*
X44756397Y-70918678D01*
X44686421Y-71067384D01*
X44686419Y-71067391D01*
X44655624Y-71228826D01*
X43308500Y-71228826D01*
X43308500Y-69994960D01*
X43325813Y-69947394D01*
X43360345Y-69924354D01*
X43456588Y-69894159D01*
X43634502Y-69795409D01*
X43788895Y-69662866D01*
X43913448Y-69501958D01*
X44003060Y-69319271D01*
X44054063Y-69122285D01*
X44064369Y-68919064D01*
X44033556Y-68717929D01*
X43962886Y-68527113D01*
X43855252Y-68354429D01*
X43715059Y-68206947D01*
X43548049Y-68090705D01*
X43474965Y-68059342D01*
X43361058Y-68010460D01*
X43361053Y-68010458D01*
X43344603Y-68007078D01*
X43301496Y-67980544D01*
X43285500Y-67934593D01*
X43285500Y-66994500D01*
X43302813Y-66946934D01*
X43346650Y-66921624D01*
X43359500Y-66920500D01*
X44184592Y-66920500D01*
X44184594Y-66920500D01*
X44252657Y-66914315D01*
X44409270Y-66865512D01*
X44549653Y-66780648D01*
X44665648Y-66664653D01*
X44750512Y-66524270D01*
X44799315Y-66367657D01*
X44805500Y-66299594D01*
X44805500Y-65340406D01*
X44799315Y-65272343D01*
X44750512Y-65115730D01*
X44665648Y-64975347D01*
X44549653Y-64859352D01*
X44502177Y-64830652D01*
X44409267Y-64774486D01*
X44252661Y-64725686D01*
X44252658Y-64725685D01*
X44252657Y-64725685D01*
X44252655Y-64725684D01*
X44252651Y-64725684D01*
X44184601Y-64719500D01*
X44184594Y-64719500D01*
X43225406Y-64719500D01*
X43225396Y-64719500D01*
X43177538Y-64723849D01*
X43128600Y-64710912D01*
X43118516Y-64702479D01*
X42552174Y-64136136D01*
X42530782Y-64090259D01*
X42530500Y-64083810D01*
X42530500Y-62923730D01*
X42547813Y-62876164D01*
X42591650Y-62850854D01*
X42641500Y-62859644D01*
X42670740Y-62890743D01*
X42757871Y-63065725D01*
X42883718Y-63232372D01*
X43038042Y-63373058D01*
X43215590Y-63482991D01*
X43410316Y-63558428D01*
X43615587Y-63596800D01*
X43824413Y-63596800D01*
X44029684Y-63558428D01*
X44224410Y-63482991D01*
X44401958Y-63373058D01*
X44556282Y-63232372D01*
X44682129Y-63065725D01*
X44775211Y-62878791D01*
X44832359Y-62677936D01*
X44851627Y-62470000D01*
X44832359Y-62262064D01*
X44775211Y-62061209D01*
X44773187Y-62057144D01*
X44760588Y-62031841D01*
X44754884Y-61981545D01*
X44774502Y-61946533D01*
X45113862Y-61607174D01*
X45159740Y-61585782D01*
X45166189Y-61585500D01*
X45367459Y-61585500D01*
X45415025Y-61602813D01*
X45440335Y-61646650D01*
X45431545Y-61696500D01*
X45425537Y-61704715D01*
X45425780Y-61704898D01*
X45297873Y-61874271D01*
X45297871Y-61874273D01*
X45204789Y-62061209D01*
X45204787Y-62061214D01*
X45147641Y-62262062D01*
X45147639Y-62262075D01*
X45128373Y-62469996D01*
X45128373Y-62470003D01*
X45147639Y-62677924D01*
X45147641Y-62677937D01*
X45204041Y-62876164D01*
X45204789Y-62878791D01*
X45227166Y-62923730D01*
X45297871Y-63065726D01*
X45297873Y-63065728D01*
X45423718Y-63232372D01*
X45578042Y-63373058D01*
X45755590Y-63482991D01*
X45837231Y-63514618D01*
X45875332Y-63547944D01*
X45884500Y-63583621D01*
X45884500Y-64728770D01*
X45867187Y-64776336D01*
X45837232Y-64797773D01*
X45752368Y-64830650D01*
X45752363Y-64830652D01*
X45752358Y-64830654D01*
X45752358Y-64830655D01*
X45578958Y-64938019D01*
X45578957Y-64938019D01*
X45428235Y-65075420D01*
X45428234Y-65075421D01*
X45305329Y-65238174D01*
X45305328Y-65238177D01*
X45214418Y-65420750D01*
X45214416Y-65420755D01*
X45158602Y-65616917D01*
X45158601Y-65616923D01*
X45139785Y-65819996D01*
X45139785Y-65820003D01*
X45158601Y-66023076D01*
X45158602Y-66023082D01*
X45202342Y-66176808D01*
X45214418Y-66219250D01*
X45305327Y-66401821D01*
X45305328Y-66401822D01*
X45305329Y-66401825D01*
X45428234Y-66564578D01*
X45428235Y-66564579D01*
X45544425Y-66670499D01*
X45578959Y-66701981D01*
X45752363Y-66809348D01*
X45942544Y-66883024D01*
X46143024Y-66920500D01*
X46143026Y-66920500D01*
X46346974Y-66920500D01*
X46346976Y-66920500D01*
X46547456Y-66883024D01*
X46737637Y-66809348D01*
X46911041Y-66701981D01*
X47061764Y-66564579D01*
X47065764Y-66559283D01*
X47184670Y-66401825D01*
X47184670Y-66401824D01*
X47184673Y-66401821D01*
X47275582Y-66219250D01*
X47331397Y-66023083D01*
X47331683Y-66020003D01*
X47350215Y-65820003D01*
X47350215Y-65819996D01*
X47331398Y-65616923D01*
X47331397Y-65616917D01*
X47322449Y-65585470D01*
X47275582Y-65420750D01*
X47184673Y-65238179D01*
X47184670Y-65238175D01*
X47184670Y-65238174D01*
X47061765Y-65075421D01*
X47061764Y-65075420D01*
X46911041Y-64938019D01*
X46783989Y-64859352D01*
X46737637Y-64830652D01*
X46737635Y-64830651D01*
X46682767Y-64809395D01*
X46644668Y-64776068D01*
X46635500Y-64740392D01*
X46635500Y-63583621D01*
X46652813Y-63536055D01*
X46682768Y-63514618D01*
X46764410Y-63482991D01*
X46941958Y-63373058D01*
X47096282Y-63232372D01*
X47222129Y-63065725D01*
X47315211Y-62878791D01*
X47372359Y-62677936D01*
X47391627Y-62470000D01*
X47372359Y-62262064D01*
X47315211Y-62061209D01*
X47222129Y-61874275D01*
X47222128Y-61874274D01*
X47222128Y-61874273D01*
X47222126Y-61874271D01*
X47187455Y-61828360D01*
X47096282Y-61707628D01*
X47096279Y-61707625D01*
X47094220Y-61704898D01*
X47095594Y-61703859D01*
X47078603Y-61662537D01*
X47093950Y-61614300D01*
X47136711Y-61587213D01*
X47152541Y-61585500D01*
X47907459Y-61585500D01*
X47955025Y-61602813D01*
X47980335Y-61646650D01*
X47971545Y-61696500D01*
X47965537Y-61704715D01*
X47965780Y-61704898D01*
X47837873Y-61874271D01*
X47837871Y-61874273D01*
X47744789Y-62061209D01*
X47744787Y-62061214D01*
X47687641Y-62262062D01*
X47687639Y-62262075D01*
X47668373Y-62469996D01*
X47668373Y-62470003D01*
X47687639Y-62677924D01*
X47687641Y-62677937D01*
X47744041Y-62876164D01*
X47744789Y-62878791D01*
X47767166Y-62923730D01*
X47837871Y-63065726D01*
X47837873Y-63065728D01*
X47963718Y-63232372D01*
X48118042Y-63373058D01*
X48295590Y-63482991D01*
X48377231Y-63514618D01*
X48415332Y-63547944D01*
X48424500Y-63583621D01*
X48424500Y-64728770D01*
X48407187Y-64776336D01*
X48377232Y-64797773D01*
X48292368Y-64830650D01*
X48292363Y-64830652D01*
X48292358Y-64830654D01*
X48292358Y-64830655D01*
X48118958Y-64938019D01*
X48118957Y-64938019D01*
X47968235Y-65075420D01*
X47968234Y-65075421D01*
X47845329Y-65238174D01*
X47845328Y-65238177D01*
X47754418Y-65420750D01*
X47754416Y-65420755D01*
X47698602Y-65616917D01*
X47698601Y-65616923D01*
X47679785Y-65819996D01*
X47679785Y-65820003D01*
X47698601Y-66023076D01*
X47698602Y-66023082D01*
X47742342Y-66176808D01*
X47754418Y-66219250D01*
X47845327Y-66401821D01*
X47845328Y-66401822D01*
X47845329Y-66401825D01*
X47968234Y-66564578D01*
X47968235Y-66564579D01*
X48084425Y-66670499D01*
X48118959Y-66701981D01*
X48292363Y-66809348D01*
X48482544Y-66883024D01*
X48683024Y-66920500D01*
X48683026Y-66920500D01*
X48886974Y-66920500D01*
X48886976Y-66920500D01*
X49087456Y-66883024D01*
X49277637Y-66809348D01*
X49451041Y-66701981D01*
X49601764Y-66564579D01*
X49605764Y-66559283D01*
X49724670Y-66401825D01*
X49724670Y-66401824D01*
X49724673Y-66401821D01*
X49815582Y-66219250D01*
X49871397Y-66023083D01*
X49871683Y-66020003D01*
X49890215Y-65820003D01*
X49890215Y-65819996D01*
X49871398Y-65616923D01*
X49871397Y-65616917D01*
X49862449Y-65585470D01*
X49815582Y-65420750D01*
X49724673Y-65238179D01*
X49724670Y-65238175D01*
X49724670Y-65238174D01*
X49601765Y-65075421D01*
X49601764Y-65075420D01*
X49451041Y-64938019D01*
X49323989Y-64859352D01*
X49277637Y-64830652D01*
X49277635Y-64830651D01*
X49222767Y-64809395D01*
X49184668Y-64776068D01*
X49175500Y-64740392D01*
X49175500Y-63583621D01*
X49192813Y-63536055D01*
X49222768Y-63514618D01*
X49304410Y-63482991D01*
X49481958Y-63373058D01*
X49636282Y-63232372D01*
X49762129Y-63065725D01*
X49855211Y-62878791D01*
X49912359Y-62677936D01*
X49931627Y-62470000D01*
X49912359Y-62262064D01*
X49855211Y-62061209D01*
X49762129Y-61874275D01*
X49762128Y-61874274D01*
X49762128Y-61874273D01*
X49762126Y-61874271D01*
X49727455Y-61828360D01*
X49636282Y-61707628D01*
X49636279Y-61707625D01*
X49634220Y-61704898D01*
X49635594Y-61703859D01*
X49618603Y-61662537D01*
X49633950Y-61614300D01*
X49676711Y-61587213D01*
X49692541Y-61585500D01*
X50447459Y-61585500D01*
X50495025Y-61602813D01*
X50520335Y-61646650D01*
X50511545Y-61696500D01*
X50505537Y-61704715D01*
X50505780Y-61704898D01*
X50377873Y-61874271D01*
X50377871Y-61874273D01*
X50284789Y-62061209D01*
X50284787Y-62061214D01*
X50227641Y-62262062D01*
X50227639Y-62262075D01*
X50208373Y-62469996D01*
X50208373Y-62470003D01*
X50227639Y-62677924D01*
X50227641Y-62677937D01*
X50284041Y-62876164D01*
X50284789Y-62878791D01*
X50307166Y-62923730D01*
X50377871Y-63065726D01*
X50377873Y-63065728D01*
X50503718Y-63232372D01*
X50658042Y-63373058D01*
X50835590Y-63482991D01*
X50917231Y-63514618D01*
X50955332Y-63547944D01*
X50964500Y-63583621D01*
X50964500Y-64728770D01*
X50947187Y-64776336D01*
X50917232Y-64797773D01*
X50832368Y-64830650D01*
X50832363Y-64830652D01*
X50832358Y-64830654D01*
X50832358Y-64830655D01*
X50658958Y-64938019D01*
X50658957Y-64938019D01*
X50508235Y-65075420D01*
X50508234Y-65075421D01*
X50385329Y-65238174D01*
X50385328Y-65238177D01*
X50294418Y-65420750D01*
X50294416Y-65420755D01*
X50238602Y-65616917D01*
X50238601Y-65616923D01*
X50219785Y-65819996D01*
X50219785Y-65820003D01*
X50238601Y-66023076D01*
X50238602Y-66023082D01*
X50282342Y-66176808D01*
X50294418Y-66219250D01*
X50385327Y-66401821D01*
X50385328Y-66401822D01*
X50385329Y-66401825D01*
X50508234Y-66564578D01*
X50508235Y-66564579D01*
X50624425Y-66670499D01*
X50658959Y-66701981D01*
X50832363Y-66809348D01*
X51022544Y-66883024D01*
X51223024Y-66920500D01*
X51223026Y-66920500D01*
X51426974Y-66920500D01*
X51426976Y-66920500D01*
X51627456Y-66883024D01*
X51817637Y-66809348D01*
X51991041Y-66701981D01*
X52141764Y-66564579D01*
X52145764Y-66559283D01*
X52264670Y-66401825D01*
X52264670Y-66401824D01*
X52264673Y-66401821D01*
X52355582Y-66219250D01*
X52411397Y-66023083D01*
X52411683Y-66020003D01*
X52430215Y-65820003D01*
X52430215Y-65819996D01*
X52411398Y-65616923D01*
X52411397Y-65616917D01*
X52402449Y-65585470D01*
X52355582Y-65420750D01*
X52264673Y-65238179D01*
X52264670Y-65238175D01*
X52264670Y-65238174D01*
X52141765Y-65075421D01*
X52141764Y-65075420D01*
X51991041Y-64938019D01*
X51863989Y-64859352D01*
X51817637Y-64830652D01*
X51817635Y-64830651D01*
X51762767Y-64809395D01*
X51724668Y-64776068D01*
X51715500Y-64740392D01*
X51715500Y-63583621D01*
X51732813Y-63536055D01*
X51762768Y-63514618D01*
X51844410Y-63482991D01*
X52021958Y-63373058D01*
X52176282Y-63232372D01*
X52302129Y-63065725D01*
X52395211Y-62878791D01*
X52452359Y-62677936D01*
X52471627Y-62470000D01*
X52452359Y-62262064D01*
X52395211Y-62061209D01*
X52302129Y-61874275D01*
X52302128Y-61874274D01*
X52302128Y-61874273D01*
X52302126Y-61874271D01*
X52267455Y-61828360D01*
X52176282Y-61707628D01*
X52176279Y-61707625D01*
X52174220Y-61704898D01*
X52175594Y-61703859D01*
X52158603Y-61662537D01*
X52173950Y-61614300D01*
X52216711Y-61587213D01*
X52232541Y-61585500D01*
X52987459Y-61585500D01*
X53035025Y-61602813D01*
X53060335Y-61646650D01*
X53051545Y-61696500D01*
X53045537Y-61704715D01*
X53045780Y-61704898D01*
X52917873Y-61874271D01*
X52917871Y-61874273D01*
X52824789Y-62061209D01*
X52824787Y-62061214D01*
X52767641Y-62262062D01*
X52767639Y-62262075D01*
X52748373Y-62469996D01*
X52748373Y-62470003D01*
X52767639Y-62677924D01*
X52767641Y-62677937D01*
X52824041Y-62876164D01*
X52824789Y-62878791D01*
X52847166Y-62923730D01*
X52917871Y-63065726D01*
X52917873Y-63065728D01*
X53043718Y-63232372D01*
X53198042Y-63373058D01*
X53375590Y-63482991D01*
X53457231Y-63514618D01*
X53495332Y-63547944D01*
X53504500Y-63583621D01*
X53504500Y-64728770D01*
X53487187Y-64776336D01*
X53457232Y-64797773D01*
X53372368Y-64830650D01*
X53372363Y-64830652D01*
X53372358Y-64830654D01*
X53372358Y-64830655D01*
X53198958Y-64938019D01*
X53198957Y-64938019D01*
X53048235Y-65075420D01*
X53048234Y-65075421D01*
X52925329Y-65238174D01*
X52925328Y-65238177D01*
X52834418Y-65420750D01*
X52834416Y-65420755D01*
X52778602Y-65616917D01*
X52778601Y-65616923D01*
X52759785Y-65819996D01*
X52759785Y-65820003D01*
X52778601Y-66023076D01*
X52778602Y-66023082D01*
X52822342Y-66176808D01*
X52834418Y-66219250D01*
X52925327Y-66401821D01*
X52925328Y-66401822D01*
X52925329Y-66401825D01*
X53048234Y-66564578D01*
X53048235Y-66564579D01*
X53164425Y-66670499D01*
X53198959Y-66701981D01*
X53372363Y-66809348D01*
X53562544Y-66883024D01*
X53763024Y-66920500D01*
X53763026Y-66920500D01*
X53966974Y-66920500D01*
X53966976Y-66920500D01*
X54167456Y-66883024D01*
X54357637Y-66809348D01*
X54531041Y-66701981D01*
X54681764Y-66564579D01*
X54685764Y-66559283D01*
X54804670Y-66401825D01*
X54804670Y-66401824D01*
X54804673Y-66401821D01*
X54895582Y-66219250D01*
X54951397Y-66023083D01*
X54951683Y-66020003D01*
X54970215Y-65820003D01*
X54970215Y-65819996D01*
X54951398Y-65616923D01*
X54951397Y-65616917D01*
X54942449Y-65585470D01*
X54895582Y-65420750D01*
X54804673Y-65238179D01*
X54804670Y-65238175D01*
X54804670Y-65238174D01*
X54681765Y-65075421D01*
X54681764Y-65075420D01*
X54531041Y-64938019D01*
X54403989Y-64859352D01*
X54357637Y-64830652D01*
X54357635Y-64830651D01*
X54302767Y-64809395D01*
X54264668Y-64776068D01*
X54255500Y-64740392D01*
X54255500Y-63583621D01*
X54272813Y-63536055D01*
X54302768Y-63514618D01*
X54384410Y-63482991D01*
X54561958Y-63373058D01*
X54716282Y-63232372D01*
X54842129Y-63065725D01*
X54935211Y-62878791D01*
X54992359Y-62677936D01*
X55011627Y-62470000D01*
X54992359Y-62262064D01*
X54935211Y-62061209D01*
X54842129Y-61874275D01*
X54842128Y-61874274D01*
X54842128Y-61874273D01*
X54842126Y-61874271D01*
X54807455Y-61828360D01*
X54716282Y-61707628D01*
X54716279Y-61707625D01*
X54714220Y-61704898D01*
X54715594Y-61703859D01*
X54698603Y-61662537D01*
X54713950Y-61614300D01*
X54756711Y-61587213D01*
X54772541Y-61585500D01*
X55527459Y-61585500D01*
X55575025Y-61602813D01*
X55600335Y-61646650D01*
X55591545Y-61696500D01*
X55585537Y-61704715D01*
X55585780Y-61704898D01*
X55457873Y-61874271D01*
X55457871Y-61874273D01*
X55364789Y-62061209D01*
X55364787Y-62061214D01*
X55307641Y-62262062D01*
X55307639Y-62262075D01*
X55288373Y-62469996D01*
X55288373Y-62470003D01*
X55307639Y-62677924D01*
X55307641Y-62677937D01*
X55364041Y-62876164D01*
X55364789Y-62878791D01*
X55387166Y-62923730D01*
X55457871Y-63065726D01*
X55457873Y-63065728D01*
X55583718Y-63232372D01*
X55738042Y-63373058D01*
X55915590Y-63482991D01*
X55982231Y-63508807D01*
X56020332Y-63542133D01*
X56029500Y-63577810D01*
X56029500Y-64734581D01*
X56012187Y-64782147D01*
X55982233Y-64803584D01*
X55912364Y-64830651D01*
X55912358Y-64830655D01*
X55738958Y-64938019D01*
X55738957Y-64938019D01*
X55588235Y-65075420D01*
X55588234Y-65075421D01*
X55465329Y-65238174D01*
X55465328Y-65238177D01*
X55374418Y-65420750D01*
X55374416Y-65420755D01*
X55318602Y-65616917D01*
X55318601Y-65616923D01*
X55299785Y-65819996D01*
X55299785Y-65820003D01*
X55318601Y-66023076D01*
X55318602Y-66023082D01*
X55362342Y-66176808D01*
X55374418Y-66219250D01*
X55465327Y-66401821D01*
X55465328Y-66401822D01*
X55465329Y-66401825D01*
X55588234Y-66564578D01*
X55588235Y-66564579D01*
X55704425Y-66670499D01*
X55738959Y-66701981D01*
X55912363Y-66809348D01*
X56102544Y-66883024D01*
X56303024Y-66920500D01*
X56303026Y-66920500D01*
X56506974Y-66920500D01*
X56506976Y-66920500D01*
X56707456Y-66883024D01*
X56897637Y-66809348D01*
X57071041Y-66701981D01*
X57221764Y-66564579D01*
X57225764Y-66559283D01*
X57344670Y-66401825D01*
X57344670Y-66401824D01*
X57344673Y-66401821D01*
X57435582Y-66219250D01*
X57491397Y-66023083D01*
X57491683Y-66020003D01*
X57510215Y-65820003D01*
X57510215Y-65819996D01*
X57491398Y-65616923D01*
X57491397Y-65616917D01*
X57482449Y-65585470D01*
X57435582Y-65420750D01*
X57344673Y-65238179D01*
X57344670Y-65238175D01*
X57344670Y-65238174D01*
X57221765Y-65075421D01*
X57221764Y-65075420D01*
X57071041Y-64938019D01*
X56943989Y-64859352D01*
X56897637Y-64830652D01*
X56897635Y-64830651D01*
X56827767Y-64803584D01*
X56789668Y-64770257D01*
X56780500Y-64734581D01*
X56780500Y-63589432D01*
X56797813Y-63541866D01*
X56827768Y-63520429D01*
X56924410Y-63482991D01*
X57101958Y-63373058D01*
X57256282Y-63232372D01*
X57382129Y-63065725D01*
X57475211Y-62878791D01*
X57532359Y-62677936D01*
X57551627Y-62470000D01*
X57532359Y-62262064D01*
X57475211Y-62061209D01*
X57382129Y-61874275D01*
X57382128Y-61874274D01*
X57382128Y-61874273D01*
X57382126Y-61874271D01*
X57347455Y-61828360D01*
X57256282Y-61707628D01*
X57256279Y-61707625D01*
X57254220Y-61704898D01*
X57255594Y-61703859D01*
X57238603Y-61662537D01*
X57253950Y-61614300D01*
X57296711Y-61587213D01*
X57312541Y-61585500D01*
X58067459Y-61585500D01*
X58115025Y-61602813D01*
X58140335Y-61646650D01*
X58131545Y-61696500D01*
X58125537Y-61704715D01*
X58125780Y-61704898D01*
X57997873Y-61874271D01*
X57997871Y-61874273D01*
X57904789Y-62061209D01*
X57904787Y-62061214D01*
X57847641Y-62262062D01*
X57847639Y-62262075D01*
X57828373Y-62469996D01*
X57828373Y-62470003D01*
X57847639Y-62677924D01*
X57847641Y-62677937D01*
X57904041Y-62876164D01*
X57904789Y-62878791D01*
X57927166Y-62923730D01*
X57997871Y-63065726D01*
X57997873Y-63065728D01*
X58123718Y-63232372D01*
X58278042Y-63373058D01*
X58455590Y-63482991D01*
X58650316Y-63558428D01*
X58855587Y-63596800D01*
X59064413Y-63596800D01*
X59269684Y-63558428D01*
X59464410Y-63482991D01*
X59641958Y-63373058D01*
X59796282Y-63232372D01*
X59922129Y-63065725D01*
X60015211Y-62878791D01*
X60072359Y-62677936D01*
X60080154Y-62593806D01*
X60101782Y-62548039D01*
X60147768Y-62526882D01*
X60196594Y-62540234D01*
X60206165Y-62548307D01*
X61620413Y-63962555D01*
X61630035Y-63974404D01*
X61638810Y-63987834D01*
X61638813Y-63987838D01*
X61668049Y-64010594D01*
X61671486Y-64013628D01*
X61675379Y-64017521D01*
X61693753Y-64030639D01*
X61694980Y-64031554D01*
X61713798Y-64046200D01*
X61737706Y-64064809D01*
X61737707Y-64064809D01*
X61737708Y-64064810D01*
X61743101Y-64067729D01*
X61742966Y-64067978D01*
X61746058Y-64069569D01*
X61746183Y-64069315D01*
X61751693Y-64072008D01*
X61751696Y-64072010D01*
X61803605Y-64087463D01*
X61804978Y-64087903D01*
X61856235Y-64105500D01*
X61856236Y-64105500D01*
X61862286Y-64106510D01*
X61862239Y-64106786D01*
X61865688Y-64107289D01*
X61865723Y-64107009D01*
X61871800Y-64107766D01*
X61871807Y-64107768D01*
X61904806Y-64106403D01*
X61925892Y-64105532D01*
X61927420Y-64105500D01*
X63097645Y-64105500D01*
X63145211Y-64122813D01*
X63170521Y-64166650D01*
X63161731Y-64216500D01*
X63147498Y-64234187D01*
X63113235Y-64265420D01*
X63113234Y-64265421D01*
X62990329Y-64428174D01*
X62990328Y-64428177D01*
X62899418Y-64610750D01*
X62899416Y-64610755D01*
X62843602Y-64806917D01*
X62843601Y-64806923D01*
X62824785Y-65009996D01*
X62824785Y-65010003D01*
X62843601Y-65213076D01*
X62843602Y-65213082D01*
X62899416Y-65409244D01*
X62899418Y-65409250D01*
X62990327Y-65591821D01*
X62990328Y-65591822D01*
X62990329Y-65591825D01*
X63113234Y-65754578D01*
X63113235Y-65754579D01*
X63232362Y-65863177D01*
X63263959Y-65891981D01*
X63437363Y-65999348D01*
X63627544Y-66073024D01*
X63828024Y-66110500D01*
X63828026Y-66110500D01*
X64031974Y-66110500D01*
X64031976Y-66110500D01*
X64232456Y-66073024D01*
X64422637Y-65999348D01*
X64596041Y-65891981D01*
X64746764Y-65754579D01*
X64776293Y-65715477D01*
X64869670Y-65591825D01*
X64869670Y-65591824D01*
X64869673Y-65591821D01*
X64960582Y-65409250D01*
X65016397Y-65213083D01*
X65035215Y-65010000D01*
X65032004Y-64975346D01*
X65016398Y-64806923D01*
X65016397Y-64806917D01*
X64994162Y-64728770D01*
X64960582Y-64610750D01*
X64869673Y-64428179D01*
X64869670Y-64428175D01*
X64869670Y-64428174D01*
X64746765Y-64265421D01*
X64746764Y-64265420D01*
X64712502Y-64234187D01*
X64689013Y-64189348D01*
X64699842Y-64139901D01*
X64739921Y-64108982D01*
X64762355Y-64105500D01*
X65003811Y-64105500D01*
X65051377Y-64122813D01*
X65056137Y-64127174D01*
X65435108Y-64506145D01*
X65456500Y-64552021D01*
X65449026Y-64591451D01*
X65439417Y-64610750D01*
X65439416Y-64610752D01*
X65383602Y-64806917D01*
X65383601Y-64806923D01*
X65364785Y-65009996D01*
X65364785Y-65010003D01*
X65383601Y-65213076D01*
X65383602Y-65213082D01*
X65439416Y-65409244D01*
X65439418Y-65409250D01*
X65530327Y-65591821D01*
X65530328Y-65591822D01*
X65530329Y-65591825D01*
X65653234Y-65754578D01*
X65653235Y-65754579D01*
X65772362Y-65863177D01*
X65803959Y-65891981D01*
X65977363Y-65999348D01*
X66167544Y-66073024D01*
X66368024Y-66110500D01*
X66368026Y-66110500D01*
X66571974Y-66110500D01*
X66571976Y-66110500D01*
X66772456Y-66073024D01*
X66962637Y-65999348D01*
X67136041Y-65891981D01*
X67286764Y-65754579D01*
X67316293Y-65715477D01*
X67409670Y-65591825D01*
X67409670Y-65591824D01*
X67409673Y-65591821D01*
X67500582Y-65409250D01*
X67556397Y-65213083D01*
X67575215Y-65010000D01*
X67572004Y-64975346D01*
X67556398Y-64806923D01*
X67556397Y-64806917D01*
X67534162Y-64728770D01*
X67500582Y-64610750D01*
X67409673Y-64428179D01*
X67409670Y-64428175D01*
X67409670Y-64428174D01*
X67286765Y-64265421D01*
X67286764Y-64265420D01*
X67136041Y-64128019D01*
X67102561Y-64107289D01*
X66962637Y-64020652D01*
X66772456Y-63946976D01*
X66684407Y-63930516D01*
X66571979Y-63909500D01*
X66571976Y-63909500D01*
X66368024Y-63909500D01*
X66368020Y-63909500D01*
X66218115Y-63937522D01*
X66167544Y-63946976D01*
X66167542Y-63946976D01*
X66167540Y-63946977D01*
X66047066Y-63993648D01*
X65996458Y-63994687D01*
X65968009Y-63976971D01*
X65488479Y-63497441D01*
X65478853Y-63485586D01*
X65470086Y-63472166D01*
X65470083Y-63472163D01*
X65440853Y-63449412D01*
X65437415Y-63446377D01*
X65433518Y-63442480D01*
X65424004Y-63435687D01*
X65415123Y-63429346D01*
X65413897Y-63428432D01*
X65399864Y-63417510D01*
X65371189Y-63395191D01*
X65371186Y-63395190D01*
X65371185Y-63395189D01*
X65365795Y-63392272D01*
X65365928Y-63392024D01*
X65362829Y-63390429D01*
X65362706Y-63390682D01*
X65357201Y-63387990D01*
X65305347Y-63372552D01*
X65303892Y-63372086D01*
X65252661Y-63354499D01*
X65246615Y-63353491D01*
X65246661Y-63353214D01*
X65243206Y-63352710D01*
X65243172Y-63352991D01*
X65237089Y-63352232D01*
X65237088Y-63352232D01*
X65237086Y-63352232D01*
X65183003Y-63354468D01*
X65181475Y-63354500D01*
X64784294Y-63354500D01*
X64736728Y-63337187D01*
X64711418Y-63293350D01*
X64720208Y-63243500D01*
X64734441Y-63225813D01*
X64746764Y-63214579D01*
X64746765Y-63214578D01*
X64869670Y-63051825D01*
X64869670Y-63051824D01*
X64869673Y-63051821D01*
X64960582Y-62869250D01*
X65016397Y-62673083D01*
X65029945Y-62526882D01*
X65035215Y-62470003D01*
X65035215Y-62469996D01*
X65016398Y-62266923D01*
X65016397Y-62266917D01*
X65015016Y-62262062D01*
X64960582Y-62070750D01*
X64869673Y-61888179D01*
X64869670Y-61888175D01*
X64869670Y-61888174D01*
X64746765Y-61725421D01*
X64746764Y-61725420D01*
X64712502Y-61694187D01*
X64689013Y-61649348D01*
X64699842Y-61599901D01*
X64739921Y-61568982D01*
X64762355Y-61565500D01*
X65003811Y-61565500D01*
X65051377Y-61582813D01*
X65056137Y-61587174D01*
X65435108Y-61966145D01*
X65456500Y-62012021D01*
X65449026Y-62051451D01*
X65439417Y-62070750D01*
X65439416Y-62070752D01*
X65383602Y-62266917D01*
X65383601Y-62266923D01*
X65364785Y-62469996D01*
X65364785Y-62470003D01*
X65383601Y-62673076D01*
X65383602Y-62673082D01*
X65436685Y-62859644D01*
X65439418Y-62869250D01*
X65530327Y-63051821D01*
X65530328Y-63051822D01*
X65530329Y-63051825D01*
X65653234Y-63214578D01*
X65653235Y-63214579D01*
X65803956Y-63351979D01*
X65803957Y-63351979D01*
X65803959Y-63351981D01*
X65977363Y-63459348D01*
X66167544Y-63533024D01*
X66368024Y-63570500D01*
X66368026Y-63570500D01*
X66571974Y-63570500D01*
X66571976Y-63570500D01*
X66772456Y-63533024D01*
X66962637Y-63459348D01*
X67136041Y-63351981D01*
X67136042Y-63351979D01*
X67136044Y-63351979D01*
X67286764Y-63214579D01*
X67286765Y-63214578D01*
X67409670Y-63051825D01*
X67409670Y-63051824D01*
X67409673Y-63051821D01*
X67500582Y-62869250D01*
X67556397Y-62673083D01*
X67569945Y-62526882D01*
X67575215Y-62470003D01*
X67575215Y-62469996D01*
X67556398Y-62266923D01*
X67556397Y-62266917D01*
X67555016Y-62262062D01*
X67500582Y-62070750D01*
X67409673Y-61888179D01*
X67409670Y-61888175D01*
X67409670Y-61888174D01*
X67286765Y-61725421D01*
X67286764Y-61725420D01*
X67136041Y-61588019D01*
X67089227Y-61559033D01*
X66962637Y-61480652D01*
X66772456Y-61406976D01*
X66684407Y-61390516D01*
X66571979Y-61369500D01*
X66571976Y-61369500D01*
X66368024Y-61369500D01*
X66368020Y-61369500D01*
X66218115Y-61397522D01*
X66167544Y-61406976D01*
X66167542Y-61406976D01*
X66167540Y-61406977D01*
X66047066Y-61453648D01*
X65996458Y-61454687D01*
X65968009Y-61436971D01*
X65488479Y-60957441D01*
X65478853Y-60945586D01*
X65470086Y-60932166D01*
X65470083Y-60932163D01*
X65440853Y-60909412D01*
X65437415Y-60906377D01*
X65436635Y-60905597D01*
X65433518Y-60902480D01*
X65424004Y-60895687D01*
X65415123Y-60889346D01*
X65413897Y-60888432D01*
X65397535Y-60875697D01*
X65371189Y-60855191D01*
X65371186Y-60855190D01*
X65371185Y-60855189D01*
X65365795Y-60852272D01*
X65365928Y-60852024D01*
X65362829Y-60850429D01*
X65362706Y-60850682D01*
X65357201Y-60847990D01*
X65305347Y-60832552D01*
X65303892Y-60832086D01*
X65252661Y-60814499D01*
X65246615Y-60813491D01*
X65246661Y-60813214D01*
X65243206Y-60812710D01*
X65243172Y-60812991D01*
X65237089Y-60812232D01*
X65237088Y-60812232D01*
X65237086Y-60812232D01*
X65183003Y-60814468D01*
X65181475Y-60814500D01*
X64784294Y-60814500D01*
X64736728Y-60797187D01*
X64711418Y-60753350D01*
X64720208Y-60703500D01*
X64734441Y-60685813D01*
X64746764Y-60674579D01*
X64746765Y-60674578D01*
X64869670Y-60511825D01*
X64869670Y-60511824D01*
X64869673Y-60511821D01*
X64960582Y-60329250D01*
X65016397Y-60133083D01*
X65032617Y-59958046D01*
X65035215Y-59930003D01*
X65035215Y-59929996D01*
X65016398Y-59726923D01*
X65016397Y-59726917D01*
X65015016Y-59722062D01*
X64960582Y-59530750D01*
X64869673Y-59348179D01*
X64869670Y-59348175D01*
X64869670Y-59348174D01*
X64746765Y-59185421D01*
X64746764Y-59185420D01*
X64712502Y-59154187D01*
X64689013Y-59109348D01*
X64699842Y-59059901D01*
X64739921Y-59028982D01*
X64762355Y-59025500D01*
X65003811Y-59025500D01*
X65051377Y-59042813D01*
X65056137Y-59047174D01*
X65435108Y-59426145D01*
X65456500Y-59472021D01*
X65449026Y-59511451D01*
X65439417Y-59530750D01*
X65439416Y-59530752D01*
X65383602Y-59726917D01*
X65383601Y-59726923D01*
X65364785Y-59929996D01*
X65364785Y-59930003D01*
X65383601Y-60133076D01*
X65383602Y-60133082D01*
X65436685Y-60319644D01*
X65439418Y-60329250D01*
X65530327Y-60511821D01*
X65530328Y-60511822D01*
X65530329Y-60511825D01*
X65653234Y-60674578D01*
X65653235Y-60674579D01*
X65803956Y-60811979D01*
X65803957Y-60811979D01*
X65803959Y-60811981D01*
X65977363Y-60919348D01*
X66167544Y-60993024D01*
X66368024Y-61030500D01*
X66368026Y-61030500D01*
X66571974Y-61030500D01*
X66571976Y-61030500D01*
X66772456Y-60993024D01*
X66962637Y-60919348D01*
X67136041Y-60811981D01*
X67136042Y-60811979D01*
X67136044Y-60811979D01*
X67286764Y-60674579D01*
X67286765Y-60674578D01*
X67409670Y-60511825D01*
X67409670Y-60511824D01*
X67409673Y-60511821D01*
X67500582Y-60329250D01*
X67556397Y-60133083D01*
X67572617Y-59958046D01*
X67575215Y-59930003D01*
X67575215Y-59929996D01*
X67556398Y-59726923D01*
X67556397Y-59726917D01*
X67555016Y-59722062D01*
X67500582Y-59530750D01*
X67409673Y-59348179D01*
X67409670Y-59348175D01*
X67409670Y-59348174D01*
X67286765Y-59185421D01*
X67286764Y-59185420D01*
X67136041Y-59048019D01*
X67099671Y-59025500D01*
X66962637Y-58940652D01*
X66772456Y-58866976D01*
X66684407Y-58850516D01*
X66571979Y-58829500D01*
X66571976Y-58829500D01*
X66368024Y-58829500D01*
X66368020Y-58829500D01*
X66218115Y-58857522D01*
X66167544Y-58866976D01*
X66167542Y-58866976D01*
X66167540Y-58866977D01*
X66047066Y-58913648D01*
X65996458Y-58914687D01*
X65968009Y-58896971D01*
X65488479Y-58417441D01*
X65478853Y-58405586D01*
X65470086Y-58392166D01*
X65470083Y-58392163D01*
X65440853Y-58369412D01*
X65437415Y-58366377D01*
X65433518Y-58362480D01*
X65424004Y-58355687D01*
X65415123Y-58349346D01*
X65413897Y-58348432D01*
X65399864Y-58337510D01*
X65371189Y-58315191D01*
X65371186Y-58315190D01*
X65371185Y-58315189D01*
X65365795Y-58312272D01*
X65365928Y-58312024D01*
X65362829Y-58310429D01*
X65362706Y-58310682D01*
X65357201Y-58307990D01*
X65305347Y-58292552D01*
X65303892Y-58292086D01*
X65252661Y-58274499D01*
X65246615Y-58273491D01*
X65246661Y-58273214D01*
X65243206Y-58272710D01*
X65243172Y-58272991D01*
X65237089Y-58272232D01*
X65237088Y-58272232D01*
X65237086Y-58272232D01*
X65183003Y-58274468D01*
X65181475Y-58274500D01*
X64784294Y-58274500D01*
X64736728Y-58257187D01*
X64711418Y-58213350D01*
X64720208Y-58163500D01*
X64734441Y-58145813D01*
X64746764Y-58134579D01*
X64746765Y-58134578D01*
X64869670Y-57971825D01*
X64869670Y-57971824D01*
X64869673Y-57971821D01*
X64960582Y-57789250D01*
X65016397Y-57593083D01*
X65029945Y-57446882D01*
X65035215Y-57390003D01*
X65035215Y-57389996D01*
X65016398Y-57186923D01*
X65016397Y-57186917D01*
X65015016Y-57182062D01*
X64960582Y-56990750D01*
X64869673Y-56808179D01*
X64869670Y-56808175D01*
X64869670Y-56808174D01*
X64746765Y-56645421D01*
X64746764Y-56645420D01*
X64712502Y-56614187D01*
X64689013Y-56569348D01*
X64699842Y-56519901D01*
X64739921Y-56488982D01*
X64762355Y-56485500D01*
X65003811Y-56485500D01*
X65051377Y-56502813D01*
X65056137Y-56507174D01*
X65435108Y-56886145D01*
X65456500Y-56932021D01*
X65449026Y-56971451D01*
X65439417Y-56990750D01*
X65439416Y-56990752D01*
X65383602Y-57186917D01*
X65383601Y-57186923D01*
X65364785Y-57389996D01*
X65364785Y-57390003D01*
X65383601Y-57593076D01*
X65383602Y-57593082D01*
X65436685Y-57779644D01*
X65439418Y-57789250D01*
X65530327Y-57971821D01*
X65530328Y-57971822D01*
X65530329Y-57971825D01*
X65653234Y-58134578D01*
X65653235Y-58134579D01*
X65803956Y-58271979D01*
X65803957Y-58271979D01*
X65803959Y-58271981D01*
X65977363Y-58379348D01*
X66167544Y-58453024D01*
X66368024Y-58490500D01*
X66368026Y-58490500D01*
X66571974Y-58490500D01*
X66571976Y-58490500D01*
X66772456Y-58453024D01*
X66962637Y-58379348D01*
X67136041Y-58271981D01*
X67136042Y-58271979D01*
X67136044Y-58271979D01*
X67286764Y-58134579D01*
X67286765Y-58134578D01*
X67409670Y-57971825D01*
X67409670Y-57971824D01*
X67409673Y-57971821D01*
X67500582Y-57789250D01*
X67556397Y-57593083D01*
X67569945Y-57446882D01*
X67575215Y-57390003D01*
X67575215Y-57389996D01*
X67556398Y-57186923D01*
X67556397Y-57186917D01*
X67555016Y-57182062D01*
X67500582Y-56990750D01*
X67409673Y-56808179D01*
X67409670Y-56808175D01*
X67409670Y-56808174D01*
X67286765Y-56645421D01*
X67286764Y-56645420D01*
X67136041Y-56508019D01*
X67089227Y-56479033D01*
X66962637Y-56400652D01*
X66772456Y-56326976D01*
X66684407Y-56310516D01*
X66571979Y-56289500D01*
X66571976Y-56289500D01*
X66368024Y-56289500D01*
X66368020Y-56289500D01*
X66218115Y-56317522D01*
X66167544Y-56326976D01*
X66167542Y-56326976D01*
X66167540Y-56326977D01*
X66047066Y-56373648D01*
X65996458Y-56374687D01*
X65968009Y-56356971D01*
X65488479Y-55877441D01*
X65478853Y-55865586D01*
X65470086Y-55852166D01*
X65470083Y-55852163D01*
X65440853Y-55829412D01*
X65437415Y-55826377D01*
X65433518Y-55822480D01*
X65424004Y-55815687D01*
X65415123Y-55809346D01*
X65413897Y-55808432D01*
X65399864Y-55797510D01*
X65371189Y-55775191D01*
X65371186Y-55775190D01*
X65371185Y-55775189D01*
X65365795Y-55772272D01*
X65365928Y-55772024D01*
X65362829Y-55770429D01*
X65362706Y-55770682D01*
X65357201Y-55767990D01*
X65305347Y-55752552D01*
X65303892Y-55752086D01*
X65252661Y-55734499D01*
X65246615Y-55733491D01*
X65246661Y-55733214D01*
X65243206Y-55732710D01*
X65243172Y-55732991D01*
X65237089Y-55732232D01*
X65237088Y-55732232D01*
X65237086Y-55732232D01*
X65183003Y-55734468D01*
X65181475Y-55734500D01*
X64784294Y-55734500D01*
X64736728Y-55717187D01*
X64711418Y-55673350D01*
X64720208Y-55623500D01*
X64734441Y-55605813D01*
X64746764Y-55594579D01*
X64746765Y-55594578D01*
X64869670Y-55431825D01*
X64869670Y-55431824D01*
X64869673Y-55431821D01*
X64960582Y-55249250D01*
X65016397Y-55053083D01*
X65032617Y-54878046D01*
X65035215Y-54850003D01*
X65035215Y-54849996D01*
X65016398Y-54646923D01*
X65016397Y-54646917D01*
X65015016Y-54642062D01*
X64960582Y-54450750D01*
X64869673Y-54268179D01*
X64869670Y-54268175D01*
X64869670Y-54268174D01*
X64746766Y-54105424D01*
X64746764Y-54105421D01*
X64723470Y-54084186D01*
X64699983Y-54039347D01*
X64710812Y-53989900D01*
X64750892Y-53958982D01*
X64773325Y-53955500D01*
X65013811Y-53955500D01*
X65061377Y-53972813D01*
X65066137Y-53977174D01*
X65435108Y-54346145D01*
X65456500Y-54392021D01*
X65449026Y-54431451D01*
X65439417Y-54450750D01*
X65439416Y-54450752D01*
X65383602Y-54646917D01*
X65383601Y-54646923D01*
X65364785Y-54849996D01*
X65364785Y-54850003D01*
X65383601Y-55053076D01*
X65383602Y-55053082D01*
X65436685Y-55239644D01*
X65439418Y-55249250D01*
X65530327Y-55431821D01*
X65530328Y-55431822D01*
X65530329Y-55431825D01*
X65653234Y-55594578D01*
X65653235Y-55594579D01*
X65803956Y-55731979D01*
X65803957Y-55731979D01*
X65803959Y-55731981D01*
X65977363Y-55839348D01*
X66167544Y-55913024D01*
X66368024Y-55950500D01*
X66368026Y-55950500D01*
X66571974Y-55950500D01*
X66571976Y-55950500D01*
X66772456Y-55913024D01*
X66962637Y-55839348D01*
X67136041Y-55731981D01*
X67136042Y-55731979D01*
X67136044Y-55731979D01*
X67286764Y-55594579D01*
X67286765Y-55594578D01*
X67409670Y-55431825D01*
X67409670Y-55431824D01*
X67409673Y-55431821D01*
X67500582Y-55249250D01*
X67556397Y-55053083D01*
X67572617Y-54878046D01*
X67575215Y-54850003D01*
X67575215Y-54849996D01*
X67556398Y-54646923D01*
X67556397Y-54646917D01*
X67555016Y-54642062D01*
X67500582Y-54450750D01*
X67409673Y-54268179D01*
X67409670Y-54268175D01*
X67409670Y-54268174D01*
X67286765Y-54105421D01*
X67286764Y-54105420D01*
X67136041Y-53968019D01*
X67099671Y-53945500D01*
X66962637Y-53860652D01*
X66772456Y-53786976D01*
X66684407Y-53770516D01*
X66571979Y-53749500D01*
X66571976Y-53749500D01*
X66368024Y-53749500D01*
X66368020Y-53749500D01*
X66218115Y-53777522D01*
X66167544Y-53786976D01*
X66167542Y-53786976D01*
X66167540Y-53786977D01*
X66047065Y-53833648D01*
X65996457Y-53834687D01*
X65968008Y-53816971D01*
X65498479Y-53347441D01*
X65488853Y-53335586D01*
X65480086Y-53322166D01*
X65480083Y-53322163D01*
X65450853Y-53299412D01*
X65447415Y-53296377D01*
X65443518Y-53292480D01*
X65434004Y-53285687D01*
X65425123Y-53279346D01*
X65423897Y-53278432D01*
X65404726Y-53263511D01*
X65381189Y-53245191D01*
X65381186Y-53245190D01*
X65381185Y-53245189D01*
X65375795Y-53242272D01*
X65375928Y-53242024D01*
X65372829Y-53240429D01*
X65372706Y-53240682D01*
X65367201Y-53237990D01*
X65315347Y-53222552D01*
X65313892Y-53222086D01*
X65262661Y-53204499D01*
X65256615Y-53203491D01*
X65256661Y-53203214D01*
X65253206Y-53202710D01*
X65253172Y-53202991D01*
X65247089Y-53202232D01*
X65247088Y-53202232D01*
X65247086Y-53202232D01*
X65193003Y-53204468D01*
X65191475Y-53204500D01*
X64773325Y-53204500D01*
X64725759Y-53187187D01*
X64700449Y-53143350D01*
X64709239Y-53093500D01*
X64723471Y-53075813D01*
X64746764Y-53054579D01*
X64869673Y-52891821D01*
X64960582Y-52709250D01*
X65016397Y-52513083D01*
X65029945Y-52366882D01*
X65035215Y-52310003D01*
X65035215Y-52309996D01*
X65016398Y-52106923D01*
X65016397Y-52106917D01*
X65015016Y-52102062D01*
X64960582Y-51910750D01*
X64869673Y-51728179D01*
X64869670Y-51728175D01*
X64869670Y-51728174D01*
X64746766Y-51565424D01*
X64746764Y-51565421D01*
X64723470Y-51544186D01*
X64699983Y-51499347D01*
X64710812Y-51449900D01*
X64750892Y-51418982D01*
X64773325Y-51415500D01*
X65013811Y-51415500D01*
X65061377Y-51432813D01*
X65066137Y-51437174D01*
X65435108Y-51806145D01*
X65456500Y-51852021D01*
X65449026Y-51891451D01*
X65439417Y-51910750D01*
X65439416Y-51910752D01*
X65383602Y-52106917D01*
X65383601Y-52106923D01*
X65364785Y-52309996D01*
X65364785Y-52310003D01*
X65383601Y-52513076D01*
X65383602Y-52513082D01*
X65436685Y-52699644D01*
X65439418Y-52709250D01*
X65530327Y-52891821D01*
X65530328Y-52891822D01*
X65530329Y-52891825D01*
X65653234Y-53054578D01*
X65653235Y-53054579D01*
X65803956Y-53191979D01*
X65803957Y-53191979D01*
X65803959Y-53191981D01*
X65977363Y-53299348D01*
X66167544Y-53373024D01*
X66368024Y-53410500D01*
X66368026Y-53410500D01*
X66571974Y-53410500D01*
X66571976Y-53410500D01*
X66772456Y-53373024D01*
X66962637Y-53299348D01*
X67136041Y-53191981D01*
X67136042Y-53191979D01*
X67136044Y-53191979D01*
X67286764Y-53054579D01*
X67286765Y-53054578D01*
X67409670Y-52891825D01*
X67409670Y-52891824D01*
X67409673Y-52891821D01*
X67500582Y-52709250D01*
X67556397Y-52513083D01*
X67569945Y-52366882D01*
X67575215Y-52310003D01*
X67575215Y-52309996D01*
X67556398Y-52106923D01*
X67556397Y-52106917D01*
X67555016Y-52102062D01*
X67500582Y-51910750D01*
X67409673Y-51728179D01*
X67409670Y-51728175D01*
X67409670Y-51728174D01*
X67286765Y-51565421D01*
X67286764Y-51565420D01*
X67136041Y-51428019D01*
X67098809Y-51404966D01*
X66962637Y-51320652D01*
X66772456Y-51246976D01*
X66684407Y-51230516D01*
X66571979Y-51209500D01*
X66571976Y-51209500D01*
X66368024Y-51209500D01*
X66368020Y-51209500D01*
X66218115Y-51237522D01*
X66167544Y-51246976D01*
X66167542Y-51246976D01*
X66167540Y-51246977D01*
X66047065Y-51293648D01*
X65996457Y-51294687D01*
X65968008Y-51276971D01*
X65498479Y-50807441D01*
X65488853Y-50795586D01*
X65480086Y-50782166D01*
X65480083Y-50782163D01*
X65450853Y-50759412D01*
X65447415Y-50756377D01*
X65446723Y-50755685D01*
X65443518Y-50752480D01*
X65434004Y-50745687D01*
X65425123Y-50739346D01*
X65423897Y-50738432D01*
X65409864Y-50727510D01*
X65381189Y-50705191D01*
X65381186Y-50705190D01*
X65381185Y-50705189D01*
X65375795Y-50702272D01*
X65375928Y-50702024D01*
X65372829Y-50700429D01*
X65372706Y-50700682D01*
X65367201Y-50697990D01*
X65315347Y-50682552D01*
X65313892Y-50682086D01*
X65262661Y-50664499D01*
X65256615Y-50663491D01*
X65256661Y-50663214D01*
X65253206Y-50662710D01*
X65253172Y-50662991D01*
X65247089Y-50662232D01*
X65247088Y-50662232D01*
X65247086Y-50662232D01*
X65193003Y-50664468D01*
X65191475Y-50664500D01*
X64773325Y-50664500D01*
X64725759Y-50647187D01*
X64700449Y-50603350D01*
X64709239Y-50553500D01*
X64723471Y-50535813D01*
X64746764Y-50514579D01*
X64869673Y-50351821D01*
X64960582Y-50169250D01*
X65016397Y-49973083D01*
X65035215Y-49770000D01*
X65016397Y-49566917D01*
X64960582Y-49370750D01*
X64869673Y-49188179D01*
X64869670Y-49188175D01*
X64869670Y-49188174D01*
X64746766Y-49025424D01*
X64746764Y-49025421D01*
X64723470Y-49004186D01*
X64699983Y-48959347D01*
X64710812Y-48909900D01*
X64750892Y-48878982D01*
X64773325Y-48875500D01*
X65013811Y-48875500D01*
X65061377Y-48892813D01*
X65066137Y-48897174D01*
X65435108Y-49266145D01*
X65456500Y-49312021D01*
X65449026Y-49351451D01*
X65439417Y-49370750D01*
X65439416Y-49370752D01*
X65383602Y-49566917D01*
X65383601Y-49566923D01*
X65364785Y-49769996D01*
X65364785Y-49770003D01*
X65383601Y-49973076D01*
X65383602Y-49973082D01*
X65436685Y-50159644D01*
X65439418Y-50169250D01*
X65530327Y-50351821D01*
X65530328Y-50351822D01*
X65530329Y-50351825D01*
X65653234Y-50514578D01*
X65653235Y-50514579D01*
X65769878Y-50620912D01*
X65803959Y-50651981D01*
X65977363Y-50759348D01*
X66167544Y-50833024D01*
X66368024Y-50870500D01*
X66368026Y-50870500D01*
X66571974Y-50870500D01*
X66571976Y-50870500D01*
X66772456Y-50833024D01*
X66962637Y-50759348D01*
X67136041Y-50651981D01*
X67286764Y-50514579D01*
X67409673Y-50351821D01*
X67500582Y-50169250D01*
X67556397Y-49973083D01*
X67575215Y-49770000D01*
X67556397Y-49566917D01*
X67500582Y-49370750D01*
X67409673Y-49188179D01*
X67409670Y-49188175D01*
X67409670Y-49188174D01*
X67286765Y-49025421D01*
X67286764Y-49025420D01*
X67136041Y-48888019D01*
X67086685Y-48857459D01*
X66962637Y-48780652D01*
X66772456Y-48706976D01*
X66684407Y-48690516D01*
X66571979Y-48669500D01*
X66571976Y-48669500D01*
X66368024Y-48669500D01*
X66368020Y-48669500D01*
X66218115Y-48697522D01*
X66167544Y-48706976D01*
X66167542Y-48706976D01*
X66167540Y-48706977D01*
X66047065Y-48753648D01*
X65996457Y-48754687D01*
X65968008Y-48736971D01*
X65498479Y-48267441D01*
X65488853Y-48255586D01*
X65480086Y-48242166D01*
X65480083Y-48242163D01*
X65450853Y-48219412D01*
X65447415Y-48216377D01*
X65443518Y-48212480D01*
X65434004Y-48205687D01*
X65425123Y-48199346D01*
X65423897Y-48198432D01*
X65404726Y-48183511D01*
X65381189Y-48165191D01*
X65381186Y-48165190D01*
X65381185Y-48165189D01*
X65375795Y-48162272D01*
X65375928Y-48162024D01*
X65372829Y-48160429D01*
X65372706Y-48160682D01*
X65367201Y-48157990D01*
X65315347Y-48142552D01*
X65313892Y-48142086D01*
X65262661Y-48124499D01*
X65256615Y-48123491D01*
X65256661Y-48123214D01*
X65253206Y-48122710D01*
X65253172Y-48122991D01*
X65247089Y-48122232D01*
X65247088Y-48122232D01*
X65247086Y-48122232D01*
X65193003Y-48124468D01*
X65191475Y-48124500D01*
X64773325Y-48124500D01*
X64725759Y-48107187D01*
X64700449Y-48063350D01*
X64709239Y-48013500D01*
X64723471Y-47995813D01*
X64746764Y-47974579D01*
X64869673Y-47811821D01*
X64960582Y-47629250D01*
X65016397Y-47433083D01*
X65029945Y-47286882D01*
X65035215Y-47230003D01*
X65035215Y-47229996D01*
X65016398Y-47026923D01*
X65016397Y-47026917D01*
X65015016Y-47022062D01*
X64960582Y-46830750D01*
X64869673Y-46648179D01*
X64869670Y-46648175D01*
X64869670Y-46648174D01*
X64746765Y-46485421D01*
X64746764Y-46485420D01*
X64701533Y-46444187D01*
X64678044Y-46399347D01*
X64688873Y-46349900D01*
X64728953Y-46318982D01*
X64751386Y-46315500D01*
X64993811Y-46315500D01*
X65041377Y-46332813D01*
X65046137Y-46337174D01*
X65435108Y-46726145D01*
X65456500Y-46772021D01*
X65449026Y-46811451D01*
X65439417Y-46830750D01*
X65439416Y-46830752D01*
X65383602Y-47026917D01*
X65383601Y-47026923D01*
X65364785Y-47229996D01*
X65364785Y-47230003D01*
X65383601Y-47433076D01*
X65383602Y-47433082D01*
X65436685Y-47619644D01*
X65439418Y-47629250D01*
X65530327Y-47811821D01*
X65530328Y-47811822D01*
X65530329Y-47811825D01*
X65653234Y-47974578D01*
X65653235Y-47974579D01*
X65803956Y-48111979D01*
X65803957Y-48111979D01*
X65803959Y-48111981D01*
X65977363Y-48219348D01*
X66167544Y-48293024D01*
X66368024Y-48330500D01*
X66368026Y-48330500D01*
X66571974Y-48330500D01*
X66571976Y-48330500D01*
X66772456Y-48293024D01*
X66962637Y-48219348D01*
X67136041Y-48111981D01*
X67136042Y-48111979D01*
X67136044Y-48111979D01*
X67286764Y-47974579D01*
X67286765Y-47974578D01*
X67409670Y-47811825D01*
X67409670Y-47811824D01*
X67409673Y-47811821D01*
X67500582Y-47629250D01*
X67556397Y-47433083D01*
X67569945Y-47286882D01*
X67575215Y-47230003D01*
X67575215Y-47229996D01*
X67556398Y-47026923D01*
X67556397Y-47026917D01*
X67555016Y-47022062D01*
X67500582Y-46830750D01*
X67409673Y-46648179D01*
X67409670Y-46648175D01*
X67409670Y-46648174D01*
X67286765Y-46485421D01*
X67286764Y-46485420D01*
X67136041Y-46348019D01*
X67092785Y-46321236D01*
X66962637Y-46240652D01*
X66817448Y-46184406D01*
X66772459Y-46166977D01*
X66772458Y-46166976D01*
X66772456Y-46166976D01*
X66661255Y-46146189D01*
X66571979Y-46129500D01*
X66571976Y-46129500D01*
X66368024Y-46129500D01*
X66368020Y-46129500D01*
X66218115Y-46157522D01*
X66167544Y-46166976D01*
X66167542Y-46166976D01*
X66167540Y-46166977D01*
X66047066Y-46213648D01*
X65996458Y-46214687D01*
X65968009Y-46196971D01*
X65478479Y-45707441D01*
X65468853Y-45695586D01*
X65460086Y-45682166D01*
X65460083Y-45682163D01*
X65430853Y-45659412D01*
X65427415Y-45656377D01*
X65423518Y-45652480D01*
X65411272Y-45643737D01*
X65405123Y-45639346D01*
X65403897Y-45638432D01*
X65389864Y-45627510D01*
X65361189Y-45605191D01*
X65361186Y-45605190D01*
X65361185Y-45605189D01*
X65355795Y-45602272D01*
X65355928Y-45602024D01*
X65352829Y-45600429D01*
X65352706Y-45600682D01*
X65347201Y-45597990D01*
X65295347Y-45582552D01*
X65293892Y-45582086D01*
X65242661Y-45564499D01*
X65236615Y-45563491D01*
X65236661Y-45563214D01*
X65233206Y-45562710D01*
X65233172Y-45562991D01*
X65227089Y-45562232D01*
X65227088Y-45562232D01*
X65227086Y-45562232D01*
X65173003Y-45564468D01*
X65171475Y-45564500D01*
X64795264Y-45564500D01*
X64747698Y-45547187D01*
X64722388Y-45503350D01*
X64731178Y-45453500D01*
X64745410Y-45435814D01*
X64746763Y-45434580D01*
X64746765Y-45434578D01*
X64869670Y-45271825D01*
X64869670Y-45271824D01*
X64869673Y-45271821D01*
X64960582Y-45089250D01*
X65016397Y-44893083D01*
X65035215Y-44690000D01*
X65032230Y-44657787D01*
X65016398Y-44486923D01*
X65016397Y-44486917D01*
X65015016Y-44482062D01*
X64960582Y-44290750D01*
X64869673Y-44108179D01*
X64869670Y-44108175D01*
X64869670Y-44108174D01*
X64746765Y-43945421D01*
X64746764Y-43945420D01*
X64596041Y-43808019D01*
X64561997Y-43786940D01*
X64422637Y-43700652D01*
X64395721Y-43690224D01*
X64352767Y-43673584D01*
X64314667Y-43640257D01*
X64305499Y-43604581D01*
X64305499Y-41936018D01*
X64305499Y-40186607D01*
X64307074Y-40171435D01*
X64310367Y-40155732D01*
X64305782Y-40118963D01*
X64305499Y-40114376D01*
X64305500Y-40108886D01*
X64301774Y-40086563D01*
X64301568Y-40085148D01*
X64294866Y-40031374D01*
X64294864Y-40031370D01*
X64293115Y-40025493D01*
X64293386Y-40025412D01*
X64292324Y-40022096D01*
X64292056Y-40022189D01*
X64290065Y-40016389D01*
X64264312Y-39968802D01*
X64263612Y-39967442D01*
X64239826Y-39918788D01*
X64236264Y-39913800D01*
X64236493Y-39913636D01*
X64234407Y-39910839D01*
X64234185Y-39911013D01*
X64230419Y-39906174D01*
X64190599Y-39869517D01*
X64189495Y-39868458D01*
X63951117Y-39630080D01*
X63929725Y-39584204D01*
X63942826Y-39535309D01*
X63984290Y-39506275D01*
X64034717Y-39510687D01*
X64039093Y-39512907D01*
X64148632Y-39573127D01*
X64307823Y-39614000D01*
X64307826Y-39614000D01*
X64430924Y-39614000D01*
X64430925Y-39614000D01*
X64470428Y-39609009D01*
X64553052Y-39598572D01*
X64553052Y-39598571D01*
X64553058Y-39598571D01*
X64705871Y-39538068D01*
X64838837Y-39441463D01*
X64863482Y-39411671D01*
X64907141Y-39386057D01*
X64957051Y-39394498D01*
X64989859Y-39433046D01*
X64994500Y-39458841D01*
X64994500Y-43543381D01*
X64992925Y-43558566D01*
X64989633Y-43574264D01*
X64989633Y-43574268D01*
X64993036Y-43601572D01*
X64994216Y-43611032D01*
X64994500Y-43615613D01*
X64994500Y-43621118D01*
X64998215Y-43643380D01*
X64998435Y-43644892D01*
X65005134Y-43698627D01*
X65006884Y-43704504D01*
X65006615Y-43704584D01*
X65007679Y-43707904D01*
X65007945Y-43707813D01*
X65009935Y-43713610D01*
X65035696Y-43761215D01*
X65036391Y-43762564D01*
X65044521Y-43779194D01*
X65060175Y-43811214D01*
X65063738Y-43816204D01*
X65063510Y-43816366D01*
X65065595Y-43819162D01*
X65065817Y-43818990D01*
X65069578Y-43823823D01*
X65069580Y-43823825D01*
X65069581Y-43823826D01*
X65083511Y-43836650D01*
X65109399Y-43860481D01*
X65110503Y-43861540D01*
X65435108Y-44186145D01*
X65456500Y-44232021D01*
X65449026Y-44271451D01*
X65439417Y-44290750D01*
X65439416Y-44290752D01*
X65383602Y-44486917D01*
X65383601Y-44486923D01*
X65364785Y-44689996D01*
X65364785Y-44690003D01*
X65383601Y-44893076D01*
X65383602Y-44893082D01*
X65436685Y-45079644D01*
X65439418Y-45089250D01*
X65530327Y-45271821D01*
X65530328Y-45271822D01*
X65530329Y-45271825D01*
X65653234Y-45434578D01*
X65653235Y-45434579D01*
X65728674Y-45503350D01*
X65803959Y-45571981D01*
X65977363Y-45679348D01*
X66167544Y-45753024D01*
X66368024Y-45790500D01*
X66368026Y-45790500D01*
X66571974Y-45790500D01*
X66571976Y-45790500D01*
X66772456Y-45753024D01*
X66962637Y-45679348D01*
X67136041Y-45571981D01*
X67286764Y-45434579D01*
X67409673Y-45271821D01*
X67500582Y-45089250D01*
X67556397Y-44893083D01*
X67575215Y-44690000D01*
X67572230Y-44657787D01*
X67556398Y-44486923D01*
X67556397Y-44486917D01*
X67555016Y-44482062D01*
X67500582Y-44290750D01*
X67409673Y-44108179D01*
X67409670Y-44108175D01*
X67409670Y-44108174D01*
X67286765Y-43945421D01*
X67286764Y-43945420D01*
X67136041Y-43808019D01*
X67101997Y-43786940D01*
X66962637Y-43700652D01*
X66814800Y-43643380D01*
X66772459Y-43626977D01*
X66772458Y-43626976D01*
X66772456Y-43626976D01*
X66684407Y-43610516D01*
X66571979Y-43589500D01*
X66571976Y-43589500D01*
X66368024Y-43589500D01*
X66368020Y-43589500D01*
X66228331Y-43615613D01*
X66167544Y-43626976D01*
X66167542Y-43626976D01*
X66167540Y-43626977D01*
X66047065Y-43673648D01*
X65996457Y-43674687D01*
X65968008Y-43656971D01*
X65869603Y-43558566D01*
X65767174Y-43456136D01*
X65745782Y-43410259D01*
X65745500Y-43403810D01*
X65745500Y-42582936D01*
X65762813Y-42535370D01*
X65806650Y-42510060D01*
X65856500Y-42518850D01*
X65876703Y-42535992D01*
X65952111Y-42627879D01*
X65952116Y-42627884D01*
X66110241Y-42757653D01*
X66110243Y-42757654D01*
X66110249Y-42757659D01*
X66290660Y-42854091D01*
X66486418Y-42913474D01*
X66690000Y-42933525D01*
X66893582Y-42913474D01*
X67089340Y-42854091D01*
X67269751Y-42757659D01*
X67427884Y-42627884D01*
X67557659Y-42469751D01*
X67654091Y-42289340D01*
X67713474Y-42093582D01*
X67728500Y-41941020D01*
X67728500Y-40385980D01*
X67713474Y-40233418D01*
X67654091Y-40037660D01*
X67557659Y-39857249D01*
X67557654Y-39857243D01*
X67557653Y-39857241D01*
X67427884Y-39699116D01*
X67427883Y-39699115D01*
X67269758Y-39569346D01*
X67269754Y-39569343D01*
X67269751Y-39569341D01*
X67089340Y-39472909D01*
X66941537Y-39428073D01*
X66893583Y-39413526D01*
X66690000Y-39393475D01*
X66486416Y-39413526D01*
X66367649Y-39449554D01*
X66290660Y-39472909D01*
X66290658Y-39472909D01*
X66290658Y-39472910D01*
X66251299Y-39493948D01*
X66168757Y-39538068D01*
X66110251Y-39569340D01*
X66110241Y-39569346D01*
X65952116Y-39699115D01*
X65952115Y-39699116D01*
X65876702Y-39791008D01*
X65833143Y-39816794D01*
X65783200Y-39808549D01*
X65750242Y-39770129D01*
X65745499Y-39744068D01*
X65745499Y-37349081D01*
X65762812Y-37301516D01*
X65806649Y-37276206D01*
X65856499Y-37284996D01*
X65875645Y-37300878D01*
X65997134Y-37442395D01*
X66158042Y-37566948D01*
X66340729Y-37656560D01*
X66537715Y-37707563D01*
X66740936Y-37717869D01*
X66942071Y-37687056D01*
X67132887Y-37616386D01*
X67305571Y-37508752D01*
X67453053Y-37368559D01*
X67569295Y-37201549D01*
X67649540Y-37014558D01*
X67685772Y-36838247D01*
X67690499Y-36815247D01*
X67690500Y-36815239D01*
X67690500Y-36362759D01*
X67690499Y-36362750D01*
X67675075Y-36211065D01*
X67675073Y-36211060D01*
X67672866Y-36204027D01*
X67635765Y-36085775D01*
X67614161Y-36016917D01*
X67614159Y-36016912D01*
X67604360Y-35999258D01*
X67515409Y-35838998D01*
X67382866Y-35684605D01*
X67382861Y-35684601D01*
X67382859Y-35684599D01*
X67230519Y-35566679D01*
X67221958Y-35560052D01*
X67039271Y-35470440D01*
X67039268Y-35470439D01*
X66954342Y-35448450D01*
X66842285Y-35419437D01*
X66842283Y-35419436D01*
X66842282Y-35419436D01*
X66639065Y-35409131D01*
X66639064Y-35409131D01*
X66437929Y-35439944D01*
X66437926Y-35439944D01*
X66437926Y-35439945D01*
X66247112Y-35510614D01*
X66074431Y-35618246D01*
X65926946Y-35758441D01*
X65810704Y-35925452D01*
X65730460Y-36112441D01*
X65730458Y-36112447D01*
X65689500Y-36311752D01*
X65689500Y-36414310D01*
X65672187Y-36461876D01*
X65628350Y-36487186D01*
X65578500Y-36478396D01*
X65563174Y-36466636D01*
X63078976Y-33982438D01*
X63057584Y-33936562D01*
X63058817Y-33915216D01*
X63084499Y-33790247D01*
X63084500Y-33790239D01*
X63084500Y-33570523D01*
X63101813Y-33522957D01*
X63145650Y-33497647D01*
X63195500Y-33506437D01*
X63202831Y-33511272D01*
X63313020Y-33593759D01*
X63332788Y-33608557D01*
X63577666Y-33742271D01*
X63839062Y-33839766D01*
X63839067Y-33839767D01*
X63839077Y-33839771D01*
X64111706Y-33899078D01*
X64320330Y-33913999D01*
X64320335Y-33914000D01*
X64320343Y-33914000D01*
X64459665Y-33914000D01*
X64459668Y-33913999D01*
X64668294Y-33899078D01*
X64940923Y-33839771D01*
X64940934Y-33839766D01*
X64940937Y-33839766D01*
X65202333Y-33742271D01*
X65207868Y-33739249D01*
X65447213Y-33608556D01*
X65571155Y-33515774D01*
X65619607Y-33501129D01*
X65666139Y-33521055D01*
X65688977Y-33566230D01*
X65689500Y-33575015D01*
X65689500Y-33764249D01*
X65704924Y-33915934D01*
X65704926Y-33915939D01*
X65765838Y-34110082D01*
X65765840Y-34110087D01*
X65772016Y-34121214D01*
X65864591Y-34288002D01*
X65997134Y-34442395D01*
X66158042Y-34566948D01*
X66340729Y-34656560D01*
X66537715Y-34707563D01*
X66740936Y-34717869D01*
X66942071Y-34687056D01*
X67132887Y-34616386D01*
X67305571Y-34508752D01*
X67453053Y-34368559D01*
X67569295Y-34201549D01*
X67649540Y-34014558D01*
X67690500Y-33815241D01*
X67690500Y-33362758D01*
X67678431Y-33244070D01*
X67675075Y-33211065D01*
X67675073Y-33211060D01*
X67614161Y-33016917D01*
X67614159Y-33016912D01*
X67614158Y-33016911D01*
X67515409Y-32838998D01*
X67382866Y-32684605D01*
X67382861Y-32684601D01*
X67382859Y-32684599D01*
X67264843Y-32593248D01*
X67221958Y-32560052D01*
X67039271Y-32470440D01*
X67039268Y-32470439D01*
X66895653Y-32433255D01*
X66842285Y-32419437D01*
X66842283Y-32419436D01*
X66842282Y-32419436D01*
X66639065Y-32409131D01*
X66639064Y-32409131D01*
X66437929Y-32439944D01*
X66437926Y-32439944D01*
X66437926Y-32439945D01*
X66395588Y-32455625D01*
X66344970Y-32455909D01*
X66306011Y-32423590D01*
X66296941Y-32373791D01*
X66297579Y-32370501D01*
X66302933Y-32345887D01*
X66325578Y-32241794D01*
X66345482Y-31963500D01*
X66345482Y-31963493D01*
X66325578Y-31685208D01*
X66325578Y-31685206D01*
X66266271Y-31412577D01*
X66266267Y-31412567D01*
X66266266Y-31412562D01*
X66168771Y-31151166D01*
X66035057Y-30906288D01*
X65993255Y-30850448D01*
X65867855Y-30682932D01*
X65670568Y-30485645D01*
X65558890Y-30402044D01*
X65447211Y-30318442D01*
X65202333Y-30184728D01*
X64940937Y-30087233D01*
X64940925Y-30087230D01*
X64940923Y-30087229D01*
X64885971Y-30075274D01*
X64668291Y-30027921D01*
X64459669Y-30013000D01*
X64459657Y-30013000D01*
X64320343Y-30013000D01*
X64320330Y-30013000D01*
X64111708Y-30027921D01*
X63839081Y-30087228D01*
X63839062Y-30087233D01*
X63577666Y-30184728D01*
X63332788Y-30318442D01*
X63109429Y-30485647D01*
X62912147Y-30682929D01*
X62744942Y-30906288D01*
X62611228Y-31151166D01*
X62513733Y-31412562D01*
X62513728Y-31412581D01*
X62454421Y-31685208D01*
X62434518Y-31963493D01*
X62434518Y-31963506D01*
X62454421Y-32241791D01*
X62477066Y-32345887D01*
X62470260Y-32396046D01*
X62432804Y-32430096D01*
X62386209Y-32433254D01*
X62236285Y-32394437D01*
X62236283Y-32394436D01*
X62236282Y-32394436D01*
X62033065Y-32384131D01*
X62033064Y-32384131D01*
X61831929Y-32414944D01*
X61831926Y-32414944D01*
X61831926Y-32414945D01*
X61641112Y-32485614D01*
X61468431Y-32593246D01*
X61320946Y-32733441D01*
X61204704Y-32900452D01*
X61124460Y-33087441D01*
X61124458Y-33087447D01*
X61083500Y-33286752D01*
X61083500Y-33739249D01*
X61098924Y-33890934D01*
X61098926Y-33890939D01*
X61159838Y-34085082D01*
X61159840Y-34085087D01*
X61179892Y-34121214D01*
X61258591Y-34263002D01*
X61391134Y-34417395D01*
X61391138Y-34417398D01*
X61391140Y-34417400D01*
X61441791Y-34456607D01*
X61552042Y-34541948D01*
X61734729Y-34631560D01*
X61931715Y-34682563D01*
X62134936Y-34692869D01*
X62336071Y-34662056D01*
X62526887Y-34591386D01*
X62526892Y-34591383D01*
X62526893Y-34591383D01*
X62537953Y-34584489D01*
X62587477Y-34574018D01*
X62629424Y-34594961D01*
X64972826Y-36938363D01*
X64994218Y-36984238D01*
X64994500Y-36990688D01*
X64994500Y-38467802D01*
X64977187Y-38515368D01*
X64933350Y-38540678D01*
X64883500Y-38531888D01*
X64869844Y-38521746D01*
X64775394Y-38433053D01*
X64775393Y-38433052D01*
X64631368Y-38353873D01*
X64631369Y-38353873D01*
X64472181Y-38313001D01*
X64472180Y-38313000D01*
X64472177Y-38313000D01*
X64349075Y-38313000D01*
X64349067Y-38313000D01*
X64226947Y-38328427D01*
X64074131Y-38388931D01*
X64074130Y-38388931D01*
X64074129Y-38388932D01*
X64023059Y-38426036D01*
X63941162Y-38485537D01*
X63836402Y-38612169D01*
X63836397Y-38612178D01*
X63766421Y-38760884D01*
X63766419Y-38760891D01*
X63735624Y-38922326D01*
X63745943Y-39086356D01*
X63745944Y-39086362D01*
X63796729Y-39242665D01*
X63796733Y-39242673D01*
X63842308Y-39314487D01*
X63853178Y-39363925D01*
X63829727Y-39408783D01*
X63782927Y-39428073D01*
X63734678Y-39412768D01*
X63727502Y-39406464D01*
X62448479Y-38127441D01*
X62438853Y-38115586D01*
X62430086Y-38102166D01*
X62430083Y-38102163D01*
X62400853Y-38079412D01*
X62397415Y-38076377D01*
X62393518Y-38072480D01*
X62384004Y-38065687D01*
X62375123Y-38059346D01*
X62373897Y-38058432D01*
X62359864Y-38047510D01*
X62331189Y-38025191D01*
X62331186Y-38025190D01*
X62331185Y-38025189D01*
X62325795Y-38022272D01*
X62325928Y-38022024D01*
X62322829Y-38020429D01*
X62322706Y-38020682D01*
X62317201Y-38017990D01*
X62265347Y-38002552D01*
X62263892Y-38002086D01*
X62212661Y-37984499D01*
X62206615Y-37983491D01*
X62206661Y-37983214D01*
X62203206Y-37982710D01*
X62203172Y-37982991D01*
X62197089Y-37982232D01*
X62197088Y-37982232D01*
X62197086Y-37982232D01*
X62143003Y-37984468D01*
X62141475Y-37984500D01*
X60046095Y-37984500D01*
X59998529Y-37967187D01*
X59973219Y-37923350D01*
X59982009Y-37873500D01*
X59982767Y-37872217D01*
X60030742Y-37792857D01*
X60080495Y-37633194D01*
X60086800Y-37563811D01*
X60086799Y-36787249D01*
X61083500Y-36787249D01*
X61098924Y-36938934D01*
X61098926Y-36938939D01*
X61159838Y-37133082D01*
X61159840Y-37133087D01*
X61159841Y-37133088D01*
X61258591Y-37311002D01*
X61391134Y-37465395D01*
X61391138Y-37465398D01*
X61391140Y-37465400D01*
X61408440Y-37478791D01*
X61552042Y-37589948D01*
X61734729Y-37679560D01*
X61931715Y-37730563D01*
X62134936Y-37740869D01*
X62336071Y-37710056D01*
X62526887Y-37639386D01*
X62699571Y-37531752D01*
X62847053Y-37391559D01*
X62963295Y-37224549D01*
X63043540Y-37037558D01*
X63079602Y-36862075D01*
X63084499Y-36838247D01*
X63084500Y-36838239D01*
X63084500Y-36385759D01*
X63084499Y-36385750D01*
X63069075Y-36234065D01*
X63069073Y-36234060D01*
X63061858Y-36211065D01*
X63030917Y-36112447D01*
X63008161Y-36039917D01*
X63008159Y-36039912D01*
X62985594Y-35999258D01*
X62909409Y-35861998D01*
X62776866Y-35707605D01*
X62776861Y-35707601D01*
X62776859Y-35707599D01*
X62691138Y-35641246D01*
X62615958Y-35583052D01*
X62433271Y-35493440D01*
X62433268Y-35493439D01*
X62344439Y-35470440D01*
X62236285Y-35442437D01*
X62236283Y-35442436D01*
X62236282Y-35442436D01*
X62033065Y-35432131D01*
X62033064Y-35432131D01*
X61831929Y-35462944D01*
X61831926Y-35462944D01*
X61831926Y-35462945D01*
X61641112Y-35533614D01*
X61468431Y-35641246D01*
X61320946Y-35781441D01*
X61204704Y-35948452D01*
X61124460Y-36135441D01*
X61124458Y-36135447D01*
X61083500Y-36334752D01*
X61083500Y-36787249D01*
X60086799Y-36787249D01*
X60086799Y-36576190D01*
X60080495Y-36506806D01*
X60042775Y-36385758D01*
X60030744Y-36347148D01*
X60030743Y-36347146D01*
X60030742Y-36347143D01*
X59944225Y-36204027D01*
X59825973Y-36085775D01*
X59682857Y-35999258D01*
X59682854Y-35999257D01*
X59682851Y-35999255D01*
X59523198Y-35949506D01*
X59523195Y-35949505D01*
X59523194Y-35949505D01*
X59523192Y-35949504D01*
X59523188Y-35949504D01*
X59453813Y-35943200D01*
X58466193Y-35943200D01*
X58466180Y-35943201D01*
X58396811Y-35949504D01*
X58396801Y-35949506D01*
X58237148Y-35999255D01*
X58094026Y-36085775D01*
X57975775Y-36204026D01*
X57889255Y-36347148D01*
X57839506Y-36506801D01*
X57839504Y-36506811D01*
X57833200Y-36576181D01*
X57833200Y-37563806D01*
X57833201Y-37563819D01*
X57839504Y-37633188D01*
X57839506Y-37633198D01*
X57889255Y-37792851D01*
X57889257Y-37792854D01*
X57889258Y-37792857D01*
X57913146Y-37832372D01*
X57937233Y-37872217D01*
X57947025Y-37921880D01*
X57922603Y-37966218D01*
X57875395Y-37984485D01*
X57873905Y-37984500D01*
X47736189Y-37984500D01*
X47688623Y-37967187D01*
X47683863Y-37962826D01*
X44774504Y-35053466D01*
X44753112Y-35007590D01*
X44760589Y-34968155D01*
X44775211Y-34938791D01*
X44832359Y-34737936D01*
X44851627Y-34530003D01*
X57828373Y-34530003D01*
X57847639Y-34737924D01*
X57847641Y-34737936D01*
X57904788Y-34938789D01*
X57904789Y-34938790D01*
X57997871Y-35125726D01*
X57997873Y-35125728D01*
X58123718Y-35292372D01*
X58278042Y-35433058D01*
X58455590Y-35542991D01*
X58650316Y-35618428D01*
X58855587Y-35656800D01*
X59064413Y-35656800D01*
X59269684Y-35618428D01*
X59464410Y-35542991D01*
X59641958Y-35433058D01*
X59796282Y-35292372D01*
X59922129Y-35125725D01*
X60015211Y-34938791D01*
X60072359Y-34737936D01*
X60091627Y-34530000D01*
X60089658Y-34508753D01*
X60072360Y-34322075D01*
X60072359Y-34322064D01*
X60015211Y-34121209D01*
X59922129Y-33934275D01*
X59922128Y-33934274D01*
X59922128Y-33934273D01*
X59922126Y-33934271D01*
X59850762Y-33839771D01*
X59796282Y-33767628D01*
X59792575Y-33764249D01*
X59755365Y-33730326D01*
X59641958Y-33626942D01*
X59464410Y-33517009D01*
X59269684Y-33441572D01*
X59179531Y-33424719D01*
X59064416Y-33403200D01*
X59064413Y-33403200D01*
X58855587Y-33403200D01*
X58855583Y-33403200D01*
X58702095Y-33431892D01*
X58650316Y-33441572D01*
X58650314Y-33441572D01*
X58650312Y-33441573D01*
X58458775Y-33515775D01*
X58455590Y-33517009D01*
X58455585Y-33517011D01*
X58455585Y-33517012D01*
X58278044Y-33626940D01*
X58123720Y-33767625D01*
X57997873Y-33934271D01*
X57997871Y-33934273D01*
X57904789Y-34121209D01*
X57904787Y-34121214D01*
X57847641Y-34322062D01*
X57847639Y-34322075D01*
X57828373Y-34529996D01*
X57828373Y-34530003D01*
X44851627Y-34530003D01*
X44851627Y-34530000D01*
X44849658Y-34508753D01*
X44832360Y-34322075D01*
X44832359Y-34322064D01*
X44775211Y-34121209D01*
X44682129Y-33934275D01*
X44682128Y-33934274D01*
X44682128Y-33934273D01*
X44682126Y-33934271D01*
X44610762Y-33839771D01*
X44556282Y-33767628D01*
X44552575Y-33764249D01*
X44515365Y-33730326D01*
X44401958Y-33626942D01*
X44224410Y-33517009D01*
X44029684Y-33441572D01*
X43939531Y-33424719D01*
X43824416Y-33403200D01*
X43824413Y-33403200D01*
X43615587Y-33403200D01*
X43615583Y-33403200D01*
X43462095Y-33431892D01*
X43410316Y-33441572D01*
X43410314Y-33441572D01*
X43410312Y-33441573D01*
X43218775Y-33515775D01*
X43215590Y-33517009D01*
X43215585Y-33517011D01*
X43215585Y-33517012D01*
X43038044Y-33626940D01*
X42883720Y-33767625D01*
X42757873Y-33934271D01*
X42757871Y-33934273D01*
X42664789Y-34121209D01*
X42664787Y-34121214D01*
X42607641Y-34322062D01*
X42607639Y-34322075D01*
X42588373Y-34529996D01*
X42588373Y-34530003D01*
X42607639Y-34737924D01*
X42607641Y-34737937D01*
X42664787Y-34938785D01*
X42664788Y-34938790D01*
X42679411Y-34968155D01*
X42685116Y-35018451D01*
X42665495Y-35053466D01*
X38557440Y-39161520D01*
X38545592Y-39171142D01*
X38532163Y-39179916D01*
X38509408Y-39209150D01*
X38506377Y-39212583D01*
X38502484Y-39216477D01*
X38502478Y-39216484D01*
X38489353Y-39234867D01*
X38488440Y-39236092D01*
X38455194Y-39278806D01*
X38452273Y-39284204D01*
X38452026Y-39284070D01*
X38450430Y-39287171D01*
X38450682Y-39287295D01*
X38447988Y-39292804D01*
X38432550Y-39344658D01*
X38432084Y-39346113D01*
X38414499Y-39397339D01*
X38413491Y-39403386D01*
X38413213Y-39403339D01*
X38412711Y-39406790D01*
X38412990Y-39406825D01*
X38412232Y-39412908D01*
X38412232Y-39412911D01*
X38412232Y-39412912D01*
X38412707Y-39424416D01*
X38414468Y-39466996D01*
X38414500Y-39468524D01*
X38414499Y-43604581D01*
X38397186Y-43652147D01*
X38367232Y-43673584D01*
X38297365Y-43700651D01*
X38297358Y-43700655D01*
X38123958Y-43808019D01*
X38123957Y-43808019D01*
X37973235Y-43945420D01*
X37973234Y-43945421D01*
X37850329Y-44108174D01*
X37850328Y-44108177D01*
X37759418Y-44290750D01*
X37759416Y-44290755D01*
X37703602Y-44486917D01*
X37703601Y-44486923D01*
X37684785Y-44689996D01*
X37684785Y-44690003D01*
X37355215Y-44690003D01*
X37355215Y-44690000D01*
X37352230Y-44657787D01*
X37336398Y-44486923D01*
X37336397Y-44486917D01*
X37335016Y-44482062D01*
X37280582Y-44290750D01*
X37189673Y-44108179D01*
X37189670Y-44108175D01*
X37189670Y-44108174D01*
X37066765Y-43945421D01*
X37066764Y-43945420D01*
X36916041Y-43808019D01*
X36881997Y-43786940D01*
X36742637Y-43700652D01*
X36594800Y-43643380D01*
X36552459Y-43626977D01*
X36552458Y-43626976D01*
X36552456Y-43626976D01*
X36464407Y-43610516D01*
X36351979Y-43589500D01*
X36351976Y-43589500D01*
X36148024Y-43589500D01*
X36148020Y-43589500D01*
X36008331Y-43615613D01*
X35947544Y-43626976D01*
X35947542Y-43626976D01*
X35947540Y-43626977D01*
X35818385Y-43677012D01*
X35757363Y-43700652D01*
X35757358Y-43700654D01*
X35757358Y-43700655D01*
X35583958Y-43808019D01*
X35583957Y-43808019D01*
X35433235Y-43945420D01*
X35433234Y-43945421D01*
X35310329Y-44108174D01*
X35310328Y-44108177D01*
X35219418Y-44290750D01*
X35219416Y-44290755D01*
X35163602Y-44486917D01*
X35163601Y-44486923D01*
X35144785Y-44689996D01*
X35144785Y-44690003D01*
X35163601Y-44893076D01*
X35163602Y-44893082D01*
X35216685Y-45079644D01*
X35219418Y-45089250D01*
X35310327Y-45271821D01*
X35310328Y-45271822D01*
X35310329Y-45271825D01*
X35433234Y-45434578D01*
X35433235Y-45434579D01*
X35508674Y-45503350D01*
X35583959Y-45571981D01*
X35757363Y-45679348D01*
X35947544Y-45753024D01*
X36148024Y-45790500D01*
X36148026Y-45790500D01*
X36351974Y-45790500D01*
X36351976Y-45790500D01*
X36552456Y-45753024D01*
X36672934Y-45706349D01*
X36723540Y-45705310D01*
X36751990Y-45723027D01*
X37122826Y-46093863D01*
X37144218Y-46139739D01*
X37144500Y-46146189D01*
X37144500Y-46388692D01*
X37127187Y-46436258D01*
X37083350Y-46461568D01*
X37033500Y-46452778D01*
X37020647Y-46443379D01*
X36916041Y-46348019D01*
X36872785Y-46321236D01*
X36742637Y-46240652D01*
X36597448Y-46184406D01*
X36552459Y-46166977D01*
X36552458Y-46166976D01*
X36552456Y-46166976D01*
X36441255Y-46146189D01*
X36351979Y-46129500D01*
X36351976Y-46129500D01*
X36148024Y-46129500D01*
X36148020Y-46129500D01*
X35998115Y-46157522D01*
X35947544Y-46166976D01*
X35947542Y-46166976D01*
X35947540Y-46166977D01*
X35801307Y-46223628D01*
X35757363Y-46240652D01*
X35757358Y-46240654D01*
X35757358Y-46240655D01*
X35583958Y-46348019D01*
X35583957Y-46348019D01*
X35433235Y-46485420D01*
X35433234Y-46485421D01*
X35310329Y-46648174D01*
X35310328Y-46648177D01*
X35219418Y-46830750D01*
X35219416Y-46830755D01*
X35163602Y-47026917D01*
X35163601Y-47026923D01*
X35144785Y-47229996D01*
X35144785Y-47230003D01*
X35163601Y-47433076D01*
X35163602Y-47433082D01*
X35216685Y-47619644D01*
X35219418Y-47629250D01*
X35310327Y-47811821D01*
X35310328Y-47811822D01*
X35310329Y-47811825D01*
X35433234Y-47974578D01*
X35433235Y-47974579D01*
X35583956Y-48111979D01*
X35583957Y-48111979D01*
X35583959Y-48111981D01*
X35757363Y-48219348D01*
X35947544Y-48293024D01*
X36148024Y-48330500D01*
X36148026Y-48330500D01*
X36351974Y-48330500D01*
X36351976Y-48330500D01*
X36552456Y-48293024D01*
X36742637Y-48219348D01*
X36916041Y-48111981D01*
X37020648Y-48016619D01*
X37067462Y-47997369D01*
X37115699Y-48012715D01*
X37142787Y-48055476D01*
X37144500Y-48071307D01*
X37144500Y-48928692D01*
X37127187Y-48976258D01*
X37083350Y-49001568D01*
X37033500Y-48992778D01*
X37020647Y-48983379D01*
X36916041Y-48888019D01*
X36866685Y-48857459D01*
X36742637Y-48780652D01*
X36552456Y-48706976D01*
X36464407Y-48690516D01*
X36351979Y-48669500D01*
X36351976Y-48669500D01*
X36148024Y-48669500D01*
X36148020Y-48669500D01*
X35998115Y-48697522D01*
X35947544Y-48706976D01*
X35947542Y-48706976D01*
X35947540Y-48706977D01*
X35818385Y-48757012D01*
X35757363Y-48780652D01*
X35757358Y-48780654D01*
X35757358Y-48780655D01*
X35583958Y-48888019D01*
X35583957Y-48888019D01*
X35433235Y-49025420D01*
X35433234Y-49025421D01*
X35310329Y-49188174D01*
X35310328Y-49188177D01*
X35219418Y-49370750D01*
X35219416Y-49370755D01*
X35163602Y-49566917D01*
X35163601Y-49566923D01*
X35144785Y-49769996D01*
X35144785Y-49770003D01*
X35163601Y-49973076D01*
X35163602Y-49973082D01*
X35216685Y-50159644D01*
X35219418Y-50169250D01*
X35310327Y-50351821D01*
X35310328Y-50351822D01*
X35310329Y-50351825D01*
X35433234Y-50514578D01*
X35433235Y-50514579D01*
X35549878Y-50620912D01*
X35583959Y-50651981D01*
X35757363Y-50759348D01*
X35947544Y-50833024D01*
X36148024Y-50870500D01*
X36148026Y-50870500D01*
X36351974Y-50870500D01*
X36351976Y-50870500D01*
X36552456Y-50833024D01*
X36742637Y-50759348D01*
X36916041Y-50651981D01*
X37020648Y-50556619D01*
X37067462Y-50537369D01*
X37115699Y-50552715D01*
X37142787Y-50595476D01*
X37144500Y-50611307D01*
X37144500Y-51468692D01*
X37127187Y-51516258D01*
X37083350Y-51541568D01*
X37033500Y-51532778D01*
X37020647Y-51523379D01*
X36916041Y-51428019D01*
X36878809Y-51404966D01*
X36742637Y-51320652D01*
X36552456Y-51246976D01*
X36464407Y-51230516D01*
X36351979Y-51209500D01*
X36351976Y-51209500D01*
X36148024Y-51209500D01*
X36148020Y-51209500D01*
X35998115Y-51237522D01*
X35947544Y-51246976D01*
X35947542Y-51246976D01*
X35947540Y-51246977D01*
X35818385Y-51297012D01*
X35757363Y-51320652D01*
X35757358Y-51320654D01*
X35757358Y-51320655D01*
X35583958Y-51428019D01*
X35583957Y-51428019D01*
X35433235Y-51565420D01*
X35433234Y-51565421D01*
X35310329Y-51728174D01*
X35310328Y-51728177D01*
X35219418Y-51910750D01*
X35219416Y-51910755D01*
X35163602Y-52106917D01*
X35163601Y-52106923D01*
X35144785Y-52309996D01*
X35144785Y-52310003D01*
X35163601Y-52513076D01*
X35163602Y-52513082D01*
X35216685Y-52699644D01*
X35219418Y-52709250D01*
X35310327Y-52891821D01*
X35310328Y-52891822D01*
X35310329Y-52891825D01*
X35433234Y-53054578D01*
X35433235Y-53054579D01*
X35583956Y-53191979D01*
X35583957Y-53191979D01*
X35583959Y-53191981D01*
X35757363Y-53299348D01*
X35947544Y-53373024D01*
X36148024Y-53410500D01*
X36148026Y-53410500D01*
X36351974Y-53410500D01*
X36351976Y-53410500D01*
X36552456Y-53373024D01*
X36742637Y-53299348D01*
X36916041Y-53191981D01*
X37020648Y-53096619D01*
X37067462Y-53077369D01*
X37115699Y-53092715D01*
X37142787Y-53135476D01*
X37144500Y-53151307D01*
X37144500Y-54008692D01*
X37127187Y-54056258D01*
X37083350Y-54081568D01*
X37033500Y-54072778D01*
X37020647Y-54063379D01*
X36916041Y-53968019D01*
X36879671Y-53945500D01*
X36742637Y-53860652D01*
X36552456Y-53786976D01*
X36464407Y-53770516D01*
X36351979Y-53749500D01*
X36351976Y-53749500D01*
X36148024Y-53749500D01*
X36148020Y-53749500D01*
X35998115Y-53777522D01*
X35947544Y-53786976D01*
X35947542Y-53786976D01*
X35947540Y-53786977D01*
X35818385Y-53837012D01*
X35757363Y-53860652D01*
X35757358Y-53860654D01*
X35757358Y-53860655D01*
X35583958Y-53968019D01*
X35583957Y-53968019D01*
X35433235Y-54105420D01*
X35433234Y-54105421D01*
X35310329Y-54268174D01*
X35310328Y-54268177D01*
X35219418Y-54450750D01*
X35219416Y-54450755D01*
X35163602Y-54646917D01*
X35163601Y-54646923D01*
X35144785Y-54849996D01*
X35144785Y-54850003D01*
X35163601Y-55053076D01*
X35163602Y-55053082D01*
X35216685Y-55239644D01*
X35219418Y-55249250D01*
X35310327Y-55431821D01*
X35310328Y-55431822D01*
X35310329Y-55431825D01*
X35433234Y-55594578D01*
X35433235Y-55594579D01*
X35583956Y-55731979D01*
X35583957Y-55731979D01*
X35583959Y-55731981D01*
X35757363Y-55839348D01*
X35947544Y-55913024D01*
X36148024Y-55950500D01*
X36148026Y-55950500D01*
X36351974Y-55950500D01*
X36351976Y-55950500D01*
X36552456Y-55913024D01*
X36742637Y-55839348D01*
X36916041Y-55731981D01*
X37020648Y-55636619D01*
X37067462Y-55617369D01*
X37115699Y-55632715D01*
X37142787Y-55675476D01*
X37144500Y-55691307D01*
X37144500Y-56548692D01*
X37127187Y-56596258D01*
X37083350Y-56621568D01*
X37033500Y-56612778D01*
X37020647Y-56603379D01*
X36916041Y-56508019D01*
X36869227Y-56479033D01*
X36742637Y-56400652D01*
X36552456Y-56326976D01*
X36464407Y-56310516D01*
X36351979Y-56289500D01*
X36351976Y-56289500D01*
X36148024Y-56289500D01*
X36148020Y-56289500D01*
X35998115Y-56317522D01*
X35947544Y-56326976D01*
X35947542Y-56326976D01*
X35947540Y-56326977D01*
X35765450Y-56397519D01*
X35757363Y-56400652D01*
X35757358Y-56400654D01*
X35757358Y-56400655D01*
X35583958Y-56508019D01*
X35583957Y-56508019D01*
X35433235Y-56645420D01*
X35433234Y-56645421D01*
X35310329Y-56808174D01*
X35310328Y-56808177D01*
X35219418Y-56990750D01*
X35219416Y-56990755D01*
X35163602Y-57186917D01*
X35163601Y-57186923D01*
X35144785Y-57389996D01*
X35144785Y-57390003D01*
X35163601Y-57593076D01*
X35163602Y-57593082D01*
X35216685Y-57779644D01*
X35219418Y-57789250D01*
X35310327Y-57971821D01*
X35310328Y-57971822D01*
X35310329Y-57971825D01*
X35433234Y-58134578D01*
X35433235Y-58134579D01*
X35583956Y-58271979D01*
X35583957Y-58271979D01*
X35583959Y-58271981D01*
X35757363Y-58379348D01*
X35947544Y-58453024D01*
X36148024Y-58490500D01*
X36148026Y-58490500D01*
X36351974Y-58490500D01*
X36351976Y-58490500D01*
X36552456Y-58453024D01*
X36742637Y-58379348D01*
X36916041Y-58271981D01*
X37020648Y-58176619D01*
X37067462Y-58157369D01*
X37115699Y-58172715D01*
X37142787Y-58215476D01*
X37144500Y-58231307D01*
X37144500Y-59088692D01*
X37127187Y-59136258D01*
X37083350Y-59161568D01*
X37033500Y-59152778D01*
X37020647Y-59143379D01*
X36916041Y-59048019D01*
X36879671Y-59025500D01*
X36742637Y-58940652D01*
X36552456Y-58866976D01*
X36464407Y-58850516D01*
X36351979Y-58829500D01*
X36351976Y-58829500D01*
X36148024Y-58829500D01*
X36148020Y-58829500D01*
X35998115Y-58857522D01*
X35947544Y-58866976D01*
X35947542Y-58866976D01*
X35947540Y-58866977D01*
X35818385Y-58917012D01*
X35757363Y-58940652D01*
X35757358Y-58940654D01*
X35757358Y-58940655D01*
X35583958Y-59048019D01*
X35583957Y-59048019D01*
X35433235Y-59185420D01*
X35433234Y-59185421D01*
X35310329Y-59348174D01*
X35310328Y-59348177D01*
X35219418Y-59530750D01*
X35219416Y-59530755D01*
X35163602Y-59726917D01*
X35163601Y-59726923D01*
X35144785Y-59929996D01*
X35144785Y-59930003D01*
X35163601Y-60133076D01*
X35163602Y-60133082D01*
X35216685Y-60319644D01*
X35219418Y-60329250D01*
X35310327Y-60511821D01*
X35310328Y-60511822D01*
X35310329Y-60511825D01*
X35433234Y-60674578D01*
X35433235Y-60674579D01*
X35583956Y-60811979D01*
X35583957Y-60811979D01*
X35583959Y-60811981D01*
X35757363Y-60919348D01*
X35947544Y-60993024D01*
X36148024Y-61030500D01*
X36148026Y-61030500D01*
X36351974Y-61030500D01*
X36351976Y-61030500D01*
X36552456Y-60993024D01*
X36742637Y-60919348D01*
X36916041Y-60811981D01*
X37020648Y-60716619D01*
X37067462Y-60697369D01*
X37115699Y-60712715D01*
X37142787Y-60755476D01*
X37144500Y-60771307D01*
X37144500Y-61628692D01*
X37127187Y-61676258D01*
X37083350Y-61701568D01*
X37033500Y-61692778D01*
X37020647Y-61683379D01*
X36916041Y-61588019D01*
X36869227Y-61559033D01*
X36742637Y-61480652D01*
X36552456Y-61406976D01*
X36464407Y-61390516D01*
X36351979Y-61369500D01*
X36351976Y-61369500D01*
X36148024Y-61369500D01*
X36148020Y-61369500D01*
X35998115Y-61397522D01*
X35947544Y-61406976D01*
X35947542Y-61406976D01*
X35947540Y-61406977D01*
X35765450Y-61477519D01*
X35757363Y-61480652D01*
X35757358Y-61480654D01*
X35757358Y-61480655D01*
X35583958Y-61588019D01*
X35583957Y-61588019D01*
X35433235Y-61725420D01*
X35433234Y-61725421D01*
X35310329Y-61888174D01*
X35310328Y-61888177D01*
X35219418Y-62070750D01*
X35219416Y-62070755D01*
X35163602Y-62266917D01*
X35163601Y-62266923D01*
X35144785Y-62469996D01*
X35144785Y-62470003D01*
X35163601Y-62673076D01*
X35163602Y-62673082D01*
X35216685Y-62859644D01*
X35219418Y-62869250D01*
X35310327Y-63051821D01*
X35310328Y-63051822D01*
X35310329Y-63051825D01*
X35433234Y-63214578D01*
X35433235Y-63214579D01*
X35583956Y-63351979D01*
X35583957Y-63351979D01*
X35583959Y-63351981D01*
X35757363Y-63459348D01*
X35947544Y-63533024D01*
X36148024Y-63570500D01*
X36148026Y-63570500D01*
X36351974Y-63570500D01*
X36351976Y-63570500D01*
X36552456Y-63533024D01*
X36742637Y-63459348D01*
X36916041Y-63351981D01*
X37020648Y-63256619D01*
X37067462Y-63237369D01*
X37115699Y-63252715D01*
X37142787Y-63295476D01*
X37144500Y-63311307D01*
X37144500Y-64168692D01*
X37127187Y-64216258D01*
X37083350Y-64241568D01*
X37033500Y-64232778D01*
X37020647Y-64223379D01*
X36916041Y-64128019D01*
X36882561Y-64107289D01*
X36742637Y-64020652D01*
X36552456Y-63946976D01*
X36464407Y-63930516D01*
X36351979Y-63909500D01*
X36351976Y-63909500D01*
X36148024Y-63909500D01*
X36148020Y-63909500D01*
X35998115Y-63937522D01*
X35947544Y-63946976D01*
X35947542Y-63946976D01*
X35947540Y-63946977D01*
X35775494Y-64013628D01*
X35757363Y-64020652D01*
X35757358Y-64020654D01*
X35757358Y-64020655D01*
X35583958Y-64128019D01*
X35583957Y-64128019D01*
X35433235Y-64265420D01*
X35433234Y-64265421D01*
X35310329Y-64428174D01*
X35310328Y-64428177D01*
X35219418Y-64610750D01*
X35219416Y-64610755D01*
X35163602Y-64806917D01*
X35163601Y-64806923D01*
X35144785Y-65009996D01*
X35144785Y-65010003D01*
X34308500Y-65010003D01*
X34308500Y-31963506D01*
X36354518Y-31963506D01*
X36374421Y-32241791D01*
X36433728Y-32514418D01*
X36433733Y-32514437D01*
X36531228Y-32775833D01*
X36664942Y-33020711D01*
X36714900Y-33087447D01*
X36832145Y-33244068D01*
X37029432Y-33441355D01*
X37135899Y-33521055D01*
X37252788Y-33608557D01*
X37497666Y-33742271D01*
X37759062Y-33839766D01*
X37759067Y-33839767D01*
X37759077Y-33839771D01*
X38031706Y-33899078D01*
X38240330Y-33913999D01*
X38240335Y-33914000D01*
X38240343Y-33914000D01*
X38379665Y-33914000D01*
X38379668Y-33913999D01*
X38588294Y-33899078D01*
X38860923Y-33839771D01*
X38860934Y-33839766D01*
X38860937Y-33839766D01*
X39122333Y-33742271D01*
X39127868Y-33739249D01*
X39367213Y-33608556D01*
X39590568Y-33441355D01*
X39787855Y-33244068D01*
X39955056Y-33020713D01*
X40088769Y-32775837D01*
X40088769Y-32775835D01*
X40088771Y-32775833D01*
X40186266Y-32514437D01*
X40186266Y-32514434D01*
X40186271Y-32514423D01*
X40245578Y-32241794D01*
X40265482Y-31963500D01*
X40265482Y-31963493D01*
X40245578Y-31685208D01*
X40245578Y-31685206D01*
X40186271Y-31412577D01*
X40186267Y-31412567D01*
X40186266Y-31412562D01*
X40088771Y-31151166D01*
X39955057Y-30906288D01*
X39913255Y-30850448D01*
X39787855Y-30682932D01*
X39590568Y-30485645D01*
X39478890Y-30402044D01*
X39367211Y-30318442D01*
X39122333Y-30184728D01*
X38860937Y-30087233D01*
X38860925Y-30087230D01*
X38860923Y-30087229D01*
X38805971Y-30075275D01*
X38588291Y-30027921D01*
X38379669Y-30013000D01*
X38379657Y-30013000D01*
X38240343Y-30013000D01*
X38240330Y-30013000D01*
X38031708Y-30027921D01*
X37759081Y-30087228D01*
X37759062Y-30087233D01*
X37497666Y-30184728D01*
X37252788Y-30318442D01*
X37029429Y-30485647D01*
X36832147Y-30682929D01*
X36664942Y-30906288D01*
X36531228Y-31151166D01*
X36433733Y-31412562D01*
X36433728Y-31412581D01*
X36374421Y-31685208D01*
X36354518Y-31963493D01*
X36354518Y-31963506D01*
X34308500Y-31963506D01*
X34308500Y-28727318D01*
X34308678Y-28723690D01*
X34311976Y-28690205D01*
X34324932Y-28575221D01*
X34327652Y-28562038D01*
X34344896Y-28505190D01*
X34345368Y-28503745D01*
X34374070Y-28421720D01*
X34378646Y-28411298D01*
X34409385Y-28353790D01*
X34410649Y-28351612D01*
X34455716Y-28279887D01*
X34458423Y-28276127D01*
X34502619Y-28222275D01*
X34505039Y-28219605D01*
X34564105Y-28160539D01*
X34566775Y-28158119D01*
X34620627Y-28113923D01*
X34624387Y-28111216D01*
X34696112Y-28066149D01*
X34698290Y-28064885D01*
X34755798Y-28034146D01*
X34766220Y-28029570D01*
X34848246Y-28000868D01*
X34849648Y-28000409D01*
X34906540Y-27983151D01*
X34919721Y-27980432D01*
X35034699Y-27967476D01*
X35065962Y-27964397D01*
X35068194Y-27964178D01*
X35071821Y-27964000D01*
X67628179Y-27964000D01*
X67631807Y-27964178D01*
G37*
G04 #@! TD.AperFunction*
G04 #@! TA.AperFunction,NonConductor*
G36*
X44886571Y-38768211D02*
G01*
X44892482Y-38773519D01*
X48991518Y-42872555D01*
X49001140Y-42884404D01*
X49009916Y-42897836D01*
X49009918Y-42897838D01*
X49012258Y-42900379D01*
X49031738Y-42947100D01*
X49016629Y-42995411D01*
X48974001Y-43022708D01*
X48957816Y-43024500D01*
X44988886Y-43024500D01*
X44896390Y-43039935D01*
X44896388Y-43039935D01*
X44896387Y-43039936D01*
X44828591Y-43076625D01*
X44778518Y-43084038D01*
X44735395Y-43057530D01*
X44719400Y-43009504D01*
X44730042Y-42973265D01*
X44790742Y-42872857D01*
X44840495Y-42713194D01*
X44846800Y-42643811D01*
X44846799Y-41656190D01*
X44840495Y-41586806D01*
X44790742Y-41427143D01*
X44704225Y-41284027D01*
X44585973Y-41165775D01*
X44442857Y-41079258D01*
X44442854Y-41079257D01*
X44442851Y-41079255D01*
X44283198Y-41029506D01*
X44283195Y-41029505D01*
X44283194Y-41029505D01*
X44283192Y-41029504D01*
X44283188Y-41029504D01*
X44213818Y-41023200D01*
X44213811Y-41023200D01*
X44169500Y-41023200D01*
X44121934Y-41005887D01*
X44096624Y-40962050D01*
X44095500Y-40949200D01*
X44095500Y-40810799D01*
X44112813Y-40763233D01*
X44156650Y-40737923D01*
X44169500Y-40736799D01*
X44213806Y-40736799D01*
X44213810Y-40736799D01*
X44283194Y-40730495D01*
X44442857Y-40680742D01*
X44585973Y-40594225D01*
X44704225Y-40475973D01*
X44790742Y-40332857D01*
X44840495Y-40173194D01*
X44846800Y-40103811D01*
X44846799Y-39116190D01*
X44840495Y-39046806D01*
X44801707Y-38922330D01*
X44790744Y-38887148D01*
X44790743Y-38887146D01*
X44790742Y-38887143D01*
X44776827Y-38864125D01*
X44767036Y-38814465D01*
X44791458Y-38770127D01*
X44838666Y-38751860D01*
X44886571Y-38768211D01*
G37*
G04 #@! TD.AperFunction*
G04 #@! TA.AperFunction,NonConductor*
G36*
X44559869Y-43221456D02*
G01*
X44578138Y-43268663D01*
X44561788Y-43316569D01*
X44556479Y-43322482D01*
X44242319Y-43636642D01*
X44196443Y-43658034D01*
X44163261Y-43653319D01*
X44029687Y-43601573D01*
X44029686Y-43601572D01*
X44029684Y-43601572D01*
X43939532Y-43584719D01*
X43824416Y-43563200D01*
X43824413Y-43563200D01*
X43615587Y-43563200D01*
X43615583Y-43563200D01*
X43474895Y-43589500D01*
X43410316Y-43601572D01*
X43410314Y-43601572D01*
X43410312Y-43601573D01*
X43239082Y-43667908D01*
X43215590Y-43677009D01*
X43215585Y-43677011D01*
X43215585Y-43677012D01*
X43038044Y-43786940D01*
X42883720Y-43927625D01*
X42757873Y-44094271D01*
X42757871Y-44094273D01*
X42670742Y-44269254D01*
X42634042Y-44304116D01*
X42583519Y-44307232D01*
X42542813Y-44277144D01*
X42530500Y-44236269D01*
X42530500Y-43901188D01*
X42547813Y-43853622D01*
X42552163Y-43848873D01*
X43108223Y-43292812D01*
X43154098Y-43271421D01*
X43167238Y-43271442D01*
X43226189Y-43276800D01*
X44213810Y-43276799D01*
X44283194Y-43270495D01*
X44378628Y-43240756D01*
X44442849Y-43220745D01*
X44442850Y-43220743D01*
X44442857Y-43220742D01*
X44465873Y-43206827D01*
X44515530Y-43197036D01*
X44559869Y-43221456D01*
G37*
G04 #@! TD.AperFunction*
G04 #@! TA.AperFunction,NonConductor*
G36*
X58147144Y-43792813D02*
G01*
X58172454Y-43836650D01*
X58163664Y-43886500D01*
X58149431Y-43904187D01*
X58123720Y-43927625D01*
X57997873Y-44094271D01*
X57997871Y-44094273D01*
X57904789Y-44281209D01*
X57904787Y-44281214D01*
X57847641Y-44482062D01*
X57847639Y-44482075D01*
X57828373Y-44689996D01*
X57828373Y-44690003D01*
X57847639Y-44897924D01*
X57847641Y-44897937D01*
X57904041Y-45096164D01*
X57904789Y-45098791D01*
X57927166Y-45143730D01*
X57997871Y-45285726D01*
X57997873Y-45285728D01*
X58110281Y-45434579D01*
X58125780Y-45455102D01*
X58124405Y-45456140D01*
X58141397Y-45497463D01*
X58126050Y-45545700D01*
X58083289Y-45572787D01*
X58067459Y-45574500D01*
X45046617Y-45574500D01*
X45031432Y-45572925D01*
X45015731Y-45569633D01*
X44978965Y-45574216D01*
X44974386Y-45574500D01*
X44968879Y-45574500D01*
X44946613Y-45578216D01*
X44945102Y-45578436D01*
X44891374Y-45585134D01*
X44885498Y-45586884D01*
X44885417Y-45586615D01*
X44882102Y-45587677D01*
X44882193Y-45587942D01*
X44876392Y-45589933D01*
X44828789Y-45615694D01*
X44827431Y-45616393D01*
X44778787Y-45640174D01*
X44773797Y-45643737D01*
X44773636Y-45643511D01*
X44770837Y-45645598D01*
X44771008Y-45645818D01*
X44766175Y-45649578D01*
X44729515Y-45689400D01*
X44728457Y-45690503D01*
X44242318Y-46176642D01*
X44196442Y-46198034D01*
X44163260Y-46193319D01*
X44029687Y-46141573D01*
X44029686Y-46141572D01*
X44029684Y-46141572D01*
X43939532Y-46124719D01*
X43824416Y-46103200D01*
X43824413Y-46103200D01*
X43615587Y-46103200D01*
X43615583Y-46103200D01*
X43474895Y-46129500D01*
X43410316Y-46141572D01*
X43410314Y-46141572D01*
X43410312Y-46141573D01*
X43265081Y-46197836D01*
X43215590Y-46217009D01*
X43215585Y-46217011D01*
X43215585Y-46217012D01*
X43038044Y-46326940D01*
X42883720Y-46467625D01*
X42757873Y-46634271D01*
X42757871Y-46634273D01*
X42670742Y-46809254D01*
X42634042Y-46844116D01*
X42583519Y-46847232D01*
X42542813Y-46817144D01*
X42530500Y-46776269D01*
X42530500Y-45143730D01*
X42547813Y-45096164D01*
X42591650Y-45070854D01*
X42641500Y-45079644D01*
X42670740Y-45110743D01*
X42757871Y-45285725D01*
X42870281Y-45434579D01*
X42883720Y-45452374D01*
X42887851Y-45456140D01*
X43038042Y-45593058D01*
X43215590Y-45702991D01*
X43410316Y-45778428D01*
X43615587Y-45816800D01*
X43824413Y-45816800D01*
X44029684Y-45778428D01*
X44224410Y-45702991D01*
X44401958Y-45593058D01*
X44556282Y-45452372D01*
X44682129Y-45285725D01*
X44775211Y-45098791D01*
X44832359Y-44897936D01*
X44851627Y-44690000D01*
X44848014Y-44651012D01*
X44832360Y-44482075D01*
X44832359Y-44482064D01*
X44775211Y-44281209D01*
X44773187Y-44277144D01*
X44760588Y-44251841D01*
X44754884Y-44201545D01*
X44774502Y-44166533D01*
X45143862Y-43797174D01*
X45189740Y-43775782D01*
X45196189Y-43775500D01*
X58099578Y-43775500D01*
X58147144Y-43792813D01*
G37*
G04 #@! TD.AperFunction*
G04 #@! TA.AperFunction,NonConductor*
G36*
X60839676Y-43792813D02*
G01*
X60844436Y-43797174D01*
X63219817Y-46172555D01*
X63229441Y-46184406D01*
X63238214Y-46197834D01*
X63238217Y-46197838D01*
X63267453Y-46220594D01*
X63270890Y-46223628D01*
X63274781Y-46227519D01*
X63274783Y-46227520D01*
X63276940Y-46229677D01*
X63276331Y-46230285D01*
X63299827Y-46271428D01*
X63290801Y-46321236D01*
X63265855Y-46346844D01*
X63263963Y-46348015D01*
X63113235Y-46485420D01*
X63113234Y-46485421D01*
X62990329Y-46648174D01*
X62990328Y-46648177D01*
X62899418Y-46830750D01*
X62899416Y-46830755D01*
X62843602Y-47026917D01*
X62843601Y-47026923D01*
X62824785Y-47229996D01*
X62824785Y-47230003D01*
X62843601Y-47433076D01*
X62843602Y-47433082D01*
X62896685Y-47619644D01*
X62899418Y-47629250D01*
X62990327Y-47811821D01*
X62990328Y-47811822D01*
X62990329Y-47811825D01*
X63035499Y-47871639D01*
X63113236Y-47974579D01*
X63136529Y-47995813D01*
X63160017Y-48040653D01*
X63149188Y-48090100D01*
X63109108Y-48121018D01*
X63086675Y-48124500D01*
X62115084Y-48124500D01*
X62067518Y-48107187D01*
X62062758Y-48102826D01*
X59677374Y-45717441D01*
X59667748Y-45705586D01*
X59658981Y-45692166D01*
X59654828Y-45687655D01*
X59656139Y-45686447D01*
X59633538Y-45650420D01*
X59640494Y-45600281D01*
X59656039Y-45580220D01*
X59796282Y-45452372D01*
X59922129Y-45285725D01*
X60015211Y-45098791D01*
X60072359Y-44897936D01*
X60091627Y-44690000D01*
X60088014Y-44651012D01*
X60072360Y-44482075D01*
X60072359Y-44482064D01*
X60015211Y-44281209D01*
X59922129Y-44094275D01*
X59922128Y-44094274D01*
X59922128Y-44094273D01*
X59922126Y-44094271D01*
X59918678Y-44089706D01*
X59796282Y-43927628D01*
X59770569Y-43904187D01*
X59747080Y-43859347D01*
X59757909Y-43809900D01*
X59797989Y-43778982D01*
X59820422Y-43775500D01*
X60792110Y-43775500D01*
X60839676Y-43792813D01*
G37*
G04 #@! TD.AperFunction*
G04 #@! TA.AperFunction,NonConductor*
G36*
X60196594Y-47300234D02*
G01*
X60206165Y-47308307D01*
X60932400Y-48034542D01*
X60953792Y-48080418D01*
X60940691Y-48129313D01*
X60899227Y-48158347D01*
X60856048Y-48156859D01*
X60853869Y-48156111D01*
X60842829Y-48150428D01*
X60842706Y-48150682D01*
X60837201Y-48147990D01*
X60785347Y-48132552D01*
X60783892Y-48132086D01*
X60732661Y-48114499D01*
X60726615Y-48113491D01*
X60726661Y-48113214D01*
X60723206Y-48112710D01*
X60723172Y-48112991D01*
X60717089Y-48112232D01*
X60717088Y-48112232D01*
X60717086Y-48112232D01*
X60663003Y-48114468D01*
X60661475Y-48114500D01*
X59852541Y-48114500D01*
X59804975Y-48097187D01*
X59779665Y-48053350D01*
X59788455Y-48003500D01*
X59794462Y-47995284D01*
X59794220Y-47995102D01*
X59796282Y-47992372D01*
X59922129Y-47825725D01*
X60015211Y-47638791D01*
X60072359Y-47437936D01*
X60080154Y-47353806D01*
X60101782Y-47308039D01*
X60147768Y-47286882D01*
X60196594Y-47300234D01*
G37*
G04 #@! TD.AperFunction*
G04 #@! TA.AperFunction,NonConductor*
G36*
X58136174Y-46342813D02*
G01*
X58161484Y-46386650D01*
X58152694Y-46436500D01*
X58138462Y-46454186D01*
X58123720Y-46467624D01*
X57997873Y-46634271D01*
X57997871Y-46634273D01*
X57904789Y-46821209D01*
X57904787Y-46821214D01*
X57847641Y-47022062D01*
X57847639Y-47022075D01*
X57828373Y-47229996D01*
X57828373Y-47230003D01*
X57847639Y-47437924D01*
X57847641Y-47437937D01*
X57904041Y-47636164D01*
X57904789Y-47638791D01*
X57927166Y-47683730D01*
X57997871Y-47825726D01*
X57997873Y-47825728D01*
X58110281Y-47974579D01*
X58125780Y-47995102D01*
X58124405Y-47996140D01*
X58141397Y-48037463D01*
X58126050Y-48085700D01*
X58083289Y-48112787D01*
X58067459Y-48114500D01*
X45046617Y-48114500D01*
X45031432Y-48112925D01*
X45015731Y-48109633D01*
X44978965Y-48114216D01*
X44974386Y-48114500D01*
X44968879Y-48114500D01*
X44946613Y-48118216D01*
X44945102Y-48118436D01*
X44891374Y-48125134D01*
X44885498Y-48126884D01*
X44885417Y-48126615D01*
X44882102Y-48127677D01*
X44882193Y-48127942D01*
X44876392Y-48129933D01*
X44828789Y-48155694D01*
X44827431Y-48156393D01*
X44778787Y-48180174D01*
X44773797Y-48183737D01*
X44773636Y-48183511D01*
X44770837Y-48185598D01*
X44771008Y-48185818D01*
X44766175Y-48189578D01*
X44729515Y-48229400D01*
X44728457Y-48230503D01*
X44242318Y-48716642D01*
X44196442Y-48738034D01*
X44163260Y-48733319D01*
X44029687Y-48681573D01*
X44029686Y-48681572D01*
X44029684Y-48681572D01*
X43939531Y-48664719D01*
X43824416Y-48643200D01*
X43824413Y-48643200D01*
X43615587Y-48643200D01*
X43615583Y-48643200D01*
X43474895Y-48669500D01*
X43410316Y-48681572D01*
X43410314Y-48681572D01*
X43410312Y-48681573D01*
X43276741Y-48733319D01*
X43215590Y-48757009D01*
X43215585Y-48757011D01*
X43215585Y-48757012D01*
X43038044Y-48866940D01*
X42883720Y-49007625D01*
X42757873Y-49174271D01*
X42757871Y-49174273D01*
X42670742Y-49349254D01*
X42634042Y-49384116D01*
X42583519Y-49387232D01*
X42542813Y-49357144D01*
X42530500Y-49316269D01*
X42530500Y-47683730D01*
X42547813Y-47636164D01*
X42591650Y-47610854D01*
X42641500Y-47619644D01*
X42670740Y-47650743D01*
X42757871Y-47825725D01*
X42870281Y-47974579D01*
X42883720Y-47992374D01*
X42887851Y-47996140D01*
X43038042Y-48133058D01*
X43215590Y-48242991D01*
X43410316Y-48318428D01*
X43615587Y-48356800D01*
X43824413Y-48356800D01*
X44029684Y-48318428D01*
X44224410Y-48242991D01*
X44401958Y-48133058D01*
X44556282Y-47992372D01*
X44682129Y-47825725D01*
X44775211Y-47638791D01*
X44832359Y-47437936D01*
X44851627Y-47230000D01*
X44832359Y-47022064D01*
X44775211Y-46821209D01*
X44773187Y-46817144D01*
X44760588Y-46791841D01*
X44754884Y-46741545D01*
X44774502Y-46706533D01*
X45133862Y-46347174D01*
X45179740Y-46325782D01*
X45186189Y-46325500D01*
X58088608Y-46325500D01*
X58136174Y-46342813D01*
G37*
G04 #@! TD.AperFunction*
G04 #@! TA.AperFunction,NonConductor*
G36*
X61742848Y-48833141D02*
G01*
X61745027Y-48833889D01*
X61756065Y-48839571D01*
X61756190Y-48839318D01*
X61761693Y-48842008D01*
X61761696Y-48842010D01*
X61813627Y-48857470D01*
X61814987Y-48857906D01*
X61866235Y-48875500D01*
X61866236Y-48875500D01*
X61872286Y-48876510D01*
X61872239Y-48876787D01*
X61875686Y-48877289D01*
X61875721Y-48877010D01*
X61881801Y-48877767D01*
X61881807Y-48877769D01*
X61915488Y-48876375D01*
X61935905Y-48875532D01*
X61937434Y-48875500D01*
X63086675Y-48875500D01*
X63134241Y-48892813D01*
X63159551Y-48936650D01*
X63150761Y-48986500D01*
X63136530Y-49004185D01*
X63132754Y-49007628D01*
X63113233Y-49025424D01*
X62990329Y-49188174D01*
X62990328Y-49188177D01*
X62899418Y-49370750D01*
X62899416Y-49370755D01*
X62843602Y-49566917D01*
X62843601Y-49566923D01*
X62824785Y-49769996D01*
X62824785Y-49770004D01*
X62840979Y-49944779D01*
X62828129Y-49993739D01*
X62786814Y-50022985D01*
X62736365Y-50018832D01*
X62714969Y-50003932D01*
X61666496Y-48955458D01*
X61645104Y-48909581D01*
X61658205Y-48860687D01*
X61699669Y-48831653D01*
X61742848Y-48833141D01*
G37*
G04 #@! TD.AperFunction*
G04 #@! TA.AperFunction,NonConductor*
G36*
X58136174Y-48882813D02*
G01*
X58161484Y-48926650D01*
X58152694Y-48976500D01*
X58138462Y-48994186D01*
X58123720Y-49007624D01*
X57997873Y-49174271D01*
X57997871Y-49174273D01*
X57904789Y-49361209D01*
X57904787Y-49361214D01*
X57847641Y-49562062D01*
X57847639Y-49562075D01*
X57828373Y-49769996D01*
X57828373Y-49770003D01*
X57847639Y-49977924D01*
X57847641Y-49977937D01*
X57904041Y-50176164D01*
X57904789Y-50178791D01*
X57919012Y-50207354D01*
X57997871Y-50365726D01*
X57997873Y-50365728D01*
X58118835Y-50525906D01*
X58133685Y-50574296D01*
X58113954Y-50620912D01*
X58068876Y-50643939D01*
X58059782Y-50644500D01*
X45056617Y-50644500D01*
X45041432Y-50642925D01*
X45025731Y-50639633D01*
X44988965Y-50644216D01*
X44984386Y-50644500D01*
X44978879Y-50644500D01*
X44956613Y-50648216D01*
X44955102Y-50648436D01*
X44901374Y-50655134D01*
X44895498Y-50656884D01*
X44895417Y-50656615D01*
X44892102Y-50657677D01*
X44892193Y-50657942D01*
X44886392Y-50659933D01*
X44838789Y-50685694D01*
X44837431Y-50686393D01*
X44788787Y-50710174D01*
X44783797Y-50713737D01*
X44783636Y-50713511D01*
X44780837Y-50715598D01*
X44781008Y-50715818D01*
X44776175Y-50719578D01*
X44739515Y-50759400D01*
X44738457Y-50760503D01*
X44242318Y-51256642D01*
X44196442Y-51278034D01*
X44163260Y-51273319D01*
X44029687Y-51221573D01*
X44029686Y-51221572D01*
X44029684Y-51221572D01*
X43939531Y-51204719D01*
X43824416Y-51183200D01*
X43824413Y-51183200D01*
X43615587Y-51183200D01*
X43615583Y-51183200D01*
X43474895Y-51209500D01*
X43410316Y-51221572D01*
X43410314Y-51221572D01*
X43410312Y-51221573D01*
X43278713Y-51272555D01*
X43215590Y-51297009D01*
X43215585Y-51297011D01*
X43215585Y-51297012D01*
X43038044Y-51406940D01*
X42883720Y-51547625D01*
X42757873Y-51714271D01*
X42757871Y-51714273D01*
X42670742Y-51889254D01*
X42634042Y-51924116D01*
X42583519Y-51927232D01*
X42542813Y-51897144D01*
X42530500Y-51856269D01*
X42530500Y-50223730D01*
X42547813Y-50176164D01*
X42591650Y-50150854D01*
X42641500Y-50159644D01*
X42670740Y-50190743D01*
X42757871Y-50365725D01*
X42878834Y-50525905D01*
X42883720Y-50532374D01*
X42889199Y-50537369D01*
X43038042Y-50673058D01*
X43215590Y-50782991D01*
X43410316Y-50858428D01*
X43615587Y-50896800D01*
X43824413Y-50896800D01*
X44029684Y-50858428D01*
X44224410Y-50782991D01*
X44401958Y-50673058D01*
X44556282Y-50532372D01*
X44682129Y-50365725D01*
X44775211Y-50178791D01*
X44832359Y-49977936D01*
X44851627Y-49770000D01*
X44832359Y-49562064D01*
X44775211Y-49361209D01*
X44773187Y-49357144D01*
X44760588Y-49331841D01*
X44754884Y-49281545D01*
X44774502Y-49246533D01*
X45133862Y-48887174D01*
X45179740Y-48865782D01*
X45186189Y-48865500D01*
X58088608Y-48865500D01*
X58136174Y-48882813D01*
G37*
G04 #@! TD.AperFunction*
G04 #@! TA.AperFunction,NonConductor*
G36*
X60196594Y-52380234D02*
G01*
X60206165Y-52388307D01*
X60886032Y-53068174D01*
X60907424Y-53114050D01*
X60894323Y-53162945D01*
X60852859Y-53191979D01*
X60833706Y-53194500D01*
X59852541Y-53194500D01*
X59804975Y-53177187D01*
X59779665Y-53133350D01*
X59788455Y-53083500D01*
X59794462Y-53075284D01*
X59794220Y-53075102D01*
X59799452Y-53068174D01*
X59922129Y-52905725D01*
X60015211Y-52718791D01*
X60072359Y-52517936D01*
X60080154Y-52433806D01*
X60101782Y-52388039D01*
X60147768Y-52366882D01*
X60196594Y-52380234D01*
G37*
G04 #@! TD.AperFunction*
G04 #@! TA.AperFunction,NonConductor*
G36*
X60531377Y-48882813D02*
G01*
X60536137Y-48887174D01*
X62921518Y-51272555D01*
X62931140Y-51284404D01*
X62939916Y-51297836D01*
X62963003Y-51315805D01*
X62969154Y-51320593D01*
X62972593Y-51323631D01*
X62976482Y-51327519D01*
X62976481Y-51327519D01*
X62982409Y-51331751D01*
X62994884Y-51340658D01*
X62996083Y-51341553D01*
X63038807Y-51374807D01*
X63044202Y-51377726D01*
X63044067Y-51377974D01*
X63047170Y-51379572D01*
X63047295Y-51379318D01*
X63052800Y-51382010D01*
X63104696Y-51397460D01*
X63106122Y-51397916D01*
X63126657Y-51404966D01*
X63166024Y-51436786D01*
X63175727Y-51486467D01*
X63152482Y-51529642D01*
X63113236Y-51565419D01*
X63113234Y-51565421D01*
X62990329Y-51728174D01*
X62990328Y-51728177D01*
X62899418Y-51910750D01*
X62899416Y-51910755D01*
X62843602Y-52106917D01*
X62843601Y-52106923D01*
X62824785Y-52309996D01*
X62824785Y-52310003D01*
X62843601Y-52513076D01*
X62843602Y-52513082D01*
X62896685Y-52699644D01*
X62899418Y-52709250D01*
X62990327Y-52891821D01*
X62990328Y-52891822D01*
X62990329Y-52891825D01*
X63035499Y-52951639D01*
X63113236Y-53054579D01*
X63136529Y-53075813D01*
X63160017Y-53120653D01*
X63149188Y-53170100D01*
X63109108Y-53201018D01*
X63086675Y-53204500D01*
X62115084Y-53204500D01*
X62067518Y-53187187D01*
X62062758Y-53182826D01*
X59667374Y-50787441D01*
X59657748Y-50775586D01*
X59645624Y-50757027D01*
X59647677Y-50755685D01*
X59632061Y-50718211D01*
X59647179Y-50669902D01*
X59656130Y-50660138D01*
X59658830Y-50657677D01*
X59796282Y-50532372D01*
X59922129Y-50365725D01*
X60015211Y-50178791D01*
X60072359Y-49977936D01*
X60091627Y-49770000D01*
X60072359Y-49562064D01*
X60015211Y-49361209D01*
X59922129Y-49174275D01*
X59922128Y-49174274D01*
X59922128Y-49174273D01*
X59922126Y-49174271D01*
X59796279Y-49007624D01*
X59781538Y-48994186D01*
X59758050Y-48949346D01*
X59768880Y-48899899D01*
X59808960Y-48868982D01*
X59831392Y-48865500D01*
X60483811Y-48865500D01*
X60531377Y-48882813D01*
G37*
G04 #@! TD.AperFunction*
G04 #@! TA.AperFunction,NonConductor*
G36*
X58147144Y-51412813D02*
G01*
X58172454Y-51456650D01*
X58163664Y-51506500D01*
X58149431Y-51524187D01*
X58123720Y-51547625D01*
X57997873Y-51714271D01*
X57997871Y-51714273D01*
X57904789Y-51901209D01*
X57904787Y-51901214D01*
X57847641Y-52102062D01*
X57847639Y-52102075D01*
X57828373Y-52309996D01*
X57828373Y-52310003D01*
X57847639Y-52517924D01*
X57847641Y-52517937D01*
X57904041Y-52716164D01*
X57904789Y-52718791D01*
X57927166Y-52763730D01*
X57997871Y-52905726D01*
X57997873Y-52905728D01*
X58110281Y-53054579D01*
X58125780Y-53075102D01*
X58124405Y-53076140D01*
X58141397Y-53117463D01*
X58126050Y-53165700D01*
X58083289Y-53192787D01*
X58067459Y-53194500D01*
X45046617Y-53194500D01*
X45031432Y-53192925D01*
X45015731Y-53189633D01*
X44978965Y-53194216D01*
X44974386Y-53194500D01*
X44968879Y-53194500D01*
X44946613Y-53198216D01*
X44945102Y-53198436D01*
X44891374Y-53205134D01*
X44885498Y-53206884D01*
X44885417Y-53206615D01*
X44882102Y-53207677D01*
X44882193Y-53207942D01*
X44876392Y-53209933D01*
X44828789Y-53235694D01*
X44827431Y-53236393D01*
X44778787Y-53260174D01*
X44773797Y-53263737D01*
X44773636Y-53263511D01*
X44770837Y-53265598D01*
X44771008Y-53265818D01*
X44766175Y-53269578D01*
X44729515Y-53309400D01*
X44728457Y-53310503D01*
X44242318Y-53796642D01*
X44196442Y-53818034D01*
X44163260Y-53813319D01*
X44029687Y-53761573D01*
X44029686Y-53761572D01*
X44029684Y-53761572D01*
X43939531Y-53744719D01*
X43824416Y-53723200D01*
X43824413Y-53723200D01*
X43615587Y-53723200D01*
X43615583Y-53723200D01*
X43474895Y-53749500D01*
X43410316Y-53761572D01*
X43410314Y-53761572D01*
X43410312Y-53761573D01*
X43276741Y-53813319D01*
X43215590Y-53837009D01*
X43215585Y-53837011D01*
X43215585Y-53837012D01*
X43038044Y-53946940D01*
X42883720Y-54087625D01*
X42757873Y-54254271D01*
X42757871Y-54254273D01*
X42670742Y-54429254D01*
X42634042Y-54464116D01*
X42583519Y-54467232D01*
X42542813Y-54437144D01*
X42530500Y-54396269D01*
X42530500Y-52763730D01*
X42547813Y-52716164D01*
X42591650Y-52690854D01*
X42641500Y-52699644D01*
X42670740Y-52730743D01*
X42757871Y-52905725D01*
X42870281Y-53054579D01*
X42883720Y-53072374D01*
X42887851Y-53076140D01*
X43038042Y-53213058D01*
X43215590Y-53322991D01*
X43410316Y-53398428D01*
X43615587Y-53436800D01*
X43824413Y-53436800D01*
X44029684Y-53398428D01*
X44224410Y-53322991D01*
X44401958Y-53213058D01*
X44556282Y-53072372D01*
X44682129Y-52905725D01*
X44775211Y-52718791D01*
X44832359Y-52517936D01*
X44851627Y-52310000D01*
X44832359Y-52102064D01*
X44775211Y-51901209D01*
X44773187Y-51897144D01*
X44760588Y-51871841D01*
X44754884Y-51821545D01*
X44774502Y-51786533D01*
X45143862Y-51417174D01*
X45189740Y-51395782D01*
X45196189Y-51395500D01*
X58099578Y-51395500D01*
X58147144Y-51412813D01*
G37*
G04 #@! TD.AperFunction*
G04 #@! TA.AperFunction,NonConductor*
G36*
X63134241Y-53972813D02*
G01*
X63159551Y-54016650D01*
X63150761Y-54066500D01*
X63136530Y-54084185D01*
X63132754Y-54087628D01*
X63113233Y-54105424D01*
X62990329Y-54268174D01*
X62990328Y-54268177D01*
X62899418Y-54450750D01*
X62899416Y-54450755D01*
X62843602Y-54646917D01*
X62843601Y-54646923D01*
X62837170Y-54716326D01*
X62815542Y-54762091D01*
X62769556Y-54783248D01*
X62720730Y-54769895D01*
X62711160Y-54761823D01*
X62031163Y-54081826D01*
X62009771Y-54035950D01*
X62022872Y-53987055D01*
X62064336Y-53958021D01*
X62083489Y-53955500D01*
X63086675Y-53955500D01*
X63134241Y-53972813D01*
G37*
G04 #@! TD.AperFunction*
G04 #@! TA.AperFunction,NonConductor*
G36*
X58136174Y-53962813D02*
G01*
X58161484Y-54006650D01*
X58152694Y-54056500D01*
X58138462Y-54074186D01*
X58123720Y-54087624D01*
X57997873Y-54254271D01*
X57997871Y-54254273D01*
X57904789Y-54441209D01*
X57904787Y-54441214D01*
X57847641Y-54642062D01*
X57847639Y-54642075D01*
X57828373Y-54849996D01*
X57828373Y-54850003D01*
X57847639Y-55057924D01*
X57847641Y-55057937D01*
X57904041Y-55256164D01*
X57904789Y-55258791D01*
X57927166Y-55303730D01*
X57997871Y-55445726D01*
X57997873Y-55445728D01*
X58110281Y-55594579D01*
X58125780Y-55615102D01*
X58124405Y-55616140D01*
X58141397Y-55657463D01*
X58126050Y-55705700D01*
X58083289Y-55732787D01*
X58067459Y-55734500D01*
X45046617Y-55734500D01*
X45031432Y-55732925D01*
X45015731Y-55729633D01*
X44978965Y-55734216D01*
X44974386Y-55734500D01*
X44968879Y-55734500D01*
X44946613Y-55738216D01*
X44945102Y-55738436D01*
X44891374Y-55745134D01*
X44885498Y-55746884D01*
X44885417Y-55746615D01*
X44882102Y-55747677D01*
X44882193Y-55747942D01*
X44876392Y-55749933D01*
X44828789Y-55775694D01*
X44827431Y-55776393D01*
X44778787Y-55800174D01*
X44773797Y-55803737D01*
X44773636Y-55803511D01*
X44770837Y-55805598D01*
X44771008Y-55805818D01*
X44766175Y-55809578D01*
X44729515Y-55849400D01*
X44728457Y-55850503D01*
X44242318Y-56336642D01*
X44196442Y-56358034D01*
X44163260Y-56353319D01*
X44029687Y-56301573D01*
X44029686Y-56301572D01*
X44029684Y-56301572D01*
X43939531Y-56284719D01*
X43824416Y-56263200D01*
X43824413Y-56263200D01*
X43615587Y-56263200D01*
X43615583Y-56263200D01*
X43474895Y-56289500D01*
X43410316Y-56301572D01*
X43410314Y-56301572D01*
X43410312Y-56301573D01*
X43304526Y-56342555D01*
X43215590Y-56377009D01*
X43215585Y-56377011D01*
X43215585Y-56377012D01*
X43038044Y-56486940D01*
X42883720Y-56627625D01*
X42757873Y-56794271D01*
X42757871Y-56794273D01*
X42670742Y-56969254D01*
X42634042Y-57004116D01*
X42583519Y-57007232D01*
X42542813Y-56977144D01*
X42530500Y-56936269D01*
X42530500Y-55303730D01*
X42547813Y-55256164D01*
X42591650Y-55230854D01*
X42641500Y-55239644D01*
X42670740Y-55270743D01*
X42757871Y-55445725D01*
X42870281Y-55594579D01*
X42883720Y-55612374D01*
X42887851Y-55616140D01*
X43038042Y-55753058D01*
X43215590Y-55862991D01*
X43410316Y-55938428D01*
X43615587Y-55976800D01*
X43824413Y-55976800D01*
X44029684Y-55938428D01*
X44224410Y-55862991D01*
X44401958Y-55753058D01*
X44556282Y-55612372D01*
X44682129Y-55445725D01*
X44775211Y-55258791D01*
X44832359Y-55057936D01*
X44851627Y-54850000D01*
X44832359Y-54642064D01*
X44775211Y-54441209D01*
X44773187Y-54437144D01*
X44760588Y-54411841D01*
X44754884Y-54361545D01*
X44774502Y-54326533D01*
X45133862Y-53967174D01*
X45179740Y-53945782D01*
X45186189Y-53945500D01*
X58088608Y-53945500D01*
X58136174Y-53962813D01*
G37*
G04 #@! TD.AperFunction*
G04 #@! TA.AperFunction,NonConductor*
G36*
X60849676Y-53962813D02*
G01*
X60854436Y-53967174D01*
X63229817Y-56342555D01*
X63239439Y-56354404D01*
X63248215Y-56367836D01*
X63271572Y-56386015D01*
X63298474Y-56428894D01*
X63291520Y-56479033D01*
X63266545Y-56505756D01*
X63266694Y-56505953D01*
X63265566Y-56506804D01*
X63265084Y-56507321D01*
X63263966Y-56508013D01*
X63263963Y-56508015D01*
X63113235Y-56645420D01*
X63113234Y-56645421D01*
X62990329Y-56808174D01*
X62990328Y-56808177D01*
X62899418Y-56990750D01*
X62899416Y-56990755D01*
X62843602Y-57186917D01*
X62843601Y-57186923D01*
X62824785Y-57389996D01*
X62824785Y-57390003D01*
X62843601Y-57593076D01*
X62843602Y-57593082D01*
X62896685Y-57779644D01*
X62899418Y-57789250D01*
X62990327Y-57971821D01*
X62990328Y-57971822D01*
X62990329Y-57971825D01*
X63113234Y-58134578D01*
X63113235Y-58134579D01*
X63125559Y-58145813D01*
X63149048Y-58190652D01*
X63138219Y-58240099D01*
X63098140Y-58271017D01*
X63075706Y-58274500D01*
X62105085Y-58274500D01*
X62057519Y-58257187D01*
X62052759Y-58252826D01*
X59677374Y-55877441D01*
X59667748Y-55865586D01*
X59658981Y-55852166D01*
X59654828Y-55847655D01*
X59656139Y-55846447D01*
X59633538Y-55810420D01*
X59640494Y-55760281D01*
X59656039Y-55740220D01*
X59796282Y-55612372D01*
X59922129Y-55445725D01*
X60015211Y-55258791D01*
X60072359Y-55057936D01*
X60091627Y-54850000D01*
X60072359Y-54642064D01*
X60015211Y-54441209D01*
X59922129Y-54254275D01*
X59922128Y-54254274D01*
X59922128Y-54254273D01*
X59922126Y-54254271D01*
X59796279Y-54087624D01*
X59781538Y-54074186D01*
X59758050Y-54029346D01*
X59768880Y-53979899D01*
X59808960Y-53948982D01*
X59831392Y-53945500D01*
X60802110Y-53945500D01*
X60849676Y-53962813D01*
G37*
G04 #@! TD.AperFunction*
G04 #@! TA.AperFunction,NonConductor*
G36*
X60196594Y-57460234D02*
G01*
X60206165Y-57468307D01*
X60886032Y-58148174D01*
X60907424Y-58194050D01*
X60894323Y-58242945D01*
X60852859Y-58271979D01*
X60833706Y-58274500D01*
X59852541Y-58274500D01*
X59804975Y-58257187D01*
X59779665Y-58213350D01*
X59788455Y-58163500D01*
X59794462Y-58155284D01*
X59794220Y-58155102D01*
X59801235Y-58145813D01*
X59922129Y-57985725D01*
X60015211Y-57798791D01*
X60072359Y-57597936D01*
X60080154Y-57513806D01*
X60101782Y-57468039D01*
X60147768Y-57446882D01*
X60196594Y-57460234D01*
G37*
G04 #@! TD.AperFunction*
G04 #@! TA.AperFunction,NonConductor*
G36*
X58136174Y-56502813D02*
G01*
X58161484Y-56546650D01*
X58152694Y-56596500D01*
X58138462Y-56614186D01*
X58123720Y-56627624D01*
X57997873Y-56794271D01*
X57997871Y-56794273D01*
X57904789Y-56981209D01*
X57904787Y-56981214D01*
X57847641Y-57182062D01*
X57847639Y-57182075D01*
X57828373Y-57389996D01*
X57828373Y-57390003D01*
X57847639Y-57597924D01*
X57847641Y-57597937D01*
X57904041Y-57796164D01*
X57904789Y-57798791D01*
X57927166Y-57843730D01*
X57997871Y-57985726D01*
X57997873Y-57985728D01*
X58110281Y-58134579D01*
X58125780Y-58155102D01*
X58124405Y-58156140D01*
X58141397Y-58197463D01*
X58126050Y-58245700D01*
X58083289Y-58272787D01*
X58067459Y-58274500D01*
X45046617Y-58274500D01*
X45031432Y-58272925D01*
X45015731Y-58269633D01*
X44978965Y-58274216D01*
X44974386Y-58274500D01*
X44968879Y-58274500D01*
X44946613Y-58278216D01*
X44945102Y-58278436D01*
X44891374Y-58285134D01*
X44885498Y-58286884D01*
X44885417Y-58286615D01*
X44882102Y-58287677D01*
X44882193Y-58287942D01*
X44876392Y-58289933D01*
X44828789Y-58315694D01*
X44827431Y-58316393D01*
X44778787Y-58340174D01*
X44773797Y-58343737D01*
X44773636Y-58343511D01*
X44770837Y-58345598D01*
X44771008Y-58345818D01*
X44766175Y-58349578D01*
X44729515Y-58389400D01*
X44728457Y-58390503D01*
X44242318Y-58876642D01*
X44196442Y-58898034D01*
X44163260Y-58893319D01*
X44029687Y-58841573D01*
X44029686Y-58841572D01*
X44029684Y-58841572D01*
X43939531Y-58824719D01*
X43824416Y-58803200D01*
X43824413Y-58803200D01*
X43615587Y-58803200D01*
X43615583Y-58803200D01*
X43474895Y-58829500D01*
X43410316Y-58841572D01*
X43410314Y-58841572D01*
X43410312Y-58841573D01*
X43276741Y-58893319D01*
X43215590Y-58917009D01*
X43215585Y-58917011D01*
X43215585Y-58917012D01*
X43038044Y-59026940D01*
X42883720Y-59167625D01*
X42757873Y-59334271D01*
X42757871Y-59334273D01*
X42670742Y-59509254D01*
X42634042Y-59544116D01*
X42583519Y-59547232D01*
X42542813Y-59517144D01*
X42530500Y-59476269D01*
X42530500Y-57843730D01*
X42547813Y-57796164D01*
X42591650Y-57770854D01*
X42641500Y-57779644D01*
X42670740Y-57810743D01*
X42757871Y-57985725D01*
X42870281Y-58134579D01*
X42883720Y-58152374D01*
X42886912Y-58155284D01*
X43038042Y-58293058D01*
X43215590Y-58402991D01*
X43410316Y-58478428D01*
X43615587Y-58516800D01*
X43824413Y-58516800D01*
X44029684Y-58478428D01*
X44224410Y-58402991D01*
X44401958Y-58293058D01*
X44556282Y-58152372D01*
X44682129Y-57985725D01*
X44775211Y-57798791D01*
X44832359Y-57597936D01*
X44851627Y-57390000D01*
X44832359Y-57182064D01*
X44775211Y-56981209D01*
X44773187Y-56977144D01*
X44760588Y-56951841D01*
X44754884Y-56901545D01*
X44774502Y-56866533D01*
X45133862Y-56507174D01*
X45179740Y-56485782D01*
X45186189Y-56485500D01*
X58088608Y-56485500D01*
X58136174Y-56502813D01*
G37*
G04 #@! TD.AperFunction*
G04 #@! TA.AperFunction,NonConductor*
G36*
X63145211Y-59042813D02*
G01*
X63170521Y-59086650D01*
X63161731Y-59136500D01*
X63147498Y-59154187D01*
X63113235Y-59185420D01*
X63113234Y-59185421D01*
X62990329Y-59348174D01*
X62990328Y-59348177D01*
X62899418Y-59530750D01*
X62899416Y-59530755D01*
X62843602Y-59726917D01*
X62843601Y-59726923D01*
X62837170Y-59796326D01*
X62815542Y-59842091D01*
X62769556Y-59863248D01*
X62720730Y-59849895D01*
X62711160Y-59841823D01*
X62021163Y-59151826D01*
X61999771Y-59105950D01*
X62012872Y-59057055D01*
X62054336Y-59028021D01*
X62073489Y-59025500D01*
X63097645Y-59025500D01*
X63145211Y-59042813D01*
G37*
G04 #@! TD.AperFunction*
G04 #@! TA.AperFunction,NonConductor*
G36*
X58136174Y-59042813D02*
G01*
X58161484Y-59086650D01*
X58152694Y-59136500D01*
X58138462Y-59154186D01*
X58123720Y-59167624D01*
X57997873Y-59334271D01*
X57997871Y-59334273D01*
X57904789Y-59521209D01*
X57904787Y-59521214D01*
X57847641Y-59722062D01*
X57847639Y-59722075D01*
X57828373Y-59929996D01*
X57828373Y-59930003D01*
X57847639Y-60137924D01*
X57847641Y-60137937D01*
X57904041Y-60336164D01*
X57904789Y-60338791D01*
X57927166Y-60383730D01*
X57997871Y-60525726D01*
X57997873Y-60525728D01*
X58123720Y-60692375D01*
X58138462Y-60705814D01*
X58161950Y-60750654D01*
X58151120Y-60800101D01*
X58111040Y-60831018D01*
X58088608Y-60834500D01*
X45026617Y-60834500D01*
X45011432Y-60832925D01*
X44995732Y-60829633D01*
X44958963Y-60834216D01*
X44954385Y-60834500D01*
X44948877Y-60834500D01*
X44926621Y-60838214D01*
X44925110Y-60838434D01*
X44871373Y-60845133D01*
X44865497Y-60846883D01*
X44865418Y-60846618D01*
X44862097Y-60847681D01*
X44862188Y-60847944D01*
X44856389Y-60849935D01*
X44808782Y-60875697D01*
X44807424Y-60876396D01*
X44758785Y-60900175D01*
X44753797Y-60903737D01*
X44753635Y-60903510D01*
X44750836Y-60905597D01*
X44751008Y-60905818D01*
X44746175Y-60909578D01*
X44709504Y-60949412D01*
X44708446Y-60950515D01*
X44242319Y-61416642D01*
X44196443Y-61438034D01*
X44163261Y-61433319D01*
X44029687Y-61381573D01*
X44029686Y-61381572D01*
X44029684Y-61381572D01*
X43939532Y-61364719D01*
X43824416Y-61343200D01*
X43824413Y-61343200D01*
X43615587Y-61343200D01*
X43615583Y-61343200D01*
X43474895Y-61369500D01*
X43410316Y-61381572D01*
X43410314Y-61381572D01*
X43410312Y-61381573D01*
X43304526Y-61422555D01*
X43215590Y-61457009D01*
X43215585Y-61457011D01*
X43215585Y-61457012D01*
X43038044Y-61566940D01*
X42883720Y-61707625D01*
X42757873Y-61874271D01*
X42757871Y-61874273D01*
X42670742Y-62049254D01*
X42634042Y-62084116D01*
X42583519Y-62087232D01*
X42542813Y-62057144D01*
X42530500Y-62016269D01*
X42530500Y-60383730D01*
X42547813Y-60336164D01*
X42591650Y-60310854D01*
X42641500Y-60319644D01*
X42670740Y-60350743D01*
X42757871Y-60525725D01*
X42883718Y-60692372D01*
X43038042Y-60833058D01*
X43215590Y-60942991D01*
X43410316Y-61018428D01*
X43615587Y-61056800D01*
X43824413Y-61056800D01*
X44029684Y-61018428D01*
X44224410Y-60942991D01*
X44401958Y-60833058D01*
X44556282Y-60692372D01*
X44682129Y-60525725D01*
X44775211Y-60338791D01*
X44832359Y-60137936D01*
X44851627Y-59930000D01*
X44832359Y-59722064D01*
X44775211Y-59521209D01*
X44773187Y-59517144D01*
X44760588Y-59491841D01*
X44754884Y-59441545D01*
X44774502Y-59406533D01*
X45133862Y-59047174D01*
X45179740Y-59025782D01*
X45186189Y-59025500D01*
X58088608Y-59025500D01*
X58136174Y-59042813D01*
G37*
G04 #@! TD.AperFunction*
G04 #@! TA.AperFunction,NonConductor*
G36*
X60849676Y-59042813D02*
G01*
X60854436Y-59047174D01*
X63229817Y-61422555D01*
X63239439Y-61434404D01*
X63248215Y-61447836D01*
X63271572Y-61466015D01*
X63298474Y-61508894D01*
X63291520Y-61559033D01*
X63266545Y-61585756D01*
X63266694Y-61585953D01*
X63265566Y-61586804D01*
X63265084Y-61587321D01*
X63263966Y-61588013D01*
X63263963Y-61588015D01*
X63113235Y-61725420D01*
X63113234Y-61725421D01*
X62990329Y-61888174D01*
X62990328Y-61888177D01*
X62899418Y-62070750D01*
X62899416Y-62070755D01*
X62843602Y-62266917D01*
X62843601Y-62266923D01*
X62824785Y-62469996D01*
X62824785Y-62470003D01*
X62843601Y-62673076D01*
X62843602Y-62673082D01*
X62896685Y-62859644D01*
X62899418Y-62869250D01*
X62990327Y-63051821D01*
X62990328Y-63051822D01*
X62990329Y-63051825D01*
X63113234Y-63214578D01*
X63113235Y-63214579D01*
X63125559Y-63225813D01*
X63149048Y-63270652D01*
X63138219Y-63320099D01*
X63098140Y-63351017D01*
X63075706Y-63354500D01*
X62105084Y-63354500D01*
X62057518Y-63337187D01*
X62052758Y-63332826D01*
X59697374Y-60977441D01*
X59687748Y-60965586D01*
X59678981Y-60952166D01*
X59678979Y-60952164D01*
X59675443Y-60949412D01*
X59657818Y-60935693D01*
X59630916Y-60892817D01*
X59637868Y-60842678D01*
X59653415Y-60822613D01*
X59796282Y-60692372D01*
X59922129Y-60525725D01*
X60015211Y-60338791D01*
X60072359Y-60137936D01*
X60091627Y-59930000D01*
X60072359Y-59722064D01*
X60015211Y-59521209D01*
X59922129Y-59334275D01*
X59922128Y-59334274D01*
X59922128Y-59334273D01*
X59922126Y-59334271D01*
X59796279Y-59167624D01*
X59781538Y-59154186D01*
X59758050Y-59109346D01*
X59768880Y-59059899D01*
X59808960Y-59028982D01*
X59831392Y-59025500D01*
X60802110Y-59025500D01*
X60849676Y-59042813D01*
G37*
G04 #@! TD.AperFunction*
G04 #@! TA.AperFunction,NonConductor*
G36*
X40347560Y-69946509D02*
G01*
X40371474Y-69962511D01*
X40372826Y-69963863D01*
X40394218Y-70009739D01*
X40394500Y-70016189D01*
X40394500Y-71001953D01*
X40377187Y-71049519D01*
X40333350Y-71074829D01*
X40283500Y-71066039D01*
X40250963Y-71027262D01*
X40246689Y-71007232D01*
X40245578Y-70991708D01*
X40245387Y-70990829D01*
X40186271Y-70719077D01*
X40186267Y-70719067D01*
X40186266Y-70719062D01*
X40088771Y-70457666D01*
X39955055Y-70212784D01*
X39862276Y-70088846D01*
X39847630Y-70040393D01*
X39867556Y-69993861D01*
X39912731Y-69971023D01*
X39921516Y-69970500D01*
X40110741Y-69970500D01*
X40110742Y-69970500D01*
X40160341Y-69965456D01*
X40262434Y-69955075D01*
X40262436Y-69955074D01*
X40262438Y-69955074D01*
X40296994Y-69944231D01*
X40347560Y-69946509D01*
G37*
G04 #@! TD.AperFunction*
G04 #@! TA.AperFunction,NonConductor*
G36*
X40361977Y-71476763D02*
G01*
X40391666Y-71517762D01*
X40394500Y-71538046D01*
X40394500Y-72504809D01*
X40377187Y-72552375D01*
X40372826Y-72557135D01*
X40345529Y-72584432D01*
X40299653Y-72605824D01*
X40278307Y-72604591D01*
X40136748Y-72575500D01*
X40136741Y-72575500D01*
X39917024Y-72575500D01*
X39869458Y-72558187D01*
X39844148Y-72514350D01*
X39852938Y-72464500D01*
X39857784Y-72457153D01*
X39955056Y-72327213D01*
X40088769Y-72082337D01*
X40088769Y-72082335D01*
X40088771Y-72082333D01*
X40186266Y-71820937D01*
X40186266Y-71820934D01*
X40186271Y-71820923D01*
X40245578Y-71548294D01*
X40246485Y-71535613D01*
X40246689Y-71532767D01*
X40267350Y-71486557D01*
X40312881Y-71464439D01*
X40361977Y-71476763D01*
G37*
G04 #@! TD.AperFunction*
M02*
