G04 #@! TF.GenerationSoftware,KiCad,Pcbnew,7.0.5*
G04 #@! TF.CreationDate,2023-08-20T01:56:51+08:00*
G04 #@! TF.ProjectId,handwire microboard,68616e64-7769-4726-9520-6d6963726f62,rev?*
G04 #@! TF.SameCoordinates,Original*
G04 #@! TF.FileFunction,Copper,L2,Bot*
G04 #@! TF.FilePolarity,Positive*
%FSLAX46Y46*%
G04 Gerber Fmt 4.6, Leading zero omitted, Abs format (unit mm)*
G04 Created by KiCad (PCBNEW 7.0.5) date 2023-08-20 01:56:51*
%MOMM*%
%LPD*%
G01*
G04 APERTURE LIST*
G04 Aperture macros list*
%AMRoundRect*
0 Rectangle with rounded corners*
0 $1 Rounding radius*
0 $2 $3 $4 $5 $6 $7 $8 $9 X,Y pos of 4 corners*
0 Add a 4 corners polygon primitive as box body*
4,1,4,$2,$3,$4,$5,$6,$7,$8,$9,$2,$3,0*
0 Add four circle primitives for the rounded corners*
1,1,$1+$1,$2,$3*
1,1,$1+$1,$4,$5*
1,1,$1+$1,$6,$7*
1,1,$1+$1,$8,$9*
0 Add four rect primitives between the rounded corners*
20,1,$1+$1,$2,$3,$4,$5,0*
20,1,$1+$1,$4,$5,$6,$7,0*
20,1,$1+$1,$6,$7,$8,$9,0*
20,1,$1+$1,$8,$9,$2,$3,0*%
%AMOutline4P*
0 Free polygon, 4 corners , with rotation*
0 The origin of the aperture is its center*
0 number of corners: always 4*
0 $1 to $8 corner X, Y*
0 $9 Rotation angle, in degrees counterclockwise*
0 create outline with 4 corners*
4,1,4,$1,$2,$3,$4,$5,$6,$7,$8,$1,$2,$9*%
G04 Aperture macros list end*
G04 #@! TA.AperFunction,ComponentPad*
%ADD10O,3.029000X1.576000*%
G04 #@! TD*
G04 #@! TA.AperFunction,ComponentPad*
%ADD11O,1.800000X1.500000*%
G04 #@! TD*
G04 #@! TA.AperFunction,ComponentPad*
%ADD12C,2.000000*%
G04 #@! TD*
G04 #@! TA.AperFunction,ComponentPad*
%ADD13C,1.752600*%
G04 #@! TD*
G04 #@! TA.AperFunction,ComponentPad*
%ADD14RoundRect,0.438150X-0.438150X0.438150X-0.438150X-0.438150X0.438150X-0.438150X0.438150X0.438150X0*%
G04 #@! TD*
G04 #@! TA.AperFunction,ComponentPad*
%ADD15Outline4P,-0.876300X-0.876300X0.876300X-0.876300X0.876300X0.876300X-0.876300X0.876300X270.000000*%
G04 #@! TD*
G04 #@! TA.AperFunction,ComponentPad*
%ADD16C,1.700000*%
G04 #@! TD*
G04 #@! TA.AperFunction,ComponentPad*
%ADD17O,1.700000X1.700000*%
G04 #@! TD*
G04 #@! TA.AperFunction,ComponentPad*
%ADD18O,1.576000X3.029000*%
G04 #@! TD*
G04 #@! TA.AperFunction,ComponentPad*
%ADD19O,1.500000X1.800000*%
G04 #@! TD*
G04 #@! TA.AperFunction,ComponentPad*
%ADD20RoundRect,0.425000X0.425000X-0.425000X0.425000X0.425000X-0.425000X0.425000X-0.425000X-0.425000X0*%
G04 #@! TD*
G04 #@! TA.AperFunction,ViaPad*
%ADD21C,0.800000*%
G04 #@! TD*
G04 #@! TA.AperFunction,Conductor*
%ADD22C,0.250000*%
G04 #@! TD*
G04 APERTURE END LIST*
D10*
X31050000Y-63576000D03*
X31055000Y-58970000D03*
D11*
X26478000Y-63576000D03*
X26455000Y-58970000D03*
X23430000Y-63576000D03*
X23455000Y-58970000D03*
D12*
X35865000Y-59180000D03*
X42365000Y-59180000D03*
X35865000Y-63680000D03*
X42365000Y-63680000D03*
D13*
X27265000Y-24530000D03*
X27265000Y-27070000D03*
D14*
X27265000Y-29610000D03*
X27265000Y-32150000D03*
D13*
X27265000Y-34690000D03*
X27265000Y-37230000D03*
X27265000Y-39770000D03*
X27265000Y-42310000D03*
X27265000Y-44850000D03*
X27265000Y-47390000D03*
X27265000Y-49930000D03*
X27265000Y-52470000D03*
X42505000Y-52470000D03*
X42505000Y-49930000D03*
X42505000Y-47390000D03*
X42505000Y-44850000D03*
X42505000Y-42310000D03*
X42505000Y-39770000D03*
X42505000Y-37230000D03*
X42505000Y-34690000D03*
D15*
X42505000Y-32150000D03*
D13*
X42505000Y-29610000D03*
D14*
X42505000Y-27070000D03*
D13*
X42505000Y-24530000D03*
X29805000Y-52470000D03*
X32345000Y-52470000D03*
X34885000Y-52470000D03*
X37425000Y-52470000D03*
X39965000Y-52470000D03*
D16*
X19795000Y-34690000D03*
D17*
X19795000Y-37230000D03*
X19795000Y-39770000D03*
X19795000Y-42310000D03*
X19795000Y-44850000D03*
X19795000Y-47390000D03*
X19795000Y-49930000D03*
X19795000Y-52470000D03*
X19795000Y-55010000D03*
X22335000Y-34690000D03*
X22335000Y-37230000D03*
X22335000Y-39770000D03*
X22335000Y-42310000D03*
X22335000Y-44850000D03*
X22335000Y-47390000D03*
X22335000Y-49930000D03*
X22335000Y-52470000D03*
X22335000Y-55010000D03*
X50015000Y-34690000D03*
X50015000Y-37230000D03*
X50015000Y-39770000D03*
X50015000Y-42310000D03*
X50015000Y-44850000D03*
X50015000Y-47390000D03*
X50015000Y-49930000D03*
X50015000Y-52470000D03*
X50015000Y-55010000D03*
D16*
X47475000Y-34690000D03*
D17*
X47475000Y-37230000D03*
X47475000Y-39770000D03*
X47475000Y-42310000D03*
X47475000Y-44850000D03*
X47475000Y-47390000D03*
X47475000Y-49930000D03*
X47475000Y-52470000D03*
X47475000Y-55010000D03*
D18*
X45629000Y-31158500D03*
X50235000Y-31163500D03*
D19*
X45629000Y-26586500D03*
X50235000Y-26563500D03*
X45629000Y-23538500D03*
X50235000Y-23563500D03*
D20*
X27250000Y-55820000D03*
D17*
X29790000Y-55820000D03*
X32330000Y-55820000D03*
X34870000Y-55820000D03*
X37410000Y-55820000D03*
X39950000Y-55820000D03*
D20*
X42490000Y-55820000D03*
D21*
X24975000Y-32180000D03*
X33695000Y-58650000D03*
X24205000Y-56020000D03*
X38365000Y-32640000D03*
X24955850Y-57754819D03*
X24975000Y-35235500D03*
D22*
X43844000Y-51210000D02*
X28525000Y-51210000D01*
X50015000Y-55010000D02*
X48735000Y-53730000D01*
X28525000Y-51210000D02*
X27265000Y-52470000D01*
X48735000Y-53730000D02*
X46364000Y-53730000D01*
X46364000Y-53730000D02*
X43844000Y-51210000D01*
X43824000Y-48650000D02*
X46364000Y-51190000D01*
X27265000Y-49930000D02*
X28545000Y-48650000D01*
X48735000Y-51190000D02*
X50015000Y-52470000D01*
X28545000Y-48650000D02*
X43824000Y-48650000D01*
X46364000Y-51190000D02*
X48735000Y-51190000D01*
X28545000Y-46110000D02*
X27265000Y-47390000D01*
X46364000Y-48650000D02*
X43824000Y-46110000D01*
X50015000Y-49930000D02*
X48735000Y-48650000D01*
X43824000Y-46110000D02*
X28545000Y-46110000D01*
X48735000Y-48650000D02*
X46364000Y-48650000D01*
X27265000Y-44850000D02*
X28545000Y-43570000D01*
X48735000Y-46110000D02*
X50015000Y-47390000D01*
X28545000Y-43570000D02*
X43697000Y-43570000D01*
X46237000Y-46110000D02*
X48735000Y-46110000D01*
X43697000Y-43570000D02*
X46237000Y-46110000D01*
X46368447Y-43580000D02*
X43808447Y-41020000D01*
X43808447Y-41020000D02*
X28555000Y-41020000D01*
X48745000Y-43580000D02*
X46368447Y-43580000D01*
X28555000Y-41020000D02*
X27265000Y-42310000D01*
X50015000Y-44850000D02*
X48745000Y-43580000D01*
X27265000Y-39770000D02*
X28545000Y-38490000D01*
X46374000Y-41040000D02*
X48745000Y-41040000D01*
X48745000Y-41040000D02*
X50015000Y-42310000D01*
X28545000Y-38490000D02*
X43824000Y-38490000D01*
X43824000Y-38490000D02*
X46374000Y-41040000D01*
X48745000Y-38500000D02*
X46374000Y-38500000D01*
X46374000Y-38500000D02*
X43824000Y-35950000D01*
X50015000Y-39770000D02*
X48745000Y-38500000D01*
X28545000Y-35950000D02*
X27265000Y-37230000D01*
X43824000Y-35950000D02*
X28545000Y-35950000D01*
X47475000Y-30140000D02*
X45695000Y-28360000D01*
X31095000Y-28360000D02*
X27265000Y-24530000D01*
X45695000Y-28360000D02*
X31095000Y-28360000D01*
X27265000Y-24530000D02*
X22335000Y-29460000D01*
X47475000Y-34690000D02*
X47475000Y-30140000D01*
X22335000Y-29460000D02*
X22335000Y-34690000D01*
X28565000Y-33400000D02*
X43687000Y-33400000D01*
X43434000Y-33400000D02*
X43687000Y-33400000D01*
X43814000Y-33400000D02*
X46354000Y-35940000D01*
X27265000Y-34690000D02*
X28535000Y-33420000D01*
X43687000Y-33400000D02*
X43814000Y-33400000D01*
X48725000Y-35940000D02*
X50015000Y-37230000D01*
X46354000Y-35940000D02*
X48725000Y-35940000D01*
X29805000Y-52470000D02*
X29805000Y-55805000D01*
X29805000Y-55805000D02*
X29790000Y-55820000D01*
X32345000Y-55805000D02*
X32330000Y-55820000D01*
X32345000Y-52470000D02*
X32345000Y-55805000D01*
X34885000Y-55805000D02*
X34870000Y-55820000D01*
X34885000Y-52470000D02*
X34885000Y-55805000D01*
X37425000Y-52470000D02*
X37425000Y-55805000D01*
X37425000Y-55805000D02*
X37410000Y-55820000D01*
X39950000Y-55820000D02*
X39950000Y-52485000D01*
X39950000Y-52485000D02*
X39965000Y-52470000D01*
X26455000Y-63533000D02*
X26478000Y-63556000D01*
X26478000Y-63510000D02*
X26455000Y-63533000D01*
X26455000Y-56615000D02*
X27250000Y-55820000D01*
X25700000Y-33715000D02*
X25700000Y-54270000D01*
X26455000Y-58970000D02*
X26478000Y-58993000D01*
X26455000Y-58970000D02*
X26455000Y-56615000D01*
X26478000Y-58993000D02*
X26478000Y-63510000D01*
X42490000Y-59055000D02*
X42365000Y-59180000D01*
X27265000Y-32150000D02*
X25700000Y-33715000D01*
X25700000Y-54270000D02*
X27250000Y-55820000D01*
X42490000Y-55820000D02*
X42490000Y-59055000D01*
X27265000Y-29610000D02*
X27265000Y-32150000D01*
X24985000Y-32180000D02*
X24205000Y-32960000D01*
X24205000Y-32960000D02*
X24205000Y-56020000D01*
X33695000Y-61510000D02*
X35865000Y-63680000D01*
X33695000Y-58650000D02*
X33695000Y-61510000D01*
X19795000Y-34690000D02*
X21065000Y-35960000D01*
X23455000Y-58970000D02*
X24390000Y-59905000D01*
X23475000Y-63531000D02*
X23455000Y-63531000D01*
X23455000Y-63531000D02*
X23430000Y-63556000D01*
X27265000Y-27070000D02*
X32835000Y-32640000D01*
X48915000Y-33590000D02*
X48915000Y-26804500D01*
X50015000Y-34690000D02*
X48915000Y-33590000D01*
X21065000Y-35960000D02*
X21065000Y-56580000D01*
X32835000Y-32640000D02*
X38365000Y-32640000D01*
X24390000Y-62616000D02*
X23475000Y-63531000D01*
X21065000Y-56580000D02*
X23455000Y-58970000D01*
X48915000Y-26804500D02*
X45649000Y-23538500D01*
X24390000Y-59905000D02*
X24390000Y-62616000D01*
X24975000Y-35235500D02*
X24975000Y-57735669D01*
X31055000Y-63565000D02*
X31050000Y-63570000D01*
X31055000Y-58970000D02*
X31055000Y-63565000D01*
X24975000Y-57735669D02*
X24955850Y-57754819D01*
G04 #@! TA.AperFunction,NonConductor*
G36*
X51178031Y-17964299D02*
G01*
X51185641Y-17965048D01*
X51210293Y-17967476D01*
X51320730Y-17979919D01*
X51342829Y-17984477D01*
X51394823Y-18000249D01*
X51397282Y-18001053D01*
X51475132Y-18028294D01*
X51492607Y-18035967D01*
X51545933Y-18064470D01*
X51549641Y-18066623D01*
X51611057Y-18105212D01*
X51619257Y-18110365D01*
X51625609Y-18114939D01*
X51677264Y-18157331D01*
X51681765Y-18161410D01*
X51739087Y-18218732D01*
X51743167Y-18223234D01*
X51785559Y-18274889D01*
X51790133Y-18281241D01*
X51833862Y-18350834D01*
X51836039Y-18354585D01*
X51841244Y-18364321D01*
X51864528Y-18407884D01*
X51872211Y-18425382D01*
X51899444Y-18503213D01*
X51900254Y-18505691D01*
X51916020Y-18557664D01*
X51920580Y-18579777D01*
X51933022Y-18690203D01*
X51936201Y-18722468D01*
X51936500Y-18728550D01*
X51936500Y-64516780D01*
X51936167Y-64523197D01*
X51932814Y-64555444D01*
X51919915Y-64664699D01*
X51915234Y-64686796D01*
X51899150Y-64738806D01*
X51898327Y-64741282D01*
X51871014Y-64818003D01*
X51863237Y-64835459D01*
X51834477Y-64888571D01*
X51832274Y-64892320D01*
X51788628Y-64960954D01*
X51784019Y-64967282D01*
X51741407Y-65018636D01*
X51737294Y-65023124D01*
X51680261Y-65079545D01*
X51675727Y-65083609D01*
X51623901Y-65125674D01*
X51617524Y-65130214D01*
X51548450Y-65173098D01*
X51544676Y-65175262D01*
X51491235Y-65203455D01*
X51473695Y-65211044D01*
X51396702Y-65237518D01*
X51394219Y-65238313D01*
X51342011Y-65253843D01*
X51319874Y-65258284D01*
X51211332Y-65269919D01*
X51177906Y-65273029D01*
X51171787Y-65273295D01*
X51126120Y-65273022D01*
X51123355Y-65273315D01*
X43063138Y-65273315D01*
X42996099Y-65253630D01*
X42950344Y-65200826D01*
X42940400Y-65131668D01*
X42969425Y-65068112D01*
X43004121Y-65040260D01*
X43138972Y-64967282D01*
X43188509Y-64940474D01*
X43384744Y-64787738D01*
X43553164Y-64604785D01*
X43689173Y-64396607D01*
X43789063Y-64168881D01*
X43850108Y-63927821D01*
X43856110Y-63855387D01*
X43870643Y-63680005D01*
X43870643Y-63679994D01*
X43850109Y-63432187D01*
X43850107Y-63432175D01*
X43789063Y-63191118D01*
X43689173Y-62963393D01*
X43553166Y-62755217D01*
X43510007Y-62708334D01*
X43384744Y-62572262D01*
X43188509Y-62419526D01*
X43188507Y-62419525D01*
X43188506Y-62419524D01*
X42969811Y-62301172D01*
X42969802Y-62301169D01*
X42734616Y-62220429D01*
X42489335Y-62179500D01*
X42240665Y-62179500D01*
X41995383Y-62220429D01*
X41760197Y-62301169D01*
X41760188Y-62301172D01*
X41541493Y-62419524D01*
X41345257Y-62572261D01*
X41176833Y-62755217D01*
X41040826Y-62963393D01*
X40940936Y-63191118D01*
X40879892Y-63432175D01*
X40879890Y-63432187D01*
X40859357Y-63679994D01*
X40859357Y-63680005D01*
X40879890Y-63927812D01*
X40879892Y-63927824D01*
X40940936Y-64168881D01*
X41040826Y-64396606D01*
X41176833Y-64604782D01*
X41176836Y-64604785D01*
X41345256Y-64787738D01*
X41541491Y-64940474D01*
X41541494Y-64940476D01*
X41541496Y-64940477D01*
X41725879Y-65040260D01*
X41775470Y-65089480D01*
X41790578Y-65157696D01*
X41766408Y-65223252D01*
X41710632Y-65265333D01*
X41666862Y-65273315D01*
X36563138Y-65273315D01*
X36496099Y-65253630D01*
X36450344Y-65200826D01*
X36440400Y-65131668D01*
X36469425Y-65068112D01*
X36504121Y-65040260D01*
X36638972Y-64967282D01*
X36688509Y-64940474D01*
X36884744Y-64787738D01*
X37053164Y-64604785D01*
X37189173Y-64396607D01*
X37289063Y-64168881D01*
X37350108Y-63927821D01*
X37356110Y-63855387D01*
X37370643Y-63680005D01*
X37370643Y-63679994D01*
X37350109Y-63432187D01*
X37350107Y-63432175D01*
X37289063Y-63191118D01*
X37189173Y-62963393D01*
X37053166Y-62755217D01*
X37010007Y-62708334D01*
X36884744Y-62572262D01*
X36688509Y-62419526D01*
X36688507Y-62419525D01*
X36688506Y-62419524D01*
X36469811Y-62301172D01*
X36469802Y-62301169D01*
X36234616Y-62220429D01*
X35989335Y-62179500D01*
X35740665Y-62179500D01*
X35495386Y-62220428D01*
X35415713Y-62247780D01*
X35345914Y-62250929D01*
X35287770Y-62218179D01*
X34356819Y-61287228D01*
X34347412Y-61270001D01*
X45979518Y-61270001D01*
X45999422Y-61548299D01*
X46058727Y-61820916D01*
X46058729Y-61820923D01*
X46092169Y-61910580D01*
X46156231Y-62082338D01*
X46156233Y-62082342D01*
X46289940Y-62327207D01*
X46289945Y-62327215D01*
X46457138Y-62550560D01*
X46457154Y-62550578D01*
X46654421Y-62747845D01*
X46654439Y-62747861D01*
X46877784Y-62915054D01*
X46877792Y-62915059D01*
X47122657Y-63048766D01*
X47122661Y-63048768D01*
X47122663Y-63048769D01*
X47384077Y-63146271D01*
X47457536Y-63162251D01*
X47656700Y-63205577D01*
X47656702Y-63205577D01*
X47656706Y-63205578D01*
X47865343Y-63220500D01*
X48004657Y-63220500D01*
X48213294Y-63205578D01*
X48485923Y-63146271D01*
X48747337Y-63048769D01*
X48992213Y-62915056D01*
X49215568Y-62747855D01*
X49412855Y-62550568D01*
X49580056Y-62327213D01*
X49713769Y-62082337D01*
X49811271Y-61820923D01*
X49870578Y-61548294D01*
X49890482Y-61270000D01*
X49870578Y-60991706D01*
X49870387Y-60990829D01*
X49840200Y-60852059D01*
X49811271Y-60719077D01*
X49713769Y-60457663D01*
X49644599Y-60330989D01*
X49580059Y-60212792D01*
X49580054Y-60212784D01*
X49412861Y-59989439D01*
X49412845Y-59989421D01*
X49215578Y-59792154D01*
X49215560Y-59792138D01*
X48992215Y-59624945D01*
X48992207Y-59624940D01*
X48747342Y-59491233D01*
X48747338Y-59491231D01*
X48614933Y-59441847D01*
X48485923Y-59393729D01*
X48485919Y-59393728D01*
X48485916Y-59393727D01*
X48213299Y-59334422D01*
X48004659Y-59319500D01*
X48004657Y-59319500D01*
X47865343Y-59319500D01*
X47865340Y-59319500D01*
X47656700Y-59334422D01*
X47384083Y-59393727D01*
X47384078Y-59393728D01*
X47384077Y-59393729D01*
X47345560Y-59408095D01*
X47122661Y-59491231D01*
X47122657Y-59491233D01*
X46877792Y-59624940D01*
X46877784Y-59624945D01*
X46654439Y-59792138D01*
X46654421Y-59792154D01*
X46457154Y-59989421D01*
X46457138Y-59989439D01*
X46289945Y-60212784D01*
X46289940Y-60212792D01*
X46156233Y-60457657D01*
X46156231Y-60457661D01*
X46095869Y-60619500D01*
X46067549Y-60695431D01*
X46058727Y-60719083D01*
X45999422Y-60991700D01*
X45979518Y-61269998D01*
X45979518Y-61270001D01*
X34347412Y-61270001D01*
X34323334Y-61225905D01*
X34320500Y-61199547D01*
X34320500Y-59975880D01*
X34340185Y-59908841D01*
X34392989Y-59863086D01*
X34462147Y-59853142D01*
X34525703Y-59882167D01*
X34548309Y-59908059D01*
X34676833Y-60104782D01*
X34676836Y-60104785D01*
X34845256Y-60287738D01*
X35041491Y-60440474D01*
X35260190Y-60558828D01*
X35495386Y-60639571D01*
X35740665Y-60680500D01*
X35989335Y-60680500D01*
X36234614Y-60639571D01*
X36469810Y-60558828D01*
X36688509Y-60440474D01*
X36884744Y-60287738D01*
X37053164Y-60104785D01*
X37189173Y-59896607D01*
X37289063Y-59668881D01*
X37350108Y-59427821D01*
X37351388Y-59412376D01*
X37370643Y-59180005D01*
X37370643Y-59179994D01*
X37350109Y-58932187D01*
X37350107Y-58932175D01*
X37289063Y-58691118D01*
X37189173Y-58463393D01*
X37053166Y-58255217D01*
X36970288Y-58165188D01*
X36884744Y-58072262D01*
X36688509Y-57919526D01*
X36688507Y-57919525D01*
X36688506Y-57919524D01*
X36469811Y-57801172D01*
X36469802Y-57801169D01*
X36234616Y-57720429D01*
X35989335Y-57679500D01*
X35740665Y-57679500D01*
X35495383Y-57720429D01*
X35260197Y-57801169D01*
X35260188Y-57801172D01*
X35041493Y-57919524D01*
X34845255Y-58072262D01*
X34845252Y-58072265D01*
X34686648Y-58244554D01*
X34626761Y-58280545D01*
X34556923Y-58278444D01*
X34499307Y-58238920D01*
X34488032Y-58222571D01*
X34427534Y-58117785D01*
X34300870Y-57977111D01*
X34147734Y-57865851D01*
X34147729Y-57865848D01*
X33974807Y-57788857D01*
X33974802Y-57788855D01*
X33797286Y-57751124D01*
X33789646Y-57749500D01*
X33600354Y-57749500D01*
X33592714Y-57751124D01*
X33415197Y-57788855D01*
X33415192Y-57788857D01*
X33242270Y-57865848D01*
X33242265Y-57865851D01*
X33089129Y-57977111D01*
X32962459Y-58117792D01*
X32959018Y-58122528D01*
X32903683Y-58165188D01*
X32834069Y-58171158D01*
X32772278Y-58138545D01*
X32771028Y-58137312D01*
X32612898Y-57979182D01*
X32428211Y-57849864D01*
X32428209Y-57849863D01*
X32348703Y-57812789D01*
X32223876Y-57754581D01*
X32223872Y-57754580D01*
X32223868Y-57754578D01*
X32006105Y-57696229D01*
X32006095Y-57696227D01*
X31837760Y-57681500D01*
X31837759Y-57681500D01*
X30272241Y-57681500D01*
X30272240Y-57681500D01*
X30103904Y-57696227D01*
X30103894Y-57696229D01*
X29886131Y-57754578D01*
X29886122Y-57754582D01*
X29681790Y-57849863D01*
X29681788Y-57849864D01*
X29497101Y-57979182D01*
X29337682Y-58138601D01*
X29208364Y-58323288D01*
X29208363Y-58323290D01*
X29113082Y-58527622D01*
X29113078Y-58527631D01*
X29054729Y-58745394D01*
X29054727Y-58745405D01*
X29035078Y-58969998D01*
X29035078Y-58970001D01*
X29054727Y-59194594D01*
X29054729Y-59194605D01*
X29113078Y-59412368D01*
X29113080Y-59412372D01*
X29113081Y-59412376D01*
X29182480Y-59561203D01*
X29208363Y-59616709D01*
X29208364Y-59616711D01*
X29337682Y-59801398D01*
X29497101Y-59960817D01*
X29513208Y-59972095D01*
X29681789Y-60090136D01*
X29886124Y-60185419D01*
X30103900Y-60243772D01*
X30272239Y-60258499D01*
X30272240Y-60258500D01*
X30272241Y-60258500D01*
X30305500Y-60258500D01*
X30372539Y-60278185D01*
X30418294Y-60330989D01*
X30429500Y-60382500D01*
X30429500Y-62163500D01*
X30409815Y-62230539D01*
X30357011Y-62276294D01*
X30305500Y-62287500D01*
X30267240Y-62287500D01*
X30098904Y-62302227D01*
X30098894Y-62302229D01*
X29881131Y-62360578D01*
X29881122Y-62360582D01*
X29676790Y-62455863D01*
X29676788Y-62455864D01*
X29492101Y-62585182D01*
X29332682Y-62744601D01*
X29203364Y-62929288D01*
X29203363Y-62929290D01*
X29108082Y-63133622D01*
X29108078Y-63133631D01*
X29049729Y-63351394D01*
X29049727Y-63351405D01*
X29030078Y-63575998D01*
X29030078Y-63576001D01*
X29049727Y-63800594D01*
X29049729Y-63800605D01*
X29108078Y-64018368D01*
X29108080Y-64018372D01*
X29108081Y-64018376D01*
X29178263Y-64168881D01*
X29203363Y-64222709D01*
X29203364Y-64222711D01*
X29332682Y-64407398D01*
X29492101Y-64566817D01*
X29492104Y-64566819D01*
X29676789Y-64696136D01*
X29881124Y-64791419D01*
X30098900Y-64849772D01*
X30267239Y-64864499D01*
X30267240Y-64864500D01*
X30267241Y-64864500D01*
X31832760Y-64864500D01*
X31832760Y-64864499D01*
X32001100Y-64849772D01*
X32218876Y-64791419D01*
X32423211Y-64696136D01*
X32607896Y-64566819D01*
X32767319Y-64407396D01*
X32896636Y-64222711D01*
X32991919Y-64018376D01*
X33050272Y-63800600D01*
X33069922Y-63576000D01*
X33050272Y-63351400D01*
X32991919Y-63133624D01*
X32896636Y-62929289D01*
X32767319Y-62744604D01*
X32767317Y-62744601D01*
X32607898Y-62585182D01*
X32423211Y-62455864D01*
X32423209Y-62455863D01*
X32345284Y-62419526D01*
X32218876Y-62360581D01*
X32218872Y-62360580D01*
X32218868Y-62360578D01*
X32001105Y-62302229D01*
X32001095Y-62302227D01*
X31832760Y-62287500D01*
X31832759Y-62287500D01*
X31804500Y-62287500D01*
X31737461Y-62267815D01*
X31691706Y-62215011D01*
X31680500Y-62163500D01*
X31680500Y-60382500D01*
X31700185Y-60315461D01*
X31752989Y-60269706D01*
X31804500Y-60258500D01*
X31837760Y-60258500D01*
X31837760Y-60258499D01*
X32006100Y-60243772D01*
X32223876Y-60185419D01*
X32428211Y-60090136D01*
X32612896Y-59960819D01*
X32772319Y-59801396D01*
X32843926Y-59699129D01*
X32898500Y-59655506D01*
X32967998Y-59648312D01*
X33030353Y-59679834D01*
X33065768Y-59740063D01*
X33069499Y-59770254D01*
X33069500Y-61427255D01*
X33067775Y-61442872D01*
X33068061Y-61442899D01*
X33067326Y-61450666D01*
X33069469Y-61518846D01*
X33069500Y-61520793D01*
X33069500Y-61549343D01*
X33069501Y-61549360D01*
X33070368Y-61556231D01*
X33070826Y-61562050D01*
X33072290Y-61608624D01*
X33072291Y-61608627D01*
X33077880Y-61627867D01*
X33081824Y-61646911D01*
X33084336Y-61666792D01*
X33092709Y-61687940D01*
X33101490Y-61710119D01*
X33103382Y-61715647D01*
X33116381Y-61760388D01*
X33126580Y-61777634D01*
X33135138Y-61795103D01*
X33142514Y-61813732D01*
X33169898Y-61851423D01*
X33173106Y-61856307D01*
X33196827Y-61896416D01*
X33196833Y-61896424D01*
X33210990Y-61910580D01*
X33223628Y-61925376D01*
X33235405Y-61941586D01*
X33235406Y-61941587D01*
X33271309Y-61971288D01*
X33275620Y-61975210D01*
X33850970Y-62550560D01*
X34401338Y-63100928D01*
X34434823Y-63162251D01*
X34433863Y-63219049D01*
X34379892Y-63432174D01*
X34379890Y-63432187D01*
X34359357Y-63679994D01*
X34359357Y-63680005D01*
X34379890Y-63927812D01*
X34379892Y-63927824D01*
X34440936Y-64168881D01*
X34540826Y-64396606D01*
X34676833Y-64604782D01*
X34676836Y-64604785D01*
X34845256Y-64787738D01*
X35041491Y-64940474D01*
X35041494Y-64940476D01*
X35041496Y-64940477D01*
X35225879Y-65040260D01*
X35275470Y-65089480D01*
X35290578Y-65157696D01*
X35266408Y-65223252D01*
X35210632Y-65265333D01*
X35166862Y-65273315D01*
X18619860Y-65273315D01*
X18613779Y-65273016D01*
X18612167Y-65272857D01*
X18581759Y-65269862D01*
X18470630Y-65257333D01*
X18448529Y-65252775D01*
X18396853Y-65237100D01*
X18394373Y-65236291D01*
X18315860Y-65208819D01*
X18298363Y-65201136D01*
X18245209Y-65172726D01*
X18241448Y-65170543D01*
X18171389Y-65126523D01*
X18165036Y-65121948D01*
X18113470Y-65079630D01*
X18108960Y-65075542D01*
X18051266Y-65017850D01*
X18047177Y-65013339D01*
X18004857Y-64961773D01*
X18000291Y-64955432D01*
X17956250Y-64885342D01*
X17954076Y-64881596D01*
X17944938Y-64864500D01*
X17925669Y-64828451D01*
X17917988Y-64810956D01*
X17890505Y-64732416D01*
X17889704Y-64729964D01*
X17874028Y-64678289D01*
X17869472Y-64656194D01*
X17856851Y-64544183D01*
X17853797Y-64513180D01*
X17853500Y-64507112D01*
X17853500Y-55010000D01*
X18439341Y-55010000D01*
X18459936Y-55245403D01*
X18459938Y-55245413D01*
X18521094Y-55473655D01*
X18521096Y-55473659D01*
X18521097Y-55473663D01*
X18525000Y-55482032D01*
X18620965Y-55687830D01*
X18620967Y-55687834D01*
X18729281Y-55842521D01*
X18756505Y-55881401D01*
X18923599Y-56048495D01*
X18974607Y-56084211D01*
X19117165Y-56184032D01*
X19117167Y-56184033D01*
X19117170Y-56184035D01*
X19331337Y-56283903D01*
X19559592Y-56345063D01*
X19747918Y-56361539D01*
X19794999Y-56365659D01*
X19795000Y-56365659D01*
X19795001Y-56365659D01*
X19834234Y-56362226D01*
X20030408Y-56345063D01*
X20258663Y-56283903D01*
X20263093Y-56281837D01*
X20332171Y-56271344D01*
X20395955Y-56299863D01*
X20434196Y-56358339D01*
X20439500Y-56394218D01*
X20439500Y-56497255D01*
X20437775Y-56512872D01*
X20438061Y-56512899D01*
X20437326Y-56520666D01*
X20439469Y-56588846D01*
X20439500Y-56590793D01*
X20439500Y-56619343D01*
X20439501Y-56619360D01*
X20440368Y-56626231D01*
X20440826Y-56632050D01*
X20442290Y-56678624D01*
X20442291Y-56678627D01*
X20447880Y-56697867D01*
X20451824Y-56716911D01*
X20454336Y-56736791D01*
X20471490Y-56780119D01*
X20473382Y-56785647D01*
X20486381Y-56830388D01*
X20496580Y-56847634D01*
X20505136Y-56865100D01*
X20511489Y-56881144D01*
X20512514Y-56883732D01*
X20539898Y-56921423D01*
X20543106Y-56926307D01*
X20566827Y-56966416D01*
X20566833Y-56966424D01*
X20580990Y-56980580D01*
X20593628Y-56995376D01*
X20605405Y-57011586D01*
X20605406Y-57011587D01*
X20641309Y-57041288D01*
X20645620Y-57045210D01*
X21365772Y-57765362D01*
X22075728Y-58475318D01*
X22109213Y-58536641D01*
X22108938Y-58590591D01*
X22060810Y-58801457D01*
X22060808Y-58801468D01*
X22050710Y-59026325D01*
X22050710Y-59026330D01*
X22071526Y-59180000D01*
X22071561Y-59180256D01*
X22061053Y-59249331D01*
X22014869Y-59301760D01*
X21947671Y-59320897D01*
X21939841Y-59320585D01*
X21924669Y-59319500D01*
X21924657Y-59319500D01*
X21785343Y-59319500D01*
X21785340Y-59319500D01*
X21576700Y-59334422D01*
X21304083Y-59393727D01*
X21304078Y-59393728D01*
X21304077Y-59393729D01*
X21265560Y-59408095D01*
X21042661Y-59491231D01*
X21042657Y-59491233D01*
X20797792Y-59624940D01*
X20797784Y-59624945D01*
X20574439Y-59792138D01*
X20574421Y-59792154D01*
X20377154Y-59989421D01*
X20377138Y-59989439D01*
X20209945Y-60212784D01*
X20209940Y-60212792D01*
X20076233Y-60457657D01*
X20076231Y-60457661D01*
X20015869Y-60619500D01*
X19987549Y-60695431D01*
X19978727Y-60719083D01*
X19919422Y-60991700D01*
X19899518Y-61269998D01*
X19899518Y-61270001D01*
X19919422Y-61548299D01*
X19978727Y-61820916D01*
X19978729Y-61820923D01*
X20012169Y-61910580D01*
X20076231Y-62082338D01*
X20076233Y-62082342D01*
X20209940Y-62327207D01*
X20209945Y-62327215D01*
X20377138Y-62550560D01*
X20377154Y-62550578D01*
X20574421Y-62747845D01*
X20574439Y-62747861D01*
X20797784Y-62915054D01*
X20797792Y-62915059D01*
X21042657Y-63048766D01*
X21042661Y-63048768D01*
X21042663Y-63048769D01*
X21304077Y-63146271D01*
X21377536Y-63162251D01*
X21576700Y-63205577D01*
X21576702Y-63205577D01*
X21576706Y-63205578D01*
X21785343Y-63220500D01*
X21922991Y-63220500D01*
X21990030Y-63240185D01*
X22035785Y-63292989D01*
X22045729Y-63362147D01*
X22043882Y-63372092D01*
X22035809Y-63407459D01*
X22035809Y-63407463D01*
X22025710Y-63632330D01*
X22055925Y-63855387D01*
X22055926Y-63855390D01*
X22125483Y-64069465D01*
X22232146Y-64267678D01*
X22232148Y-64267681D01*
X22372489Y-64443663D01*
X22372491Y-64443664D01*
X22372492Y-64443666D01*
X22542004Y-64591765D01*
X22735236Y-64707215D01*
X22945976Y-64786307D01*
X23167450Y-64826500D01*
X23167453Y-64826500D01*
X23636148Y-64826500D01*
X23636155Y-64826500D01*
X23804188Y-64811377D01*
X23804192Y-64811376D01*
X24021160Y-64751496D01*
X24021162Y-64751495D01*
X24021170Y-64751493D01*
X24223973Y-64653829D01*
X24406078Y-64521522D01*
X24561632Y-64358825D01*
X24685635Y-64170968D01*
X24774103Y-63963988D01*
X24824191Y-63744537D01*
X24828290Y-63653250D01*
X24850962Y-63587164D01*
X24865949Y-63575311D01*
X24835409Y-63522744D01*
X24832958Y-63509842D01*
X24804075Y-63296613D01*
X24776570Y-63211961D01*
X24774575Y-63142120D01*
X24804105Y-63088764D01*
X24838607Y-63052022D01*
X24839846Y-63050743D01*
X24860120Y-63030471D01*
X24864379Y-63024978D01*
X24868152Y-63020561D01*
X24900062Y-62986582D01*
X24909713Y-62969024D01*
X24920396Y-62952761D01*
X24932673Y-62936936D01*
X24951185Y-62894153D01*
X24953738Y-62888941D01*
X24976197Y-62848092D01*
X24981180Y-62828680D01*
X24987481Y-62810280D01*
X24995437Y-62791896D01*
X25002729Y-62745852D01*
X25003906Y-62740171D01*
X25015500Y-62695019D01*
X25015500Y-62674983D01*
X25017027Y-62655582D01*
X25020160Y-62635804D01*
X25015775Y-62589415D01*
X25015500Y-62583577D01*
X25015500Y-59987742D01*
X25017224Y-59972122D01*
X25016939Y-59972095D01*
X25017673Y-59964333D01*
X25015531Y-59896139D01*
X25015500Y-59894192D01*
X25015500Y-59865656D01*
X25015500Y-59865650D01*
X25014631Y-59858779D01*
X25014173Y-59852952D01*
X25013693Y-59837666D01*
X25012710Y-59806373D01*
X25007119Y-59787130D01*
X25003173Y-59768078D01*
X25000664Y-59748208D01*
X24983504Y-59704867D01*
X24981624Y-59699379D01*
X24968618Y-59654610D01*
X24964893Y-59648312D01*
X24958423Y-59637371D01*
X24949861Y-59619894D01*
X24942487Y-59601270D01*
X24942486Y-59601268D01*
X24915079Y-59563545D01*
X24911888Y-59558686D01*
X24888172Y-59518583D01*
X24888165Y-59518574D01*
X24874006Y-59504415D01*
X24861368Y-59489619D01*
X24849594Y-59473413D01*
X24843806Y-59468625D01*
X24804699Y-59410725D01*
X24801956Y-59345489D01*
X24823903Y-59249331D01*
X24833146Y-59208833D01*
X24867254Y-59147855D01*
X24928916Y-59114997D01*
X24998553Y-59120692D01*
X25054057Y-59163132D01*
X25076914Y-59219779D01*
X25080925Y-59249387D01*
X25080926Y-59249390D01*
X25150483Y-59463465D01*
X25257146Y-59661678D01*
X25257148Y-59661681D01*
X25397489Y-59837663D01*
X25397491Y-59837664D01*
X25397492Y-59837666D01*
X25567004Y-59985765D01*
X25760236Y-60101215D01*
X25772071Y-60105656D01*
X25827918Y-60147640D01*
X25852202Y-60213154D01*
X25852500Y-60221749D01*
X25852500Y-62339124D01*
X25832815Y-62406163D01*
X25782302Y-62450844D01*
X25684029Y-62498169D01*
X25684025Y-62498171D01*
X25501927Y-62630473D01*
X25501925Y-62630474D01*
X25346366Y-62793176D01*
X25222363Y-62981033D01*
X25133899Y-63188004D01*
X25133895Y-63188017D01*
X25083810Y-63407457D01*
X25083808Y-63407468D01*
X25079709Y-63498747D01*
X25057036Y-63564836D01*
X25042049Y-63576687D01*
X25072590Y-63629254D01*
X25075043Y-63642171D01*
X25103925Y-63855387D01*
X25103926Y-63855390D01*
X25173483Y-64069465D01*
X25280146Y-64267678D01*
X25280148Y-64267681D01*
X25420489Y-64443663D01*
X25420491Y-64443664D01*
X25420492Y-64443666D01*
X25590004Y-64591765D01*
X25783236Y-64707215D01*
X25993976Y-64786307D01*
X26215450Y-64826500D01*
X26215453Y-64826500D01*
X26684148Y-64826500D01*
X26684155Y-64826500D01*
X26852188Y-64811377D01*
X26852192Y-64811376D01*
X27069160Y-64751496D01*
X27069162Y-64751495D01*
X27069170Y-64751493D01*
X27271973Y-64653829D01*
X27454078Y-64521522D01*
X27609632Y-64358825D01*
X27733635Y-64170968D01*
X27822103Y-63963988D01*
X27872191Y-63744537D01*
X27882290Y-63519670D01*
X27852075Y-63296613D01*
X27782517Y-63082536D01*
X27675852Y-62884319D01*
X27567017Y-62747845D01*
X27535510Y-62708336D01*
X27535508Y-62708334D01*
X27365996Y-62560235D01*
X27172764Y-62444785D01*
X27167984Y-62441929D01*
X27168701Y-62440728D01*
X27121829Y-62398396D01*
X27103500Y-62333514D01*
X27103500Y-61269998D01*
X27103500Y-61228833D01*
X28200624Y-61228833D01*
X28210944Y-61392860D01*
X28261732Y-61549171D01*
X28261734Y-61549175D01*
X28349798Y-61687940D01*
X28469603Y-61800445D01*
X28469611Y-61800451D01*
X28571213Y-61856307D01*
X28613632Y-61879627D01*
X28772823Y-61920500D01*
X28772827Y-61920500D01*
X28895923Y-61920500D01*
X28895925Y-61920500D01*
X28895930Y-61920499D01*
X28895934Y-61920499D01*
X28909174Y-61918826D01*
X29018058Y-61905071D01*
X29170871Y-61844568D01*
X29203416Y-61820923D01*
X29303835Y-61747965D01*
X29303835Y-61747963D01*
X29303837Y-61747963D01*
X29408600Y-61621326D01*
X29478579Y-61472613D01*
X29509376Y-61311170D01*
X29499056Y-61147140D01*
X29448268Y-60990829D01*
X29360202Y-60852060D01*
X29296281Y-60792034D01*
X29240396Y-60739554D01*
X29240388Y-60739548D01*
X29096371Y-60660374D01*
X29096361Y-60660371D01*
X28937180Y-60619500D01*
X28937177Y-60619500D01*
X28814075Y-60619500D01*
X28814065Y-60619500D01*
X28691942Y-60634929D01*
X28691939Y-60634929D01*
X28539130Y-60695431D01*
X28539121Y-60695436D01*
X28406164Y-60792034D01*
X28406162Y-60792037D01*
X28301400Y-60918673D01*
X28231420Y-61067387D01*
X28216207Y-61147139D01*
X28200624Y-61228830D01*
X28200624Y-61228832D01*
X28200624Y-61228833D01*
X27103500Y-61228833D01*
X27103500Y-60195794D01*
X27123184Y-60128759D01*
X27173695Y-60084080D01*
X27248973Y-60047829D01*
X27334400Y-59985763D01*
X27431072Y-59915527D01*
X27431074Y-59915525D01*
X27431074Y-59915524D01*
X27431078Y-59915522D01*
X27586632Y-59752825D01*
X27710635Y-59564968D01*
X27769254Y-59427824D01*
X27799100Y-59357995D01*
X27799099Y-59357995D01*
X27799103Y-59357988D01*
X27849191Y-59138537D01*
X27859290Y-58913670D01*
X27829075Y-58690613D01*
X27759517Y-58476536D01*
X27752444Y-58463393D01*
X27652853Y-58278321D01*
X27652851Y-58278318D01*
X27512510Y-58102336D01*
X27478088Y-58072262D01*
X27342996Y-57954235D01*
X27149764Y-57838785D01*
X27144984Y-57835929D01*
X27145701Y-57834728D01*
X27098829Y-57792396D01*
X27080500Y-57727514D01*
X27080500Y-57294500D01*
X27100185Y-57227461D01*
X27152989Y-57181706D01*
X27204500Y-57170500D01*
X27739770Y-57170500D01*
X27739778Y-57170500D01*
X27820578Y-57164141D01*
X28008496Y-57113788D01*
X28181840Y-57025465D01*
X28333032Y-56903032D01*
X28455465Y-56751840D01*
X28504288Y-56656018D01*
X28552260Y-56605224D01*
X28620081Y-56588428D01*
X28686216Y-56610965D01*
X28716346Y-56641189D01*
X28751505Y-56691401D01*
X28918599Y-56858495D01*
X28992017Y-56909903D01*
X29112165Y-56994032D01*
X29112167Y-56994033D01*
X29112170Y-56994035D01*
X29326337Y-57093903D01*
X29554592Y-57155063D01*
X29731034Y-57170500D01*
X29789999Y-57175659D01*
X29790000Y-57175659D01*
X29790001Y-57175659D01*
X29848966Y-57170500D01*
X30025408Y-57155063D01*
X30253663Y-57093903D01*
X30467830Y-56994035D01*
X30661401Y-56858495D01*
X30828495Y-56691401D01*
X30953484Y-56512899D01*
X30958425Y-56505842D01*
X31013002Y-56462217D01*
X31082500Y-56455023D01*
X31144855Y-56486546D01*
X31161575Y-56505842D01*
X31282560Y-56678627D01*
X31291505Y-56691401D01*
X31458599Y-56858495D01*
X31532017Y-56909903D01*
X31652165Y-56994032D01*
X31652167Y-56994033D01*
X31652170Y-56994035D01*
X31866337Y-57093903D01*
X32094592Y-57155063D01*
X32271034Y-57170500D01*
X32329999Y-57175659D01*
X32330000Y-57175659D01*
X32330001Y-57175659D01*
X32388966Y-57170500D01*
X32565408Y-57155063D01*
X32793663Y-57093903D01*
X33007830Y-56994035D01*
X33201401Y-56858495D01*
X33368495Y-56691401D01*
X33493484Y-56512899D01*
X33498425Y-56505842D01*
X33553002Y-56462217D01*
X33622500Y-56455023D01*
X33684855Y-56486546D01*
X33701575Y-56505842D01*
X33822560Y-56678627D01*
X33831505Y-56691401D01*
X33998599Y-56858495D01*
X34072017Y-56909903D01*
X34192165Y-56994032D01*
X34192167Y-56994033D01*
X34192170Y-56994035D01*
X34406337Y-57093903D01*
X34634592Y-57155063D01*
X34811034Y-57170500D01*
X34869999Y-57175659D01*
X34870000Y-57175659D01*
X34870001Y-57175659D01*
X34928966Y-57170500D01*
X35105408Y-57155063D01*
X35333663Y-57093903D01*
X35547830Y-56994035D01*
X35741401Y-56858495D01*
X35908495Y-56691401D01*
X36033484Y-56512899D01*
X36038425Y-56505842D01*
X36093002Y-56462217D01*
X36162500Y-56455023D01*
X36224855Y-56486546D01*
X36241575Y-56505842D01*
X36362560Y-56678627D01*
X36371505Y-56691401D01*
X36538599Y-56858495D01*
X36612017Y-56909903D01*
X36732165Y-56994032D01*
X36732167Y-56994033D01*
X36732170Y-56994035D01*
X36946337Y-57093903D01*
X37174592Y-57155063D01*
X37351034Y-57170500D01*
X37409999Y-57175659D01*
X37410000Y-57175659D01*
X37410001Y-57175659D01*
X37468966Y-57170500D01*
X37645408Y-57155063D01*
X37873663Y-57093903D01*
X38087830Y-56994035D01*
X38281401Y-56858495D01*
X38448495Y-56691401D01*
X38573484Y-56512899D01*
X38578425Y-56505842D01*
X38633002Y-56462217D01*
X38702500Y-56455023D01*
X38764855Y-56486546D01*
X38781575Y-56505842D01*
X38902560Y-56678627D01*
X38911505Y-56691401D01*
X39078599Y-56858495D01*
X39152017Y-56909903D01*
X39272165Y-56994032D01*
X39272167Y-56994033D01*
X39272170Y-56994035D01*
X39486337Y-57093903D01*
X39714592Y-57155063D01*
X39891034Y-57170500D01*
X39949999Y-57175659D01*
X39950000Y-57175659D01*
X39950001Y-57175659D01*
X40008966Y-57170500D01*
X40185408Y-57155063D01*
X40413663Y-57093903D01*
X40627830Y-56994035D01*
X40821401Y-56858495D01*
X40988495Y-56691401D01*
X41023652Y-56641190D01*
X41078228Y-56597566D01*
X41147726Y-56590372D01*
X41210081Y-56621894D01*
X41235712Y-56656020D01*
X41284532Y-56751837D01*
X41307435Y-56780119D01*
X41406968Y-56903032D01*
X41485241Y-56966416D01*
X41558162Y-57025467D01*
X41670023Y-57082462D01*
X41731504Y-57113788D01*
X41731506Y-57113788D01*
X41731507Y-57113789D01*
X41731506Y-57113789D01*
X41761308Y-57121773D01*
X41772591Y-57124797D01*
X41832252Y-57161160D01*
X41862783Y-57224007D01*
X41864500Y-57244572D01*
X41864500Y-57676827D01*
X41844815Y-57743866D01*
X41792011Y-57789621D01*
X41780767Y-57794107D01*
X41760195Y-57801170D01*
X41760188Y-57801172D01*
X41541493Y-57919524D01*
X41345257Y-58072261D01*
X41176833Y-58255217D01*
X41040826Y-58463393D01*
X40940936Y-58691118D01*
X40879892Y-58932175D01*
X40879890Y-58932187D01*
X40859357Y-59179994D01*
X40859357Y-59180005D01*
X40879890Y-59427812D01*
X40879892Y-59427824D01*
X40940936Y-59668881D01*
X41040826Y-59896606D01*
X41176833Y-60104782D01*
X41176836Y-60104785D01*
X41345256Y-60287738D01*
X41541491Y-60440474D01*
X41760190Y-60558828D01*
X41995386Y-60639571D01*
X42240665Y-60680500D01*
X42489335Y-60680500D01*
X42734614Y-60639571D01*
X42969810Y-60558828D01*
X43188509Y-60440474D01*
X43384744Y-60287738D01*
X43553164Y-60104785D01*
X43689173Y-59896607D01*
X43789063Y-59668881D01*
X43850108Y-59427821D01*
X43851388Y-59412376D01*
X43870643Y-59180005D01*
X43870643Y-59179994D01*
X43850109Y-58932187D01*
X43850107Y-58932175D01*
X43789063Y-58691118D01*
X43689173Y-58463393D01*
X43553166Y-58255217D01*
X43470288Y-58165188D01*
X43384744Y-58072262D01*
X43188509Y-57919526D01*
X43180477Y-57915179D01*
X43130891Y-57865961D01*
X43115500Y-57806128D01*
X43115500Y-57244572D01*
X43135185Y-57177533D01*
X43187989Y-57131778D01*
X43207407Y-57124797D01*
X43226821Y-57119595D01*
X43248493Y-57113789D01*
X43248493Y-57113788D01*
X43248496Y-57113788D01*
X43383067Y-57045221D01*
X43421837Y-57025467D01*
X43421838Y-57025465D01*
X43421840Y-57025465D01*
X43573032Y-56903032D01*
X43695465Y-56751840D01*
X43783788Y-56578496D01*
X43834141Y-56390578D01*
X43840500Y-56309778D01*
X43840500Y-55330222D01*
X43834141Y-55249422D01*
X43783788Y-55061504D01*
X43695465Y-54888160D01*
X43573032Y-54736968D01*
X43421840Y-54614535D01*
X43248496Y-54526212D01*
X43060578Y-54475859D01*
X43060577Y-54475858D01*
X43060574Y-54475858D01*
X42979783Y-54469500D01*
X42979778Y-54469500D01*
X42000222Y-54469500D01*
X42000216Y-54469500D01*
X41919425Y-54475858D01*
X41731504Y-54526212D01*
X41558161Y-54614534D01*
X41406968Y-54736968D01*
X41284534Y-54888161D01*
X41235712Y-54983980D01*
X41187737Y-55034776D01*
X41119916Y-55051571D01*
X41053781Y-55029034D01*
X41023652Y-54998808D01*
X40988494Y-54948597D01*
X40821402Y-54781506D01*
X40821401Y-54781505D01*
X40688093Y-54688161D01*
X40628376Y-54646347D01*
X40584751Y-54591770D01*
X40575500Y-54544772D01*
X40575500Y-53778983D01*
X40595185Y-53711944D01*
X40640483Y-53669928D01*
X40643845Y-53668109D01*
X40720619Y-53626561D01*
X40900677Y-53486417D01*
X41055213Y-53318547D01*
X41131191Y-53202252D01*
X41184337Y-53156896D01*
X41253568Y-53147472D01*
X41316904Y-53176973D01*
X41338809Y-53202253D01*
X41414787Y-53318548D01*
X41521766Y-53434757D01*
X41569323Y-53486417D01*
X41749381Y-53626561D01*
X41950050Y-53735158D01*
X42165857Y-53809245D01*
X42390915Y-53846800D01*
X42619085Y-53846800D01*
X42844143Y-53809245D01*
X43059950Y-53735158D01*
X43260619Y-53626561D01*
X43440677Y-53486417D01*
X43595213Y-53318547D01*
X43720010Y-53127530D01*
X43811664Y-52918578D01*
X43867677Y-52697391D01*
X43886519Y-52470000D01*
X43884377Y-52444145D01*
X43898458Y-52375709D01*
X43947303Y-52325750D01*
X44015404Y-52310129D01*
X44081139Y-52333806D01*
X44095633Y-52346223D01*
X45063000Y-53313591D01*
X45863197Y-54113788D01*
X45873022Y-54126051D01*
X45873243Y-54125869D01*
X45878211Y-54131874D01*
X45927932Y-54178566D01*
X45929332Y-54179923D01*
X45949523Y-54200115D01*
X45949527Y-54200118D01*
X45949529Y-54200120D01*
X45955011Y-54204373D01*
X45959443Y-54208157D01*
X45993418Y-54240062D01*
X46010976Y-54249714D01*
X46027235Y-54260395D01*
X46043064Y-54272673D01*
X46085838Y-54291182D01*
X46091056Y-54293738D01*
X46131908Y-54316197D01*
X46144875Y-54319526D01*
X46204911Y-54355263D01*
X46236097Y-54417787D01*
X46228530Y-54487245D01*
X46226419Y-54492034D01*
X46201096Y-54546339D01*
X46201094Y-54546344D01*
X46139938Y-54774586D01*
X46139936Y-54774596D01*
X46119341Y-55009999D01*
X46119341Y-55010000D01*
X46139936Y-55245403D01*
X46139938Y-55245413D01*
X46201094Y-55473655D01*
X46201096Y-55473659D01*
X46201097Y-55473663D01*
X46205000Y-55482032D01*
X46300965Y-55687830D01*
X46300967Y-55687834D01*
X46409281Y-55842521D01*
X46436505Y-55881401D01*
X46603599Y-56048495D01*
X46654607Y-56084211D01*
X46797165Y-56184032D01*
X46797167Y-56184033D01*
X46797170Y-56184035D01*
X47011337Y-56283903D01*
X47239592Y-56345063D01*
X47427918Y-56361539D01*
X47474999Y-56365659D01*
X47475000Y-56365659D01*
X47475001Y-56365659D01*
X47514234Y-56362226D01*
X47710408Y-56345063D01*
X47938663Y-56283903D01*
X48152830Y-56184035D01*
X48346401Y-56048495D01*
X48513495Y-55881401D01*
X48643424Y-55695842D01*
X48698002Y-55652217D01*
X48767500Y-55645023D01*
X48829855Y-55676546D01*
X48846575Y-55695842D01*
X48976500Y-55881395D01*
X48976505Y-55881401D01*
X49143599Y-56048495D01*
X49194607Y-56084211D01*
X49337165Y-56184032D01*
X49337167Y-56184033D01*
X49337170Y-56184035D01*
X49551337Y-56283903D01*
X49779592Y-56345063D01*
X49967918Y-56361539D01*
X50014999Y-56365659D01*
X50015000Y-56365659D01*
X50015001Y-56365659D01*
X50054234Y-56362226D01*
X50250408Y-56345063D01*
X50478663Y-56283903D01*
X50692830Y-56184035D01*
X50886401Y-56048495D01*
X51053495Y-55881401D01*
X51189035Y-55687830D01*
X51288903Y-55473663D01*
X51350063Y-55245408D01*
X51370659Y-55010000D01*
X51368382Y-54983980D01*
X51350668Y-54781506D01*
X51350063Y-54774592D01*
X51288903Y-54546337D01*
X51189035Y-54332171D01*
X51180181Y-54319525D01*
X51053494Y-54138597D01*
X50886402Y-53971506D01*
X50886396Y-53971501D01*
X50700842Y-53841575D01*
X50657217Y-53786998D01*
X50650023Y-53717500D01*
X50681546Y-53655145D01*
X50700842Y-53638425D01*
X50737995Y-53612410D01*
X50886401Y-53508495D01*
X51053495Y-53341401D01*
X51189035Y-53147830D01*
X51288903Y-52933663D01*
X51350063Y-52705408D01*
X51370659Y-52470000D01*
X51370658Y-52469994D01*
X51350063Y-52234596D01*
X51350063Y-52234592D01*
X51288903Y-52006337D01*
X51189035Y-51792171D01*
X51180181Y-51779525D01*
X51053494Y-51598597D01*
X50886402Y-51431506D01*
X50886396Y-51431501D01*
X50700842Y-51301575D01*
X50657217Y-51246998D01*
X50650023Y-51177500D01*
X50681546Y-51115145D01*
X50700842Y-51098425D01*
X50723026Y-51082891D01*
X50886401Y-50968495D01*
X51053495Y-50801401D01*
X51189035Y-50607830D01*
X51288903Y-50393663D01*
X51350063Y-50165408D01*
X51370659Y-49930000D01*
X51370658Y-49929994D01*
X51363694Y-49850394D01*
X51350063Y-49694592D01*
X51303626Y-49521285D01*
X51288905Y-49466344D01*
X51288904Y-49466343D01*
X51288903Y-49466337D01*
X51189035Y-49252171D01*
X51180181Y-49239525D01*
X51053494Y-49058597D01*
X50886402Y-48891506D01*
X50886396Y-48891501D01*
X50700842Y-48761575D01*
X50657217Y-48706998D01*
X50650023Y-48637500D01*
X50681546Y-48575145D01*
X50700842Y-48558425D01*
X50723026Y-48542891D01*
X50886401Y-48428495D01*
X51053495Y-48261401D01*
X51189035Y-48067830D01*
X51288903Y-47853663D01*
X51350063Y-47625408D01*
X51370659Y-47390000D01*
X51370658Y-47389994D01*
X51363694Y-47310394D01*
X51350063Y-47154592D01*
X51303626Y-46981285D01*
X51288905Y-46926344D01*
X51288904Y-46926343D01*
X51288903Y-46926337D01*
X51189035Y-46712171D01*
X51161145Y-46672339D01*
X51053494Y-46518597D01*
X50886402Y-46351506D01*
X50886396Y-46351501D01*
X50700842Y-46221575D01*
X50657217Y-46166998D01*
X50650023Y-46097500D01*
X50681546Y-46035145D01*
X50700842Y-46018425D01*
X50723026Y-46002891D01*
X50886401Y-45888495D01*
X51053495Y-45721401D01*
X51189035Y-45527830D01*
X51288903Y-45313663D01*
X51350063Y-45085408D01*
X51370659Y-44850000D01*
X51370658Y-44849994D01*
X51350764Y-44622608D01*
X51350063Y-44614592D01*
X51303626Y-44441285D01*
X51288905Y-44386344D01*
X51288904Y-44386343D01*
X51288903Y-44386337D01*
X51189035Y-44172171D01*
X51184852Y-44166196D01*
X51053494Y-43978597D01*
X50886402Y-43811506D01*
X50886396Y-43811501D01*
X50700842Y-43681575D01*
X50657217Y-43626998D01*
X50650023Y-43557500D01*
X50681546Y-43495145D01*
X50700842Y-43478425D01*
X50723026Y-43462891D01*
X50886401Y-43348495D01*
X51053495Y-43181401D01*
X51189035Y-42987830D01*
X51288903Y-42773663D01*
X51350063Y-42545408D01*
X51370659Y-42310000D01*
X51370658Y-42309994D01*
X51350764Y-42082608D01*
X51350063Y-42074592D01*
X51303626Y-41901285D01*
X51288905Y-41846344D01*
X51288904Y-41846343D01*
X51288903Y-41846337D01*
X51189035Y-41632171D01*
X51187709Y-41630276D01*
X51053494Y-41438597D01*
X50886402Y-41271506D01*
X50886396Y-41271501D01*
X50700842Y-41141575D01*
X50657217Y-41086998D01*
X50650023Y-41017500D01*
X50681546Y-40955145D01*
X50700842Y-40938425D01*
X50723026Y-40922891D01*
X50886401Y-40808495D01*
X51053495Y-40641401D01*
X51189035Y-40447830D01*
X51288903Y-40233663D01*
X51350063Y-40005408D01*
X51370659Y-39770000D01*
X51370658Y-39769994D01*
X51350764Y-39542608D01*
X51350063Y-39534592D01*
X51303626Y-39361285D01*
X51288905Y-39306344D01*
X51288904Y-39306343D01*
X51288903Y-39306337D01*
X51189035Y-39092171D01*
X51187709Y-39090276D01*
X51053494Y-38898597D01*
X50886402Y-38731506D01*
X50886396Y-38731501D01*
X50700842Y-38601575D01*
X50657217Y-38546998D01*
X50650023Y-38477500D01*
X50681546Y-38415145D01*
X50700842Y-38398425D01*
X50723026Y-38382891D01*
X50886401Y-38268495D01*
X51053495Y-38101401D01*
X51189035Y-37907830D01*
X51288903Y-37693663D01*
X51350063Y-37465408D01*
X51370659Y-37230000D01*
X51370658Y-37229994D01*
X51350764Y-37002608D01*
X51350063Y-36994592D01*
X51303626Y-36821285D01*
X51288905Y-36766344D01*
X51288904Y-36766343D01*
X51288903Y-36766337D01*
X51189035Y-36552171D01*
X51154143Y-36502339D01*
X51053494Y-36358597D01*
X50886402Y-36191506D01*
X50886396Y-36191501D01*
X50700842Y-36061575D01*
X50657217Y-36006998D01*
X50650023Y-35937500D01*
X50681546Y-35875145D01*
X50700842Y-35858425D01*
X50723026Y-35842891D01*
X50886401Y-35728495D01*
X51053495Y-35561401D01*
X51189035Y-35367830D01*
X51288903Y-35153663D01*
X51350063Y-34925408D01*
X51370659Y-34690000D01*
X51370658Y-34689994D01*
X51363694Y-34610394D01*
X51350063Y-34454592D01*
X51303626Y-34281285D01*
X51288905Y-34226344D01*
X51288904Y-34226343D01*
X51288903Y-34226337D01*
X51189035Y-34012171D01*
X51067105Y-33838035D01*
X51053494Y-33818597D01*
X50886402Y-33651506D01*
X50886395Y-33651501D01*
X50692834Y-33515967D01*
X50692830Y-33515965D01*
X50621935Y-33482906D01*
X50478663Y-33416097D01*
X50478660Y-33416096D01*
X50478658Y-33416095D01*
X50443347Y-33406634D01*
X50383687Y-33370269D01*
X50353158Y-33307422D01*
X50361453Y-33238046D01*
X50405938Y-33184168D01*
X50454658Y-33166909D01*
X50454271Y-33164711D01*
X50459587Y-33163773D01*
X50459600Y-33163772D01*
X50677376Y-33105419D01*
X50881711Y-33010136D01*
X51066396Y-32880819D01*
X51225819Y-32721396D01*
X51355136Y-32536711D01*
X51450419Y-32332376D01*
X51508772Y-32114600D01*
X51523500Y-31946259D01*
X51523500Y-30380741D01*
X51523062Y-30375739D01*
X51508772Y-30212404D01*
X51508772Y-30212400D01*
X51450419Y-29994624D01*
X51355136Y-29790289D01*
X51225819Y-29605604D01*
X51225817Y-29605601D01*
X51066398Y-29446182D01*
X50881711Y-29316864D01*
X50881709Y-29316863D01*
X50811457Y-29284104D01*
X50677376Y-29221581D01*
X50677372Y-29221580D01*
X50677368Y-29221578D01*
X50459605Y-29163229D01*
X50459601Y-29163228D01*
X50459600Y-29163228D01*
X50459599Y-29163227D01*
X50459594Y-29163227D01*
X50235002Y-29143578D01*
X50234998Y-29143578D01*
X50010405Y-29163227D01*
X50010394Y-29163229D01*
X49792631Y-29221578D01*
X49792617Y-29221583D01*
X49716904Y-29256889D01*
X49647827Y-29267381D01*
X49584043Y-29238861D01*
X49545804Y-29180384D01*
X49540500Y-29144507D01*
X49540500Y-27964445D01*
X49560185Y-27897406D01*
X49612989Y-27851651D01*
X49682147Y-27841707D01*
X49713235Y-27850423D01*
X49847012Y-27907603D01*
X50066463Y-27957691D01*
X50291330Y-27967790D01*
X50514387Y-27937575D01*
X50728464Y-27868017D01*
X50926681Y-27761352D01*
X51102666Y-27621008D01*
X51250765Y-27451496D01*
X51366215Y-27258264D01*
X51445307Y-27047524D01*
X51481326Y-26849047D01*
X51485500Y-26826049D01*
X51485500Y-26357352D01*
X51485500Y-26357345D01*
X51470377Y-26189312D01*
X51470376Y-26189307D01*
X51410496Y-25972339D01*
X51410491Y-25972326D01*
X51312832Y-25769533D01*
X51312828Y-25769525D01*
X51180526Y-25587427D01*
X51180525Y-25587425D01*
X51017823Y-25431866D01*
X50829966Y-25307863D01*
X50622995Y-25219399D01*
X50622984Y-25219396D01*
X50473833Y-25185353D01*
X50412855Y-25151244D01*
X50379997Y-25089583D01*
X50385692Y-25019946D01*
X50428132Y-24964442D01*
X50484780Y-24941585D01*
X50514387Y-24937575D01*
X50728464Y-24868017D01*
X50926681Y-24761352D01*
X51102666Y-24621008D01*
X51250765Y-24451496D01*
X51366215Y-24258264D01*
X51445307Y-24047524D01*
X51465240Y-23937686D01*
X51485500Y-23826049D01*
X51485500Y-23357352D01*
X51485500Y-23357345D01*
X51470377Y-23189312D01*
X51460411Y-23153200D01*
X51410496Y-22972339D01*
X51410491Y-22972326D01*
X51312832Y-22769533D01*
X51312828Y-22769525D01*
X51180526Y-22587427D01*
X51180525Y-22587425D01*
X51017823Y-22431866D01*
X50829966Y-22307863D01*
X50622995Y-22219399D01*
X50622982Y-22219395D01*
X50403542Y-22169310D01*
X50403538Y-22169309D01*
X50403537Y-22169309D01*
X50403536Y-22169308D01*
X50403531Y-22169308D01*
X50178674Y-22159210D01*
X50178673Y-22159210D01*
X50178670Y-22159210D01*
X50024742Y-22180060D01*
X49955668Y-22169553D01*
X49903239Y-22123369D01*
X49884102Y-22056171D01*
X49884414Y-22048336D01*
X49890482Y-21963499D01*
X49890482Y-21963498D01*
X49886493Y-21907736D01*
X49870578Y-21685206D01*
X49811271Y-21412577D01*
X49713769Y-21151163D01*
X49580056Y-20906287D01*
X49580054Y-20906284D01*
X49412861Y-20682939D01*
X49412845Y-20682921D01*
X49215578Y-20485654D01*
X49215560Y-20485638D01*
X48992215Y-20318445D01*
X48992207Y-20318440D01*
X48747342Y-20184733D01*
X48747338Y-20184731D01*
X48648230Y-20147766D01*
X48485923Y-20087229D01*
X48485919Y-20087228D01*
X48485916Y-20087227D01*
X48213299Y-20027922D01*
X48004659Y-20013000D01*
X48004657Y-20013000D01*
X47865343Y-20013000D01*
X47865340Y-20013000D01*
X47656700Y-20027922D01*
X47384083Y-20087227D01*
X47384078Y-20087228D01*
X47384077Y-20087229D01*
X47320875Y-20110801D01*
X47122661Y-20184731D01*
X47122657Y-20184733D01*
X46877792Y-20318440D01*
X46877784Y-20318445D01*
X46654439Y-20485638D01*
X46654421Y-20485654D01*
X46457154Y-20682921D01*
X46457138Y-20682939D01*
X46289945Y-20906284D01*
X46289940Y-20906292D01*
X46156233Y-21151157D01*
X46156231Y-21151161D01*
X46058727Y-21412583D01*
X45999422Y-21685200D01*
X45979518Y-21963498D01*
X45979518Y-21963502D01*
X45983740Y-22022544D01*
X45968887Y-22090817D01*
X45919482Y-22140222D01*
X45851208Y-22155073D01*
X45832466Y-22152281D01*
X45822493Y-22150005D01*
X45797537Y-22144309D01*
X45706535Y-22140222D01*
X45572673Y-22134210D01*
X45572672Y-22134210D01*
X45572670Y-22134210D01*
X45349613Y-22164425D01*
X45349610Y-22164425D01*
X45349609Y-22164426D01*
X45135534Y-22233983D01*
X44937321Y-22340646D01*
X44937318Y-22340648D01*
X44761336Y-22480989D01*
X44613236Y-22650503D01*
X44497787Y-22843732D01*
X44497786Y-22843734D01*
X44418692Y-23054476D01*
X44378500Y-23275950D01*
X44378500Y-23744651D01*
X44393622Y-23912686D01*
X44393623Y-23912692D01*
X44453503Y-24129660D01*
X44453508Y-24129673D01*
X44551167Y-24332466D01*
X44551171Y-24332474D01*
X44683473Y-24514572D01*
X44683474Y-24514574D01*
X44683477Y-24514577D01*
X44683478Y-24514578D01*
X44709620Y-24539572D01*
X44846176Y-24670133D01*
X45034033Y-24794136D01*
X45241004Y-24882600D01*
X45241007Y-24882601D01*
X45241012Y-24882603D01*
X45460463Y-24932691D01*
X45551748Y-24936790D01*
X45617835Y-24959462D01*
X45629687Y-24974449D01*
X45682255Y-24943909D01*
X45695153Y-24941459D01*
X45908387Y-24912575D01*
X46009789Y-24879626D01*
X46079628Y-24877632D01*
X46135787Y-24909877D01*
X46351106Y-25125196D01*
X46384591Y-25186519D01*
X46379607Y-25256211D01*
X46337735Y-25312144D01*
X46272271Y-25336561D01*
X46214690Y-25326899D01*
X46102545Y-25278966D01*
X46016988Y-25242397D01*
X46016986Y-25242396D01*
X46016985Y-25242396D01*
X46016982Y-25242395D01*
X45797542Y-25192310D01*
X45797538Y-25192309D01*
X45797537Y-25192309D01*
X45797536Y-25192308D01*
X45797531Y-25192308D01*
X45706252Y-25188209D01*
X45640163Y-25165536D01*
X45628311Y-25150549D01*
X45575745Y-25181090D01*
X45562828Y-25183543D01*
X45519399Y-25189426D01*
X45349613Y-25212425D01*
X45349610Y-25212425D01*
X45349609Y-25212426D01*
X45135534Y-25281983D01*
X44937321Y-25388646D01*
X44937318Y-25388648D01*
X44761336Y-25528989D01*
X44700042Y-25599146D01*
X44613235Y-25698504D01*
X44564511Y-25780055D01*
X44497787Y-25891732D01*
X44497786Y-25891734D01*
X44418692Y-26102476D01*
X44378500Y-26323950D01*
X44378500Y-26323953D01*
X44378500Y-26792655D01*
X44382996Y-26842609D01*
X44393622Y-26960686D01*
X44393623Y-26960692D01*
X44453503Y-27177660D01*
X44453508Y-27177673D01*
X44551167Y-27380466D01*
X44551171Y-27380473D01*
X44665341Y-27537615D01*
X44688821Y-27603421D01*
X44672995Y-27671475D01*
X44622890Y-27720170D01*
X44565023Y-27734500D01*
X44003299Y-27734500D01*
X43936260Y-27714815D01*
X43890505Y-27662011D01*
X43879681Y-27600773D01*
X43881799Y-27573851D01*
X43881800Y-27573841D01*
X43881799Y-26566160D01*
X43875350Y-26484204D01*
X43824282Y-26293615D01*
X43734704Y-26117809D01*
X43722288Y-26102476D01*
X43610532Y-25964467D01*
X43457189Y-25840294D01*
X43392796Y-25807485D01*
X43342000Y-25759511D01*
X43325205Y-25691690D01*
X43347742Y-25625555D01*
X43372930Y-25599146D01*
X43387990Y-25587425D01*
X43440677Y-25546417D01*
X43595213Y-25378547D01*
X43720010Y-25187530D01*
X43811664Y-24978578D01*
X43867677Y-24757391D01*
X43872836Y-24695132D01*
X43886519Y-24530005D01*
X43886519Y-24529994D01*
X43867678Y-24302616D01*
X43867677Y-24302613D01*
X43867677Y-24302609D01*
X43811664Y-24081422D01*
X43720010Y-23872470D01*
X43689682Y-23826049D01*
X43595212Y-23681451D01*
X43440680Y-23513586D01*
X43440676Y-23513582D01*
X43260620Y-23373440D01*
X43260619Y-23373439D01*
X43059950Y-23264842D01*
X43059942Y-23264839D01*
X42844145Y-23190755D01*
X42619085Y-23153200D01*
X42390915Y-23153200D01*
X42165854Y-23190755D01*
X41950057Y-23264839D01*
X41950049Y-23264842D01*
X41749379Y-23373440D01*
X41569323Y-23513582D01*
X41569319Y-23513586D01*
X41414787Y-23681451D01*
X41289989Y-23872470D01*
X41198335Y-24081422D01*
X41142323Y-24302608D01*
X41142321Y-24302616D01*
X41123481Y-24529994D01*
X41123481Y-24530005D01*
X41142321Y-24757383D01*
X41142323Y-24757391D01*
X41198335Y-24978577D01*
X41289989Y-25187529D01*
X41414787Y-25378548D01*
X41532106Y-25505989D01*
X41569323Y-25546417D01*
X41622010Y-25587425D01*
X41637070Y-25599146D01*
X41677883Y-25655856D01*
X41681558Y-25725629D01*
X41646927Y-25786313D01*
X41617203Y-25807485D01*
X41552810Y-25840294D01*
X41399467Y-25964467D01*
X41275294Y-26117810D01*
X41185717Y-26293616D01*
X41134649Y-26484205D01*
X41128200Y-26566153D01*
X41128200Y-27573830D01*
X41128201Y-27573852D01*
X41130320Y-27600774D01*
X41115954Y-27669151D01*
X41066902Y-27718907D01*
X41006702Y-27734500D01*
X31405452Y-27734500D01*
X31338413Y-27714815D01*
X31317771Y-27698181D01*
X28626840Y-25007249D01*
X28593355Y-24945926D01*
X28594316Y-24889126D01*
X28627675Y-24757399D01*
X28627678Y-24757383D01*
X28646519Y-24530005D01*
X28646519Y-24529994D01*
X28627678Y-24302616D01*
X28627677Y-24302613D01*
X28627677Y-24302609D01*
X28571664Y-24081422D01*
X28480010Y-23872470D01*
X28449682Y-23826049D01*
X28355212Y-23681451D01*
X28200680Y-23513586D01*
X28200676Y-23513582D01*
X28020620Y-23373440D01*
X28020619Y-23373439D01*
X27819950Y-23264842D01*
X27819942Y-23264839D01*
X27604145Y-23190755D01*
X27379085Y-23153200D01*
X27150915Y-23153200D01*
X26925854Y-23190755D01*
X26710057Y-23264839D01*
X26710049Y-23264842D01*
X26509379Y-23373440D01*
X26329323Y-23513582D01*
X26329319Y-23513586D01*
X26174787Y-23681451D01*
X26049989Y-23872470D01*
X25958335Y-24081422D01*
X25902323Y-24302608D01*
X25902321Y-24302616D01*
X25883481Y-24529994D01*
X25883481Y-24530005D01*
X25902321Y-24757383D01*
X25902323Y-24757395D01*
X25935683Y-24889129D01*
X25933058Y-24958949D01*
X25903158Y-25007250D01*
X21951208Y-28959199D01*
X21938951Y-28969020D01*
X21939134Y-28969241D01*
X21933122Y-28974214D01*
X21886432Y-29023932D01*
X21885079Y-29025329D01*
X21864889Y-29045519D01*
X21864877Y-29045532D01*
X21860621Y-29051017D01*
X21856837Y-29055447D01*
X21824937Y-29089418D01*
X21824936Y-29089420D01*
X21815284Y-29106976D01*
X21804610Y-29123226D01*
X21792329Y-29139061D01*
X21792324Y-29139068D01*
X21773815Y-29181838D01*
X21771245Y-29187084D01*
X21748803Y-29227906D01*
X21743822Y-29247307D01*
X21737521Y-29265710D01*
X21729562Y-29284102D01*
X21729561Y-29284105D01*
X21722271Y-29330127D01*
X21721087Y-29335846D01*
X21709501Y-29380972D01*
X21709500Y-29380982D01*
X21709500Y-29401016D01*
X21707973Y-29420415D01*
X21704840Y-29440194D01*
X21704840Y-29440195D01*
X21709225Y-29486583D01*
X21709500Y-29492421D01*
X21709500Y-33414773D01*
X21689815Y-33481812D01*
X21656623Y-33516348D01*
X21463597Y-33651505D01*
X21296508Y-33818594D01*
X21166574Y-34004160D01*
X21111997Y-34047784D01*
X21042498Y-34054977D01*
X20980144Y-34023455D01*
X20963429Y-34004164D01*
X20833495Y-33818599D01*
X20833493Y-33818596D01*
X20666402Y-33651506D01*
X20666395Y-33651501D01*
X20472834Y-33515967D01*
X20472830Y-33515965D01*
X20401935Y-33482906D01*
X20258663Y-33416097D01*
X20258659Y-33416096D01*
X20258655Y-33416094D01*
X20030413Y-33354938D01*
X20030403Y-33354936D01*
X19795001Y-33334341D01*
X19794999Y-33334341D01*
X19559596Y-33354936D01*
X19559586Y-33354938D01*
X19331344Y-33416094D01*
X19331335Y-33416098D01*
X19117171Y-33515964D01*
X19117169Y-33515965D01*
X18923597Y-33651505D01*
X18756505Y-33818597D01*
X18620965Y-34012169D01*
X18620964Y-34012171D01*
X18521098Y-34226335D01*
X18521094Y-34226344D01*
X18459938Y-34454586D01*
X18459936Y-34454596D01*
X18439341Y-34689999D01*
X18439341Y-34690000D01*
X18459936Y-34925403D01*
X18459938Y-34925413D01*
X18521094Y-35153655D01*
X18521096Y-35153659D01*
X18521097Y-35153663D01*
X18619087Y-35363802D01*
X18620965Y-35367830D01*
X18620967Y-35367834D01*
X18756501Y-35561395D01*
X18756506Y-35561402D01*
X18923597Y-35728493D01*
X18923603Y-35728498D01*
X19109158Y-35858425D01*
X19152783Y-35913002D01*
X19159977Y-35982500D01*
X19128454Y-36044855D01*
X19109158Y-36061575D01*
X18923597Y-36191505D01*
X18756505Y-36358597D01*
X18620965Y-36552169D01*
X18620964Y-36552171D01*
X18521098Y-36766335D01*
X18521094Y-36766344D01*
X18459938Y-36994586D01*
X18459936Y-36994596D01*
X18439341Y-37229999D01*
X18439341Y-37230000D01*
X18459936Y-37465403D01*
X18459938Y-37465413D01*
X18521094Y-37693655D01*
X18521096Y-37693659D01*
X18521097Y-37693663D01*
X18619087Y-37903802D01*
X18620965Y-37907830D01*
X18620967Y-37907834D01*
X18756501Y-38101395D01*
X18756506Y-38101402D01*
X18923597Y-38268493D01*
X18923603Y-38268498D01*
X19109158Y-38398425D01*
X19152783Y-38453002D01*
X19159977Y-38522500D01*
X19128454Y-38584855D01*
X19109158Y-38601575D01*
X18923597Y-38731505D01*
X18756505Y-38898597D01*
X18620965Y-39092169D01*
X18620964Y-39092171D01*
X18521098Y-39306335D01*
X18521094Y-39306344D01*
X18459938Y-39534586D01*
X18459936Y-39534596D01*
X18439341Y-39769999D01*
X18439341Y-39770000D01*
X18459936Y-40005403D01*
X18459938Y-40005413D01*
X18521094Y-40233655D01*
X18521096Y-40233659D01*
X18521097Y-40233663D01*
X18603250Y-40409840D01*
X18620965Y-40447830D01*
X18620967Y-40447834D01*
X18756501Y-40641395D01*
X18756506Y-40641402D01*
X18923597Y-40808493D01*
X18923603Y-40808498D01*
X19109158Y-40938425D01*
X19152783Y-40993002D01*
X19159977Y-41062500D01*
X19128454Y-41124855D01*
X19109158Y-41141575D01*
X18923597Y-41271505D01*
X18756505Y-41438597D01*
X18620965Y-41632169D01*
X18620964Y-41632171D01*
X18521098Y-41846335D01*
X18521094Y-41846344D01*
X18459938Y-42074586D01*
X18459936Y-42074596D01*
X18439341Y-42309999D01*
X18439341Y-42310000D01*
X18459936Y-42545403D01*
X18459938Y-42545413D01*
X18521094Y-42773655D01*
X18521096Y-42773659D01*
X18521097Y-42773663D01*
X18619087Y-42983802D01*
X18620965Y-42987830D01*
X18620967Y-42987834D01*
X18756501Y-43181395D01*
X18756506Y-43181402D01*
X18923597Y-43348493D01*
X18923603Y-43348498D01*
X19109158Y-43478425D01*
X19152783Y-43533002D01*
X19159977Y-43602500D01*
X19128454Y-43664855D01*
X19109158Y-43681575D01*
X18923597Y-43811505D01*
X18756505Y-43978597D01*
X18620965Y-44172169D01*
X18620964Y-44172171D01*
X18521098Y-44386335D01*
X18521094Y-44386344D01*
X18459938Y-44614586D01*
X18459936Y-44614596D01*
X18439341Y-44849999D01*
X18439341Y-44850000D01*
X18459936Y-45085403D01*
X18459938Y-45085413D01*
X18521094Y-45313655D01*
X18521096Y-45313659D01*
X18521097Y-45313663D01*
X18619087Y-45523802D01*
X18620965Y-45527830D01*
X18620967Y-45527834D01*
X18756501Y-45721395D01*
X18756506Y-45721402D01*
X18923597Y-45888493D01*
X18923603Y-45888498D01*
X19109158Y-46018425D01*
X19152783Y-46073002D01*
X19159977Y-46142500D01*
X19128454Y-46204855D01*
X19109158Y-46221575D01*
X18923597Y-46351505D01*
X18756505Y-46518597D01*
X18620965Y-46712169D01*
X18620964Y-46712171D01*
X18521098Y-46926335D01*
X18521094Y-46926344D01*
X18459938Y-47154586D01*
X18459936Y-47154596D01*
X18439341Y-47389999D01*
X18439341Y-47390000D01*
X18459936Y-47625403D01*
X18459938Y-47625413D01*
X18521094Y-47853655D01*
X18521096Y-47853659D01*
X18521097Y-47853663D01*
X18619087Y-48063802D01*
X18620965Y-48067830D01*
X18620967Y-48067834D01*
X18756501Y-48261395D01*
X18756506Y-48261402D01*
X18923597Y-48428493D01*
X18923603Y-48428498D01*
X19109158Y-48558425D01*
X19152783Y-48613002D01*
X19159977Y-48682500D01*
X19128454Y-48744855D01*
X19109158Y-48761575D01*
X18923597Y-48891505D01*
X18756505Y-49058597D01*
X18620965Y-49252169D01*
X18620964Y-49252171D01*
X18521098Y-49466335D01*
X18521094Y-49466344D01*
X18459938Y-49694586D01*
X18459936Y-49694596D01*
X18439341Y-49929999D01*
X18439341Y-49930000D01*
X18459936Y-50165403D01*
X18459938Y-50165413D01*
X18521094Y-50393655D01*
X18521096Y-50393659D01*
X18521097Y-50393663D01*
X18609073Y-50582328D01*
X18620965Y-50607830D01*
X18620967Y-50607834D01*
X18756501Y-50801395D01*
X18756506Y-50801402D01*
X18923597Y-50968493D01*
X18923603Y-50968498D01*
X19109158Y-51098425D01*
X19152783Y-51153002D01*
X19159977Y-51222500D01*
X19128454Y-51284855D01*
X19109158Y-51301575D01*
X18923597Y-51431505D01*
X18756505Y-51598597D01*
X18620965Y-51792169D01*
X18620964Y-51792171D01*
X18521098Y-52006335D01*
X18521094Y-52006344D01*
X18459938Y-52234586D01*
X18459936Y-52234596D01*
X18439341Y-52469999D01*
X18439341Y-52470000D01*
X18459936Y-52705403D01*
X18459938Y-52705413D01*
X18521094Y-52933655D01*
X18521096Y-52933659D01*
X18521097Y-52933663D01*
X18611499Y-53127530D01*
X18620965Y-53147830D01*
X18620967Y-53147834D01*
X18641371Y-53176973D01*
X18740502Y-53318547D01*
X18756501Y-53341395D01*
X18756506Y-53341402D01*
X18923597Y-53508493D01*
X18923603Y-53508498D01*
X19109158Y-53638425D01*
X19152783Y-53693002D01*
X19159977Y-53762500D01*
X19128454Y-53824855D01*
X19109158Y-53841575D01*
X18923597Y-53971505D01*
X18756505Y-54138597D01*
X18620965Y-54332169D01*
X18620964Y-54332171D01*
X18521098Y-54546335D01*
X18521094Y-54546344D01*
X18459938Y-54774586D01*
X18459936Y-54774596D01*
X18439341Y-55009999D01*
X18439341Y-55010000D01*
X17853500Y-55010000D01*
X17853500Y-21963501D01*
X19899518Y-21963501D01*
X19919422Y-22241799D01*
X19978727Y-22514416D01*
X19978729Y-22514423D01*
X20005958Y-22587427D01*
X20076231Y-22775838D01*
X20076233Y-22775842D01*
X20209940Y-23020707D01*
X20209945Y-23020715D01*
X20377138Y-23244060D01*
X20377154Y-23244078D01*
X20574421Y-23441345D01*
X20574439Y-23441361D01*
X20797784Y-23608554D01*
X20797792Y-23608559D01*
X21042657Y-23742266D01*
X21042661Y-23742268D01*
X21042663Y-23742269D01*
X21304077Y-23839771D01*
X21440391Y-23869424D01*
X21576700Y-23899077D01*
X21576702Y-23899077D01*
X21576706Y-23899078D01*
X21785343Y-23914000D01*
X21924657Y-23914000D01*
X22133294Y-23899078D01*
X22405923Y-23839771D01*
X22667337Y-23742269D01*
X22912213Y-23608556D01*
X23135568Y-23441355D01*
X23332855Y-23244068D01*
X23500056Y-23020713D01*
X23633769Y-22775837D01*
X23731271Y-22514423D01*
X23790578Y-22241794D01*
X23810482Y-21963500D01*
X23790578Y-21685206D01*
X23731271Y-21412577D01*
X23633769Y-21151163D01*
X23500056Y-20906287D01*
X23500054Y-20906284D01*
X23332861Y-20682939D01*
X23332845Y-20682921D01*
X23135578Y-20485654D01*
X23135560Y-20485638D01*
X22912215Y-20318445D01*
X22912207Y-20318440D01*
X22667342Y-20184733D01*
X22667338Y-20184731D01*
X22568230Y-20147766D01*
X22405923Y-20087229D01*
X22405919Y-20087228D01*
X22405916Y-20087227D01*
X22133299Y-20027922D01*
X21924659Y-20013000D01*
X21924657Y-20013000D01*
X21785343Y-20013000D01*
X21785340Y-20013000D01*
X21576700Y-20027922D01*
X21304083Y-20087227D01*
X21304078Y-20087228D01*
X21304077Y-20087229D01*
X21240875Y-20110801D01*
X21042661Y-20184731D01*
X21042657Y-20184733D01*
X20797792Y-20318440D01*
X20797784Y-20318445D01*
X20574439Y-20485638D01*
X20574421Y-20485654D01*
X20377154Y-20682921D01*
X20377138Y-20682939D01*
X20209945Y-20906284D01*
X20209940Y-20906292D01*
X20076233Y-21151157D01*
X20076231Y-21151161D01*
X19978727Y-21412583D01*
X19919422Y-21685200D01*
X19899518Y-21963498D01*
X19899518Y-21963501D01*
X17853500Y-21963501D01*
X17853500Y-18728544D01*
X17853797Y-18722479D01*
X17856978Y-18690182D01*
X17869420Y-18579765D01*
X17873978Y-18557666D01*
X17873979Y-18557664D01*
X17889753Y-18505661D01*
X17890543Y-18503245D01*
X17917797Y-18425357D01*
X17925462Y-18407901D01*
X17953983Y-18354541D01*
X17956107Y-18350882D01*
X17999873Y-18281228D01*
X18004426Y-18274906D01*
X18046849Y-18223213D01*
X18050890Y-18218754D01*
X18108253Y-18161391D01*
X18112713Y-18157349D01*
X18164406Y-18114926D01*
X18170728Y-18110373D01*
X18240382Y-18066607D01*
X18244041Y-18064483D01*
X18297401Y-18035962D01*
X18314857Y-18028297D01*
X18392745Y-18001043D01*
X18395147Y-18000258D01*
X18447174Y-17984475D01*
X18469265Y-17979920D01*
X18579702Y-17967476D01*
X18611979Y-17964297D01*
X18618047Y-17964000D01*
X51171952Y-17964000D01*
X51178031Y-17964299D01*
G37*
G04 #@! TD.AperFunction*
G04 #@! TA.AperFunction,NonConductor*
G36*
X48938802Y-23720310D02*
G01*
X48980673Y-23776243D01*
X48987992Y-23808461D01*
X48990810Y-23839771D01*
X48999622Y-23937686D01*
X48999623Y-23937692D01*
X49059503Y-24154660D01*
X49059508Y-24154673D01*
X49157167Y-24357466D01*
X49157171Y-24357474D01*
X49289473Y-24539572D01*
X49289474Y-24539574D01*
X49452176Y-24695133D01*
X49640033Y-24819136D01*
X49847004Y-24907600D01*
X49847007Y-24907601D01*
X49847012Y-24907603D01*
X49995893Y-24941584D01*
X49996165Y-24941646D01*
X50057144Y-24975754D01*
X50090002Y-25037416D01*
X50084307Y-25107053D01*
X50041867Y-25162557D01*
X49985220Y-25185414D01*
X49955613Y-25189425D01*
X49955611Y-25189425D01*
X49955608Y-25189426D01*
X49741534Y-25258983D01*
X49543321Y-25365646D01*
X49543318Y-25365648D01*
X49367336Y-25505989D01*
X49296186Y-25587427D01*
X49219235Y-25675504D01*
X49205494Y-25698503D01*
X49103783Y-25868738D01*
X49101612Y-25873247D01*
X49054787Y-25925105D01*
X48987359Y-25943415D01*
X48920736Y-25922364D01*
X48902213Y-25907122D01*
X46912618Y-23917527D01*
X46879133Y-23856204D01*
X46878292Y-23807703D01*
X46880457Y-23795774D01*
X46911797Y-23733327D01*
X46971923Y-23697737D01*
X47041745Y-23700303D01*
X47061889Y-23709083D01*
X47122663Y-23742269D01*
X47384077Y-23839771D01*
X47520391Y-23869424D01*
X47656700Y-23899077D01*
X47656702Y-23899077D01*
X47656706Y-23899078D01*
X47865343Y-23914000D01*
X48004657Y-23914000D01*
X48213294Y-23899078D01*
X48485923Y-23839771D01*
X48747337Y-23742269D01*
X48805068Y-23710745D01*
X48873337Y-23695894D01*
X48938802Y-23720310D01*
G37*
G04 #@! TD.AperFunction*
G04 #@! TA.AperFunction,NonConductor*
G36*
X28856643Y-27006234D02*
G01*
X30594197Y-28743788D01*
X30604022Y-28756051D01*
X30604243Y-28755869D01*
X30609211Y-28761874D01*
X30658932Y-28808566D01*
X30660332Y-28809923D01*
X30680523Y-28830115D01*
X30680527Y-28830118D01*
X30680529Y-28830120D01*
X30686011Y-28834373D01*
X30690443Y-28838157D01*
X30724418Y-28870062D01*
X30741976Y-28879714D01*
X30758233Y-28890393D01*
X30774064Y-28902673D01*
X30793737Y-28911186D01*
X30816833Y-28921182D01*
X30822077Y-28923750D01*
X30862908Y-28946197D01*
X30875523Y-28949435D01*
X30882305Y-28951177D01*
X30900719Y-28957481D01*
X30919104Y-28965438D01*
X30965157Y-28972732D01*
X30970826Y-28973906D01*
X31015981Y-28985500D01*
X31036016Y-28985500D01*
X31055413Y-28987026D01*
X31075196Y-28990160D01*
X31121583Y-28985775D01*
X31127422Y-28985500D01*
X41085707Y-28985500D01*
X41152746Y-29005185D01*
X41198501Y-29057989D01*
X41208445Y-29127147D01*
X41199261Y-29159314D01*
X41198336Y-29161422D01*
X41142323Y-29382608D01*
X41142321Y-29382616D01*
X41123481Y-29609994D01*
X41123481Y-29610005D01*
X41142321Y-29837383D01*
X41142323Y-29837391D01*
X41198335Y-30058577D01*
X41289989Y-30267529D01*
X41414787Y-30458548D01*
X41537079Y-30591391D01*
X41568002Y-30654045D01*
X41560142Y-30723471D01*
X41515995Y-30777627D01*
X41489183Y-30791556D01*
X41386371Y-30829902D01*
X41386364Y-30829906D01*
X41271155Y-30916152D01*
X41271152Y-30916155D01*
X41184906Y-31031364D01*
X41184902Y-31031371D01*
X41134608Y-31166217D01*
X41131212Y-31197809D01*
X41128200Y-31225827D01*
X41128200Y-31994815D01*
X41128201Y-32650500D01*
X41108516Y-32717539D01*
X41055713Y-32763294D01*
X41004201Y-32774500D01*
X39394039Y-32774500D01*
X39327000Y-32754815D01*
X39281245Y-32702011D01*
X39272183Y-32646498D01*
X39270460Y-32646498D01*
X39270460Y-32640002D01*
X39270362Y-32639068D01*
X39250674Y-32451744D01*
X39192179Y-32271716D01*
X39097533Y-32107784D01*
X38970871Y-31967112D01*
X38970870Y-31967111D01*
X38817734Y-31855851D01*
X38817729Y-31855848D01*
X38644807Y-31778857D01*
X38644802Y-31778855D01*
X38499001Y-31747865D01*
X38459646Y-31739500D01*
X38270354Y-31739500D01*
X38237897Y-31746398D01*
X38085197Y-31778855D01*
X38085192Y-31778857D01*
X37912270Y-31855848D01*
X37912265Y-31855851D01*
X37759130Y-31967110D01*
X37759126Y-31967114D01*
X37753400Y-31973474D01*
X37693913Y-32010121D01*
X37661252Y-32014500D01*
X33145452Y-32014500D01*
X33078413Y-31994815D01*
X33057771Y-31978181D01*
X28626840Y-27547249D01*
X28593355Y-27485926D01*
X28594316Y-27429126D01*
X28627675Y-27297399D01*
X28627676Y-27297395D01*
X28627676Y-27297394D01*
X28627677Y-27297391D01*
X28645386Y-27083672D01*
X28670539Y-27018490D01*
X28726941Y-26977252D01*
X28796684Y-26973054D01*
X28856643Y-27006234D01*
G37*
G04 #@! TD.AperFunction*
G04 #@! TA.AperFunction,NonConductor*
G36*
X29320500Y-32774500D02*
G01*
X28765800Y-32774500D01*
X28698761Y-32754815D01*
X28672635Y-32724664D01*
X29320500Y-32774500D01*
G37*
G04 #@! TD.AperFunction*
G04 #@! TA.AperFunction,NonConductor*
G36*
X25804371Y-26977732D02*
G01*
X25860304Y-27019604D01*
X25884613Y-27083674D01*
X25902321Y-27297382D01*
X25902323Y-27297391D01*
X25958335Y-27518577D01*
X26049989Y-27727529D01*
X26174787Y-27918548D01*
X26329319Y-28086413D01*
X26329323Y-28086417D01*
X26397070Y-28139146D01*
X26437883Y-28195856D01*
X26441558Y-28265629D01*
X26406927Y-28326313D01*
X26377203Y-28347485D01*
X26312810Y-28380294D01*
X26159467Y-28504467D01*
X26035294Y-28657810D01*
X25945717Y-28833616D01*
X25894649Y-29024205D01*
X25888200Y-29106153D01*
X25888200Y-30113830D01*
X25888201Y-30113849D01*
X25894649Y-30195794D01*
X25945717Y-30386383D01*
X26035294Y-30562189D01*
X26159470Y-30715535D01*
X26243566Y-30783634D01*
X26283278Y-30841121D01*
X26285606Y-30910952D01*
X26249811Y-30970956D01*
X26243566Y-30976366D01*
X26159470Y-31044464D01*
X26035294Y-31197810D01*
X25945717Y-31373615D01*
X25893586Y-31568173D01*
X25857221Y-31627833D01*
X25794374Y-31658362D01*
X25724998Y-31650067D01*
X25681662Y-31619052D01*
X25580871Y-31507112D01*
X25580870Y-31507111D01*
X25427734Y-31395851D01*
X25427729Y-31395848D01*
X25254807Y-31318857D01*
X25254802Y-31318855D01*
X25109000Y-31287865D01*
X25069646Y-31279500D01*
X24880354Y-31279500D01*
X24847897Y-31286398D01*
X24695197Y-31318855D01*
X24695192Y-31318857D01*
X24522270Y-31395848D01*
X24522265Y-31395851D01*
X24369129Y-31507111D01*
X24242466Y-31647785D01*
X24147821Y-31811715D01*
X24147818Y-31811722D01*
X24095262Y-31973474D01*
X24089326Y-31991744D01*
X24078324Y-32096421D01*
X24070504Y-32170824D01*
X24043919Y-32235439D01*
X24034864Y-32245543D01*
X23821208Y-32459199D01*
X23808951Y-32469020D01*
X23809134Y-32469241D01*
X23803122Y-32474214D01*
X23756432Y-32523932D01*
X23755079Y-32525329D01*
X23734889Y-32545519D01*
X23734877Y-32545532D01*
X23730621Y-32551017D01*
X23726837Y-32555447D01*
X23694937Y-32589418D01*
X23694936Y-32589420D01*
X23685284Y-32606976D01*
X23674610Y-32623226D01*
X23662329Y-32639061D01*
X23662324Y-32639068D01*
X23643815Y-32681838D01*
X23641245Y-32687084D01*
X23618803Y-32727906D01*
X23613822Y-32747307D01*
X23607521Y-32765710D01*
X23599562Y-32784102D01*
X23599561Y-32784105D01*
X23592271Y-32830127D01*
X23591087Y-32835846D01*
X23579501Y-32880972D01*
X23579500Y-32880982D01*
X23579500Y-32901016D01*
X23577973Y-32920415D01*
X23574840Y-32940194D01*
X23574839Y-32940197D01*
X23579224Y-32986585D01*
X23579499Y-32992421D01*
X23579499Y-33725241D01*
X23559814Y-33792280D01*
X23507010Y-33838035D01*
X23437852Y-33847979D01*
X23374296Y-33818954D01*
X23367818Y-33812922D01*
X23206402Y-33651506D01*
X23206401Y-33651505D01*
X23073093Y-33558161D01*
X23013376Y-33516347D01*
X22969751Y-33461770D01*
X22960500Y-33414772D01*
X22960500Y-29770451D01*
X22980185Y-29703412D01*
X22996814Y-29682775D01*
X25673358Y-27006231D01*
X25734679Y-26972748D01*
X25804371Y-26977732D01*
G37*
G04 #@! TD.AperFunction*
G04 #@! TA.AperFunction,NonConductor*
G36*
X41170291Y-34045185D02*
G01*
X41216046Y-34097989D01*
X41225990Y-34167147D01*
X41216808Y-34199310D01*
X41198336Y-34241422D01*
X41142323Y-34462608D01*
X41142321Y-34462616D01*
X41123481Y-34689994D01*
X41123481Y-34690005D01*
X41142321Y-34917383D01*
X41142323Y-34917391D01*
X41198335Y-35138577D01*
X41203649Y-35150690D01*
X41212552Y-35219991D01*
X41182574Y-35283103D01*
X41123235Y-35319989D01*
X41090093Y-35324500D01*
X28679907Y-35324500D01*
X28612868Y-35304815D01*
X28567113Y-35252011D01*
X28557169Y-35182853D01*
X28566352Y-35150688D01*
X28571664Y-35138578D01*
X28627677Y-34917391D01*
X28646519Y-34690000D01*
X28643639Y-34655249D01*
X28627678Y-34462616D01*
X28627676Y-34462608D01*
X28625645Y-34454586D01*
X28594316Y-34330873D01*
X28596940Y-34261052D01*
X28626840Y-34212749D01*
X28640280Y-34199310D01*
X28714136Y-34125453D01*
X28777773Y-34061818D01*
X28839097Y-34028334D01*
X28865454Y-34025500D01*
X41103252Y-34025500D01*
X41170291Y-34045185D01*
G37*
G04 #@! TD.AperFunction*
G04 #@! TA.AperFunction,NonConductor*
G36*
X41165905Y-36595185D02*
G01*
X41211660Y-36647989D01*
X41221604Y-36717147D01*
X41212422Y-36749310D01*
X41198335Y-36781422D01*
X41142323Y-37002608D01*
X41142321Y-37002616D01*
X41123481Y-37229994D01*
X41123481Y-37230005D01*
X41142321Y-37457383D01*
X41142323Y-37457391D01*
X41198335Y-37678577D01*
X41203649Y-37690690D01*
X41212552Y-37759991D01*
X41182574Y-37823103D01*
X41123235Y-37859989D01*
X41090093Y-37864500D01*
X28679907Y-37864500D01*
X28612868Y-37844815D01*
X28567113Y-37792011D01*
X28557169Y-37722853D01*
X28566352Y-37690688D01*
X28571664Y-37678578D01*
X28627677Y-37457391D01*
X28646519Y-37230000D01*
X28643639Y-37195249D01*
X28627678Y-37002616D01*
X28627676Y-37002608D01*
X28625645Y-36994586D01*
X28594316Y-36870873D01*
X28596940Y-36801052D01*
X28626840Y-36752749D01*
X28767773Y-36611818D01*
X28829097Y-36578334D01*
X28855454Y-36575500D01*
X41098866Y-36575500D01*
X41165905Y-36595185D01*
G37*
G04 #@! TD.AperFunction*
G04 #@! TA.AperFunction,NonConductor*
G36*
X41165905Y-39135185D02*
G01*
X41211660Y-39187989D01*
X41221604Y-39257147D01*
X41212422Y-39289310D01*
X41198335Y-39321422D01*
X41142323Y-39542608D01*
X41142321Y-39542616D01*
X41123481Y-39769994D01*
X41123481Y-39770005D01*
X41142321Y-39997383D01*
X41142323Y-39997391D01*
X41198335Y-40218576D01*
X41198336Y-40218577D01*
X41199261Y-40220686D01*
X41199381Y-40221621D01*
X41199999Y-40223421D01*
X41199628Y-40223548D01*
X41208166Y-40289985D01*
X41178192Y-40353099D01*
X41118854Y-40389988D01*
X41085707Y-40394500D01*
X28684294Y-40394500D01*
X28617255Y-40374815D01*
X28571500Y-40322011D01*
X28561556Y-40252853D01*
X28570736Y-40220693D01*
X28570739Y-40220686D01*
X28571664Y-40218578D01*
X28627677Y-39997391D01*
X28646519Y-39770000D01*
X28643639Y-39735249D01*
X28627678Y-39542616D01*
X28627676Y-39542608D01*
X28625645Y-39534586D01*
X28594316Y-39410873D01*
X28596940Y-39341052D01*
X28626840Y-39292749D01*
X28660920Y-39258670D01*
X28731601Y-39187989D01*
X28767773Y-39151818D01*
X28829097Y-39118334D01*
X28855454Y-39115500D01*
X41098866Y-39115500D01*
X41165905Y-39135185D01*
G37*
G04 #@! TD.AperFunction*
G04 #@! TA.AperFunction,NonConductor*
G36*
X41170291Y-41665185D02*
G01*
X41216046Y-41717989D01*
X41225990Y-41787147D01*
X41216808Y-41819310D01*
X41198336Y-41861422D01*
X41142323Y-42082608D01*
X41142321Y-42082616D01*
X41123481Y-42309994D01*
X41123481Y-42310005D01*
X41142321Y-42537383D01*
X41142323Y-42537391D01*
X41198335Y-42758577D01*
X41203649Y-42770690D01*
X41212552Y-42839991D01*
X41182574Y-42903103D01*
X41123235Y-42939989D01*
X41090093Y-42944500D01*
X28679907Y-42944500D01*
X28612868Y-42924815D01*
X28567113Y-42872011D01*
X28557169Y-42802853D01*
X28566352Y-42770688D01*
X28571662Y-42758582D01*
X28571664Y-42758578D01*
X28627677Y-42537391D01*
X28646519Y-42310000D01*
X28643741Y-42276479D01*
X28627678Y-42082616D01*
X28627676Y-42082608D01*
X28625645Y-42074586D01*
X28594316Y-41950873D01*
X28596940Y-41881052D01*
X28626840Y-41832749D01*
X28640280Y-41819310D01*
X28735180Y-41724410D01*
X28777773Y-41681818D01*
X28839097Y-41648334D01*
X28865454Y-41645500D01*
X41103252Y-41645500D01*
X41170291Y-41665185D01*
G37*
G04 #@! TD.AperFunction*
G04 #@! TA.AperFunction,NonConductor*
G36*
X41165905Y-44215185D02*
G01*
X41211660Y-44267989D01*
X41221604Y-44337147D01*
X41212422Y-44369310D01*
X41198335Y-44401422D01*
X41142323Y-44622608D01*
X41142321Y-44622616D01*
X41123481Y-44849994D01*
X41123481Y-44850005D01*
X41142321Y-45077383D01*
X41142323Y-45077391D01*
X41198335Y-45298577D01*
X41203649Y-45310690D01*
X41212552Y-45379991D01*
X41182574Y-45443103D01*
X41123235Y-45479989D01*
X41090093Y-45484500D01*
X28679907Y-45484500D01*
X28612868Y-45464815D01*
X28567113Y-45412011D01*
X28557169Y-45342853D01*
X28566352Y-45310688D01*
X28571664Y-45298578D01*
X28627677Y-45077391D01*
X28640043Y-44928155D01*
X28646519Y-44850005D01*
X28646519Y-44849994D01*
X28627678Y-44622616D01*
X28627676Y-44622608D01*
X28625645Y-44614586D01*
X28594316Y-44490873D01*
X28596940Y-44421052D01*
X28626840Y-44372749D01*
X28659646Y-44339944D01*
X28731601Y-44267989D01*
X28767773Y-44231818D01*
X28829097Y-44198334D01*
X28855454Y-44195500D01*
X41098866Y-44195500D01*
X41165905Y-44215185D01*
G37*
G04 #@! TD.AperFunction*
G04 #@! TA.AperFunction,NonConductor*
G36*
X41165905Y-46755185D02*
G01*
X41211660Y-46807989D01*
X41221604Y-46877147D01*
X41212422Y-46909310D01*
X41198335Y-46941422D01*
X41142323Y-47162608D01*
X41142321Y-47162616D01*
X41123481Y-47389994D01*
X41123481Y-47390005D01*
X41142321Y-47617383D01*
X41142323Y-47617391D01*
X41198335Y-47838577D01*
X41203649Y-47850690D01*
X41212552Y-47919991D01*
X41182574Y-47983103D01*
X41123235Y-48019989D01*
X41090093Y-48024500D01*
X28679907Y-48024500D01*
X28612868Y-48004815D01*
X28567113Y-47952011D01*
X28557169Y-47882853D01*
X28566352Y-47850688D01*
X28571664Y-47838578D01*
X28627677Y-47617391D01*
X28646519Y-47390000D01*
X28643639Y-47355249D01*
X28627678Y-47162616D01*
X28627676Y-47162608D01*
X28625645Y-47154586D01*
X28594316Y-47030873D01*
X28596940Y-46961052D01*
X28626840Y-46912749D01*
X28638438Y-46901152D01*
X28767772Y-46771818D01*
X28829097Y-46738334D01*
X28855454Y-46735500D01*
X41098866Y-46735500D01*
X41165905Y-46755185D01*
G37*
G04 #@! TD.AperFunction*
G04 #@! TA.AperFunction,NonConductor*
G36*
X41165905Y-49295185D02*
G01*
X41211660Y-49347989D01*
X41221604Y-49417147D01*
X41212422Y-49449310D01*
X41198335Y-49481422D01*
X41142323Y-49702608D01*
X41142321Y-49702616D01*
X41123481Y-49929994D01*
X41123481Y-49930005D01*
X41142321Y-50157383D01*
X41142323Y-50157391D01*
X41198335Y-50378577D01*
X41212422Y-50410690D01*
X41221325Y-50479990D01*
X41191348Y-50543102D01*
X41132009Y-50579989D01*
X41098866Y-50584500D01*
X28671134Y-50584500D01*
X28604095Y-50564815D01*
X28558340Y-50512011D01*
X28548396Y-50442853D01*
X28557578Y-50410690D01*
X28561376Y-50402032D01*
X28571664Y-50378578D01*
X28627677Y-50157391D01*
X28646519Y-49930000D01*
X28643639Y-49895249D01*
X28627678Y-49702616D01*
X28627676Y-49702608D01*
X28625645Y-49694586D01*
X28594316Y-49570873D01*
X28596940Y-49501052D01*
X28626840Y-49452749D01*
X28767773Y-49311818D01*
X28829097Y-49278334D01*
X28855454Y-49275500D01*
X41098866Y-49275500D01*
X41165905Y-49295185D01*
G37*
G04 #@! TD.AperFunction*
M02*
