G04 #@! TF.GenerationSoftware,KiCad,Pcbnew,7.0.5*
G04 #@! TF.CreationDate,2023-08-20T01:56:51+08:00*
G04 #@! TF.ProjectId,handwire microboard,68616e64-7769-4726-9520-6d6963726f62,rev?*
G04 #@! TF.SameCoordinates,Original*
G04 #@! TF.FileFunction,Legend,Bot*
G04 #@! TF.FilePolarity,Positive*
%FSLAX46Y46*%
G04 Gerber Fmt 4.6, Leading zero omitted, Abs format (unit mm)*
G04 Created by KiCad (PCBNEW 7.0.5) date 2023-08-20 01:56:51*
%MOMM*%
%LPD*%
G01*
G04 APERTURE LIST*
G04 Aperture macros list*
%AMRoundRect*
0 Rectangle with rounded corners*
0 $1 Rounding radius*
0 $2 $3 $4 $5 $6 $7 $8 $9 X,Y pos of 4 corners*
0 Add a 4 corners polygon primitive as box body*
4,1,4,$2,$3,$4,$5,$6,$7,$8,$9,$2,$3,0*
0 Add four circle primitives for the rounded corners*
1,1,$1+$1,$2,$3*
1,1,$1+$1,$4,$5*
1,1,$1+$1,$6,$7*
1,1,$1+$1,$8,$9*
0 Add four rect primitives between the rounded corners*
20,1,$1+$1,$2,$3,$4,$5,0*
20,1,$1+$1,$4,$5,$6,$7,0*
20,1,$1+$1,$6,$7,$8,$9,0*
20,1,$1+$1,$8,$9,$2,$3,0*%
%AMOutline4P*
0 Free polygon, 4 corners , with rotation*
0 The origin of the aperture is its center*
0 number of corners: always 4*
0 $1 to $8 corner X, Y*
0 $9 Rotation angle, in degrees counterclockwise*
0 create outline with 4 corners*
4,1,4,$1,$2,$3,$4,$5,$6,$7,$8,$1,$2,$9*%
G04 Aperture macros list end*
%ADD10C,0.150000*%
%ADD11C,0.120000*%
%ADD12C,0.200000*%
%ADD13C,0.010000*%
%ADD14C,1.752600*%
%ADD15RoundRect,0.438150X-0.438150X0.438150X-0.438150X-0.438150X0.438150X-0.438150X0.438150X0.438150X0*%
%ADD16Outline4P,-0.876300X-0.876300X0.876300X-0.876300X0.876300X0.876300X-0.876300X0.876300X270.000000*%
%ADD17C,3.400000*%
%ADD18C,0.800000*%
%ADD19O,3.029000X1.576000*%
%ADD20O,1.800000X1.500000*%
%ADD21C,2.000000*%
%ADD22C,1.700000*%
%ADD23O,1.700000X1.700000*%
%ADD24O,1.576000X3.029000*%
%ADD25O,1.500000X1.800000*%
%ADD26RoundRect,0.425000X0.425000X-0.425000X0.425000X0.425000X-0.425000X0.425000X-0.425000X-0.425000X0*%
G04 APERTURE END LIST*
D10*
X24967295Y-60679524D02*
X24167295Y-60679524D01*
X24167295Y-60679524D02*
X24167295Y-60870000D01*
X24167295Y-60870000D02*
X24205390Y-60984286D01*
X24205390Y-60984286D02*
X24281580Y-61060476D01*
X24281580Y-61060476D02*
X24357771Y-61098571D01*
X24357771Y-61098571D02*
X24510152Y-61136667D01*
X24510152Y-61136667D02*
X24624438Y-61136667D01*
X24624438Y-61136667D02*
X24776819Y-61098571D01*
X24776819Y-61098571D02*
X24853009Y-61060476D01*
X24853009Y-61060476D02*
X24929200Y-60984286D01*
X24929200Y-60984286D02*
X24967295Y-60870000D01*
X24967295Y-60870000D02*
X24967295Y-60679524D01*
X24243485Y-61441428D02*
X24205390Y-61479524D01*
X24205390Y-61479524D02*
X24167295Y-61555714D01*
X24167295Y-61555714D02*
X24167295Y-61746190D01*
X24167295Y-61746190D02*
X24205390Y-61822381D01*
X24205390Y-61822381D02*
X24243485Y-61860476D01*
X24243485Y-61860476D02*
X24319676Y-61898571D01*
X24319676Y-61898571D02*
X24395866Y-61898571D01*
X24395866Y-61898571D02*
X24510152Y-61860476D01*
X24510152Y-61860476D02*
X24967295Y-61403333D01*
X24967295Y-61403333D02*
X24967295Y-61898571D01*
X30617295Y-60203333D02*
X31417295Y-60470000D01*
X31417295Y-60470000D02*
X30617295Y-60736666D01*
X31341104Y-61460476D02*
X31379200Y-61422380D01*
X31379200Y-61422380D02*
X31417295Y-61308095D01*
X31417295Y-61308095D02*
X31417295Y-61231904D01*
X31417295Y-61231904D02*
X31379200Y-61117618D01*
X31379200Y-61117618D02*
X31303009Y-61041428D01*
X31303009Y-61041428D02*
X31226819Y-61003333D01*
X31226819Y-61003333D02*
X31074438Y-60965237D01*
X31074438Y-60965237D02*
X30960152Y-60965237D01*
X30960152Y-60965237D02*
X30807771Y-61003333D01*
X30807771Y-61003333D02*
X30731580Y-61041428D01*
X30731580Y-61041428D02*
X30655390Y-61117618D01*
X30655390Y-61117618D02*
X30617295Y-61231904D01*
X30617295Y-61231904D02*
X30617295Y-61308095D01*
X30617295Y-61308095D02*
X30655390Y-61422380D01*
X30655390Y-61422380D02*
X30693485Y-61460476D01*
X31341104Y-62260476D02*
X31379200Y-62222380D01*
X31379200Y-62222380D02*
X31417295Y-62108095D01*
X31417295Y-62108095D02*
X31417295Y-62031904D01*
X31417295Y-62031904D02*
X31379200Y-61917618D01*
X31379200Y-61917618D02*
X31303009Y-61841428D01*
X31303009Y-61841428D02*
X31226819Y-61803333D01*
X31226819Y-61803333D02*
X31074438Y-61765237D01*
X31074438Y-61765237D02*
X30960152Y-61765237D01*
X30960152Y-61765237D02*
X30807771Y-61803333D01*
X30807771Y-61803333D02*
X30731580Y-61841428D01*
X30731580Y-61841428D02*
X30655390Y-61917618D01*
X30655390Y-61917618D02*
X30617295Y-62031904D01*
X30617295Y-62031904D02*
X30617295Y-62108095D01*
X30617295Y-62108095D02*
X30655390Y-62222380D01*
X30655390Y-62222380D02*
X30693485Y-62260476D01*
X26055390Y-60660476D02*
X26017295Y-60584286D01*
X26017295Y-60584286D02*
X26017295Y-60470000D01*
X26017295Y-60470000D02*
X26055390Y-60355714D01*
X26055390Y-60355714D02*
X26131580Y-60279524D01*
X26131580Y-60279524D02*
X26207771Y-60241429D01*
X26207771Y-60241429D02*
X26360152Y-60203333D01*
X26360152Y-60203333D02*
X26474438Y-60203333D01*
X26474438Y-60203333D02*
X26626819Y-60241429D01*
X26626819Y-60241429D02*
X26703009Y-60279524D01*
X26703009Y-60279524D02*
X26779200Y-60355714D01*
X26779200Y-60355714D02*
X26817295Y-60470000D01*
X26817295Y-60470000D02*
X26817295Y-60546191D01*
X26817295Y-60546191D02*
X26779200Y-60660476D01*
X26779200Y-60660476D02*
X26741104Y-60698572D01*
X26741104Y-60698572D02*
X26474438Y-60698572D01*
X26474438Y-60698572D02*
X26474438Y-60546191D01*
X26817295Y-61041429D02*
X26017295Y-61041429D01*
X26017295Y-61041429D02*
X26817295Y-61498572D01*
X26817295Y-61498572D02*
X26017295Y-61498572D01*
X26817295Y-61879524D02*
X26017295Y-61879524D01*
X26017295Y-61879524D02*
X26017295Y-62070000D01*
X26017295Y-62070000D02*
X26055390Y-62184286D01*
X26055390Y-62184286D02*
X26131580Y-62260476D01*
X26131580Y-62260476D02*
X26207771Y-62298571D01*
X26207771Y-62298571D02*
X26360152Y-62336667D01*
X26360152Y-62336667D02*
X26474438Y-62336667D01*
X26474438Y-62336667D02*
X26626819Y-62298571D01*
X26626819Y-62298571D02*
X26703009Y-62260476D01*
X26703009Y-62260476D02*
X26779200Y-62184286D01*
X26779200Y-62184286D02*
X26817295Y-62070000D01*
X26817295Y-62070000D02*
X26817295Y-61879524D01*
X39553094Y-64042295D02*
X39819761Y-63661342D01*
X40010237Y-64042295D02*
X40010237Y-63242295D01*
X40010237Y-63242295D02*
X39705475Y-63242295D01*
X39705475Y-63242295D02*
X39629285Y-63280390D01*
X39629285Y-63280390D02*
X39591190Y-63318485D01*
X39591190Y-63318485D02*
X39553094Y-63394676D01*
X39553094Y-63394676D02*
X39553094Y-63508961D01*
X39553094Y-63508961D02*
X39591190Y-63585152D01*
X39591190Y-63585152D02*
X39629285Y-63623247D01*
X39629285Y-63623247D02*
X39705475Y-63661342D01*
X39705475Y-63661342D02*
X40010237Y-63661342D01*
X39248333Y-64004200D02*
X39134047Y-64042295D01*
X39134047Y-64042295D02*
X38943571Y-64042295D01*
X38943571Y-64042295D02*
X38867380Y-64004200D01*
X38867380Y-64004200D02*
X38829285Y-63966104D01*
X38829285Y-63966104D02*
X38791190Y-63889914D01*
X38791190Y-63889914D02*
X38791190Y-63813723D01*
X38791190Y-63813723D02*
X38829285Y-63737533D01*
X38829285Y-63737533D02*
X38867380Y-63699438D01*
X38867380Y-63699438D02*
X38943571Y-63661342D01*
X38943571Y-63661342D02*
X39095952Y-63623247D01*
X39095952Y-63623247D02*
X39172142Y-63585152D01*
X39172142Y-63585152D02*
X39210237Y-63547057D01*
X39210237Y-63547057D02*
X39248333Y-63470866D01*
X39248333Y-63470866D02*
X39248333Y-63394676D01*
X39248333Y-63394676D02*
X39210237Y-63318485D01*
X39210237Y-63318485D02*
X39172142Y-63280390D01*
X39172142Y-63280390D02*
X39095952Y-63242295D01*
X39095952Y-63242295D02*
X38905475Y-63242295D01*
X38905475Y-63242295D02*
X38791190Y-63280390D01*
X38562618Y-63242295D02*
X38105475Y-63242295D01*
X38334047Y-64042295D02*
X38334047Y-63242295D01*
X39724523Y-58780390D02*
X39800713Y-58742295D01*
X39800713Y-58742295D02*
X39914999Y-58742295D01*
X39914999Y-58742295D02*
X40029285Y-58780390D01*
X40029285Y-58780390D02*
X40105475Y-58856580D01*
X40105475Y-58856580D02*
X40143570Y-58932771D01*
X40143570Y-58932771D02*
X40181666Y-59085152D01*
X40181666Y-59085152D02*
X40181666Y-59199438D01*
X40181666Y-59199438D02*
X40143570Y-59351819D01*
X40143570Y-59351819D02*
X40105475Y-59428009D01*
X40105475Y-59428009D02*
X40029285Y-59504200D01*
X40029285Y-59504200D02*
X39914999Y-59542295D01*
X39914999Y-59542295D02*
X39838808Y-59542295D01*
X39838808Y-59542295D02*
X39724523Y-59504200D01*
X39724523Y-59504200D02*
X39686427Y-59466104D01*
X39686427Y-59466104D02*
X39686427Y-59199438D01*
X39686427Y-59199438D02*
X39838808Y-59199438D01*
X39343570Y-59542295D02*
X39343570Y-58742295D01*
X39343570Y-58742295D02*
X38886427Y-59542295D01*
X38886427Y-59542295D02*
X38886427Y-58742295D01*
X38505475Y-59542295D02*
X38505475Y-58742295D01*
X38505475Y-58742295D02*
X38314999Y-58742295D01*
X38314999Y-58742295D02*
X38200713Y-58780390D01*
X38200713Y-58780390D02*
X38124523Y-58856580D01*
X38124523Y-58856580D02*
X38086428Y-58932771D01*
X38086428Y-58932771D02*
X38048332Y-59085152D01*
X38048332Y-59085152D02*
X38048332Y-59199438D01*
X38048332Y-59199438D02*
X38086428Y-59351819D01*
X38086428Y-59351819D02*
X38124523Y-59428009D01*
X38124523Y-59428009D02*
X38200713Y-59504200D01*
X38200713Y-59504200D02*
X38314999Y-59542295D01*
X38314999Y-59542295D02*
X38505475Y-59542295D01*
X40955523Y-26670390D02*
X41031713Y-26632295D01*
X41031713Y-26632295D02*
X41145999Y-26632295D01*
X41145999Y-26632295D02*
X41260285Y-26670390D01*
X41260285Y-26670390D02*
X41336475Y-26746580D01*
X41336475Y-26746580D02*
X41374570Y-26822771D01*
X41374570Y-26822771D02*
X41412666Y-26975152D01*
X41412666Y-26975152D02*
X41412666Y-27089438D01*
X41412666Y-27089438D02*
X41374570Y-27241819D01*
X41374570Y-27241819D02*
X41336475Y-27318009D01*
X41336475Y-27318009D02*
X41260285Y-27394200D01*
X41260285Y-27394200D02*
X41145999Y-27432295D01*
X41145999Y-27432295D02*
X41069808Y-27432295D01*
X41069808Y-27432295D02*
X40955523Y-27394200D01*
X40955523Y-27394200D02*
X40917427Y-27356104D01*
X40917427Y-27356104D02*
X40917427Y-27089438D01*
X40917427Y-27089438D02*
X41069808Y-27089438D01*
X40574570Y-27432295D02*
X40574570Y-26632295D01*
X40574570Y-26632295D02*
X40117427Y-27432295D01*
X40117427Y-27432295D02*
X40117427Y-26632295D01*
X39736475Y-27432295D02*
X39736475Y-26632295D01*
X39736475Y-26632295D02*
X39545999Y-26632295D01*
X39545999Y-26632295D02*
X39431713Y-26670390D01*
X39431713Y-26670390D02*
X39355523Y-26746580D01*
X39355523Y-26746580D02*
X39317428Y-26822771D01*
X39317428Y-26822771D02*
X39279332Y-26975152D01*
X39279332Y-26975152D02*
X39279332Y-27089438D01*
X39279332Y-27089438D02*
X39317428Y-27241819D01*
X39317428Y-27241819D02*
X39355523Y-27318009D01*
X39355523Y-27318009D02*
X39431713Y-27394200D01*
X39431713Y-27394200D02*
X39545999Y-27432295D01*
X39545999Y-27432295D02*
X39736475Y-27432295D01*
X30033523Y-29210390D02*
X30109713Y-29172295D01*
X30109713Y-29172295D02*
X30223999Y-29172295D01*
X30223999Y-29172295D02*
X30338285Y-29210390D01*
X30338285Y-29210390D02*
X30414475Y-29286580D01*
X30414475Y-29286580D02*
X30452570Y-29362771D01*
X30452570Y-29362771D02*
X30490666Y-29515152D01*
X30490666Y-29515152D02*
X30490666Y-29629438D01*
X30490666Y-29629438D02*
X30452570Y-29781819D01*
X30452570Y-29781819D02*
X30414475Y-29858009D01*
X30414475Y-29858009D02*
X30338285Y-29934200D01*
X30338285Y-29934200D02*
X30223999Y-29972295D01*
X30223999Y-29972295D02*
X30147808Y-29972295D01*
X30147808Y-29972295D02*
X30033523Y-29934200D01*
X30033523Y-29934200D02*
X29995427Y-29896104D01*
X29995427Y-29896104D02*
X29995427Y-29629438D01*
X29995427Y-29629438D02*
X30147808Y-29629438D01*
X29652570Y-29972295D02*
X29652570Y-29172295D01*
X29652570Y-29172295D02*
X29195427Y-29972295D01*
X29195427Y-29972295D02*
X29195427Y-29172295D01*
X28814475Y-29972295D02*
X28814475Y-29172295D01*
X28814475Y-29172295D02*
X28623999Y-29172295D01*
X28623999Y-29172295D02*
X28509713Y-29210390D01*
X28509713Y-29210390D02*
X28433523Y-29286580D01*
X28433523Y-29286580D02*
X28395428Y-29362771D01*
X28395428Y-29362771D02*
X28357332Y-29515152D01*
X28357332Y-29515152D02*
X28357332Y-29629438D01*
X28357332Y-29629438D02*
X28395428Y-29781819D01*
X28395428Y-29781819D02*
X28433523Y-29858009D01*
X28433523Y-29858009D02*
X28509713Y-29934200D01*
X28509713Y-29934200D02*
X28623999Y-29972295D01*
X28623999Y-29972295D02*
X28814475Y-29972295D01*
X30033523Y-31750390D02*
X30109713Y-31712295D01*
X30109713Y-31712295D02*
X30223999Y-31712295D01*
X30223999Y-31712295D02*
X30338285Y-31750390D01*
X30338285Y-31750390D02*
X30414475Y-31826580D01*
X30414475Y-31826580D02*
X30452570Y-31902771D01*
X30452570Y-31902771D02*
X30490666Y-32055152D01*
X30490666Y-32055152D02*
X30490666Y-32169438D01*
X30490666Y-32169438D02*
X30452570Y-32321819D01*
X30452570Y-32321819D02*
X30414475Y-32398009D01*
X30414475Y-32398009D02*
X30338285Y-32474200D01*
X30338285Y-32474200D02*
X30223999Y-32512295D01*
X30223999Y-32512295D02*
X30147808Y-32512295D01*
X30147808Y-32512295D02*
X30033523Y-32474200D01*
X30033523Y-32474200D02*
X29995427Y-32436104D01*
X29995427Y-32436104D02*
X29995427Y-32169438D01*
X29995427Y-32169438D02*
X30147808Y-32169438D01*
X29652570Y-32512295D02*
X29652570Y-31712295D01*
X29652570Y-31712295D02*
X29195427Y-32512295D01*
X29195427Y-32512295D02*
X29195427Y-31712295D01*
X28814475Y-32512295D02*
X28814475Y-31712295D01*
X28814475Y-31712295D02*
X28623999Y-31712295D01*
X28623999Y-31712295D02*
X28509713Y-31750390D01*
X28509713Y-31750390D02*
X28433523Y-31826580D01*
X28433523Y-31826580D02*
X28395428Y-31902771D01*
X28395428Y-31902771D02*
X28357332Y-32055152D01*
X28357332Y-32055152D02*
X28357332Y-32169438D01*
X28357332Y-32169438D02*
X28395428Y-32321819D01*
X28395428Y-32321819D02*
X28433523Y-32398009D01*
X28433523Y-32398009D02*
X28509713Y-32474200D01*
X28509713Y-32474200D02*
X28623999Y-32512295D01*
X28623999Y-32512295D02*
X28814475Y-32512295D01*
X40784094Y-29952295D02*
X41050761Y-29571342D01*
X41241237Y-29952295D02*
X41241237Y-29152295D01*
X41241237Y-29152295D02*
X40936475Y-29152295D01*
X40936475Y-29152295D02*
X40860285Y-29190390D01*
X40860285Y-29190390D02*
X40822190Y-29228485D01*
X40822190Y-29228485D02*
X40784094Y-29304676D01*
X40784094Y-29304676D02*
X40784094Y-29418961D01*
X40784094Y-29418961D02*
X40822190Y-29495152D01*
X40822190Y-29495152D02*
X40860285Y-29533247D01*
X40860285Y-29533247D02*
X40936475Y-29571342D01*
X40936475Y-29571342D02*
X41241237Y-29571342D01*
X40479333Y-29914200D02*
X40365047Y-29952295D01*
X40365047Y-29952295D02*
X40174571Y-29952295D01*
X40174571Y-29952295D02*
X40098380Y-29914200D01*
X40098380Y-29914200D02*
X40060285Y-29876104D01*
X40060285Y-29876104D02*
X40022190Y-29799914D01*
X40022190Y-29799914D02*
X40022190Y-29723723D01*
X40022190Y-29723723D02*
X40060285Y-29647533D01*
X40060285Y-29647533D02*
X40098380Y-29609438D01*
X40098380Y-29609438D02*
X40174571Y-29571342D01*
X40174571Y-29571342D02*
X40326952Y-29533247D01*
X40326952Y-29533247D02*
X40403142Y-29495152D01*
X40403142Y-29495152D02*
X40441237Y-29457057D01*
X40441237Y-29457057D02*
X40479333Y-29380866D01*
X40479333Y-29380866D02*
X40479333Y-29304676D01*
X40479333Y-29304676D02*
X40441237Y-29228485D01*
X40441237Y-29228485D02*
X40403142Y-29190390D01*
X40403142Y-29190390D02*
X40326952Y-29152295D01*
X40326952Y-29152295D02*
X40136475Y-29152295D01*
X40136475Y-29152295D02*
X40022190Y-29190390D01*
X39793618Y-29152295D02*
X39336475Y-29152295D01*
X39565047Y-29952295D02*
X39565047Y-29152295D01*
X41412666Y-31712295D02*
X41145999Y-32512295D01*
X41145999Y-32512295D02*
X40879333Y-31712295D01*
X40155523Y-32436104D02*
X40193619Y-32474200D01*
X40193619Y-32474200D02*
X40307904Y-32512295D01*
X40307904Y-32512295D02*
X40384095Y-32512295D01*
X40384095Y-32512295D02*
X40498381Y-32474200D01*
X40498381Y-32474200D02*
X40574571Y-32398009D01*
X40574571Y-32398009D02*
X40612666Y-32321819D01*
X40612666Y-32321819D02*
X40650762Y-32169438D01*
X40650762Y-32169438D02*
X40650762Y-32055152D01*
X40650762Y-32055152D02*
X40612666Y-31902771D01*
X40612666Y-31902771D02*
X40574571Y-31826580D01*
X40574571Y-31826580D02*
X40498381Y-31750390D01*
X40498381Y-31750390D02*
X40384095Y-31712295D01*
X40384095Y-31712295D02*
X40307904Y-31712295D01*
X40307904Y-31712295D02*
X40193619Y-31750390D01*
X40193619Y-31750390D02*
X40155523Y-31788485D01*
X39355523Y-32436104D02*
X39393619Y-32474200D01*
X39393619Y-32474200D02*
X39507904Y-32512295D01*
X39507904Y-32512295D02*
X39584095Y-32512295D01*
X39584095Y-32512295D02*
X39698381Y-32474200D01*
X39698381Y-32474200D02*
X39774571Y-32398009D01*
X39774571Y-32398009D02*
X39812666Y-32321819D01*
X39812666Y-32321819D02*
X39850762Y-32169438D01*
X39850762Y-32169438D02*
X39850762Y-32055152D01*
X39850762Y-32055152D02*
X39812666Y-31902771D01*
X39812666Y-31902771D02*
X39774571Y-31826580D01*
X39774571Y-31826580D02*
X39698381Y-31750390D01*
X39698381Y-31750390D02*
X39584095Y-31712295D01*
X39584095Y-31712295D02*
X39507904Y-31712295D01*
X39507904Y-31712295D02*
X39393619Y-31750390D01*
X39393619Y-31750390D02*
X39355523Y-31788485D01*
X23793431Y-38271308D02*
X23981993Y-38082746D01*
X24278304Y-38379058D02*
X23712619Y-37813372D01*
X23712619Y-37813372D02*
X23443245Y-38082746D01*
X22958372Y-38567619D02*
X23227746Y-38298245D01*
X23227746Y-38298245D02*
X23524057Y-38540682D01*
X23524057Y-38540682D02*
X23470182Y-38540682D01*
X23470182Y-38540682D02*
X23389370Y-38567619D01*
X23389370Y-38567619D02*
X23254683Y-38702306D01*
X23254683Y-38702306D02*
X23227746Y-38783118D01*
X23227746Y-38783118D02*
X23227746Y-38836993D01*
X23227746Y-38836993D02*
X23254683Y-38917805D01*
X23254683Y-38917805D02*
X23389370Y-39052493D01*
X23389370Y-39052493D02*
X23470182Y-39079430D01*
X23470182Y-39079430D02*
X23524057Y-39079430D01*
X23524057Y-39079430D02*
X23604869Y-39052493D01*
X23604869Y-39052493D02*
X23739556Y-38917805D01*
X23739556Y-38917805D02*
X23766494Y-38836993D01*
X23766494Y-38836993D02*
X23766494Y-38783118D01*
X21738710Y-38338651D02*
X21173025Y-37772966D01*
X21173025Y-37772966D02*
X21038338Y-37907653D01*
X21038338Y-37907653D02*
X20984463Y-38015403D01*
X20984463Y-38015403D02*
X20984463Y-38123152D01*
X20984463Y-38123152D02*
X21011401Y-38203964D01*
X21011401Y-38203964D02*
X21092213Y-38338651D01*
X21092213Y-38338651D02*
X21173025Y-38419464D01*
X21173025Y-38419464D02*
X21307712Y-38500276D01*
X21307712Y-38500276D02*
X21388524Y-38527213D01*
X21388524Y-38527213D02*
X21496274Y-38527213D01*
X21496274Y-38527213D02*
X21604023Y-38473338D01*
X21604023Y-38473338D02*
X21738710Y-38338651D01*
X20499590Y-38446401D02*
X20445715Y-38500276D01*
X20445715Y-38500276D02*
X20418778Y-38581088D01*
X20418778Y-38581088D02*
X20418778Y-38634963D01*
X20418778Y-38634963D02*
X20445715Y-38715775D01*
X20445715Y-38715775D02*
X20526527Y-38850462D01*
X20526527Y-38850462D02*
X20661214Y-38985149D01*
X20661214Y-38985149D02*
X20795901Y-39065961D01*
X20795901Y-39065961D02*
X20876714Y-39092899D01*
X20876714Y-39092899D02*
X20930588Y-39092899D01*
X20930588Y-39092899D02*
X21011401Y-39065961D01*
X21011401Y-39065961D02*
X21065275Y-39012087D01*
X21065275Y-39012087D02*
X21092213Y-38931274D01*
X21092213Y-38931274D02*
X21092213Y-38877399D01*
X21092213Y-38877399D02*
X21065275Y-38796587D01*
X21065275Y-38796587D02*
X20984463Y-38661900D01*
X20984463Y-38661900D02*
X20849776Y-38527213D01*
X20849776Y-38527213D02*
X20715089Y-38446401D01*
X20715089Y-38446401D02*
X20634277Y-38419464D01*
X20634277Y-38419464D02*
X20580402Y-38419464D01*
X20580402Y-38419464D02*
X20499590Y-38446401D01*
X23833837Y-50930902D02*
X23779962Y-51038651D01*
X23779962Y-51038651D02*
X23779962Y-51092526D01*
X23779962Y-51092526D02*
X23806900Y-51173338D01*
X23806900Y-51173338D02*
X23887712Y-51254151D01*
X23887712Y-51254151D02*
X23968524Y-51281088D01*
X23968524Y-51281088D02*
X24022399Y-51281088D01*
X24022399Y-51281088D02*
X24103211Y-51254151D01*
X24103211Y-51254151D02*
X24318710Y-51038651D01*
X24318710Y-51038651D02*
X23753025Y-50472966D01*
X23753025Y-50472966D02*
X23564463Y-50661528D01*
X23564463Y-50661528D02*
X23537526Y-50742340D01*
X23537526Y-50742340D02*
X23537526Y-50796215D01*
X23537526Y-50796215D02*
X23564463Y-50877027D01*
X23564463Y-50877027D02*
X23618338Y-50930902D01*
X23618338Y-50930902D02*
X23699150Y-50957839D01*
X23699150Y-50957839D02*
X23753025Y-50957839D01*
X23753025Y-50957839D02*
X23833837Y-50930902D01*
X23833837Y-50930902D02*
X24022399Y-50742340D01*
X23268152Y-51065589D02*
X23214277Y-51065589D01*
X23214277Y-51065589D02*
X23133465Y-51092526D01*
X23133465Y-51092526D02*
X22998778Y-51227213D01*
X22998778Y-51227213D02*
X22971840Y-51308025D01*
X22971840Y-51308025D02*
X22971840Y-51361900D01*
X22971840Y-51361900D02*
X22998778Y-51442712D01*
X22998778Y-51442712D02*
X23052653Y-51496587D01*
X23052653Y-51496587D02*
X23160402Y-51550462D01*
X23160402Y-51550462D02*
X23806900Y-51550462D01*
X23806900Y-51550462D02*
X23456714Y-51900648D01*
X23793431Y-35731308D02*
X23981993Y-35542746D01*
X24278304Y-35839058D02*
X23712619Y-35273372D01*
X23712619Y-35273372D02*
X23443245Y-35542746D01*
X23173871Y-36189244D02*
X23550995Y-36566367D01*
X23093059Y-35839057D02*
X23631807Y-36108431D01*
X23631807Y-36108431D02*
X23281621Y-36458618D01*
X21253837Y-50930902D02*
X21199962Y-51038651D01*
X21199962Y-51038651D02*
X21199962Y-51092526D01*
X21199962Y-51092526D02*
X21226900Y-51173338D01*
X21226900Y-51173338D02*
X21307712Y-51254151D01*
X21307712Y-51254151D02*
X21388524Y-51281088D01*
X21388524Y-51281088D02*
X21442399Y-51281088D01*
X21442399Y-51281088D02*
X21523211Y-51254151D01*
X21523211Y-51254151D02*
X21738710Y-51038651D01*
X21738710Y-51038651D02*
X21173025Y-50472966D01*
X21173025Y-50472966D02*
X20984463Y-50661528D01*
X20984463Y-50661528D02*
X20957526Y-50742340D01*
X20957526Y-50742340D02*
X20957526Y-50796215D01*
X20957526Y-50796215D02*
X20984463Y-50877027D01*
X20984463Y-50877027D02*
X21038338Y-50930902D01*
X21038338Y-50930902D02*
X21119150Y-50957839D01*
X21119150Y-50957839D02*
X21173025Y-50957839D01*
X21173025Y-50957839D02*
X21253837Y-50930902D01*
X21253837Y-50930902D02*
X21442399Y-50742340D01*
X20553465Y-51469650D02*
X20930588Y-51846774D01*
X20472653Y-51119464D02*
X21011401Y-51388838D01*
X21011401Y-51388838D02*
X20661214Y-51739024D01*
X21768710Y-35798651D02*
X21203025Y-35232966D01*
X21203025Y-35232966D02*
X21068338Y-35367653D01*
X21068338Y-35367653D02*
X21014463Y-35475403D01*
X21014463Y-35475403D02*
X21014463Y-35583152D01*
X21014463Y-35583152D02*
X21041401Y-35663964D01*
X21041401Y-35663964D02*
X21122213Y-35798651D01*
X21122213Y-35798651D02*
X21203025Y-35879464D01*
X21203025Y-35879464D02*
X21337712Y-35960276D01*
X21337712Y-35960276D02*
X21418524Y-35987213D01*
X21418524Y-35987213D02*
X21526274Y-35987213D01*
X21526274Y-35987213D02*
X21634023Y-35933338D01*
X21634023Y-35933338D02*
X21768710Y-35798651D01*
X20906714Y-36660648D02*
X21229962Y-36337399D01*
X21068338Y-36499024D02*
X20502653Y-35933338D01*
X20502653Y-35933338D02*
X20637340Y-35960276D01*
X20637340Y-35960276D02*
X20745089Y-35960276D01*
X20745089Y-35960276D02*
X20825901Y-35933338D01*
X21788710Y-33238651D02*
X21223025Y-32672966D01*
X21223025Y-32672966D02*
X21088338Y-32807653D01*
X21088338Y-32807653D02*
X21034463Y-32915403D01*
X21034463Y-32915403D02*
X21034463Y-33023152D01*
X21034463Y-33023152D02*
X21061401Y-33103964D01*
X21061401Y-33103964D02*
X21142213Y-33238651D01*
X21142213Y-33238651D02*
X21223025Y-33319464D01*
X21223025Y-33319464D02*
X21357712Y-33400276D01*
X21357712Y-33400276D02*
X21438524Y-33427213D01*
X21438524Y-33427213D02*
X21546274Y-33427213D01*
X21546274Y-33427213D02*
X21654023Y-33373338D01*
X21654023Y-33373338D02*
X21788710Y-33238651D01*
X20738152Y-33265589D02*
X20684277Y-33265589D01*
X20684277Y-33265589D02*
X20603465Y-33292526D01*
X20603465Y-33292526D02*
X20468778Y-33427213D01*
X20468778Y-33427213D02*
X20441840Y-33508025D01*
X20441840Y-33508025D02*
X20441840Y-33561900D01*
X20441840Y-33561900D02*
X20468778Y-33642712D01*
X20468778Y-33642712D02*
X20522653Y-33696587D01*
X20522653Y-33696587D02*
X20630402Y-33750462D01*
X20630402Y-33750462D02*
X21276900Y-33750462D01*
X21276900Y-33750462D02*
X20926714Y-34100648D01*
X24318710Y-33238651D02*
X23753025Y-32672966D01*
X23753025Y-32672966D02*
X23618338Y-32807653D01*
X23618338Y-32807653D02*
X23564463Y-32915403D01*
X23564463Y-32915403D02*
X23564463Y-33023152D01*
X23564463Y-33023152D02*
X23591401Y-33103964D01*
X23591401Y-33103964D02*
X23672213Y-33238651D01*
X23672213Y-33238651D02*
X23753025Y-33319464D01*
X23753025Y-33319464D02*
X23887712Y-33400276D01*
X23887712Y-33400276D02*
X23968524Y-33427213D01*
X23968524Y-33427213D02*
X24076274Y-33427213D01*
X24076274Y-33427213D02*
X24184023Y-33373338D01*
X24184023Y-33373338D02*
X24318710Y-33238651D01*
X23241214Y-33184777D02*
X22891028Y-33534963D01*
X22891028Y-33534963D02*
X23295089Y-33561900D01*
X23295089Y-33561900D02*
X23214277Y-33642712D01*
X23214277Y-33642712D02*
X23187340Y-33723525D01*
X23187340Y-33723525D02*
X23187340Y-33777399D01*
X23187340Y-33777399D02*
X23214277Y-33858212D01*
X23214277Y-33858212D02*
X23348964Y-33992899D01*
X23348964Y-33992899D02*
X23429776Y-34019836D01*
X23429776Y-34019836D02*
X23483651Y-34019836D01*
X23483651Y-34019836D02*
X23564463Y-33992899D01*
X23564463Y-33992899D02*
X23726088Y-33831274D01*
X23726088Y-33831274D02*
X23753025Y-33750462D01*
X23753025Y-33750462D02*
X23753025Y-33696587D01*
X21738710Y-40878651D02*
X21173025Y-40312966D01*
X21173025Y-40312966D02*
X21038338Y-40447653D01*
X21038338Y-40447653D02*
X20984463Y-40555403D01*
X20984463Y-40555403D02*
X20984463Y-40663152D01*
X20984463Y-40663152D02*
X21011401Y-40743964D01*
X21011401Y-40743964D02*
X21092213Y-40878651D01*
X21092213Y-40878651D02*
X21173025Y-40959464D01*
X21173025Y-40959464D02*
X21307712Y-41040276D01*
X21307712Y-41040276D02*
X21388524Y-41067213D01*
X21388524Y-41067213D02*
X21496274Y-41067213D01*
X21496274Y-41067213D02*
X21604023Y-41013338D01*
X21604023Y-41013338D02*
X21738710Y-40878651D01*
X20553465Y-41309650D02*
X20930588Y-41686774D01*
X20472653Y-40959464D02*
X21011401Y-41228838D01*
X21011401Y-41228838D02*
X20661214Y-41579024D01*
X23793431Y-43341308D02*
X23981993Y-43152746D01*
X24278304Y-43449058D02*
X23712619Y-42883372D01*
X23712619Y-42883372D02*
X23443245Y-43152746D01*
X23281621Y-43314370D02*
X22904497Y-43691494D01*
X22904497Y-43691494D02*
X23712619Y-44014743D01*
X21253837Y-53470902D02*
X21199962Y-53578651D01*
X21199962Y-53578651D02*
X21199962Y-53632526D01*
X21199962Y-53632526D02*
X21226900Y-53713338D01*
X21226900Y-53713338D02*
X21307712Y-53794151D01*
X21307712Y-53794151D02*
X21388524Y-53821088D01*
X21388524Y-53821088D02*
X21442399Y-53821088D01*
X21442399Y-53821088D02*
X21523211Y-53794151D01*
X21523211Y-53794151D02*
X21738710Y-53578651D01*
X21738710Y-53578651D02*
X21173025Y-53012966D01*
X21173025Y-53012966D02*
X20984463Y-53201528D01*
X20984463Y-53201528D02*
X20957526Y-53282340D01*
X20957526Y-53282340D02*
X20957526Y-53336215D01*
X20957526Y-53336215D02*
X20984463Y-53417027D01*
X20984463Y-53417027D02*
X21038338Y-53470902D01*
X21038338Y-53470902D02*
X21119150Y-53497839D01*
X21119150Y-53497839D02*
X21173025Y-53497839D01*
X21173025Y-53497839D02*
X21253837Y-53470902D01*
X21253837Y-53470902D02*
X21442399Y-53282340D01*
X20337966Y-53848025D02*
X20607340Y-53578651D01*
X20607340Y-53578651D02*
X20903651Y-53821088D01*
X20903651Y-53821088D02*
X20849776Y-53821088D01*
X20849776Y-53821088D02*
X20768964Y-53848025D01*
X20768964Y-53848025D02*
X20634277Y-53982712D01*
X20634277Y-53982712D02*
X20607340Y-54063525D01*
X20607340Y-54063525D02*
X20607340Y-54117399D01*
X20607340Y-54117399D02*
X20634277Y-54198212D01*
X20634277Y-54198212D02*
X20768964Y-54332899D01*
X20768964Y-54332899D02*
X20849776Y-54359836D01*
X20849776Y-54359836D02*
X20903651Y-54359836D01*
X20903651Y-54359836D02*
X20984463Y-54332899D01*
X20984463Y-54332899D02*
X21119150Y-54198212D01*
X21119150Y-54198212D02*
X21146088Y-54117399D01*
X21146088Y-54117399D02*
X21146088Y-54063525D01*
X21738710Y-45948651D02*
X21173025Y-45382966D01*
X21173025Y-45382966D02*
X21038338Y-45517653D01*
X21038338Y-45517653D02*
X20984463Y-45625403D01*
X20984463Y-45625403D02*
X20984463Y-45733152D01*
X20984463Y-45733152D02*
X21011401Y-45813964D01*
X21011401Y-45813964D02*
X21092213Y-45948651D01*
X21092213Y-45948651D02*
X21173025Y-46029464D01*
X21173025Y-46029464D02*
X21307712Y-46110276D01*
X21307712Y-46110276D02*
X21388524Y-46137213D01*
X21388524Y-46137213D02*
X21496274Y-46137213D01*
X21496274Y-46137213D02*
X21604023Y-46083338D01*
X21604023Y-46083338D02*
X21738710Y-45948651D01*
X20661214Y-45894777D02*
X20284091Y-46271900D01*
X20284091Y-46271900D02*
X21092213Y-46595149D01*
X23833837Y-53470902D02*
X23779962Y-53578651D01*
X23779962Y-53578651D02*
X23779962Y-53632526D01*
X23779962Y-53632526D02*
X23806900Y-53713338D01*
X23806900Y-53713338D02*
X23887712Y-53794151D01*
X23887712Y-53794151D02*
X23968524Y-53821088D01*
X23968524Y-53821088D02*
X24022399Y-53821088D01*
X24022399Y-53821088D02*
X24103211Y-53794151D01*
X24103211Y-53794151D02*
X24318710Y-53578651D01*
X24318710Y-53578651D02*
X23753025Y-53012966D01*
X23753025Y-53012966D02*
X23564463Y-53201528D01*
X23564463Y-53201528D02*
X23537526Y-53282340D01*
X23537526Y-53282340D02*
X23537526Y-53336215D01*
X23537526Y-53336215D02*
X23564463Y-53417027D01*
X23564463Y-53417027D02*
X23618338Y-53470902D01*
X23618338Y-53470902D02*
X23699150Y-53497839D01*
X23699150Y-53497839D02*
X23753025Y-53497839D01*
X23753025Y-53497839D02*
X23833837Y-53470902D01*
X23833837Y-53470902D02*
X24022399Y-53282340D01*
X22944903Y-53821088D02*
X23052653Y-53713338D01*
X23052653Y-53713338D02*
X23133465Y-53686401D01*
X23133465Y-53686401D02*
X23187340Y-53686401D01*
X23187340Y-53686401D02*
X23322027Y-53713338D01*
X23322027Y-53713338D02*
X23456714Y-53794151D01*
X23456714Y-53794151D02*
X23672213Y-54009650D01*
X23672213Y-54009650D02*
X23699150Y-54090462D01*
X23699150Y-54090462D02*
X23699150Y-54144337D01*
X23699150Y-54144337D02*
X23672213Y-54225149D01*
X23672213Y-54225149D02*
X23564463Y-54332899D01*
X23564463Y-54332899D02*
X23483651Y-54359836D01*
X23483651Y-54359836D02*
X23429776Y-54359836D01*
X23429776Y-54359836D02*
X23348964Y-54332899D01*
X23348964Y-54332899D02*
X23214277Y-54198212D01*
X23214277Y-54198212D02*
X23187340Y-54117399D01*
X23187340Y-54117399D02*
X23187340Y-54063525D01*
X23187340Y-54063525D02*
X23214277Y-53982712D01*
X23214277Y-53982712D02*
X23322027Y-53874963D01*
X23322027Y-53874963D02*
X23402839Y-53848025D01*
X23402839Y-53848025D02*
X23456714Y-53848025D01*
X23456714Y-53848025D02*
X23537526Y-53874963D01*
X21415462Y-48239277D02*
X21226900Y-48427839D01*
X21442399Y-48804963D02*
X21711773Y-48535589D01*
X21711773Y-48535589D02*
X21146088Y-47969903D01*
X21146088Y-47969903D02*
X20876714Y-48239277D01*
X20391840Y-48724151D02*
X20499590Y-48616401D01*
X20499590Y-48616401D02*
X20580402Y-48589464D01*
X20580402Y-48589464D02*
X20634277Y-48589464D01*
X20634277Y-48589464D02*
X20768964Y-48616401D01*
X20768964Y-48616401D02*
X20903651Y-48697213D01*
X20903651Y-48697213D02*
X21119150Y-48912713D01*
X21119150Y-48912713D02*
X21146087Y-48993525D01*
X21146087Y-48993525D02*
X21146087Y-49047400D01*
X21146087Y-49047400D02*
X21119150Y-49128212D01*
X21119150Y-49128212D02*
X21011400Y-49235961D01*
X21011400Y-49235961D02*
X20930588Y-49262899D01*
X20930588Y-49262899D02*
X20876713Y-49262899D01*
X20876713Y-49262899D02*
X20795901Y-49235961D01*
X20795901Y-49235961D02*
X20661214Y-49101274D01*
X20661214Y-49101274D02*
X20634277Y-49020462D01*
X20634277Y-49020462D02*
X20634277Y-48966587D01*
X20634277Y-48966587D02*
X20661214Y-48885775D01*
X20661214Y-48885775D02*
X20768964Y-48778026D01*
X20768964Y-48778026D02*
X20849776Y-48751088D01*
X20849776Y-48751088D02*
X20903651Y-48751088D01*
X20903651Y-48751088D02*
X20984463Y-48778026D01*
X21361587Y-43678025D02*
X21415462Y-43678025D01*
X21415462Y-43678025D02*
X21523211Y-43624151D01*
X21523211Y-43624151D02*
X21577086Y-43570276D01*
X21577086Y-43570276D02*
X21630961Y-43462526D01*
X21630961Y-43462526D02*
X21630961Y-43354777D01*
X21630961Y-43354777D02*
X21604023Y-43273964D01*
X21604023Y-43273964D02*
X21523211Y-43139277D01*
X21523211Y-43139277D02*
X21442399Y-43058465D01*
X21442399Y-43058465D02*
X21307712Y-42977653D01*
X21307712Y-42977653D02*
X21226900Y-42950716D01*
X21226900Y-42950716D02*
X21119150Y-42950716D01*
X21119150Y-42950716D02*
X21011401Y-43004590D01*
X21011401Y-43004590D02*
X20957526Y-43058465D01*
X20957526Y-43058465D02*
X20903651Y-43166215D01*
X20903651Y-43166215D02*
X20903651Y-43220090D01*
X20364903Y-43651088D02*
X20472653Y-43543338D01*
X20472653Y-43543338D02*
X20553465Y-43516401D01*
X20553465Y-43516401D02*
X20607340Y-43516401D01*
X20607340Y-43516401D02*
X20742027Y-43543338D01*
X20742027Y-43543338D02*
X20876714Y-43624151D01*
X20876714Y-43624151D02*
X21092213Y-43839650D01*
X21092213Y-43839650D02*
X21119150Y-43920462D01*
X21119150Y-43920462D02*
X21119150Y-43974337D01*
X21119150Y-43974337D02*
X21092213Y-44055149D01*
X21092213Y-44055149D02*
X20984463Y-44162899D01*
X20984463Y-44162899D02*
X20903651Y-44189836D01*
X20903651Y-44189836D02*
X20849776Y-44189836D01*
X20849776Y-44189836D02*
X20768964Y-44162899D01*
X20768964Y-44162899D02*
X20634277Y-44028212D01*
X20634277Y-44028212D02*
X20607340Y-43947399D01*
X20607340Y-43947399D02*
X20607340Y-43893525D01*
X20607340Y-43893525D02*
X20634277Y-43812712D01*
X20634277Y-43812712D02*
X20742027Y-43704963D01*
X20742027Y-43704963D02*
X20822839Y-43678025D01*
X20822839Y-43678025D02*
X20876714Y-43678025D01*
X20876714Y-43678025D02*
X20957526Y-43704963D01*
X23833837Y-48400902D02*
X23779962Y-48508651D01*
X23779962Y-48508651D02*
X23779962Y-48562526D01*
X23779962Y-48562526D02*
X23806900Y-48643338D01*
X23806900Y-48643338D02*
X23887712Y-48724151D01*
X23887712Y-48724151D02*
X23968524Y-48751088D01*
X23968524Y-48751088D02*
X24022399Y-48751088D01*
X24022399Y-48751088D02*
X24103211Y-48724151D01*
X24103211Y-48724151D02*
X24318710Y-48508651D01*
X24318710Y-48508651D02*
X23753025Y-47942966D01*
X23753025Y-47942966D02*
X23564463Y-48131528D01*
X23564463Y-48131528D02*
X23537526Y-48212340D01*
X23537526Y-48212340D02*
X23537526Y-48266215D01*
X23537526Y-48266215D02*
X23564463Y-48347027D01*
X23564463Y-48347027D02*
X23618338Y-48400902D01*
X23618338Y-48400902D02*
X23699150Y-48427839D01*
X23699150Y-48427839D02*
X23753025Y-48427839D01*
X23753025Y-48427839D02*
X23833837Y-48400902D01*
X23833837Y-48400902D02*
X24022399Y-48212340D01*
X23241214Y-48454777D02*
X22891028Y-48804963D01*
X22891028Y-48804963D02*
X23295089Y-48831900D01*
X23295089Y-48831900D02*
X23214277Y-48912712D01*
X23214277Y-48912712D02*
X23187340Y-48993525D01*
X23187340Y-48993525D02*
X23187340Y-49047399D01*
X23187340Y-49047399D02*
X23214277Y-49128212D01*
X23214277Y-49128212D02*
X23348964Y-49262899D01*
X23348964Y-49262899D02*
X23429776Y-49289836D01*
X23429776Y-49289836D02*
X23483651Y-49289836D01*
X23483651Y-49289836D02*
X23564463Y-49262899D01*
X23564463Y-49262899D02*
X23726088Y-49101274D01*
X23726088Y-49101274D02*
X23753025Y-49020462D01*
X23753025Y-49020462D02*
X23753025Y-48966587D01*
X23833837Y-45840902D02*
X23779962Y-45948651D01*
X23779962Y-45948651D02*
X23779962Y-46002526D01*
X23779962Y-46002526D02*
X23806900Y-46083338D01*
X23806900Y-46083338D02*
X23887712Y-46164151D01*
X23887712Y-46164151D02*
X23968524Y-46191088D01*
X23968524Y-46191088D02*
X24022399Y-46191088D01*
X24022399Y-46191088D02*
X24103211Y-46164151D01*
X24103211Y-46164151D02*
X24318710Y-45948651D01*
X24318710Y-45948651D02*
X23753025Y-45382966D01*
X23753025Y-45382966D02*
X23564463Y-45571528D01*
X23564463Y-45571528D02*
X23537526Y-45652340D01*
X23537526Y-45652340D02*
X23537526Y-45706215D01*
X23537526Y-45706215D02*
X23564463Y-45787027D01*
X23564463Y-45787027D02*
X23618338Y-45840902D01*
X23618338Y-45840902D02*
X23699150Y-45867839D01*
X23699150Y-45867839D02*
X23753025Y-45867839D01*
X23753025Y-45867839D02*
X23833837Y-45840902D01*
X23833837Y-45840902D02*
X24022399Y-45652340D01*
X23456714Y-46810648D02*
X23779962Y-46487399D01*
X23618338Y-46649024D02*
X23052653Y-46083338D01*
X23052653Y-46083338D02*
X23187340Y-46110276D01*
X23187340Y-46110276D02*
X23295089Y-46110276D01*
X23295089Y-46110276D02*
X23375901Y-46083338D01*
X23793431Y-40811308D02*
X23981993Y-40622746D01*
X24278304Y-40919058D02*
X23712619Y-40353372D01*
X23712619Y-40353372D02*
X23443245Y-40622746D01*
X22985309Y-41080682D02*
X23093059Y-40972932D01*
X23093059Y-40972932D02*
X23173871Y-40945995D01*
X23173871Y-40945995D02*
X23227746Y-40945995D01*
X23227746Y-40945995D02*
X23362433Y-40972932D01*
X23362433Y-40972932D02*
X23497120Y-41053744D01*
X23497120Y-41053744D02*
X23712619Y-41269244D01*
X23712619Y-41269244D02*
X23739556Y-41350056D01*
X23739556Y-41350056D02*
X23739556Y-41403931D01*
X23739556Y-41403931D02*
X23712619Y-41484743D01*
X23712619Y-41484743D02*
X23604869Y-41592493D01*
X23604869Y-41592493D02*
X23524057Y-41619430D01*
X23524057Y-41619430D02*
X23470182Y-41619430D01*
X23470182Y-41619430D02*
X23389370Y-41592493D01*
X23389370Y-41592493D02*
X23254683Y-41457805D01*
X23254683Y-41457805D02*
X23227746Y-41376993D01*
X23227746Y-41376993D02*
X23227746Y-41323118D01*
X23227746Y-41323118D02*
X23254683Y-41242306D01*
X23254683Y-41242306D02*
X23362433Y-41134557D01*
X23362433Y-41134557D02*
X23443245Y-41107619D01*
X23443245Y-41107619D02*
X23497120Y-41107619D01*
X23497120Y-41107619D02*
X23577932Y-41134557D01*
X46283431Y-38271308D02*
X46471993Y-38082746D01*
X46768304Y-38379058D02*
X46202619Y-37813372D01*
X46202619Y-37813372D02*
X45933245Y-38082746D01*
X45663871Y-38729244D02*
X46040995Y-39106367D01*
X45583059Y-38379057D02*
X46121807Y-38648431D01*
X46121807Y-38648431D02*
X45771621Y-38998618D01*
X49368710Y-43408651D02*
X48803025Y-42842966D01*
X48803025Y-42842966D02*
X48668338Y-42977653D01*
X48668338Y-42977653D02*
X48614463Y-43085403D01*
X48614463Y-43085403D02*
X48614463Y-43193152D01*
X48614463Y-43193152D02*
X48641401Y-43273964D01*
X48641401Y-43273964D02*
X48722213Y-43408651D01*
X48722213Y-43408651D02*
X48803025Y-43489464D01*
X48803025Y-43489464D02*
X48937712Y-43570276D01*
X48937712Y-43570276D02*
X49018524Y-43597213D01*
X49018524Y-43597213D02*
X49126274Y-43597213D01*
X49126274Y-43597213D02*
X49234023Y-43543338D01*
X49234023Y-43543338D02*
X49368710Y-43408651D01*
X48183465Y-43839650D02*
X48560588Y-44216774D01*
X48102653Y-43489464D02*
X48641401Y-43758838D01*
X48641401Y-43758838D02*
X48291214Y-44109024D01*
X46323837Y-50930902D02*
X46269962Y-51038651D01*
X46269962Y-51038651D02*
X46269962Y-51092526D01*
X46269962Y-51092526D02*
X46296900Y-51173338D01*
X46296900Y-51173338D02*
X46377712Y-51254151D01*
X46377712Y-51254151D02*
X46458524Y-51281088D01*
X46458524Y-51281088D02*
X46512399Y-51281088D01*
X46512399Y-51281088D02*
X46593211Y-51254151D01*
X46593211Y-51254151D02*
X46808710Y-51038651D01*
X46808710Y-51038651D02*
X46243025Y-50472966D01*
X46243025Y-50472966D02*
X46054463Y-50661528D01*
X46054463Y-50661528D02*
X46027526Y-50742340D01*
X46027526Y-50742340D02*
X46027526Y-50796215D01*
X46027526Y-50796215D02*
X46054463Y-50877027D01*
X46054463Y-50877027D02*
X46108338Y-50930902D01*
X46108338Y-50930902D02*
X46189150Y-50957839D01*
X46189150Y-50957839D02*
X46243025Y-50957839D01*
X46243025Y-50957839D02*
X46323837Y-50930902D01*
X46323837Y-50930902D02*
X46512399Y-50742340D01*
X45731214Y-50984777D02*
X45381028Y-51334963D01*
X45381028Y-51334963D02*
X45785089Y-51361900D01*
X45785089Y-51361900D02*
X45704277Y-51442712D01*
X45704277Y-51442712D02*
X45677340Y-51523525D01*
X45677340Y-51523525D02*
X45677340Y-51577399D01*
X45677340Y-51577399D02*
X45704277Y-51658212D01*
X45704277Y-51658212D02*
X45838964Y-51792899D01*
X45838964Y-51792899D02*
X45919776Y-51819836D01*
X45919776Y-51819836D02*
X45973651Y-51819836D01*
X45973651Y-51819836D02*
X46054463Y-51792899D01*
X46054463Y-51792899D02*
X46216088Y-51631274D01*
X46216088Y-51631274D02*
X46243025Y-51550462D01*
X46243025Y-51550462D02*
X46243025Y-51496587D01*
X49368710Y-40878651D02*
X48803025Y-40312966D01*
X48803025Y-40312966D02*
X48668338Y-40447653D01*
X48668338Y-40447653D02*
X48614463Y-40555403D01*
X48614463Y-40555403D02*
X48614463Y-40663152D01*
X48614463Y-40663152D02*
X48641401Y-40743964D01*
X48641401Y-40743964D02*
X48722213Y-40878651D01*
X48722213Y-40878651D02*
X48803025Y-40959464D01*
X48803025Y-40959464D02*
X48937712Y-41040276D01*
X48937712Y-41040276D02*
X49018524Y-41067213D01*
X49018524Y-41067213D02*
X49126274Y-41067213D01*
X49126274Y-41067213D02*
X49234023Y-41013338D01*
X49234023Y-41013338D02*
X49368710Y-40878651D01*
X48129590Y-40986401D02*
X48075715Y-41040276D01*
X48075715Y-41040276D02*
X48048778Y-41121088D01*
X48048778Y-41121088D02*
X48048778Y-41174963D01*
X48048778Y-41174963D02*
X48075715Y-41255775D01*
X48075715Y-41255775D02*
X48156527Y-41390462D01*
X48156527Y-41390462D02*
X48291214Y-41525149D01*
X48291214Y-41525149D02*
X48425901Y-41605961D01*
X48425901Y-41605961D02*
X48506714Y-41632899D01*
X48506714Y-41632899D02*
X48560588Y-41632899D01*
X48560588Y-41632899D02*
X48641401Y-41605961D01*
X48641401Y-41605961D02*
X48695275Y-41552087D01*
X48695275Y-41552087D02*
X48722213Y-41471274D01*
X48722213Y-41471274D02*
X48722213Y-41417399D01*
X48722213Y-41417399D02*
X48695275Y-41336587D01*
X48695275Y-41336587D02*
X48614463Y-41201900D01*
X48614463Y-41201900D02*
X48479776Y-41067213D01*
X48479776Y-41067213D02*
X48345089Y-40986401D01*
X48345089Y-40986401D02*
X48264277Y-40959464D01*
X48264277Y-40959464D02*
X48210402Y-40959464D01*
X48210402Y-40959464D02*
X48129590Y-40986401D01*
X48883837Y-53470902D02*
X48829962Y-53578651D01*
X48829962Y-53578651D02*
X48829962Y-53632526D01*
X48829962Y-53632526D02*
X48856900Y-53713338D01*
X48856900Y-53713338D02*
X48937712Y-53794151D01*
X48937712Y-53794151D02*
X49018524Y-53821088D01*
X49018524Y-53821088D02*
X49072399Y-53821088D01*
X49072399Y-53821088D02*
X49153211Y-53794151D01*
X49153211Y-53794151D02*
X49368710Y-53578651D01*
X49368710Y-53578651D02*
X48803025Y-53012966D01*
X48803025Y-53012966D02*
X48614463Y-53201528D01*
X48614463Y-53201528D02*
X48587526Y-53282340D01*
X48587526Y-53282340D02*
X48587526Y-53336215D01*
X48587526Y-53336215D02*
X48614463Y-53417027D01*
X48614463Y-53417027D02*
X48668338Y-53470902D01*
X48668338Y-53470902D02*
X48749150Y-53497839D01*
X48749150Y-53497839D02*
X48803025Y-53497839D01*
X48803025Y-53497839D02*
X48883837Y-53470902D01*
X48883837Y-53470902D02*
X49072399Y-53282340D01*
X48183465Y-54009650D02*
X48560588Y-54386774D01*
X48102653Y-53659464D02*
X48641401Y-53928838D01*
X48641401Y-53928838D02*
X48291214Y-54279024D01*
X48991587Y-46218025D02*
X49045462Y-46218025D01*
X49045462Y-46218025D02*
X49153211Y-46164151D01*
X49153211Y-46164151D02*
X49207086Y-46110276D01*
X49207086Y-46110276D02*
X49260961Y-46002526D01*
X49260961Y-46002526D02*
X49260961Y-45894777D01*
X49260961Y-45894777D02*
X49234023Y-45813964D01*
X49234023Y-45813964D02*
X49153211Y-45679277D01*
X49153211Y-45679277D02*
X49072399Y-45598465D01*
X49072399Y-45598465D02*
X48937712Y-45517653D01*
X48937712Y-45517653D02*
X48856900Y-45490716D01*
X48856900Y-45490716D02*
X48749150Y-45490716D01*
X48749150Y-45490716D02*
X48641401Y-45544590D01*
X48641401Y-45544590D02*
X48587526Y-45598465D01*
X48587526Y-45598465D02*
X48533651Y-45706215D01*
X48533651Y-45706215D02*
X48533651Y-45760090D01*
X47994903Y-46191088D02*
X48102653Y-46083338D01*
X48102653Y-46083338D02*
X48183465Y-46056401D01*
X48183465Y-46056401D02*
X48237340Y-46056401D01*
X48237340Y-46056401D02*
X48372027Y-46083338D01*
X48372027Y-46083338D02*
X48506714Y-46164151D01*
X48506714Y-46164151D02*
X48722213Y-46379650D01*
X48722213Y-46379650D02*
X48749150Y-46460462D01*
X48749150Y-46460462D02*
X48749150Y-46514337D01*
X48749150Y-46514337D02*
X48722213Y-46595149D01*
X48722213Y-46595149D02*
X48614463Y-46702899D01*
X48614463Y-46702899D02*
X48533651Y-46729836D01*
X48533651Y-46729836D02*
X48479776Y-46729836D01*
X48479776Y-46729836D02*
X48398964Y-46702899D01*
X48398964Y-46702899D02*
X48264277Y-46568212D01*
X48264277Y-46568212D02*
X48237340Y-46487399D01*
X48237340Y-46487399D02*
X48237340Y-46433525D01*
X48237340Y-46433525D02*
X48264277Y-46352712D01*
X48264277Y-46352712D02*
X48372027Y-46244963D01*
X48372027Y-46244963D02*
X48452839Y-46218025D01*
X48452839Y-46218025D02*
X48506714Y-46218025D01*
X48506714Y-46218025D02*
X48587526Y-46244963D01*
X49368710Y-38338651D02*
X48803025Y-37772966D01*
X48803025Y-37772966D02*
X48668338Y-37907653D01*
X48668338Y-37907653D02*
X48614463Y-38015403D01*
X48614463Y-38015403D02*
X48614463Y-38123152D01*
X48614463Y-38123152D02*
X48641401Y-38203964D01*
X48641401Y-38203964D02*
X48722213Y-38338651D01*
X48722213Y-38338651D02*
X48803025Y-38419464D01*
X48803025Y-38419464D02*
X48937712Y-38500276D01*
X48937712Y-38500276D02*
X49018524Y-38527213D01*
X49018524Y-38527213D02*
X49126274Y-38527213D01*
X49126274Y-38527213D02*
X49234023Y-38473338D01*
X49234023Y-38473338D02*
X49368710Y-38338651D01*
X48506714Y-39200648D02*
X48829962Y-38877399D01*
X48668338Y-39039024D02*
X48102653Y-38473338D01*
X48102653Y-38473338D02*
X48237340Y-38500276D01*
X48237340Y-38500276D02*
X48345089Y-38500276D01*
X48345089Y-38500276D02*
X48425901Y-38473338D01*
X49368710Y-35798651D02*
X48803025Y-35232966D01*
X48803025Y-35232966D02*
X48668338Y-35367653D01*
X48668338Y-35367653D02*
X48614463Y-35475403D01*
X48614463Y-35475403D02*
X48614463Y-35583152D01*
X48614463Y-35583152D02*
X48641401Y-35663964D01*
X48641401Y-35663964D02*
X48722213Y-35798651D01*
X48722213Y-35798651D02*
X48803025Y-35879464D01*
X48803025Y-35879464D02*
X48937712Y-35960276D01*
X48937712Y-35960276D02*
X49018524Y-35987213D01*
X49018524Y-35987213D02*
X49126274Y-35987213D01*
X49126274Y-35987213D02*
X49234023Y-35933338D01*
X49234023Y-35933338D02*
X49368710Y-35798651D01*
X48318152Y-35825589D02*
X48264277Y-35825589D01*
X48264277Y-35825589D02*
X48183465Y-35852526D01*
X48183465Y-35852526D02*
X48048778Y-35987213D01*
X48048778Y-35987213D02*
X48021840Y-36068025D01*
X48021840Y-36068025D02*
X48021840Y-36121900D01*
X48021840Y-36121900D02*
X48048778Y-36202712D01*
X48048778Y-36202712D02*
X48102653Y-36256587D01*
X48102653Y-36256587D02*
X48210402Y-36310462D01*
X48210402Y-36310462D02*
X48856900Y-36310462D01*
X48856900Y-36310462D02*
X48506714Y-36660648D01*
X46283431Y-43341308D02*
X46471993Y-43152746D01*
X46768304Y-43449058D02*
X46202619Y-42883372D01*
X46202619Y-42883372D02*
X45933245Y-43152746D01*
X45475309Y-43610682D02*
X45583059Y-43502932D01*
X45583059Y-43502932D02*
X45663871Y-43475995D01*
X45663871Y-43475995D02*
X45717746Y-43475995D01*
X45717746Y-43475995D02*
X45852433Y-43502932D01*
X45852433Y-43502932D02*
X45987120Y-43583744D01*
X45987120Y-43583744D02*
X46202619Y-43799244D01*
X46202619Y-43799244D02*
X46229556Y-43880056D01*
X46229556Y-43880056D02*
X46229556Y-43933931D01*
X46229556Y-43933931D02*
X46202619Y-44014743D01*
X46202619Y-44014743D02*
X46094869Y-44122493D01*
X46094869Y-44122493D02*
X46014057Y-44149430D01*
X46014057Y-44149430D02*
X45960182Y-44149430D01*
X45960182Y-44149430D02*
X45879370Y-44122493D01*
X45879370Y-44122493D02*
X45744683Y-43987805D01*
X45744683Y-43987805D02*
X45717746Y-43906993D01*
X45717746Y-43906993D02*
X45717746Y-43853118D01*
X45717746Y-43853118D02*
X45744683Y-43772306D01*
X45744683Y-43772306D02*
X45852433Y-43664557D01*
X45852433Y-43664557D02*
X45933245Y-43637619D01*
X45933245Y-43637619D02*
X45987120Y-43637619D01*
X45987120Y-43637619D02*
X46067932Y-43664557D01*
X46283431Y-40811308D02*
X46471993Y-40622746D01*
X46768304Y-40919058D02*
X46202619Y-40353372D01*
X46202619Y-40353372D02*
X45933245Y-40622746D01*
X45448372Y-41107619D02*
X45717746Y-40838245D01*
X45717746Y-40838245D02*
X46014057Y-41080682D01*
X46014057Y-41080682D02*
X45960182Y-41080682D01*
X45960182Y-41080682D02*
X45879370Y-41107619D01*
X45879370Y-41107619D02*
X45744683Y-41242306D01*
X45744683Y-41242306D02*
X45717746Y-41323118D01*
X45717746Y-41323118D02*
X45717746Y-41376993D01*
X45717746Y-41376993D02*
X45744683Y-41457805D01*
X45744683Y-41457805D02*
X45879370Y-41592493D01*
X45879370Y-41592493D02*
X45960182Y-41619430D01*
X45960182Y-41619430D02*
X46014057Y-41619430D01*
X46014057Y-41619430D02*
X46094869Y-41592493D01*
X46094869Y-41592493D02*
X46229556Y-41457805D01*
X46229556Y-41457805D02*
X46256494Y-41376993D01*
X46256494Y-41376993D02*
X46256494Y-41323118D01*
X46808710Y-35798651D02*
X46243025Y-35232966D01*
X46243025Y-35232966D02*
X46108338Y-35367653D01*
X46108338Y-35367653D02*
X46054463Y-35475403D01*
X46054463Y-35475403D02*
X46054463Y-35583152D01*
X46054463Y-35583152D02*
X46081401Y-35663964D01*
X46081401Y-35663964D02*
X46162213Y-35798651D01*
X46162213Y-35798651D02*
X46243025Y-35879464D01*
X46243025Y-35879464D02*
X46377712Y-35960276D01*
X46377712Y-35960276D02*
X46458524Y-35987213D01*
X46458524Y-35987213D02*
X46566274Y-35987213D01*
X46566274Y-35987213D02*
X46674023Y-35933338D01*
X46674023Y-35933338D02*
X46808710Y-35798651D01*
X45731214Y-35744777D02*
X45381028Y-36094963D01*
X45381028Y-36094963D02*
X45785089Y-36121900D01*
X45785089Y-36121900D02*
X45704277Y-36202712D01*
X45704277Y-36202712D02*
X45677340Y-36283525D01*
X45677340Y-36283525D02*
X45677340Y-36337399D01*
X45677340Y-36337399D02*
X45704277Y-36418212D01*
X45704277Y-36418212D02*
X45838964Y-36552899D01*
X45838964Y-36552899D02*
X45919776Y-36579836D01*
X45919776Y-36579836D02*
X45973651Y-36579836D01*
X45973651Y-36579836D02*
X46054463Y-36552899D01*
X46054463Y-36552899D02*
X46216088Y-36391274D01*
X46216088Y-36391274D02*
X46243025Y-36310462D01*
X46243025Y-36310462D02*
X46243025Y-36256587D01*
X46283431Y-45881308D02*
X46471993Y-45692746D01*
X46768304Y-45989058D02*
X46202619Y-45423372D01*
X46202619Y-45423372D02*
X45933245Y-45692746D01*
X45771621Y-45854370D02*
X45394497Y-46231494D01*
X45394497Y-46231494D02*
X46202619Y-46554743D01*
X48883837Y-56080902D02*
X48829962Y-56188651D01*
X48829962Y-56188651D02*
X48829962Y-56242526D01*
X48829962Y-56242526D02*
X48856900Y-56323338D01*
X48856900Y-56323338D02*
X48937712Y-56404151D01*
X48937712Y-56404151D02*
X49018524Y-56431088D01*
X49018524Y-56431088D02*
X49072399Y-56431088D01*
X49072399Y-56431088D02*
X49153211Y-56404151D01*
X49153211Y-56404151D02*
X49368710Y-56188651D01*
X49368710Y-56188651D02*
X48803025Y-55622966D01*
X48803025Y-55622966D02*
X48614463Y-55811528D01*
X48614463Y-55811528D02*
X48587526Y-55892340D01*
X48587526Y-55892340D02*
X48587526Y-55946215D01*
X48587526Y-55946215D02*
X48614463Y-56027027D01*
X48614463Y-56027027D02*
X48668338Y-56080902D01*
X48668338Y-56080902D02*
X48749150Y-56107839D01*
X48749150Y-56107839D02*
X48803025Y-56107839D01*
X48803025Y-56107839D02*
X48883837Y-56080902D01*
X48883837Y-56080902D02*
X49072399Y-55892340D01*
X47967966Y-56458025D02*
X48237340Y-56188651D01*
X48237340Y-56188651D02*
X48533651Y-56431088D01*
X48533651Y-56431088D02*
X48479776Y-56431088D01*
X48479776Y-56431088D02*
X48398964Y-56458025D01*
X48398964Y-56458025D02*
X48264277Y-56592712D01*
X48264277Y-56592712D02*
X48237340Y-56673525D01*
X48237340Y-56673525D02*
X48237340Y-56727399D01*
X48237340Y-56727399D02*
X48264277Y-56808212D01*
X48264277Y-56808212D02*
X48398964Y-56942899D01*
X48398964Y-56942899D02*
X48479776Y-56969836D01*
X48479776Y-56969836D02*
X48533651Y-56969836D01*
X48533651Y-56969836D02*
X48614463Y-56942899D01*
X48614463Y-56942899D02*
X48749150Y-56808212D01*
X48749150Y-56808212D02*
X48776088Y-56727399D01*
X48776088Y-56727399D02*
X48776088Y-56673525D01*
X46323837Y-53470902D02*
X46269962Y-53578651D01*
X46269962Y-53578651D02*
X46269962Y-53632526D01*
X46269962Y-53632526D02*
X46296900Y-53713338D01*
X46296900Y-53713338D02*
X46377712Y-53794151D01*
X46377712Y-53794151D02*
X46458524Y-53821088D01*
X46458524Y-53821088D02*
X46512399Y-53821088D01*
X46512399Y-53821088D02*
X46593211Y-53794151D01*
X46593211Y-53794151D02*
X46808710Y-53578651D01*
X46808710Y-53578651D02*
X46243025Y-53012966D01*
X46243025Y-53012966D02*
X46054463Y-53201528D01*
X46054463Y-53201528D02*
X46027526Y-53282340D01*
X46027526Y-53282340D02*
X46027526Y-53336215D01*
X46027526Y-53336215D02*
X46054463Y-53417027D01*
X46054463Y-53417027D02*
X46108338Y-53470902D01*
X46108338Y-53470902D02*
X46189150Y-53497839D01*
X46189150Y-53497839D02*
X46243025Y-53497839D01*
X46243025Y-53497839D02*
X46323837Y-53470902D01*
X46323837Y-53470902D02*
X46512399Y-53282340D01*
X45758152Y-53605589D02*
X45704277Y-53605589D01*
X45704277Y-53605589D02*
X45623465Y-53632526D01*
X45623465Y-53632526D02*
X45488778Y-53767213D01*
X45488778Y-53767213D02*
X45461840Y-53848025D01*
X45461840Y-53848025D02*
X45461840Y-53901900D01*
X45461840Y-53901900D02*
X45488778Y-53982712D01*
X45488778Y-53982712D02*
X45542653Y-54036587D01*
X45542653Y-54036587D02*
X45650402Y-54090462D01*
X45650402Y-54090462D02*
X46296900Y-54090462D01*
X46296900Y-54090462D02*
X45946714Y-54440648D01*
X46323837Y-56080902D02*
X46269962Y-56188651D01*
X46269962Y-56188651D02*
X46269962Y-56242526D01*
X46269962Y-56242526D02*
X46296900Y-56323338D01*
X46296900Y-56323338D02*
X46377712Y-56404151D01*
X46377712Y-56404151D02*
X46458524Y-56431088D01*
X46458524Y-56431088D02*
X46512399Y-56431088D01*
X46512399Y-56431088D02*
X46593211Y-56404151D01*
X46593211Y-56404151D02*
X46808710Y-56188651D01*
X46808710Y-56188651D02*
X46243025Y-55622966D01*
X46243025Y-55622966D02*
X46054463Y-55811528D01*
X46054463Y-55811528D02*
X46027526Y-55892340D01*
X46027526Y-55892340D02*
X46027526Y-55946215D01*
X46027526Y-55946215D02*
X46054463Y-56027027D01*
X46054463Y-56027027D02*
X46108338Y-56080902D01*
X46108338Y-56080902D02*
X46189150Y-56107839D01*
X46189150Y-56107839D02*
X46243025Y-56107839D01*
X46243025Y-56107839D02*
X46323837Y-56080902D01*
X46323837Y-56080902D02*
X46512399Y-55892340D01*
X45434903Y-56431088D02*
X45542653Y-56323338D01*
X45542653Y-56323338D02*
X45623465Y-56296401D01*
X45623465Y-56296401D02*
X45677340Y-56296401D01*
X45677340Y-56296401D02*
X45812027Y-56323338D01*
X45812027Y-56323338D02*
X45946714Y-56404151D01*
X45946714Y-56404151D02*
X46162213Y-56619650D01*
X46162213Y-56619650D02*
X46189150Y-56700462D01*
X46189150Y-56700462D02*
X46189150Y-56754337D01*
X46189150Y-56754337D02*
X46162213Y-56835149D01*
X46162213Y-56835149D02*
X46054463Y-56942899D01*
X46054463Y-56942899D02*
X45973651Y-56969836D01*
X45973651Y-56969836D02*
X45919776Y-56969836D01*
X45919776Y-56969836D02*
X45838964Y-56942899D01*
X45838964Y-56942899D02*
X45704277Y-56808212D01*
X45704277Y-56808212D02*
X45677340Y-56727399D01*
X45677340Y-56727399D02*
X45677340Y-56673525D01*
X45677340Y-56673525D02*
X45704277Y-56592712D01*
X45704277Y-56592712D02*
X45812027Y-56484963D01*
X45812027Y-56484963D02*
X45892839Y-56458025D01*
X45892839Y-56458025D02*
X45946714Y-56458025D01*
X45946714Y-56458025D02*
X46027526Y-56484963D01*
X49368710Y-48508651D02*
X48803025Y-47942966D01*
X48803025Y-47942966D02*
X48668338Y-48077653D01*
X48668338Y-48077653D02*
X48614463Y-48185403D01*
X48614463Y-48185403D02*
X48614463Y-48293152D01*
X48614463Y-48293152D02*
X48641401Y-48373964D01*
X48641401Y-48373964D02*
X48722213Y-48508651D01*
X48722213Y-48508651D02*
X48803025Y-48589464D01*
X48803025Y-48589464D02*
X48937712Y-48670276D01*
X48937712Y-48670276D02*
X49018524Y-48697213D01*
X49018524Y-48697213D02*
X49126274Y-48697213D01*
X49126274Y-48697213D02*
X49234023Y-48643338D01*
X49234023Y-48643338D02*
X49368710Y-48508651D01*
X48291214Y-48454777D02*
X47914091Y-48831900D01*
X47914091Y-48831900D02*
X48722213Y-49155149D01*
X46323837Y-48400902D02*
X46269962Y-48508651D01*
X46269962Y-48508651D02*
X46269962Y-48562526D01*
X46269962Y-48562526D02*
X46296900Y-48643338D01*
X46296900Y-48643338D02*
X46377712Y-48724151D01*
X46377712Y-48724151D02*
X46458524Y-48751088D01*
X46458524Y-48751088D02*
X46512399Y-48751088D01*
X46512399Y-48751088D02*
X46593211Y-48724151D01*
X46593211Y-48724151D02*
X46808710Y-48508651D01*
X46808710Y-48508651D02*
X46243025Y-47942966D01*
X46243025Y-47942966D02*
X46054463Y-48131528D01*
X46054463Y-48131528D02*
X46027526Y-48212340D01*
X46027526Y-48212340D02*
X46027526Y-48266215D01*
X46027526Y-48266215D02*
X46054463Y-48347027D01*
X46054463Y-48347027D02*
X46108338Y-48400902D01*
X46108338Y-48400902D02*
X46189150Y-48427839D01*
X46189150Y-48427839D02*
X46243025Y-48427839D01*
X46243025Y-48427839D02*
X46323837Y-48400902D01*
X46323837Y-48400902D02*
X46512399Y-48212340D01*
X45946714Y-49370648D02*
X46269962Y-49047399D01*
X46108338Y-49209024D02*
X45542653Y-48643338D01*
X45542653Y-48643338D02*
X45677340Y-48670276D01*
X45677340Y-48670276D02*
X45785089Y-48670276D01*
X45785089Y-48670276D02*
X45865901Y-48643338D01*
X49045462Y-50769277D02*
X48856900Y-50957839D01*
X49072399Y-51334963D02*
X49341773Y-51065589D01*
X49341773Y-51065589D02*
X48776088Y-50499903D01*
X48776088Y-50499903D02*
X48506714Y-50769277D01*
X48021840Y-51254151D02*
X48129590Y-51146401D01*
X48129590Y-51146401D02*
X48210402Y-51119464D01*
X48210402Y-51119464D02*
X48264277Y-51119464D01*
X48264277Y-51119464D02*
X48398964Y-51146401D01*
X48398964Y-51146401D02*
X48533651Y-51227213D01*
X48533651Y-51227213D02*
X48749150Y-51442713D01*
X48749150Y-51442713D02*
X48776087Y-51523525D01*
X48776087Y-51523525D02*
X48776087Y-51577400D01*
X48776087Y-51577400D02*
X48749150Y-51658212D01*
X48749150Y-51658212D02*
X48641400Y-51765961D01*
X48641400Y-51765961D02*
X48560588Y-51792899D01*
X48560588Y-51792899D02*
X48506713Y-51792899D01*
X48506713Y-51792899D02*
X48425901Y-51765961D01*
X48425901Y-51765961D02*
X48291214Y-51631274D01*
X48291214Y-51631274D02*
X48264277Y-51550462D01*
X48264277Y-51550462D02*
X48264277Y-51496587D01*
X48264277Y-51496587D02*
X48291214Y-51415775D01*
X48291214Y-51415775D02*
X48398964Y-51308026D01*
X48398964Y-51308026D02*
X48479776Y-51281088D01*
X48479776Y-51281088D02*
X48533651Y-51281088D01*
X48533651Y-51281088D02*
X48614463Y-51308026D01*
X49001666Y-30720795D02*
X48734999Y-31520795D01*
X48734999Y-31520795D02*
X48468333Y-30720795D01*
X47744523Y-31444604D02*
X47782619Y-31482700D01*
X47782619Y-31482700D02*
X47896904Y-31520795D01*
X47896904Y-31520795D02*
X47973095Y-31520795D01*
X47973095Y-31520795D02*
X48087381Y-31482700D01*
X48087381Y-31482700D02*
X48163571Y-31406509D01*
X48163571Y-31406509D02*
X48201666Y-31330319D01*
X48201666Y-31330319D02*
X48239762Y-31177938D01*
X48239762Y-31177938D02*
X48239762Y-31063652D01*
X48239762Y-31063652D02*
X48201666Y-30911271D01*
X48201666Y-30911271D02*
X48163571Y-30835080D01*
X48163571Y-30835080D02*
X48087381Y-30758890D01*
X48087381Y-30758890D02*
X47973095Y-30720795D01*
X47973095Y-30720795D02*
X47896904Y-30720795D01*
X47896904Y-30720795D02*
X47782619Y-30758890D01*
X47782619Y-30758890D02*
X47744523Y-30796985D01*
X46944523Y-31444604D02*
X46982619Y-31482700D01*
X46982619Y-31482700D02*
X47096904Y-31520795D01*
X47096904Y-31520795D02*
X47173095Y-31520795D01*
X47173095Y-31520795D02*
X47287381Y-31482700D01*
X47287381Y-31482700D02*
X47363571Y-31406509D01*
X47363571Y-31406509D02*
X47401666Y-31330319D01*
X47401666Y-31330319D02*
X47439762Y-31177938D01*
X47439762Y-31177938D02*
X47439762Y-31063652D01*
X47439762Y-31063652D02*
X47401666Y-30911271D01*
X47401666Y-30911271D02*
X47363571Y-30835080D01*
X47363571Y-30835080D02*
X47287381Y-30758890D01*
X47287381Y-30758890D02*
X47173095Y-30720795D01*
X47173095Y-30720795D02*
X47096904Y-30720795D01*
X47096904Y-30720795D02*
X46982619Y-30758890D01*
X46982619Y-30758890D02*
X46944523Y-30796985D01*
X48544523Y-26163890D02*
X48620713Y-26125795D01*
X48620713Y-26125795D02*
X48734999Y-26125795D01*
X48734999Y-26125795D02*
X48849285Y-26163890D01*
X48849285Y-26163890D02*
X48925475Y-26240080D01*
X48925475Y-26240080D02*
X48963570Y-26316271D01*
X48963570Y-26316271D02*
X49001666Y-26468652D01*
X49001666Y-26468652D02*
X49001666Y-26582938D01*
X49001666Y-26582938D02*
X48963570Y-26735319D01*
X48963570Y-26735319D02*
X48925475Y-26811509D01*
X48925475Y-26811509D02*
X48849285Y-26887700D01*
X48849285Y-26887700D02*
X48734999Y-26925795D01*
X48734999Y-26925795D02*
X48658808Y-26925795D01*
X48658808Y-26925795D02*
X48544523Y-26887700D01*
X48544523Y-26887700D02*
X48506427Y-26849604D01*
X48506427Y-26849604D02*
X48506427Y-26582938D01*
X48506427Y-26582938D02*
X48658808Y-26582938D01*
X48163570Y-26925795D02*
X48163570Y-26125795D01*
X48163570Y-26125795D02*
X47706427Y-26925795D01*
X47706427Y-26925795D02*
X47706427Y-26125795D01*
X47325475Y-26925795D02*
X47325475Y-26125795D01*
X47325475Y-26125795D02*
X47134999Y-26125795D01*
X47134999Y-26125795D02*
X47020713Y-26163890D01*
X47020713Y-26163890D02*
X46944523Y-26240080D01*
X46944523Y-26240080D02*
X46906428Y-26316271D01*
X46906428Y-26316271D02*
X46868332Y-26468652D01*
X46868332Y-26468652D02*
X46868332Y-26582938D01*
X46868332Y-26582938D02*
X46906428Y-26735319D01*
X46906428Y-26735319D02*
X46944523Y-26811509D01*
X46944523Y-26811509D02*
X47020713Y-26887700D01*
X47020713Y-26887700D02*
X47134999Y-26925795D01*
X47134999Y-26925795D02*
X47325475Y-26925795D01*
X48525475Y-25012295D02*
X48525475Y-24212295D01*
X48525475Y-24212295D02*
X48334999Y-24212295D01*
X48334999Y-24212295D02*
X48220713Y-24250390D01*
X48220713Y-24250390D02*
X48144523Y-24326580D01*
X48144523Y-24326580D02*
X48106428Y-24402771D01*
X48106428Y-24402771D02*
X48068332Y-24555152D01*
X48068332Y-24555152D02*
X48068332Y-24669438D01*
X48068332Y-24669438D02*
X48106428Y-24821819D01*
X48106428Y-24821819D02*
X48144523Y-24898009D01*
X48144523Y-24898009D02*
X48220713Y-24974200D01*
X48220713Y-24974200D02*
X48334999Y-25012295D01*
X48334999Y-25012295D02*
X48525475Y-25012295D01*
X47763571Y-24288485D02*
X47725475Y-24250390D01*
X47725475Y-24250390D02*
X47649285Y-24212295D01*
X47649285Y-24212295D02*
X47458809Y-24212295D01*
X47458809Y-24212295D02*
X47382618Y-24250390D01*
X47382618Y-24250390D02*
X47344523Y-24288485D01*
X47344523Y-24288485D02*
X47306428Y-24364676D01*
X47306428Y-24364676D02*
X47306428Y-24440866D01*
X47306428Y-24440866D02*
X47344523Y-24555152D01*
X47344523Y-24555152D02*
X47801666Y-25012295D01*
X47801666Y-25012295D02*
X47306428Y-25012295D01*
X44574609Y-56429523D02*
X44612704Y-56505713D01*
X44612704Y-56505713D02*
X44612704Y-56619999D01*
X44612704Y-56619999D02*
X44574609Y-56734285D01*
X44574609Y-56734285D02*
X44498419Y-56810475D01*
X44498419Y-56810475D02*
X44422228Y-56848570D01*
X44422228Y-56848570D02*
X44269847Y-56886666D01*
X44269847Y-56886666D02*
X44155561Y-56886666D01*
X44155561Y-56886666D02*
X44003180Y-56848570D01*
X44003180Y-56848570D02*
X43926990Y-56810475D01*
X43926990Y-56810475D02*
X43850800Y-56734285D01*
X43850800Y-56734285D02*
X43812704Y-56619999D01*
X43812704Y-56619999D02*
X43812704Y-56543808D01*
X43812704Y-56543808D02*
X43850800Y-56429523D01*
X43850800Y-56429523D02*
X43888895Y-56391427D01*
X43888895Y-56391427D02*
X44155561Y-56391427D01*
X44155561Y-56391427D02*
X44155561Y-56543808D01*
X43812704Y-56048570D02*
X44612704Y-56048570D01*
X44612704Y-56048570D02*
X43812704Y-55591427D01*
X43812704Y-55591427D02*
X44612704Y-55591427D01*
X43812704Y-55210475D02*
X44612704Y-55210475D01*
X44612704Y-55210475D02*
X44612704Y-55019999D01*
X44612704Y-55019999D02*
X44574609Y-54905713D01*
X44574609Y-54905713D02*
X44498419Y-54829523D01*
X44498419Y-54829523D02*
X44422228Y-54791428D01*
X44422228Y-54791428D02*
X44269847Y-54753332D01*
X44269847Y-54753332D02*
X44155561Y-54753332D01*
X44155561Y-54753332D02*
X44003180Y-54791428D01*
X44003180Y-54791428D02*
X43926990Y-54829523D01*
X43926990Y-54829523D02*
X43850800Y-54905713D01*
X43850800Y-54905713D02*
X43812704Y-55019999D01*
X43812704Y-55019999D02*
X43812704Y-55210475D01*
X33856348Y-57693710D02*
X34422033Y-57128025D01*
X34422033Y-57128025D02*
X34287346Y-56993338D01*
X34287346Y-56993338D02*
X34179596Y-56939463D01*
X34179596Y-56939463D02*
X34071847Y-56939463D01*
X34071847Y-56939463D02*
X33991035Y-56966401D01*
X33991035Y-56966401D02*
X33856348Y-57047213D01*
X33856348Y-57047213D02*
X33775535Y-57128025D01*
X33775535Y-57128025D02*
X33694723Y-57262712D01*
X33694723Y-57262712D02*
X33667786Y-57343524D01*
X33667786Y-57343524D02*
X33667786Y-57451274D01*
X33667786Y-57451274D02*
X33721661Y-57559023D01*
X33721661Y-57559023D02*
X33856348Y-57693710D01*
X33586974Y-56292966D02*
X33856348Y-56562340D01*
X33856348Y-56562340D02*
X33613911Y-56858651D01*
X33613911Y-56858651D02*
X33613911Y-56804776D01*
X33613911Y-56804776D02*
X33586974Y-56723964D01*
X33586974Y-56723964D02*
X33452287Y-56589277D01*
X33452287Y-56589277D02*
X33371474Y-56562340D01*
X33371474Y-56562340D02*
X33317600Y-56562340D01*
X33317600Y-56562340D02*
X33236787Y-56589277D01*
X33236787Y-56589277D02*
X33102100Y-56723964D01*
X33102100Y-56723964D02*
X33075163Y-56804776D01*
X33075163Y-56804776D02*
X33075163Y-56858651D01*
X33075163Y-56858651D02*
X33102100Y-56939463D01*
X33102100Y-56939463D02*
X33236787Y-57074150D01*
X33236787Y-57074150D02*
X33317600Y-57101088D01*
X33317600Y-57101088D02*
X33371474Y-57101088D01*
X41423691Y-57168431D02*
X41612253Y-57356993D01*
X41315941Y-57653304D02*
X41881627Y-57087619D01*
X41881627Y-57087619D02*
X41612253Y-56818245D01*
X41289004Y-56494996D02*
X41235129Y-56441121D01*
X41235129Y-56441121D02*
X41154317Y-56414184D01*
X41154317Y-56414184D02*
X41100442Y-56414184D01*
X41100442Y-56414184D02*
X41019630Y-56441121D01*
X41019630Y-56441121D02*
X40884943Y-56521934D01*
X40884943Y-56521934D02*
X40750256Y-56656621D01*
X40750256Y-56656621D02*
X40669444Y-56791308D01*
X40669444Y-56791308D02*
X40642506Y-56872120D01*
X40642506Y-56872120D02*
X40642506Y-56925995D01*
X40642506Y-56925995D02*
X40669444Y-57006807D01*
X40669444Y-57006807D02*
X40723319Y-57060682D01*
X40723319Y-57060682D02*
X40804131Y-57087619D01*
X40804131Y-57087619D02*
X40858006Y-57087619D01*
X40858006Y-57087619D02*
X40938818Y-57060682D01*
X40938818Y-57060682D02*
X41073505Y-56979869D01*
X41073505Y-56979869D02*
X41208192Y-56845182D01*
X41208192Y-56845182D02*
X41289004Y-56710495D01*
X41289004Y-56710495D02*
X41315942Y-56629683D01*
X41315942Y-56629683D02*
X41315942Y-56575808D01*
X41315942Y-56575808D02*
X41289004Y-56494996D01*
X31384097Y-57208837D02*
X31276348Y-57154962D01*
X31276348Y-57154962D02*
X31222473Y-57154962D01*
X31222473Y-57154962D02*
X31141661Y-57181900D01*
X31141661Y-57181900D02*
X31060848Y-57262712D01*
X31060848Y-57262712D02*
X31033911Y-57343524D01*
X31033911Y-57343524D02*
X31033911Y-57397399D01*
X31033911Y-57397399D02*
X31060848Y-57478211D01*
X31060848Y-57478211D02*
X31276348Y-57693710D01*
X31276348Y-57693710D02*
X31842033Y-57128025D01*
X31842033Y-57128025D02*
X31653471Y-56939463D01*
X31653471Y-56939463D02*
X31572659Y-56912526D01*
X31572659Y-56912526D02*
X31518784Y-56912526D01*
X31518784Y-56912526D02*
X31437972Y-56939463D01*
X31437972Y-56939463D02*
X31384097Y-56993338D01*
X31384097Y-56993338D02*
X31357160Y-57074150D01*
X31357160Y-57074150D02*
X31357160Y-57128025D01*
X31357160Y-57128025D02*
X31384097Y-57208837D01*
X31384097Y-57208837D02*
X31572659Y-57397399D01*
X31330222Y-56616214D02*
X30953099Y-56239091D01*
X30953099Y-56239091D02*
X30629850Y-57047213D01*
X25939609Y-56429523D02*
X25977704Y-56505713D01*
X25977704Y-56505713D02*
X25977704Y-56619999D01*
X25977704Y-56619999D02*
X25939609Y-56734285D01*
X25939609Y-56734285D02*
X25863419Y-56810475D01*
X25863419Y-56810475D02*
X25787228Y-56848570D01*
X25787228Y-56848570D02*
X25634847Y-56886666D01*
X25634847Y-56886666D02*
X25520561Y-56886666D01*
X25520561Y-56886666D02*
X25368180Y-56848570D01*
X25368180Y-56848570D02*
X25291990Y-56810475D01*
X25291990Y-56810475D02*
X25215800Y-56734285D01*
X25215800Y-56734285D02*
X25177704Y-56619999D01*
X25177704Y-56619999D02*
X25177704Y-56543808D01*
X25177704Y-56543808D02*
X25215800Y-56429523D01*
X25215800Y-56429523D02*
X25253895Y-56391427D01*
X25253895Y-56391427D02*
X25520561Y-56391427D01*
X25520561Y-56391427D02*
X25520561Y-56543808D01*
X25177704Y-56048570D02*
X25977704Y-56048570D01*
X25977704Y-56048570D02*
X25177704Y-55591427D01*
X25177704Y-55591427D02*
X25977704Y-55591427D01*
X25177704Y-55210475D02*
X25977704Y-55210475D01*
X25977704Y-55210475D02*
X25977704Y-55019999D01*
X25977704Y-55019999D02*
X25939609Y-54905713D01*
X25939609Y-54905713D02*
X25863419Y-54829523D01*
X25863419Y-54829523D02*
X25787228Y-54791428D01*
X25787228Y-54791428D02*
X25634847Y-54753332D01*
X25634847Y-54753332D02*
X25520561Y-54753332D01*
X25520561Y-54753332D02*
X25368180Y-54791428D01*
X25368180Y-54791428D02*
X25291990Y-54829523D01*
X25291990Y-54829523D02*
X25215800Y-54905713D01*
X25215800Y-54905713D02*
X25177704Y-55019999D01*
X25177704Y-55019999D02*
X25177704Y-55210475D01*
X38843691Y-57168431D02*
X39032253Y-57356993D01*
X38735941Y-57653304D02*
X39301627Y-57087619D01*
X39301627Y-57087619D02*
X39032253Y-56818245D01*
X37954757Y-56872120D02*
X38278006Y-57195369D01*
X38116381Y-57033744D02*
X38682067Y-56468059D01*
X38682067Y-56468059D02*
X38655129Y-56602746D01*
X38655129Y-56602746D02*
X38655129Y-56710495D01*
X38655129Y-56710495D02*
X38682067Y-56791308D01*
X36076974Y-57316587D02*
X36076974Y-57370462D01*
X36076974Y-57370462D02*
X36130848Y-57478211D01*
X36130848Y-57478211D02*
X36184723Y-57532086D01*
X36184723Y-57532086D02*
X36292473Y-57585961D01*
X36292473Y-57585961D02*
X36400222Y-57585961D01*
X36400222Y-57585961D02*
X36481035Y-57559023D01*
X36481035Y-57559023D02*
X36615722Y-57478211D01*
X36615722Y-57478211D02*
X36696534Y-57397399D01*
X36696534Y-57397399D02*
X36777346Y-57262712D01*
X36777346Y-57262712D02*
X36804283Y-57181900D01*
X36804283Y-57181900D02*
X36804283Y-57074150D01*
X36804283Y-57074150D02*
X36750409Y-56966401D01*
X36750409Y-56966401D02*
X36696534Y-56912526D01*
X36696534Y-56912526D02*
X36588784Y-56858651D01*
X36588784Y-56858651D02*
X36534909Y-56858651D01*
X36400222Y-56616214D02*
X36023099Y-56239091D01*
X36023099Y-56239091D02*
X35699850Y-57047213D01*
X20255000Y-64648200D02*
X32828000Y-64648200D01*
X20255000Y-64648200D02*
X20255000Y-64070000D01*
X32828000Y-64648200D02*
X32828000Y-57891800D01*
X18255000Y-64070000D02*
X18255000Y-58470000D01*
X20255000Y-64070000D02*
X18255000Y-64070000D01*
X20255000Y-58470000D02*
X18255000Y-58470000D01*
X20255000Y-58470000D02*
X20255000Y-57891800D01*
X20255000Y-57891800D02*
X32828000Y-57891800D01*
D11*
X35615000Y-62180000D02*
X35615000Y-60680000D01*
X36865000Y-58180000D02*
X41365000Y-58180000D01*
X41365000Y-64680000D02*
X36865000Y-64680000D01*
X42615000Y-60680000D02*
X42615000Y-62180000D01*
D12*
X43775000Y-20720000D02*
X25995000Y-20720000D01*
X25995000Y-20720000D02*
X25995000Y-53740000D01*
X43775000Y-53740000D02*
X43775000Y-20720000D01*
X25995000Y-53740000D02*
X43775000Y-53740000D01*
D10*
X44556800Y-20360500D02*
X44556800Y-32933500D01*
X44556800Y-32933500D02*
X51313200Y-32933500D01*
X45135000Y-18360500D02*
X50735000Y-18360500D01*
X45135000Y-20360500D02*
X44556800Y-20360500D01*
X45135000Y-20360500D02*
X45135000Y-18360500D01*
X50735000Y-20360500D02*
X50735000Y-18360500D01*
X50735000Y-20360500D02*
X51313200Y-20360500D01*
X51313200Y-20360500D02*
X51313200Y-32933500D01*
D13*
X35422275Y-35968931D02*
X35506095Y-36413555D01*
X36124667Y-36668551D01*
X36495707Y-36416246D01*
X36569144Y-36366506D01*
X36666499Y-36301218D01*
X36750787Y-36245454D01*
X36817631Y-36202078D01*
X36862654Y-36173953D01*
X36881478Y-36163942D01*
X36893039Y-36171061D01*
X36927596Y-36200894D01*
X36979894Y-36249852D01*
X37045500Y-36313440D01*
X37119983Y-36387163D01*
X37198913Y-36466525D01*
X37277856Y-36547031D01*
X37352384Y-36624185D01*
X37418063Y-36693493D01*
X37470463Y-36750457D01*
X37505153Y-36790584D01*
X37517701Y-36809377D01*
X37514782Y-36817451D01*
X37494571Y-36853469D01*
X37457663Y-36912744D01*
X37407050Y-36990630D01*
X37345725Y-37082481D01*
X37276679Y-37183650D01*
X37238787Y-37238826D01*
X37173606Y-37334884D01*
X37117723Y-37418717D01*
X37074117Y-37485777D01*
X37045769Y-37531519D01*
X37035657Y-37551396D01*
X37035823Y-37552497D01*
X37044743Y-37577694D01*
X37065206Y-37629147D01*
X37094360Y-37700135D01*
X37129353Y-37783935D01*
X37167332Y-37873828D01*
X37205445Y-37963091D01*
X37240839Y-38045003D01*
X37270662Y-38112843D01*
X37292061Y-38159890D01*
X37302184Y-38179422D01*
X37308174Y-38181155D01*
X37344566Y-38188969D01*
X37409427Y-38201915D01*
X37497565Y-38218979D01*
X37603787Y-38239151D01*
X37722902Y-38261418D01*
X37785683Y-38273223D01*
X37900912Y-38295748D01*
X38001662Y-38316550D01*
X38082426Y-38334435D01*
X38137698Y-38348208D01*
X38161971Y-38356674D01*
X38166331Y-38365066D01*
X38173563Y-38406072D01*
X38179246Y-38474368D01*
X38183382Y-38563529D01*
X38185977Y-38667128D01*
X38187036Y-38778740D01*
X38186561Y-38891938D01*
X38184559Y-39000296D01*
X38181033Y-39097389D01*
X38175987Y-39176790D01*
X38169427Y-39232072D01*
X38161356Y-39256810D01*
X38156458Y-39259600D01*
X38119930Y-39271569D01*
X38056565Y-39287405D01*
X37973686Y-39305374D01*
X37878618Y-39323741D01*
X37846542Y-39329591D01*
X37698393Y-39356798D01*
X37581961Y-39378663D01*
X37493209Y-39396093D01*
X37428103Y-39409996D01*
X37382606Y-39421277D01*
X37352682Y-39430843D01*
X37334294Y-39439601D01*
X37323407Y-39448457D01*
X37322142Y-39449943D01*
X37304338Y-39480931D01*
X37277994Y-39537634D01*
X37245661Y-39613399D01*
X37209893Y-39701574D01*
X37173244Y-39795507D01*
X37138266Y-39888547D01*
X37107513Y-39974041D01*
X37083538Y-40045336D01*
X37068895Y-40095782D01*
X37066136Y-40118726D01*
X37067981Y-40121703D01*
X37087075Y-40150493D01*
X37122984Y-40203595D01*
X37172378Y-40276117D01*
X37231927Y-40363167D01*
X37298303Y-40459854D01*
X37316520Y-40486456D01*
X37380577Y-40581875D01*
X37435937Y-40667212D01*
X37479439Y-40737405D01*
X37507924Y-40787394D01*
X37518232Y-40812116D01*
X37516011Y-40818616D01*
X37492858Y-40850644D01*
X37447177Y-40902945D01*
X37382241Y-40971999D01*
X37301319Y-41054286D01*
X37207685Y-41146286D01*
X37154165Y-41197781D01*
X37069542Y-41277983D01*
X36995475Y-41346678D01*
X36935941Y-41400252D01*
X36894917Y-41435085D01*
X36876381Y-41447563D01*
X36863646Y-41442938D01*
X36824436Y-41421057D01*
X36767495Y-41385273D01*
X36700250Y-41340117D01*
X36652438Y-41307165D01*
X36556985Y-41241727D01*
X36455125Y-41172228D01*
X36362088Y-41109075D01*
X36179832Y-40985800D01*
X36026841Y-41068520D01*
X35990817Y-41087613D01*
X35925303Y-41120272D01*
X35874640Y-41142819D01*
X35847564Y-41151226D01*
X35838703Y-41140430D01*
X35816699Y-41099323D01*
X35784199Y-41031549D01*
X35743010Y-40941409D01*
X35694942Y-40833205D01*
X35641802Y-40711237D01*
X35585399Y-40579808D01*
X35527542Y-40443218D01*
X35470038Y-40305767D01*
X35414697Y-40171758D01*
X35363326Y-40045491D01*
X35317735Y-39931268D01*
X35279732Y-39833390D01*
X35251124Y-39756157D01*
X35233721Y-39703871D01*
X35229331Y-39680833D01*
X35229628Y-39680160D01*
X35250077Y-39658863D01*
X35292850Y-39625508D01*
X35349117Y-39587011D01*
X35366877Y-39575256D01*
X35502014Y-39463735D01*
X35613856Y-39330906D01*
X35699755Y-39182298D01*
X35757062Y-39023440D01*
X35783131Y-38859860D01*
X35775313Y-38697088D01*
X35743644Y-38552315D01*
X35686782Y-38406124D01*
X35603888Y-38275703D01*
X35490131Y-38151813D01*
X35445433Y-38112235D01*
X35300935Y-38014723D01*
X35144838Y-37949050D01*
X34981667Y-37914630D01*
X34815943Y-37910874D01*
X34652192Y-37937194D01*
X34494936Y-37993003D01*
X34348698Y-38077714D01*
X34218004Y-38190737D01*
X34107374Y-38331487D01*
X34086105Y-38366342D01*
X34013810Y-38525655D01*
X33975415Y-38691552D01*
X33969914Y-38859737D01*
X33996301Y-39025913D01*
X34053570Y-39185784D01*
X34140717Y-39335053D01*
X34256736Y-39469423D01*
X34400622Y-39584599D01*
X34405294Y-39587702D01*
X34460964Y-39626933D01*
X34502689Y-39660286D01*
X34521746Y-39680833D01*
X34519342Y-39696941D01*
X34504391Y-39743844D01*
X34477881Y-39816539D01*
X34441620Y-39910725D01*
X34397416Y-40022098D01*
X34347076Y-40146358D01*
X34292407Y-40279202D01*
X34235218Y-40416327D01*
X34177316Y-40553432D01*
X34120510Y-40686215D01*
X34066606Y-40810374D01*
X34017412Y-40921606D01*
X33974737Y-41015609D01*
X33940387Y-41088082D01*
X33916171Y-41134722D01*
X33903897Y-41151226D01*
X33893689Y-41148991D01*
X33853586Y-41132926D01*
X33794318Y-41104759D01*
X33724619Y-41068520D01*
X33571629Y-40985800D01*
X33389373Y-41109075D01*
X33335527Y-41145579D01*
X33235374Y-41213784D01*
X33135525Y-41282098D01*
X33051211Y-41340117D01*
X33004679Y-41371736D01*
X32944200Y-41411020D01*
X32899357Y-41437912D01*
X32877455Y-41447883D01*
X32868045Y-41443650D01*
X32834031Y-41417721D01*
X32781595Y-41372070D01*
X32715301Y-41311186D01*
X32639713Y-41239561D01*
X32559396Y-41161683D01*
X32478913Y-41082045D01*
X32402829Y-41005135D01*
X32335707Y-40935445D01*
X32282112Y-40877464D01*
X32246608Y-40835684D01*
X32233759Y-40814593D01*
X32234500Y-40810581D01*
X32249793Y-40777920D01*
X32282462Y-40721412D01*
X32329350Y-40646163D01*
X32387301Y-40557275D01*
X32453157Y-40459854D01*
X32471627Y-40432982D01*
X32536482Y-40338423D01*
X32593609Y-40254827D01*
X32639678Y-40187084D01*
X32671359Y-40140086D01*
X32685324Y-40118726D01*
X32685668Y-40117811D01*
X32681546Y-40091678D01*
X32665807Y-40038740D01*
X32641004Y-39965647D01*
X32609689Y-39879052D01*
X32574417Y-39785608D01*
X32537740Y-39691965D01*
X32502212Y-39604777D01*
X32470386Y-39530695D01*
X32444816Y-39476371D01*
X32428053Y-39448457D01*
X32426374Y-39446724D01*
X32414372Y-39437956D01*
X32394103Y-39429115D01*
X32361529Y-39419292D01*
X32312616Y-39407583D01*
X32243327Y-39393080D01*
X32149625Y-39374876D01*
X32027476Y-39352066D01*
X31872842Y-39323741D01*
X31840770Y-39317780D01*
X31748893Y-39299352D01*
X31671607Y-39281892D01*
X31616236Y-39267133D01*
X31590105Y-39256810D01*
X31585733Y-39248197D01*
X31578445Y-39206826D01*
X31572669Y-39138241D01*
X31568410Y-39048868D01*
X31565673Y-38945135D01*
X31564462Y-38833465D01*
X31564782Y-38720287D01*
X31566636Y-38612026D01*
X31570030Y-38515108D01*
X31574967Y-38435959D01*
X31581452Y-38381006D01*
X31589489Y-38356674D01*
X31597696Y-38353079D01*
X31638519Y-38341748D01*
X31707524Y-38325722D01*
X31799203Y-38306195D01*
X31908050Y-38284362D01*
X32028558Y-38261418D01*
X32094357Y-38249159D01*
X32207135Y-38227901D01*
X32304207Y-38209287D01*
X32380382Y-38194328D01*
X32430469Y-38184036D01*
X32449276Y-38179422D01*
X32449983Y-38178471D01*
X32461961Y-38154310D01*
X32484794Y-38103694D01*
X32515630Y-38033338D01*
X32551613Y-37949958D01*
X32589891Y-37860270D01*
X32627609Y-37770989D01*
X32661913Y-37688832D01*
X32689949Y-37620513D01*
X32708864Y-37572748D01*
X32715803Y-37552254D01*
X32712742Y-37545043D01*
X32692372Y-37510728D01*
X32655422Y-37452970D01*
X32604860Y-37376299D01*
X32543657Y-37285248D01*
X32474781Y-37184350D01*
X32436994Y-37129093D01*
X32371782Y-37032215D01*
X32315871Y-36947193D01*
X32272241Y-36878662D01*
X32243877Y-36831260D01*
X32233759Y-36809623D01*
X32240790Y-36797887D01*
X32270197Y-36762818D01*
X32318441Y-36709745D01*
X32381093Y-36643164D01*
X32453725Y-36567574D01*
X32531908Y-36487472D01*
X32611214Y-36407354D01*
X32687213Y-36331718D01*
X32755478Y-36265062D01*
X32811580Y-36211882D01*
X32851090Y-36176676D01*
X32869579Y-36163942D01*
X32879843Y-36168893D01*
X32917530Y-36191857D01*
X32978348Y-36230938D01*
X33057913Y-36283272D01*
X33151843Y-36345996D01*
X33255754Y-36416246D01*
X33626794Y-36668551D01*
X33936080Y-36541053D01*
X34245365Y-36413555D01*
X34329186Y-35968931D01*
X34413006Y-35524307D01*
X35338454Y-35524307D01*
X35422275Y-35968931D01*
G36*
X35422275Y-35968931D02*
G01*
X35506095Y-36413555D01*
X36124667Y-36668551D01*
X36495707Y-36416246D01*
X36569144Y-36366506D01*
X36666499Y-36301218D01*
X36750787Y-36245454D01*
X36817631Y-36202078D01*
X36862654Y-36173953D01*
X36881478Y-36163942D01*
X36893039Y-36171061D01*
X36927596Y-36200894D01*
X36979894Y-36249852D01*
X37045500Y-36313440D01*
X37119983Y-36387163D01*
X37198913Y-36466525D01*
X37277856Y-36547031D01*
X37352384Y-36624185D01*
X37418063Y-36693493D01*
X37470463Y-36750457D01*
X37505153Y-36790584D01*
X37517701Y-36809377D01*
X37514782Y-36817451D01*
X37494571Y-36853469D01*
X37457663Y-36912744D01*
X37407050Y-36990630D01*
X37345725Y-37082481D01*
X37276679Y-37183650D01*
X37238787Y-37238826D01*
X37173606Y-37334884D01*
X37117723Y-37418717D01*
X37074117Y-37485777D01*
X37045769Y-37531519D01*
X37035657Y-37551396D01*
X37035823Y-37552497D01*
X37044743Y-37577694D01*
X37065206Y-37629147D01*
X37094360Y-37700135D01*
X37129353Y-37783935D01*
X37167332Y-37873828D01*
X37205445Y-37963091D01*
X37240839Y-38045003D01*
X37270662Y-38112843D01*
X37292061Y-38159890D01*
X37302184Y-38179422D01*
X37308174Y-38181155D01*
X37344566Y-38188969D01*
X37409427Y-38201915D01*
X37497565Y-38218979D01*
X37603787Y-38239151D01*
X37722902Y-38261418D01*
X37785683Y-38273223D01*
X37900912Y-38295748D01*
X38001662Y-38316550D01*
X38082426Y-38334435D01*
X38137698Y-38348208D01*
X38161971Y-38356674D01*
X38166331Y-38365066D01*
X38173563Y-38406072D01*
X38179246Y-38474368D01*
X38183382Y-38563529D01*
X38185977Y-38667128D01*
X38187036Y-38778740D01*
X38186561Y-38891938D01*
X38184559Y-39000296D01*
X38181033Y-39097389D01*
X38175987Y-39176790D01*
X38169427Y-39232072D01*
X38161356Y-39256810D01*
X38156458Y-39259600D01*
X38119930Y-39271569D01*
X38056565Y-39287405D01*
X37973686Y-39305374D01*
X37878618Y-39323741D01*
X37846542Y-39329591D01*
X37698393Y-39356798D01*
X37581961Y-39378663D01*
X37493209Y-39396093D01*
X37428103Y-39409996D01*
X37382606Y-39421277D01*
X37352682Y-39430843D01*
X37334294Y-39439601D01*
X37323407Y-39448457D01*
X37322142Y-39449943D01*
X37304338Y-39480931D01*
X37277994Y-39537634D01*
X37245661Y-39613399D01*
X37209893Y-39701574D01*
X37173244Y-39795507D01*
X37138266Y-39888547D01*
X37107513Y-39974041D01*
X37083538Y-40045336D01*
X37068895Y-40095782D01*
X37066136Y-40118726D01*
X37067981Y-40121703D01*
X37087075Y-40150493D01*
X37122984Y-40203595D01*
X37172378Y-40276117D01*
X37231927Y-40363167D01*
X37298303Y-40459854D01*
X37316520Y-40486456D01*
X37380577Y-40581875D01*
X37435937Y-40667212D01*
X37479439Y-40737405D01*
X37507924Y-40787394D01*
X37518232Y-40812116D01*
X37516011Y-40818616D01*
X37492858Y-40850644D01*
X37447177Y-40902945D01*
X37382241Y-40971999D01*
X37301319Y-41054286D01*
X37207685Y-41146286D01*
X37154165Y-41197781D01*
X37069542Y-41277983D01*
X36995475Y-41346678D01*
X36935941Y-41400252D01*
X36894917Y-41435085D01*
X36876381Y-41447563D01*
X36863646Y-41442938D01*
X36824436Y-41421057D01*
X36767495Y-41385273D01*
X36700250Y-41340117D01*
X36652438Y-41307165D01*
X36556985Y-41241727D01*
X36455125Y-41172228D01*
X36362088Y-41109075D01*
X36179832Y-40985800D01*
X36026841Y-41068520D01*
X35990817Y-41087613D01*
X35925303Y-41120272D01*
X35874640Y-41142819D01*
X35847564Y-41151226D01*
X35838703Y-41140430D01*
X35816699Y-41099323D01*
X35784199Y-41031549D01*
X35743010Y-40941409D01*
X35694942Y-40833205D01*
X35641802Y-40711237D01*
X35585399Y-40579808D01*
X35527542Y-40443218D01*
X35470038Y-40305767D01*
X35414697Y-40171758D01*
X35363326Y-40045491D01*
X35317735Y-39931268D01*
X35279732Y-39833390D01*
X35251124Y-39756157D01*
X35233721Y-39703871D01*
X35229331Y-39680833D01*
X35229628Y-39680160D01*
X35250077Y-39658863D01*
X35292850Y-39625508D01*
X35349117Y-39587011D01*
X35366877Y-39575256D01*
X35502014Y-39463735D01*
X35613856Y-39330906D01*
X35699755Y-39182298D01*
X35757062Y-39023440D01*
X35783131Y-38859860D01*
X35775313Y-38697088D01*
X35743644Y-38552315D01*
X35686782Y-38406124D01*
X35603888Y-38275703D01*
X35490131Y-38151813D01*
X35445433Y-38112235D01*
X35300935Y-38014723D01*
X35144838Y-37949050D01*
X34981667Y-37914630D01*
X34815943Y-37910874D01*
X34652192Y-37937194D01*
X34494936Y-37993003D01*
X34348698Y-38077714D01*
X34218004Y-38190737D01*
X34107374Y-38331487D01*
X34086105Y-38366342D01*
X34013810Y-38525655D01*
X33975415Y-38691552D01*
X33969914Y-38859737D01*
X33996301Y-39025913D01*
X34053570Y-39185784D01*
X34140717Y-39335053D01*
X34256736Y-39469423D01*
X34400622Y-39584599D01*
X34405294Y-39587702D01*
X34460964Y-39626933D01*
X34502689Y-39660286D01*
X34521746Y-39680833D01*
X34519342Y-39696941D01*
X34504391Y-39743844D01*
X34477881Y-39816539D01*
X34441620Y-39910725D01*
X34397416Y-40022098D01*
X34347076Y-40146358D01*
X34292407Y-40279202D01*
X34235218Y-40416327D01*
X34177316Y-40553432D01*
X34120510Y-40686215D01*
X34066606Y-40810374D01*
X34017412Y-40921606D01*
X33974737Y-41015609D01*
X33940387Y-41088082D01*
X33916171Y-41134722D01*
X33903897Y-41151226D01*
X33893689Y-41148991D01*
X33853586Y-41132926D01*
X33794318Y-41104759D01*
X33724619Y-41068520D01*
X33571629Y-40985800D01*
X33389373Y-41109075D01*
X33335527Y-41145579D01*
X33235374Y-41213784D01*
X33135525Y-41282098D01*
X33051211Y-41340117D01*
X33004679Y-41371736D01*
X32944200Y-41411020D01*
X32899357Y-41437912D01*
X32877455Y-41447883D01*
X32868045Y-41443650D01*
X32834031Y-41417721D01*
X32781595Y-41372070D01*
X32715301Y-41311186D01*
X32639713Y-41239561D01*
X32559396Y-41161683D01*
X32478913Y-41082045D01*
X32402829Y-41005135D01*
X32335707Y-40935445D01*
X32282112Y-40877464D01*
X32246608Y-40835684D01*
X32233759Y-40814593D01*
X32234500Y-40810581D01*
X32249793Y-40777920D01*
X32282462Y-40721412D01*
X32329350Y-40646163D01*
X32387301Y-40557275D01*
X32453157Y-40459854D01*
X32471627Y-40432982D01*
X32536482Y-40338423D01*
X32593609Y-40254827D01*
X32639678Y-40187084D01*
X32671359Y-40140086D01*
X32685324Y-40118726D01*
X32685668Y-40117811D01*
X32681546Y-40091678D01*
X32665807Y-40038740D01*
X32641004Y-39965647D01*
X32609689Y-39879052D01*
X32574417Y-39785608D01*
X32537740Y-39691965D01*
X32502212Y-39604777D01*
X32470386Y-39530695D01*
X32444816Y-39476371D01*
X32428053Y-39448457D01*
X32426374Y-39446724D01*
X32414372Y-39437956D01*
X32394103Y-39429115D01*
X32361529Y-39419292D01*
X32312616Y-39407583D01*
X32243327Y-39393080D01*
X32149625Y-39374876D01*
X32027476Y-39352066D01*
X31872842Y-39323741D01*
X31840770Y-39317780D01*
X31748893Y-39299352D01*
X31671607Y-39281892D01*
X31616236Y-39267133D01*
X31590105Y-39256810D01*
X31585733Y-39248197D01*
X31578445Y-39206826D01*
X31572669Y-39138241D01*
X31568410Y-39048868D01*
X31565673Y-38945135D01*
X31564462Y-38833465D01*
X31564782Y-38720287D01*
X31566636Y-38612026D01*
X31570030Y-38515108D01*
X31574967Y-38435959D01*
X31581452Y-38381006D01*
X31589489Y-38356674D01*
X31597696Y-38353079D01*
X31638519Y-38341748D01*
X31707524Y-38325722D01*
X31799203Y-38306195D01*
X31908050Y-38284362D01*
X32028558Y-38261418D01*
X32094357Y-38249159D01*
X32207135Y-38227901D01*
X32304207Y-38209287D01*
X32380382Y-38194328D01*
X32430469Y-38184036D01*
X32449276Y-38179422D01*
X32449983Y-38178471D01*
X32461961Y-38154310D01*
X32484794Y-38103694D01*
X32515630Y-38033338D01*
X32551613Y-37949958D01*
X32589891Y-37860270D01*
X32627609Y-37770989D01*
X32661913Y-37688832D01*
X32689949Y-37620513D01*
X32708864Y-37572748D01*
X32715803Y-37552254D01*
X32712742Y-37545043D01*
X32692372Y-37510728D01*
X32655422Y-37452970D01*
X32604860Y-37376299D01*
X32543657Y-37285248D01*
X32474781Y-37184350D01*
X32436994Y-37129093D01*
X32371782Y-37032215D01*
X32315871Y-36947193D01*
X32272241Y-36878662D01*
X32243877Y-36831260D01*
X32233759Y-36809623D01*
X32240790Y-36797887D01*
X32270197Y-36762818D01*
X32318441Y-36709745D01*
X32381093Y-36643164D01*
X32453725Y-36567574D01*
X32531908Y-36487472D01*
X32611214Y-36407354D01*
X32687213Y-36331718D01*
X32755478Y-36265062D01*
X32811580Y-36211882D01*
X32851090Y-36176676D01*
X32869579Y-36163942D01*
X32879843Y-36168893D01*
X32917530Y-36191857D01*
X32978348Y-36230938D01*
X33057913Y-36283272D01*
X33151843Y-36345996D01*
X33255754Y-36416246D01*
X33626794Y-36668551D01*
X33936080Y-36541053D01*
X34245365Y-36413555D01*
X34329186Y-35968931D01*
X34413006Y-35524307D01*
X35338454Y-35524307D01*
X35422275Y-35968931D01*
G37*
D14*
X27265000Y-24530000D03*
X27265000Y-27070000D03*
D15*
X27265000Y-29610000D03*
X27265000Y-32150000D03*
D14*
X27265000Y-34690000D03*
X27265000Y-37230000D03*
X27265000Y-39770000D03*
X27265000Y-42310000D03*
X27265000Y-44850000D03*
X27265000Y-47390000D03*
X27265000Y-49930000D03*
X27265000Y-52470000D03*
X42505000Y-52470000D03*
X42505000Y-49930000D03*
X42505000Y-47390000D03*
X42505000Y-44850000D03*
X42505000Y-42310000D03*
X42505000Y-39770000D03*
X42505000Y-37230000D03*
X42505000Y-34690000D03*
D16*
X42505000Y-32150000D03*
D14*
X42505000Y-29610000D03*
D15*
X42505000Y-27070000D03*
D14*
X42505000Y-24530000D03*
X29805000Y-52470000D03*
X32345000Y-52470000D03*
X34885000Y-52470000D03*
X37425000Y-52470000D03*
X39965000Y-52470000D03*
%LPC*%
D17*
X47935000Y-61270000D03*
X21855000Y-61270000D03*
D18*
X28855000Y-61270000D03*
D19*
X31050000Y-63576000D03*
X31055000Y-58970000D03*
D20*
X26478000Y-63576000D03*
X26455000Y-58970000D03*
X23430000Y-63576000D03*
X23455000Y-58970000D03*
D21*
X35865000Y-59180000D03*
X42365000Y-59180000D03*
X35865000Y-63680000D03*
X42365000Y-63680000D03*
D14*
X27265000Y-24530000D03*
X27265000Y-27070000D03*
D15*
X27265000Y-29610000D03*
X27265000Y-32150000D03*
D14*
X27265000Y-34690000D03*
X27265000Y-37230000D03*
X27265000Y-39770000D03*
X27265000Y-42310000D03*
X27265000Y-44850000D03*
X27265000Y-47390000D03*
X27265000Y-49930000D03*
X27265000Y-52470000D03*
X42505000Y-52470000D03*
X42505000Y-49930000D03*
X42505000Y-47390000D03*
X42505000Y-44850000D03*
X42505000Y-42310000D03*
X42505000Y-39770000D03*
X42505000Y-37230000D03*
X42505000Y-34690000D03*
D16*
X42505000Y-32150000D03*
D14*
X42505000Y-29610000D03*
D15*
X42505000Y-27070000D03*
D14*
X42505000Y-24530000D03*
X29805000Y-52470000D03*
X32345000Y-52470000D03*
X34885000Y-52470000D03*
X37425000Y-52470000D03*
X39965000Y-52470000D03*
D22*
X19795000Y-34690000D03*
D23*
X19795000Y-37230000D03*
X19795000Y-39770000D03*
X19795000Y-42310000D03*
X19795000Y-44850000D03*
X19795000Y-47390000D03*
X19795000Y-49930000D03*
X19795000Y-52470000D03*
X19795000Y-55010000D03*
X22335000Y-34690000D03*
X22335000Y-37230000D03*
X22335000Y-39770000D03*
X22335000Y-42310000D03*
X22335000Y-44850000D03*
X22335000Y-47390000D03*
X22335000Y-49930000D03*
X22335000Y-52470000D03*
X22335000Y-55010000D03*
D17*
X21855000Y-21963500D03*
D23*
X50015000Y-34690000D03*
X50015000Y-37230000D03*
X50015000Y-39770000D03*
X50015000Y-42310000D03*
X50015000Y-44850000D03*
X50015000Y-47390000D03*
X50015000Y-49930000D03*
X50015000Y-52470000D03*
X50015000Y-55010000D03*
D22*
X47475000Y-34690000D03*
D23*
X47475000Y-37230000D03*
X47475000Y-39770000D03*
X47475000Y-42310000D03*
X47475000Y-44850000D03*
X47475000Y-47390000D03*
X47475000Y-49930000D03*
X47475000Y-52470000D03*
X47475000Y-55010000D03*
D17*
X47935000Y-21963500D03*
D18*
X47935000Y-28963500D03*
D24*
X45629000Y-31158500D03*
X50235000Y-31163500D03*
D25*
X45629000Y-26586500D03*
X50235000Y-26563500D03*
X45629000Y-23538500D03*
X50235000Y-23563500D03*
D26*
X27250000Y-55820000D03*
D23*
X29790000Y-55820000D03*
X32330000Y-55820000D03*
X34870000Y-55820000D03*
X37410000Y-55820000D03*
X39950000Y-55820000D03*
D26*
X42490000Y-55820000D03*
%LPD*%
M02*
