M48
; DRILL file {KiCad (6.0.6)} date Thu Jun 15 01:10:46 2023
; FORMAT={-:-/ absolute / metric / decimal}
; #@! TF.CreationDate,2023-06-15T01:10:46+08:00
; #@! TF.GenerationSoftware,Kicad,Pcbnew,(6.0.6)
; #@! TF.FileFunction,Plated,1,2,PTH
FMAT,2
METRIC
; #@! TA.AperFunction,Plated,PTH,ViaDrill
T1C0.400
; #@! TA.AperFunction,Plated,PTH,ComponentDrill
T2C0.900
; #@! TA.AperFunction,Plated,PTH,ComponentDrill
T3C1.000
; #@! TA.AperFunction,Plated,PTH,ComponentDrill
T4C1.092
; #@! TA.AperFunction,Plated,PTH,ComponentDrill
T5C1.100
%
G90
G05
T1
X71.882Y-81.28
X71.882Y-84.454
X90.607Y-79.319
X92.075Y-77.978
X94.53Y-68.488
X97.879Y-73.152
X98.677Y-72.55
T3
X73.675Y-97.79
X74.95Y-92.05
X76.2Y-86.36
X76.215Y-97.79
X77.49Y-92.05
X78.74Y-86.36
X78.755Y-97.79
X80.03Y-92.05
X81.28Y-86.36
X81.295Y-97.79
X82.57Y-92.05
X83.82Y-86.36
X83.835Y-97.79
X85.11Y-92.05
X86.36Y-86.36
X86.375Y-97.79
X87.65Y-92.05
X88.9Y-86.36
X88.915Y-97.79
X90.19Y-92.05
X91.455Y-97.79
T4
X74.93Y-46.355
X74.93Y-48.895
X74.93Y-51.435
X74.93Y-53.975
X74.93Y-56.515
X74.93Y-59.055
X74.93Y-61.595
X74.93Y-64.135
X74.93Y-66.675
X74.93Y-69.215
X74.93Y-71.755
X74.93Y-74.295
X77.47Y-74.295
X80.01Y-74.295
X82.55Y-74.295
X85.09Y-74.295
X87.63Y-74.295
X90.17Y-46.355
X90.17Y-48.895
X90.17Y-51.435
X90.17Y-53.975
X90.17Y-56.515
X90.17Y-59.055
X90.17Y-61.595
X90.17Y-64.135
X90.17Y-66.675
X90.17Y-69.215
X90.17Y-71.755
X90.17Y-74.295
T5
X79.3Y-101.89
X79.3Y-106.39
X85.8Y-101.89
X85.8Y-106.39
T2
X66.28Y-53.612G85X66.28Y-54.012
G05
X70.278Y-77.71G85X70.677Y-77.71
G05
X70.88Y-45.512G85X70.88Y-45.913
G05
X70.88Y-48.512G85X70.88Y-48.912
G05
X70.88Y-52.512G85X70.88Y-52.912
G05
X73.278Y-77.71G85X73.677Y-77.71
G05
X77.278Y-77.71G85X77.677Y-77.71
G05
X78.377Y-82.31G85X78.778Y-82.31
G05
X86.722Y-77.71G85X86.322Y-77.71
G05
X87.822Y-82.31G85X87.422Y-82.31
G05
X91.822Y-82.31G85X91.422Y-82.31
G05
X94.22Y-53.612G85X94.22Y-54.012
G05
X94.822Y-82.31G85X94.422Y-82.31
G05
X98.82Y-45.512G85X98.82Y-45.913
G05
X98.82Y-48.512G85X98.82Y-48.912
G05
X98.82Y-52.512G85X98.82Y-52.912
G05
T0
M30
