G04 #@! TF.GenerationSoftware,KiCad,Pcbnew,7.0.5*
G04 #@! TF.CreationDate,2023-07-20T19:29:21+08:00*
G04 #@! TF.ProjectId,handwire microboard,68616e64-7769-4726-9520-6d6963726f62,rev?*
G04 #@! TF.SameCoordinates,Original*
G04 #@! TF.FileFunction,Copper,L2,Bot*
G04 #@! TF.FilePolarity,Positive*
%FSLAX46Y46*%
G04 Gerber Fmt 4.6, Leading zero omitted, Abs format (unit mm)*
G04 Created by KiCad (PCBNEW 7.0.5) date 2023-07-20 19:29:21*
%MOMM*%
%LPD*%
G01*
G04 APERTURE LIST*
G04 Aperture macros list*
%AMRoundRect*
0 Rectangle with rounded corners*
0 $1 Rounding radius*
0 $2 $3 $4 $5 $6 $7 $8 $9 X,Y pos of 4 corners*
0 Add a 4 corners polygon primitive as box body*
4,1,4,$2,$3,$4,$5,$6,$7,$8,$9,$2,$3,0*
0 Add four circle primitives for the rounded corners*
1,1,$1+$1,$2,$3*
1,1,$1+$1,$4,$5*
1,1,$1+$1,$6,$7*
1,1,$1+$1,$8,$9*
0 Add four rect primitives between the rounded corners*
20,1,$1+$1,$2,$3,$4,$5,0*
20,1,$1+$1,$4,$5,$6,$7,0*
20,1,$1+$1,$6,$7,$8,$9,0*
20,1,$1+$1,$8,$9,$2,$3,0*%
%AMOutline4P*
0 Free polygon, 4 corners , with rotation*
0 The origin of the aperture is its center*
0 number of corners: always 4*
0 $1 to $8 corner X, Y*
0 $9 Rotation angle, in degrees counterclockwise*
0 create outline with 4 corners*
4,1,4,$1,$2,$3,$4,$5,$6,$7,$8,$1,$2,$9*%
G04 Aperture macros list end*
G04 #@! TA.AperFunction,ComponentPad*
%ADD10C,1.700000*%
G04 #@! TD*
G04 #@! TA.AperFunction,ComponentPad*
%ADD11O,1.700000X1.700000*%
G04 #@! TD*
G04 #@! TA.AperFunction,ComponentPad*
%ADD12C,2.000000*%
G04 #@! TD*
G04 #@! TA.AperFunction,ComponentPad*
%ADD13O,1.600000X2.000000*%
G04 #@! TD*
G04 #@! TA.AperFunction,ComponentPad*
%ADD14O,1.576000X3.029000*%
G04 #@! TD*
G04 #@! TA.AperFunction,ComponentPad*
%ADD15O,3.029000X1.576000*%
G04 #@! TD*
G04 #@! TA.AperFunction,ComponentPad*
%ADD16O,2.000000X1.600000*%
G04 #@! TD*
G04 #@! TA.AperFunction,ComponentPad*
%ADD17C,1.752600*%
G04 #@! TD*
G04 #@! TA.AperFunction,ComponentPad*
%ADD18RoundRect,0.438150X-0.438150X0.438150X-0.438150X-0.438150X0.438150X-0.438150X0.438150X0.438150X0*%
G04 #@! TD*
G04 #@! TA.AperFunction,ComponentPad*
%ADD19Outline4P,-0.876300X-0.876300X0.876300X-0.876300X0.876300X0.876300X-0.876300X0.876300X270.000000*%
G04 #@! TD*
G04 #@! TA.AperFunction,ComponentPad*
%ADD20RoundRect,0.425000X0.425000X-0.425000X0.425000X0.425000X-0.425000X0.425000X-0.425000X-0.425000X0*%
G04 #@! TD*
G04 #@! TA.AperFunction,ViaPad*
%ADD21C,0.800000*%
G04 #@! TD*
G04 #@! TA.AperFunction,Conductor*
%ADD22C,0.250000*%
G04 #@! TD*
G04 APERTURE END LIST*
D10*
X63930000Y-44690000D03*
D11*
X66470000Y-44690000D03*
X63930000Y-47230000D03*
X66470000Y-47230000D03*
X63930000Y-49770000D03*
X66470000Y-49770000D03*
X63930000Y-52310000D03*
X66470000Y-52310000D03*
X63930000Y-54850000D03*
X66470000Y-54850000D03*
X63930000Y-57390000D03*
X66470000Y-57390000D03*
X63930000Y-59930000D03*
X66470000Y-59930000D03*
X63930000Y-62470000D03*
X66470000Y-62470000D03*
X63930000Y-65010000D03*
X66470000Y-65010000D03*
D12*
X58820000Y-73680000D03*
X52320000Y-73680000D03*
X52320000Y-69180000D03*
X58820000Y-69180000D03*
D13*
X66690000Y-33563500D03*
X62104000Y-33538500D03*
X66690000Y-36563500D03*
X62104000Y-36586500D03*
D14*
X66690000Y-41163500D03*
X62090000Y-41158500D03*
D15*
X47505000Y-73570000D03*
X47510000Y-68970000D03*
D16*
X42933000Y-73556000D03*
X42910000Y-68970000D03*
X39885000Y-73556000D03*
X39910000Y-68970000D03*
D11*
X38790000Y-65010000D03*
X36250000Y-65010000D03*
X38790000Y-62470000D03*
X36250000Y-62470000D03*
X38790000Y-59930000D03*
X36250000Y-59930000D03*
X38790000Y-57390000D03*
X36250000Y-57390000D03*
X38790000Y-54850000D03*
X36250000Y-54850000D03*
X38790000Y-52310000D03*
X36250000Y-52310000D03*
X38790000Y-49770000D03*
X36250000Y-49770000D03*
X38790000Y-47230000D03*
X36250000Y-47230000D03*
X38790000Y-44690000D03*
D10*
X36250000Y-44690000D03*
D17*
X43720000Y-34530000D03*
X43720000Y-37070000D03*
D18*
X43720000Y-39610000D03*
X43720000Y-42150000D03*
D17*
X43720000Y-44690000D03*
X43720000Y-47230000D03*
X43720000Y-49770000D03*
X43720000Y-52310000D03*
X43720000Y-54850000D03*
X43720000Y-57390000D03*
X43720000Y-59930000D03*
X43720000Y-62470000D03*
X58960000Y-62470000D03*
X58960000Y-59930000D03*
X58960000Y-57390000D03*
X58960000Y-54850000D03*
X58960000Y-52310000D03*
X58960000Y-49770000D03*
X58960000Y-47230000D03*
X58960000Y-44690000D03*
D19*
X58960000Y-42150000D03*
D17*
X58960000Y-39610000D03*
D18*
X58960000Y-37070000D03*
D17*
X58960000Y-34530000D03*
X46260000Y-62470000D03*
X48800000Y-62470000D03*
X51340000Y-62470000D03*
X53880000Y-62470000D03*
X56420000Y-62470000D03*
D20*
X43705000Y-65820000D03*
D11*
X46245000Y-65820000D03*
X48785000Y-65820000D03*
X51325000Y-65820000D03*
X53865000Y-65820000D03*
X56405000Y-65820000D03*
D20*
X58945000Y-65820000D03*
D21*
X40660000Y-66020000D03*
X50150000Y-68650000D03*
X41430000Y-42180000D03*
X41410000Y-70730000D03*
X41430000Y-45235500D03*
X54820000Y-42640000D03*
D22*
X40660000Y-42960000D02*
X40660000Y-66020000D01*
X41440000Y-42180000D02*
X40660000Y-42960000D01*
X42155000Y-64270000D02*
X43705000Y-65820000D01*
X42155000Y-43715000D02*
X42155000Y-64270000D01*
X43720000Y-42150000D02*
X42155000Y-43715000D01*
X50150000Y-71510000D02*
X52320000Y-73680000D01*
X50150000Y-68650000D02*
X50150000Y-71510000D01*
X41430000Y-45235500D02*
X41430000Y-70710000D01*
X41430000Y-70710000D02*
X41410000Y-70730000D01*
X37520000Y-66580000D02*
X39910000Y-68970000D01*
X37520000Y-45960000D02*
X37520000Y-66580000D01*
X36250000Y-44690000D02*
X37520000Y-45960000D01*
X65370000Y-36804500D02*
X62104000Y-33538500D01*
X66470000Y-44690000D02*
X65370000Y-43590000D01*
X65370000Y-43590000D02*
X65370000Y-36804500D01*
X47550000Y-38360000D02*
X43720000Y-34530000D01*
X62150000Y-38360000D02*
X47550000Y-38360000D01*
X63930000Y-40140000D02*
X62150000Y-38360000D01*
X63930000Y-44690000D02*
X63930000Y-40140000D01*
X44980000Y-61210000D02*
X43720000Y-62470000D01*
X61918895Y-63730000D02*
X59398895Y-61210000D01*
X59398895Y-61210000D02*
X44980000Y-61210000D01*
X65190000Y-63730000D02*
X61918895Y-63730000D01*
X66470000Y-65010000D02*
X65190000Y-63730000D01*
X60988299Y-58650000D02*
X63528299Y-61190000D01*
X45000000Y-58650000D02*
X60988299Y-58650000D01*
X43720000Y-59930000D02*
X45000000Y-58650000D01*
X63528299Y-61190000D02*
X65190000Y-61190000D01*
X65190000Y-61190000D02*
X66470000Y-62470000D01*
X61918895Y-58650000D02*
X59378895Y-56110000D01*
X45000000Y-56110000D02*
X43720000Y-57390000D01*
X65190000Y-58650000D02*
X61918895Y-58650000D01*
X59378895Y-56110000D02*
X45000000Y-56110000D01*
X66470000Y-59930000D02*
X65190000Y-58650000D01*
X65190000Y-56110000D02*
X66470000Y-57390000D01*
X63528299Y-56110000D02*
X65190000Y-56110000D01*
X60988299Y-53570000D02*
X63528299Y-56110000D01*
X45000000Y-53570000D02*
X60988299Y-53570000D01*
X43720000Y-54850000D02*
X45000000Y-53570000D01*
X45010000Y-51020000D02*
X43720000Y-52310000D01*
X59368895Y-51020000D02*
X45010000Y-51020000D01*
X61928895Y-53580000D02*
X59368895Y-51020000D01*
X65200000Y-53580000D02*
X61928895Y-53580000D01*
X66470000Y-54850000D02*
X65200000Y-53580000D01*
X60670000Y-48490000D02*
X63220000Y-51040000D01*
X63220000Y-51040000D02*
X65200000Y-51040000D01*
X65200000Y-51040000D02*
X66470000Y-52310000D01*
X45000000Y-48490000D02*
X60670000Y-48490000D01*
X43720000Y-49770000D02*
X45000000Y-48490000D01*
X59378895Y-45950000D02*
X45000000Y-45950000D01*
X45000000Y-45950000D02*
X43720000Y-47230000D01*
X61928895Y-48500000D02*
X59378895Y-45950000D01*
X65200000Y-48500000D02*
X61928895Y-48500000D01*
X66470000Y-49770000D02*
X65200000Y-48500000D01*
X63518299Y-45940000D02*
X65180000Y-45940000D01*
X65180000Y-45940000D02*
X66470000Y-47230000D01*
X60998299Y-43420000D02*
X63518299Y-45940000D01*
X45020000Y-43400000D02*
X61028299Y-43400000D01*
X43720000Y-44690000D02*
X44990000Y-43420000D01*
X49290000Y-42640000D02*
X54820000Y-42640000D01*
X43720000Y-37070000D02*
X49290000Y-42640000D01*
X43720000Y-39610000D02*
X43720000Y-42150000D01*
X38790000Y-39460000D02*
X38790000Y-44690000D01*
X43720000Y-34530000D02*
X38790000Y-39460000D01*
X42910000Y-66615000D02*
X43705000Y-65820000D01*
X42910000Y-68970000D02*
X42910000Y-66615000D01*
X58945000Y-69055000D02*
X58820000Y-69180000D01*
X58945000Y-65820000D02*
X58945000Y-69055000D01*
X47510000Y-73565000D02*
X47505000Y-73570000D01*
X47510000Y-68970000D02*
X47510000Y-73565000D01*
X39910000Y-73531000D02*
X39885000Y-73556000D01*
X39910000Y-68970000D02*
X39910000Y-73531000D01*
X42910000Y-73533000D02*
X42933000Y-73556000D01*
X42910000Y-68970000D02*
X42910000Y-73533000D01*
X56405000Y-62485000D02*
X56420000Y-62470000D01*
X56405000Y-65820000D02*
X56405000Y-62485000D01*
X53880000Y-65805000D02*
X53865000Y-65820000D01*
X53880000Y-62470000D02*
X53880000Y-65805000D01*
X51340000Y-65805000D02*
X51325000Y-65820000D01*
X51340000Y-62470000D02*
X51340000Y-65805000D01*
X48800000Y-65805000D02*
X48785000Y-65820000D01*
X48800000Y-62470000D02*
X48800000Y-65805000D01*
X46260000Y-62470000D02*
X46260000Y-65805000D01*
X46260000Y-65805000D02*
X46245000Y-65820000D01*
M02*
