M48
; DRILL file {KiCad (6.0.6)} date Fri Jun 16 03:16:21 2023
; FORMAT={-:-/ absolute / metric / decimal}
; #@! TF.CreationDate,2023-06-16T03:16:21+08:00
; #@! TF.GenerationSoftware,Kicad,Pcbnew,(6.0.6)
; #@! TF.FileFunction,Plated,1,2,PTH
FMAT,2
METRIC
; #@! TA.AperFunction,Plated,PTH,ViaDrill
T1C0.400
; #@! TA.AperFunction,Plated,PTH,ComponentDrill
T2C0.900
; #@! TA.AperFunction,Plated,PTH,ComponentDrill
T3C1.000
; #@! TA.AperFunction,Plated,PTH,ComponentDrill
T4C1.092
; #@! TA.AperFunction,Plated,PTH,ComponentDrill
T5C1.100
%
G90
G05
T1
X152.806Y-115.214
X158.291Y-92.075
X158.291Y-94.683
X158.291Y-97.155
X158.291Y-99.695
X158.291Y-102.265
X158.295Y-104.421
T3
X137.209Y-93.629
X137.209Y-96.169
X137.209Y-98.709
X137.209Y-101.249
X137.209Y-103.789
X137.209Y-106.329
X141.425Y-91.109
X141.425Y-93.649
X141.425Y-96.189
X141.425Y-98.73
X141.425Y-101.269
X141.425Y-103.809
X141.425Y-106.349
X145.083Y-110.266
X147.623Y-110.266
X150.163Y-110.266
X152.703Y-110.266
X155.243Y-110.266
X157.783Y-110.266
X160.323Y-110.266
X162.863Y-110.266
X164.158Y-91.109
X164.158Y-93.649
X164.158Y-96.189
X164.158Y-98.73
X164.158Y-101.269
X164.158Y-103.809
X164.158Y-106.349
X168.197Y-93.629
X168.197Y-96.169
X168.197Y-98.709
X168.197Y-101.249
X168.197Y-103.789
X168.197Y-106.329
T4
X145.083Y-78.897
X145.083Y-81.438
X145.083Y-83.977
X145.083Y-86.517
X145.083Y-89.057
X145.083Y-91.597
X145.083Y-94.138
X145.083Y-96.677
X145.083Y-99.218
X145.083Y-101.757
X145.083Y-104.297
X145.083Y-106.837
X147.623Y-106.837
X150.163Y-106.837
X152.703Y-106.837
X155.243Y-106.837
X157.783Y-106.837
X160.323Y-78.897
X160.323Y-81.438
X160.323Y-83.977
X160.323Y-86.517
X160.323Y-89.057
X160.323Y-91.597
X160.323Y-94.138
X160.323Y-96.677
X160.323Y-99.218
X160.323Y-101.757
X160.323Y-104.297
X160.323Y-106.837
T5
X149.453Y-120.971
X149.453Y-125.471
X155.953Y-120.971
X155.953Y-125.471
T2
X136.941Y-86.679G85X136.941Y-87.079
G05
X140.717Y-113.301G85X141.117Y-113.301
G05
X141.541Y-78.579G85X141.541Y-78.98
G05
X141.541Y-81.579G85X141.541Y-81.98
G05
X141.541Y-85.579G85X141.541Y-85.98
G05
X143.717Y-113.301G85X144.117Y-113.301
G05
X147.717Y-113.301G85X148.117Y-113.301
G05
X148.817Y-117.901G85X149.217Y-117.901
G05
X156.589Y-113.3G85X156.189Y-113.3
G05
X157.689Y-117.9G85X157.289Y-117.9
G05
X161.689Y-117.9G85X161.289Y-117.9
G05
X163.865Y-86.679G85X163.865Y-87.079
G05
X164.689Y-117.9G85X164.289Y-117.9
G05
X168.465Y-78.579G85X168.465Y-78.98
G05
X168.465Y-81.579G85X168.465Y-81.98
G05
X168.465Y-85.579G85X168.465Y-85.98
G05
T0
M30
